<svg width="180" height="300" viewBox="0 0 180 300" fill="none" xmlns="http://www.w3.org/2000/svg">
    <g opacity="0.5">
        <path d="M77.8238 57.1777C79.1454 57.3732 80.5884 57.5548 81.3563 58.8002C82.3841 60.4677 82.5345 81.6397 81.7686 83.9774L81.0458 84.1285L76.0918 84.1195C76.0773 78.3768 75.3405 64.0667 76.3573 59.523C76.5659 58.5916 77.2139 57.8763 77.8238 57.1777Z" fill="#FEFEFE"/>
        <path d="M49.0334 173.291L54.5328 173.289L54.4586 201.962C52.7662 202.273 50.836 202.118 49.1103 202.138C48.8082 192.553 49.0486 182.886 49.0334 173.291Z" fill="#FEFEFE"/>
        <path d="M64.0459 135.107L69.5086 135.161L69.4968 163.93L64.0528 163.937L64.0459 135.107Z" fill="#FEFEFE"/>
        <path d="M64.002 173.211L69.4417 173.257C69.6815 182.93 69.4688 192.66 69.4708 202.34L64.0421 202.378L64.002 173.211Z" fill="#FEFEFE"/>
        <path d="M48.9375 135.135L54.6157 135.133L54.6101 163.849L49.0636 163.856C49.0743 154.282 49.0322 144.708 48.9375 135.135Z" fill="#FEFEFE"/>
        <path d="M78.8672 173.24L84.6889 173.26L84.6542 202.207L78.906 202.302L78.8672 173.24Z" fill="#FEFEFE"/>
        <path d="M80.436 135.002L84.6615 134.9C84.6886 139.676 85.4267 160.974 84.3802 163.734L83.4729 163.934L78.9064 163.917C78.8919 159.74 78.1704 136.966 79.2162 135.185L80.436 135.002Z" fill="#FEFEFE"/>
        <path d="M93.213 57.2272C94.861 57.1426 95.8625 57.0234 97.1717 58.1365C97.6152 59.3008 97.8217 60.3854 97.9 61.6281C98.1218 65.1543 98.2556 94.2584 97.6166 95.9086L96.9852 95.6882C94.9151 93.442 93.0778 90.9574 91.4117 88.4014L91.3542 69.7985C91.3452 66.5758 91.0499 63.0683 91.517 59.8851C91.7146 58.5378 92.1186 57.9993 93.213 57.2272Z" fill="#FEFEFE"/>
        <path d="M109.665 57.2129C110.944 57.1194 112.444 56.8671 113.466 57.8436C114.564 58.8936 114.487 60.9443 114.53 62.3589C115.126 82.1026 114.526 102.008 114.543 121.773L114.521 159.971C114.529 166.812 114.772 173.74 114.532 180.572C114.496 181.58 114.503 182.475 113.776 183.243L108.734 183.108C108.215 173.51 108.449 163.756 108.42 154.138L108.319 103.151L108.222 73.8566C108.208 69.2929 107.73 64.1802 108.326 59.6809C108.451 58.7376 109.107 57.9469 109.665 57.2129Z" fill="#FEFEFE"/>
        <path fill-rule="evenodd" clip-rule="evenodd" d="M86.2852 91.0744L86.078 90.9746C80.1987 91.281 74.275 91.2687 68.3685 91.2564C66.3934 91.2523 64.4202 91.2482 62.4512 91.256L16.5059 91.247C16.5055 91.8034 16.4853 92.7488 16.4601 93.9216C16.3571 98.7334 16.1721 107.374 16.9383 108.697L17.4859 108.842C32.4877 108.593 47.4907 108.487 62.4948 108.523C64.4252 108.524 66.3626 108.512 68.3033 108.499C74.4446 108.458 80.6199 108.418 86.7157 108.833C86.7081 108.148 86.7219 106.955 86.7387 105.499C86.7962 100.514 86.8893 92.4418 86.2852 91.0744ZM80.9904 97.1609C67.7952 97.1096 54.6001 97.1286 41.4053 97.2177C34.4905 97.3138 27.5754 97.3647 20.6602 97.3702L20.6726 102.995C25.6841 103.001 30.6981 103.036 35.7125 103.071C43.8864 103.128 52.0616 103.185 60.2293 103.117C67.1465 103.012 74.0641 102.963 80.9821 102.969L80.9904 97.1609Z" fill="#FEFEFE"/>
        <path d="M3 114.805L99.8126 114.833C100.378 142.843 99.6906 170.896 99.6684 198.908C99.6511 220.842 100.45 242.939 99.78 264.853L93.5585 264.846L93.4691 129.495L93.4268 120.714C83.6617 120.351 73.7718 120.646 63.9963 120.652L9.60824 120.633C9.28759 167.882 9.26129 215.132 9.52927 262.382L3.12821 262.44L3 114.805Z" fill="#FEFEFE"/>
        <path fill-rule="evenodd" clip-rule="evenodd" d="M85.4455 21.1166C81.4427 21.1726 77.4521 21.2285 73.4919 21.232C73.28 25.3987 73.2915 29.5756 73.3031 33.7514V33.7515V33.7515V33.7515V33.7515V33.7516V33.7516V33.7516V33.7517V33.7517V33.7517V33.7517V33.7518V33.7518V33.7518V33.7519V33.7519V33.7519V33.7519C73.3103 36.364 73.3176 38.9757 73.2701 41.5842C71.9946 41.5958 70.7161 41.6 69.4364 41.6043C65.8312 41.6163 62.2157 41.6283 58.6266 41.8053C58.2024 55.9172 58.2107 70.3105 58.5663 84.4232L64.3456 84.1751C64.4984 77.4979 64.4905 70.8185 64.4825 64.1391V64.1391C64.4762 58.7921 64.4698 53.4451 64.5459 48.0996C79.6647 47.7401 94.8671 47.8413 110.03 47.9423C115.009 47.9755 119.983 48.0086 124.949 48.0254L124.693 200.251C125.056 200.054 125.461 199.849 125.89 199.632L125.89 199.631L125.891 199.631C127.993 198.566 130.644 197.223 131.459 195.269C131.689 194.718 131.641 193.871 131.602 193.182C131.593 193.022 131.584 192.871 131.579 192.734C132.399 191.867 133.821 191.835 135.227 191.803H135.227C136.152 191.783 137.07 191.762 137.806 191.503C140.62 190.514 144.384 187.585 146.615 185.574L146.583 179.239C147.289 179.237 147.997 179.232 148.705 179.226H148.707H148.71H148.712H148.715H148.717H148.72H148.722H148.725H148.727H148.73H148.732H148.735H148.737H148.74H148.742H148.745H148.747H148.75C151.603 179.205 154.465 179.183 157.305 179.394L157.481 179.291L157.785 179.114L157.785 179.114L157.79 179.111L157.795 179.108C159.944 177.855 162.665 176.269 164.188 174.47C163.666 174.176 163.218 173.977 162.661 173.767C162.163 172.178 162.271 170.125 162.369 168.25V168.249C162.403 167.61 162.435 166.991 162.442 166.418L171.779 166.451L171.76 173.277C173.934 174.548 176.008 175.921 178.084 177.346L177.687 96.492C162.463 97.2897 146.095 97.3375 130.869 96.8191C130.793 85.058 130.787 73.2967 130.85 61.5351C130.853 59.9301 130.87 58.3168 130.886 56.6996C130.938 51.7601 130.991 46.7841 130.625 41.8981C129.682 41.8816 128.739 41.8628 127.795 41.8439L127.794 41.8439C123.902 41.7661 120.006 41.6883 116.117 41.7748C116.013 35.0323 115.958 28.2893 115.95 21.5459C105.904 20.8304 95.6356 20.9741 85.4455 21.1166ZM110.255 27.4686C99.8731 27.372 89.4907 27.3431 79.1083 27.3819C79.1203 32.1233 79.078 36.8643 78.9814 41.6048L110.315 41.6651L110.255 27.4686ZM131.85 115.887L140.934 115.939L140.938 123.115L131.848 123.111L131.85 115.887ZM156.201 116.042L146.993 116.031C146.972 118.458 146.982 120.884 147.023 123.311L156.16 123.314L156.201 116.042ZM138.188 166.628H138.189L138.192 166.628C139.073 166.638 139.955 166.648 140.834 166.652L140.812 174.003L131.658 174.027L131.662 166.644C133.83 166.578 136.009 166.603 138.184 166.628H138.184H138.185H138.185H138.185H138.185H138.186H138.186H138.186H138.187H138.187H138.187H138.188H138.188H138.188ZM168.676 116.031H168.676H168.675H168.675H168.674H168.674H168.674H168.673H168.673H168.673H168.672H168.672H168.672H168.671H168.671C166.497 116.006 164.319 115.98 162.15 116.032L162.177 123.29L171.498 123.342C171.504 122.625 171.518 121.904 171.532 121.183V121.183V121.183V121.183V121.183V121.183V121.182V121.182V121.182V121.182V121.182V121.182V121.182V121.182V121.182C171.566 119.472 171.599 117.756 171.536 116.058C170.584 116.054 169.63 116.042 168.676 116.031ZM146.834 166.479L156.028 166.485L155.969 173.959L146.82 174.076L146.834 166.479ZM137.95 178.911C135.872 178.906 133.792 178.901 131.719 178.961L131.707 186.855L140.448 186.783C140.562 184.16 140.596 181.537 140.548 178.912C139.684 178.915 138.819 178.913 137.954 178.911H137.953H137.953H137.953H137.952H137.952H137.951H137.951H137.951H137.95ZM131.789 153.863L140.826 153.861L140.799 161.63L131.79 161.646L131.789 153.863ZM156.106 141.175L146.764 141.098L146.774 148.752C147.678 148.746 148.6 148.761 149.528 148.776C151.644 148.81 153.791 148.845 155.832 148.63C156.017 146.135 156.109 143.676 156.106 141.175ZM168.933 153.955L168.938 153.955H168.939H168.94H168.941H168.942H168.943H168.945H168.946H168.947H168.948C169.892 153.962 170.837 153.969 171.78 153.971L171.794 161.576L162.434 161.563L162.424 153.96C164.592 153.923 166.763 153.939 168.933 153.955ZM156.277 128.261L146.844 128.244L146.826 135.813L156.331 135.757C156.327 135.019 156.325 134.281 156.323 133.542V133.542V133.542V133.541V133.541V133.541V133.541V133.54V133.54C156.319 131.78 156.314 130.019 156.277 128.261ZM162.141 128.316L171.635 128.336L171.649 135.909L162.173 135.946L162.141 128.316ZM138.264 141.02C136.121 140.998 133.974 140.975 131.836 141.032L131.844 148.933L140.985 148.851C140.984 148.044 140.987 147.237 140.99 146.43V146.43V146.429V146.429V146.428C140.995 144.632 141.001 142.836 140.971 141.042C140.071 141.039 139.169 141.029 138.267 141.02L138.264 141.02ZM138.187 102.856H138.188L138.189 102.856C139.124 102.865 140.059 102.874 140.993 102.878L141.013 110.805L131.911 110.822L131.902 102.843C133.995 102.816 136.091 102.836 138.186 102.856H138.186H138.186H138.187H138.187ZM154.319 102.873H154.319H154.319H154.319H154.319C151.809 102.827 149.297 102.781 146.789 102.886L146.792 110.883L155.894 110.867L155.798 102.899C155.307 102.891 154.815 102.882 154.323 102.873L154.321 102.873L154.319 102.873ZM162.091 141.172L171.851 141.281C171.859 143.798 171.863 146.307 171.75 148.822L162.274 148.867C162.062 146.448 162.075 144.038 162.088 141.613V141.612L162.091 141.172ZM171.551 102.949L162.099 102.941L162.092 110.802L171.47 110.792L171.551 102.949ZM146.641 153.852L156.257 153.863C156.318 156.396 156.35 158.87 156.106 161.394C153.511 161.818 150.865 161.805 148.235 161.793C147.727 161.791 147.22 161.788 146.713 161.789L146.641 153.852ZM138.046 127.924C135.958 127.909 133.868 127.893 131.781 127.915L131.83 136.253L141.128 136.199L141.124 127.943C140.099 127.94 139.073 127.932 138.046 127.924Z" fill="#FEFEFE"/>
    </g>
</svg>
