<svg width="180" height="300" viewBox="0 0 180 300" fill="none" xmlns="http://www.w3.org/2000/svg">
    <g opacity="1">
        <path d="M78.7736 88.377C79.7844 88.4029 81.1815 88.3725 82.0267 89.0287C82.7436 89.585 82.7279 89.7937 82.8423 90.6376C82.5401 91.6169 81.9048 92.0676 81.1582 92.708C80.5607 92.7877 79.8672 92.9274 79.2673 92.8888C78.5738 92.8446 77.5914 92.3167 77.1811 91.7218C76.7607 91.1111 76.6305 90.6389 76.8511 89.9207C77.1192 89.0483 78.0232 88.7284 78.7736 88.377Z" fill="#FEFEFE"/>
        <path d="M39.6529 239.27C40.3597 239.418 41.0481 239.606 41.7264 239.857C43.7089 240.588 47.5899 241.905 48.2214 244.192C48.4907 245.168 47.9249 245.715 47.4451 246.485C47.0013 246.465 46.909 246.482 46.4298 246.348C44.5889 245.833 40.0398 243.09 39.0827 241.487C39.0074 240.457 39.1592 240.127 39.6529 239.27Z" fill="#FEFEFE"/>
        <path d="M160.62 181.775C161.031 181.889 161.611 181.999 161.971 182.222C162.578 182.599 162.934 183.042 162.952 183.779C163.015 186.302 159.092 190.245 157.439 192.027C157.081 191.987 156.574 191.837 156.265 191.671C155.521 191.271 155.393 190.962 155.132 190.226C155.457 187.62 159.085 183.959 160.62 181.775Z" fill="#FEFEFE"/>
        <path d="M116.002 190.053C116.554 190.115 117.19 190.223 117.709 190.418C118.497 190.711 118.697 191.017 119.005 191.763C118.398 194.094 113.51 196.337 111.671 198.011C110.631 198.958 109.768 200.188 108.914 201.303C107.911 201.393 107.188 201.176 106.296 200.769C105.922 200.078 105.874 199.967 106.176 199.165C107.607 195.362 112.456 191.8 116.002 190.053Z" fill="#FEFEFE"/>
        <path d="M115.486 178.338C116.587 178.619 117.349 179.779 118.051 180.604C116.586 181.979 114.811 183.06 113.169 184.215C109.6 186.729 106.802 189.193 104.088 192.625C103.619 192.424 102.866 192.164 102.503 191.817C101.981 191.32 101.785 190.749 101.931 190.037C102.591 186.813 112.472 180.98 115.206 178.588L115.486 178.338Z" fill="#FEFEFE"/>
        <path d="M135.24 209.227C135.76 209.431 136.236 209.721 136.723 209.991C136.965 210.439 137.236 210.716 137.179 211.247C136.858 214.247 127.255 222.507 124.549 224.446C124.193 224.303 123.586 224.116 123.26 223.88C122.53 223.35 122.562 223.112 122.465 222.281C123.701 219.269 132.484 211.599 135.24 209.227Z" fill="#FEFEFE"/>
        <path d="M39.0256 229.614C44.9662 225.867 50.6425 221.663 56.4547 217.717C58.6072 216.256 60.8945 214.426 63.2228 213.274C64.1768 212.802 64.9764 212.728 66.0208 212.798L66.701 213.243C66.8603 214.066 66.8161 214.202 66.5297 214.998C63.69 217.693 59.5903 219.769 56.2714 221.918C50.5875 225.598 45.0388 229.653 38.999 232.723L39.0256 229.614Z" fill="#FEFEFE"/>
        <path d="M39.2471 220.501C45.8912 216.295 52.8218 212.219 59.1271 207.522C64.201 203.743 68.8576 199.085 74.0775 195.568C75.1332 194.857 76.3394 194.111 77.6581 194.28C78.3453 194.716 78.4604 194.721 78.7448 195.469C78.0621 197.487 57.0163 213.189 53.7568 215.432C51.7637 216.821 49.6816 218.061 47.5102 219.151C45.2679 220.25 42.2075 221.692 39.6795 221.182L39.2471 220.501Z" fill="#FEFEFE"/>
        <path d="M83.5991 181.521C84.2066 181.558 84.5707 181.744 84.9841 182.233C85.5215 182.867 85.4671 183.176 85.2832 183.89C82.8417 185.918 80.0399 187.55 77.4309 189.356C74.0911 191.669 70.8525 194.147 67.445 196.361C63.6109 198.853 59.5827 201.048 55.7074 203.478C51.1779 206.318 46.9429 209.606 42.2743 212.224C41.7097 212.512 41.5814 212.743 40.9455 212.582C40.905 212.24 40.8513 211.951 40.9063 211.599C41.1256 210.191 42.6523 208.909 43.6929 208.082C48.3457 204.383 53.8216 201.408 58.788 198.131C67.0935 192.652 75.2278 186.898 83.5991 181.521Z" fill="#FEFEFE"/>
        <path d="M81.4124 282.031C89.8494 282.672 97.7402 286.509 106.211 287.018C108.411 287.137 110.605 287.064 112.793 286.798C115.298 286.512 119.615 284.796 121.869 285.58C122.326 285.74 122.363 286.016 122.587 286.405C122.477 287.3 122.379 287.781 121.894 288.572C116.169 291.169 109.34 291.307 103.194 290.579C99.6488 290.159 83.094 287.079 81.2398 284.728C80.9325 283.684 81.1355 283.038 81.4124 282.031Z" fill="#FEFEFE"/>
        <path d="M77.2222 174.219L77.9694 174.747C78.2653 175.417 78.4758 175.757 78.2368 176.512C77.3606 179.277 41.9549 202.307 36.5947 205.587C36.3482 205.321 35.977 204.977 35.7823 204.659C35.3 203.872 35.4132 203.747 35.6565 202.906C38.6537 199.716 42.9455 197.329 46.5609 194.881L62.5569 184.015C66.9714 181.012 72.5769 176.381 77.2222 174.219Z" fill="#FEFEFE"/>
        <path d="M136.82 148.652C137.15 148.757 137.253 148.783 137.608 148.935C138.278 149.222 138.886 149.414 139.165 150.094C137.722 152.213 135.712 153.97 133.876 155.747C126.708 162.683 119.551 167.79 111.525 173.585C107.294 176.64 103.155 179.821 98.888 182.828C98.3304 182.821 97.9916 182.706 97.5895 182.273C97.1248 181.772 96.9421 181.164 97.1729 180.511C97.8089 178.711 111.27 169.497 113.634 167.712C118.196 164.268 122.937 160.817 127.249 157.072C130.45 154.294 133.144 150.821 136.82 148.652Z" fill="#FEFEFE"/>
        <path d="M143.755 172.652C144.469 173.046 144.849 173.468 145.383 174.068C146.048 177.451 138.772 181.105 137.108 184.044C134.576 188.516 136.175 192.104 135.762 196.713C135.031 204.873 124.909 203.839 120.212 207.853C117.22 210.41 115.996 214.441 113.115 216.864C112.801 216.698 112.359 216.5 112.082 216.26C111.573 215.818 111.396 215.261 111.352 214.599C111.235 212.871 112.435 211.244 113.454 209.96C115.585 207.277 118.198 204.819 121.18 203.106C125.112 200.846 129.367 199.632 132.351 196.03C131.509 193.206 130.877 190.788 131.384 187.797C132.519 181.092 138.542 176.355 143.755 172.652Z" fill="#FEFEFE"/>
        <path d="M147.102 183.99C147.997 184.104 148.549 184.148 149.253 184.778C150.443 187.199 148.432 192.242 148.493 195.125C148.537 197.19 149.251 198.877 149.986 200.77C152.058 206.106 152.309 210.248 150.569 215.728C147.179 226.402 138.418 233.056 128.874 238.064C128.187 238.116 128.002 238.028 127.383 237.773C126.784 237.123 126.543 236.824 126.35 235.927C126.517 235.254 126.74 234.829 127.307 234.404C128.349 233.623 129.706 233.167 130.82 232.466C135.251 229.679 139.664 226.189 142.756 221.923C146.098 217.31 148.584 210.853 147.038 205.161C146.264 202.311 145.023 199.56 144.566 196.631C143.887 192.276 144.434 187.609 147.102 183.99Z" fill="#FEFEFE"/>
        <path d="M80.0832 269.893C91.7513 268.644 101.393 275.968 112.634 277.042C115.521 277.318 118.717 277.489 121.579 276.904C124.525 276.302 128.158 274.512 131.186 274.83C132.025 274.918 132.374 275.054 132.91 275.691C132.834 276.426 132.431 276.932 131.893 277.411C128.288 280.621 120.078 281.464 115.407 281.289C102.248 280.912 91.867 272.099 79.305 273.749C73.6995 274.485 69.9709 278.052 65.1834 278.941C64.3212 278.706 64.3344 278.685 63.8104 277.954C63.7434 277.103 63.7117 276.866 64.1928 276.112C66.4219 272.618 76.1334 270.385 80.0832 269.893Z" fill="#FEFEFE"/>
        <path d="M88.6319 247.066L92.1032 246.85C92.0901 251.763 92.1198 256.676 92.1923 261.588C95.8886 262.384 102.482 263.673 104.967 266.756C105.118 267.691 105.07 267.632 104.524 268.421C104.28 268.525 104.055 268.705 103.791 268.734C102.96 268.825 93.7279 265.809 91.6726 265.392C75.9795 262.213 58.6124 264.149 44.8259 272.637C42.4976 274.07 40.0498 275.555 37.913 277.26C36.4065 278.462 35.1352 280.023 33.489 281.032C32.6722 281.532 32.1159 281.683 31.1968 281.437C30.8073 280.785 30.5576 280.455 30.7049 279.646C31.0482 277.766 33.2854 276.047 34.7154 274.938C50.6747 262.566 68.7259 258.447 88.6148 260.928C88.6692 256.307 88.6749 251.687 88.6319 247.066Z" fill="#FEFEFE"/>
        <path fill-rule="evenodd" clip-rule="evenodd" d="M55.2134 94.1738C56.3608 94.4811 56.8545 95.0918 57.486 96.0609C64.2263 106.399 66.1905 113.76 61.1261 125.25C60.792 126.008 60.4321 126.776 60.0682 127.552C58.8896 130.066 57.67 132.667 57.156 135.303C57.1397 135.386 57.1255 135.47 57.1113 135.554L57.1111 135.555L57.1035 135.6L57.0928 135.662C56.9984 135.621 56.8976 135.579 56.7936 135.536C56.3921 135.371 55.9433 135.186 55.6325 134.94C55.0825 134.505 54.6741 133.516 54.3112 132.637C54.1443 132.233 53.9871 131.852 53.8301 131.559C53.3774 130.716 52.9226 129.904 52.4773 129.11L52.4772 129.11C50.3885 125.384 48.5088 122.031 48.0356 117.423C47.2587 109.86 50.4771 100.033 55.2134 94.1738ZM57.7565 102.482C58.7642 103.521 59.6568 105.592 59.9129 107.01C60.1044 108.07 60.0412 108.335 59.4248 109.21C59.2957 109.296 59.1867 109.374 59.0891 109.443C58.6621 109.746 58.4558 109.893 57.7559 109.918C56.7846 108.655 57.2487 105.745 57.5767 103.688C57.6487 103.236 57.7143 102.825 57.7565 102.482ZM54.323 108.974C54.5761 106.537 54.8644 103.76 54.3513 101.828C52.9883 104.673 51.0962 108.925 51.4357 112.139C51.6426 112.111 51.8506 112.093 52.0573 112.075L52.0573 112.075L52.0574 112.075C52.7963 112.009 53.5173 111.945 54.0997 111.465C54.1417 110.72 54.2299 109.87 54.323 108.974L54.323 108.974L54.323 108.974ZM51.934 115.518C52.0381 115.529 52.1628 115.534 52.2973 115.54C52.7896 115.561 53.4135 115.589 53.6434 115.909C54.8028 117.524 54.4033 123.206 54.024 125.173L53.6156 125.178C52.3158 122.77 50.6228 118.74 51.2051 115.986L51.934 115.518ZM58.5392 112.969C58.3509 112.95 58.1684 112.932 57.9998 112.909C57.4359 115.051 56.4263 123.044 57.3828 124.846C57.4233 124.783 57.4639 124.721 57.5042 124.659C57.7162 124.335 57.921 124.021 58.0713 123.657C58.2603 123.249 58.5027 122.773 58.7686 122.25C60.0304 119.768 61.8211 116.246 60.947 114.142C60.7466 113.66 60.5999 113.432 60.0828 113.242C59.6407 113.079 59.067 113.022 58.5392 112.969Z" fill="#FEFEFE"/>
        <path d="M23.1432 199.748C20.6296 203.274 18.6831 207.499 14.9463 209.902C14.012 210.503 12.6224 211.445 11.4674 211.197C11.4124 210.384 11.5528 210.175 11.9568 209.472C12.735 208.118 13.8881 206.942 14.7864 205.655C16.3674 203.393 21.1657 195.183 23.5977 194.5C23.9397 194.702 24.1578 194.9 24.4031 195.215C26.9115 198.443 28.583 202.356 30.7912 205.788C32.6688 208.706 35.1785 211.32 36.9189 214.3C37.3823 215.094 37.6434 215.586 37.5517 216.505C33.6354 217.846 28.8637 215.687 25.0302 214.692L25.0239 219.989C28.9718 220.373 33.0019 221.331 36.9429 221.922L39.2459 220.501L39.6783 221.183C39.6644 222.554 39.8073 224.061 39.2718 225.343C36.2026 226.484 27.1309 223.124 25.2072 224.317C25.0359 225.796 25.0119 227.187 25.0536 228.67C29.7241 228.827 34.3681 229.219 39.0234 229.612L38.9968 232.721C36.4783 233.768 28.1336 232.3 25.0334 232.097L25.0422 236.576C27.9414 236.888 31.0624 237.021 33.8889 237.734C34.9844 238.01 35.7968 238.29 36.4189 239.28C36.3664 240.176 36.2722 240.275 35.7393 241.011C33.1985 242.162 27.6284 240.577 24.7912 240.254L24.8026 245.993C28.1386 246.475 31.4898 246.994 34.7493 247.865C36.6654 248.377 41.9681 249.579 42.8588 251.485C43.0434 251.88 42.8519 252.136 42.7336 252.524C41.8442 253.163 41.0913 253.215 40.0267 253.119C37.8393 252.921 35.6179 251.962 33.5013 251.359C30.6015 250.533 27.7214 249.939 24.7388 249.508C24.7874 251.015 25.0397 252.921 24.6768 254.381C24.4125 255.442 23.9517 256.272 23.0369 256.84L22.3536 256.425C20.9773 254.153 21.2106 252.23 21.2409 249.646C18.5523 249.999 15.93 250.49 13.3318 251.282C10.3915 252.179 6.94044 254.633 3.87438 254.461C2.99692 254.412 2.57402 254.265 2 253.617C2.04236 252.988 2.20417 252.738 2.59676 252.228C5.44218 248.532 16.8005 246.322 21.2188 245.706L21.1499 240.184C17.2032 240.481 13.4772 242.033 9.58928 242.553C8.2143 242.737 7.19269 242.784 6.0554 241.926C5.70833 241.116 5.72476 241.171 6.03263 240.342C9.30225 237.547 16.9491 236.714 21.2782 236.253L21.2377 232.05C17.6097 232.685 8.20353 234.464 4.94276 233.606C4.07162 233.376 3.81811 233.166 3.35283 232.415C3.4622 231.777 3.51341 231.401 3.92369 230.874C5.04644 229.43 18.6718 228.893 21.301 228.696L21.294 223.804C17.5471 224.642 13.4923 225.594 9.64678 225.657C8.30214 225.68 7.16108 225.652 6.15908 224.689C6.14391 223.927 6.18943 223.721 6.60666 223.046C6.84436 222.662 7.22366 222.236 7.61308 221.999C8.1833 221.653 19.0169 220.461 21.2807 219.934L21.2896 215.152C19.5802 215.639 17.8632 216.143 16.107 216.43C14.2522 216.734 10.9269 217.036 9.44069 215.584C8.78007 214.938 8.77883 214.764 8.82056 213.913C10.0122 212.284 14.8711 212.762 16.8637 212.235C18.5668 211.785 20.2124 210.984 21.8219 210.277C21.8295 209.342 21.7498 208.236 21.9186 207.319C22.0526 206.595 22.2859 206.269 22.8928 205.856L23.4662 206.183C24.3171 207.4 24.3816 208.745 24.5858 210.179C27.4565 210.99 30.2374 212.501 32.9476 213.745C32.9115 213.681 32.8742 213.619 32.8388 213.554C30.1565 208.67 26.1365 204.481 23.1432 199.748Z" fill="#FEFEFE"/>
        <path d="M23.5759 122.334C23.8092 122.331 23.9274 122.315 24.1727 122.387C24.925 122.608 25.53 123.154 26.0756 123.692C28.1605 125.751 42.9894 142.27 43.3928 143.378C43.6716 144.144 43.6305 144.25 43.2746 144.913C42.8453 145.173 42.5949 145.46 42.0683 145.404C39.6673 145.148 28.0037 131.427 26.0768 129.345L26.1432 134.698C29.0493 138.249 44.3512 153.359 44.3297 156.447C43.7108 156.981 43.6621 156.981 42.8434 157.052C40.0523 156.034 28.8666 142.806 26.0768 139.657L26.1995 146.739C29.5317 150.113 45.3418 166.275 46.4165 169.494C46.3488 170.093 46.3254 170.414 45.9505 170.914C45.5972 171.386 45.7242 171.226 45.0409 171.324C39.2223 167.221 31.0874 157.49 26.2785 152.024L26.331 157.811C30.4938 162.282 36.3699 167.666 39.8532 172.482C40.4323 173.283 40.8059 173.747 40.6339 174.743C39.9954 175.327 39.7634 175.75 38.8759 175.858C37.0103 174.782 28.517 165.097 26.3531 162.816C26.3461 168.162 26.5541 173.483 26.7956 178.821C26.439 179.651 26.324 179.668 25.542 180.144C25.0198 180.13 24.7227 180.256 24.3206 179.867C22.1883 177.803 22.7636 165.614 22.7572 162.472C19.7803 166.075 15.6339 171.977 12.1999 174.859C11.3066 175.609 11.0215 175.573 9.88425 175.423C9.1819 174.91 9.17686 174.932 8.9733 174.09C9.74518 170.84 19.5148 160.889 22.2818 158.034L22.6985 150.68C19.9087 154.75 8.78235 169.66 4.3862 170.801C4.04861 170.509 3.6516 170.37 3.65729 169.887C3.67436 168.487 4.55121 167.065 5.32373 165.955C7.77848 162.426 11.2561 159.414 14.166 156.237C17.0595 153.077 19.7146 149.712 22.6283 146.565C22.6112 144.249 22.6921 141.94 22.7724 139.626C19.6254 143.603 16.5057 147.543 13.2677 151.45C12.0419 152.929 10.9039 154.698 9.51314 156.002C8.67171 156.791 7.15387 157.763 5.95336 157.585C5.52917 157.521 5.64551 157.501 5.39959 157.093C5.60379 153.14 19.4504 138.24 22.7314 134.718L22.7724 128.232C19.8865 131.963 12.2062 142.187 8.81332 144.519C7.93333 144.629 7.8126 144.55 7.00025 144.167L6.75246 143.366C7.6432 139.545 20.2602 125.399 23.5759 122.334Z" fill="#FEFEFE"/>
        <path d="M79.1696 118.908C76.2597 121.982 72.1107 127.346 68.6489 129.513C67.64 130.144 66.8485 130.427 65.6764 130.174L65.4855 129.357C66.504 126.293 77.9432 113.859 80.764 111.818C83.7991 114.73 85.9693 118.55 88.7326 121.728C92.6489 126.232 98.5926 129.953 101.308 135.342C101.824 136.368 102.111 137.226 101.762 138.339C101.458 138.376 101.272 138.422 100.95 138.331C98.597 137.665 84.813 122.456 82.6617 119.721C82.8489 121.307 82.8653 122.93 82.9412 124.526C86.4814 129.371 90.3655 134.347 94.3355 138.847C96.4337 141.225 99.2532 143.454 100.973 146.099C101.437 146.812 101.535 147.106 101.363 147.929C100.682 148.566 100.662 148.564 99.7318 148.648C96.05 147.313 86.4112 134.704 83.1865 130.935C83.1909 132.232 83.0999 133.725 83.4906 134.97C86.049 143.12 95.9135 149.281 100.591 156.025C100.672 156.142 100.747 156.264 100.831 156.379C100.906 156.482 100.988 156.579 101.066 156.679L100.754 158.085C99.2014 158.125 97.999 157.368 96.808 156.48C94.4873 154.407 92.243 152.286 90.2074 149.928C88.2331 147.641 86.3897 144.81 84.0311 142.917L83.6625 142.971C84.4236 147.342 91.8637 154.745 95.476 157.228C95.5967 157.311 95.72 157.391 95.8427 157.473C96.2921 158.032 96.3231 157.903 96.3389 158.685C95.524 159.634 94.07 159.961 92.9213 160.378C89.8502 156.398 85.9263 153.193 82.9892 149.09C83.189 153.211 83.1264 157.217 83.1972 161.333C83.2459 164.137 83.6265 167.482 83.1157 170.23C82.9285 171.24 82.6725 171.875 81.7951 172.481C81.3962 172.479 81.0181 172.601 80.7134 172.297C79.2107 170.797 79.8018 154.813 79.7727 151.56C78.4432 153.449 76.9557 154.959 75.1477 156.383L72.6076 155.013C71.1157 156.472 67.8796 160.08 65.7788 160.375C64.8401 160.506 64.6764 160.373 63.9538 159.858C63.6276 159.183 63.4828 158.782 63.4872 158.028C68.2209 154.332 76.4177 144.109 79.4528 138.872L78.8314 138.288C76.6194 140.038 74.7261 142.447 72.8226 144.526C69.1313 148.557 65.3325 152.554 62.0205 156.908C61.0495 156.213 60.1999 155.385 59.3281 154.573C61.6773 152.182 63.6908 149.435 65.9148 146.923C70.3685 141.895 74.9132 137.008 79.2316 131.853L79.1595 127.473C75.7306 130.542 64.5885 143.535 62.5908 144.45L62.0623 144.155C61.6583 143.33 61.2474 142.106 61.6122 141.193C62.257 139.583 74.6407 126.894 76.4114 125.406C77.0714 124.851 77.8743 124.449 78.6582 124.102C78.7954 124.042 78.9357 123.987 79.0748 123.93C79.5249 122.435 79.224 120.469 79.1696 118.908Z" fill="#FEFEFE"/>
        <path d="M117.151 74C117.82 74.201 118.403 74.428 118.922 74.9186C121.226 77.0964 123.147 80.2927 125.204 82.7411C127.794 85.8217 131.139 88.8384 133.338 92.177C133.864 92.9754 134.38 93.9414 134.163 94.9162C133.81 95.1153 133.897 95.1413 133.479 95.0717C129.569 94.4181 122.602 84.9898 119.925 81.6765L120.021 85.7926C122.965 89.8872 139.141 105.713 139.412 108.475C139.062 109.223 139.038 109.286 138.328 109.697C137.286 109.569 136.662 109.217 135.86 108.569C133.404 106.587 131.323 103.785 129.24 101.421C126.286 98.033 123.245 94.7257 120.117 91.4986L120.218 96.479C122.673 99.6651 139.778 117.941 140.032 119.292C140.114 119.731 139.782 120.009 139.555 120.356C138.727 120.797 138.537 120.897 137.608 120.885C132.539 117.192 124.359 106.897 120.006 101.678L119.951 108.615C122.638 110.795 135.295 122.039 135.824 124.508C135.662 124.726 135.422 125.079 135.208 125.235C132.016 127.575 126.082 116.877 122.676 116.444C121.822 117.285 121.195 117.677 120.047 118.025C120.031 124.051 119.914 130.08 119.953 136.106C119.978 140.043 120.395 144.356 119.886 148.234C119.754 149.236 119.575 149.947 118.873 150.708C118.241 150.822 117.946 150.885 117.401 150.416C116.21 149.389 116.688 137.777 116.694 135.513C116.683 132.572 117.46 119.638 116.158 118.019C113.084 117.606 114.74 116.945 113.171 115.715C109.578 118.721 107.408 123.4 103.572 126.141C102.783 126.705 102.205 126.953 101.249 126.784L100.935 126.153C100.946 125.125 101.13 124.412 101.63 123.505C102.765 121.444 110.686 112.862 112.709 111.44C113.72 110.73 115.148 110.401 116.322 110.045C116.287 107.592 116.267 105.139 116.263 102.685C111.673 108.422 106.759 114.189 101.402 119.226C100.294 120.267 99.079 121.334 97.4846 121.292C96.8461 120.897 96.6514 120.897 96.3088 120.201C97.7508 117.271 113.113 100.818 116.327 97.8583C116.311 95.91 116.349 93.9591 116.363 92.0101C113.068 95.9378 102.309 109.405 98.8331 111.852C98.0188 112.425 97.343 112.692 96.3296 112.544C95.7012 112.037 95.5875 111.991 95.3555 111.23C96.0218 108.143 113.407 90.307 116.447 86.9849L116.511 81.1385C114.058 83.8126 100.645 100.471 98.9209 101.216C98.4177 101.434 97.6705 101.311 97.2121 101.042C96.8929 100.854 96.489 100.704 96.4554 100.295C96.2544 97.8312 114.252 78.0794 116.841 74.4406L117.151 74Z" fill="#FEFEFE"/>
        <path d="M153.679 122.003C149.837 125.699 146.083 129.481 142.417 133.351C141.028 134.819 139.832 136.56 138.378 137.937C137.728 138.552 137.14 138.883 136.29 139.138C135.721 138.985 135.765 139.124 135.508 138.688C135.066 137.935 135.137 137.101 135.38 136.297C136.512 132.56 152.552 119.461 153.373 117.143C153.586 116.543 153.389 115.43 153.349 114.786L153.019 114.532C150.703 115.797 147.379 121.444 144.451 120.536C144.129 120.436 143.841 120.23 143.56 120.051C143.341 119.428 143.284 119.644 143.512 119.116C143.927 118.155 151.699 111.107 152.921 110.682C153.612 110.442 154.21 110.432 154.888 110.713C157 111.587 174.396 127.228 175.666 129.125C175.641 129.952 175.644 130.081 175.192 130.764C173.985 130.988 173.197 130.617 172.187 129.95C168.003 127.182 160.611 120.16 157.18 116.43L157.2 122.362L168.912 133.056C170.88 134.841 173.433 136.68 175.096 138.732C175.696 139.474 176.19 140.497 176.281 141.448C176.332 141.968 176.164 142.119 175.936 142.556C175.147 142.767 174.881 142.88 174.083 142.538C171.492 141.431 160.129 129.391 157.303 126.6L157.237 132.221C161.038 135.441 177.172 149.847 177.811 153.742C177.886 154.197 177.701 154.359 177.5 154.743C176.679 155.001 176.545 155.038 175.715 154.837C172.989 152.522 170.742 149.578 168.273 146.992C164.776 143.33 160.984 139.8 157.117 136.532L157.176 140.309C162.204 144.7 167.367 149.33 171.57 154.536L170.163 157.091C167.184 154.247 160.577 147.132 157.629 145.1C157.185 145.602 156.89 146.298 156.922 147.003C156.973 148.144 173.757 161.665 174.983 164.94C175.237 165.618 175.231 165.649 174.881 166.271C174.216 166.524 173.887 166.567 173.185 166.452C167.181 162.404 162.647 156.197 156.686 152.058C156.577 156.033 157.136 176.962 156.121 179.198C155.436 179.748 155.265 179.761 154.385 179.887C153.671 179.459 153.42 179.221 153.184 178.399C152.705 176.74 152.981 157.454 153.004 154.213C152.137 155.254 151.385 156.333 150.156 156.959C149.731 156.947 149.469 157.066 149.167 156.712C148.554 155.994 148.398 154.773 148.115 153.878C145.331 154.636 134.972 168.871 131.812 170.313C131.108 170.634 130.673 170.521 129.953 170.322C129.632 169.963 129.387 169.876 129.416 169.355C129.613 165.828 144.781 152.37 147.766 149.138C149.299 147.52 151.223 146.313 152.682 144.704C154.085 143.159 153.779 141.86 153.705 139.924C151.597 142.744 149.304 145.46 147.017 148.138C145.006 150.189 143.144 152.609 140.815 154.29L140.195 154.242C139.73 153.536 139.61 153.109 139.714 152.253C140.189 148.331 155.091 136.238 153.608 133.133C149.459 135.285 140.445 148.105 137.498 148.206C136.692 147.612 136.454 147.188 136.023 146.318C136.272 144.557 151.636 129.12 153.725 127.337L153.679 122.003Z" fill="#FEFEFE"/>
        <path fill-rule="evenodd" clip-rule="evenodd" d="M88.6334 247.062C82.9255 243.735 78.829 236.494 77.1556 230.276C73.9834 218.484 78.743 204.667 84.6684 194.516C86.5302 191.326 88.5335 188.139 91.4384 185.795C92.0402 187.03 92.6562 188.275 93.2765 189.529C100.154 203.427 107.57 218.414 102.249 234.043C100.587 238.926 97.2607 244.27 92.5257 246.643C92.4288 246.691 92.3312 246.738 92.2336 246.784L92.2335 246.784L92.2323 246.785L92.231 246.786L92.2298 246.786C92.1881 246.806 92.1464 246.826 92.1047 246.846L88.6334 247.062ZM92.1151 195.156C94.1615 197.96 95.6288 201.111 96.2527 204.519C95.7362 205.896 95.0415 207.18 94.344 208.469L94.3437 208.47C94.2379 208.665 94.1321 208.861 94.0268 209.057L92.0784 212.565L92.1151 195.156ZM88.6704 194.676L88.4264 194.442C86.306 197.427 84.8843 200.776 83.5845 204.183C84.6674 206.171 85.8085 208.047 87.0982 209.908L88.8935 212.608C88.8999 211.854 88.9393 210.67 88.9863 209.256C89.1505 204.316 89.4077 196.581 88.6704 194.676ZM82.4844 209.216C83.8387 209.959 85.9643 213.257 87.472 215.597L87.472 215.597C87.9348 216.315 88.3394 216.943 88.6456 217.379C88.8504 220.052 89.0116 222.894 88.8238 225.567L88.4648 225.628C85.7407 221.674 82.894 217.485 80.8761 213.124L82.4844 209.216ZM99.548 213.033C99.1673 211.603 98.7298 209.96 97.8528 208.955C96.103 211.963 94.2608 214.918 92.0083 217.581C91.9923 218.242 91.9522 218.938 91.9112 219.65C91.7955 221.658 91.6725 223.793 92.0608 225.604C92.1938 225.58 92.2818 225.57 92.3433 225.563H92.3434C92.4131 225.556 92.4489 225.552 92.478 225.535C92.5087 225.518 92.5319 225.487 92.5795 225.423L92.5795 225.423C92.608 225.385 92.6452 225.335 92.6981 225.27C93.3545 224.289 94.0534 223.307 94.7581 222.317L94.7582 222.317C96.643 219.669 98.569 216.962 99.8353 214.074C99.739 213.751 99.6454 213.399 99.548 213.033ZM100.515 219.115L100.828 219.468C101.068 221.284 101.163 223.114 100.96 224.94C100.264 231.237 97.3778 238.473 92.3868 242.536L92.2326 242.424C91.6877 241.475 91.8955 236.883 92.0275 233.969C92.066 233.117 92.0981 232.409 92.103 231.976C93.3312 229.789 94.7794 227.739 96.2303 225.684C97.7366 223.551 99.246 221.414 100.515 219.115ZM81.5281 220.529C80.9828 219.516 80.4382 218.504 79.8092 217.574C78.5935 224.635 80.2941 232.474 84.4273 238.338C85.5999 240.001 87.04 241.699 88.6616 242.933C89.92 233.941 87.9423 230.846 83.5976 224.046C83.398 223.733 83.1935 223.413 82.984 223.084C82.4626 222.266 81.9951 221.397 81.5281 220.529Z" fill="#FEFEFE"/>
    </g>
</svg>
