<svg width="180" height="300" viewBox="0 0 180 300" fill="none" xmlns="http://www.w3.org/2000/svg">
    <g opacity="1" clip-path="url(#clip0_929_1307)">
        <path d="M87.7811 260.941C90.9912 257.918 94.3553 255.168 97.798 252.419C97.7566 244.949 101.5 209.747 109 201.5C105.707 201.471 92.2863 198.235 89 198.5L87.7656 209.747L87.7811 260.941Z" fill="#FEFEFE"/>
        <path d="M112.513 0L112.968 0.19932C114.921 4.25941 117.673 24.5436 119.009 30.6779C110.256 38.8799 100.681 46.3341 91.326 53.8288C87.2992 57.0543 83.5097 60.6348 79.3006 63.6197C64.043 64.1747 48.6664 63.6464 33.3886 63.8619L25.748 64.1342C35.6783 55.7563 46.8401 48.6781 57.3011 40.9598C75.7274 27.3649 93.9496 13.3891 112.513 0Z" fill="#FEFEFE"/>
        <path fill-rule="evenodd" clip-rule="evenodd" d="M105.501 56.2011L105.501 56.2011L105.503 56.1994L105.514 56.1897L105.519 56.1848L105.521 56.1832C106.063 55.6908 106.605 55.199 107.146 54.7082C107.893 54.0314 108.635 53.3481 109.378 52.6642L109.378 52.6642L109.378 52.6641C112.441 49.8452 115.513 47.0174 118.905 44.6094C119.014 78.9844 118.946 113.359 118.701 147.733L118.66 175.537C118.659 176.816 118.65 178.099 118.642 179.382V179.383V179.383V179.383V179.383V179.384V179.384V179.384C118.61 184.283 118.577 189.203 118.967 194.072C114.6 196.372 111.568 198.891 108.351 202.677L108.35 202.68C104.58 202.57 100.811 202.534 97.0403 202.573C97.04 203.422 96.9888 204.639 96.9291 206.054C96.7014 211.463 96.3511 219.783 98.2467 221.686C98.4458 221.887 98.6554 222.077 98.8647 222.267L98.8845 222.285C93.9736 226.648 90.4035 230.971 89.9498 237.848C89.5795 243.462 91.4901 248.601 94.5269 253.235C91.751 255.271 89.4029 257.181 87.3555 260.002L87.5645 71.6664C93.7723 66.8508 99.6708 61.4951 105.501 56.2011ZM105.495 219.606L105.495 219.606C105.461 219.202 105.43 218.804 105.404 218.413C105.43 218.804 105.461 219.202 105.495 219.606ZM97.4554 183.615L109.329 183.64C109.364 187.757 109.326 191.873 109.214 195.988C105.88 196.212 102.537 196.253 99.1957 196.294C98.615 196.301 98.0344 196.308 97.4538 196.316C97.4041 192.082 97.4047 187.849 97.4554 183.615ZM109.581 144.721L97.4755 144.696L97.4949 157.141C98.526 157.148 99.5622 157.166 100.601 157.184C103.584 157.237 106.586 157.289 109.54 157.081C109.524 152.961 109.538 148.841 109.581 144.721ZM103.078 125.509C104.642 125.344 106.232 125.296 107.815 125.248C108.396 125.231 108.975 125.213 109.552 125.19L109.492 137.777L104.656 138.151L97.5299 138.105L97.504 125.595C98.8535 125.604 100.206 125.573 101.557 125.542C102.064 125.53 102.571 125.519 103.078 125.509ZM109.407 164.057L102.388 163.958L97.4933 164.069C97.429 168.279 97.4188 172.488 97.4625 176.698L106.148 176.703L109.12 176.688C109.811 174.893 109.623 170.123 109.489 166.725C109.446 165.654 109.409 164.719 109.407 164.057ZM97.5691 105.225C101.566 105.188 105.563 105.198 109.561 105.254C109.479 108.252 109.483 111.26 109.487 114.265V114.265V114.265V114.265C109.489 115.545 109.491 116.823 109.486 118.1C107.04 118.82 103.66 118.65 100.638 118.498C99.5372 118.442 98.4837 118.389 97.5407 118.382C97.5324 117.736 97.5231 117.09 97.5137 116.443C97.4595 112.703 97.4053 108.962 97.5691 105.225ZM109.713 66.5395L97.4842 66.6359C97.4421 70.9329 97.4329 75.2301 97.4567 79.5276L109.742 79.5081L109.713 66.5395ZM109.863 85.8316C105.74 85.7079 101.616 85.6761 97.4918 85.736C97.4237 90.1167 97.4161 94.4974 97.4691 98.878L109.793 98.9355C109.844 94.5678 109.868 90.1999 109.863 85.8316Z" fill="#FEFEFE"/>
        <path fill-rule="evenodd" clip-rule="evenodd" d="M79.7642 69.8147C59.3876 69.4283 38.6894 69.0564 18.3274 69.7767C17.8745 78.9418 17.9883 88.212 18.1015 97.4419C18.1437 100.879 18.1858 104.311 18.1985 107.729L18.3881 174.516L18.367 197.545C18.3648 198.674 18.3807 199.817 18.3967 200.966C18.4447 204.412 18.4934 207.91 18.0559 211.268C18.0559 211.268 18.0151 339.355 18.367 349.436C23.0995 349.45 28.255 349.482 33.6147 349.516H33.6207H33.6237C48.9893 349.612 66.0315 349.719 79.5933 349.436C79.7677 326.542 79.7947 303.647 79.6743 280.752L79.7391 192.67L79.7626 118.196C79.7739 113.669 79.8032 109.139 79.8324 104.608L79.8325 104.606L79.8325 104.603L79.8325 104.601L79.8325 104.598L79.8325 104.596L79.8325 104.593L79.8325 104.591L79.8325 104.588L79.8325 104.586L79.8326 104.583L79.8326 104.581L79.8326 104.578L79.8326 104.576L79.8326 104.573L79.8326 104.571L79.8326 104.569L79.8326 104.566L79.8326 104.564L79.8327 104.561L79.8327 104.559L79.8327 104.556L79.8327 104.554L79.8327 104.551L79.8327 104.549L79.8327 104.546L79.8327 104.544L79.8328 104.541L79.8328 104.539L79.8328 104.536L79.8328 104.534L79.8328 104.531L79.8328 104.529L79.8328 104.526L79.8328 104.524L79.8328 104.522L79.8329 104.519L79.8329 104.517L79.8329 104.514C79.9075 92.9458 79.9821 81.3705 79.7642 69.8147ZM30.5809 201.789H30.5801H30.5794H30.5786H30.5779H30.5771H30.5764H30.5756H30.5749H30.5741H30.5733H30.5726H30.5718H30.5711H30.5703H30.5696H30.5688H30.5681H30.5673H30.5666H30.5658H30.565H30.5643H30.5635H30.5628H30.562H30.5613H30.5605H30.5598H30.559H30.5582H30.5575H30.5567H30.556H30.5552H30.5545H30.5537H30.553H30.5522C29.7872 201.791 29.0225 201.794 28.2585 201.793L28.2577 212.369C30.0453 213.083 32.696 212.962 34.9705 212.858H34.9707L34.9713 212.858C35.6326 212.827 36.262 212.799 36.8292 212.792C36.9036 209.973 36.8732 207.148 36.8428 204.326V204.326C36.8339 203.494 36.8249 202.663 36.8186 201.832C34.7424 201.774 32.6605 201.781 30.5809 201.789ZM28.3194 108.66L37.1802 108.657L37.1445 119.602L28.3348 119.641L28.3194 108.66ZM31.0258 220.003C30.0601 220.008 29.2566 220.012 28.5315 220.767C28.5406 221.424 28.5513 222.082 28.5621 222.739C28.6099 225.655 28.6577 228.573 28.5599 231.486C30.0812 232.162 32.8694 232.025 35.1072 231.914C35.8073 231.88 36.4536 231.848 36.9903 231.844C37.0535 228.971 37.0379 226.093 37.0223 223.217C37.0165 222.149 37.0107 221.081 37.009 220.014C36.6107 220.01 36.2121 220.005 35.8133 220L35.8108 220L35.8083 220L35.8057 220C34.3653 219.982 32.9226 219.964 31.4848 219.998C31.3304 220.002 31.1801 220.002 31.0335 220.003H31.0328H31.032H31.0313H31.0305H31.0298H31.029H31.0282H31.0274H31.0266H31.0258ZM28.539 257.361L37.1777 257.405L37.1712 268.817L28.4887 268.878L28.539 257.361ZM69.3909 257.646C66.5794 257.579 63.7676 257.547 60.9556 257.551C60.2176 260.005 60.364 263.163 60.4977 266.047L60.4977 266.047C60.5428 267.02 60.5864 267.962 60.5942 268.835C60.8393 268.837 61.0845 268.838 61.3297 268.84C61.6284 268.843 61.9271 268.845 62.2258 268.848H62.2273H62.2287H62.2302H62.2316H62.2331H62.2345H62.2359H62.2374H62.2388H62.2403H62.2417H62.2431H62.2446H62.246H62.2475H62.2489H62.2504H62.2518H62.2532H62.2547H62.2561H62.2576H62.259H62.2605H62.2619H62.2633H62.2648H62.2662H62.2677C64.6548 268.869 67.0448 268.889 69.4274 268.785L69.3909 257.646ZM27.8872 239.267L36.6969 239.412L36.6337 250.581L27.8548 250.735C27.8391 246.912 27.85 243.089 27.8872 239.267ZM68.4426 239.349C65.8825 239.292 63.325 239.235 60.7642 239.329C60.4079 242.138 60.4842 245.064 60.5593 247.941C60.5833 248.859 60.6071 249.772 60.6167 250.675L69.0763 250.597C70.0148 248.8 69.707 244.68 69.4799 241.641C69.4146 240.767 69.3561 239.983 69.3356 239.369L68.7803 239.357L68.4426 239.349ZM28.2324 183.094L36.9975 183.143L37.0396 194.446C34.9729 194.516 32.8923 194.491 30.8166 194.466H30.8165H30.8163H30.8161H30.816H30.8158H30.8156H30.8154H30.8153H30.8151H30.8149H30.8147H30.8146H30.8144H30.8142H30.8141H30.8139H30.8137H30.8135H30.8134H30.8132H30.813H30.8129H30.8127H30.8125H30.8123H30.8122H30.812H30.8118H30.8117H30.8115H30.8113C29.9504 194.456 29.0903 194.445 28.2324 194.442V183.094ZM37.176 275.626L28.3226 275.6L28.4036 287.12L37.1825 286.968L37.176 275.626ZM67.4008 275.816L67.4036 275.816L67.4062 275.816L67.4087 275.816L67.4113 275.816L67.4138 275.816L67.4163 275.816L67.4186 275.816C68.0159 275.827 68.6131 275.838 69.2099 275.847C69.2172 276.453 69.2636 277.236 69.3155 278.11L69.3155 278.11C69.5004 281.226 69.7549 285.515 68.5553 287.2L67.2556 287.296L60.3946 287.312C60.386 286.62 60.323 285.744 60.2536 284.779L60.2536 284.779C60.0337 281.72 59.75 277.775 60.935 276.023L62.5231 275.768C64.1383 275.756 65.756 275.786 67.3726 275.816H67.3736H67.3746H67.3756H67.3766H67.3776H67.3787H67.3797H67.3807H67.3817H67.3827H67.3837H67.3847H67.3857H67.3867H67.3877H67.3887H67.3897H67.3907H67.3917H67.3927H67.3938H67.3948H67.3958H67.3968H67.3978H67.3988H67.3998H67.4008ZM69.562 126.945L60.5927 126.903C60.5875 127.916 60.5781 128.93 60.5687 129.944C60.5432 132.703 60.5177 135.463 60.5757 138.218L69.6033 138.212L69.562 126.945ZM28.2514 294.242L36.9411 294.267C37.0124 297.032 37.0078 299.802 37.0033 302.571V302.571C37.0015 303.675 36.9997 304.779 37.0027 305.883L28.27 305.942L28.2514 294.242ZM69.2037 108.401C66.2869 108.361 63.37 108.336 60.4532 108.325C60.4572 109.532 60.4516 110.741 60.4461 111.951V111.951V111.951V111.952V111.952V111.952V111.952V111.952V111.952V111.952V111.952V111.952V111.952V111.952V111.952V111.953V111.953V111.953V111.953V111.953V111.953V111.953V111.953V111.953V111.953V111.953V111.953V111.954C60.4337 114.653 60.4214 117.358 60.5148 120.047L69.2491 120.029L69.2037 108.401ZM60.6457 294.533L69.453 294.546L69.4903 306.077C67.0209 306.213 64.5436 306.172 62.0697 306.131H62.069L62.0665 306.131C61.5925 306.123 61.1186 306.115 60.6449 306.108L60.6457 294.533ZM50.7286 275.723C48.6093 275.719 46.4894 275.715 44.3726 275.758C44.3729 276.894 44.3695 278.032 44.3661 279.169V279.169V279.17V279.17V279.17V279.171V279.171V279.171V279.172V279.172V279.172V279.172V279.173V279.173V279.173V279.174V279.174V279.174V279.175V279.175V279.175V279.176V279.176V279.176V279.177C44.3582 281.845 44.3502 284.514 44.3888 287.18L53.4011 287.159L53.3914 275.725C52.5055 275.727 51.6192 275.725 50.7327 275.723H50.7325H50.7323H50.7321H50.7319H50.7317H50.7315H50.7313H50.731H50.7308H50.7306H50.7304H50.7302H50.73H50.7298H50.7296H50.7294H50.7292H50.729H50.7288H50.7286ZM28.3171 313.216L36.8189 313.241C36.8672 316.116 36.8313 318.999 36.7954 321.878V321.878V321.879V321.879V321.879V321.879V321.879V321.88V321.88V321.88V321.88V321.88V321.88V321.881V321.881V321.881V321.881V321.881V321.882V321.882V321.882V321.882V321.882V321.882C36.7808 323.056 36.7662 324.229 36.7573 325.401L28.3163 325.414L28.3171 313.216ZM37.0672 89.2085L28.5265 89.2125C28.4731 93.2502 28.4512 97.2879 28.4609 101.326L36.966 101.308C37.0556 97.2749 37.0894 93.2418 37.0672 89.2085ZM51.1569 239.276H51.1589C51.989 239.285 52.8189 239.294 53.6481 239.3L53.6716 250.488L44.3952 250.512C44.3569 246.766 44.3633 243.02 44.4147 239.274C46.6554 239.227 48.9018 239.252 51.1459 239.276H51.1464H51.147H51.1475H51.1481H51.1486H51.1492H51.1497H51.1503H51.1508H51.1514H51.1519H51.1525H51.153H51.1536H51.1541H51.1547H51.1552H51.1558H51.1563H51.1569ZM69.5553 145.141L60.6355 145.137L60.6444 156.857L69.5553 156.854V145.141ZM60.3791 201.454L69.192 201.467C69.266 205.431 69.2549 209.395 69.1588 213.358C67.0362 213.399 64.9101 213.385 62.7853 213.371H62.7845H62.7837H62.7829H62.7821H62.7813H62.7805H62.7797H62.7789H62.7781H62.7773H62.7765H62.7757H62.7749H62.7741H62.7733H62.7725H62.7717H62.7709H62.7701H62.7691H62.7682H62.7672H62.7662H62.7652H62.7643H62.7633H62.7623H62.7614H62.7604H62.7594H62.7584H62.7575H62.7565H62.7555H62.7545H62.7536H62.7526C61.9814 213.366 61.2104 213.361 60.4399 213.358L60.3791 201.454ZM67.8985 164.073H67.8978H67.8976H67.8973H67.897H67.8968H67.8965H67.8963H67.896H67.8957H67.8955H67.8952H67.8949H67.8947H67.8944H67.8941H67.8939H67.8936H67.8934C65.411 164.033 62.9255 163.993 60.4456 164.082L60.478 175.645L69.5105 175.611C69.5942 171.774 69.6066 167.937 69.5477 164.099C68.9982 164.091 68.4484 164.082 67.8985 164.073ZM60.6655 313.248C62.9522 313.179 65.2435 313.191 67.5325 313.204C68.1609 313.207 68.789 313.211 69.4169 313.213C69.4347 317.215 69.4131 321.217 69.3521 325.219L60.6736 325.338L60.6655 313.248ZM69.0106 89.238L60.3759 89.2274C60.3799 90.5684 60.3788 91.9102 60.3777 93.2523C60.3755 96.0516 60.3732 98.8522 60.4165 101.649C61.2261 101.64 62.0365 101.627 62.8472 101.614L62.8476 101.614H62.8478H62.8481H62.8484H62.8487H62.8489H62.8492H62.8495H62.8498H62.85H62.8503H62.8506H62.8509H62.8511H62.8514H62.8517H62.852C64.8871 101.581 66.924 101.549 68.9555 101.579C69.0692 98.2656 69.047 94.946 69.0248 91.629V91.629V91.6289V91.6288V91.6287V91.6287V91.6286V91.6285V91.6284V91.6284V91.6283V91.6282V91.6281V91.6281V91.628V91.6279V91.6276L69.0247 91.6262L69.0247 91.6249L69.0247 91.6236L69.0247 91.6223L69.0247 91.6209L69.0247 91.6196L69.0247 91.6183C69.0194 90.8247 69.0141 90.0312 69.0106 89.238ZM44.4985 257.125C46.8094 257.05 49.1261 257.067 51.4404 257.084C52.1097 257.089 52.7788 257.094 53.4475 257.097L53.3981 268.93C51.3056 268.993 49.2031 268.974 47.1041 268.955C46.2284 268.947 45.3533 268.94 44.4798 268.938L44.4985 257.125ZM69.3247 220.103L60.6366 220.077C60.6368 221.337 60.6329 222.597 60.6289 223.858V223.858V223.859V223.859V223.86V223.86V223.861V223.862V223.862V223.863V223.863V223.864V223.864V223.865V223.865C60.6201 226.673 60.6113 229.481 60.6487 232.287C61.258 232.295 61.9739 232.335 62.7392 232.378C65.0087 232.506 67.7137 232.658 69.3684 232.07L69.3247 220.103ZM35.2515 126.82H35.2516L35.2537 126.82L35.2558 126.82L35.2579 126.82L35.26 126.82L35.2622 126.82L35.2643 126.82L35.2663 126.82L35.2684 126.82L35.2704 126.82C35.9273 126.828 36.5842 126.835 37.2407 126.841C37.3163 130.696 37.2893 134.55 37.1597 138.403C34.9884 138.462 32.8097 138.451 30.6333 138.44H30.6322H30.6312H30.6301H30.6291H30.628H30.627H30.6259H30.6248H30.6238H30.6227H30.6217H30.6206H30.6195C29.7314 138.435 28.8437 138.431 27.957 138.431L27.9732 126.827C30.3972 126.765 32.8252 126.793 35.2509 126.82H35.251H35.251H35.2511H35.2511H35.2512H35.2512H35.2513H35.2513H35.2514H35.2514H35.2515H35.2515ZM53.4881 220.25L44.5066 220.191C44.4672 224.229 44.4667 228.268 44.505 232.306L53.463 232.278L53.4881 220.25ZM65.2054 182.585L69.4891 182.715C69.4756 183.774 69.5578 184.93 69.6422 186.119C69.8457 188.982 70.0624 192.031 68.986 194.347C67.9418 195.016 67.1679 194.996 66.1052 194.967H66.1051H66.105H66.1049H66.1047H66.1046H66.1044H66.1042H66.104H66.1038H66.1036H66.1034H66.1031C65.8627 194.961 65.6075 194.954 65.331 194.955L60.6527 194.964L60.626 182.727L65.2054 182.585ZM53.6604 294.306L44.3516 294.296L44.4083 306.084C45.3366 306.086 46.2673 306.096 47.1988 306.106L47.2019 306.106C49.35 306.13 51.5026 306.153 53.641 306.077L53.6604 294.306ZM27.8685 145.526H37.2267L37.2218 157.256L27.8668 157.218L27.8685 145.526ZM50.9309 108.215H50.9305C48.7194 108.206 46.5071 108.198 44.2979 108.239L44.2931 119.93L53.7234 119.975L53.7331 108.221C52.8012 108.222 51.8688 108.218 50.9361 108.215H50.9354H50.9348H50.9341H50.9335H50.9328H50.9322H50.9315H50.9309ZM44.0541 201.774C46.4696 201.699 48.8914 201.718 51.3105 201.738H51.3121H51.3136H51.3152H51.3168H51.3184H51.32H51.3215C52.0504 201.744 52.779 201.749 53.5071 201.753L53.452 213.472L44.0655 213.553L44.0541 201.774ZM37.1905 163.883L27.859 163.898L27.8557 175.926L37.2034 175.934L37.1905 163.883ZM44.1702 182.919L53.7602 182.857L53.7691 194.665C50.6114 194.681 47.4538 194.659 44.2966 194.601C44.1317 191.837 44.1474 189.04 44.163 186.254C44.1693 185.139 44.1756 184.027 44.1702 182.919ZM53.3898 126.494L44.0146 126.486L44.0453 138.534L53.3979 138.605L53.3898 126.494ZM44.9772 164.357C47.9253 164.347 50.8735 164.367 53.8217 164.419C53.8429 165.174 53.8763 165.947 53.9101 166.729C54.0389 169.714 54.174 172.84 53.6637 175.666L53.0276 176.068L44.1613 176.069C44.151 175.131 44.125 174.182 44.0989 173.227C44.0221 170.424 43.9442 167.575 44.2585 164.841L44.9772 164.357ZM51.6449 313.19H51.6435H51.6434C49.2338 313.164 46.8215 313.138 44.4147 313.206C44.1615 317.168 44.1893 321.115 44.2174 325.081L44.2186 325.254L53.6756 325.188C53.7399 321.195 53.7432 317.202 53.6854 313.209C53.0063 313.204 52.3268 313.197 51.647 313.19L51.6449 313.19ZM44.0209 89.2116L53.798 89.2311L53.8458 101.308L44.0346 101.276L44.0209 89.2116ZM53.9038 145.542L43.7645 145.532L43.8658 157.218L53.937 157.285C53.9424 156.514 53.95 155.743 53.9576 154.972C53.9886 151.828 54.0196 148.682 53.9038 145.542Z" fill="#FEFEFE"/>
    </g>
    <defs>
        <clipPath id="clip0_929_1307">
            <rect width="180" height="300" fill="white"/>
        </clipPath>
    </defs>
</svg>
