<svg width="180" height="300" viewBox="0 0 180 300" fill="none" xmlns="http://www.w3.org/2000/svg">
    <path fill-rule="evenodd" clip-rule="evenodd" d="M84.0538 227.134C82.0188 227.208 80.0014 227.281 78.0222 227.317C77.9919 228.025 77.918 228.87 77.8372 229.795C77.4941 233.721 77.0259 239.078 79.2379 241.455C80.991 243.337 83.2131 243.36 85.6199 243.362C86.3596 243.362 87.2692 243.402 88.2752 243.446C92.4651 243.629 98.3274 243.886 100.55 241.698C102.713 239.568 102.569 235.978 102.451 233.026C102.437 232.69 102.424 232.363 102.415 232.046C102.412 231.972 102.41 231.897 102.408 231.823C102.364 230.297 102.322 228.866 101.822 227.393C96.0882 226.698 89.9957 226.919 84.0538 227.134ZM98.5712 231.217C93.1831 231.162 87.7948 231.155 82.4062 231.195C81.6362 232.323 81.7008 235.589 81.9101 236.991C82.0412 237.871 82.2745 238.167 82.935 238.731C85.5911 239.334 94.9222 239.439 97.5279 238.908C98.6038 237.797 98.7867 237.086 98.7571 235.557C98.7362 234.467 98.6803 233.373 98.6245 232.282C98.6063 231.927 98.5882 231.571 98.5712 231.217Z" fill="#FEFEFE"/>
    <path fill-rule="evenodd" clip-rule="evenodd" d="M78.021 227.314C73.2809 218.484 68.1211 209.837 62.9764 201.216C61.8228 199.283 60.6701 197.352 59.523 195.42C59.1471 194.786 58.7711 194.154 58.3958 193.523C46.989 174.348 36.16 156.144 43.2762 132.834C47.2828 119.71 57.142 107.752 69.2758 101.338C79.6294 95.8652 91.5741 94.3731 102.796 97.9254C115.775 102.033 125.995 111.41 132.132 123.436C132.332 123.827 132.528 124.221 132.719 124.618C132.91 125.014 133.096 125.413 133.277 125.814C133.458 126.215 133.634 126.618 133.805 127.023C133.976 127.428 134.142 127.835 134.303 128.245C134.464 128.654 134.62 129.065 134.77 129.479C134.921 129.892 135.067 130.307 135.207 130.724C135.348 131.141 135.483 131.559 135.614 131.98C135.744 132.4 135.869 132.822 135.988 133.245C136.108 133.668 136.222 134.093 136.332 134.519C136.441 134.945 136.545 135.373 136.644 135.802C136.742 136.23 136.835 136.66 136.923 137.091C137.011 137.522 137.094 137.954 137.171 138.387C137.248 138.82 137.32 139.254 137.387 139.689C137.454 140.124 137.515 140.56 137.57 140.996C137.626 141.432 137.676 141.869 137.721 142.307C137.766 142.745 137.806 143.183 137.84 143.622C137.874 144.06 137.902 144.499 137.926 144.938C137.949 145.378 137.967 145.817 137.979 146.257C137.992 146.697 137.998 147.137 138 147.576C138.001 148.016 137.997 148.456 137.988 148.896C137.979 149.336 137.964 149.775 137.944 150.215C137.923 150.654 137.897 151.093 137.866 151.533C137.835 151.971 137.798 152.41 137.757 152.847C137.714 153.285 137.667 153.722 137.614 154.159C137.561 154.596 137.503 155.032 137.439 155.467C137.375 155.903 137.306 156.337 137.232 156.771C137.158 157.204 137.078 157.637 136.993 158.068C136.908 158.5 136.817 158.931 136.722 159.36C136.626 159.789 136.525 160.217 136.418 160.644C136.312 161.071 136.2 161.497 136.083 161.921C135.966 162.345 135.844 162.768 135.717 163.189C135.59 163.61 135.457 164.029 135.32 164.447C131.011 177.628 123.854 189.721 116.748 201.728L116.748 201.729L116.748 201.729L116.748 201.729L116.748 201.729L116.747 201.729C113.77 206.76 110.802 211.775 108.056 216.85C107.324 218.201 106.42 219.543 105.509 220.896L105.509 220.896C104.083 223.014 102.64 225.156 101.821 227.39C96.087 226.695 89.9945 226.916 84.0525 227.131C82.0175 227.205 80.0002 227.278 78.021 227.314ZM66.1807 109.165C66.2228 109.626 63.4554 113.541 61.0928 116.883L61.0928 116.883L61.0928 116.883C59.5892 119.01 58.2496 120.905 57.9028 121.53C47.0604 141.064 51.898 161.541 60.9368 180.62C61.7677 182.373 62.678 184.154 63.5993 185.956C65.9913 190.635 68.4575 195.46 69.8014 200.335C69.8281 200.433 69.8551 200.514 69.8789 200.586C69.9518 200.806 69.9941 200.934 69.9054 201.148L69.9035 201.321L69.8727 201.297L69.8439 201.274L69.8325 201.295L69.8217 201.313L69.8336 201.266C69.169 200.728 68.7467 200.019 68.3162 199.296C68.2379 199.165 68.1594 199.033 68.0791 198.902C66.8955 196.917 65.6719 194.915 64.4368 192.894L64.4363 192.893L64.4362 192.893L64.4361 192.893C55.0311 177.507 44.9591 161.03 46.8253 142.571C48.2349 128.627 55.4867 117.878 66.1807 109.165ZM111.801 107.883C111.746 107.86 111.691 107.838 111.637 107.814C112.719 109.458 113.929 111.003 115.138 112.547C116.641 114.466 118.143 116.384 119.398 118.488C126.822 130.942 128.71 146.994 125.802 161.083C123.8 170.779 119.39 180.421 115.136 189.32C114.636 190.365 114.051 191.465 113.453 192.593C112.049 195.235 110.566 198.028 109.901 200.627C110.462 200.714 110.707 200.524 111.12 200.203C111.159 200.173 111.199 200.142 111.241 200.11C111.803 199.68 112.197 199.067 112.579 198.473C112.624 198.403 112.669 198.332 112.714 198.263C113.481 196.955 114.252 195.655 115.019 194.358L115.024 194.349L115.025 194.349L115.025 194.348C126.091 175.658 136.595 157.917 130.551 135.04C128.281 126.446 124.1 119.431 118.007 112.981C116.392 111.272 114.246 109.11 112.135 108.029C112.027 107.974 111.914 107.928 111.802 107.883L111.801 107.883ZM85.9368 104.637L85.9368 104.637C86.0248 104.752 86.1127 104.867 86.1493 105.004C86.2742 105.469 85.6043 113.512 85.0685 119.944L85.0684 119.945C84.7728 123.495 84.518 126.554 84.4602 127.578C84.0445 134.723 83.8654 141.874 83.9228 149.03C83.9803 156.187 84.2741 163.334 84.8043 170.472C85.0149 173.574 85.4024 176.9 85.7994 180.306L85.7994 180.306L85.7994 180.306C86.7079 188.102 87.666 196.322 86.6657 203.272C86.2708 202.442 85.9062 201.594 85.5421 200.748C85.3904 200.395 85.2387 200.043 85.085 199.692C85.0243 199.504 84.9634 199.315 84.9024 199.127L84.9024 199.127C84.4506 197.731 83.9985 196.333 83.6329 194.912C78.1809 173.702 74.439 123.881 85.8113 104.463C85.8489 104.523 85.8928 104.58 85.9368 104.637ZM95.4964 105.034C95.1339 104.394 94.7516 103.785 94.0708 103.46C94.0254 107.319 94.14 111.181 94.2545 115.043V115.043V115.043L94.2546 115.043C94.3216 117.301 94.3886 119.56 94.4235 121.817C94.4383 122.771 94.4532 123.726 94.4681 124.681L94.4681 124.682C94.7109 140.216 94.9557 155.881 94.4008 171.389C94.3624 172.46 94.2692 174.159 94.1561 176.222L94.1561 176.222V176.223C93.7036 184.477 92.9313 198.566 94.0635 201.622L94.4309 201.741C95.0661 201.097 95.3447 200.128 95.5927 199.266L95.6251 199.154C96.7645 194.722 97.8996 190.243 98.453 185.693C100.024 172.781 99.9905 159.686 99.9576 146.691V146.691L99.9537 145.096C99.9508 143.864 99.9518 142.624 99.9528 141.38V141.379V141.379V141.379C99.9592 133.363 99.9658 125.133 98.9343 117.266C98.4019 113.207 97.5419 108.64 95.4964 105.034ZM77.9664 104.52C77.9474 105.493 76.8827 107.56 75.9917 109.29L75.9916 109.29C75.5851 110.079 75.2149 110.798 74.9964 111.31C72.8574 116.329 70.7479 122.054 69.7667 127.418C67.5704 139.42 67.3574 153.212 69.3149 165.249C70.1674 170.491 71.5739 175.679 73.0328 180.78C73.7341 183.232 74.5017 185.674 75.27 188.119L75.2701 188.12L75.2701 188.12C76.8102 193.02 78.3531 197.93 79.3711 202.941C77.9714 201.573 76.9508 200.149 75.9253 198.497C65.9164 179.693 58.3938 155.245 62.1 133.933C63.8291 123.99 69.43 110.501 77.9664 104.52ZM114.751 124.873C112.991 119.873 107.799 108.681 102.851 106.246C103.381 107.54 103.888 108.843 104.372 110.156C104.855 111.469 105.315 112.79 105.75 114.12C106.185 115.449 106.596 116.786 106.982 118.131C107.369 119.475 107.731 120.826 108.068 122.184C108.406 123.542 108.718 124.905 109.005 126.274C109.293 127.643 109.555 129.017 109.793 130.395C110.031 131.774 110.243 133.156 110.43 134.543C110.618 135.929 110.78 137.319 110.916 138.711C111.053 140.103 111.164 141.497 111.25 142.894C111.336 144.29 111.396 145.687 111.431 147.086C111.466 148.484 111.475 149.883 111.459 151.282C111.443 152.681 111.402 154.079 111.334 155.476C111.268 156.873 111.175 158.269 111.057 159.663C110.94 161.057 110.796 162.448 110.628 163.837C110.46 165.226 110.266 166.611 110.047 167.993C109.828 169.374 109.584 170.752 109.315 172.124C108.099 178.112 106.337 183.96 104.561 189.799C104.298 190.662 104.009 191.541 103.716 192.432C102.886 194.952 102.029 197.556 101.681 200.086C101.673 200.139 101.666 200.192 101.658 200.244C101.581 200.765 101.51 201.247 101.949 201.6C103.155 200.835 103.875 199.354 104.521 198.026C104.635 197.791 104.747 197.561 104.859 197.34C116.176 173.724 123.942 150.978 114.751 124.873Z" fill="#FEFEFE"/>
</svg>
