<svg width="180" height="300" viewBox="0 0 180 300" fill="none" xmlns="http://www.w3.org/2000/svg">
    <path fill-rule="evenodd" clip-rule="evenodd" d="M63.6586 78.4997C63.3148 78.5066 62.9718 78.5267 62.6297 78.5598C58.2868 79.0041 54.851 80.5854 52.049 83.9972C41.2688 97.124 40.9696 131.704 40.8078 150.404L40.8078 150.405L40.8078 150.407L40.8078 150.41C40.7991 151.412 40.7908 152.368 40.7814 153.272L40.5699 179.911C37.8193 179.626 35.9134 178.983 34.0894 176.729C31.2179 173.178 30.5113 167.591 29.7965 161.939C28.6439 152.825 27.4703 143.544 17.1626 142.376C13.968 142.014 10.9234 142.765 8.43513 144.837C4.57002 148.057 3.45768 152.892 3.11065 157.671C2.31966 168.562 5.78169 184.641 13.1004 193.125C18.6664 199.577 27.592 203.484 36.0074 204.032C37.5616 204.134 39.1252 204.116 40.6823 204.098H40.6824H40.6825H40.6826H40.6826H40.6827H40.6828H40.6829H40.683L40.9475 204.095C40.7916 225.902 41.3589 247.691 42.6496 269.462C42.7441 270.95 42.7996 272.55 42.8566 274.197C43.0081 278.566 43.1708 283.26 44.1041 287.052C44.644 289.246 45.892 291.005 47.4591 292.589C47.6547 292.787 47.8613 292.976 48.07 293.16C53.8407 297.225 59.49 297.407 66.3727 297.207C66.5686 297.202 66.7647 297.196 66.9611 297.191H66.9615C69.36 297.124 71.7888 297.056 74.1503 296.635C77.1338 296.103 80.1308 294.72 81.8663 292.128C82.9465 290.515 83.5476 288.411 83.8694 286.505C84.6587 281.822 84.775 276.845 84.8883 272.001C84.9171 270.768 84.9457 269.544 84.9852 268.335C85.3651 254.943 85.4926 241.548 85.3677 228.151C93.8174 227.465 101.543 225.709 107.274 218.994C112.979 212.309 115.599 203.303 114.885 194.581C114.584 190.909 113.424 187.308 110.476 184.891C108.618 183.368 106.324 182.781 103.95 183.064C102.219 183.27 100.82 184.065 99.775 185.464C97.7165 188.217 97.3886 191.337 97.0652 194.414C96.4796 199.986 95.9089 205.416 85.0999 208.27C85.0996 205.001 85.0924 201.731 85.0853 198.462L85.0852 198.452V198.452V198.452V198.452V198.452V198.452V198.452V198.452V198.452C85.0613 187.519 85.0374 176.589 85.2666 165.654C85.4837 155.969 85.5952 146.283 85.601 136.595L85.6012 136.517C85.6235 126.156 85.6463 115.61 83.8945 105.367C82.6116 97.8646 80.0177 88.2773 74.4257 82.7519C74.2487 82.5789 74.0675 82.4102 73.882 82.2459C73.6963 82.0816 73.5067 81.9221 73.3132 81.7673C73.1198 81.6128 72.9227 81.4631 72.722 81.3181C72.5209 81.1731 72.3166 81.0333 72.1089 80.8985C71.9009 80.7637 71.6898 80.6342 71.4756 80.51C71.2614 80.3858 71.0442 80.2668 70.8238 80.1532C70.6037 80.0399 70.3808 79.932 70.155 79.8297C69.9295 79.7273 69.7016 79.6306 69.4714 79.5395C69.2408 79.4488 69.0082 79.3638 68.7736 79.2844C68.539 79.205 68.3026 79.1314 68.0644 79.0636C67.8258 78.9959 67.5859 78.9341 67.3447 78.8784C67.1032 78.8227 66.8606 78.7729 66.6169 78.7292C66.3729 78.6859 66.1281 78.6484 65.8825 78.6167C65.6367 78.5853 65.3902 78.56 65.1432 78.5407C64.8963 78.5217 64.6491 78.5088 64.4018 78.5019C64.1541 78.495 63.9063 78.4942 63.6586 78.4997ZM26.178 163.16C24.9354 156.162 23.7304 149.377 20.1035 147.471C20.4319 149.63 20.687 151.924 20.9489 154.279C22.1265 164.867 23.4419 176.694 32.1744 183.146C34.7376 185.039 37.5363 186.175 40.5771 187.049L40.6137 183.498C36.6227 182.989 33.3836 181.841 30.863 178.496C28.2967 175.09 27.224 169.05 26.178 163.16ZM105.677 186.34C106.338 186.562 106.881 186.79 107.456 187.196C109.734 188.809 110.701 191.406 111.092 194.075C112.164 201.397 110.02 209.295 105.529 215.162C100.619 221.576 95.1396 223.339 87.4259 224.351C86.7467 224.382 86.2981 224.378 85.6358 224.175C85.2692 223.504 85.2945 222.792 85.3209 222.051C85.3275 221.866 85.3341 221.679 85.3347 221.491C89.1181 220.667 92.4267 219.863 95.8505 217.996C101.671 214.823 106.597 209.838 108.437 203.329C110.175 197.176 108.744 191.762 105.677 186.34ZM102.18 187.834L102.18 187.834L102.18 187.834C102.157 187.826 102.134 187.819 102.112 187.811L102.084 187.866L102.054 187.926C102.023 187.987 101.992 188.049 101.962 188.111C100.958 190.178 100.82 192.303 100.678 194.487C100.628 195.249 100.578 196.017 100.491 196.793C99.7183 203.662 94.7279 208.622 88.402 210.823C87.2857 211.211 86.1251 211.527 84.9738 211.792C85.0107 212.331 85.0501 212.869 85.0895 213.409L85.0896 213.409C85.2164 215.145 85.3435 216.884 85.3886 218.622C85.6599 218.564 85.9327 218.508 86.2059 218.452L86.2067 218.452L86.2076 218.452L86.2084 218.451L86.2092 218.451L86.2095 218.451C87.0043 218.289 87.8028 218.125 88.5785 217.903C94.8372 215.67 101.04 212.45 104.034 206.194C106.219 201.626 106.487 195.957 104.692 191.211C104.276 190.11 103.423 188.442 102.321 187.887C102.276 187.864 102.228 187.849 102.18 187.834ZM10.15 148.299L10.4141 148.566C10.6263 150.005 10.4399 151.636 10.2615 153.198C10.1874 153.846 10.1147 154.483 10.0724 155.088C9.2925 166.256 11.9946 179.394 19.5849 187.99C25.6791 194.891 32.2557 196.484 41.0585 197.008C41.0676 197.22 41.0841 197.437 41.1008 197.657C41.1779 198.672 41.2592 199.741 40.6426 200.547L39.4935 200.622C33.0682 200.518 26.6954 199.016 21.3739 195.289C13.062 189.468 9.5497 179.528 7.91849 169.901C6.7808 163.186 5.97041 154.162 10.15 148.299ZM18.7627 160.962C18.027 154.626 17.1348 146.942 16.1948 146.063C13.4104 148.977 13.1009 154.645 13.1976 158.468C13.4557 168.666 16.0429 180.024 23.7195 187.244C27.8383 191.119 32.8894 193.332 38.5404 193.611L40.6851 193.621L40.7381 189.772C33.915 188.369 28.464 186.096 24.4959 180.101C22.2518 176.711 20.7519 172.858 19.8334 168.91C19.5385 167.643 19.1752 164.514 18.7627 160.962ZM69.6887 84.7715C69.7322 84.7876 69.776 84.8033 69.8197 84.819C69.9116 84.852 70.0035 84.885 70.0941 84.9213C73.2453 86.184 75.4971 91.717 76.6139 94.6676C79.652 102.694 80.7328 111.708 81.2503 120.24C81.7586 128.619 81.5904 137.065 81.4231 145.47C81.3974 146.76 81.3718 148.049 81.3486 149.336L81.0175 181.657C80.9899 191.676 81.1244 201.69 81.2589 211.702V211.702V211.703V211.703C81.4706 227.456 81.6822 243.207 81.2623 258.973C81.2092 260.962 81.1798 262.976 81.1502 265.002V265.003C81.0542 271.577 80.9564 278.275 80.0438 284.653C79.776 286.524 79.3777 288.203 78.6007 289.933C77.8401 290.842 76.8341 291.754 75.6195 291.92C74.8955 291.277 75.1691 284.932 75.3056 281.765C75.3356 281.069 75.359 280.527 75.3637 280.232L76.6571 179.086C76.938 163.464 76.9844 147.842 76.7964 132.219C76.7787 130.627 76.7697 129.03 76.7606 127.43V127.43C76.714 119.195 76.667 110.886 75.438 102.764C74.8878 99.1236 73.9649 95.4566 72.553 92.0508C72.275 91.3811 71.9503 90.6872 71.6197 89.9811L71.6197 89.981L71.6197 89.981L71.6196 89.9809L71.6196 89.9807C70.8936 88.4297 70.1399 86.8195 69.7941 85.2764C69.7712 85.1728 69.7499 85.0688 69.7286 84.9648L69.7286 84.9645L69.7284 84.9635C69.7153 84.8995 69.7022 84.8355 69.6887 84.7715ZM57.188 84.8639L57.1879 84.8639C57.1562 84.8118 57.1245 84.7598 57.0994 84.7059C46.4327 94.6945 45.6399 120.377 45.1745 135.455C45.1517 136.195 45.1297 136.909 45.1073 137.594C44.6159 152.643 44.7045 167.755 44.793 182.835V182.835V182.835C44.8159 186.738 44.8387 190.639 44.8516 194.536C44.9439 222.396 45.0925 250.515 48.0011 278.249C48.0494 278.71 48.0911 279.335 48.1391 280.053L48.1391 280.054L48.1391 280.054C48.3356 282.998 48.6372 287.515 49.931 288.806C49.9958 288.87 50.0675 288.927 50.1391 288.985C50.1749 289.013 50.2108 289.042 50.2458 289.071L50.3843 289.158C51.516 289.861 52.6333 290.557 53.8313 291.148C51.2377 237.34 50.3321 183.503 51.1146 129.638L51.1344 128.475C51.3205 117.502 51.5304 105.126 54.057 94.5544C54.6417 92.1076 55.4503 89.7689 56.3951 87.4412C56.4395 87.3318 56.5335 87.1307 56.6453 86.8912C56.9351 86.2705 57.3452 85.3923 57.3251 85.1873C57.3135 85.07 57.2507 84.967 57.188 84.8639ZM61.1505 85.7367C61.4858 86.7413 61.5379 106.728 61.5618 115.9C61.5668 117.848 61.5706 119.309 61.5756 119.995L61.774 226.722C61.7733 231.657 61.7533 236.596 61.7332 241.537V241.537C61.664 258.597 61.5947 275.68 62.3247 292.705C62.0185 292.699 61.7047 292.701 61.3872 292.703H61.3866C60.1224 292.71 58.8001 292.718 57.6616 292.241L57.5043 291.621C57.5189 288.687 57.3526 285.75 57.1865 282.814C57.0981 281.252 57.0097 279.69 56.9486 278.13L55.6454 245.848C54.8345 216.38 54.4362 186.907 54.4504 157.428C54.4464 147.992 54.5172 138.556 54.6629 129.121L54.6759 128.229V128.229C54.7907 120.326 54.9063 112.362 55.8557 104.512C56.5852 98.4791 57.9452 90.9867 61.1505 85.7367ZM64.8909 84.9696C64.8588 84.9452 64.8208 84.9165 64.7745 84.8809C64.3507 90.8038 64.5857 96.8973 64.8185 102.937C64.924 105.675 65.0291 108.401 65.0723 111.096C65.3167 127.341 65.4312 143.588 65.416 159.835C65.2152 189.754 65.2682 219.673 65.575 249.591C65.6032 253.903 65.5794 258.228 65.5555 262.556C65.5 272.629 65.4444 282.724 66.0449 292.744C66.3035 292.764 66.6186 292.8 66.9674 292.839C68.525 293.016 70.7558 293.268 71.6429 292.507L71.6795 291.893L73.0778 187.668C73.3477 170.609 73.4009 153.549 73.2373 136.489C73.2203 134.301 73.2241 132.097 73.2278 129.886C73.2406 122.357 73.2535 114.74 72.4488 107.33C71.8937 102.215 68.8966 89.2156 65.3269 85.3819C65.0684 85.104 65.0678 85.1036 64.8909 84.9696Z" fill="#FEFEFE"/>
    <path d="M163.298 16.2116C163.74 16.1994 164.159 16.2261 164.582 16.369C165.388 16.6414 166.118 17.3516 166.455 18.1257C166.774 18.8576 166.791 19.6509 166.491 20.3933C165.744 22.2472 163.597 23.0731 161.91 23.8293C161.15 24.1023 160.123 24.5807 159.318 24.5081C159.085 24.4873 158.937 24.2971 158.83 24.0982C158.333 23.1774 159.325 20.9904 159.725 20.0889C160.444 18.4665 161.591 16.8516 163.298 16.2116Z" fill="#FEFEFE"/>
    <path d="M137.23 15.6299C137.462 15.6153 137.696 15.6023 137.929 15.6138C138.98 15.6656 139.835 16.2769 140.524 17.0329C141.65 18.2679 142.978 21.0713 142.815 22.7583C142.769 23.2314 142.609 23.4327 142.243 23.7139C141.724 23.8367 141.287 23.7426 140.768 23.6562C140.575 23.6085 140.389 23.5598 140.202 23.4913C138.37 22.8218 135.758 21.4367 134.965 19.5667C134.682 18.9007 134.589 18.0916 134.917 17.4239C135.364 16.515 136.328 15.9796 137.23 15.6299Z" fill="#FEFEFE"/>
    <path d="M166.952 30.2929C167.416 30.2475 167.891 30.1945 168.357 30.2097C169.474 30.2463 170.585 30.6784 171.324 31.5366C171.88 32.1811 172.158 33.0474 172.037 33.8947C172.024 33.9837 172.007 34.0719 171.985 34.1592C171.963 34.2465 171.937 34.3324 171.906 34.4167C171.875 34.5013 171.839 34.5839 171.8 34.6646C171.76 34.7454 171.716 34.8239 171.668 34.8998C171.62 34.976 171.568 35.0494 171.512 35.1201C171.457 35.1907 171.397 35.2581 171.335 35.3226C171.272 35.3868 171.206 35.4477 171.136 35.5051C171.067 35.5623 170.995 35.6159 170.92 35.6657C169.837 36.3937 168.648 36.2988 167.431 36.0934C167.113 36.0301 166.796 35.9561 166.483 35.8713C165.215 35.5262 162.659 34.8919 162.084 33.5703C161.925 33.2035 161.991 32.8854 162.175 32.5458C162.852 31.3004 165.647 30.5944 166.952 30.2929Z" fill="#FEFEFE"/>
    <path d="M140.032 39.2456C140.391 39.2228 140.908 39.3121 141.181 39.5638C141.495 39.8547 141.544 40.3176 141.503 40.7196C141.286 42.7923 139.464 45.6942 137.839 46.9747C136.972 47.6579 136.247 47.9075 135.154 47.7575C134.827 47.6163 134.484 47.4716 134.191 47.2654C133.669 46.8956 133.186 46.2124 133.094 45.5708C132.934 44.4534 133.614 43.2162 134.281 42.3731C135.683 40.6015 137.822 39.5363 140.032 39.2456Z" fill="#FEFEFE"/>
    <path d="M149.356 8.01434C150.195 7.97546 150.816 7.98909 151.563 8.40287C152.265 8.79173 152.693 9.38874 152.909 10.1588C153.63 12.7409 151.77 16.5335 150.472 18.7054C150.319 18.8469 150.153 18.9712 149.99 19.1004C149.948 19.0884 149.904 19.0825 149.864 19.0643C149.321 18.82 148.903 17.8916 148.65 17.3666C147.634 15.257 146.557 12.0971 147.426 9.78812C147.801 8.79079 148.414 8.42546 149.356 8.01434Z" fill="#FEFEFE"/>
    <path d="M148.537 42.3418C148.627 42.3781 148.719 42.413 148.81 42.4511C150.063 42.9778 150.845 44.3132 151.31 45.5308C151.958 47.2279 152.379 49.5728 151.554 51.2562C151.07 52.2436 150.444 52.5852 149.44 52.9473C148.541 53.0114 147.64 52.9244 146.945 52.2872C146.203 51.6061 145.984 50.5859 145.986 49.6159C145.992 47.2897 146.873 44.0114 148.537 42.3418Z" fill="#FEFEFE"/>
    <path d="M131.493 29.1316C132.208 29.0619 132.999 29.0367 133.709 29.1507C135.135 29.3789 138.191 30.3686 138.948 31.6576C139.135 31.9743 139.232 32.3221 139.102 32.6827C138.697 33.808 136.894 34.3125 135.908 34.7092C134.425 35.2796 132.583 35.7856 131.046 35.1683C130.213 34.8337 129.545 34.1874 129.215 33.3492C129.178 33.257 129.145 33.1631 129.118 33.0674C129.09 32.9719 129.067 32.8752 129.049 32.7774C129.031 32.6795 129.018 32.581 129.01 32.4817C129.002 32.3827 128.999 32.2834 129.001 32.1838C129.003 32.0844 129.009 31.9853 129.021 31.8864C129.033 31.7878 129.05 31.6899 129.072 31.5929C129.094 31.4958 129.12 31.4 129.152 31.3055C129.183 31.2111 129.219 31.1186 129.26 31.0277C129.726 29.9965 130.47 29.5184 131.493 29.1316Z" fill="#FEFEFE"/>
    <path d="M156.657 40.1523C158.239 40.2534 159.711 41.2976 160.852 42.3388C162.253 43.6173 164.051 45.7193 164.087 47.7065C164.102 48.5122 163.819 48.9988 163.284 49.573C162.508 50.173 161.604 50.5149 160.61 50.3796C159.749 50.2624 159.034 49.6686 158.533 48.9906C156.835 46.6935 156.22 42.9291 156.657 40.1523Z" fill="#FEFEFE"/>
    <path fill-rule="evenodd" clip-rule="evenodd" d="M154.56 23.7525C152.944 23.0054 151.346 22.9796 149.615 23.1238C147.138 23.824 145.297 25.1356 144.037 27.3891C143.021 29.2061 142.714 31.3764 143.318 33.3827C143.901 35.3186 145.332 36.9252 147.136 37.8162C148.847 38.6611 150.67 38.7616 152.518 38.4528C154.85 37.7092 156.698 36.5042 157.84 34.2627C158.835 32.3098 159.093 30.1744 158.397 28.07C158.359 27.952 158.318 27.835 158.275 27.719C158.231 27.6032 158.184 27.4885 158.134 27.375C158.084 27.2616 158.031 27.1495 157.976 27.0387C157.92 26.928 157.862 26.8188 157.8 26.7112C157.739 26.6036 157.675 26.4976 157.608 26.3933C157.541 26.2888 157.471 26.1863 157.399 26.0857C157.327 25.9849 157.252 25.8862 157.175 25.7895C157.097 25.6926 157.017 25.5979 156.935 25.5053C156.853 25.4127 156.768 25.3223 156.681 25.234C156.594 25.1457 156.505 25.0598 156.413 24.9762C156.322 24.8928 156.228 24.8118 156.132 24.733C156.037 24.6543 155.939 24.5782 155.839 24.5045C155.739 24.4311 155.638 24.3602 155.534 24.2918C155.431 24.2235 155.326 24.158 155.219 24.0953C155.112 24.0324 155.004 23.9724 154.894 23.9154C154.784 23.8581 154.673 23.8039 154.56 23.7525ZM152.785 26.5443C151.787 26.1845 150.834 26.2542 149.801 26.3324C148.309 27.0004 147.033 27.7938 146.414 29.3989C145.961 30.5735 146.059 31.8977 146.601 33.0268C146.667 33.1666 146.74 33.3029 146.82 33.4355C146.9 33.5679 146.986 33.6958 147.079 33.8193C147.172 33.9429 147.271 34.0615 147.376 34.1749C147.481 34.2884 147.592 34.3961 147.708 34.4981C147.824 34.6002 147.946 34.6961 148.072 34.7858C148.198 34.8752 148.328 34.9581 148.463 35.0345C148.597 35.1107 148.735 35.1798 148.877 35.2419C149.018 35.304 149.163 35.3587 149.31 35.406C150.235 35.7048 151.115 35.6828 152.055 35.4775C153.568 34.8285 154.786 33.9408 155.439 32.3658C155.882 31.2974 155.95 30.1185 155.495 29.0418C155 27.8705 153.971 26.9717 152.785 26.5443Z" fill="#FEFEFE"/>
    <path d="M150.372 29.5222C150.708 29.5169 151.073 29.4935 151.404 29.5579C151.876 29.6493 152.336 30.0568 152.571 30.4635C152.793 30.8476 152.843 31.2674 152.705 31.6901C152.518 32.262 152.132 32.567 151.636 32.8649C151.54 32.8635 151.444 32.8638 151.348 32.8611C150.687 32.843 150.062 32.6373 149.613 32.1281C149.291 31.7622 149.186 31.3488 149.262 30.8651C149.362 30.2288 149.883 29.8638 150.372 29.5222Z" fill="#FEFEFE"/>
</svg>
