<svg width="180" height="300" viewBox="0 0 180 300" fill="none" xmlns="http://www.w3.org/2000/svg">
    <path d="M9.71287 167.99L9.27485 167.403L8.93706 167.44L8.52651 168.208C7.8249 168.146 7.67069 168.162 7.11316 167.749C6.98354 167.219 6.90257 166.96 7.23073 166.454C7.61575 165.861 8.35254 165.604 9.02428 165.579C11.8365 165.47 14.1543 167.258 16.0433 169.14C16.1006 169.196 16.156 169.255 16.2124 169.312C18.1683 171.591 19.399 174.287 20.7334 176.952L21.8296 179.634C21.8441 180.413 21.8537 180.727 21.4051 181.404C20.8582 181.733 20.6139 181.93 19.9397 181.759C19.5258 181.654 19.2839 181.406 19.0208 181.096C18.5577 179.681 17.9313 178.46 17.088 177.235C16.5054 176.186 16.0486 175.085 15.3952 174.075C13.0913 171.592 12.3507 170.455 9.25991 168.61L9.71287 167.99Z" fill="#FEFEFE"/>
    <path d="M35.8483 166.623C36.032 166.463 36.2172 166.303 36.4038 166.145C38.6065 164.293 41.8462 162.537 44.8193 162.902C45.5595 162.993 45.9541 163.208 46.3984 163.794C46.1729 164.709 45.9103 164.871 45.1981 165.423C43.8936 165.543 42.741 165.985 41.5908 166.597C39.7871 167.689 39.1501 169.054 37.8914 170.605C37.1853 171.861 36.4572 173.103 35.7071 174.333C35.2228 175.317 34.7568 176.393 34.1395 177.298C33.6663 177.993 33.2158 178.165 32.4168 178.32C31.5427 178.124 31.0632 177.703 30.3838 177.138C31.5928 172.488 32.3257 170.062 35.8483 166.623Z" fill="#FEFEFE"/>
    <path d="M29.1244 156.248C30.7792 153.822 33.2893 150.58 36.3473 150.033C36.6407 149.981 36.9159 150.001 37.2108 150.019C37.4753 150.259 37.6334 150.263 37.6079 150.661C37.4778 152.676 33.7398 156.487 32.7944 159.053C31.1551 163.271 30.2308 167.082 29.8579 171.61C29.7745 172.622 29.5682 173.791 29.707 174.795C29.2767 175.614 28.938 175.914 28.0605 176.276C27.5405 176.491 27.1921 176.464 26.6939 176.253L26.5546 175.802C26.2616 174.482 25.614 173.278 25.7682 171.899L25.1099 171.757C25.2266 173.111 25.7181 175.86 24.9827 177.024C24.631 177.581 24.4016 177.54 23.7988 177.644C22.808 177.398 22.2158 176.861 21.439 176.221C20.6463 174.086 20.4064 171.657 19.883 169.432C18.6962 164.389 16.7884 160.299 14.1897 155.866C13.817 155.438 13.4375 155.016 13.051 154.601C12.3571 153.857 11.0199 152.355 10.0239 152.324C9.43936 151.918 9.1136 151.7 8.77051 151.054C8.86544 150.634 8.76618 150.675 9.11024 150.468C10.445 149.664 12.2916 150.255 13.6379 150.689C14.2644 151.182 14.9096 151.657 15.4715 152.225C16.4839 153.364 17.6337 154.506 18.5073 155.75L19.1621 156.959C20.4126 158.737 21.2771 160.856 22.1975 162.821C22.8822 164.196 23.4667 165.569 24.0084 167.007L24.75 169.484C25.507 168.405 25.5745 165.718 25.8588 164.327C26.2978 161.357 27.6735 158.831 29.1244 156.248Z" fill="#FEFEFE"/>
    <path d="M135.686 199.99L136.124 199.403L136.461 199.44L136.872 200.208C137.574 200.146 137.728 200.162 138.285 199.749C138.415 199.219 138.496 198.96 138.168 198.454C137.783 197.861 137.046 197.604 136.374 197.579C133.562 197.47 131.244 199.258 129.355 201.14C129.298 201.196 129.242 201.255 129.186 201.312C127.23 203.591 125.999 206.287 124.665 208.952L123.569 211.634C123.554 212.413 123.545 212.727 123.993 213.404C124.54 213.733 124.785 213.93 125.459 213.759C125.873 213.654 126.115 213.406 126.378 213.096C126.841 211.681 127.467 210.46 128.31 209.235C128.893 208.186 129.35 207.085 130.003 206.075C132.307 203.592 133.048 202.455 136.139 200.61L135.686 199.99Z" fill="#FEFEFE"/>
    <path d="M109.55 198.623C109.366 198.463 109.181 198.303 108.995 198.145C106.792 196.293 103.552 194.537 100.579 194.902C99.839 194.993 99.4443 195.208 99 195.794C99.2255 196.709 99.4882 196.871 100.2 197.423C101.505 197.543 102.657 197.985 103.808 198.597C105.611 199.689 106.248 201.054 107.507 202.605C108.213 203.861 108.941 205.103 109.691 206.333C110.176 207.317 110.642 208.393 111.259 209.298C111.732 209.993 112.183 210.165 112.982 210.32C113.856 210.124 114.335 209.703 115.015 209.138C113.806 204.488 113.073 202.062 109.55 198.623Z" fill="#FEFEFE"/>
    <path d="M116.274 188.248C114.619 185.822 112.109 182.58 109.051 182.033C108.758 181.981 108.483 182.001 108.188 182.019C107.923 182.259 107.765 182.263 107.791 182.661C107.921 184.676 111.659 188.487 112.604 191.053C114.243 195.271 115.168 199.082 115.541 203.61C115.624 204.622 115.83 205.791 115.691 206.795C116.122 207.614 116.46 207.914 117.338 208.276C117.858 208.491 118.206 208.464 118.705 208.253L118.844 207.802C119.137 206.482 119.784 205.278 119.63 203.899L120.288 203.757C120.172 205.111 119.68 207.86 120.416 209.024C120.767 209.581 120.997 209.54 121.6 209.644C122.59 209.398 123.183 208.861 123.959 208.221C124.752 206.086 124.992 203.657 125.515 201.432C126.702 196.389 128.61 192.299 131.209 187.866C131.581 187.438 131.961 187.016 132.347 186.601C133.041 185.857 134.379 184.355 135.375 184.324C135.959 183.918 136.285 183.7 136.628 183.054C136.533 182.634 136.632 182.675 136.288 182.468C134.953 181.664 133.107 182.255 131.761 182.689C131.134 183.182 130.489 183.657 129.927 184.225C128.915 185.364 127.765 186.506 126.891 187.75L126.236 188.959C124.986 190.737 124.121 192.856 123.201 194.821C122.516 196.196 121.932 197.569 121.39 199.007L120.648 201.484C119.891 200.405 119.824 197.718 119.54 196.327C119.101 193.357 117.725 190.831 116.274 188.248Z" fill="#FEFEFE"/>
    <path d="M41.0611 214.175C42.3641 214.132 43.3457 214.157 44.4844 214.85C46.6576 216.173 47.9654 218.731 48.454 221.161C48.6593 222.183 48.8097 223.294 48.2131 224.205L47.7235 224.258C45.7281 222.965 45.957 220.095 44.281 218.665C44.1976 218.593 44.108 218.53 44.0213 218.462C44.6713 220.406 45.4828 222.414 45.8673 224.424C46.0336 225.292 46.0842 225.894 45.5787 226.637L44.9243 226.722C44.6058 226.549 44.3253 226.38 44.0955 226.09C42.2624 223.774 40.6641 217.089 41.0611 214.175Z" fill="#FEFEFE"/>
    <path d="M70.3782 212.518C71.0022 212.437 71.462 212.447 72.0812 212.559C72.5775 212.988 72.7943 213.231 72.9191 213.894C73.4468 216.695 70.1513 223.75 68.4367 225.927C67.9341 226.564 67.4768 226.951 66.6562 227.072C66.1204 226.835 65.8852 226.74 65.6809 226.127C65.0376 224.194 67.2118 221.236 68.0994 219.631C68.6941 218.604 69.0666 217.388 69.4954 216.281C67.4132 219.028 65.5975 221.675 63.1212 224.111C63.1168 222.259 63.284 220.5 63.962 218.76C65.1513 215.706 67.4894 213.848 70.3782 212.518Z" fill="#FEFEFE"/>
    <path d="M49.2315 221.819C47.8793 218.319 47.6254 212.879 49.1573 209.389C49.4454 208.732 49.7177 208.336 50.3692 208C51.1262 208.045 51.5069 208.217 52.0196 208.791C54.3071 211.355 54.1283 214.887 55.532 217.847C56.0365 215.143 57.3896 210.48 59.7657 208.853C60.3406 208.459 60.7801 208.403 61.4663 208.503C62.337 208.99 62.6825 209.61 62.9577 210.55C64.1002 214.447 62.6228 221.418 60.704 224.832C60.2192 225.694 59.7508 226.212 58.882 226.677C58.2054 226.689 58.256 226.704 57.7674 226.236C57.5814 225.57 57.5086 225.062 57.6286 224.373C57.8816 222.918 58.6512 221.5 59.1196 220.099C60.0631 217.275 60.5358 214.46 60.7309 211.5C59.706 213.842 57.4739 222.387 56.1565 223.557L55.7214 223.514C54.9085 222.4 54.908 220.876 54.7552 219.539C54.1924 221.194 53.6946 222.991 53.5385 224.736C53.3212 225.403 53.0918 225.773 52.6701 226.315C52.1035 226.544 52.1025 226.522 51.5141 226.338C50.1422 225.081 49.737 223.542 49.2315 221.819Z" fill="#FEFEFE"/>
    <path fill-rule="evenodd" clip-rule="evenodd" d="M44.3592 70.1618C46.7955 69.8938 49.6053 69.9054 51.9781 70.6089C56.7347 72.0194 59.0886 75.3641 61.3867 79.4682C63.6221 79.4027 65.7496 79.5612 67.9638 79.871C70.2715 78.4688 72.5325 77.572 75.2999 77.8862C79.3761 78.3488 82.1806 80.8791 84.5687 83.9627C86.4514 82.0178 88.3067 80.1592 90.9608 79.3087C94.9507 78.0295 98.22 79.7119 101.659 81.4816L101.785 81.5465C102.617 80.8488 103.446 80.1592 104.382 79.6036C107.025 78.0351 110.121 77.2892 113.14 78.1411C116.027 78.955 117.535 80.9027 118.984 83.3531C120.977 82.0443 122.94 81.0753 125.335 80.7765C128.115 80.4295 131.147 80.9297 133.367 82.7329C135.667 84.6011 136.24 86.9117 136.473 89.7129C138.503 89.4652 140.507 89.3746 142.508 89.8892C145.034 90.5398 147.416 92.0794 148.746 94.3639C150.333 97.0885 150.147 100.169 149.303 103.08C150.188 103.436 151.107 103.715 152.024 103.994L152.024 103.994C152.496 104.137 152.966 104.28 153.432 104.434C157.02 105.615 159.657 107.913 161.346 111.296C163.263 115.135 163.451 119.791 162.099 123.841C160.48 128.689 157.154 131.969 152.664 134.22C152.478 138.522 151.653 142.854 148.945 146.33C146.242 149.801 142.746 151.306 138.459 151.819C139.624 157.656 141.294 166.683 141.236 172.524C141.227 173.48 140.899 174.68 140.088 175.278C139.576 175.656 139.282 175.619 138.718 175.547L138.67 175.541C137.737 174.963 137.315 174.085 136.925 173.086C136.17 171.153 135.693 169.014 135.229 166.931L135.229 166.93C135.082 166.269 134.936 165.614 134.783 164.974L134.726 164.734C133.606 160.046 132.501 155.423 130.943 150.852C130.724 150.755 130.512 150.663 130.306 150.574C128.555 149.814 127.294 149.267 126.179 147.469C123.766 150.685 121.451 152.832 117.779 154.541C118.572 157.121 119.555 159.665 120.539 162.21L120.539 162.211L120.539 162.211L120.539 162.211L120.539 162.211C121.776 165.413 123.014 168.617 123.874 171.892C124.213 173.179 124.741 175.434 123.945 176.605C123.772 176.859 123.704 176.897 123.345 176.901C122.634 176.909 121.499 175.881 120.979 175.41L120.953 175.387C118.421 172.051 115.798 166.093 113.471 160.807C112.442 158.468 111.47 156.261 110.59 154.47C109.635 154.834 108.735 155.223 107.857 155.603C105.163 156.77 102.67 157.848 99.4096 157.82C94.5238 157.778 90.4683 155.858 87.06 152.431C85.9801 155.554 84.6044 158.426 83.2115 161.335L83.2112 161.336L83.2109 161.336L83.2107 161.337L83.2107 161.337L83.2106 161.337L83.2106 161.337C82.6348 162.539 82.056 163.748 81.4939 164.983C81.1024 165.843 80.7259 166.765 80.342 167.705L80.342 167.705L80.3418 167.706C79.3971 170.019 78.4079 172.442 77.0419 174.316C76.5012 175.058 76.0396 175.38 75.1322 175.502C74.3178 175.165 73.9656 174.693 73.5989 173.915C72.239 171.031 75.4156 163.43 77.6462 158.093C78.3172 156.487 78.9026 155.086 79.2532 154.08C76.7551 153.138 74.447 152.253 72.7648 150.054C71.1803 150.328 69.6138 150.515 68.0115 150.657C67.2486 155.049 66.5172 159.447 65.8175 163.85C65.6829 164.741 65.5656 165.644 65.4479 166.549L65.4479 166.549C65.1718 168.673 64.8936 170.813 64.3844 172.863C64.2471 173.415 64.1122 173.871 63.6631 174.259C63.3306 174.546 62.829 174.616 62.4054 174.56C61.6079 174.453 61.0388 174.113 60.5752 173.45C59.798 172.338 59.5204 170.874 59.4549 169.543C59.3507 167.429 59.6563 165.155 59.9504 162.968L59.9504 162.967C60.0453 162.262 60.1389 161.565 60.2172 160.886C60.7164 156.225 61.2932 151.574 61.9476 146.933C60.9236 145.277 60.2485 143.527 59.5575 141.714C56.4007 142.274 53.3399 142.567 50.5238 140.675C47.8368 138.869 46.5994 135.91 46.0096 132.852C44.511 132.149 43.1179 131.293 42.0977 129.96C40.2006 127.479 40.31 124.161 40.6767 121.214C37.2173 120.913 34.3795 120.218 32.08 117.397C27.2106 111.423 28.3507 101.208 29.208 93.5268C29.3009 92.6947 29.3905 91.8922 29.4687 91.1281C27.2391 92.2201 25.1164 93.0436 22.6517 93.419C20.17 93.7968 16.34 94.1509 14.2588 92.5005C13.5028 91.9011 13.059 91.0578 13.0064 90.0936C12.8917 87.995 14.3321 85.8969 15.6688 84.3896C20.1975 79.2808 25.8715 78.1517 32.3528 77.7373L32.3591 77.7275L32.3591 77.7274L32.3592 77.7273C32.8727 76.9292 33.3956 76.1166 33.9839 75.3713C36.7195 71.9066 40.1167 70.6354 44.3592 70.1618ZM30.2902 81.2449C30.5365 81.2211 30.7518 81.2594 30.9859 81.301C31.027 81.3084 31.0687 81.3158 31.1113 81.323C31.6271 82.4289 30.9189 84.2843 30.3959 85.6546C30.2793 85.9602 30.1718 86.2416 30.0892 86.4853C26.107 89.2325 23.1661 90.0329 18.3459 90.2743L17.1996 89.9485C17.1491 89.8921 17.1005 89.8436 17.0552 89.7983L17.0552 89.7983C16.8924 89.6358 16.7724 89.516 16.763 89.2257C16.7394 88.4933 17.1731 87.8529 17.6149 87.304C20.8223 83.3232 25.3977 81.7885 30.2902 81.2449ZM65.5614 83.0474C64.5504 82.7433 63.5037 82.7544 62.4648 82.8855C61.4751 83.3813 60.7175 83.8651 60.2824 84.932C60.0135 85.5902 60.0718 86.2865 60.385 86.9173C61.6013 89.3686 65.7141 91.5954 68.2656 92.3456C69.1451 92.6044 70.0703 92.7389 70.9767 92.8588C71.7944 92.6112 72.4652 92.3678 72.8676 91.5284C73.2506 90.729 73.0386 89.7469 72.6806 88.9812C71.4147 86.2745 68.3962 83.8993 65.5614 83.0474ZM43.9542 73.4978C47.1775 73.2139 50.7391 73.2106 53.5922 74.9419C56.1158 76.4724 57.3619 78.889 58.0794 81.6554C56.8754 84.3208 56.6853 87.1437 56.4935 89.9913L56.4935 89.9914C56.4251 91.007 56.3565 92.0258 56.2416 93.0416C55.9741 95.4014 55.4528 97.7342 54.8827 100.038C53.439 105.871 51.3587 113.218 45.7502 116.428C43.2126 117.881 40.1195 118.14 37.3309 117.303C35.772 116.835 34.1553 114.772 33.471 113.365C33.0176 112.432 32.4779 110.829 32.807 109.838C33.7264 111.449 34.8675 113.211 36.3011 114.406C37.6186 115.504 39.229 116.093 40.9502 115.875C42.9023 115.628 45.0404 114.402 46.1781 112.786C46.5453 112.264 46.805 111.638 46.5814 111.004C45.918 109.118 43.3055 108.045 41.5467 107.323L41.4099 107.267C39.0954 107.474 36.5805 108.165 34.2081 108.817L34.2081 108.817L34.2073 108.817C33.5305 109.003 32.8653 109.186 32.2196 109.354C31.2424 102.476 32.6832 83.8513 36.3628 77.9797C38.0961 75.2137 40.9204 74.1507 43.9542 73.4978ZM82.5769 86.1332C80.2543 82.616 77.6502 80.6976 73.3032 80.9544C72.4219 81.3216 71.6051 81.6961 70.7946 82.2025C73.3784 84.4538 75.8581 87.0304 76.1024 90.6623C76.1974 92.0752 75.8128 93.4606 74.8178 94.4942C73.6511 95.7056 71.9434 96.1933 70.2997 96.1914C66.3315 96.187 62.5256 93.6432 59.709 91.0536C58.7959 99.6719 56.9204 111.692 49.7863 117.549C48.1151 118.921 46.3163 119.748 44.2346 120.325C43.5681 122.442 43.2438 125.635 44.3469 127.685C44.9612 128.826 46.1033 129.574 47.3422 129.884C48.3039 130.125 49.7523 129.883 51.0721 129.663C52.3037 129.458 53.4234 129.271 53.9314 129.513C54.1362 130.1 54.1337 130.79 53.8755 131.372C53.4842 132.255 52.5585 132.57 51.6998 132.817C50.9317 133.041 50.1533 133.221 49.3646 133.357C50.2517 135.816 51.1818 137.468 53.6702 138.61C53.9924 138.756 54.3178 138.894 54.6465 139.024C56.8712 138.607 57.9945 137.907 59.2784 137.106C59.9865 136.664 60.7434 136.191 61.7609 135.72C61.9153 136.325 62.0554 136.957 62.1979 137.598C62.9259 140.878 63.7137 144.426 66.769 146.199C67.5723 146.665 68.4503 147.025 69.322 147.342C70.2589 146.952 71.1199 146.453 71.9794 145.955C72.7149 145.528 73.4493 145.103 74.2294 144.747C74.2789 144.896 74.3275 145.045 74.3756 145.192C75.0283 147.191 75.6122 148.98 77.6999 149.995C79.8712 151.051 82.2907 150.553 84.4654 149.821C84.4763 149.569 84.4814 149.299 84.4867 149.017C84.5163 147.444 84.5524 145.521 85.6609 144.486C86.3119 144.538 86.5582 144.716 86.9745 145.233C87.5535 145.953 88.0228 146.779 88.49 147.601C88.7986 148.144 89.1063 148.685 89.4441 149.194C91.3022 151.992 94.5207 154.264 97.8601 154.747C100.953 155.195 104.098 154.141 106.603 152.352C106.574 152.332 106.546 152.313 106.517 152.293C106.471 152.262 106.425 152.231 106.378 152.2C105.437 151.596 104.446 151.221 103.496 150.863C101.436 150.084 99.5751 149.381 98.8763 146.57C98.6277 145.571 98.6344 144.723 98.8898 143.734L99.2623 143.361C100.005 143.378 100.497 143.723 100.993 144.254C101.473 144.769 101.813 145.43 102.148 146.081C102.326 146.427 102.503 146.77 102.698 147.087C102.925 147.171 103.151 147.256 103.378 147.342C103.907 147.542 104.437 147.742 104.971 147.928C106.415 148.433 107.636 149.149 108.797 149.829C111.495 151.411 113.865 152.801 117.961 150.904C121.212 149.4 123.149 146.218 124.208 142.926C124.45 142.172 124.431 141.322 124.412 140.479C124.382 139.142 124.353 137.826 125.367 136.945L125.433 136.927C126 136.765 126.119 136.732 126.714 136.901C127.538 137.787 127.983 139.046 128.399 140.222C128.491 140.481 128.581 140.737 128.674 140.983C130.329 145.386 133.119 148.34 138.061 148.609C140.719 148.753 143.245 147.572 145.171 145.796C147.49 143.656 149.435 139.763 149.558 136.574C149.584 135.907 149.572 135.363 149.279 134.749C148.879 134.619 148.484 134.494 148.075 134.394C145.172 137.573 142.976 139.752 138.439 139.971C136.92 140.044 134.885 139.86 133.757 138.702C133.16 138.089 132.978 137.349 133.038 136.513C133.061 136.202 133.046 136.112 133.076 136.042C133.104 135.977 133.171 135.928 133.345 135.73C134.151 135.724 134.916 135.948 135.683 136.172C135.914 136.239 136.144 136.307 136.376 136.368C139.535 137.204 141.987 136.309 144.225 133.954C145.448 132.668 146.011 130.837 146.501 129.242C146.945 127.8 147.329 126.55 148.087 126.069L148.852 126.116C149.493 126.868 149.511 127.649 149.44 128.623C149.374 129.54 149.265 130.457 149.157 131.37C149.144 131.478 149.132 131.586 149.119 131.694C152.643 130.964 155.476 129.375 157.537 126.331C159.637 123.227 160.414 119.008 159.611 115.345C159.012 112.612 157.361 109.958 154.937 108.48C154.193 108.027 153.372 107.666 152.567 107.312C152.407 107.241 152.248 107.171 152.091 107.101C153.948 109.284 154.911 111.345 154.666 114.302C154.356 118.031 152.346 121.646 149.406 123.952C147.411 125.516 144.86 126.642 142.301 126.277C141.544 126.169 140.918 126.003 140.405 125.406C140.372 124.889 140.377 124.843 140.694 124.451C141.654 123.264 143.257 122.669 144.945 122.042C148.265 120.809 151.911 119.455 151.632 113.247C151.548 111.389 150.548 109.572 149.175 108.342C147.898 107.198 146.028 107.296 144.221 107.39C142.252 107.493 140.357 107.591 139.384 106.075C139.384 106.019 139.384 105.966 139.383 105.915C139.381 105.435 139.379 105.173 139.84 104.802C140.818 104.012 142.552 103.896 144.078 103.793C144.708 103.751 145.303 103.711 145.794 103.627C146.289 102.127 146.74 100.639 147.113 99.1038C146.574 96.9277 145.789 94.7896 143.737 93.5912C141.798 92.4587 139.025 92.876 136.539 93.2503C134.243 93.5957 132.192 93.9044 131.265 92.9242L131.234 92.4231L131.48 92.1773C132.594 91.0454 133.46 89.9838 133.396 88.3093C133.348 87.0285 132.707 85.8498 131.747 85.0186C130.34 83.7995 128.217 83.2665 126.385 83.4506C123.456 83.744 121.502 85.8335 119.954 87.4883C118.93 88.5835 118.084 89.4883 117.251 89.5564C116.54 88.7888 116.444 87.5519 116.343 86.2558C116.157 83.867 115.955 81.2772 111.865 81.0532C109.392 80.9178 106.375 81.5399 104.508 83.227C103.491 84.1449 102.85 85.6522 102.254 87.051C101.497 88.8304 100.814 90.4341 99.5302 90.4252C98.9751 90.0653 98.7067 89.8884 98.5376 89.221C98.1828 87.8185 98.7726 85.9245 99.2426 84.4151C99.3223 84.1591 99.3985 83.9143 99.4662 83.6848C97.4297 82.3268 95.363 81.1636 92.8254 81.7264C90.2946 82.2876 88.6923 84.4956 87.379 86.3054C86.3918 87.6658 85.5679 88.8013 84.6355 88.8432C83.9274 88.2645 83.4387 87.49 82.9521 86.7188C82.8281 86.5223 82.7042 86.326 82.5769 86.1332Z" fill="#FEFEFE"/>
    <path d="M132.505 111.844L132.784 111.935C133.39 112.937 134.127 113.725 134.927 114.567L134.851 114.88C133.869 115.248 132.817 115.222 131.779 115.273C130.898 114.894 130.245 114.48 129.553 113.815C129.336 113.204 129.319 113.251 129.592 112.666C130.405 111.976 131.484 111.979 132.505 111.844Z" fill="#FEFEFE"/>
    <path d="M76.394 128.506C77.9645 128.966 81.5048 129.213 82.4445 130.412C82.4112 131.106 82.2358 131.265 81.8551 131.828C81.3116 132.104 80.7907 132.388 80.1638 132.409C79.1085 132.443 77.9606 131.907 77.259 131.134C76.4837 130.28 76.3329 129.641 76.394 128.506Z" fill="#FEFEFE"/>
    <path d="M94.4719 126.355C95.0695 126.375 95.3976 126.39 95.9099 126.711C96.3585 127.382 96.6799 128.008 96.7257 128.833C96.8081 130.308 96.5445 131.284 95.5258 132.329C95.1957 132.172 94.8521 132.025 94.5452 131.824C93.8619 131.378 93.4258 130.506 93.3106 129.714C93.1213 128.414 93.6773 127.331 94.4719 126.355Z" fill="#FEFEFE"/>
    <path d="M83.4658 102.082C84.1679 102.128 84.8642 102.331 85.5706 102.374C86.6327 102.438 87.6972 102.31 88.7597 102.456C89.4343 102.549 89.6825 102.628 90.1094 103.156C90.0636 103.9 89.9581 104.042 89.5481 104.676C88.9717 104.994 88.4185 105.298 87.7646 105.42C86.8587 105.589 85.7595 105.373 85.0049 104.837C84.0397 104.152 83.6644 103.207 83.4658 102.082Z" fill="#FEFEFE"/>
    <path d="M104.607 115.736C105.062 115.958 105.479 116.288 105.762 116.709C106.095 117.204 106.226 117.77 106.019 118.351C105.468 119.897 103.886 120.593 102.475 121.101C101.756 120.779 101.243 120.604 100.835 119.882C101.018 118.217 103.335 117.194 104.426 115.948C104.488 115.878 104.547 115.807 104.607 115.736Z" fill="#FEFEFE"/>
    <path d="M78.4083 138.863C80.0761 139.265 83.4694 139.717 84.4602 141.176C84.4216 141.869 84.2163 142.034 83.8193 142.587C82.8329 142.993 81.978 143.187 80.9328 142.877C79.8313 142.551 78.8988 141.997 78.3832 140.934C77.9944 140.132 78.1317 139.645 78.4083 138.863Z" fill="#FEFEFE"/>
    <path d="M68.1497 104.713C68.5063 104.745 68.8084 104.775 69.1544 104.874C70.5702 105.28 72.8875 106.038 73.6219 107.419C73.6195 108.047 73.3236 108.401 72.9849 108.897C72.0611 109.273 71.3624 109.356 70.4006 109.073C69.3322 108.76 68.5145 108.144 68.0322 107.127C67.6187 106.255 67.8722 105.567 68.1497 104.713Z" fill="#FEFEFE"/>
    <path d="M59.9819 128.35C61.5046 128.778 66.0058 131.477 66.7821 132.839C66.9816 133.189 66.7975 133.382 66.6799 133.731C64.618 133.705 62.5917 132.915 60.9321 131.692C60.2778 131.21 59.5443 130.508 59.4533 129.656C59.3781 128.948 59.5564 128.88 59.9819 128.35Z" fill="#FEFEFE"/>
    <path d="M94.3587 136.277C94.5967 136.255 94.9745 136.209 95.2039 136.234C95.8231 136.3 96.0308 136.493 96.4385 136.906C96.6399 137.785 96.4144 138.357 95.9426 139.088C94.9138 140.68 93.8966 141.197 92.0808 141.599C91.3725 141.509 90.9167 141.371 90.4502 140.82C90.4714 139.598 93.406 137.335 94.3587 136.277Z" fill="#FEFEFE"/>
    <path d="M99.2663 105.371C100.93 106.017 102.988 107.627 103.766 109.242C103.706 110.042 103.562 110.146 103.09 110.765C101.965 111.022 100.968 111.054 99.9429 110.433C99.86 110.383 99.7799 110.33 99.7024 110.272C99.625 110.215 99.5505 110.154 99.4788 110.089C99.4072 110.024 99.3391 109.955 99.2745 109.884C99.2096 109.812 99.1486 109.738 99.0914 109.66C99.0339 109.582 98.9804 109.502 98.9309 109.419C98.8815 109.336 98.8362 109.251 98.7951 109.164C98.7539 109.077 98.7173 108.987 98.6852 108.896C98.6527 108.806 98.625 108.713 98.6018 108.619C98.306 107.425 98.6712 106.396 99.2663 105.371Z" fill="#FEFEFE"/>
    <path d="M83.711 114.947C85.1479 115.246 85.3316 116.892 87.0292 117.581C87.3048 117.693 87.5853 117.792 87.8561 117.914C88.4358 118.176 88.6387 118.296 88.868 118.888C88.6719 119.595 88.3471 119.886 87.8305 120.365C86.5873 120.659 85.599 120.68 84.4907 119.953C83.6508 119.403 83.0923 118.612 82.9463 117.612C82.7848 116.504 83.087 115.842 83.711 114.947Z" fill="#FEFEFE"/>
    <path d="M110.098 127.521C111.117 127.809 111.577 128.547 112.217 129.329C113.258 130.6 114.961 131.093 116.362 131.908C116.319 132.599 116.007 132.747 115.56 133.242C114.114 133.421 112.883 133.298 111.602 132.568C110.62 132.009 109.854 131.237 109.569 130.121C109.299 129.068 109.557 128.425 110.098 127.521Z" fill="#FEFEFE"/>
    <path d="M115.637 114.98C116.773 115.324 117.594 116.371 118.577 117.013C119.535 117.638 120.639 117.985 121.614 118.622C121.511 119.283 120.92 119.628 120.444 120.083C120.217 120.189 119.987 120.279 119.75 120.359C118.786 120.683 118.08 120.621 117.184 120.126C116.188 119.575 115.479 118.731 115.196 117.623C114.913 116.52 115.085 115.906 115.637 114.98Z" fill="#FEFEFE"/>
    <path d="M66.0898 118.453C66.2237 118.461 66.3572 118.471 66.4917 118.478C67.8732 118.548 68.3464 119.366 69.54 119.802C70.5283 120.164 71.6444 120.039 72.6361 120.358C73.115 120.511 73.1435 120.59 73.3685 121.008C73.209 121.761 72.7185 122.141 72.1903 122.655C71.0825 123.099 70.3505 123.109 69.2176 122.728C68.0192 122.326 66.3037 121.456 65.8628 120.152C65.5939 119.357 65.7804 119.159 66.0898 118.453Z" fill="#FEFEFE"/>
    <path d="M127.061 91.2012C127.542 91.3014 127.984 91.4113 128.368 91.7399C129.774 92.9436 130.722 95.3756 130.868 97.1779C130.953 98.2298 130.634 98.8355 129.972 99.6243L128.93 99.4967C127.846 98.7522 127.103 96.1014 126.75 94.8114C126.58 94.1898 126.226 93.3561 126.209 92.7191C126.189 91.9987 126.625 91.6961 127.061 91.2012Z" fill="#FEFEFE"/>
    <path d="M111.625 139.051C113.211 139.462 113.757 140.929 115.259 141.528C116.316 141.95 117.851 141.359 119.049 141.658L119.216 142.08C119.026 142.848 118.519 143.332 118.013 143.911C117.566 144.196 117.1 144.471 116.58 144.606C115.401 144.912 113.815 144.376 112.814 143.767C111.911 143.218 111.169 142.313 110.977 141.256C110.803 140.302 111.121 139.803 111.625 139.051Z" fill="#FEFEFE"/>
    <path d="M115.315 98.6152C115.716 98.9145 115.933 99.1202 116.181 99.5655C116.586 100.295 116.653 101.283 116.434 102.076C116.014 103.599 114.623 104.797 113.258 105.474C111.567 106.313 110.469 106.121 108.726 105.55C108.533 105.445 108.338 105.344 108.153 105.226C107.513 104.82 107.087 104.418 106.91 103.661C106.987 103.494 106.976 103.242 107.14 103.159C107.918 102.765 110.458 103.254 111.617 102.764C113.215 102.089 114.039 99.8093 115.315 98.6152Z" fill="#FEFEFE"/>
    <path d="M129.37 122.762C129.587 122.807 129.926 122.865 130.115 122.973C130.646 123.275 130.726 123.559 130.828 124.097C130.518 125.25 129.309 126.263 128.547 127.166C126.226 129.914 130.021 131.051 130.224 133.484L129.557 134.068C128.994 133.975 128.393 133.901 127.853 133.707C126.81 133.333 125.853 132.314 125.382 131.333C124.75 130.018 124.739 128.384 125.219 127.018C125.977 124.858 127.352 123.708 129.37 122.762Z" fill="#FEFEFE"/>
    <path d="M47.6698 86.4631C47.9809 86.4469 48.2159 86.4266 48.5327 86.4496C49.3274 86.5073 50.752 87.9984 51.2339 88.6539C51.7804 89.3972 52.0124 90.2526 51.907 91.1637C51.5362 91.8888 50.9492 92.0663 50.2467 92.3826C49.721 92.4676 49.2447 92.5336 48.7124 92.4599C48.5951 92.4445 48.4788 92.423 48.3636 92.3954C48.2487 92.3676 48.1355 92.3338 48.024 92.294C47.9125 92.2546 47.8034 92.2093 47.6966 92.1581C47.5901 92.1069 47.4864 92.0503 47.3856 91.9883C47.2848 91.9262 47.1875 91.8589 47.0939 91.7864C47.0003 91.7142 46.9108 91.6371 46.8254 91.5551C46.7399 91.4734 46.6589 91.3874 46.5823 91.2972C46.506 91.2066 46.4346 91.1124 46.3681 91.0147C45.8671 90.2875 45.7154 89.4147 45.9216 88.5587C46.1784 87.4915 46.757 87.0011 47.6698 86.4631Z" fill="#FEFEFE"/>
    <path d="M41.2984 87.1522C41.0168 87.0189 40.8071 86.9107 40.5055 86.8115C39.7485 86.5626 37.8639 87.3997 37.1688 87.8227C36.3807 88.3023 35.8408 89.0051 35.5917 89.8878C35.6589 90.6994 36.1342 91.0868 36.6636 91.6466C37.1175 91.9252 37.5328 92.1674 38.0532 92.3017C38.1675 92.3321 38.2833 92.3564 38.4003 92.3748C38.5172 92.3927 38.6347 92.4045 38.7529 92.4101C38.871 92.4161 38.9892 92.4157 39.1074 92.409C39.2254 92.4021 39.3428 92.3892 39.4597 92.3702C39.5765 92.3512 39.692 92.3259 39.8062 92.2944C39.9202 92.2633 40.0323 92.226 40.1425 92.1826C40.2526 92.1396 40.3603 92.0909 40.4654 92.0366C40.5704 91.9818 40.6723 91.9219 40.771 91.8568C41.511 91.3748 41.9832 90.6253 42.1181 89.7552C42.2865 88.6706 41.938 87.997 41.2984 87.1522Z" fill="#FEFEFE"/>
</svg>
