<svg width="300" height="180" viewBox="0 0 300 180" fill="none" xmlns="http://www.w3.org/2000/svg">
    <rect x="1.5" y="1.5" width="297" height="177" stroke="#FEFEFE" stroke-width="3" stroke-dasharray="6 6"/>
    <path d="M179.837 16.4H183.437L186.101 23.33L188.765 16.4H192.257V29H189.557V21.98C189.557 21.62 189.563 21.32 189.575 21.08C189.587 20.84 189.611 20.54 189.647 20.18H189.575C189.515 20.36 189.461 20.522 189.413 20.666C189.365 20.798 189.317 20.936 189.269 21.08C189.233 21.212 189.185 21.35 189.125 21.494C189.077 21.638 189.017 21.8 188.945 21.98L187.217 26.48H184.877L183.149 21.98C183.077 21.8 183.011 21.638 182.951 21.494C182.903 21.35 182.855 21.212 182.807 21.08C182.771 20.936 182.729 20.798 182.681 20.666C182.633 20.522 182.579 20.36 182.519 20.18H182.447C182.471 20.54 182.489 20.84 182.501 21.08C182.525 21.32 182.537 21.62 182.537 21.98V29H179.837V16.4ZM198.82 29.252C197.284 29.252 196.132 28.85 195.364 28.046C194.608 27.23 194.23 25.928 194.23 24.14C194.23 22.388 194.62 21.098 195.4 20.27C196.18 19.442 197.32 19.028 198.82 19.028C199.612 19.028 200.296 19.124 200.872 19.316C201.448 19.496 201.922 19.796 202.294 20.216C202.678 20.624 202.96 21.152 203.14 21.8C203.32 22.448 203.41 23.228 203.41 24.14C203.41 25.928 203.026 27.23 202.258 28.046C201.49 28.85 200.344 29.252 198.82 29.252ZM198.82 26.84C199.12 26.84 199.378 26.798 199.594 26.714C199.822 26.618 200.014 26.468 200.17 26.264C200.326 26.06 200.44 25.784 200.512 25.436C200.596 25.088 200.638 24.656 200.638 24.14C200.638 23.624 200.602 23.192 200.53 22.844C200.458 22.496 200.344 22.22 200.188 22.016C200.032 21.812 199.84 21.668 199.612 21.584C199.384 21.488 199.12 21.44 198.82 21.44C198.52 21.44 198.256 21.488 198.028 21.584C197.8 21.668 197.608 21.818 197.452 22.034C197.308 22.238 197.194 22.514 197.11 22.862C197.038 23.21 197.002 23.636 197.002 24.14C197.002 24.656 197.038 25.088 197.11 25.436C197.194 25.784 197.308 26.06 197.452 26.264C197.608 26.468 197.8 26.618 198.028 26.714C198.256 26.798 198.52 26.84 198.82 26.84ZM204.193 26.588H205.183C205.495 25.832 205.699 24.824 205.795 23.564C205.891 22.304 205.939 20.876 205.939 19.28H212.887V26.588H214.093V31.34H211.681V29H206.605V31.34H204.193V26.588ZM210.187 26.588V21.692H208.351C208.351 22.52 208.309 23.33 208.225 24.122C208.153 24.914 208.015 25.736 207.811 26.588H210.187ZM219.758 29.252C218.894 29.252 218.162 29.144 217.562 28.928C216.974 28.712 216.494 28.388 216.122 27.956C215.762 27.512 215.498 26.96 215.33 26.3C215.162 25.64 215.078 24.86 215.078 23.96C215.078 22.304 215.468 21.068 216.248 20.252C217.028 19.436 218.138 19.028 219.578 19.028C220.382 19.028 221.054 19.136 221.594 19.352C222.146 19.556 222.59 19.856 222.926 20.252C223.274 20.648 223.52 21.128 223.664 21.692C223.82 22.244 223.898 22.868 223.898 23.564V24.86H217.778C217.826 25.628 218.03 26.18 218.39 26.516C218.75 26.852 219.326 27.02 220.118 27.02C220.43 27.02 220.742 26.996 221.054 26.948C221.378 26.888 221.684 26.81 221.972 26.714C222.26 26.618 222.524 26.504 222.764 26.372C223.004 26.24 223.202 26.102 223.358 25.958V28.37C222.95 28.622 222.47 28.832 221.918 29C221.378 29.168 220.658 29.252 219.758 29.252ZM219.578 21.08C218.99 21.08 218.552 21.248 218.264 21.584C217.988 21.92 217.826 22.472 217.778 23.24H221.198C221.198 22.508 221.084 21.968 220.856 21.62C220.628 21.26 220.202 21.08 219.578 21.08ZM224.654 26.426C224.774 26.462 224.888 26.48 224.996 26.48C225.188 26.48 225.356 26.414 225.5 26.282C225.644 26.15 225.764 25.886 225.86 25.49C225.956 25.082 226.028 24.5 226.076 23.744C226.124 22.988 226.154 21.98 226.166 20.72L226.184 19.28H233.564V29H230.864V21.8H228.704L228.686 22.232C228.638 23.564 228.548 24.68 228.416 25.58C228.296 26.48 228.116 27.2 227.876 27.74C227.636 28.28 227.33 28.67 226.958 28.91C226.586 29.138 226.142 29.252 225.626 29.252C225.434 29.252 225.248 29.24 225.068 29.216C224.9 29.204 224.762 29.174 224.654 29.126V26.426ZM238.967 29.126C238.607 29.126 238.235 29.12 237.851 29.108C237.467 29.108 237.119 29.096 236.807 29.072C236.435 29.048 236.075 29.024 235.727 29V19.28H238.427V21.98C238.571 21.98 238.715 21.974 238.859 21.962C238.991 21.95 239.129 21.944 239.273 21.944C239.417 21.932 239.555 21.926 239.687 21.926C240.371 21.926 240.953 21.992 241.433 22.124C241.913 22.256 242.303 22.466 242.603 22.754C242.903 23.042 243.119 23.414 243.251 23.87C243.395 24.326 243.467 24.878 243.467 25.526C243.467 26.15 243.389 26.69 243.233 27.146C243.089 27.59 242.837 27.962 242.477 28.262C242.129 28.55 241.667 28.766 241.091 28.91C240.515 29.054 239.807 29.126 238.967 29.126ZM240.695 25.526C240.695 25.094 240.599 24.788 240.407 24.608C240.215 24.428 239.855 24.338 239.327 24.338C239.231 24.338 239.129 24.344 239.021 24.356C238.925 24.356 238.829 24.362 238.733 24.374C238.625 24.386 238.523 24.392 238.427 24.392V26.66C238.523 26.672 238.625 26.684 238.733 26.696C238.829 26.708 238.925 26.714 239.021 26.714C239.129 26.714 239.231 26.714 239.327 26.714C239.855 26.714 240.215 26.624 240.407 26.444C240.599 26.264 240.695 25.958 240.695 25.526ZM254.889 29.252C253.941 29.252 253.113 29.132 252.405 28.892C251.697 28.64 251.103 28.25 250.623 27.722C250.155 27.194 249.801 26.516 249.561 25.688C249.333 24.86 249.219 23.864 249.219 22.7C249.219 20.42 249.699 18.758 250.659 17.714C251.631 16.67 253.041 16.148 254.889 16.148C255.861 16.148 256.701 16.268 257.409 16.508C258.117 16.748 258.705 17.132 259.173 17.66C259.641 18.176 259.989 18.848 260.217 19.676C260.445 20.504 260.559 21.512 260.559 22.7C260.559 23.84 260.433 24.824 260.181 25.652C259.941 26.48 259.581 27.164 259.101 27.704C258.633 28.232 258.045 28.622 257.337 28.874C256.629 29.126 255.813 29.252 254.889 29.252ZM254.889 26.732C255.345 26.732 255.747 26.666 256.095 26.534C256.443 26.402 256.731 26.186 256.959 25.886C257.187 25.574 257.355 25.16 257.463 24.644C257.583 24.128 257.643 23.48 257.643 22.7C257.643 21.932 257.583 21.29 257.463 20.774C257.355 20.246 257.181 19.832 256.941 19.532C256.713 19.22 256.425 18.998 256.077 18.866C255.741 18.734 255.345 18.668 254.889 18.668C254.433 18.668 254.031 18.734 253.683 18.866C253.347 18.998 253.059 19.22 252.819 19.532C252.591 19.832 252.417 20.246 252.297 20.774C252.189 21.29 252.135 21.932 252.135 22.7C252.135 23.48 252.189 24.128 252.297 24.644C252.417 25.16 252.591 25.574 252.819 25.886C253.059 26.186 253.347 26.402 253.683 26.534C254.031 26.666 254.433 26.732 254.889 26.732ZM266.408 29.252C265.556 29.252 264.788 29.168 264.104 29C263.432 28.832 262.88 28.622 262.448 28.37V25.382C262.592 25.514 262.784 25.652 263.024 25.796C263.264 25.94 263.54 26.078 263.852 26.21C264.176 26.33 264.536 26.432 264.932 26.516C265.328 26.588 265.76 26.624 266.228 26.624C266.888 26.624 267.344 26.522 267.596 26.318C267.86 26.114 267.992 25.838 267.992 25.49C267.992 25.094 267.848 24.788 267.56 24.572C267.284 24.344 266.93 24.146 266.498 23.978C266.078 23.81 265.622 23.642 265.13 23.474C264.638 23.306 264.176 23.084 263.744 22.808C263.324 22.52 262.97 22.148 262.682 21.692C262.406 21.236 262.268 20.642 262.268 19.91C262.268 18.71 262.622 17.786 263.33 17.138C264.05 16.478 265.196 16.148 266.768 16.148C267.512 16.148 268.196 16.208 268.82 16.328C269.456 16.436 269.972 16.586 270.368 16.778V19.766C269.948 19.454 269.432 19.214 268.82 19.046C268.208 18.866 267.584 18.776 266.948 18.776C266.6 18.776 266.312 18.8 266.084 18.848C265.856 18.884 265.676 18.944 265.544 19.028C265.412 19.112 265.316 19.214 265.256 19.334C265.208 19.454 265.184 19.586 265.184 19.73C265.184 20.09 265.322 20.372 265.598 20.576C265.886 20.78 266.24 20.96 266.66 21.116C267.092 21.272 267.554 21.44 268.046 21.62C268.538 21.788 268.994 22.016 269.414 22.304C269.846 22.592 270.2 22.976 270.476 23.456C270.764 23.924 270.908 24.542 270.908 25.31C270.908 26.594 270.548 27.572 269.828 28.244C269.108 28.916 267.968 29.252 266.408 29.252ZM273.286 16.4H276.094V29H273.286V16.4ZM280.631 22.934C279.491 22.934 278.921 22.364 278.921 21.224C278.921 20.084 279.491 19.514 280.631 19.514C281.771 19.514 282.341 20.084 282.341 21.224C282.341 22.364 281.771 22.934 280.631 22.934ZM280.631 29.126C279.491 29.126 278.921 28.556 278.921 27.416C278.921 26.276 279.491 25.706 280.631 25.706C281.771 25.706 282.341 26.276 282.341 27.416C282.341 28.556 281.771 29.126 280.631 29.126Z" fill="#FEFEFE"/>
    <path d="M36.288 29.624H30.88V27.8H38.56V29.016L34.48 39H32.304L36.288 29.624ZM45.0178 27.8H53.3698V39H51.3218V29.624H47.0658V39H45.0178V27.8ZM55.9009 30.456H57.7729L57.8529 31.736C57.9595 31.5333 58.0875 31.3413 58.2369 31.16C58.3969 30.9787 58.5835 30.824 58.7969 30.696C59.0102 30.5573 59.2555 30.4507 59.5329 30.376C59.8209 30.3013 60.1462 30.264 60.5089 30.264C61.0315 30.264 61.4849 30.344 61.8689 30.504C62.2635 30.664 62.5889 30.92 62.8449 31.272C63.1009 31.6133 63.2929 32.0613 63.4209 32.616C63.5489 33.1707 63.6129 33.848 63.6129 34.648C63.6129 36.28 63.3355 37.448 62.7809 38.152C62.2369 38.856 61.4102 39.208 60.3009 39.208C59.9489 39.208 59.6395 39.1653 59.3729 39.08C59.1062 38.9947 58.8715 38.888 58.6689 38.76C58.4769 38.6213 58.3115 38.4667 58.1729 38.296C58.0449 38.1147 57.9382 37.9333 57.8529 37.752V41.88H55.9009V30.456ZM61.5969 34.648C61.5969 34.1467 61.5595 33.7307 61.4849 33.4C61.4102 33.0587 61.2929 32.7867 61.1329 32.584C60.9835 32.3813 60.7915 32.2373 60.5569 32.152C60.3329 32.0667 60.0662 32.024 59.7569 32.024C59.1489 32.024 58.6795 32.2053 58.3489 32.568C58.0182 32.92 57.8529 33.4907 57.8529 34.28V35.176C57.8529 35.9547 58.0182 36.5307 58.3489 36.904C58.6902 37.2667 59.1542 37.448 59.7409 37.448C60.0502 37.448 60.3222 37.4053 60.5569 37.32C60.7915 37.2347 60.9835 37.0853 61.1329 36.872C61.2929 36.648 61.4102 36.36 61.4849 36.008C61.5595 35.6453 61.5969 35.192 61.5969 34.648ZM65.3384 30.456H67.2904V35.048C67.2904 35.1973 67.285 35.3467 67.2744 35.496C67.2744 35.6453 67.269 35.7787 67.2584 35.896C67.2477 36.0347 67.2424 36.168 67.2424 36.296H67.3064C67.3597 36.168 67.4184 36.0347 67.4824 35.896C67.5357 35.7787 67.605 35.6453 67.6904 35.496C67.7757 35.336 67.8664 35.176 67.9624 35.016L70.6344 30.456H72.5704V39H70.6184V34.472C70.6184 34.3013 70.6184 34.136 70.6184 33.976C70.6184 33.816 70.6237 33.6773 70.6344 33.56C70.645 33.4213 70.6557 33.288 70.6664 33.16H70.6024C70.5384 33.288 70.4744 33.4213 70.4104 33.56C70.357 33.6773 70.2877 33.816 70.2024 33.976C70.1277 34.1253 70.0424 34.28 69.9464 34.44L67.2744 39H65.3384V30.456ZM74.7759 30.456H76.7279V33.72H77.6239L79.6879 30.456H81.8799L79.1599 34.52L82.1679 39H79.8959L77.6239 35.432H76.7279V39H74.7759V30.456ZM83.0719 37.112C83.1679 37.1547 83.2799 37.176 83.4079 37.176C83.5999 37.176 83.7652 37.112 83.9039 36.984C84.0425 36.8453 84.1599 36.5787 84.2559 36.184C84.3519 35.7893 84.4265 35.2293 84.4799 34.504C84.5332 33.7787 84.5705 32.8187 84.5919 31.624L84.6079 30.456H90.7679V39H88.8159V32.28H86.4159L86.3999 32.728C86.3679 33.976 86.2932 35.016 86.1759 35.848C86.0692 36.6693 85.9092 37.3307 85.6959 37.832C85.4932 38.3333 85.2319 38.6907 84.9119 38.904C84.6025 39.1067 84.2345 39.208 83.8079 39.208C83.6585 39.208 83.5199 39.1973 83.3919 39.176C83.2639 39.1653 83.1572 39.144 83.0719 39.112V37.112ZM95.043 39.208C94.211 39.208 93.5763 38.9893 93.139 38.552C92.7123 38.1147 92.499 37.4747 92.499 36.632C92.499 36.184 92.5577 35.7947 92.675 35.464C92.7923 35.1333 92.9843 34.8613 93.251 34.648C93.5177 34.424 93.8643 34.2587 94.291 34.152C94.7177 34.0347 95.2403 33.976 95.859 33.976H97.459V33.4C97.459 32.8987 97.3363 32.5467 97.091 32.344C96.8457 32.1307 96.3923 32.024 95.731 32.024C95.2297 32.024 94.7497 32.088 94.291 32.216C93.843 32.344 93.4803 32.4987 93.203 32.68V30.76C93.523 30.6213 93.9337 30.504 94.435 30.408C94.9363 30.312 95.475 30.264 96.051 30.264C96.6697 30.264 97.1923 30.3173 97.619 30.424C98.0563 30.5307 98.403 30.7067 98.659 30.952C98.9257 31.1973 99.1177 31.5173 99.235 31.912C99.3523 32.3067 99.411 32.792 99.411 33.368V39H97.651L97.571 37.64C97.411 38.0667 97.123 38.4347 96.707 38.744C96.291 39.0533 95.7363 39.208 95.043 39.208ZM95.747 37.544C96.2803 37.544 96.6963 37.3893 96.995 37.08C97.3043 36.76 97.459 36.296 97.459 35.688V35.224H96.083C95.4857 35.224 95.075 35.3253 94.851 35.528C94.627 35.72 94.515 36.0293 94.515 36.456C94.515 36.8187 94.611 37.0907 94.803 37.272C94.995 37.4533 95.3097 37.544 95.747 37.544ZM100.838 37.24H101.734C102.043 36.568 102.251 35.656 102.358 34.504C102.475 33.3413 102.534 31.992 102.534 30.456H108.374V37.24H109.477V41.08H107.734V39H102.582V41.08H100.838V37.24ZM106.422 37.24V32.216H104.294C104.294 33.1013 104.246 33.976 104.15 34.84C104.054 35.704 103.883 36.504 103.638 37.24H106.422ZM111.057 30.456H113.009V33.768H116.177V30.456H118.129V39H116.177V35.528H113.009V39H111.057V30.456ZM123.794 39.208C122.493 39.208 121.512 38.856 120.85 38.152C120.189 37.4373 119.858 36.296 119.858 34.728C119.858 33.2027 120.2 32.0773 120.882 31.352C121.565 30.6267 122.536 30.264 123.794 30.264C125.128 30.264 126.114 30.6107 126.754 31.304C127.405 31.9867 127.73 33.128 127.73 34.728C127.73 36.296 127.394 37.4373 126.722 38.152C126.061 38.856 125.085 39.208 123.794 39.208ZM123.794 37.448C124.114 37.448 124.392 37.4053 124.626 37.32C124.872 37.224 125.074 37.0747 125.234 36.872C125.394 36.6587 125.512 36.376 125.586 36.024C125.672 35.672 125.714 35.24 125.714 34.728C125.714 34.216 125.672 33.7893 125.586 33.448C125.512 33.096 125.394 32.8187 125.234 32.616C125.074 32.4027 124.872 32.2533 124.626 32.168C124.392 32.072 124.114 32.024 123.794 32.024C123.165 32.024 122.685 32.2267 122.354 32.632C122.034 33.0267 121.874 33.7253 121.874 34.728C121.874 35.24 121.912 35.672 121.986 36.024C122.072 36.376 122.194 36.6587 122.354 36.872C122.514 37.0747 122.712 37.224 122.946 37.32C123.192 37.4053 123.474 37.448 123.794 37.448ZM129.463 30.456H131.415V35.048C131.415 35.1973 131.41 35.3467 131.399 35.496C131.399 35.6453 131.394 35.7787 131.383 35.896C131.373 36.0347 131.367 36.168 131.367 36.296H131.431C131.485 36.168 131.543 36.0347 131.607 35.896C131.661 35.7787 131.73 35.6453 131.815 35.496C131.901 35.336 131.991 35.176 132.087 35.016L134.759 30.456H136.695V39H134.743V34.472C134.743 34.3013 134.743 34.136 134.743 33.976C134.743 33.816 134.749 33.6773 134.759 33.56C134.77 33.4213 134.781 33.288 134.791 33.16H134.727C134.663 33.288 134.599 33.4213 134.535 33.56C134.482 33.6773 134.413 33.816 134.327 33.976C134.253 34.1253 134.167 34.28 134.071 34.44L131.399 39H129.463V30.456ZM133.079 29.112C132.674 29.112 132.306 29.0747 131.975 29C131.655 28.9147 131.378 28.7813 131.143 28.6C130.909 28.408 130.727 28.1573 130.599 27.848C130.471 27.5387 130.397 27.1547 130.375 26.696H131.943C131.986 27.176 132.093 27.5067 132.263 27.688C132.445 27.8693 132.717 27.96 133.079 27.96C133.442 27.96 133.714 27.8693 133.895 27.688C134.087 27.5067 134.21 27.176 134.263 26.696H135.783C135.762 27.1547 135.682 27.5387 135.543 27.848C135.415 28.1573 135.234 28.408 134.999 28.6C134.775 28.7813 134.498 28.9147 134.167 29C133.847 29.0747 133.485 29.112 133.079 29.112ZM46.992 59.208C46.224 59.208 45.5787 59.096 45.056 58.872C44.5333 58.6373 44.1067 58.2907 43.776 57.832C43.4453 57.3733 43.2053 56.808 43.056 56.136C42.9173 55.464 42.848 54.6853 42.848 53.8C42.848 51.7093 43.248 50.152 44.048 49.128C44.848 48.104 46.0747 47.592 47.728 47.592C48.1867 47.592 48.6187 47.6293 49.024 47.704C49.4293 47.7787 49.792 47.88 50.112 48.008V50.088C49.8667 49.9173 49.5467 49.768 49.152 49.64C48.768 49.5013 48.272 49.432 47.664 49.432C47.2373 49.432 46.8373 49.5013 46.464 49.64C46.1013 49.7787 45.7813 49.9973 45.504 50.296C45.2373 50.5947 45.024 50.9733 44.864 51.432C44.7147 51.88 44.64 52.424 44.64 53.064V53.48C44.928 52.904 45.3067 52.472 45.776 52.184C46.256 51.8853 46.8533 51.736 47.568 51.736C48.6667 51.736 49.4773 52.0453 50 52.664C50.5333 53.272 50.8 54.1253 50.8 55.224C50.8 55.9173 50.7093 56.5147 50.528 57.016C50.3573 57.5067 50.1067 57.9173 49.776 58.248C49.4453 58.5787 49.0453 58.824 48.576 58.984C48.1067 59.1333 47.5787 59.208 46.992 59.208ZM46.928 57.48C47.472 57.48 47.9093 57.3147 48.24 56.984C48.5813 56.6427 48.752 56.104 48.752 55.368C48.752 54.6213 48.6027 54.088 48.304 53.768C48.016 53.448 47.568 53.288 46.96 53.288C46.32 53.288 45.8347 53.464 45.504 53.816C45.184 54.168 44.9973 54.616 44.944 55.16C44.9547 55.832 45.12 56.3867 45.44 56.824C45.7707 57.2613 46.2667 57.48 46.928 57.48ZM57.0178 47.8H65.3698V59H63.3218V49.624H59.0658V59H57.0178V47.8ZM67.9009 50.456H69.7729L69.8529 51.736C69.9595 51.5333 70.0875 51.3413 70.2369 51.16C70.3969 50.9787 70.5835 50.824 70.7969 50.696C71.0102 50.5573 71.2555 50.4507 71.5329 50.376C71.8209 50.3013 72.1462 50.264 72.5089 50.264C73.0315 50.264 73.4849 50.344 73.8689 50.504C74.2635 50.664 74.5889 50.92 74.8449 51.272C75.1009 51.6133 75.2929 52.0613 75.4209 52.616C75.5489 53.1707 75.6129 53.848 75.6129 54.648C75.6129 56.28 75.3355 57.448 74.7809 58.152C74.2369 58.856 73.4102 59.208 72.3009 59.208C71.9489 59.208 71.6395 59.1653 71.3729 59.08C71.1062 58.9947 70.8715 58.888 70.6689 58.76C70.4769 58.6213 70.3115 58.4667 70.1729 58.296C70.0449 58.1147 69.9382 57.9333 69.8529 57.752V61.88H67.9009V50.456ZM73.5969 54.648C73.5969 54.1467 73.5595 53.7307 73.4849 53.4C73.4102 53.0587 73.2929 52.7867 73.1329 52.584C72.9835 52.3813 72.7915 52.2373 72.5569 52.152C72.3329 52.0667 72.0662 52.024 71.7569 52.024C71.1489 52.024 70.6795 52.2053 70.3489 52.568C70.0182 52.92 69.8529 53.4907 69.8529 54.28V55.176C69.8529 55.9547 70.0182 56.5307 70.3489 56.904C70.6902 57.2667 71.1542 57.448 71.7409 57.448C72.0502 57.448 72.3222 57.4053 72.5569 57.32C72.7915 57.2347 72.9835 57.0853 73.1329 56.872C73.2929 56.648 73.4102 56.36 73.4849 56.008C73.5595 55.6453 73.5969 55.192 73.5969 54.648ZM80.9224 59.208C79.4717 59.208 78.4317 58.8347 77.8024 58.088C77.173 57.3413 76.8584 56.184 76.8584 54.616C76.8584 53.144 77.1944 52.0507 77.8664 51.336C78.549 50.6213 79.4984 50.264 80.7144 50.264C82.037 50.264 82.981 50.6107 83.5464 51.304C84.1224 51.9867 84.4104 52.9893 84.4104 54.312V55.24H78.8104C78.8424 56.0507 79.0397 56.6373 79.4024 57C79.7757 57.3627 80.357 57.544 81.1464 57.544C81.6904 57.544 82.213 57.4587 82.7144 57.288C83.2264 57.1067 83.621 56.888 83.8984 56.632V58.44C83.589 58.6427 83.1997 58.824 82.7304 58.984C82.261 59.1333 81.6584 59.208 80.9224 59.208ZM80.7144 51.8C80.1064 51.8 79.6477 51.976 79.3384 52.328C79.029 52.6693 78.853 53.224 78.8104 53.992H82.4584C82.4584 53.2773 82.3357 52.7333 82.0904 52.36C81.845 51.9867 81.3864 51.8 80.7144 51.8ZM85.3219 57.24H86.2179C86.5272 56.568 86.7352 55.656 86.8419 54.504C86.9592 53.3413 87.0179 51.992 87.0179 50.456H92.8579V57.24H93.9619V61.08H92.2179V59H87.0659V61.08H85.3219V57.24ZM90.9059 57.24V52.216H88.7779C88.7779 53.1013 88.7299 53.976 88.6339 54.84C88.5379 55.704 88.3672 56.504 88.1219 57.24H90.9059ZM99.1575 59.208C98.4535 59.208 97.8402 59.128 97.3175 58.968C96.8055 58.7973 96.3788 58.5307 96.0375 58.168C95.7068 57.7947 95.4615 57.32 95.3015 56.744C95.1415 56.168 95.0615 55.4693 95.0615 54.648C95.0615 53.1333 95.4028 52.024 96.0855 51.32C96.7682 50.616 97.7762 50.264 99.1095 50.264C99.4402 50.264 99.7442 50.2853 100.022 50.328C100.299 50.36 100.539 50.4027 100.742 50.456C100.944 50.5093 101.104 50.5627 101.222 50.616C101.35 50.6587 101.43 50.6853 101.462 50.696V52.728C101.206 52.536 100.902 52.3707 100.55 52.232C100.208 52.0933 99.7975 52.024 99.3175 52.024C98.5495 52.024 97.9842 52.2267 97.6215 52.632C97.2588 53.0267 97.0775 53.6987 97.0775 54.648C97.0775 55.6613 97.2695 56.3813 97.6535 56.808C98.0482 57.2347 98.6562 57.448 99.4775 57.448C99.8828 57.448 100.278 57.3787 100.662 57.24C101.046 57.1013 101.344 56.9307 101.558 56.728V58.664C101.526 58.6853 101.446 58.728 101.318 58.792C101.19 58.8453 101.019 58.904 100.806 58.968C100.603 59.032 100.358 59.0853 100.07 59.128C99.7922 59.1813 99.4882 59.208 99.1575 59.208ZM104.989 52.216H102.525V50.456H109.405V52.216H106.941V59H104.989V52.216ZM112.809 59.208C111.977 59.208 111.342 58.9893 110.905 58.552C110.478 58.1147 110.265 57.4747 110.265 56.632C110.265 56.184 110.323 55.7947 110.441 55.464C110.558 55.1333 110.75 54.8613 111.017 54.648C111.283 54.424 111.63 54.2587 112.057 54.152C112.483 54.0347 113.006 53.976 113.625 53.976H115.225V53.4C115.225 52.8987 115.102 52.5467 114.857 52.344C114.611 52.1307 114.158 52.024 113.497 52.024C112.995 52.024 112.515 52.088 112.057 52.216C111.609 52.344 111.246 52.4987 110.969 52.68V50.76C111.289 50.6213 111.699 50.504 112.201 50.408C112.702 50.312 113.241 50.264 113.817 50.264C114.435 50.264 114.958 50.3173 115.385 50.424C115.822 50.5307 116.169 50.7067 116.425 50.952C116.691 51.1973 116.883 51.5173 117.001 51.912C117.118 52.3067 117.177 52.792 117.177 53.368V59H115.417L115.337 57.64C115.177 58.0667 114.889 58.4347 114.473 58.744C114.057 59.0533 113.502 59.208 112.809 59.208ZM113.513 57.544C114.046 57.544 114.462 57.3893 114.761 57.08C115.07 56.76 115.225 56.296 115.225 55.688V55.224H113.849C113.251 55.224 112.841 55.3253 112.617 55.528C112.393 55.72 112.281 56.0293 112.281 56.456C112.281 56.8187 112.377 57.0907 112.569 57.272C112.761 57.4533 113.075 57.544 113.513 57.544ZM122.523 59.096C122.086 59.096 121.675 59.0907 121.291 59.08C120.907 59.08 120.566 59.0693 120.267 59.048C119.915 59.0373 119.595 59.0213 119.307 59V50.424C119.574 50.4133 119.878 50.4027 120.219 50.392C120.507 50.3813 120.843 50.376 121.227 50.376C121.611 50.3653 122.027 50.36 122.475 50.36C123.136 50.36 123.686 50.4133 124.123 50.52C124.56 50.616 124.912 50.7653 125.179 50.968C125.446 51.16 125.632 51.4053 125.739 51.704C125.846 52.0027 125.899 52.344 125.899 52.728C125.899 53.176 125.782 53.544 125.547 53.832C125.323 54.12 124.992 54.3387 124.555 54.488C125.099 54.5733 125.51 54.7867 125.787 55.128C126.075 55.4693 126.219 55.928 126.219 56.504C126.219 56.92 126.155 57.2933 126.027 57.624C125.91 57.944 125.707 58.216 125.419 58.44C125.131 58.6533 124.747 58.8187 124.267 58.936C123.798 59.0427 123.216 59.096 122.523 59.096ZM124.203 56.376C124.203 55.9707 124.096 55.6827 123.883 55.512C123.67 55.3413 123.254 55.256 122.635 55.256H121.259V57.432C121.259 57.4427 121.296 57.4533 121.371 57.464C121.456 57.464 121.563 57.4693 121.691 57.48C121.819 57.48 121.958 57.4853 122.107 57.496C122.267 57.496 122.422 57.496 122.571 57.496C122.902 57.496 123.174 57.4747 123.387 57.432C123.6 57.3893 123.766 57.3253 123.883 57.24C124 57.1547 124.08 57.0427 124.123 56.904C124.176 56.7547 124.203 56.5787 124.203 56.376ZM123.979 52.968C123.979 52.616 123.878 52.36 123.675 52.2C123.472 52.04 123.072 51.96 122.475 51.96C122.315 51.96 122.16 51.9653 122.011 51.976C121.872 51.976 121.744 51.9813 121.627 51.992C121.499 52.0027 121.376 52.008 121.259 52.008V53.992H122.635C123.147 53.992 123.499 53.9067 123.691 53.736C123.883 53.5653 123.979 53.3093 123.979 52.968ZM127.244 57.112C127.34 57.1547 127.452 57.176 127.58 57.176C127.772 57.176 127.937 57.112 128.076 56.984C128.214 56.8453 128.332 56.5787 128.428 56.184C128.524 55.7893 128.598 55.2293 128.652 54.504C128.705 53.7787 128.742 52.8187 128.764 51.624L128.78 50.456H134.94V59H132.988V52.28H130.588L130.572 52.728C130.54 53.976 130.465 55.016 130.348 55.848C130.241 56.6693 130.081 57.3307 129.868 57.832C129.665 58.3333 129.404 58.6907 129.084 58.904C128.774 59.1067 128.406 59.208 127.98 59.208C127.83 59.208 127.692 59.1973 127.564 59.176C127.436 59.1653 127.329 59.144 127.244 59.112V57.112ZM140.735 59.208C139.284 59.208 138.244 58.8347 137.615 58.088C136.986 57.3413 136.671 56.184 136.671 54.616C136.671 53.144 137.007 52.0507 137.679 51.336C138.362 50.6213 139.311 50.264 140.527 50.264C141.85 50.264 142.794 50.6107 143.359 51.304C143.935 51.9867 144.223 52.9893 144.223 54.312V55.24H138.623C138.655 56.0507 138.852 56.6373 139.215 57C139.588 57.3627 140.17 57.544 140.959 57.544C141.503 57.544 142.026 57.4587 142.527 57.288C143.039 57.1067 143.434 56.888 143.711 56.632V58.44C143.402 58.6427 143.012 58.824 142.543 58.984C142.074 59.1333 141.471 59.208 140.735 59.208ZM140.527 51.8C139.919 51.8 139.46 51.976 139.151 52.328C138.842 52.6693 138.666 53.224 138.623 53.992H142.271C142.271 53.2773 142.148 52.7333 141.903 52.36C141.658 51.9867 141.199 51.8 140.527 51.8ZM145.948 50.456H147.9V53.768H151.068V50.456H153.02V59H151.068V55.528H147.9V59H145.948V50.456ZM155.229 50.456H157.181V55.048C157.181 55.1973 157.176 55.3467 157.165 55.496C157.165 55.6453 157.16 55.7787 157.149 55.896C157.138 56.0347 157.133 56.168 157.133 56.296H157.197C157.25 56.168 157.309 56.0347 157.373 55.896C157.426 55.7787 157.496 55.6453 157.581 55.496C157.666 55.336 157.757 55.176 157.853 55.016L160.525 50.456H162.461V59H160.509V54.472C160.509 54.3013 160.509 54.136 160.509 53.976C160.509 53.816 160.514 53.6773 160.525 53.56C160.536 53.4213 160.546 53.288 160.557 53.16H160.493C160.429 53.288 160.365 53.4213 160.301 53.56C160.248 53.6773 160.178 53.816 160.093 53.976C160.018 54.1253 159.933 54.28 159.837 54.44L157.165 59H155.229V50.456ZM165.914 56.024C165.424 55.8107 165.067 55.4907 164.843 55.064C164.619 54.6267 164.507 54.072 164.507 53.4C164.507 52.8773 164.576 52.4293 164.715 52.056C164.864 51.672 165.093 51.3573 165.403 51.112C165.723 50.856 166.128 50.6693 166.619 50.552C167.12 50.424 167.728 50.36 168.443 50.36C168.784 50.36 169.125 50.3653 169.467 50.376C169.808 50.3867 170.112 50.4027 170.379 50.424C170.688 50.4453 170.981 50.4667 171.259 50.488V59H169.307V56.36H167.899H167.739L166.331 59H164.187L165.914 56.024ZM166.523 53.4C166.523 53.8693 166.635 54.2053 166.859 54.408C167.083 54.6 167.504 54.696 168.123 54.696H169.307V52.168C169.168 52.168 169.035 52.1627 168.907 52.152C168.789 52.1413 168.661 52.136 168.523 52.136C168.384 52.1253 168.251 52.12 168.123 52.12C167.504 52.12 167.083 52.2213 166.859 52.424C166.635 52.6267 166.523 52.952 166.523 53.4ZM55.776 67.8H62.048V69.624H57.312L57.136 72.008C57.328 71.976 57.584 71.9547 57.904 71.944C58.224 71.9227 58.5493 71.912 58.88 71.912C59.5307 71.912 60.0853 71.9867 60.544 72.136C61.0027 72.2853 61.376 72.5093 61.664 72.808C61.952 73.096 62.16 73.4533 62.288 73.88C62.416 74.296 62.48 74.776 62.48 75.32C62.48 75.9173 62.4107 76.456 62.272 76.936C62.1333 77.416 61.8987 77.8267 61.568 78.168C61.2373 78.4987 60.8 78.7547 60.256 78.936C59.712 79.1173 59.0347 79.208 58.224 79.208C57.744 79.208 57.2373 79.16 56.704 79.064C56.1813 78.968 55.7067 78.8293 55.28 78.648V76.552C55.5893 76.776 56.0053 76.968 56.528 77.128C57.0507 77.288 57.584 77.368 58.128 77.368C58.96 77.368 59.5467 77.2027 59.888 76.872C60.2293 76.5307 60.4 76.024 60.4 75.352C60.4 75.032 60.3627 74.76 60.288 74.536C60.2133 74.3013 60.0853 74.1093 59.904 73.96C59.7227 73.8107 59.4773 73.704 59.168 73.64C58.8693 73.5653 58.4907 73.528 58.032 73.528C57.552 73.528 57.0667 73.5547 56.576 73.608C56.0853 73.6507 55.6907 73.6987 55.392 73.752L55.776 67.8ZM73.3858 79.208C72.5218 79.208 71.7698 79.1013 71.1298 78.888C70.5004 78.6747 69.9724 78.3333 69.5458 77.864C69.1298 77.3947 68.8204 76.7867 68.6178 76.04C68.4151 75.2933 68.3138 74.3867 68.3138 73.32C68.3138 71.304 68.7351 69.848 69.5778 68.952C70.4204 68.0453 71.6791 67.592 73.3538 67.592C73.7378 67.592 74.0951 67.6187 74.4258 67.672C74.7671 67.7253 75.0604 67.784 75.3058 67.848C75.5938 67.9227 75.8604 68.008 76.1058 68.104V70.168C75.7964 69.9867 75.4231 69.832 74.9858 69.704C74.5591 69.5653 74.0364 69.496 73.4178 69.496C72.9164 69.496 72.4791 69.5653 72.1058 69.704C71.7324 69.832 71.4178 70.0507 71.1618 70.36C70.9164 70.6587 70.7298 71.0533 70.6018 71.544C70.4844 72.024 70.4258 72.616 70.4258 73.32C70.4258 74.056 70.4898 74.68 70.6178 75.192C70.7458 75.704 70.9324 76.1147 71.1778 76.424C71.4338 76.7333 71.7484 76.9573 72.1218 77.096C72.4951 77.2347 72.9324 77.304 73.4338 77.304C74.0631 77.304 74.6071 77.2187 75.0658 77.048C75.5351 76.8773 75.8978 76.7013 76.1538 76.52V78.584C75.9191 78.7013 75.6631 78.808 75.3858 78.904C75.1404 78.9893 74.8471 79.0587 74.5058 79.112C74.1644 79.176 73.7911 79.208 73.3858 79.208ZM81.3911 79.208C79.9405 79.208 78.9005 78.8347 78.2711 78.088C77.6418 77.3413 77.3271 76.184 77.3271 74.616C77.3271 73.144 77.6631 72.0507 78.3351 71.336C79.0178 70.6213 79.9671 70.264 81.1831 70.264C82.5058 70.264 83.4498 70.6107 84.0151 71.304C84.5911 71.9867 84.8791 72.9893 84.8791 74.312V75.24H79.2791C79.3111 76.0507 79.5085 76.6373 79.8711 77C80.2445 77.3627 80.8258 77.544 81.6151 77.544C82.1591 77.544 82.6818 77.4587 83.1831 77.288C83.6951 77.1067 84.0898 76.888 84.3671 76.632V78.44C84.0578 78.6427 83.6685 78.824 83.1991 78.984C82.7298 79.1333 82.1271 79.208 81.3911 79.208ZM81.1831 71.8C80.5751 71.8 80.1165 71.976 79.8071 72.328C79.4978 72.6693 79.3218 73.224 79.2791 73.992H82.9271C82.9271 73.2773 82.8045 72.7333 82.5591 72.36C82.3138 71.9867 81.8551 71.8 81.1831 71.8ZM88.6055 79.208C87.7735 79.208 87.1388 78.9893 86.7015 78.552C86.2748 78.1147 86.0615 77.4747 86.0615 76.632C86.0615 76.184 86.1202 75.7947 86.2375 75.464C86.3548 75.1333 86.5468 74.8613 86.8135 74.648C87.0802 74.424 87.4268 74.2587 87.8535 74.152C88.2802 74.0347 88.8028 73.976 89.4215 73.976H91.0215V73.4C91.0215 72.8987 90.8988 72.5467 90.6535 72.344C90.4082 72.1307 89.9548 72.024 89.2935 72.024C88.7922 72.024 88.3122 72.088 87.8535 72.216C87.4055 72.344 87.0428 72.4987 86.7655 72.68V70.76C87.0855 70.6213 87.4962 70.504 87.9975 70.408C88.4988 70.312 89.0375 70.264 89.6135 70.264C90.2322 70.264 90.7548 70.3173 91.1815 70.424C91.6188 70.5307 91.9655 70.7067 92.2215 70.952C92.4882 71.1973 92.6802 71.5173 92.7975 71.912C92.9148 72.3067 92.9735 72.792 92.9735 73.368V79H91.2135L91.1335 77.64C90.9735 78.0667 90.6855 78.4347 90.2695 78.744C89.8535 79.0533 89.2988 79.208 88.6055 79.208ZM89.3095 77.544C89.8428 77.544 90.2588 77.3893 90.5575 77.08C90.8668 76.76 91.0215 76.296 91.0215 75.688V75.224H89.6455C89.0482 75.224 88.6375 75.3253 88.4135 75.528C88.1895 75.72 88.0775 76.0293 88.0775 76.456C88.0775 76.8187 88.1735 77.0907 88.3655 77.272C88.5575 77.4533 88.8722 77.544 89.3095 77.544ZM95.104 70.456H97.056V73.768H100.224V70.456H102.176V79H100.224V75.528H97.056V79H95.104V70.456ZM108.001 79.208C107.297 79.208 106.684 79.128 106.161 78.968C105.649 78.7973 105.223 78.5307 104.881 78.168C104.551 77.7947 104.305 77.32 104.145 76.744C103.985 76.168 103.905 75.4693 103.905 74.648C103.905 73.1333 104.247 72.024 104.929 71.32C105.612 70.616 106.62 70.264 107.953 70.264C108.284 70.264 108.588 70.2853 108.865 70.328C109.143 70.36 109.383 70.4027 109.585 70.456C109.788 70.5093 109.948 70.5627 110.065 70.616C110.193 70.6587 110.273 70.6853 110.305 70.696V72.728C110.049 72.536 109.745 72.3707 109.393 72.232C109.052 72.0933 108.641 72.024 108.161 72.024C107.393 72.024 106.828 72.2267 106.465 72.632C106.103 73.0267 105.921 73.6987 105.921 74.648C105.921 75.6613 106.113 76.3813 106.497 76.808C106.892 77.2347 107.5 77.448 108.321 77.448C108.727 77.448 109.121 77.3787 109.505 77.24C109.889 77.1013 110.188 76.9307 110.401 76.728V78.664C110.369 78.6853 110.289 78.728 110.161 78.792C110.033 78.8453 109.863 78.904 109.649 78.968C109.447 79.032 109.201 79.0853 108.913 79.128C108.636 79.1813 108.332 79.208 108.001 79.208ZM115.31 79.208C114.009 79.208 113.027 78.856 112.366 78.152C111.705 77.4373 111.374 76.296 111.374 74.728C111.374 73.2027 111.715 72.0773 112.398 71.352C113.081 70.6267 114.051 70.264 115.31 70.264C116.643 70.264 117.63 70.6107 118.27 71.304C118.921 71.9867 119.246 73.128 119.246 74.728C119.246 76.296 118.91 77.4373 118.238 78.152C117.577 78.856 116.601 79.208 115.31 79.208ZM115.31 77.448C115.63 77.448 115.907 77.4053 116.142 77.32C116.387 77.224 116.59 77.0747 116.75 76.872C116.91 76.6587 117.027 76.376 117.102 76.024C117.187 75.672 117.23 75.24 117.23 74.728C117.23 74.216 117.187 73.7893 117.102 73.448C117.027 73.096 116.91 72.8187 116.75 72.616C116.59 72.4027 116.387 72.2533 116.142 72.168C115.907 72.072 115.63 72.024 115.31 72.024C114.681 72.024 114.201 72.2267 113.87 72.632C113.55 73.0267 113.39 73.7253 113.39 74.728C113.39 75.24 113.427 75.672 113.502 76.024C113.587 76.376 113.71 76.6587 113.87 76.872C114.03 77.0747 114.227 77.224 114.462 77.32C114.707 77.4053 114.99 77.448 115.31 77.448ZM124.195 79.096C123.758 79.096 123.347 79.0907 122.963 79.08C122.579 79.08 122.238 79.0693 121.939 79.048C121.587 79.0373 121.267 79.0213 120.979 79V70.424C121.246 70.4133 121.55 70.4027 121.891 70.392C122.179 70.3813 122.515 70.376 122.899 70.376C123.283 70.3653 123.699 70.36 124.147 70.36C124.808 70.36 125.358 70.4133 125.795 70.52C126.232 70.616 126.584 70.7653 126.851 70.968C127.118 71.16 127.304 71.4053 127.411 71.704C127.518 72.0027 127.571 72.344 127.571 72.728C127.571 73.176 127.454 73.544 127.219 73.832C126.995 74.12 126.664 74.3387 126.227 74.488C126.771 74.5733 127.182 74.7867 127.459 75.128C127.747 75.4693 127.891 75.928 127.891 76.504C127.891 76.92 127.827 77.2933 127.699 77.624C127.582 77.944 127.379 78.216 127.091 78.44C126.803 78.6533 126.419 78.8187 125.939 78.936C125.47 79.0427 124.888 79.096 124.195 79.096ZM125.875 76.376C125.875 75.9707 125.768 75.6827 125.555 75.512C125.342 75.3413 124.926 75.256 124.307 75.256H122.931V77.432C122.931 77.4427 122.968 77.4533 123.043 77.464C123.128 77.464 123.235 77.4693 123.363 77.48C123.491 77.48 123.63 77.4853 123.779 77.496C123.939 77.496 124.094 77.496 124.243 77.496C124.574 77.496 124.846 77.4747 125.059 77.432C125.272 77.3893 125.438 77.3253 125.555 77.24C125.672 77.1547 125.752 77.0427 125.795 76.904C125.848 76.7547 125.875 76.5787 125.875 76.376ZM125.651 72.968C125.651 72.616 125.55 72.36 125.347 72.2C125.144 72.04 124.744 71.96 124.147 71.96C123.987 71.96 123.832 71.9653 123.683 71.976C123.544 71.976 123.416 71.9813 123.299 71.992C123.171 72.0027 123.048 72.008 122.931 72.008V73.992H124.307C124.819 73.992 125.171 73.9067 125.363 73.736C125.555 73.5653 125.651 73.3093 125.651 72.968ZM132.34 79.096C132.02 79.096 131.694 79.0907 131.364 79.08C131.044 79.0693 130.756 79.0533 130.5 79.032C130.19 79.0107 129.897 78.9893 129.62 78.968V70.456H131.572V73.032C131.689 73.0213 131.812 73.0107 131.94 73C132.057 72.9893 132.185 72.984 132.324 72.984C132.473 72.9733 132.628 72.968 132.788 72.968C133.972 72.968 134.814 73.208 135.316 73.688C135.817 74.168 136.068 74.9413 136.068 76.008C136.068 76.5307 135.998 76.9893 135.86 77.384C135.732 77.768 135.518 78.088 135.22 78.344C134.921 78.6 134.537 78.792 134.068 78.92C133.598 79.0373 133.022 79.096 132.34 79.096ZM134.052 76.008C134.052 75.5387 133.945 75.208 133.732 75.016C133.529 74.824 133.14 74.728 132.564 74.728C132.436 74.728 132.308 74.7333 132.18 74.744C132.062 74.744 131.961 74.7493 131.876 74.76C131.758 74.7707 131.657 74.7813 131.572 74.792V77.288C131.657 77.2987 131.758 77.3093 131.876 77.32C131.961 77.3307 132.062 77.336 132.18 77.336C132.308 77.336 132.436 77.336 132.564 77.336C133.129 77.336 133.518 77.24 133.732 77.048C133.945 76.8453 134.052 76.4987 134.052 76.008ZM137.14 70.456H139.092V79H137.14V70.456ZM141.307 70.456H143.259V75.048C143.259 75.1973 143.254 75.3467 143.243 75.496C143.243 75.6453 143.238 75.7787 143.227 75.896C143.216 76.0347 143.211 76.168 143.211 76.296H143.275C143.328 76.168 143.387 76.0347 143.451 75.896C143.504 75.7787 143.574 75.6453 143.659 75.496C143.744 75.336 143.835 75.176 143.931 75.016L146.603 70.456H148.539V79H146.587V74.472C146.587 74.3013 146.587 74.136 146.587 73.976C146.587 73.816 146.592 73.6773 146.603 73.56C146.614 73.4213 146.624 73.288 146.635 73.16H146.571C146.507 73.288 146.443 73.4213 146.379 73.56C146.326 73.6773 146.256 73.816 146.171 73.976C146.096 74.1253 146.011 74.28 145.915 74.44L143.243 79H141.307V70.456ZM144.923 69.112C144.518 69.112 144.15 69.0747 143.819 69C143.499 68.9147 143.222 68.7813 142.987 68.6C142.752 68.408 142.571 68.1573 142.443 67.848C142.315 67.5387 142.24 67.1547 142.219 66.696H143.787C143.83 67.176 143.936 67.5067 144.107 67.688C144.288 67.8693 144.56 67.96 144.923 67.96C145.286 67.96 145.558 67.8693 145.739 67.688C145.931 67.5067 146.054 67.176 146.107 66.696H147.627C147.606 67.1547 147.526 67.5387 147.387 67.848C147.259 68.1573 147.078 68.408 146.843 68.6C146.619 68.7813 146.342 68.9147 146.011 69C145.691 69.0747 145.328 69.112 144.923 69.112ZM71.472 96.328H66.528V95.128L70.976 87.8H73.504V94.504H74.832V96.328H73.504V99H71.472V96.328ZM71.456 94.504L71.472 89.944L68.784 94.504H71.456ZM83.2098 89.624H80.0738V87.8H88.3938V89.624H85.2578V99H83.2098V89.624ZM89.5728 90.456H91.4448L91.5248 91.736C91.6314 91.5333 91.7594 91.3413 91.9088 91.16C92.0688 90.9787 92.2554 90.824 92.4688 90.696C92.6821 90.5573 92.9274 90.4507 93.2048 90.376C93.4928 90.3013 93.8181 90.264 94.1808 90.264C94.7034 90.264 95.1568 90.344 95.5408 90.504C95.9354 90.664 96.2608 90.92 96.5168 91.272C96.7728 91.6133 96.9648 92.0613 97.0928 92.616C97.2208 93.1707 97.2847 93.848 97.2847 94.648C97.2847 96.28 97.0074 97.448 96.4528 98.152C95.9088 98.856 95.0821 99.208 93.9728 99.208C93.6208 99.208 93.3114 99.1653 93.0448 99.08C92.7781 98.9947 92.5434 98.888 92.3408 98.76C92.1488 98.6213 91.9834 98.4667 91.8448 98.296C91.7168 98.1147 91.6101 97.9333 91.5248 97.752V101.88H89.5728V90.456ZM95.2688 94.648C95.2688 94.1467 95.2314 93.7307 95.1568 93.4C95.0821 93.0587 94.9648 92.7867 94.8048 92.584C94.6554 92.3813 94.4634 92.2373 94.2288 92.152C94.0048 92.0667 93.7381 92.024 93.4288 92.024C92.8208 92.024 92.3514 92.2053 92.0208 92.568C91.6901 92.92 91.5248 93.4907 91.5248 94.28V95.176C91.5248 95.9547 91.6901 96.5307 92.0208 96.904C92.3621 97.2667 92.8261 97.448 93.4128 97.448C93.7221 97.448 93.9941 97.4053 94.2288 97.32C94.4634 97.2347 94.6554 97.0853 94.8048 96.872C94.9648 96.648 95.0821 96.36 95.1568 96.008C95.2314 95.6453 95.2688 95.192 95.2688 94.648ZM101.074 99.208C100.242 99.208 99.6076 98.9893 99.1703 98.552C98.7436 98.1147 98.5303 97.4747 98.5303 96.632C98.5303 96.184 98.5889 95.7947 98.7063 95.464C98.8236 95.1333 99.0156 94.8613 99.2823 94.648C99.5489 94.424 99.8956 94.2587 100.322 94.152C100.749 94.0347 101.272 93.976 101.89 93.976H103.49V93.4C103.49 92.8987 103.368 92.5467 103.122 92.344C102.877 92.1307 102.424 92.024 101.762 92.024C101.261 92.024 100.781 92.088 100.322 92.216C99.8743 92.344 99.5116 92.4987 99.2343 92.68V90.76C99.5543 90.6213 99.9649 90.504 100.466 90.408C100.968 90.312 101.506 90.264 102.082 90.264C102.701 90.264 103.224 90.3173 103.65 90.424C104.088 90.5307 104.434 90.7067 104.69 90.952C104.957 91.1973 105.149 91.5173 105.266 91.912C105.384 92.3067 105.442 92.792 105.442 93.368V99H103.682L103.602 97.64C103.442 98.0667 103.154 98.4347 102.738 98.744C102.322 99.0533 101.768 99.208 101.074 99.208ZM101.778 97.544C102.312 97.544 102.728 97.3893 103.026 97.08C103.336 96.76 103.49 96.296 103.49 95.688V95.224H102.114C101.517 95.224 101.106 95.3253 100.882 95.528C100.658 95.72 100.546 96.0293 100.546 96.456C100.546 96.8187 100.642 97.0907 100.834 97.272C101.026 97.4533 101.341 97.544 101.778 97.544ZM107.573 90.456H109.525V93.768H112.693V90.456H114.645V99H112.693V95.528H109.525V99H107.573V90.456ZM120.47 99.208C119.766 99.208 119.153 99.128 118.63 98.968C118.118 98.7973 117.691 98.5307 117.35 98.168C117.019 97.7947 116.774 97.32 116.614 96.744C116.454 96.168 116.374 95.4693 116.374 94.648C116.374 93.1333 116.715 92.024 117.398 91.32C118.081 90.616 119.089 90.264 120.422 90.264C120.753 90.264 121.057 90.2853 121.334 90.328C121.611 90.36 121.851 90.4027 122.054 90.456C122.257 90.5093 122.417 90.5627 122.534 90.616C122.662 90.6587 122.742 90.6853 122.774 90.696V92.728C122.518 92.536 122.214 92.3707 121.862 92.232C121.521 92.0933 121.11 92.024 120.63 92.024C119.862 92.024 119.297 92.2267 118.934 92.632C118.571 93.0267 118.39 93.6987 118.39 94.648C118.39 95.6613 118.582 96.3813 118.966 96.808C119.361 97.2347 119.969 97.448 120.79 97.448C121.195 97.448 121.59 97.3787 121.974 97.24C122.358 97.1013 122.657 96.9307 122.87 96.728V98.664C122.838 98.6853 122.758 98.728 122.63 98.792C122.502 98.8453 122.331 98.904 122.118 98.968C121.915 99.032 121.67 99.0853 121.382 99.128C121.105 99.1813 120.801 99.208 120.47 99.208ZM124.448 90.456H131.36V99H129.408V92.216H126.4V99H124.448V90.456ZM137.029 99.208C135.727 99.208 134.746 98.856 134.085 98.152C133.423 97.4373 133.093 96.296 133.093 94.728C133.093 93.2027 133.434 92.0773 134.117 91.352C134.799 90.6267 135.77 90.264 137.029 90.264C138.362 90.264 139.349 90.6107 139.989 91.304C140.639 91.9867 140.965 93.128 140.965 94.728C140.965 96.296 140.629 97.4373 139.957 98.152C139.295 98.856 138.319 99.208 137.029 99.208ZM137.029 97.448C137.349 97.448 137.626 97.4053 137.861 97.32C138.106 97.224 138.309 97.0747 138.469 96.872C138.629 96.6587 138.746 96.376 138.821 96.024C138.906 95.672 138.949 95.24 138.949 94.728C138.949 94.216 138.906 93.7893 138.821 93.448C138.746 93.096 138.629 92.8187 138.469 92.616C138.309 92.4027 138.106 92.2533 137.861 92.168C137.626 92.072 137.349 92.024 137.029 92.024C136.399 92.024 135.919 92.2267 135.589 92.632C135.269 93.0267 135.109 93.7253 135.109 94.728C135.109 95.24 135.146 95.672 135.221 96.024C135.306 96.376 135.429 96.6587 135.589 96.872C135.749 97.0747 135.946 97.224 136.181 97.32C136.426 97.4053 136.709 97.448 137.029 97.448ZM142.698 90.456H144.57L144.65 91.736C144.756 91.5333 144.884 91.3413 145.034 91.16C145.194 90.9787 145.38 90.824 145.594 90.696C145.807 90.5573 146.052 90.4507 146.33 90.376C146.618 90.3013 146.943 90.264 147.306 90.264C147.828 90.264 148.282 90.344 148.666 90.504C149.06 90.664 149.386 90.92 149.642 91.272C149.898 91.6133 150.09 92.0613 150.218 92.616C150.346 93.1707 150.41 93.848 150.41 94.648C150.41 96.28 150.132 97.448 149.578 98.152C149.034 98.856 148.207 99.208 147.098 99.208C146.746 99.208 146.436 99.1653 146.17 99.08C145.903 98.9947 145.668 98.888 145.466 98.76C145.274 98.6213 145.108 98.4667 144.97 98.296C144.842 98.1147 144.735 97.9333 144.65 97.752V101.88H142.698V90.456ZM148.394 94.648C148.394 94.1467 148.356 93.7307 148.282 93.4C148.207 93.0587 148.09 92.7867 147.93 92.584C147.78 92.3813 147.588 92.2373 147.354 92.152C147.13 92.0667 146.863 92.024 146.554 92.024C145.946 92.024 145.476 92.2053 145.146 92.568C144.815 92.92 144.65 93.4907 144.65 94.28V95.176C144.65 95.9547 144.815 96.5307 145.146 96.904C145.487 97.2667 145.951 97.448 146.538 97.448C146.847 97.448 147.119 97.4053 147.354 97.32C147.588 97.2347 147.78 97.0853 147.93 96.872C148.09 96.648 148.207 96.36 148.282 96.008C148.356 95.6453 148.394 95.192 148.394 94.648ZM153.895 92.216H151.431V90.456H158.311V92.216H155.847V99H153.895V92.216ZM159.823 90.456H161.775V93.768H164.943V90.456H166.895V99H164.943V95.528H161.775V99H159.823V90.456ZM171.824 99.096C171.504 99.096 171.179 99.0907 170.848 99.08C170.528 99.0693 170.24 99.0533 169.984 99.032C169.675 99.0107 169.381 98.9893 169.104 98.968V90.456H171.056V93.032C171.173 93.0213 171.296 93.0107 171.424 93C171.541 92.9893 171.669 92.984 171.808 92.984C171.957 92.9733 172.112 92.968 172.272 92.968C173.456 92.968 174.299 93.208 174.8 93.688C175.301 94.168 175.552 94.9413 175.552 96.008C175.552 96.5307 175.483 96.9893 175.344 97.384C175.216 97.768 175.003 98.088 174.704 98.344C174.405 98.6 174.021 98.792 173.552 98.92C173.083 99.0373 172.507 99.096 171.824 99.096ZM173.536 96.008C173.536 95.5387 173.429 95.208 173.216 95.016C173.013 94.824 172.624 94.728 172.048 94.728C171.92 94.728 171.792 94.7333 171.664 94.744C171.547 94.744 171.445 94.7493 171.36 94.76C171.243 94.7707 171.141 94.7813 171.056 94.792V97.288C171.141 97.2987 171.243 97.3093 171.36 97.32C171.445 97.3307 171.547 97.336 171.664 97.336C171.792 97.336 171.92 97.336 172.048 97.336C172.613 97.336 173.003 97.24 173.216 97.048C173.429 96.8453 173.536 96.4987 173.536 96.008ZM176.624 90.456H178.576V99H176.624V90.456ZM180.792 90.456H182.744V95.048C182.744 95.1973 182.738 95.3467 182.728 95.496C182.728 95.6453 182.722 95.7787 182.712 95.896C182.701 96.0347 182.696 96.168 182.696 96.296H182.76C182.813 96.168 182.872 96.0347 182.936 95.896C182.989 95.7787 183.058 95.6453 183.144 95.496C183.229 95.336 183.32 95.176 183.416 95.016L186.088 90.456H188.024V99H186.072V94.472C186.072 94.3013 186.072 94.136 186.072 93.976C186.072 93.816 186.077 93.6773 186.088 93.56C186.098 93.4213 186.109 93.288 186.12 93.16H186.056C185.992 93.288 185.928 93.4213 185.864 93.56C185.81 93.6773 185.741 93.816 185.656 93.976C185.581 94.1253 185.496 94.28 185.4 94.44L182.728 99H180.792V90.456ZM184.408 89.112C184.002 89.112 183.634 89.0747 183.304 89C182.984 88.9147 182.706 88.7813 182.472 88.6C182.237 88.408 182.056 88.1573 181.928 87.848C181.8 87.5387 181.725 87.1547 181.704 86.696H183.272C183.314 87.176 183.421 87.5067 183.592 87.688C183.773 87.8693 184.045 87.96 184.408 87.96C184.77 87.96 185.042 87.8693 185.224 87.688C185.416 87.5067 185.538 87.176 185.592 86.696H187.112C187.09 87.1547 187.01 87.5387 186.872 87.848C186.744 88.1573 186.562 88.408 186.328 88.6C186.104 88.7813 185.826 88.9147 185.496 89C185.176 89.0747 184.813 89.112 184.408 89.112ZM80.992 112.472H82.08C82.816 112.472 83.3333 112.339 83.632 112.072C83.9413 111.805 84.096 111.4 84.096 110.856C84.096 110.397 83.9573 110.056 83.68 109.832C83.4133 109.597 82.9067 109.48 82.16 109.48C81.5627 109.48 81.008 109.571 80.496 109.752C79.984 109.933 79.5467 110.147 79.184 110.392V108.312C79.632 108.12 80.1707 107.96 80.8 107.832C81.4293 107.693 82.048 107.624 82.656 107.624C83.3493 107.624 83.9253 107.688 84.384 107.816C84.8427 107.944 85.2053 108.131 85.472 108.376C85.7493 108.621 85.9413 108.92 86.048 109.272C86.1653 109.624 86.224 110.024 86.224 110.472C86.224 111.891 85.5307 112.792 84.144 113.176C84.9867 113.283 85.6 113.56 85.984 114.008C86.368 114.456 86.56 115.064 86.56 115.832C86.56 116.365 86.4853 116.84 86.336 117.256C86.1867 117.661 85.9467 118.008 85.616 118.296C85.2853 118.584 84.8587 118.803 84.336 118.952C83.8133 119.101 83.184 119.176 82.448 119.176C81.808 119.176 81.184 119.112 80.576 118.984C79.968 118.856 79.456 118.685 79.04 118.472V116.264C79.4133 116.541 79.872 116.787 80.416 117C80.9707 117.203 81.5627 117.304 82.192 117.304C82.6507 117.304 83.024 117.267 83.312 117.192C83.6107 117.117 83.84 117.011 84 116.872C84.1707 116.723 84.2827 116.547 84.336 116.344C84.4 116.131 84.432 115.896 84.432 115.64C84.432 115.405 84.3947 115.197 84.32 115.016C84.256 114.824 84.1387 114.664 83.968 114.536C83.7973 114.408 83.568 114.312 83.28 114.248C83.0027 114.184 82.6507 114.152 82.224 114.152H80.992V112.472ZM97.3858 119.208C96.5218 119.208 95.7698 119.101 95.1298 118.888C94.5004 118.675 93.9724 118.333 93.5458 117.864C93.1298 117.395 92.8204 116.787 92.6178 116.04C92.4151 115.293 92.3138 114.387 92.3138 113.32C92.3138 111.304 92.7351 109.848 93.5778 108.952C94.4204 108.045 95.6791 107.592 97.3538 107.592C97.7378 107.592 98.0951 107.619 98.4258 107.672C98.7671 107.725 99.0604 107.784 99.3058 107.848C99.5938 107.923 99.8604 108.008 100.106 108.104V110.168C99.7964 109.987 99.4231 109.832 98.9858 109.704C98.5591 109.565 98.0364 109.496 97.4178 109.496C96.9164 109.496 96.4791 109.565 96.1058 109.704C95.7324 109.832 95.4178 110.051 95.1618 110.36C94.9164 110.659 94.7298 111.053 94.6018 111.544C94.4844 112.024 94.4258 112.616 94.4258 113.32C94.4258 114.056 94.4898 114.68 94.6178 115.192C94.7458 115.704 94.9324 116.115 95.1778 116.424C95.4338 116.733 95.7484 116.957 96.1218 117.096C96.4951 117.235 96.9324 117.304 97.4338 117.304C98.0631 117.304 98.6071 117.219 99.0658 117.048C99.5351 116.877 99.8978 116.701 100.154 116.52V118.584C99.9191 118.701 99.6631 118.808 99.3858 118.904C99.1404 118.989 98.8471 119.059 98.5058 119.112C98.1644 119.176 97.7911 119.208 97.3858 119.208ZM105.391 119.208C103.94 119.208 102.9 118.835 102.271 118.088C101.642 117.341 101.327 116.184 101.327 114.616C101.327 113.144 101.663 112.051 102.335 111.336C103.018 110.621 103.967 110.264 105.183 110.264C106.506 110.264 107.45 110.611 108.015 111.304C108.591 111.987 108.879 112.989 108.879 114.312V115.24H103.279C103.311 116.051 103.508 116.637 103.871 117C104.244 117.363 104.826 117.544 105.615 117.544C106.159 117.544 106.682 117.459 107.183 117.288C107.695 117.107 108.09 116.888 108.367 116.632V118.44C108.058 118.643 107.668 118.824 107.199 118.984C106.73 119.133 106.127 119.208 105.391 119.208ZM105.183 111.8C104.575 111.8 104.116 111.976 103.807 112.328C103.498 112.669 103.322 113.224 103.279 113.992H106.927C106.927 113.277 106.804 112.733 106.559 112.36C106.314 111.987 105.855 111.8 105.183 111.8ZM112.364 112.216H109.9V110.456H116.78V112.216H114.316V119H112.364V112.216ZM121.876 119.208C120.425 119.208 119.385 118.835 118.756 118.088C118.126 117.341 117.812 116.184 117.812 114.616C117.812 113.144 118.148 112.051 118.82 111.336C119.502 110.621 120.452 110.264 121.668 110.264C122.99 110.264 123.934 110.611 124.5 111.304C125.076 111.987 125.364 112.989 125.364 114.312V115.24H119.764C119.796 116.051 119.993 116.637 120.356 117C120.729 117.363 121.31 117.544 122.1 117.544C122.644 117.544 123.166 117.459 123.668 117.288C124.18 117.107 124.574 116.888 124.852 116.632V118.44C124.542 118.643 124.153 118.824 123.684 118.984C123.214 119.133 122.612 119.208 121.876 119.208ZM121.668 111.8C121.06 111.8 120.601 111.976 120.292 112.328C119.982 112.669 119.806 113.224 119.764 113.992H123.412C123.412 113.277 123.289 112.733 123.044 112.36C122.798 111.987 122.34 111.8 121.668 111.8ZM130.304 119.096C129.867 119.096 129.456 119.091 129.072 119.08C128.688 119.08 128.347 119.069 128.048 119.048C127.696 119.037 127.376 119.021 127.088 119V110.424C127.355 110.413 127.659 110.403 128 110.392C128.288 110.381 128.624 110.376 129.008 110.376C129.392 110.365 129.808 110.36 130.256 110.36C130.918 110.36 131.467 110.413 131.904 110.52C132.342 110.616 132.694 110.765 132.96 110.968C133.227 111.16 133.414 111.405 133.52 111.704C133.627 112.003 133.68 112.344 133.68 112.728C133.68 113.176 133.563 113.544 133.328 113.832C133.104 114.12 132.774 114.339 132.336 114.488C132.88 114.573 133.291 114.787 133.568 115.128C133.856 115.469 134 115.928 134 116.504C134 116.92 133.936 117.293 133.808 117.624C133.691 117.944 133.488 118.216 133.2 118.44C132.912 118.653 132.528 118.819 132.048 118.936C131.579 119.043 130.998 119.096 130.304 119.096ZM131.984 116.376C131.984 115.971 131.878 115.683 131.664 115.512C131.451 115.341 131.035 115.256 130.416 115.256H129.04V117.432C129.04 117.443 129.078 117.453 129.152 117.464C129.238 117.464 129.344 117.469 129.472 117.48C129.6 117.48 129.739 117.485 129.888 117.496C130.048 117.496 130.203 117.496 130.352 117.496C130.683 117.496 130.955 117.475 131.168 117.432C131.382 117.389 131.547 117.325 131.664 117.24C131.782 117.155 131.862 117.043 131.904 116.904C131.958 116.755 131.984 116.579 131.984 116.376ZM131.76 112.968C131.76 112.616 131.659 112.36 131.456 112.2C131.254 112.04 130.854 111.96 130.256 111.96C130.096 111.96 129.942 111.965 129.792 111.976C129.654 111.976 129.526 111.981 129.408 111.992C129.28 112.003 129.158 112.008 129.04 112.008V113.992H130.416C130.928 113.992 131.28 113.907 131.472 113.736C131.664 113.565 131.76 113.309 131.76 112.968ZM139.185 119.208C137.884 119.208 136.902 118.856 136.241 118.152C135.58 117.437 135.249 116.296 135.249 114.728C135.249 113.203 135.59 112.077 136.273 111.352C136.956 110.627 137.926 110.264 139.185 110.264C140.518 110.264 141.505 110.611 142.145 111.304C142.796 111.987 143.121 113.128 143.121 114.728C143.121 116.296 142.785 117.437 142.113 118.152C141.452 118.856 140.476 119.208 139.185 119.208ZM139.185 117.448C139.505 117.448 139.782 117.405 140.017 117.32C140.262 117.224 140.465 117.075 140.625 116.872C140.785 116.659 140.902 116.376 140.977 116.024C141.062 115.672 141.105 115.24 141.105 114.728C141.105 114.216 141.062 113.789 140.977 113.448C140.902 113.096 140.785 112.819 140.625 112.616C140.465 112.403 140.262 112.253 140.017 112.168C139.782 112.072 139.505 112.024 139.185 112.024C138.556 112.024 138.076 112.227 137.745 112.632C137.425 113.027 137.265 113.725 137.265 114.728C137.265 115.24 137.302 115.672 137.377 116.024C137.462 116.376 137.585 116.659 137.745 116.872C137.905 117.075 138.102 117.224 138.337 117.32C138.582 117.405 138.865 117.448 139.185 117.448ZM144.854 110.456H146.806V115.048C146.806 115.197 146.801 115.347 146.79 115.496C146.79 115.645 146.785 115.779 146.774 115.896C146.763 116.035 146.758 116.168 146.758 116.296H146.822C146.875 116.168 146.934 116.035 146.998 115.896C147.051 115.779 147.121 115.645 147.206 115.496C147.291 115.336 147.382 115.176 147.478 115.016L150.15 110.456H152.086V119H150.134V114.472C150.134 114.301 150.134 114.136 150.134 113.976C150.134 113.816 150.139 113.677 150.15 113.56C150.161 113.421 150.171 113.288 150.182 113.16H150.118C150.054 113.288 149.99 113.421 149.926 113.56C149.873 113.677 149.803 113.816 149.718 113.976C149.643 114.125 149.558 114.28 149.462 114.44L146.79 119H144.854V110.456ZM148.47 109.112C148.065 109.112 147.697 109.075 147.366 109C147.046 108.915 146.769 108.781 146.534 108.6C146.299 108.408 146.118 108.157 145.99 107.848C145.862 107.539 145.787 107.155 145.766 106.696H147.334C147.377 107.176 147.483 107.507 147.654 107.688C147.835 107.869 148.107 107.96 148.47 107.96C148.833 107.96 149.105 107.869 149.286 107.688C149.478 107.507 149.601 107.176 149.654 106.696H151.174C151.153 107.155 151.073 107.539 150.934 107.848C150.806 108.157 150.625 108.408 150.39 108.6C150.166 108.781 149.889 108.915 149.558 109C149.238 109.075 148.875 109.112 148.47 109.112ZM91.072 137.64C91.7973 136.947 92.4693 136.333 93.088 135.8C93.7173 135.256 94.2613 134.749 94.72 134.28C95.1893 133.811 95.552 133.352 95.808 132.904C96.0747 132.456 96.208 131.971 96.208 131.448C96.208 130.776 96.0427 130.285 95.712 129.976C95.392 129.656 94.8853 129.496 94.192 129.496C93.6267 129.496 93.0933 129.603 92.592 129.816C92.0907 130.019 91.6533 130.285 91.28 130.616V128.328C91.696 128.115 92.1867 127.939 92.752 127.8C93.3173 127.661 93.92 127.592 94.56 127.592C95.264 127.592 95.8507 127.672 96.32 127.832C96.8 127.992 97.1893 128.221 97.488 128.52C97.7867 128.808 98 129.16 98.128 129.576C98.256 129.981 98.32 130.435 98.32 130.936C98.32 131.565 98.2187 132.131 98.016 132.632C97.824 133.133 97.536 133.624 97.152 134.104C96.7787 134.584 96.32 135.069 95.776 135.56C95.2427 136.051 94.64 136.589 93.968 137.176H98.368V139H91.072V137.64ZM108.058 134.216H107.066V139H105.018V127.8H107.066V132.376H108.058L111.05 127.8H113.434L109.754 133.256L113.754 139H111.29L108.058 134.216ZM117.184 139.208C116.352 139.208 115.717 138.989 115.28 138.552C114.853 138.115 114.64 137.475 114.64 136.632C114.64 136.184 114.698 135.795 114.816 135.464C114.933 135.133 115.125 134.861 115.392 134.648C115.658 134.424 116.005 134.259 116.432 134.152C116.858 134.035 117.381 133.976 118 133.976H119.6V133.4C119.6 132.899 119.477 132.547 119.232 132.344C118.986 132.131 118.533 132.024 117.872 132.024C117.37 132.024 116.89 132.088 116.432 132.216C115.984 132.344 115.621 132.499 115.344 132.68V130.76C115.664 130.621 116.074 130.504 116.576 130.408C117.077 130.312 117.616 130.264 118.192 130.264C118.81 130.264 119.333 130.317 119.76 130.424C120.197 130.531 120.544 130.707 120.8 130.952C121.066 131.197 121.258 131.517 121.376 131.912C121.493 132.307 121.552 132.792 121.552 133.368V139H119.792L119.712 137.64C119.552 138.067 119.264 138.435 118.848 138.744C118.432 139.053 117.877 139.208 117.184 139.208ZM117.888 137.544C118.421 137.544 118.837 137.389 119.136 137.08C119.445 136.76 119.6 136.296 119.6 135.688V135.224H118.224C117.626 135.224 117.216 135.325 116.992 135.528C116.768 135.72 116.656 136.029 116.656 136.456C116.656 136.819 116.752 137.091 116.944 137.272C117.136 137.453 117.45 137.544 117.888 137.544ZM123.682 130.456H125.634V133.768H128.802V130.456H130.754V139H128.802V135.528H125.634V139H123.682V130.456ZM135.027 139.208C134.195 139.208 133.561 138.989 133.123 138.552C132.697 138.115 132.483 137.475 132.483 136.632C132.483 136.184 132.542 135.795 132.659 135.464C132.777 135.133 132.969 134.861 133.235 134.648C133.502 134.424 133.849 134.259 134.275 134.152C134.702 134.035 135.225 133.976 135.843 133.976H137.443V133.4C137.443 132.899 137.321 132.547 137.075 132.344C136.83 132.131 136.377 132.024 135.715 132.024C135.214 132.024 134.734 132.088 134.275 132.216C133.827 132.344 133.465 132.499 133.187 132.68V130.76C133.507 130.621 133.918 130.504 134.419 130.408C134.921 130.312 135.459 130.264 136.035 130.264C136.654 130.264 137.177 130.317 137.603 130.424C138.041 130.531 138.387 130.707 138.643 130.952C138.91 131.197 139.102 131.517 139.219 131.912C139.337 132.307 139.395 132.792 139.395 133.368V139H137.635L137.555 137.64C137.395 138.067 137.107 138.435 136.691 138.744C136.275 139.053 135.721 139.208 135.027 139.208ZM135.731 137.544C136.265 137.544 136.681 137.389 136.979 137.08C137.289 136.76 137.443 136.296 137.443 135.688V135.224H136.067C135.47 135.224 135.059 135.325 134.835 135.528C134.611 135.72 134.499 136.029 134.499 136.456C134.499 136.819 134.595 137.091 134.787 137.272C134.979 137.453 135.294 137.544 135.731 137.544ZM140.822 137.112C140.918 137.155 141.03 137.176 141.158 137.176C141.35 137.176 141.515 137.112 141.654 136.984C141.793 136.845 141.91 136.579 142.006 136.184C142.102 135.789 142.177 135.229 142.23 134.504C142.283 133.779 142.321 132.819 142.342 131.624L142.358 130.456H148.518V139H146.566V132.28H144.166L144.15 132.728C144.118 133.976 144.043 135.016 143.926 135.848C143.819 136.669 143.659 137.331 143.446 137.832C143.243 138.333 142.982 138.691 142.662 138.904C142.353 139.107 141.985 139.208 141.558 139.208C141.409 139.208 141.27 139.197 141.142 139.176C141.014 139.165 140.907 139.144 140.822 139.112V137.112ZM153.561 139.096C153.241 139.096 152.91 139.091 152.569 139.08C152.238 139.069 151.934 139.053 151.657 139.032C151.337 139.011 151.028 138.989 150.729 138.968V130.456H152.681V133.032C152.809 133.021 152.948 133.011 153.097 133C153.225 132.989 153.369 132.984 153.529 132.984C153.689 132.973 153.849 132.968 154.009 132.968C154.628 132.968 155.15 133.027 155.577 133.144C156.014 133.261 156.366 133.443 156.633 133.688C156.9 133.933 157.092 134.248 157.209 134.632C157.326 135.016 157.385 135.475 157.385 136.008C157.385 136.531 157.316 136.989 157.177 137.384C157.049 137.768 156.836 138.088 156.537 138.344C156.238 138.6 155.844 138.792 155.353 138.92C154.862 139.037 154.265 139.096 153.561 139.096ZM155.385 136.008C155.385 135.549 155.273 135.224 155.049 135.032C154.836 134.829 154.414 134.728 153.785 134.728C153.646 134.728 153.513 134.733 153.385 134.744C153.257 134.744 153.14 134.749 153.033 134.76C152.916 134.771 152.798 134.781 152.681 134.792V137.288C152.798 137.299 152.916 137.309 153.033 137.32C153.14 137.331 153.257 137.336 153.385 137.336C153.513 137.336 153.646 137.336 153.785 137.336C154.404 137.336 154.825 137.24 155.049 137.048C155.273 136.845 155.385 136.499 155.385 136.008ZM159.042 130.456H160.994V133.768H164.162V130.456H166.114V139H164.162V135.528H160.994V139H159.042V130.456ZM171.043 139.096C170.723 139.096 170.397 139.091 170.067 139.08C169.747 139.069 169.459 139.053 169.203 139.032C168.893 139.011 168.6 138.989 168.323 138.968V130.456H170.275V133.032C170.392 133.021 170.515 133.011 170.643 133C170.76 132.989 170.888 132.984 171.027 132.984C171.176 132.973 171.331 132.968 171.491 132.968C172.675 132.968 173.517 133.208 174.019 133.688C174.52 134.168 174.771 134.941 174.771 136.008C174.771 136.531 174.701 136.989 174.563 137.384C174.435 137.768 174.221 138.088 173.923 138.344C173.624 138.6 173.24 138.792 172.771 138.92C172.301 139.037 171.725 139.096 171.043 139.096ZM172.755 136.008C172.755 135.539 172.648 135.208 172.435 135.016C172.232 134.824 171.843 134.728 171.267 134.728C171.139 134.728 171.011 134.733 170.883 134.744C170.765 134.744 170.664 134.749 170.579 134.76C170.461 134.771 170.36 134.781 170.275 134.792V137.288C170.36 137.299 170.461 137.309 170.579 137.32C170.664 137.331 170.765 137.336 170.883 137.336C171.011 137.336 171.139 137.336 171.267 137.336C171.832 137.336 172.221 137.24 172.435 137.048C172.648 136.845 172.755 136.499 172.755 136.008ZM175.843 130.456H177.795V139H175.843V130.456ZM180.01 130.456H181.962V135.048C181.962 135.197 181.957 135.347 181.946 135.496C181.946 135.645 181.941 135.779 181.93 135.896C181.92 136.035 181.914 136.168 181.914 136.296H181.978C182.032 136.168 182.09 136.035 182.154 135.896C182.208 135.779 182.277 135.645 182.362 135.496C182.448 135.336 182.538 135.176 182.634 135.016L185.306 130.456H187.242V139H185.29V134.472C185.29 134.301 185.29 134.136 185.29 133.976C185.29 133.816 185.296 133.677 185.306 133.56C185.317 133.421 185.328 133.288 185.338 133.16H185.274C185.21 133.288 185.146 133.421 185.082 133.56C185.029 133.677 184.96 133.816 184.874 133.976C184.8 134.125 184.714 134.28 184.618 134.44L181.946 139H180.01V130.456ZM183.626 129.112C183.221 129.112 182.853 129.075 182.522 129C182.202 128.915 181.925 128.781 181.69 128.6C181.456 128.408 181.274 128.157 181.146 127.848C181.018 127.539 180.944 127.155 180.922 126.696H182.49C182.533 127.176 182.64 127.507 182.81 127.688C182.992 127.869 183.264 127.96 183.626 127.96C183.989 127.96 184.261 127.869 184.442 127.688C184.634 127.507 184.757 127.176 184.81 126.696H186.33C186.309 127.155 186.229 127.539 186.09 127.848C185.962 128.157 185.781 128.408 185.546 128.6C185.322 128.781 185.045 128.915 184.714 129C184.394 129.075 184.032 129.112 183.626 129.112ZM107.664 157.288H110.576V150.088L107.664 151.992V150.088L111.184 147.8H112.608V157.288H114.736V159H107.664V157.288ZM125.21 158.04H124.922C123.3 158.04 122.111 157.667 121.354 156.92C120.607 156.163 120.234 154.963 120.234 153.32C120.234 151.677 120.607 150.483 121.354 149.736C122.1 148.979 123.29 148.6 124.922 148.6H125.21V147.48H127.258V148.6H127.546C128.378 148.6 129.087 148.691 129.674 148.872C130.271 149.043 130.756 149.32 131.13 149.704C131.514 150.077 131.791 150.563 131.962 151.16C132.143 151.757 132.234 152.477 132.234 153.32C132.234 154.963 131.855 156.163 131.098 156.92C130.351 157.667 129.167 158.04 127.546 158.04H127.258V159.32H125.21V158.04ZM122.346 153.32C122.346 153.896 122.388 154.376 122.474 154.76C122.57 155.144 122.719 155.453 122.922 155.688C123.135 155.923 123.407 156.088 123.738 156.184C124.079 156.28 124.495 156.328 124.986 156.328H125.274V150.312H124.986C124.495 150.312 124.079 150.36 123.738 150.456C123.407 150.552 123.135 150.717 122.922 150.952C122.719 151.176 122.57 151.48 122.474 151.864C122.388 152.248 122.346 152.733 122.346 153.32ZM130.122 153.32C130.122 152.733 130.074 152.248 129.978 151.864C129.892 151.48 129.743 151.176 129.53 150.952C129.327 150.717 129.055 150.552 128.714 150.456C128.383 150.36 127.972 150.312 127.482 150.312H127.194V156.328H127.482C127.972 156.328 128.383 156.28 128.714 156.184C129.055 156.088 129.327 155.923 129.53 155.688C129.743 155.453 129.892 155.144 129.978 154.76C130.074 154.376 130.122 153.896 130.122 153.32ZM133.979 150.456H135.931V155.048C135.931 155.197 135.926 155.347 135.915 155.496C135.915 155.645 135.91 155.779 135.899 155.896C135.888 156.035 135.883 156.168 135.883 156.296H135.947C136 156.168 136.059 156.035 136.123 155.896C136.176 155.779 136.246 155.645 136.331 155.496C136.416 155.336 136.507 155.176 136.603 155.016L139.275 150.456H141.211V159H139.259V154.472C139.259 154.301 139.259 154.136 139.259 153.976C139.259 153.816 139.264 153.677 139.275 153.56C139.286 153.421 139.296 153.288 139.307 153.16H139.243C139.179 153.288 139.115 153.421 139.051 153.56C138.998 153.677 138.928 153.816 138.843 153.976C138.768 154.125 138.683 154.28 138.587 154.44L135.915 159H133.979V150.456ZM145.753 159.208C145.23 159.208 144.702 159.155 144.169 159.048C143.646 158.941 143.214 158.792 142.873 158.6V156.632C143.193 156.877 143.587 157.091 144.057 157.272C144.537 157.453 145.049 157.544 145.593 157.544C146.233 157.544 146.675 157.448 146.921 157.256C147.166 157.053 147.289 156.771 147.289 156.408C147.289 156.227 147.262 156.072 147.209 155.944C147.166 155.805 147.081 155.693 146.953 155.608C146.825 155.512 146.649 155.443 146.424 155.4C146.211 155.357 145.934 155.336 145.593 155.336H144.441V153.96H145.593C146.105 153.96 146.462 153.875 146.665 153.704C146.867 153.523 146.969 153.261 146.969 152.92C146.969 152.579 146.867 152.328 146.665 152.168C146.462 151.997 146.067 151.912 145.481 151.912C145.043 151.912 144.611 151.987 144.185 152.136C143.758 152.275 143.358 152.477 142.985 152.744V150.776C143.774 150.435 144.734 150.264 145.865 150.264C146.451 150.264 146.942 150.312 147.337 150.408C147.742 150.504 148.062 150.648 148.297 150.84C148.542 151.032 148.713 151.277 148.809 151.576C148.915 151.875 148.969 152.232 148.969 152.648C148.969 153.075 148.841 153.464 148.585 153.816C148.339 154.168 147.993 154.403 147.545 154.52C148.153 154.637 148.595 154.872 148.873 155.224C149.15 155.565 149.289 156.051 149.289 156.68C149.289 157.064 149.219 157.411 149.081 157.72C148.953 158.029 148.745 158.296 148.457 158.52C148.179 158.733 147.817 158.899 147.369 159.016C146.921 159.144 146.382 159.208 145.753 159.208ZM151.01 150.456H152.962V155.048C152.962 155.197 152.957 155.347 152.946 155.496C152.946 155.645 152.941 155.779 152.93 155.896C152.92 156.035 152.914 156.168 152.914 156.296H152.978C153.032 156.168 153.09 156.035 153.154 155.896C153.208 155.779 153.277 155.645 153.362 155.496C153.448 155.336 153.538 155.176 153.634 155.016L156.306 150.456H158.242V159H156.29V154.472C156.29 154.301 156.29 154.136 156.29 153.976C156.29 153.816 156.296 153.677 156.306 153.56C156.317 153.421 156.328 153.288 156.338 153.16H156.274C156.21 153.288 156.146 153.421 156.082 153.56C156.029 153.677 155.96 153.816 155.874 153.976C155.8 154.125 155.714 154.28 155.618 154.44L152.946 159H151.01V150.456ZM164.768 155.912C164.597 155.987 164.416 156.045 164.224 156.088C164.053 156.141 163.85 156.184 163.616 156.216C163.381 156.248 163.125 156.264 162.848 156.264C160.992 156.264 160.064 155.352 160.064 153.528V150.456H162V153.096C162 153.619 162.101 153.987 162.304 154.2C162.517 154.413 162.864 154.52 163.344 154.52C163.568 154.52 163.765 154.509 163.936 154.488C164.117 154.456 164.266 154.419 164.384 154.376C164.522 154.333 164.65 154.285 164.768 154.232V150.456H166.72V159H164.768V155.912ZM172.516 159.208C171.065 159.208 170.025 158.835 169.396 158.088C168.767 157.341 168.452 156.184 168.452 154.616C168.452 153.144 168.788 152.051 169.46 151.336C170.143 150.621 171.092 150.264 172.308 150.264C173.631 150.264 174.575 150.611 175.14 151.304C175.716 151.987 176.004 152.989 176.004 154.312V155.24H170.404C170.436 156.051 170.633 156.637 170.996 157C171.369 157.363 171.951 157.544 172.74 157.544C173.284 157.544 173.807 157.459 174.308 157.288C174.82 157.107 175.215 156.888 175.492 156.632V158.44C175.183 158.643 174.793 158.824 174.324 158.984C173.855 159.133 173.252 159.208 172.516 159.208ZM172.308 151.8C171.7 151.8 171.241 151.976 170.932 152.328C170.623 152.669 170.447 153.224 170.404 153.992H174.052C174.052 153.277 173.929 152.733 173.684 152.36C173.439 151.987 172.98 151.8 172.308 151.8ZM181.345 159.208C180.641 159.208 180.028 159.128 179.505 158.968C178.993 158.797 178.566 158.531 178.225 158.168C177.894 157.795 177.649 157.32 177.489 156.744C177.329 156.168 177.249 155.469 177.249 154.648C177.249 153.133 177.59 152.024 178.273 151.32C178.956 150.616 179.964 150.264 181.297 150.264C181.628 150.264 181.932 150.285 182.209 150.328C182.486 150.36 182.726 150.403 182.929 150.456C183.132 150.509 183.292 150.563 183.409 150.616C183.537 150.659 183.617 150.685 183.649 150.696V152.728C183.393 152.536 183.089 152.371 182.737 152.232C182.396 152.093 181.985 152.024 181.505 152.024C180.737 152.024 180.172 152.227 179.809 152.632C179.446 153.027 179.265 153.699 179.265 154.648C179.265 155.661 179.457 156.381 179.841 156.808C180.236 157.235 180.844 157.448 181.665 157.448C182.07 157.448 182.465 157.379 182.849 157.24C183.233 157.101 183.532 156.931 183.745 156.728V158.664C183.713 158.685 183.633 158.728 183.505 158.792C183.377 158.845 183.206 158.904 182.993 158.968C182.79 159.032 182.545 159.085 182.257 159.128C181.98 159.181 181.676 159.208 181.345 159.208ZM185.323 150.456H187.275V153.72H188.171L190.235 150.456H192.427L189.707 154.52L192.715 159H190.443L188.171 155.432H187.275V159H185.323V150.456ZM194.198 150.456H196.15V155.048C196.15 155.197 196.144 155.347 196.134 155.496C196.134 155.645 196.128 155.779 196.118 155.896C196.107 156.035 196.102 156.168 196.102 156.296H196.166C196.219 156.168 196.278 156.035 196.342 155.896C196.395 155.779 196.464 155.645 196.55 155.496C196.635 155.336 196.726 155.176 196.822 155.016L199.494 150.456H201.43V159H199.478V154.472C199.478 154.301 199.478 154.136 199.478 153.976C199.478 153.816 199.483 153.677 199.494 153.56C199.504 153.421 199.515 153.288 199.526 153.16H199.462C199.398 153.288 199.334 153.421 199.27 153.56C199.216 153.677 199.147 153.816 199.062 153.976C198.987 154.125 198.902 154.28 198.806 154.44L196.134 159H194.198V150.456ZM203.635 150.456H205.587V155.048C205.587 155.197 205.582 155.347 205.571 155.496C205.571 155.645 205.566 155.779 205.555 155.896C205.545 156.035 205.539 156.168 205.539 156.296H205.603C205.657 156.168 205.715 156.035 205.779 155.896C205.833 155.779 205.902 155.645 205.987 155.496C206.073 155.336 206.163 155.176 206.259 155.016L208.931 150.456H210.867V159H208.915V154.472C208.915 154.301 208.915 154.136 208.915 153.976C208.915 153.816 208.921 153.677 208.931 153.56C208.942 153.421 208.953 153.288 208.963 153.16H208.899C208.835 153.288 208.771 153.421 208.707 153.56C208.654 153.677 208.585 153.816 208.499 153.976C208.425 154.125 208.339 154.28 208.243 154.44L205.571 159H203.635V150.456ZM207.251 149.112C206.846 149.112 206.478 149.075 206.147 149C205.827 148.915 205.55 148.781 205.315 148.6C205.081 148.408 204.899 148.157 204.771 147.848C204.643 147.539 204.569 147.155 204.547 146.696H206.115C206.158 147.176 206.265 147.507 206.435 147.688C206.617 147.869 206.889 147.96 207.251 147.96C207.614 147.96 207.886 147.869 208.067 147.688C208.259 147.507 208.382 147.176 208.435 146.696H209.955C209.934 147.155 209.854 147.539 209.715 147.848C209.587 148.157 209.406 148.408 209.171 148.6C208.947 148.781 208.67 148.915 208.339 149C208.019 149.075 207.657 149.112 207.251 149.112Z" fill="#FEFEFE"/>
</svg>
