<svg width="180" height="300" viewBox="0 0 180 300" fill="none" xmlns="http://www.w3.org/2000/svg">
    <g opacity="0.5">
        <path fill-rule="evenodd" clip-rule="evenodd" d="M67.149 136.018C69.3981 135.862 71.6976 136.718 73.5239 137.996C78.1556 141.238 79.1725 146.026 80.0749 151.254C81.0227 148.614 82.176 146.78 84.616 145.267C85.9733 144.426 88.4407 143.159 90.0319 143.663C90.5776 143.836 90.9785 144.137 91.2593 144.638C92.488 146.829 91.0773 150.726 90.035 153.606C89.7686 154.342 89.5263 155.011 89.3582 155.569C89.9307 155.289 90.5083 155.021 91.091 154.763C92.8258 153.997 97.0825 152.345 98.8873 153.258C99.3471 153.49 99.664 153.797 99.7702 154.319C100.059 155.74 98.8352 157.388 97.9976 158.44C93.6765 163.871 87.2158 166.918 80.4046 167.679C80.3736 168.068 80.3552 168.548 80.3347 169.081C80.246 171.386 80.1193 174.678 78.7764 175.85C78.6983 175.833 78.6409 175.825 78.5968 175.818C78.4609 175.799 78.4508 175.798 78.3457 175.604C77.4274 173.912 78.2566 169.576 78.634 167.683C77.5814 167.651 76.5332 167.565 75.4894 167.427C68.6365 166.458 61.2459 163.825 56.9538 158.099C56.1202 156.987 54.6932 155.02 55.0587 153.568C55.2126 152.956 55.5479 152.563 56.1174 152.29C58.9925 150.918 63.6911 152.696 66.7308 153.846C66.9801 153.94 67.2183 154.03 67.4433 154.114C67.1905 153.773 66.9341 153.433 66.6772 153.092C65.8841 152.039 65.086 150.979 64.3734 149.879C63.8345 149.047 63.162 147.79 63.4965 146.762C63.6973 146.144 64.1296 145.621 64.7489 145.384C66.0582 144.88 67.6984 145.678 68.9818 146.303L68.9818 146.303C69.1809 146.4 69.3714 146.492 69.5508 146.575C67.8506 144.588 65.8418 141.919 65.8295 139.199C65.8235 137.88 66.2113 136.929 67.149 136.018ZM70.7039 154.865L70.6881 154.849C70.6719 154.833 70.6558 154.818 70.6399 154.802C70.5228 154.682 70.3898 154.548 70.2439 154.401C68.5145 152.656 64.9863 149.096 65.0123 147.197C65.0556 147.152 65.091 147.111 65.1229 147.074C65.2428 146.936 65.3138 146.853 65.5675 146.837C66.4418 146.783 67.2417 147.422 67.9298 147.972L67.9298 147.972L67.9298 147.972C68.0408 148.061 68.149 148.147 68.2541 148.228C68.1531 148.232 68.0651 148.232 67.9864 148.232H67.9864H67.9864H67.9863H67.9863H67.9863H67.9862H67.9862C67.609 148.234 67.4447 148.234 67.0828 148.577C66.9329 149.609 67.6999 150.593 68.3569 151.436C68.4615 151.57 68.5633 151.701 68.6581 151.827C68.8109 152.031 68.9666 152.232 69.1218 152.432C69.7184 153.201 70.3085 153.961 70.7039 154.865ZM74.6969 141.153C72.3281 139.269 70.5337 138.102 67.4944 137.533C67.5225 137.772 67.545 138.036 67.5688 138.315V138.315V138.315V138.315V138.315V138.315V138.315C67.665 139.443 67.7807 140.8 68.3642 141.606C68.4632 140.748 69.2427 139.805 69.9522 139.262C70.1589 139.103 70.2409 139.069 70.4166 138.996C70.4455 138.984 70.4769 138.971 70.5118 138.957L70.8944 139.071C71.0765 139.517 71.141 139.788 71.1199 140.27C71.0563 140.348 70.9979 140.417 70.9446 140.479C70.6717 140.799 70.5312 140.964 70.5042 141.49C70.1948 141.83 69.8802 142.164 69.5605 142.493C69.1145 142.438 68.9901 142.345 68.6647 142.102L68.6644 142.102C68.6345 142.079 68.6028 142.056 68.569 142.03L69.5167 143.465L69.5946 143.463L69.5947 143.463C69.6473 143.462 69.6997 143.461 69.7522 143.459C69.8029 143.457 69.8535 143.454 69.9041 143.451L69.9041 143.451L69.9042 143.451L69.9042 143.451C69.9659 143.448 70.0276 143.445 70.0894 143.443C70.8812 143.417 71.5436 143.169 72.263 142.9L72.2631 142.9C72.3462 142.869 72.4301 142.837 72.515 142.806C73.0665 142.452 73.5897 142.034 74.1082 141.619C74.3047 141.462 74.5005 141.305 74.6969 141.153ZM69.8506 143.657C69.8779 143.66 69.9054 143.662 69.933 143.664C69.9879 143.667 70.043 143.671 70.0968 143.682C70.1835 143.7 70.2678 143.729 70.3521 143.757L70.3521 143.757C70.4565 143.793 70.5608 143.828 70.6695 143.843C71.0513 143.895 71.405 144.034 71.7517 144.169C72.1779 144.336 72.5934 144.498 73.037 144.492C73.791 144.154 74.399 143.38 74.9499 142.68L74.9499 142.68C75.0976 142.492 75.2411 142.309 75.3823 142.142C75.8438 142.946 76.2178 143.754 76.5953 144.57C76.7897 144.99 76.9851 145.412 77.1938 145.837L77.1469 145.897C76.5319 146.685 76.0044 147.361 76.1161 148.417C76.3941 148.915 76.5889 149.075 77.0857 149.35L77.4349 149.288C77.6107 148.917 77.6091 148.556 77.6074 148.187C77.6058 147.84 77.6042 147.485 77.751 147.109C78.5134 151 78.9386 154.817 79.1092 158.775C79.1277 159.204 79.1179 159.789 79.1071 160.429C79.0817 161.937 79.0511 163.753 79.3733 164.562L79.695 164.698C80.1691 164.4 80.2872 164.155 80.4312 163.61C80.9768 161.541 80.8603 156.323 80.5724 154.159L80.6106 154.186C80.8454 154.356 81.0824 154.528 81.3423 154.659C81.8864 154.933 82.3708 154.95 82.9363 154.768C83.272 154.338 83.3042 154.124 83.3253 153.584C83.0274 153.275 82.6964 153.231 82.3591 153.185C82.0395 153.142 81.7142 153.098 81.406 152.828L81.5038 152.159C81.721 151.787 81.8892 151.561 82.2284 151.294C82.7868 151.254 83.0703 151.404 83.5436 151.655L83.5488 151.658C83.6653 151.719 83.7719 151.78 83.8729 151.838C84.304 152.084 84.6333 152.272 85.2021 152.224C85.5739 151.847 85.6833 151.66 85.7855 151.139C85.3226 150.468 84.6211 150.509 83.9252 150.55C83.3944 150.582 82.8669 150.613 82.4511 150.327C82.5788 149.806 82.6755 149.309 82.7447 148.777C84.1132 147.561 87.2475 144.923 89.209 145.309C89.7077 145.407 89.9419 145.652 90.1444 146.101C90.7632 147.474 88.3507 154.126 87.5486 155.56C86.9612 156.609 86.2048 157.51 85.4471 158.413L85.4471 158.413C84.5773 159.45 83.7058 160.488 83.0867 161.754C84.1645 161.154 85.1439 160.415 86.1216 159.677C87.4312 158.689 88.7377 157.703 90.2736 157.057C90.4447 157.511 90.3727 157.682 90.1945 158.105L90.1651 158.175C90.1367 158.243 90.1066 158.31 90.0765 158.377L90.0764 158.377L90.0762 158.378C90.06 158.414 90.0438 158.45 90.0279 158.487C90.0648 158.495 90.1013 158.506 90.1378 158.517C90.2103 158.539 90.2827 158.56 90.3576 158.566C90.9774 158.618 91.5609 158.737 92.1454 158.857C92.6632 158.963 93.1816 159.068 93.7265 159.128L93.8582 158.922C93.8604 158.864 93.8661 158.805 93.8717 158.747C93.8908 158.549 93.9098 158.353 93.7961 158.181C93.3515 157.505 92.3855 157.201 91.6318 157.085C91.2797 157.032 91.2198 156.967 91.0522 156.787L91.0521 156.787C91.0115 156.744 90.9645 156.693 90.9056 156.635C91.1619 156.531 91.4256 156.42 91.6949 156.308C93.2137 155.672 94.9112 154.961 96.4827 154.908L96.59 155.069L95.7338 155.551L95.7433 155.775L96.0193 155.865C96.5018 155.595 96.6996 155.36 97.0285 154.97L97.0697 154.921C97.2205 154.741 97.2301 154.738 97.3693 154.686L97.3694 154.686L97.3695 154.686L97.3696 154.686C97.4208 154.667 97.4897 154.642 97.5895 154.599L97.6435 154.623C97.8467 154.713 97.949 154.759 98.0214 154.833C98.0949 154.909 98.1377 155.014 98.2239 155.226L98.2417 155.27C97.809 157.425 93.9218 160.375 92.1345 161.57C85.9792 165.683 80.5803 166.858 73.3047 165.348C67.7316 164.191 61.2434 161.603 58.045 156.594C57.5347 155.794 57.1756 154.966 56.8471 154.08C58.9613 153.358 61.7791 153.19 63.8507 154.22C64.3825 154.484 64.7575 154.843 65.0065 155.386C64.8669 155.791 64.8462 155.825 64.435 156.016C64.2186 156.116 63.9862 156.172 63.7582 156.226C63.3543 156.323 62.964 156.416 62.6994 156.751C62.9538 157.107 63.3371 157.295 63.7209 157.484L63.721 157.484L63.7211 157.484L63.7212 157.484L63.7213 157.484L63.7214 157.484C63.797 157.521 63.8727 157.558 63.9474 157.597C64.3727 157.322 64.7065 156.884 65.04 156.447C65.6689 155.623 66.2969 154.8 67.5363 155.067C69.168 155.419 72.4142 158.549 74.7751 160.826L74.7751 160.826C76.1821 162.182 77.2746 163.236 77.5235 163.217C77.6926 162.584 77.5768 161.989 77.2833 161.409C76.7114 160.28 75.4415 158.982 74.5344 158.076C74.4165 157.942 74.3021 157.806 74.1874 157.669L74.1871 157.669C74.1324 157.604 74.0777 157.539 74.0225 157.474C73.0743 156.356 72.3656 155.07 71.6555 153.781L71.6555 153.781C70.9517 152.504 70.2466 151.224 69.3053 150.102L70.3648 149.858C70.8097 149.444 70.859 149.277 71.0081 148.77L71.0083 148.769L71.0095 148.765L71.0461 148.641C71.7381 149.618 72.7208 150.673 73.7167 151.348L73.941 151.105C74.0965 149.346 72.8233 147.746 71.6027 146.212C70.9632 145.408 70.3381 144.623 69.9405 143.842C69.9187 143.8 69.898 143.756 69.8772 143.713L69.8506 143.657Z" fill="#FEFEFE"/>
        <path fill-rule="evenodd" clip-rule="evenodd" d="M155.277 156.056C157.629 155.847 160.089 156.235 162.323 156.98C167.066 158.561 170.913 161.801 173.149 166.288C173.45 166.901 173.72 167.527 173.958 168.167C174.196 168.807 174.402 169.457 174.575 170.118C174.747 170.779 174.886 171.447 174.992 172.121C175.098 172.796 175.169 173.474 175.207 174.156C176.013 186.779 168.775 213.551 164.005 225.553C162.897 228.341 161.493 231.007 160.048 233.632C158.572 236.311 156.982 239.057 155.18 241.53C154.397 242.605 153.472 243.617 152.543 244.632L152.543 244.632C150.73 246.613 148.906 248.608 148.104 251.108C147.15 254.083 146.36 257.232 145.882 260.317C145.304 264.044 144.57 276.302 146.15 279.416C147.071 280.262 148.675 280.488 150.164 280.698C150.854 280.796 151.519 280.89 152.079 281.04C153.559 281.437 155.737 282.209 156.473 283.634C156.738 284.147 156.831 284.71 156.676 285.266C155.867 285.717 154.603 285.305 153.551 284.963L153.55 284.963C153.242 284.862 152.951 284.768 152.696 284.703C153.473 285.648 154.126 286.639 154.518 287.808C154.721 288.412 154.748 288.796 154.466 289.367C153.838 289.647 153.062 288.977 152.255 288.282C151.615 287.729 150.955 287.161 150.336 287.04L150.122 287.234C150.051 287.806 150.148 288.335 150.247 288.872L150.247 288.873L150.247 288.873L150.247 288.873C150.304 289.178 150.36 289.486 150.386 289.806L150.388 289.82C150.428 290.304 150.447 290.531 150.105 290.91C149.406 290.885 148.928 290.462 148.425 290.018L148.397 289.994C146.31 288.15 143.553 288.394 140.856 288.632C139.917 288.715 138.985 288.797 138.092 288.791C136.853 288.048 135.618 287.348 134.322 286.711C134.464 286.958 134.607 287.148 134.805 287.352C135.253 287.815 135.677 288.264 136.064 288.781C136.61 289.51 137.283 290.49 137.096 291.456C137.09 291.488 137.084 291.519 137.079 291.548C137.016 291.883 137.003 291.949 136.666 292.167C135.93 291.994 135.272 291.432 134.629 290.882C134.247 290.554 133.87 290.232 133.485 289.998C133.077 289.751 132.846 289.687 132.383 289.817C132.226 290.44 132.36 291.134 132.497 291.839C132.615 292.446 132.735 293.063 132.671 293.65L132.631 293.713C132.437 294.026 132.427 294.042 132.034 294.167C131.387 294.009 130.88 293.584 130.37 293.155C129.86 292.728 129.347 292.297 128.688 292.126C127.73 291.878 126.371 291.857 124.948 291.835C122.54 291.799 119.947 291.759 118.794 290.611C118.265 290.084 118.015 289.295 117.9 288.574C117.582 286.57 117.568 284.403 117.554 282.305V282.305V282.304V282.304V282.303V282.303V282.302V282.302V282.301V282.301V282.3C117.55 281.655 117.545 281.017 117.532 280.391C117.475 275.296 117.348 270.202 117.153 265.11C110.34 266.268 103.893 266.928 96.9723 266.524C96.3898 267.962 95.7807 269.208 95.2029 270.389C93.7812 273.297 92.5486 275.817 92.3676 279.863C92.8465 279.862 93.3442 279.85 93.8523 279.837C95.8318 279.789 97.9681 279.737 99.7543 280.307C100.802 280.642 102.282 281.396 102.752 282.456C102.86 282.7 102.814 282.795 102.734 282.964C102.711 283.01 102.686 283.062 102.661 283.125C101.657 283.702 100.526 283.394 99.4515 283.101L99.4513 283.101L99.4511 283.101L99.451 283.101L99.4508 283.101L99.4507 283.101C99.2481 283.046 99.0475 282.991 98.8503 282.944C98.9518 283.06 99.056 283.176 99.161 283.294C99.9757 284.206 100.845 285.178 100.989 286.422C101.044 286.893 101.009 287.108 100.723 287.478C99.8958 287.663 98.3864 286.774 97.1632 286.053C96.6602 285.756 96.2055 285.489 95.8667 285.336C95.9523 285.475 96.0483 285.625 96.1491 285.782C96.6757 286.602 97.3325 287.625 97.3258 288.516C97.3215 289.08 97.1516 289.325 96.7885 289.732C96.267 289.747 95.934 289.471 95.5595 289.161C95.4606 289.079 95.3588 288.995 95.2498 288.913C94.3653 288.248 93.447 287.689 92.3155 287.575C92.2335 287.567 92.1731 287.559 92.1269 287.552C92.0491 287.541 92.0117 287.536 91.9797 287.547C91.95 287.557 91.9249 287.581 91.8765 287.626C91.8566 287.645 91.8327 287.667 91.8029 287.694C91.7862 287.709 91.7676 287.725 91.7468 287.743C91.7714 287.794 91.7958 287.845 91.8201 287.895C91.8803 288.021 91.9405 288.147 92.0045 288.27C92.0483 288.355 92.0929 288.438 92.1371 288.521L92.1392 288.524L92.1395 288.525C92.3029 288.829 92.4613 289.124 92.5573 289.468C92.7912 290.307 92.8504 291.124 92.4356 291.911L91.8657 291.879C90.605 290.654 89.5621 289.79 87.7407 289.508L87.7199 289.505C87.319 289.443 87.3011 289.44 86.9429 289.687C86.8092 290.311 86.9984 290.924 87.1873 291.535C87.3479 292.055 87.5082 292.574 87.4699 293.099C87.4278 293.672 87.3316 293.749 86.9361 294.066L86.8976 294.097C86.4224 294.093 85.6691 293.625 84.885 293.137C84.1952 292.707 83.4816 292.263 82.9125 292.108C81.8573 291.821 80.5037 291.789 79.1054 291.757C76.6625 291.701 74.0831 291.641 72.7193 290.206C71.5112 288.934 71.5546 286.057 71.5864 283.953V283.953V283.952V283.952V283.951C71.5931 283.506 71.5993 283.096 71.593 282.743C71.569 281.869 71.5115 280.727 71.4466 279.439L71.4465 279.438V279.438C71.2077 274.697 70.8691 267.974 71.7349 265.359C72.1383 264.14 72.7576 263.003 73.3814 261.858C73.989 260.743 74.6009 259.619 75.022 258.405C73.9278 258.141 72.8297 257.894 71.7278 257.664C70.6259 257.435 69.5208 257.222 68.4125 257.026C67.3042 256.83 66.193 256.652 65.0789 256.49C63.9651 256.329 62.849 256.184 61.7306 256.057C60.6123 255.93 59.4923 255.82 58.3708 255.727C57.249 255.634 56.126 255.558 55.0018 255.5C53.8779 255.442 52.7533 255.401 51.628 255.378C50.5025 255.354 49.377 255.348 48.2515 255.359C47.126 255.37 46.001 255.398 44.8766 255.444C43.7519 255.489 42.6282 255.552 41.5056 255.633C40.383 255.713 39.2617 255.81 38.1418 255.925C37.0221 256.04 35.9045 256.172 34.7891 256.321C33.6734 256.47 32.5604 256.636 31.45 256.82C30.3393 257.003 29.2318 257.204 28.1275 257.421C27.0232 257.638 25.9225 257.873 24.8253 258.124C23.7282 258.376 22.6351 258.644 21.5462 258.929C21.2133 259.012 20.8801 259.096 20.5469 259.18L20.5315 259.183L20.5177 259.187L20.5091 259.189L20.509 259.189C18.0536 259.805 15.5925 260.422 13.1641 261.13C12.3993 261.354 11.6096 261.619 10.8063 261.889L10.806 261.889C8.73141 262.586 6.56653 263.314 4.50724 263.424C4.15408 263.185 4.04551 263.014 4.00574 262.564C3.90512 261.431 5.15153 260.22 5.89962 259.536C14.6778 251.507 27.1177 246 38.0467 241.569C39.1538 241.12 40.2686 240.68 41.3852 240.239L41.3852 240.239C45.2952 238.696 49.2269 237.143 52.9238 235.177C56.4143 233.321 59.3649 230.866 62.362 228.373L62.3636 228.372L62.3672 228.369L62.3717 228.365L62.3763 228.361C62.8685 227.952 63.3621 227.541 63.8595 227.132C68.5354 223.287 73.7975 219.173 79.2795 216.554C85.5823 213.542 91.8224 211.924 98.7488 211.114C105.778 210.291 113.148 211.773 119.868 213.845C120.421 214.016 120.971 214.191 121.521 214.365L121.521 214.365C124.645 215.358 127.736 216.34 131.064 216.455C135.06 216.593 138.001 215.093 140.841 212.403C147.781 205.828 153.13 191.577 153.368 182.021C149.147 184.503 144.605 185.225 139.777 184.165C136.73 183.496 134.569 181.359 132.967 178.793C132.856 178.615 132.748 178.434 132.646 178.251C132.543 178.067 132.445 177.881 132.352 177.693C132.259 177.505 132.17 177.314 132.086 177.121C132.003 176.929 131.924 176.734 131.85 176.537C131.776 176.34 131.707 176.142 131.642 175.942C131.578 175.742 131.519 175.54 131.465 175.337C131.411 175.134 131.362 174.93 131.318 174.724C131.274 174.519 131.235 174.312 131.202 174.105C131.168 173.897 131.14 173.689 131.117 173.48C131.094 173.271 131.076 173.062 131.063 172.852C131.05 172.642 131.043 172.432 131.04 172.222C131.038 172.012 131.041 171.802 131.049 171.592C131.058 171.382 131.071 171.172 131.09 170.963C131.109 170.753 131.133 170.545 131.162 170.337C131.191 170.128 131.226 169.921 131.265 169.715C131.305 169.508 131.349 169.303 131.399 169.099C131.965 166.765 133.275 164.768 135.355 163.521C137.163 162.437 138.885 162.252 140.896 162.751C144.952 158.576 149.518 156.604 155.277 156.056ZM91.8657 291.879L91.9238 291.936L91.8458 291.878L91.8657 291.879ZM152.31 162.931L152.43 162.928C152.825 162.919 153.231 162.909 153.62 162.957C154.501 163.067 155.39 163.726 155.902 164.423C155.977 164.527 156.047 164.635 156.111 164.746C156.176 164.857 156.234 164.971 156.286 165.089C156.337 165.206 156.383 165.326 156.422 165.448C156.461 165.571 156.494 165.695 156.52 165.821C156.546 165.946 156.565 166.073 156.577 166.201C156.59 166.329 156.595 166.457 156.594 166.585C156.592 166.714 156.584 166.842 156.57 166.969C156.554 167.097 156.533 167.223 156.504 167.348C156.204 168.675 155.452 169.258 154.33 169.912C153.879 169.969 153.367 169.994 152.918 169.92C152.002 169.769 151.107 169.024 150.649 168.241C150.583 168.128 150.522 168.012 150.467 167.892C150.413 167.773 150.364 167.651 150.322 167.527C150.28 167.403 150.244 167.277 150.215 167.149C150.185 167.022 150.162 166.893 150.146 166.762C150.13 166.632 150.12 166.502 150.117 166.371C150.115 166.239 150.119 166.108 150.129 165.978C150.14 165.847 150.157 165.717 150.181 165.588C150.205 165.459 150.235 165.332 150.272 165.206C150.611 164.055 151.295 163.493 152.31 162.931ZM166.925 197.857C167.715 198.045 168.418 198.213 168.871 198.362C168.991 197.638 169.207 196.902 169.42 196.173L169.42 196.173L169.42 196.173L169.42 196.173L169.42 196.173L169.42 196.172L169.42 196.172L169.42 196.172L169.42 196.172L169.421 196.172L169.421 196.172L169.421 196.171C169.538 195.771 169.654 195.374 169.754 194.982C169.493 194.879 169.165 194.74 168.792 194.582L168.792 194.582C166.942 193.796 163.99 192.542 162.657 193.055C162.187 193.236 161.869 193.6 161.74 194.082C161.612 194.564 161.569 195.677 161.919 196.076C162.573 196.821 165.008 197.401 166.925 197.857ZM88.7712 265.528C90.362 265.618 91.8992 265.99 93.4395 266.374C92.8776 267.749 92.3155 268.943 91.7967 270.045L91.7964 270.045L91.7964 270.045C89.9683 273.927 88.6783 276.666 89.8307 282.201L87.341 282.26C86.713 282.315 86.0829 282.354 85.4533 282.394C85.1819 282.411 84.9105 282.428 84.6394 282.446C84.0329 280.244 83.0096 274.096 83.4702 272.011C83.5311 272.034 83.5922 272.057 83.6533 272.08L83.6554 272.081L83.6555 272.081L83.6557 272.081C83.7684 272.124 83.8812 272.166 83.9932 272.211C84.0856 272.247 84.1785 272.288 84.2722 272.328L84.2723 272.328C84.5861 272.465 84.9081 272.604 85.2455 272.621C87.0681 272.713 87.2647 270.603 87.4348 268.777C87.5131 267.937 87.5858 267.157 87.8084 266.679C88.019 266.227 88.3679 265.903 88.7257 265.57L88.7257 265.57L88.7712 265.528ZM164.304 207.3L164.304 207.3C165.167 207.505 165.976 207.697 166.554 207.938L167.472 204.434L167.391 204.403L167.159 204.314C165.303 203.599 161.896 202.288 160.207 203.055C159.949 203.173 159.843 203.324 159.705 203.519L159.705 203.519L159.705 203.52C159.671 203.567 159.635 203.618 159.595 203.671C159.456 204.361 159.453 204.801 159.876 205.397C160.606 206.423 162.564 206.888 164.304 207.3ZM133.487 259.15L133.773 259.377C133.892 260.757 133.856 262.199 133.82 263.632L133.82 263.633C133.798 264.505 133.776 265.373 133.789 266.221C133.878 271.956 134.015 277.782 134.655 283.481C133.423 283.46 132.191 283.419 130.959 283.36C130.645 283.312 130.425 283.26 130.132 283.124C129.815 282.976 129.781 282.889 129.682 282.545C128.935 279.932 129.752 266.93 130.294 263.792C130.512 262.526 130.794 261.404 131.424 260.269C131.917 259.961 132.44 259.691 132.96 259.423C133.137 259.333 133.312 259.242 133.487 259.15ZM143.504 256.424C143.785 255.386 144.372 253.215 144.048 252.99C142.944 253.846 141.775 254.611 140.608 255.374L140.607 255.374L140.607 255.374L140.607 255.374L140.607 255.374L140.607 255.374L140.607 255.374C139.411 256.156 138.217 256.936 137.1 257.812C136.646 260.816 136.939 282.47 138.072 284.142C138.115 284.144 138.157 284.147 138.199 284.15C138.353 284.161 138.504 284.172 138.653 284.12C140.467 283.674 142.246 283.416 144.103 283.234C143.42 281.616 142.844 280.104 142.545 278.37C141.632 273.075 142.119 262.161 143.383 256.881C143.406 256.787 143.449 256.628 143.504 256.424ZM94.6917 257.964C102.546 258.452 108.833 258.41 116.694 257.873L116.725 261.941L113.594 262.482C106.12 264.422 99.2992 263.748 91.9424 262.029C92.9258 260.767 93.7692 259.429 94.6202 258.078L94.6917 257.964ZM162.569 216.914L162.569 216.914C163.037 217.085 163.465 217.241 163.811 217.389C164.055 216.723 164.239 216.007 164.419 215.301L164.42 215.301L164.42 215.3C164.498 214.993 164.577 214.688 164.659 214.389C164.453 214.242 164.218 214.066 163.963 213.874L163.962 213.873C162.527 212.795 160.433 211.221 158.969 211.473C158.468 211.56 158.103 211.813 157.854 212.256C157.52 212.852 157.541 213.477 157.832 214.076C158.483 215.417 160.807 216.268 162.569 216.914ZM102.309 214.498C105.06 214.672 107.699 214.868 110.397 215.474C110.135 216.293 109.845 217.105 109.554 217.915C108.615 220.539 107.68 223.155 107.726 226.006C107.745 227.23 107.908 229.478 108.786 230.341C108.854 230.314 108.905 230.296 108.945 230.282C109.011 230.259 109.045 230.247 109.068 230.224C109.092 230.201 109.105 230.166 109.131 230.095C109.149 230.047 109.173 229.981 109.211 229.891C109.545 229.097 109.705 228.131 109.861 227.193C109.947 226.676 110.031 226.168 110.142 225.701C110.342 224.861 110.573 224.03 110.834 223.207C111.096 222.384 111.387 221.573 111.709 220.771C112.03 219.97 112.381 219.182 112.761 218.407C113.141 217.632 113.549 216.871 113.985 216.126C115.633 216.549 117.239 217.003 118.842 217.576C117.083 220.418 115.632 223.599 115.903 227.032C115.983 228.05 116.313 229.833 117.132 230.504C117.736 230.014 118.493 226.823 119.078 224.358L119.078 224.358L119.078 224.358L119.078 224.357C119.349 223.216 119.583 222.231 119.747 221.741C120.135 220.586 120.673 219.492 121.21 218.4L121.21 218.4L121.243 218.334C122.304 218.46 123.363 218.699 124.415 218.935L124.415 218.936C124.74 219.009 125.063 219.081 125.385 219.151C124.761 222.376 124.545 224.543 125.714 227.69C126.413 225.051 127.259 222.46 128.25 219.917C131.312 220.02 133.73 219.627 136.669 218.723C136.437 219.093 136.207 219.466 135.976 219.841C135.075 221.304 134.166 222.78 133.08 224.1C128.965 229.103 122.365 232.477 116.131 233.918C110.582 235.201 104.908 235.22 99.2258 235.238C94.5939 235.253 89.957 235.268 85.3794 235.968C79.7745 236.825 74.3735 238.849 68.995 240.864L68.9948 240.864L68.9944 240.864C65.8449 242.044 62.703 243.221 59.5323 244.16C55.9321 245.225 52.2458 245.98 48.5625 246.735L48.5625 246.735L48.5622 246.735L48.5612 246.735C46.5991 247.137 44.6379 247.538 42.691 247.987C37.3217 249.279 32.0652 250.93 26.9215 252.94C26.7459 253.009 26.567 253.08 26.3855 253.151L26.3831 253.152C24.4236 253.923 22.1624 254.812 20.5709 256.108C18.3567 257.001 15.9481 257.596 13.5827 258.179C12.7989 258.373 12.0198 258.565 11.2542 258.766C19.5231 252.731 29.7709 248.466 39.3612 244.475L39.3618 244.474C40.5017 244 41.6322 243.53 42.7491 243.06C42.8275 243.148 42.9063 243.239 42.9861 243.332L42.988 243.334L42.9898 243.336L42.99 243.336L42.9901 243.336L42.9902 243.336C43.3204 243.719 43.669 244.123 44.0862 244.379C44.1238 244.402 44.1552 244.422 44.1818 244.439C44.2642 244.491 44.3012 244.515 44.3401 244.519C44.372 244.522 44.4051 244.512 44.4652 244.494C44.5188 244.477 44.594 244.454 44.709 244.428C44.9934 243.841 44.9646 243.225 44.9351 242.594C44.93 242.485 44.9249 242.375 44.9214 242.265L50.1409 240.358C50.243 240.493 50.3452 240.634 50.4493 240.778C50.9998 241.54 51.6011 242.372 52.5029 242.615L52.8449 242.41C53.1267 241.419 52.825 240.452 52.5276 239.498C52.4829 239.355 52.4383 239.212 52.3959 239.069C54.4206 237.992 56.3773 236.853 58.2899 235.585C58.4495 235.813 58.6161 236.065 58.7906 236.329L58.7906 236.329L58.7908 236.329L58.7911 236.329C59.5797 237.522 60.5283 238.957 61.7086 239.44L62.0144 239.273C62.3406 238.011 61.8302 236.302 61.4016 234.868C61.2961 234.515 61.1955 234.178 61.1136 233.869C62.4527 232.863 63.7198 231.789 64.9897 230.698C65.5327 231.421 66.0448 232.164 66.5566 232.907C67.4289 234.174 68.3005 235.439 69.3235 236.597C69.1192 234.33 68.6099 232.088 68.1047 229.863L68.1047 229.863L68.1046 229.863L68.1046 229.863L68.1045 229.863L68.1045 229.862L68.1044 229.862C68.0041 229.42 67.9039 228.979 67.8063 228.538L71.6604 225.774C72.5649 227.07 73.3503 228.429 74.1355 229.788C75.1873 231.609 76.2388 233.428 77.5755 235.093C76.9131 231.357 75.798 227.775 74.6733 224.162L74.5569 223.788C75.7752 222.87 77.1269 222.098 78.4641 221.334L78.4642 221.334C78.8723 221.1 79.279 220.868 79.6802 220.632C79.998 221.538 80.3418 222.748 80.7156 224.065C81.6305 227.288 82.7254 231.144 84.0598 232.702L84.2622 232.531C84.4911 228.729 83.7065 224.44 83 220.577L83 220.577L82.9993 220.573C82.9156 220.116 82.833 219.664 82.7533 219.22C84.9137 218.322 87.039 217.498 89.2928 216.858C89.3758 217.506 89.4574 218.202 89.5426 218.93V218.93C89.967 222.553 90.4821 226.95 91.7065 229.899C92.4796 225.371 92.6888 220.534 92.4999 215.948C94.6197 215.429 96.755 215.018 98.8974 214.606C98.9027 215.411 98.9026 216.223 98.9025 217.039V217.039V217.04V217.04V217.04C98.902 221.569 98.9015 226.226 99.8086 230.627C101.321 226.214 101.752 221.09 102.152 216.338V216.338L102.152 216.337L102.152 216.336C102.204 215.716 102.256 215.103 102.309 214.498ZM152.52 235.839L152.521 235.84L152.521 235.84C153.117 236.306 153.711 236.769 154.275 237.251C154.956 236.243 155.619 235.222 156.264 234.19C154.97 232.278 152.863 229.499 150.442 229.038C149.974 228.949 149.508 228.939 149.104 229.23C148.633 229.57 148.314 230.177 148.262 230.752C148.18 231.648 148.599 232.275 149.176 232.91C150.16 233.995 151.344 234.921 152.52 235.839L152.52 235.839L152.52 235.839ZM147.08 244.82L147.08 244.82C145.456 243.86 143.68 242.81 142.508 241.401C142.002 240.793 141.473 239.819 141.677 238.996C141.791 238.537 142.121 238.206 142.55 238.03C143.091 237.807 143.781 237.885 144.326 238.047C146.759 238.769 148.696 241.136 149.928 243.251L147.943 245.335C147.664 245.165 147.374 244.994 147.08 244.82ZM154.573 223.287C156.002 224.927 158.169 226.298 160.112 227.235C160.495 226.355 160.841 225.461 161.188 224.566C161.232 224.451 161.277 224.336 161.321 224.221C161.2 224.057 161.078 223.889 160.953 223.718C159.552 221.802 157.892 219.532 155.468 219.119C154.914 219.024 154.455 219.048 153.981 219.379C153.663 219.601 153.462 220.019 153.417 220.403C153.293 221.469 153.899 222.515 154.573 223.287Z" fill="#FEFEFE"/>
    </g>
</svg>
