<svg width="180" height="300" viewBox="0 0 180 300" fill="none" xmlns="http://www.w3.org/2000/svg">
    <g opacity="1">
        <path fill-rule="evenodd" clip-rule="evenodd" d="M156.88 31L157.285 31.163C158.03 32.7288 157.617 34.0146 157.109 35.5971L157.066 35.732C155.249 41.406 148.233 58.91 144.856 63.083C144.058 64.0692 142.714 64.7387 141.526 65.3298L141.526 65.3301C141.316 65.4347 141.11 65.5369 140.914 65.638C141.205 65.7332 141.517 65.8274 141.84 65.925L141.84 65.925C143.281 66.3607 144.941 66.8626 145.979 67.807C146.934 68.676 147.023 69.048 147.019 70.23C144.895 72.1668 142.283 71.4247 139.733 70.7005C138.313 70.297 136.911 69.899 135.625 69.973C133.254 72.0789 135.569 77.0412 137.868 81.9712C139.814 86.143 141.749 90.2918 140.825 92.667C138.981 92.4492 131.342 85.0892 126.521 80.4442L126.521 80.4441L126.521 80.4439C124.967 78.9469 123.706 77.732 123.026 77.129C119.959 77.7774 116.932 78.6602 113.902 79.5439C111.17 80.3407 108.436 81.1382 105.668 81.765C94.374 84.322 83.599 84.1 72.123 83.718C73.0386 84.342 74.0915 84.988 75.1932 85.6639C78.4669 87.6725 82.1714 89.9454 83.982 92.689C84.942 94.144 85.425 95.713 85.055 97.435C84.3451 98.2596 84.3035 98.2615 83.6786 98.2915H83.6783C83.5234 98.299 83.3327 98.3081 83.087 98.332C78.068 96.348 68.132 86.945 64.255 82.921C62.3373 81.7943 58.3621 81.1901 54.888 80.662L54.8879 80.662C53.1482 80.3976 51.5342 80.1523 50.367 79.87C47.3617 79.1693 44.411 78.2854 41.515 77.218C38.619 76.1507 35.8004 74.908 33.059 73.49C32.8136 73.3613 32.5549 73.227 32.2857 73.0873C28.6842 71.2179 23.1826 68.3621 22 64.632C22.068 63.527 22.192 62.791 22.963 61.943C29.704 54.53 50.854 51.202 60.445 50.521C63.461 46.05 66.672 42.673 71.701 40.459C78.493 37.468 86.854 37.291 93.762 40.025C100.868 42.839 106.02 48.228 109.056 55.131C110.022 55.1927 110.993 55.2583 111.966 55.3241L111.967 55.3241C117.442 55.6941 123.017 56.0708 128.455 55.811C133.427 52.0317 138.027 47.7368 142.636 43.4338L142.636 43.4337C147.248 39.1278 151.869 34.8137 156.88 31ZM80.4534 42.258C82.5827 42.0686 84.7037 42.1386 86.8164 42.468C95.1014 43.755 100.292 48.694 105.031 55.146C99.7127 55.1826 94.3944 55.1433 89.0764 55.028C85.4946 54.6595 81.9205 54.4727 78.3469 54.2861H78.3469C73.5229 54.034 68.6997 53.7821 63.8594 53.083C64.2894 52.328 64.7334 51.5799 65.2344 50.8679C69.1184 45.3499 74.0094 43.236 80.4534 42.258ZM54.8995 58.8934C53.6035 58.5384 52.7725 58.6264 51.4655 58.7844C45.2055 59.6034 39.6845 61.4024 33.8555 63.7834C34.1863 63.9241 34.5164 64.0662 34.8463 64.2083C36.796 65.0481 38.7404 65.8855 40.8085 66.4004C45.0125 67.4214 48.4225 68.0824 52.3195 65.5544C53.7105 64.6514 55.2245 63.1524 55.6005 61.4724C55.8714 60.2582 55.5748 59.8418 54.9359 58.9446C54.9239 58.9277 54.9117 58.9107 54.8995 58.8934Z" fill="#FEFEFE"/>
    </g>
</svg>
