<svg width="180" height="300" viewBox="0 0 180 300" fill="none" xmlns="http://www.w3.org/2000/svg">
    <g opacity="1">
        <path fill-rule="evenodd" clip-rule="evenodd" d="M80.9412 243.032C77.6352 243.152 74.3579 243.271 71.1425 243.329C71.0933 244.479 70.9733 245.853 70.842 247.355C70.2846 253.733 69.524 262.436 73.1175 266.297C75.9655 269.356 79.5755 269.392 83.4855 269.395C84.6871 269.396 86.1648 269.46 87.7991 269.532C94.6058 269.83 104.13 270.246 107.74 266.692C111.254 263.232 111.02 257.399 110.828 252.603C110.806 252.058 110.785 251.526 110.769 251.013C110.766 250.891 110.762 250.77 110.759 250.649C110.687 248.17 110.619 245.846 109.807 243.453C100.492 242.323 90.5943 242.682 80.9412 243.032ZM104.526 249.664C95.7723 249.576 87.0187 249.564 78.2647 249.629C77.0137 251.462 77.1187 256.767 77.4587 259.045C77.6717 260.475 78.0507 260.956 79.1237 261.873C83.4387 262.852 98.5977 263.022 102.831 262.159C104.579 260.355 104.876 259.2 104.828 256.715C104.794 254.944 104.703 253.168 104.612 251.396C104.583 250.818 104.553 250.241 104.526 249.664Z" fill="#FEFEFE"/>
        <path fill-rule="evenodd" clip-rule="evenodd" d="M71.1427 243.327C63.4423 228.982 55.06 214.936 46.7021 200.931L46.7004 200.928L46.6999 200.927C44.8266 197.788 42.9546 194.651 41.0917 191.513C40.481 190.484 39.8703 189.458 39.2606 188.433C20.7295 157.281 3.13711 127.707 14.6977 89.839C21.2067 68.519 37.2237 49.092 56.9357 38.672C73.7557 29.781 93.1607 27.357 111.392 33.128C132.476 39.801 149.079 55.034 159.049 74.571C159.375 75.207 159.693 75.8469 160.003 76.4909C160.313 77.1349 160.615 77.7826 160.909 78.4339C161.203 79.0853 161.489 79.74 161.767 80.398C162.045 81.0567 162.314 81.7186 162.576 82.3839C162.838 83.0486 163.091 83.7166 163.336 84.388C163.581 85.0593 163.818 85.7337 164.046 86.411C164.274 87.0883 164.494 87.7683 164.706 88.451C164.917 89.1336 165.12 89.8189 165.314 90.5069C165.508 91.1943 165.694 91.8843 165.872 92.5769C166.049 93.2689 166.218 93.9633 166.379 94.6599C166.539 95.3566 166.69 96.055 166.833 96.755C166.976 97.455 167.11 98.1569 167.236 98.8609C167.361 99.5643 167.478 100.269 167.587 100.976C167.695 101.683 167.794 102.39 167.884 103.099C167.974 103.808 168.056 104.518 168.13 105.229C168.202 105.94 168.266 106.651 168.322 107.364C168.377 108.077 168.424 108.79 168.462 109.503C168.5 110.217 168.529 110.931 168.549 111.645C168.569 112.36 168.58 113.074 168.582 113.789C168.584 114.504 168.578 115.218 168.563 115.933C168.547 116.647 168.523 117.361 168.491 118.075C168.457 118.789 168.415 119.503 168.365 120.216C168.314 120.929 168.255 121.641 168.187 122.352C168.118 123.063 168.041 123.774 167.956 124.483C167.87 125.193 167.775 125.901 167.672 126.608C167.568 127.315 167.455 128.021 167.335 128.726C167.214 129.43 167.084 130.133 166.946 130.834C166.808 131.535 166.661 132.235 166.506 132.932C166.35 133.629 166.185 134.325 166.013 135.018C165.84 135.712 165.659 136.403 165.469 137.092C165.279 137.781 165.08 138.468 164.874 139.152C164.667 139.836 164.452 140.517 164.228 141.196C157.228 162.609 145.602 182.255 134.057 201.762C129.22 209.935 124.397 218.084 119.936 226.328C118.748 228.522 117.279 230.704 115.799 232.901C113.481 236.342 111.138 239.821 109.808 243.451C100.492 242.322 90.5945 242.681 80.9415 243.031H80.9411H80.9406H80.9402H80.9397H80.9392C77.6339 243.15 74.3574 243.269 71.1427 243.327ZM51.9075 51.3867C51.976 52.1365 47.4801 58.4966 43.642 63.9261L43.6418 63.9264C41.1992 67.3818 39.0231 70.4603 38.4595 71.4757C20.8455 103.21 28.7045 136.476 43.3885 167.47C44.7384 170.319 46.2172 173.212 47.7139 176.139C51.5999 183.741 55.6063 191.578 57.7895 199.499C57.833 199.657 57.8769 199.789 57.9155 199.906C58.034 200.263 58.1027 200.471 57.9585 200.82L57.9555 201.101C57.9369 201.086 57.9185 201.072 57.9001 201.057L57.8586 201.024C57.8472 201.045 57.8352 201.066 57.8226 201.088L57.8419 201.011C56.7623 200.137 56.0762 198.985 55.3768 197.811C55.2496 197.597 55.122 197.383 54.9916 197.17C53.0685 193.945 51.0804 190.692 49.0736 187.409L49.0734 187.409L49.0733 187.409C33.7944 162.413 17.4318 135.645 20.4635 105.657C22.7535 83.0047 34.5345 65.5417 51.9075 51.3867ZM126.021 49.3039C125.932 49.2676 125.842 49.2314 125.754 49.1934C127.511 51.863 129.477 54.3728 131.442 56.8815C133.883 59.9988 136.323 63.1146 138.362 66.5333C150.424 86.7653 153.491 112.843 148.766 135.731C145.514 151.482 138.349 167.146 131.438 181.603C130.626 183.302 129.677 185.088 128.705 186.919L128.704 186.92L128.704 186.92L128.704 186.921C126.424 191.213 124.014 195.75 122.934 199.972C123.845 200.114 124.243 199.806 124.915 199.285L124.991 199.226L125.051 199.179L125.111 199.133C126.024 198.434 126.664 197.438 127.284 196.473L127.286 196.47C127.359 196.357 127.431 196.244 127.504 196.132C128.753 194.003 130.007 191.885 131.257 189.775L131.257 189.774L131.258 189.773L131.258 189.773L131.259 189.772C149.235 159.41 166.3 130.588 156.482 93.4233C152.794 79.4613 146.002 68.0653 136.103 57.5873C133.48 54.8103 129.993 51.2984 126.564 49.5424C126.388 49.4523 126.205 49.3781 126.021 49.3039ZM83.7987 43.748C83.8597 43.8457 83.9311 43.9388 84.0026 44.032C84.1455 44.2182 84.2884 44.4044 84.3477 44.627C84.5506 45.3834 83.4625 58.4469 82.5922 68.8958L82.592 68.898L82.5919 68.8985L82.5917 68.901C82.1114 74.6672 81.6975 79.6363 81.6037 81.3C80.9283 92.9074 80.6374 104.524 80.7307 116.151C80.824 127.778 81.3014 139.389 82.1627 150.984C82.5048 156.024 83.1343 161.426 83.7792 166.96L83.7793 166.96L83.7793 166.96C85.2553 179.624 86.8116 192.979 85.1867 204.269C84.5451 202.921 83.9528 201.544 83.3613 200.17C83.1148 199.597 82.8684 199.024 82.6187 198.454C82.5201 198.148 82.4212 197.842 82.3222 197.537C81.5881 195.268 80.8536 192.998 80.2597 190.688C71.4027 156.231 65.3237 75.295 83.7987 43.748ZM99.5327 44.6761C98.9437 43.6371 98.3227 42.6471 97.2167 42.1191C97.1429 48.3891 97.3291 54.6631 97.5152 60.9363V60.9364V60.9365C97.6241 64.6053 97.7329 68.2739 97.7897 71.9412C97.8137 73.4917 97.8379 75.0432 97.8622 76.5954V76.5959V76.596C98.2566 101.832 98.6543 127.28 97.7528 152.474C97.6904 154.214 97.5391 156.974 97.3553 160.326C96.6202 173.737 95.3655 196.624 97.2048 201.589L97.8018 201.783C98.8336 200.737 99.2863 199.163 99.6891 197.762L99.7418 197.579C101.593 190.379 103.437 183.104 104.336 175.712C106.887 154.736 106.834 133.462 106.78 112.351L106.78 112.34L106.78 112.33C106.778 111.473 106.776 110.616 106.774 109.759C106.769 107.757 106.771 105.743 106.772 103.721C106.783 90.6981 106.794 77.3276 105.118 64.5482C104.253 57.9532 102.856 50.5351 99.5327 44.6761ZM71.0542 43.8418C71.0233 45.4213 69.2936 48.7793 67.8461 51.5896C67.1857 52.8715 66.5841 54.0395 66.2292 54.8728C62.7542 63.0258 59.3272 72.3258 57.7332 81.0398C54.1652 100.538 53.8192 122.945 56.9992 142.499C58.3842 151.015 60.6692 159.443 63.0392 167.731C64.1786 171.714 65.4256 175.682 66.6739 179.654C69.1757 187.615 71.6823 195.591 73.3362 203.732C71.0622 201.51 69.4042 199.197 67.7382 196.513C51.4782 165.964 39.2572 126.247 45.2782 91.6238C48.0872 75.4718 57.1862 53.5578 71.0542 43.8418ZM130.813 76.9055C127.954 68.7835 119.519 50.6015 111.48 46.6445C112.342 48.7472 113.166 50.8648 113.951 52.9975C114.737 55.1302 115.483 57.2765 116.19 59.4365C116.897 61.5965 117.564 63.7685 118.192 65.9525C118.82 68.1365 119.408 70.3315 119.956 72.5375C120.504 74.7429 121.012 76.9575 121.478 79.1815C121.946 81.4055 122.372 83.6375 122.758 85.8775C123.144 88.1168 123.489 90.3629 123.793 92.6155C124.098 94.8675 124.361 97.1245 124.583 99.3865C124.805 101.648 124.985 103.913 125.125 106.182C125.265 108.45 125.363 110.72 125.419 112.992C125.476 115.264 125.491 117.536 125.465 119.809C125.439 122.081 125.372 124.353 125.262 126.622C125.154 128.892 125.004 131.16 124.812 133.424C124.621 135.689 124.388 137.95 124.114 140.206C123.841 142.462 123.526 144.712 123.17 146.956C122.815 149.201 122.419 151.439 121.981 153.669C120.006 163.396 117.144 172.896 114.258 182.383C113.832 183.783 113.362 185.213 112.886 186.659C111.538 190.754 110.146 194.985 109.58 199.094C109.568 199.18 109.555 199.266 109.542 199.351C109.418 200.197 109.302 200.98 110.015 201.554C111.975 200.31 113.145 197.905 114.194 195.747C114.379 195.365 114.561 194.992 114.742 194.633C133.127 156.267 145.743 119.316 130.813 76.9055Z" fill="#FEFEFE"/>
    </g>
</svg>
