<svg width="180" height="300" viewBox="0 0 180 300" fill="none" xmlns="http://www.w3.org/2000/svg">
    <path fill-rule="evenodd" clip-rule="evenodd" d="M29.4768 127.766C27.9229 126.382 20.7662 119.35 20.4952 117.863C20.431 117.51 20.5368 117.085 20.7522 116.798C21.3063 116.058 23.1811 114.328 24.1356 114.38C25.4138 114.449 30.7175 120.51 32.4526 122.492L32.4528 122.493C32.5977 122.658 32.7177 122.795 32.8084 122.898C32.9905 122.401 33.1167 121.889 33.2432 121.377L33.2432 121.377C33.3756 120.841 33.5082 120.304 33.7055 119.78L33.7304 119.76C34.1022 119.457 34.1614 119.409 34.6511 119.353C35.0615 119.519 35.3147 119.683 35.5957 120.018C37.3634 122.126 38.5637 125.437 38.2844 128.193C37.4838 128.919 36.9682 128.915 35.9542 128.907L35.7933 128.906C36.0023 130.693 34.8443 133.051 33.7369 134.409C32.7629 135.604 31.3928 136.604 29.8657 136.941C31.3923 136.604 32.762 135.604 33.7358 134.409C34.8432 133.051 36.0012 130.693 35.7923 128.907C35.781 127.165 35.7609 125.629 35.2536 123.951C33.6894 127.229 31.5145 130.469 27.9628 131.787C26.8762 132.19 25.8162 132.29 24.6732 132.38C25.4861 134.175 26.5273 135.48 27.9187 136.866C27.9189 136.866 27.9191 136.866 27.9193 136.866C27.8221 136.948 27.7255 137.032 27.6288 137.116C27.1753 137.51 26.7189 137.906 26.1805 138.174C25.6954 137.809 25.2471 137.377 24.8266 136.94C23.5225 135.583 21.3954 132.485 21.5838 130.52C21.6122 130.225 21.7279 129.714 22.0532 129.608C22.1937 129.563 22.5231 129.595 22.7996 129.622H22.7996C22.9257 129.635 23.0407 129.646 23.1217 129.649C25.5711 129.719 27.3364 129.559 29.3007 127.916L29.4768 127.766ZM23.9663 116.359C24.4956 116.815 24.9743 117.331 25.453 117.847L25.453 117.847C25.7633 118.182 26.0736 118.516 26.3976 118.834C26.8871 119.315 27.3957 119.794 27.9083 120.277L27.9083 120.277L27.9083 120.277C29.3578 121.643 30.8389 123.038 32.0101 124.587C31.6733 125.084 31.2781 125.53 30.8809 125.977L30.8806 125.978C30.819 126.047 30.7573 126.116 30.6959 126.186C29.2801 125.232 26.022 121.69 23.879 119.36L23.879 119.36L23.8789 119.359C23.3479 118.782 22.8853 118.279 22.5362 117.908C22.8923 117.493 23.2696 117.095 23.6463 116.697L23.6463 116.697C23.7532 116.585 23.86 116.472 23.9663 116.359Z" fill="#FEFEFE"/>
    <path fill-rule="evenodd" clip-rule="evenodd" d="M56.7722 88.3418C57.0225 88.3654 57.2594 88.3882 57.5024 88.4557C59.4848 89.0075 61.968 90.7206 62.9908 92.5039C63.3868 93.1948 63.5698 93.9609 63.3492 94.7411C63.0369 95.8465 62.1234 96.3658 61.1986 96.8916L61.1984 96.8917L61.1983 96.8918L61.1981 96.8919L61.198 96.892L61.1978 96.8921C61.106 96.9442 61.0141 96.9965 60.9227 97.0494C61.0403 97.1604 61.1584 97.2713 61.2766 97.3823L61.2769 97.3826C61.9922 98.0547 62.7129 98.7319 63.3759 99.4515C69.6808 106.296 72.3503 118.276 73.0522 127.38C73.0786 127.723 73.1104 128.073 73.1424 128.427C73.2524 129.639 73.366 130.893 73.282 132.073C73.2618 132.352 73.2028 132.903 72.9512 133.067C71.8966 133.752 66.6547 133.18 64.9584 132.995H64.9583L64.8052 132.978C60.326 132.671 49.3275 130.693 46.1113 127.718C46.6643 126.513 47.3136 125.349 47.9632 124.185L47.9632 124.185C48.5144 123.197 49.0658 122.209 49.5589 121.195C53.412 113.267 56.0093 104.946 56.805 96.1564L56.7761 96.1066C56.5933 95.792 56.4068 95.4711 56.2684 95.135C55.5945 93.4988 56.0799 89.9136 56.7722 88.3418ZM59.2577 99.0998C61.0482 100.385 62.4329 101.902 63.7728 103.642C63.3053 103.793 62.8232 103.899 62.3426 104.004L62.3426 104.004L62.3422 104.004L62.3418 104.005L62.3414 104.005L62.341 104.005C62.2318 104.029 62.1228 104.053 62.014 104.077C61.0871 104.241 60.1523 104.375 59.2185 104.509L59.2184 104.509L59.2183 104.51L59.2183 104.51L59.2182 104.51L59.2182 104.51L59.2176 104.51L59.2171 104.51C58.7997 104.57 58.3825 104.629 57.9663 104.692L57.9979 104.49C58.2862 102.651 58.5697 100.842 59.2577 99.0998ZM60.4609 91.4656C59.5689 90.7359 58.6459 90.1018 57.5398 89.7437C56.9888 91.6815 57.2745 93.8291 57.6306 95.7821C57.7516 95.7771 57.8732 95.7725 57.9953 95.7679C59.1665 95.7239 60.3808 95.6782 61.4752 95.2461C61.53 95.1853 61.584 95.1282 61.6363 95.0729C61.9208 94.7722 62.1526 94.5271 62.1733 94.0424C62.2153 93.067 61.1437 92.024 60.4609 91.4656ZM64.2334 105.388C64.8778 105.712 65.8376 107.968 66.4325 109.366C66.5892 109.734 66.7206 110.043 66.8142 110.241C64.2095 110.311 61.6058 110.41 59.0031 110.537L56.5439 110.575C56.7928 109.444 57.0982 108.323 57.4031 107.204C57.4895 106.887 57.5758 106.571 57.6608 106.254C59.2356 105.897 60.9009 105.73 62.5401 105.566C63.1093 105.509 63.6754 105.452 64.2334 105.388ZM67.3956 111.912C67.1088 111.839 66.9347 111.816 66.6429 111.869C63.1087 112.076 59.5715 112.171 56.0314 112.154C55.9602 112.354 55.8886 112.554 55.8169 112.754L55.8169 112.754C55.3613 114.026 54.9054 115.298 54.5502 116.602C54.8605 116.632 55.1784 116.672 55.499 116.713C56.1873 116.8 56.8883 116.888 57.5537 116.887C60.5295 117.154 63.5222 117.31 66.5099 117.467L66.51 117.467L66.5102 117.467L66.5111 117.467L66.5123 117.467C67.3426 117.51 68.1726 117.554 69.0018 117.599C68.9192 117.216 68.8427 116.795 68.7629 116.356C68.4833 114.817 68.1629 113.054 67.3956 111.912ZM50.8312 124.355C57.3615 125.21 63.8005 125.949 70.3809 126.312C70.4012 126.606 70.4565 126.987 70.5175 127.406L70.5175 127.406C70.6947 128.627 70.9198 130.176 70.4717 130.872L69.8805 130.937C62.8689 130.444 56.2608 129.047 49.5388 127.031C49.8596 126.167 50.2889 125.366 50.7228 124.557L50.8312 124.355ZM69.4033 119.232C64.2649 119.153 58.85 118.986 53.774 118.171C53.0669 119.652 52.4601 121.172 51.9534 122.732C55.7699 123.612 59.8062 123.913 63.7832 124.209C65.2562 124.319 66.721 124.428 68.1635 124.566L70.1885 124.606C70.0779 123.906 69.987 123.196 69.896 122.484C69.7562 121.392 69.6161 120.296 69.4033 119.232Z" fill="#FEFEFE"/>
    <path fill-rule="evenodd" clip-rule="evenodd" d="M78.4236 91.8665C80.069 105.886 78.2809 126.66 71.3799 139.176C62.2637 138.606 52.2255 136.336 44.1481 131.979C42.773 131.238 41.4941 130.363 40.2128 129.488L40.2127 129.488L40.2125 129.487L40.2125 129.487L40.2124 129.487L40.2123 129.487L40.2123 129.487L40.2122 129.487L40.2121 129.487L40.212 129.487L40.212 129.487L40.2119 129.487L40.2118 129.487L40.2118 129.487C39.5737 129.051 38.9351 128.614 38.2836 128.193C37.483 128.92 36.9674 128.916 35.9534 128.908L35.7926 128.907C36.0015 130.693 34.8435 133.051 33.7361 134.41C32.6341 135.761 31.0252 136.864 29.2555 137.039C28.751 137.089 28.3939 137.031 27.919 136.866C27.8216 136.949 27.7249 137.033 27.628 137.117L27.628 137.117L27.628 137.117C27.1744 137.511 26.7181 137.907 26.1797 138.175C26.1924 138.196 26.2045 138.219 26.2166 138.241L26.2166 138.241C26.24 138.284 26.2633 138.327 26.291 138.367C26.7761 139.074 27.6951 139.498 28.5246 139.619C30.606 139.925 32.4228 138.847 34.0358 137.693C36.7365 140.628 38.6079 144.336 40.225 147.958C40.591 148.778 40.9629 149.904 41.3642 151.119C42.2602 153.832 43.3028 156.988 44.7531 158.17C45.9885 159.176 47.7026 159.951 49.1698 160.554C58.7258 164.485 70.0447 164.221 80.3644 163.98C81.2351 163.96 82.0986 163.94 82.9533 163.922L83.463 163.912H83.4634C88.985 163.799 94.51 163.686 100.019 163.279L100.534 163.241C104.979 162.915 111.081 162.468 114.808 160.286C116.677 159.191 118.182 157.584 119.576 155.95C122.621 152.38 125.329 148.424 128.003 144.516L128.004 144.515L128.004 144.514C128.742 143.437 129.476 142.363 130.215 141.302C130.791 140.475 131.399 139.644 132.012 138.807C133.334 136.999 134.677 135.165 135.76 133.279L135.798 133.213C136.017 132.834 136.271 132.395 136.189 131.948C136.107 131.494 135.927 131.274 135.577 130.999C134.696 130.814 129.816 132.008 125.556 133.051L125.556 133.051L125.555 133.051L125.554 133.051C122.858 133.711 120.409 134.31 119.38 134.46C119.35 128.929 119.311 123.525 117.394 118.254C115.079 111.886 111.517 106.516 106.439 102.025C106.271 101.876 106.095 101.714 105.914 101.546L105.914 101.546C105.19 100.876 104.369 100.117 103.535 99.7795C103.179 99.6353 102.812 99.565 102.47 99.7944C101.92 100.162 101.897 100.583 101.962 101.189C102.102 102.488 102.503 103.813 102.897 105.115C103.084 105.731 103.269 106.342 103.424 106.944C104.474 111.014 104.696 115.066 104.491 119.256C104.161 117.787 103.892 116.317 103.623 114.848L103.623 114.847L103.623 114.847L103.623 114.847L103.623 114.847L103.623 114.847L103.623 114.847L103.623 114.847L103.623 114.847L103.623 114.847L103.623 114.846L103.623 114.846L103.623 114.846L103.623 114.846C103.237 112.734 102.851 110.625 102.285 108.523C98.8776 95.8799 90.8897 84.089 79.363 77.5342L79.2773 77.4854C78.2672 76.9102 77.056 76.2204 75.88 76.5471C75.188 77.2673 75.6657 78.9941 75.9619 80.065C75.9944 80.1823 76.0247 80.2917 76.051 80.391C77.0516 84.1716 77.9668 87.9739 78.4236 91.8665ZM111.265 111.594C109.89 109.178 107.749 105.665 105.175 104.363L105.312 104.866L105.312 104.866C105.934 107.152 106.564 109.465 106.873 111.813C108.336 111.705 109.8 111.632 111.265 111.594ZM78.9295 80.5094C80.8217 81.3928 85.9868 84.9301 86.8727 86.769C86.604 87.0174 86.2844 87.0795 85.9427 87.1459C85.8501 87.1639 85.756 87.1822 85.6608 87.2046L85.2825 87.2933L85.2825 87.2933C83.7552 87.6508 82.2385 88.0058 80.7623 88.5518C80.2824 85.8271 79.6607 83.1759 78.9295 80.5094ZM116.269 133.527C116.093 133.522 115.913 133.517 115.745 133.548C112.078 133.862 108.404 134.012 104.724 133.996C104.647 134.2 104.559 134.411 104.469 134.628L104.469 134.628C104.112 135.482 103.719 136.422 103.858 137.288C104.169 137.516 104.339 137.49 104.626 137.446C104.701 137.435 104.784 137.422 104.879 137.412C105.624 137.272 106.521 137.122 107.49 136.96C110.54 136.449 114.312 135.818 116.337 135.006C116.601 134.596 116.61 134.296 116.624 133.835V133.835L116.625 133.805L116.445 133.53C116.387 133.53 116.329 133.528 116.269 133.527H116.269H116.269H116.269H116.269H116.269ZM110.668 113.389L112.407 113.236C113.411 114.874 114.162 116.61 114.861 118.395C113.59 118.412 112.343 118.56 111.084 118.709L111.084 118.709L110.939 118.726C109.997 118.827 109.045 118.875 108.096 118.922C107.808 118.937 107.52 118.951 107.232 118.967C107.188 117.273 107.136 115.58 107.075 113.886L110.668 113.389ZM115.338 120.082L113.613 120.222C111.452 120.453 109.29 120.565 107.12 120.675C106.987 122.339 106.837 124.002 106.668 125.664C107.791 125.566 108.914 125.478 110.038 125.398C110.495 125.36 110.954 125.325 111.413 125.29L111.414 125.29L111.414 125.29C113.097 125.162 114.79 125.033 116.449 124.755C116.39 124.48 116.332 124.204 116.274 123.928C116.001 122.637 115.728 121.342 115.338 120.082ZM114.599 126.571C115.069 126.515 115.545 126.485 116.02 126.454L116.021 126.454C116.234 126.441 116.447 126.427 116.659 126.411C116.747 128.274 116.768 130.123 116.751 131.988C115.303 132.081 113.852 132.13 112.401 132.179L112.401 132.179L112.401 132.179L112.401 132.179L112.401 132.179L112.4 132.179L112.4 132.179L112.4 132.179L112.4 132.179C110.735 132.235 109.07 132.291 107.408 132.414L105.054 132.504C105.496 130.724 105.928 128.942 106.349 127.157C109.107 127.08 111.857 126.884 114.599 126.571ZM80.1522 136.363C78.8067 136.344 77.3876 136.324 76.1438 136.063C75.7482 137.276 75.3249 138.308 74.5667 139.352C82.872 139.301 91.016 138.855 99.277 138.035C99.3847 138.02 99.4972 138.008 99.6118 137.996C100.138 137.942 100.708 137.883 101.048 137.464C101.322 137.127 101.352 137.022 101.295 136.624C100.977 136.365 100.714 136.259 100.309 136.227C99.0912 136.13 97.7629 136.23 96.4667 136.328C95.8114 136.377 95.1643 136.426 94.5438 136.449C90.1632 136.59 85.7834 136.57 81.4045 136.388C81 136.374 80.58 136.368 80.1527 136.363H80.1526H80.1525H80.1525H80.1524H80.1523H80.1522ZM87.8313 88.3975L88.2136 88.4431C89.8387 89.5326 91.5214 92.074 92.8542 94.087C93.173 94.5685 93.4718 95.0198 93.7449 95.4137L86.3821 96.8189L81.5417 97.6233C81.5079 95.9084 81.3093 94.1717 81.1119 92.446L81.1118 92.4456L81.1118 92.4453L81.1117 92.4449C81.0259 91.6941 80.9402 90.9454 80.8685 90.2015C83.3063 89.9173 85.5382 89.2286 87.8313 88.3975ZM97.9774 104.029C97.2348 101.993 95.8069 98.0788 94.7641 97.2073C92.6483 97.4724 90.5584 97.9154 88.4689 98.3583C86.2016 98.8389 83.9348 99.3194 81.636 99.5722C81.6278 101.785 81.5943 103.998 81.5353 106.21L84.8645 105.874L98.2164 104.68C98.1486 104.498 98.0689 104.279 97.9791 104.033L97.978 104.03L97.9774 104.029ZM98.2694 106.577L98.6182 106.561C99.4631 107.371 101.002 113.393 101.345 114.871C97.4906 115.18 93.594 115.281 89.7054 115.381H89.7052C87.6888 115.434 85.6744 115.486 83.6693 115.567L80.757 115.723C81.011 113.173 81.2196 110.62 81.3827 108.062C83.7588 107.83 86.134 107.645 88.509 107.46C91.7621 107.206 95.0149 106.953 98.2694 106.577ZM101.568 116.8L98.3153 117.009C92.3521 117.275 86.3606 117.351 80.3916 117.425C80.0764 119.974 79.6732 122.509 79.1821 125.031L82.3026 124.984C83.5108 124.982 84.7198 124.983 85.9293 124.984H85.9296H85.93H85.9303C91.3015 124.986 96.6818 124.989 102.044 124.798C102.031 124.484 102.019 124.17 102.007 123.855C101.915 121.503 101.822 119.137 101.568 116.8ZM78.7497 126.994L102.041 126.978C101.997 128.815 101.908 130.653 101.818 132.49L101.818 132.491C101.787 133.143 101.755 133.795 101.725 134.447L99.4573 134.518C91.8528 135.039 84.2158 134.807 76.6126 134.457C77.1051 132.655 77.6272 130.859 78.1493 129.065C78.35 128.374 78.5507 127.685 78.7497 126.994ZM41.5972 133.371C40.4755 132.725 39.3667 132.057 38.2709 131.368C37.6042 132.912 36.9064 134.401 36.1092 135.884C38.207 138.666 39.9685 141.502 41.4634 144.653C41.8176 145.399 42.4655 147.05 43.1742 148.856C44.331 151.804 45.6501 155.165 46.1191 155.682C48.7672 158.601 56.8244 160.108 60.7202 160.655C70.1996 161.986 107.989 162.371 114.829 157.129C117.248 155.274 119.171 152.517 121.011 149.878C121.701 148.888 122.379 147.916 123.068 147.013C123.369 146.568 123.67 146.122 123.971 145.676C125.213 143.835 126.457 141.992 127.768 140.203C128.22 139.587 128.686 138.976 129.154 138.365C130.2 136.996 131.251 135.621 132.148 134.164C126.286 135.77 120.369 137.132 114.395 138.252C108.422 139.371 102.413 140.244 96.3677 140.869C77.8066 142.754 58.3258 142.819 41.5972 133.371Z" fill="#FEFEFE"/>
    <path d="M51.3818 149.053C53.6114 149.532 55.7672 150.337 58.0281 150.781C70.0563 153.142 81.6058 153.834 93.8476 153.075C96.4107 152.916 98.9437 152.522 101.499 152.327C102.054 152.284 102.318 152.175 102.741 152.541C102.811 152.989 102.828 153.094 102.676 153.516C98.0311 154.195 93.3623 154.607 88.6699 154.751C81.9629 154.939 75.1909 154.832 68.5262 154.007C64.87 153.554 61.2808 152.825 57.6612 152.162C56.5008 151.949 52.0731 151.138 51.3122 150.419C51.1251 149.844 51.2408 149.629 51.3818 149.053Z" fill="#FEFEFE"/>
    <path d="M48.2042 142.787C50.0183 143.007 51.8805 143.564 53.6642 143.977C56.6151 144.66 59.5745 145.269 62.5804 145.654C67.0906 146.232 71.6337 146.44 76.1747 146.587C79.5384 146.725 82.9033 146.767 86.2693 146.713C89.6353 146.658 92.9969 146.507 96.3543 146.26C99.7119 146.012 103.059 145.668 106.397 145.228C109.735 144.788 113.057 144.253 116.364 143.622C117.23 143.46 118.791 142.977 119.568 143.508C119.665 143.927 119.669 143.958 119.511 144.355C116.528 145.227 113.297 145.707 110.221 146.13C92.2557 148.604 73.9923 149.237 56.0928 145.964C53.9093 145.565 50.116 145.247 48.3462 143.906C48.0783 143.408 48.1206 143.355 48.2042 142.787Z" fill="#FEFEFE"/>
    <path d="M142.958 191.067C143.145 191.062 143.358 191.127 143.542 191.164C143.82 191.516 143.811 191.653 143.874 192.105C143.757 192.366 143.723 192.559 143.482 192.733C142.053 193.758 138.764 193.233 137.092 193.068L136.714 193.022C136.449 192.804 136.305 192.675 136.153 192.356C136.004 192.044 136.078 192.035 136.176 191.734C136.885 191.243 141.721 191.244 142.958 191.067Z" fill="#FEFEFE"/>
    <path d="M128.598 186.033C130.337 186.379 132.006 187.229 133.775 187.424C135.049 187.565 136.477 186.964 137.716 187.255C137.995 187.502 138.19 187.616 138.206 188.025C138.226 188.523 137.912 188.828 137.608 189.166C135.031 189.783 131.335 189.438 128.938 188.289C128.418 188.04 128.108 187.801 127.904 187.239C127.947 186.686 128.247 186.423 128.598 186.033Z" fill="#FEFEFE"/>
    <path d="M133.507 194.398C135.44 194.51 137.225 195.459 139.235 195.476C141.277 195.493 145.855 194.646 147.295 194.896C147.727 194.971 147.877 195.102 148.122 195.447C148.134 195.938 147.997 196.128 147.748 196.531C145.53 196.928 134.892 197.523 133.137 196.347C132.741 196.081 132.727 195.977 132.641 195.543C132.795 194.984 133.088 194.761 133.507 194.398Z" fill="#FEFEFE"/>
    <path d="M150.618 187.335C151.996 187.302 153.449 187.85 154.786 188.177C157.491 188.838 160.394 189.207 163.179 188.925C164.641 188.776 165.996 187.924 167.423 187.643C167.957 187.538 168.155 187.701 168.598 187.982C168.782 188.43 168.713 188.44 168.535 188.901C166.359 190.516 162.932 190.804 160.293 190.732C158.525 190.684 151.759 190.063 150.76 188.636C150.457 188.203 150.579 187.828 150.618 187.335Z" fill="#FEFEFE"/>
    <path d="M128.094 178.461C128.714 178.478 129.173 178.628 129.623 179.064C129.855 179.555 129.851 179.92 129.684 180.424C129.017 182.436 126.664 184.512 124.807 185.457C121.529 187.125 117.72 186.855 114.318 185.775C113.713 185.56 113.105 185.408 112.652 184.931C112.496 184.45 112.494 184.402 112.629 183.915C113.861 182.947 115.824 184.222 117.168 184.495C118.864 184.84 120.798 184.761 122.428 184.195C125.397 183.164 126.795 181.18 128.094 178.461Z" fill="#FEFEFE"/>
    <path d="M144.679 152.318C146.922 151.939 149.702 152.542 151.817 153.281C152.073 153.372 152.327 153.469 152.579 153.573C152.83 153.677 153.079 153.787 153.325 153.903C153.571 154.019 153.814 154.141 154.053 154.269C154.293 154.398 154.53 154.532 154.763 154.672C154.996 154.812 155.226 154.957 155.452 155.109C155.678 155.26 155.9 155.417 156.118 155.579C156.336 155.742 156.55 155.91 156.76 156.083C156.97 156.255 157.175 156.434 157.376 156.617C157.577 156.8 157.774 156.988 157.965 157.181C158.157 157.374 158.344 157.572 158.525 157.774C158.707 157.977 158.884 158.183 159.055 158.394C159.227 158.606 159.393 158.821 159.554 159.04C159.715 159.26 159.87 159.483 160.02 159.71C160.169 159.937 160.313 160.167 160.452 160.402C160.59 160.636 160.722 160.873 160.849 161.114C160.975 161.355 161.095 161.599 161.21 161.846C163.416 166.505 163.064 172.007 161.38 176.756C163.558 179.255 165.697 180.638 169.023 181.108C169.753 181.211 170.561 181.349 171.291 181.201C172.31 180.995 174.078 180.295 175.057 180.497C175.565 180.602 175.583 180.738 175.848 181.154C175.844 181.599 175.832 181.725 175.523 182.087C174.551 183.225 171.342 183.268 169.94 183.237C166.104 183.151 162.849 181.692 160.192 178.949C158.859 180.952 157.416 182.93 155.526 184.447C152.976 186.496 148.488 188.351 145.164 187.917C144.462 187.826 143.485 187.576 143.058 186.959C142.899 186.729 142.967 186.78 143.055 186.459C143.991 185.66 147.062 185.887 148.464 185.471C152.463 184.285 156.32 181.249 158.303 177.567C160.446 173.589 161.133 169.268 159.78 164.923C158.623 161.21 156.223 158.245 152.767 156.441C152.532 156.318 152.295 156.201 152.055 156.089C151.814 155.978 151.571 155.873 151.326 155.773C151.08 155.674 150.833 155.581 150.583 155.494C150.332 155.406 150.08 155.326 149.826 155.251C149.572 155.176 149.317 155.108 149.059 155.046C148.802 154.984 148.543 154.928 148.283 154.879C148.023 154.829 147.761 154.787 147.499 154.75C147.237 154.713 146.974 154.683 146.71 154.66C146.446 154.637 146.182 154.62 145.918 154.609C145.653 154.599 145.388 154.595 145.124 154.597C144.859 154.6 144.594 154.609 144.33 154.624C144.065 154.64 143.802 154.662 143.538 154.691C143.275 154.719 143.013 154.754 142.751 154.796C142.49 154.837 142.229 154.885 141.97 154.94C141.711 154.994 141.453 155.055 141.197 155.122C140.941 155.189 140.687 155.262 140.434 155.342C136.925 156.472 133.826 159.351 132.203 162.64C130.771 165.54 130.778 168.57 131.801 171.593C131.914 171.88 132.038 172.162 132.173 172.439C132.308 172.716 132.454 172.987 132.611 173.252C132.768 173.517 132.935 173.776 133.112 174.028C133.29 174.28 133.477 174.524 133.673 174.761C133.87 174.998 134.076 175.227 134.291 175.448C134.506 175.668 134.73 175.88 134.961 176.083C135.193 176.286 135.433 176.479 135.68 176.663C135.927 176.847 136.182 177.02 136.443 177.184C138.824 178.644 141.837 179.222 144.555 178.494C144.706 178.452 144.856 178.406 145.004 178.357C145.154 178.307 145.301 178.254 145.447 178.198C145.594 178.141 145.738 178.081 145.881 178.017C146.025 177.953 146.166 177.885 146.306 177.814C146.446 177.744 146.584 177.669 146.721 177.591C146.857 177.514 146.991 177.432 147.123 177.348C147.255 177.264 147.385 177.176 147.513 177.085C147.641 176.994 147.766 176.9 147.889 176.803C148.013 176.706 148.133 176.605 148.251 176.502C148.369 176.399 148.485 176.293 148.598 176.184C148.711 176.075 148.821 175.964 148.928 175.849C149.036 175.735 149.14 175.618 149.242 175.498C149.343 175.379 149.442 175.257 149.537 175.132C149.633 175.008 149.725 174.882 149.814 174.752C149.903 174.623 149.989 174.492 150.072 174.359C150.155 174.226 150.234 174.09 150.31 173.953C151.261 172.199 151.534 170.113 150.936 168.197C150.259 166.027 148.809 164.82 146.838 163.863C145.567 163.246 144.162 163.415 142.87 163.876C141.567 164.341 140.274 165.006 139.693 166.342C139.272 167.311 139.33 168.438 139.721 169.408C140.185 170.557 141.182 171.648 142.367 172.068C142.92 172.264 143.536 172.27 144.048 171.948C144.518 171.651 144.771 171.233 144.853 170.706C144.612 170.223 144.208 170.106 143.757 169.861C143.217 169.566 143.015 169.409 142.841 168.814C142.956 168.383 143.028 168.228 143.376 167.945C143.979 167.778 144.414 167.873 144.948 168.168C145.77 168.62 146.35 169.436 146.6 170.336C146.785 170.998 146.732 171.713 146.379 172.311C145.867 173.181 144.946 173.724 143.974 173.923C142.547 174.215 140.905 173.811 139.704 173.009C138.35 172.105 137.586 170.522 137.31 168.951C137.017 167.285 137.436 165.645 138.439 164.289C139.739 162.533 141.838 161.577 143.958 161.265C144.099 161.244 144.241 161.226 144.383 161.211C144.525 161.197 144.668 161.186 144.811 161.179C144.954 161.171 145.097 161.168 145.24 161.167C145.383 161.167 145.525 161.17 145.668 161.177C145.811 161.184 145.954 161.195 146.096 161.209C146.238 161.223 146.38 161.24 146.522 161.261C146.663 161.282 146.804 161.307 146.944 161.335C147.084 161.363 147.224 161.395 147.362 161.43C147.501 161.465 147.639 161.504 147.775 161.546C147.912 161.587 148.048 161.633 148.182 161.681C148.316 161.73 148.449 161.782 148.581 161.838C148.713 161.893 148.844 161.952 148.973 162.014C149.101 162.075 149.229 162.14 149.354 162.209C149.48 162.277 149.604 162.348 149.726 162.423C149.848 162.497 149.968 162.574 150.087 162.655C150.205 162.735 150.321 162.818 150.435 162.905C152.17 164.241 153.134 166.32 153.439 168.45C153.875 171.492 153.144 174.426 151.269 176.876C149.486 179.205 146.924 180.547 144.026 180.893C143.802 180.922 143.578 180.945 143.353 180.962C143.128 180.98 142.903 180.992 142.678 180.998C142.452 181.004 142.227 181.005 142.001 181C141.776 180.995 141.551 180.984 141.326 180.968C141.101 180.952 140.876 180.93 140.652 180.903C140.429 180.876 140.206 180.843 139.983 180.804C139.761 180.766 139.54 180.722 139.32 180.673C139.1 180.623 138.881 180.568 138.664 180.508C138.446 180.447 138.231 180.382 138.017 180.311C137.803 180.24 137.59 180.163 137.38 180.082C137.17 180 136.962 179.913 136.756 179.821C136.55 179.729 136.347 179.632 136.145 179.53C135.944 179.428 135.746 179.321 135.55 179.209C135.354 179.097 135.162 178.98 134.972 178.858C134.782 178.736 134.595 178.61 134.411 178.479C134.228 178.348 134.047 178.213 133.87 178.073C131.079 175.85 129.447 172.448 129.049 168.931C129.022 168.712 129.001 168.492 128.985 168.271C128.969 168.051 128.959 167.83 128.954 167.609C128.949 167.388 128.95 167.168 128.957 166.947C128.963 166.726 128.975 166.505 128.992 166.285C129.01 166.065 129.033 165.845 129.061 165.626C129.09 165.407 129.124 165.189 129.163 164.971C129.203 164.754 129.247 164.537 129.298 164.322C129.348 164.107 129.404 163.893 129.465 163.681C129.526 163.469 129.592 163.258 129.664 163.049C129.735 162.84 129.812 162.633 129.894 162.428C129.976 162.222 130.063 162.019 130.155 161.819C130.248 161.618 130.345 161.42 130.447 161.224C130.549 161.028 130.656 160.834 130.768 160.644C130.88 160.454 130.996 160.266 131.118 160.081C131.239 159.896 131.365 159.715 131.495 159.537C131.626 159.358 131.76 159.183 131.9 159.012C135.265 154.899 139.438 152.841 144.679 152.318Z" fill="#FEFEFE"/>
    <path fill-rule="evenodd" clip-rule="evenodd" d="M32.0881 46.7132C30.1477 45.3964 27.9171 44.8399 25.5808 45.0395C23.0296 45.4544 20.9182 46.5881 19.3427 48.6979C18.5111 49.8113 18.0192 50.9935 17.7444 52.3526C15.5364 52.1313 13.4383 52.3464 11.6672 53.83C10.0095 55.2191 9.23999 57.0591 8.97338 59.1538C7.12891 59.2593 5.52443 59.7386 4.26713 61.1912C3.22593 62.3945 2.86065 63.9475 3.04636 65.5103C3.21978 66.9721 3.92337 68.2785 5.1158 69.1569C5.97949 69.7932 6.96232 70.1233 8.01854 70.2561C9.88822 70.4916 11.9007 70.4217 13.8682 70.3533C14.7049 70.3243 15.5334 70.2955 16.3393 70.2906L31.5262 70.3275L42.2649 70.3432C42.7741 70.3418 43.2992 70.3524 43.8323 70.3631C45.5882 70.3983 47.4299 70.4352 49.0669 70.0547C49.961 69.8468 50.7352 69.4286 51.3835 68.7766C52.5295 67.6238 53.1235 65.9244 53.0532 64.311C52.975 62.5232 52.1021 60.69 50.727 59.5362C49.3636 58.3922 47.6321 58.0102 45.888 58.2106C45.4203 58.2666 44.9537 58.331 44.4883 58.4038C43.6888 56.7 42.7418 55.1942 40.8984 54.4838C39.5063 53.9471 37.9735 53.9963 36.51 54.0871C35.9102 50.9696 34.7707 48.5336 32.0881 46.7132ZM27.4009 47.7425C27.1493 47.7321 26.909 47.7577 26.6591 47.7845C24.5771 48.0605 22.8681 48.6413 21.5443 50.3846C20.8636 51.2808 20.5075 52.2619 20.1941 53.3314C20.9851 54.2968 21.5856 55.0649 21.4442 56.4134C21.4255 56.5924 21.3364 56.6973 21.2336 56.8184C21.205 56.8521 21.1754 56.887 21.1459 56.9251C20.5659 57.0729 20.0859 56.9152 19.5796 56.6199C19.2554 56.4308 18.9418 56.224 18.6307 56.0188C17.4378 55.232 16.282 54.4697 14.702 54.8226C13.6431 55.0588 12.8985 55.957 12.3697 56.8456C11.6848 57.9971 11.7211 59.0354 11.7524 59.9291C11.7795 60.7045 11.8028 61.3711 11.348 61.9086C10.839 62.0462 10.1797 62.0556 9.48682 62.0656C8.00345 62.0868 6.36557 62.1103 5.71592 63.398C5.30558 64.2115 5.52338 65.1356 5.85725 65.9402C6.17507 66.7053 6.65436 67.09 7.41495 67.3955C8.66746 67.8982 17.0452 67.7788 23.0563 67.693C25.4827 67.6584 27.5236 67.6293 28.5545 67.6488L40.6598 67.7202C41.2153 67.722 41.7824 67.7349 42.3549 67.7478C44.1283 67.7879 45.9537 67.8292 47.6481 67.5485C48.4282 67.4194 49.1239 67.1777 49.6797 66.5899C50.2211 66.0174 50.4792 65.2192 50.4426 64.4389C50.3955 63.4332 49.8835 62.4712 49.1242 61.8188C48.3049 61.1145 47.2685 60.8052 46.1973 60.9059C45.2046 60.9993 44.4356 61.5088 43.6362 62.0383C43.5358 62.1048 43.435 62.1716 43.3331 62.238C43.2635 62.2046 43.1879 62.1705 43.109 62.135C42.6665 61.9357 42.1215 61.6902 41.9645 61.2524C41.752 60.6593 41.7302 60.0983 41.7096 59.569C41.6714 58.5879 41.6374 57.7156 40.4017 56.9483C39.6752 56.497 38.9419 56.2611 38.0939 56.4772C37.6266 56.5964 37.1752 56.865 36.7243 57.1333C35.931 57.6053 35.1391 58.0766 34.2637 57.7325C34.2245 57.6924 34.1806 57.6556 34.1368 57.6188C34.0491 57.5451 33.9614 57.4715 33.911 57.3713C33.6344 56.8198 33.6395 55.8696 33.6441 55.0118C33.6464 54.5717 33.6487 54.156 33.6127 53.8309C33.2385 50.4427 30.8523 47.8843 27.4009 47.7425Z" fill="#FEFEFE"/>
    <path d="M47.0222 201C48.4838 201.163 50.9777 200.947 52.2399 201.518C52.8756 201.805 53.4962 202.356 53.6725 203.07C53.7676 203.455 53.7046 203.849 53.4618 204.165C53.0119 204.749 52.3256 204.798 51.6595 204.869C49.8388 204.765 47.7752 205.248 46.0061 204.82C45.4385 204.682 45.1026 204.465 44.7782 203.956C44.6972 203.555 44.6773 203.263 44.8183 202.869C45.1778 201.863 46.1204 201.393 47.0222 201Z" fill="#FEFEFE"/>
    <path d="M63.3243 225.01C64.2853 224.986 64.8051 224.95 65.5566 225.629C67.0272 226.959 67.344 226.246 68.7247 226.909C69.1233 227.101 69.3376 227.403 69.5109 227.796C69.7438 228.324 69.7924 228.732 69.5774 229.283C69.0102 229.816 68.49 229.833 67.7539 229.815C67.0126 229.797 66.2844 229.816 65.5442 229.846C63.8072 229.905 61.3435 230.294 59.7423 229.549C59.1842 229.29 58.9444 229.012 58.7148 228.45C58.7364 228.029 58.8338 227.751 59.0685 227.408C60.0788 225.93 61.6508 225.322 63.3243 225.01Z" fill="#FEFEFE"/>
    <path d="M37.8258 261C39.7023 261.49 41.5895 263.658 44.0651 264.123C47.9136 264.846 49.1496 261.823 51.0679 261.546C53.1726 261.243 55.027 264.178 57.4047 264.158C59.8169 264.139 60.9061 262.724 62.8464 262.398C63.2504 262.33 63.3224 262.403 63.6402 262.623C63.746 263.153 63.7781 263.523 63.4706 263.993C62.9015 264.865 61.924 265.174 60.9819 265.414C57.281 266.36 55.1701 265.807 51.9406 263.803C51.7966 263.72 51.4567 263.574 51.2892 263.608C50.5053 263.771 48.8787 265.449 46.8754 265.829C43.4843 266.473 40.8446 265.22 38.1081 263.312C36.3274 264.708 34.6694 265.583 32.4231 265.812C30.7244 265.986 27.1641 265.856 25.9287 264.633C25.7501 264.456 25.6992 264.155 25.7188 263.91C25.7553 263.454 25.9646 263.148 26.2855 262.858C27.4719 262.904 28.5877 263.673 29.7472 263.935C33.1707 264.708 35.1875 262.621 37.8258 261Z" fill="#FEFEFE"/>
    <path d="M29.1055 255.03C30.3966 255.179 32.012 256.936 33.581 257.325C35.7999 257.875 37.797 257.029 39.6841 256.17C40.4576 256.311 41.1895 256.524 41.9367 256.737C42.9346 256.106 43.9158 255.517 45.007 255C46.6527 255.84 47.9966 256.852 49.9447 257.227C51.7082 257.566 53.5827 257.49 55.0615 256.56C55.6173 256.21 56.134 255.78 56.749 255.502C58.5718 254.682 60.8138 257.037 62.6539 257.415C64.9494 257.885 67.2507 256.47 68.4066 256.754C68.7074 257.048 68.6907 257.071 68.7148 257.46C68.4649 257.943 68.1995 258.21 67.6311 258.462C66.842 258.813 65.946 258.919 65.0642 258.973C61.0696 259.218 60.6197 257.737 57.5474 257.003C56.0938 257.834 54.7802 258.553 52.9983 258.811C49.8902 259.259 47.7602 258.401 45.3275 256.951C43.3566 257.731 42.3897 258.572 40.1109 258.035C38.8027 258.476 37.6437 258.843 36.2133 258.946C33.552 259.137 31.4449 258.37 29.4447 256.996C26.465 258.304 23.7727 259.148 20.3271 258.671C19.2339 258.52 17.5531 257.883 16.9394 257.095C16.6826 256.765 16.6796 256.531 16.765 256.164C16.9878 256.064 17.1254 255.956 17.3924 255.974C18.0316 256.017 19.8217 256.987 21.1973 257.178C24.4351 257.63 26.6135 256.536 29.1055 255.03Z" fill="#FEFEFE"/>
    <path d="M58.0555 249C59.4912 249.277 60.8604 251.054 62.0634 251.896C64.829 253.832 67.9351 253.113 70.7236 251.757C71.3118 251.47 72.1583 250.926 72.8024 250.9C73.2599 250.881 73.3862 251.067 73.6646 251.367C73.7226 251.827 73.7864 252.025 73.5066 252.437C72.5213 253.89 69.1821 254.825 67.5028 254.965C63.7734 255.276 61.2729 253.468 58.5925 251.233C56.5185 252.602 54.7617 254.312 52.166 254.615C48.9934 254.985 46.4837 253.292 44.1674 251.395C42.0432 253.016 39.9982 254.449 37.2383 254.679C33.9944 254.948 31.8262 253.514 29.4741 251.554C29.2578 251.616 29.3386 251.577 29.1493 251.693C27.6406 252.62 25.9101 253.78 24.1807 254.219C21.0066 255.025 17.8981 253.926 15.196 252.295C14.5907 251.93 13.8493 251.295 13.7255 250.561C13.6764 250.271 13.805 250.199 13.9558 249.97C14.1199 249.899 14.271 249.783 14.4481 249.756C14.6375 249.728 19.052 252.246 20.4406 252.556C23.6678 253.275 25.6123 251.546 28.1575 250.094C30.1315 248.968 32.3571 252.176 34.7068 252.702C38.7528 253.608 41.2073 251.328 44.3291 249.338C46.3127 250.751 48.2046 252.805 50.8013 252.963C53.7351 253.142 56.02 250.77 58.0555 249Z" fill="#FEFEFE"/>
    <path d="M38.0061 239C36.2369 238.973 34.3664 238.562 32.6132 238.33C30.7708 238.087 28.8517 238.046 27.059 237.526C26.3466 237.319 25.6215 236.991 25.1036 236.441C24.7758 236.093 24.6745 235.871 24.7286 235.379C24.8157 234.582 25.3662 233.715 25.7821 233.041C26.8366 231.333 36.4932 217.513 36.8975 217.223C37.2685 216.956 37.452 216.976 37.8864 217.043C38.1264 217.295 38.2365 217.379 38.3023 217.733C38.7089 219.912 38.2604 226.945 38.2172 229.677C38.1923 231.25 37.8549 237.737 38.7148 238.634C38.2694 238.681 38.2893 238.653 38.0061 239Z" fill="#FEFEFE"/>
    <path fill-rule="evenodd" clip-rule="evenodd" d="M39.0429 238.993C38.9758 239.012 38.9143 239.03 38.8653 239.047L38.8258 239.051L38.7698 239.056C38.4091 239.093 38.4064 239.093 38.1374 239.419L38.0869 241.917C37.6988 241.915 37.0697 241.908 36.2797 241.899L36.2789 241.899C32.066 241.85 23.2802 241.749 22.0821 242.118C21.6352 242.256 21.4618 242.359 21.2273 242.759C21.3054 243.077 21.402 243.223 21.6526 243.444C21.9158 243.676 22.2282 243.705 22.5614 243.73C25.4006 243.937 28.3037 243.884 31.1912 243.831C32.6918 243.804 34.1882 243.777 35.6693 243.786C37.8239 243.8 39.9792 243.829 42.1347 243.858C47.7775 243.935 53.4221 244.012 59.0622 243.807L59.0298 245.714C58.0904 245.811 57.1572 245.974 56.224 246.137C54.8653 246.374 53.5066 246.611 52.1288 246.644C50.8826 246.674 49.6425 246.511 48.4011 246.347H48.4011H48.401C47.1996 246.189 45.997 246.031 44.7868 246.048C43.2365 246.069 41.7009 246.218 40.1649 246.367L40.1648 246.367C38.2082 246.557 36.251 246.747 34.2621 246.674C32.8677 246.623 31.4942 246.478 30.1226 246.333C28.1702 246.126 26.2217 245.92 24.2222 245.986C23.4272 246.013 22.3763 246.164 21.2394 246.328L21.2393 246.328C18.697 246.694 15.7252 247.122 14.2266 246.354C13.5095 245.986 13.3507 245.445 13.1562 244.783L13.1562 244.782L13.1561 244.782C13.1268 244.683 13.0968 244.58 13.0639 244.475C12.871 243.86 12.7181 243.705 12.1531 243.405C12.0939 243.415 12.0411 243.42 11.993 243.425C11.8182 243.444 11.7037 243.457 11.5584 243.642C11.1115 244.209 11.1109 245.062 11.2081 245.745C11.3382 246.66 11.9216 247.266 12.6706 247.759C15.0354 249.317 18.402 248.762 21.5347 248.245L21.5347 248.245C23.0008 248.003 24.4156 247.77 25.6526 247.766C27.1534 247.76 28.6629 247.967 30.1752 248.175C31.4861 248.355 32.7991 248.536 34.1105 248.578C35.9909 248.639 37.9036 248.584 39.7723 248.359C40.2508 248.301 40.7263 248.224 41.2018 248.146L41.2018 248.146C41.9462 248.025 42.6905 247.903 43.4459 247.859C44.9537 247.769 46.4311 247.947 47.9075 248.124C49.1988 248.28 50.4893 248.435 51.7987 248.411C53.1905 248.386 54.5943 248.199 55.9979 248.011C57.6622 247.788 59.3261 247.566 60.9692 247.615C62.42 247.658 63.865 247.909 65.3083 248.16L65.3084 248.16C67.7704 248.589 70.2272 249.016 72.6989 248.407C73.7548 248.147 75.6337 247.643 76.1335 246.594C76.41 246.013 76.3653 245.511 76.1718 244.918C76.0052 244.408 75.8007 243.969 75.3009 243.725C74.6488 243.831 74.3371 244.431 74.0298 245.022C73.8586 245.351 73.6888 245.678 73.4622 245.915C71.928 247.522 67.5879 246.72 64.2815 246.109C63.123 245.894 62.0914 245.704 61.3518 245.648C61.3551 245.493 61.3615 245.338 61.3679 245.183L61.3679 245.182C61.3758 244.991 61.3838 244.799 61.3856 244.607C61.3949 243.728 61.215 243.403 60.5851 242.773C60.4916 242.679 60.1071 240.202 59.7473 237.884C59.4744 236.125 59.2156 234.457 59.109 233.993C56.8501 224.146 51.8294 213.142 42.9806 207.598C42.9523 206.876 42.9966 206.077 43.0422 205.255C43.1403 203.489 43.2442 201.618 42.6457 200.181C42.3025 199.957 42.2687 199.96 41.9001 199.993L41.8281 199.999C41.3536 200.397 41.2037 200.806 41.0989 201.403C40.811 203.046 40.8641 205.531 40.9122 207.781V207.781V207.781C40.9348 208.841 40.9563 209.849 40.9405 210.692C40.8784 214.007 40.1918 237.816 39.6665 238.689C39.5741 238.842 39.2747 238.927 39.0429 238.993ZM41.7255 238.818L41.7043 238.993L41.7022 238.995C41.1688 239.462 40.8218 239.765 40.7833 240.53C40.7604 240.984 40.9144 241.453 41.2472 241.767C41.2827 241.8 41.3222 241.829 41.3616 241.857C41.3813 241.871 41.4011 241.886 41.4203 241.901L41.6685 241.822C41.6858 241.561 41.6943 241.311 41.7027 241.065C41.7242 240.435 41.7447 239.835 41.9075 239.171C42.2359 238.69 42.6001 238.127 42.7421 237.558C43.0148 236.466 43.0202 235.177 43.0253 233.952C43.0273 233.481 43.0292 233.02 43.0463 232.583C43.3128 225.792 43.3955 219.033 42.8329 212.253L42.878 212.189L42.8298 212.216L42.8189 212.086L42.7694 212.249L42.6616 212.308C42.6654 212.34 42.6704 212.373 42.6753 212.405L42.6754 212.405V212.405V212.405C42.6855 212.471 42.6956 212.537 42.696 212.603C42.7014 213.454 42.6506 214.324 42.6 215.19V215.19L42.6 215.19V215.19V215.19C42.5668 215.759 42.5336 216.326 42.5165 216.887C42.4097 220.829 42.2717 224.77 42.1024 228.71C42.0557 229.858 42.0405 231.029 42.0253 232.206V232.206C41.9965 234.428 41.9674 236.672 41.7255 238.818ZM55.792 231.272C56.8797 232.386 57.7229 240.066 57.8997 242.053L46.5489 242.024L44.1152 241.981L44.1992 239.93C49.2984 238.325 52.8391 235.725 55.792 231.272ZM46.8944 213.914C46.2599 213.161 45.4935 212.253 44.7046 211.75C45.7695 220.018 45.3753 228.346 44.9824 236.648C44.9721 236.866 44.9617 237.084 44.9515 237.301C47.2786 236.326 49.3006 235.367 51.1652 233.627C52.7195 232.067 53.8393 230.397 55.0023 228.544C54.798 227.885 54.5772 227.232 54.3401 226.585C54.1029 225.938 53.8495 225.297 53.5798 224.662C53.3103 224.028 53.0251 223.4 52.724 222.78C52.4226 222.16 52.1061 221.548 51.7743 220.944C51.4422 220.34 51.0952 219.744 50.7331 219.157C50.371 218.571 49.9944 217.994 49.6034 217.426C49.2122 216.858 48.807 216.301 48.3878 215.754C47.9686 215.206 47.5358 214.67 47.0895 214.144C47.026 214.07 46.9609 213.992 46.8944 213.914Z" fill="#FEFEFE"/>
    <path d="M170.966 256.065C172.151 255.975 173.368 255.919 174.502 256.321C175.808 256.784 176.885 257.883 177.424 259.091C177.799 259.931 177.821 260.784 177.435 261.625C175.814 265.153 167.558 266.9 164.043 268.237C163.252 268.533 160.433 270.165 159.808 269.986C159.518 269.198 159.97 268.145 160.257 267.384C162.051 262.611 166.118 258.23 170.966 256.065Z" fill="#FEFEFE"/>
    <path d="M164.152 248.002C164.541 247.998 164.942 247.991 165.322 248.086C166.445 248.368 167.471 249.23 168.048 250.241C169.051 252.001 168.952 254.292 167.549 255.795C166.786 256.612 165.746 257.206 164.893 257.931C163.895 258.77 162.996 259.708 162.198 260.747C160.271 263.259 159.206 266.079 158.365 269.121C158.236 269.561 158.111 270.021 157.821 270.384C157.516 270.766 157.171 270.917 156.72 271C156.144 270.496 156.063 269.894 155.948 269.146C155.027 263.151 156.902 255.26 160.424 250.368C161.5 248.875 162.368 248.261 164.152 248.002Z" fill="#FEFEFE"/>
    <path d="M139.271 250.031C140.545 249.942 141.569 250.005 142.663 250.724C146.542 253.272 147.858 263.482 148.715 268C147.808 267.725 146.988 267.365 146.133 266.961C142.612 264.931 137.72 262.483 136.189 258.425C135.478 256.541 135.581 254.542 136.404 252.713C137.025 251.335 137.896 250.581 139.271 250.031Z" fill="#FEFEFE"/>
    <path d="M153.854 243.049C155.136 242.899 156.5 243.063 157.527 243.967C161.316 247.3 154.907 255.243 154.014 259.078C153.202 262.564 153.345 266.452 153.665 270C153.14 270 152.723 269.95 152.216 269.808C151.947 269.597 151.854 269.391 151.725 269.076C149.649 264.027 147.472 252.004 149.566 246.999C150.379 245.055 152.028 243.84 153.854 243.049Z" fill="#FEFEFE"/>
</svg>
