<svg width="180" height="300" viewBox="0 0 180 300" fill="none" xmlns="http://www.w3.org/2000/svg">
    <g opacity="1">
        <path d="M47.1684 81.1563C43.1974 66.8633 41.9574 56.3563 45.6554 41.6363C49.1854 27.5893 57.8744 14.2633 70.5244 6.86331C81.1094 0.671312 94.1094 -0.470695 105.869 2.75031C106.545 2.93097 107.216 3.12832 107.882 3.34232C108.549 3.55632 109.209 3.78666 109.863 4.03333C110.518 4.28066 111.166 4.54397 111.807 4.8233C112.449 5.1033 113.083 5.39899 113.709 5.71033C114.336 6.02166 114.955 6.34831 115.565 6.69031C116.175 7.03297 116.777 7.3903 117.369 7.7623C117.961 8.13497 118.544 8.52198 119.117 8.92331C119.69 9.32531 120.252 9.74099 120.804 10.1703C121.356 10.6003 121.897 11.0436 122.427 11.5003C122.957 11.9576 123.476 12.4276 123.982 12.9103C124.488 13.393 124.982 13.8883 125.464 14.3963C125.946 14.9036 126.414 15.423 126.87 15.9543C127.326 16.485 127.768 17.027 128.196 17.5803C128.624 18.1337 129.039 18.6973 129.439 19.2713C129.839 19.8453 130.225 20.4286 130.595 21.0213C130.967 21.6146 131.323 22.217 131.663 22.8283C138.229 34.5403 137.652 46.0483 134.187 58.5933C142.236 61.4333 148.468 65.4413 152.404 73.3473C156.721 82.0183 156.915 91.1373 153.83 100.252C152.997 102.711 151.608 106.101 148.933 107.071C147.642 107.54 146.621 107.195 145.403 106.741C141.715 103.112 147.835 91.2043 146.556 83.8203C143.427 65.7573 126.526 69.9863 120.423 64.7243C116.062 60.9653 123.964 54.9243 125.812 51.6173C127.509 48.5793 128.156 45.2163 128.022 41.7583C127.69 33.2203 123.239 25.0113 116.963 19.3513C110.094 13.1563 100.276 9.99333 91.0814 10.5463C90.4754 10.5883 89.8707 10.645 89.2674 10.7163C88.6641 10.7883 88.0631 10.8746 87.4644 10.9753C86.8651 11.076 86.2687 11.1913 85.6754 11.3213C85.0821 11.4513 84.4924 11.5956 83.9064 11.7543C83.3197 11.913 82.7374 12.0856 82.1594 12.2723C81.5814 12.4596 81.0084 12.6606 80.4404 12.8753C79.8724 13.09 79.3097 13.3186 78.7524 13.5613C78.1957 13.8033 77.6451 14.059 77.1004 14.3283C76.5557 14.5976 76.0181 14.88 75.4874 15.1753C74.9567 15.4707 74.4337 15.7786 73.9184 16.0993C73.4024 16.4206 72.8947 16.754 72.3954 17.0993C71.8954 17.4453 71.4044 17.803 70.9224 18.1723C70.4404 18.5416 69.9677 18.9226 69.5044 19.3153C69.0411 19.708 68.5874 20.1116 68.1434 20.5263C67.6994 20.9416 67.2661 21.367 66.8434 21.8023C66.4201 22.2383 66.0077 22.6843 65.6064 23.1403C54.1604 36.1353 49.9784 55.3213 54.0864 72.1053C55.3054 77.0883 58.2294 82.1843 58.5814 87.2623C56.8624 91.6293 48.9024 90.1253 44.9174 90.9243C42.7584 91.3573 40.6264 92.3293 38.6994 93.3863C31.4254 97.3753 26.8714 104.306 24.6554 112.141C24.4734 112.777 24.3077 113.418 24.1584 114.062C24.0091 114.707 23.8761 115.355 23.7594 116.006C23.6427 116.658 23.5427 117.311 23.4594 117.967C23.3754 118.624 23.3084 119.282 23.2584 119.941C23.2077 120.601 23.1741 121.262 23.1574 121.923C23.1401 122.585 23.1397 123.246 23.1564 123.907C23.1724 124.569 23.2054 125.229 23.2554 125.889C23.3047 126.549 23.3711 127.207 23.4544 127.863C23.5371 128.52 23.6364 129.174 23.7524 129.825C23.8684 130.477 24.0007 131.125 24.1494 131.769C24.2981 132.414 24.4631 133.055 24.6444 133.691C24.8257 134.327 25.0227 134.959 25.2354 135.585C25.4481 136.211 25.6767 136.832 25.9214 137.447C26.1654 138.062 26.4251 138.67 26.7004 139.272C26.9751 139.874 27.2651 140.468 27.5704 141.055C27.8757 141.642 28.1954 142.221 28.5294 142.792C38.5104 159.756 67.6784 178.46 86.5964 183.115L86.6154 171.84C74.4061 162.285 62.6157 152.238 51.2444 141.698C47.8774 138.589 43.7654 135.459 40.9844 131.822C39.9454 130.464 39.1274 129.301 39.3314 127.529C40.4734 126.098 42.0054 123.991 43.9364 123.682C45.4904 123.433 82.5724 156.536 86.8144 160.182L86.7664 136.747C77.6514 128.206 68.4164 119.539 59.5844 110.714C57.9984 109.129 55.7174 106.777 56.0404 104.317C56.2814 102.479 57.7404 101.622 59.1694 100.769C64.5364 100.73 82.0644 119.122 87.1304 123.505C86.9837 115.163 86.9641 106.821 87.0714 98.4773C82.6704 94.3923 76.2604 90.3013 73.2114 85.0933C72.3494 83.6203 72.0934 82.4653 72.5414 80.7793C73.6074 79.5873 73.7594 79.4613 75.2934 79.0243C80.0974 79.8823 84.4544 85.5253 87.8334 88.8133C87.9814 84.4483 86.6544 70.7513 88.6594 67.7823C89.5554 67.3163 90.0684 67.0443 91.1084 67.0373C91.8964 67.0323 92.3914 67.2393 92.8954 67.8913C95.7884 71.6263 94.4114 83.3343 94.3514 88.1633C97.0014 85.6113 102.05 80.1813 105.728 79.6163C107.119 79.4023 107.328 79.6193 108.422 80.3703C108.862 81.3183 109.102 81.8893 109.12 82.9613C109.158 85.1613 97.0704 96.0673 94.8974 98.2493C94.8381 107.113 94.9227 115.976 95.1514 124.836C100.266 119.948 123.781 95.4173 127.981 95.2103C129.152 95.1523 130.156 95.5953 130.931 96.4723C131.773 97.4263 132.191 98.9903 132.155 100.255C132.124 101.354 131.758 102.709 131.068 103.574C128.277 107.071 123.786 110.146 120.476 113.233L95.3134 136.741L95.2604 158.762C100.553 152.95 106.523 147.539 112.086 141.96C116.438 137.596 120.726 132.5 125.545 128.694C126.866 127.65 128.244 126.747 129.964 126.638C131.126 126.565 132.23 127.276 133.02 128.083C133.925 129.007 134.42 130.114 134.237 131.437C134.018 133.019 132.972 134.49 131.979 135.686C129.167 139.07 125.456 141.921 122.342 145.049C117.31 150.103 112.584 155.454 107.535 160.493C103.371 164.649 98.8884 168.471 94.6304 172.529C94.6537 175.848 94.7271 179.166 94.8504 182.482C104.54 180.789 113.425 176.398 121.584 171.021C141.014 158.218 144.334 148.257 151.366 127.184C153.003 122.277 154.988 117.202 158.722 113.479C166.5 109.5 166.162 118.182 163.706 121.383C160.413 125.678 159.191 132.155 157.528 137.246C154.681 145.966 151.288 154.722 145.711 162.091C135.579 175.482 111.334 189.538 94.6154 191.821L94.7774 240.076C95.0734 239.723 95.3674 239.367 95.6784 239.026C102.686 231.356 109.737 229.438 119.766 228.87C119.46 234.481 118.758 239.157 115.133 243.743C109.943 250.31 102.786 252.908 94.7584 253.797C94.7444 260.412 95.7734 293.207 93.7744 297.369C93.0504 298.879 92.1774 299.319 90.6494 299.831C89.8944 299.689 89.3074 299.582 88.7184 299.035C87.5794 297.978 86.9484 296.165 86.7814 294.655C85.5664 283.67 86.5334 269.861 86.5524 258.506L86.3554 192.01C71.7154 189.917 55.1994 180.524 43.6224 171.67C29.8294 161.123 16.6264 147.008 14.4214 129.118C12.8784 116.591 15.5084 104.348 23.3774 94.3063C29.5624 86.4143 37.2744 82.3573 47.1684 81.1563Z" fill="#FEFEFE"/>
    </g>
</svg>
