<svg width="180" height="300" viewBox="0 0 180 300" fill="none" xmlns="http://www.w3.org/2000/svg">
    <path d="M50.0683 71C50.3529 71.0558 50.8004 71.1458 51.0478 71.3186C51.5537 71.6722 51.8516 72.1872 51.964 72.789C52.1229 73.6416 51.7361 74.6245 51.1789 75.2697C50.5769 75.9668 49.8187 75.9388 48.9694 76C48.1899 75.6282 47.4432 75.1948 47.1232 74.3449C47.0993 74.2831 47.0788 74.22 47.0617 74.1556C47.0446 74.0915 47.031 74.0267 47.021 73.9611C47.0109 73.8955 47.0044 73.8296 47.0015 73.7634C46.9988 73.697 46.9997 73.6307 47.0042 73.5645C47.0086 73.4983 47.0167 73.4326 47.0285 73.3673C47.04 73.3017 47.0552 73.2371 47.0741 73.1736C47.0927 73.1098 47.1148 73.0473 47.1405 72.9862C47.1659 72.925 47.1946 72.8653 47.2268 72.8071C47.8248 71.6997 48.9299 71.3182 50.0683 71Z" fill="#FEFEFE"/>
    <path fill-rule="evenodd" clip-rule="evenodd" d="M38.4314 72.4509L38.4311 72.4512C38.1859 72.7461 37.9396 73.0424 37.6911 73.3388C33.5477 74.1776 25.4834 75.9765 22.1281 78.2944L22 78.691C23.2901 79.6259 26.0626 79.7613 29.2233 79.9156H29.2233C33.4264 80.1209 38.3159 80.3597 41.3188 82.5566C46.3524 86.239 49.5419 90.7089 53.038 95.6085L53.0381 95.6085L53.0381 95.6085C53.3128 95.9935 53.5894 96.3811 53.8689 96.7713C58.9423 103.851 64.6643 109.676 72.6877 113.398C72.171 114.141 71.6582 114.891 71.1444 115.643L71.1441 115.643L71.1439 115.644L71.1439 115.644C69.4842 118.072 67.8133 120.517 65.9619 122.778C65.6422 122.856 65.2901 122.931 64.9187 123.012C62.8757 123.452 60.2462 124.019 59.1752 125.609C59.2306 125.711 59.2652 125.784 59.2909 125.839C59.3246 125.911 59.3427 125.95 59.3721 125.975C59.4058 126.004 59.4544 126.016 59.5588 126.042L59.5589 126.042C59.6066 126.054 59.666 126.069 59.7409 126.09C60.9297 126.416 62.3039 126.178 63.5458 125.962C63.7336 125.93 63.9184 125.898 64.099 125.868C63.8813 126.162 63.6293 126.481 63.3615 126.821C62.049 128.487 60.3591 130.631 60.4857 132.484C60.5085 132.819 60.6133 132.907 60.7976 133.061L60.7976 133.061C60.8479 133.103 60.9041 133.15 60.9661 133.208C61.9095 133.103 62.5195 132.514 63.1048 131.794C63.8637 130.86 64.5879 129.894 65.3123 128.928C66.3105 127.597 67.3091 126.266 68.3996 125.015C68.5539 125.212 68.7125 125.427 68.8769 125.651C69.6755 126.737 70.6141 128.013 71.8939 128.229L72.3086 127.949C72.5563 126.645 71.9529 125.424 71.2581 124.349C70.9495 123.872 70.5883 123.416 70.2326 122.968C70.1734 122.893 70.1144 122.819 70.0558 122.745C72.1363 120.068 74.2301 117.31 76.0001 114.418C78.292 114.923 80.5687 115.314 82.8893 115.655L82.7354 115.991C81.3959 118.877 76.4763 126.725 74.1625 128.555C73.5295 129.056 72.6201 129.486 71.6747 129.933L71.6747 129.933C69.8064 130.816 67.7977 131.765 67.5043 133.46L67.5368 133.514C67.761 133.89 67.8324 134.01 68.312 134.153C68.9644 134.349 69.813 134.305 70.5557 134.266C70.7053 134.258 70.8506 134.251 70.9891 134.245C70.8851 134.903 70.5144 135.432 70.1511 135.951C69.6395 136.682 69.1427 137.392 69.4253 138.408L69.9658 139C71.1658 138.668 73.1747 135.914 74.7512 133.753C75.3981 132.866 75.9722 132.079 76.3877 131.601C76.5783 131.873 76.7842 132.192 77.0044 132.533L77.0045 132.533L77.0045 132.534C77.9473 133.994 79.1534 135.863 80.5492 136.264L80.8435 136.012C80.8706 133.768 79.4368 131.238 78.2139 129.415C79.7909 126.381 81.7488 123.434 83.6931 120.508L83.6931 120.507L83.6932 120.507L83.6932 120.507L83.6933 120.507C84.8037 118.836 85.9097 117.171 86.9378 115.501C95.7189 114.376 103.407 111.574 111.385 107.896C111.598 107.939 111.82 107.984 112.05 108.031C118.208 109.288 130.431 111.784 135.554 108.335C136.297 107.834 136.898 107.128 137.057 106.226C137.16 105.634 137.029 105.189 136.685 104.706C136.023 103.775 134.462 103.416 133.263 103.141C133.062 103.095 132.871 103.051 132.696 103.007C136.469 102.408 146.985 100.21 149.139 97.1035C149.383 96.7509 149.439 96.5608 149.459 96.1471C149.245 95.6315 148.871 95.0619 148.339 94.8122C147.797 94.5586 147.232 94.525 146.646 94.5112C146.722 94.049 146.953 93.5302 147.171 93.0413C147.259 92.8431 147.345 92.6499 147.418 92.4673C147.4 92.4743 147.382 92.4812 147.365 92.4879C147.289 92.6847 147.198 92.8941 147.104 93.109C146.884 93.6145 146.651 94.1511 146.574 94.6291C145.966 95.2012 144.847 95.6582 143.892 96.0478C143.582 96.1741 143.29 96.2934 143.039 96.4071C137.713 98.8144 131.574 99.7892 125.771 99.6941C124.959 99.6808 124.132 99.6281 123.302 99.5751C121.675 99.4712 120.033 99.3664 118.447 99.5559C117.64 99.6519 116.91 99.8004 116.402 100.472L116.594 100.965C117.665 101.902 122.893 103.774 126.888 105.205C128.595 105.816 130.077 106.347 130.912 106.689C127.246 107.128 123.307 107.146 119.669 106.458C113.336 105.261 107.267 102.571 101.343 99.9447C100.42 99.5355 99.5 99.1279 98.5834 98.7276C98.2764 98.5936 97.9692 98.4595 97.6619 98.3254C91.9658 95.839 86.237 93.3383 80.6528 90.6037C80.5698 90.642 80.4871 90.6807 80.4047 90.7196C79.9118 90.8261 79.6634 91.0323 79.3523 91.4343C78.9812 91.9139 78.8003 92.648 78.9245 93.2397C79.0477 93.8253 79.3986 94.1729 79.8669 94.4974C81.4147 95.5686 83.2695 96.359 85.0592 97.1217L85.0594 97.1218C85.5867 97.3464 86.1082 97.5687 86.6146 97.795C88.8295 98.7854 91.095 99.7211 93.3659 100.659C97.6598 102.432 101.973 104.214 106 106.388C98.9888 109.745 87.6878 113.101 80.0496 111.655C69.1745 109.595 63.0901 104.215 57 95.178C59.8568 93.2851 62.6039 91.2282 65.3519 89.1706C68.1769 87.0554 71.0028 84.9394 73.9501 83C75.9174 83.2816 77.8846 83.5344 79.8506 83.787L79.8507 83.787C83.6307 84.2726 87.406 84.7577 91.1671 85.4462C91.425 85.3019 91.6796 85.1534 91.9303 85C103.718 86.653 116.792 88.4355 128.638 88.0042C132.174 87.8753 135.684 87.4146 139.189 86.9471C139.256 86.99 139.354 87.0259 139.478 87.0557C139.706 87.0095 139.96 86.9599 140.236 86.9062L140.237 86.9059L140.237 86.9059C142.97 86.3735 147.757 85.4406 149.034 83.4466C149.311 83.0133 149.261 82.7565 149.179 82.3336C149.169 82.2829 149.158 82.2298 149.148 82.1737C149.128 82.1476 149.109 82.1214 149.09 82.0954C149.074 82.075 149.059 82.0546 149.044 82.0343C148.722 81.5996 148.427 81.2003 147.847 81.0752C146.335 80.748 143.442 81.6227 140.972 82.3697C139.811 82.7208 138.744 83.0436 137.956 83.2002C134.121 83.9637 130.178 84.0679 126.275 84.0527C113.852 84.0038 101.492 82.2948 89.1648 80.5902C84.5244 79.9486 79.8887 79.3076 75.2558 78.756C73.8184 77.5746 72.3364 76.4526 70.8546 75.3305C69.6167 74.3933 68.3789 73.456 67.1671 72.4844C66.3499 71.8291 65.5475 71.1442 64.7458 70.46L64.7456 70.4598C60.6382 66.9543 56.5524 63.4672 50.617 64.0679C44.9214 64.6446 41.7789 68.4244 38.4314 72.4509ZM152.991 88.097C152.738 89.2125 151.974 89.923 151.034 90.511C150.385 90.9168 149.614 91.3863 148.846 91.7945C149.62 91.3942 150.401 90.9296 151.056 90.5291C151.996 89.9537 152.759 89.2571 153 88.1562C152.997 88.1361 152.994 88.1164 152.991 88.097ZM61.5805 73.5828C58.0862 70.5152 54.9703 67.7799 49.6096 68.014C46.3929 69.0635 44.9781 70.7398 43.5856 72.3897C42.5395 73.6291 41.5061 74.8535 39.731 75.786C38.8334 76.2575 37.7439 76.5074 36.7147 76.7435C36.472 76.7992 36.2327 76.8541 36 76.9109C44.2503 78.3094 49.3184 85.0522 54.044 91.3392L54.0448 91.3403L54.0524 91.3503C54.2156 91.5675 54.3784 91.7842 54.541 92L56.8277 90.4521C58.794 89.0016 60.8254 87.6158 62.8574 86.2297L62.8575 86.2296L62.8576 86.2295C65.6252 84.3416 68.3937 82.453 71 80.3993C70.7889 80.2674 70.5775 80.1356 70.3661 80.0037L70.366 80.0037C68.2156 78.6629 66.058 77.3177 64.0869 75.7228C63.21 75.0133 62.3853 74.2893 61.5807 73.583L61.5806 73.5829L61.5805 73.5828Z" fill="#FEFEFE"/>
    <path fill-rule="evenodd" clip-rule="evenodd" d="M49.5159 115.351C50.8268 115.699 52.2746 116.267 53.3586 117.104C55.5315 118.783 56.0779 120.979 56.4437 123.557C57.6105 123.969 58.6767 124.476 59.7575 125.079C61.2287 124.816 62.5748 124.805 63.9402 125.521C65.9515 126.574 66.8931 128.44 67.5094 130.509C68.8697 129.882 70.1986 129.293 71.7383 129.385C74.0531 129.522 75.4041 131.043 76.8253 132.644L76.8774 132.703C77.4461 132.509 78.0116 132.319 78.6059 132.219C80.2834 131.938 82.0301 132.172 83.4181 133.215C84.7451 134.212 85.1342 135.518 85.3925 137.072C86.6827 136.795 87.8895 136.688 89.1852 137.012C90.6892 137.388 92.154 138.253 92.9394 139.627C93.753 141.051 93.5867 142.358 93.147 143.85C94.2444 144.128 95.2968 144.481 96.2268 145.147C97.4004 145.988 98.3217 147.258 98.5518 148.703C98.8262 150.426 98.1146 151.979 97.0974 153.312C97.483 153.673 97.9013 154.001 98.319 154.328L98.319 154.328L98.3191 154.328L98.3192 154.328C98.5336 154.496 98.748 154.664 98.9576 154.836C100.573 156.163 101.475 157.876 101.671 159.96C101.892 162.324 101.059 164.764 99.5516 166.584C97.7475 168.763 95.3752 169.791 92.6084 170.055C91.6529 172.238 90.3609 174.309 88.2688 175.561C86.18 176.813 84.075 176.89 81.7601 176.299C81.1949 179.544 80.2524 184.536 79.0553 187.539C78.8596 188.031 78.4507 188.584 77.9128 188.731C77.5726 188.824 77.4284 188.746 77.152 188.596L77.1284 188.583C76.7622 188.099 76.7198 187.561 76.7183 186.968C76.7149 185.819 76.8965 184.62 77.0733 183.452L77.0733 183.452C77.1294 183.082 77.185 182.714 77.2341 182.353L77.2524 182.218C77.6113 179.575 77.9652 176.968 78.0745 174.298C77.9807 174.204 77.8896 174.114 77.8015 174.027C77.0496 173.285 76.5083 172.751 76.2917 171.6C74.4039 172.777 72.7802 173.422 70.5435 173.571C70.4374 175.061 70.4362 176.57 70.435 178.08L70.435 178.081C70.4336 179.98 70.4321 181.881 70.2217 183.743C70.139 184.475 69.9612 185.744 69.316 186.19C69.1763 186.286 69.1333 186.292 68.9472 186.223C68.579 186.085 68.1985 185.327 68.0242 184.98L68.0156 184.963C67.3754 182.735 67.2126 179.137 67.0681 175.944L67.0681 175.944L67.0681 175.944C67.0042 174.531 66.9438 173.197 66.8473 172.097C66.282 172.094 65.74 172.115 65.2109 172.136C63.5871 172.199 62.0852 172.258 60.408 171.592C57.895 170.593 56.1856 168.792 55.1115 166.343C53.9299 167.739 52.6457 168.946 51.3452 170.169L51.3449 170.17C50.8075 170.675 50.2673 171.183 49.7305 171.708C49.3566 172.073 48.978 172.474 48.592 172.883L48.592 172.883L48.592 172.883L48.592 172.883C47.6419 173.888 46.6472 174.941 45.5676 175.635C45.1403 175.91 44.8378 175.983 44.3451 175.865C43.9922 175.528 43.9047 175.215 43.8709 174.74C43.7455 172.98 46.9039 169.692 49.1218 167.383L49.1218 167.383C49.789 166.688 50.371 166.082 50.753 165.633C49.6521 164.648 48.6378 163.73 48.2091 162.259C47.3366 162.083 46.4907 161.867 45.6356 161.62C44.364 163.734 43.1077 165.858 41.8666 167.99C41.619 168.423 41.3781 168.866 41.1364 169.309L41.1364 169.309C40.5694 170.35 39.9981 171.399 39.3257 172.355C39.1445 172.613 38.9838 172.821 38.6745 172.932C38.4456 173.013 38.1725 172.949 37.9653 172.835C37.575 172.621 37.3492 172.332 37.2425 171.897C37.0636 171.168 37.2129 170.357 37.4451 169.657C37.8139 168.545 38.4261 167.432 39.0149 166.362L39.015 166.362C39.205 166.017 39.3925 165.676 39.5687 165.341C40.7578 163.036 41.985 160.751 43.2503 158.486C43.0527 157.427 43.0541 156.389 43.0598 155.315C41.3187 154.973 39.6804 154.513 38.6052 152.974C37.5794 151.505 37.5322 149.73 37.8389 148.034C37.206 147.372 36.6581 146.652 36.3981 145.76C35.9148 144.1 36.6343 142.41 37.4126 140.962C35.6873 140.115 34.3619 139.189 33.7388 137.274C32.4196 133.218 35.0496 128.174 37.0271 124.381C37.2414 123.97 37.448 123.574 37.641 123.195C36.2721 123.313 35.0121 123.314 33.665 123.015C32.3088 122.714 30.2614 122.131 29.5172 120.864C29.2468 120.403 29.1863 119.879 29.3519 119.371C29.7121 118.265 30.8747 117.47 31.8658 116.96C35.224 115.228 38.3779 115.779 41.8056 116.861L41.8109 116.857L41.8109 116.857C42.2355 116.548 42.6677 116.233 43.1203 115.966C45.2245 114.724 47.2318 114.747 49.5159 115.351ZM40.0398 118.259C40.1717 118.296 40.2752 118.359 40.3877 118.427L40.3877 118.427C40.4074 118.439 40.4275 118.451 40.448 118.463C40.4931 119.137 39.7569 119.953 39.2131 120.556C39.0919 120.69 38.9802 120.814 38.8888 120.923C36.2847 121.545 34.6069 121.371 32.0711 120.532L31.5445 120.135C31.5298 120.096 31.5144 120.061 31.5 120.028C31.4485 119.912 31.4105 119.826 31.4637 119.674C31.5979 119.292 31.9497 119.048 32.2874 118.853C34.7383 117.44 37.4063 117.562 40.0398 118.259ZM57.8828 126.238C57.4218 125.879 56.8794 125.676 56.317 125.536C55.7071 125.594 55.2195 125.692 54.7817 126.156C54.5114 126.442 54.4023 126.813 54.4379 127.201C54.5757 128.709 56.2533 130.68 57.4201 131.577C57.8223 131.887 58.2729 132.141 58.7167 132.384C59.1882 132.42 59.583 132.428 59.9584 132.075C60.3159 131.739 60.4028 131.19 60.371 130.723C60.2586 129.074 59.1755 127.245 57.8828 126.238ZM48.6402 116.992C50.3604 117.489 52.1991 118.199 53.3256 119.663C54.3221 120.957 54.4822 122.453 54.2997 124.025C53.1456 125.159 52.4833 126.578 51.8152 128.01L51.8152 128.01C51.5769 128.52 51.3379 129.032 51.0756 129.534C50.466 130.698 49.7307 131.798 48.9761 132.873C47.0653 135.595 44.5234 138.97 40.9873 139.506C39.3873 139.749 37.7394 139.264 36.4675 138.275C35.7565 137.722 35.3344 136.334 35.2625 135.471C35.2148 134.899 35.2567 133.964 35.6245 133.519C35.7772 134.534 36.014 135.671 36.515 136.574C36.9754 137.404 37.6889 138.03 38.6207 138.261C39.6776 138.524 41.026 138.319 41.9361 137.712C42.2299 137.516 42.489 137.245 42.5004 136.873C42.5348 135.767 41.401 134.691 40.6377 133.967L40.5783 133.911C39.3424 133.555 37.9064 133.409 36.5517 133.272C36.1651 133.232 35.7851 133.194 35.4183 133.151C36.2884 129.406 40.7542 120.082 43.8266 117.787C45.2739 116.706 46.9439 116.722 48.6402 116.992ZM66.0477 131.231C65.552 128.952 64.5914 127.441 62.2967 126.705C61.7684 126.719 61.2721 126.749 60.7526 126.848C61.6361 128.526 62.4009 130.351 61.8012 132.275C61.5678 133.023 61.0925 133.661 60.3724 133.996C59.5282 134.388 58.5494 134.298 57.7015 133.968C55.6544 133.173 54.1986 131.1 53.2626 129.2C51.0689 133.466 47.6989 139.294 42.8465 140.891C41.7098 141.265 40.6162 141.332 39.4265 141.214C38.6595 142.174 37.8539 143.757 38.0136 145.035C38.1026 145.747 38.5425 146.361 39.1199 146.769C39.5681 147.085 40.3639 147.25 41.089 147.4C41.7656 147.54 42.3808 147.668 42.5948 147.894C42.583 148.238 42.4438 148.594 42.1943 148.842C41.8159 149.22 41.2752 149.197 40.7827 149.153C40.3415 149.115 39.9038 149.053 39.4695 148.965C39.4359 150.412 39.5858 151.45 40.6418 152.537C40.779 152.676 40.9193 152.813 41.0629 152.946C42.2943 153.175 43.0141 153.038 43.8368 152.881C44.2905 152.795 44.7756 152.702 45.395 152.662C45.3536 153.005 45.2998 153.359 45.245 153.719C44.9654 155.557 44.6627 157.546 45.8853 159.071C46.2066 159.472 46.5878 159.834 46.9744 160.171C47.5358 160.157 48.0799 160.072 48.6231 159.986C49.0878 159.913 49.5519 159.84 50.0257 159.812C50.0214 159.9 50.0167 159.986 50.0121 160.072C49.9494 161.234 49.8933 162.274 50.7679 163.215C51.6774 164.194 53.0256 164.42 54.2943 164.477C54.3503 164.349 54.4069 164.211 54.4659 164.066C54.7955 163.26 55.1985 162.275 55.9775 161.963C56.3031 162.119 56.3946 162.26 56.506 162.611C56.661 163.098 56.7382 163.618 56.815 164.136C56.8657 164.477 56.9163 164.818 56.989 165.148C57.3888 166.964 58.5958 168.779 60.2226 169.696C61.7292 170.545 63.5633 170.63 65.2135 170.207C65.2025 170.192 65.1917 170.176 65.1808 170.16C65.1632 170.135 65.1456 170.109 65.1274 170.084C64.7629 169.584 64.3259 169.193 63.9077 168.818C62.9998 168.004 62.1801 167.27 62.3812 165.679C62.4527 165.114 62.6254 164.678 62.9551 164.218L63.2217 164.1C63.6016 164.257 63.7866 164.534 63.9364 164.907C64.0814 165.269 64.1248 165.678 64.1676 166.081C64.1903 166.295 64.2128 166.507 64.2504 166.71C64.3505 166.798 64.4502 166.888 64.55 166.977C64.7833 167.186 65.0166 167.395 65.2549 167.598C65.8997 168.148 66.3868 168.761 66.8498 169.344C67.9259 170.699 68.8716 171.89 71.3643 171.73C73.3427 171.603 74.9785 170.349 76.1827 168.861C76.4583 168.52 76.6184 168.078 76.7771 167.639C77.0288 166.943 77.2767 166.258 77.9761 166.006L78.0138 166.01C78.3389 166.04 78.4069 166.046 78.6802 166.252C78.9284 166.874 78.9066 167.613 78.8863 168.303C78.8818 168.456 78.8774 168.605 78.8759 168.751C78.8503 171.354 79.6998 173.436 82.1964 174.563C83.5393 175.168 85.0793 175.063 86.4277 174.532C88.0523 173.891 89.8342 172.27 90.535 170.649C90.6816 170.31 90.7842 170.027 90.7559 169.651C90.5753 169.505 90.3965 169.361 90.2054 169.228C88.0718 170.288 86.5031 170.974 84.1176 170.18C83.3194 169.915 82.3059 169.413 81.9552 168.59C81.7693 168.154 81.8233 167.735 82.0216 167.316C82.0956 167.16 82.1057 167.111 82.1352 167.081C82.1627 167.053 82.2072 167.041 82.3365 166.974C82.7538 167.131 83.1037 167.4 83.4548 167.669C83.5602 167.75 83.6658 167.831 83.7733 167.909C85.2364 168.971 86.6808 169 88.3064 168.231C89.1944 167.812 89.8508 166.979 90.4228 166.254C90.9398 165.599 91.3879 165.03 91.8755 164.934L92.2608 165.111C92.4409 165.627 92.2943 166.034 92.063 166.522C91.8456 166.982 91.6064 167.434 91.3681 167.884C91.34 167.937 91.3118 167.99 91.2838 168.043C93.248 168.371 95.0279 168.117 96.7 166.957C98.4043 165.775 99.6482 163.753 99.9658 161.702C100.203 160.172 99.8811 158.472 98.9255 157.225C98.6323 156.843 98.2806 156.492 97.9361 156.149C97.8677 156.081 97.7997 156.013 97.7324 155.945C98.2548 157.443 98.3398 158.699 97.6223 160.176C96.717 162.039 94.9573 163.503 92.9793 164.105C91.6371 164.513 90.0953 164.584 88.8474 163.885C88.4782 163.678 88.1884 163.467 88.0434 163.056C88.1293 162.783 88.1412 162.76 88.3832 162.621C89.1156 162.201 90.0622 162.214 91.0587 162.228C93.0181 162.255 95.1704 162.285 96.2671 159.025C96.5952 158.049 96.4425 156.912 95.9795 156.003C95.549 155.157 94.5647 154.834 93.6133 154.521C92.5766 154.181 91.5788 153.853 91.3795 152.876C91.3908 152.847 91.4012 152.82 91.4112 152.793C91.5059 152.545 91.5575 152.409 91.8695 152.31C92.5321 152.098 93.4502 152.384 94.2584 152.636C94.5919 152.74 94.9067 152.838 95.1771 152.893C95.732 152.218 96.2624 151.54 96.7617 150.823C96.9185 149.592 96.9407 148.332 96.1211 147.303C95.3466 146.331 93.8323 145.992 92.4742 145.689C91.2207 145.408 90.1003 145.157 89.8175 144.466L89.902 144.202L90.0777 144.124C90.8789 143.762 91.538 143.387 91.84 142.511C92.0711 141.84 91.9759 141.104 91.6467 140.483C91.1641 139.572 90.1747 138.873 89.1924 138.602C87.6221 138.168 86.1961 138.856 85.0667 139.4C84.3193 139.761 83.7017 140.059 83.2582 139.927C83.045 139.389 83.2425 138.732 83.4494 138.043C83.8308 136.773 84.2443 135.396 82.1783 134.463C80.929 133.899 79.2477 133.617 77.9466 134.114C77.2387 134.385 76.6063 135.035 76.0196 135.637C75.2731 136.404 74.6003 137.096 73.9393 136.834C73.7248 136.538 73.6216 136.393 73.6677 136.015C73.7649 135.22 74.4478 134.36 74.992 133.675C75.0843 133.559 75.1726 133.448 75.2533 133.343C74.4738 132.235 73.6396 131.222 72.2175 131.005C70.7992 130.789 69.5311 131.608 68.4916 132.28C67.7102 132.785 67.0581 133.206 66.5685 133.041C66.3187 132.601 66.2213 132.104 66.1243 131.608C66.0996 131.482 66.0749 131.356 66.0477 131.231Z" fill="#FEFEFE"/>
    <path d="M86.6768 154.476L86.8023 154.579C86.915 155.217 87.138 155.771 87.3825 156.366L87.2806 156.512C86.7001 156.506 86.1624 156.282 85.6167 156.101C85.2379 155.729 84.9834 155.385 84.7594 154.904C84.7694 154.545 84.751 154.566 85.0092 154.318C85.5664 154.125 86.1226 154.342 86.6768 154.476Z" fill="#FEFEFE"/>
    <path d="M54.3891 151.862C55.1076 152.413 56.8854 153.248 57.1308 154.055C56.9749 154.406 56.8526 154.453 56.5435 154.668C56.2079 154.702 55.8823 154.744 55.5546 154.629C55.0031 154.436 54.5178 153.93 54.3103 153.391C54.0809 152.795 54.1306 152.435 54.3891 151.862Z" fill="#FEFEFE"/>
    <path d="M64.1488 154.365C64.4533 154.494 64.6197 154.567 64.8198 154.835C64.9172 155.272 64.9581 155.659 64.8167 156.094C64.5645 156.871 64.2334 157.322 63.4988 157.658C63.36 157.511 63.212 157.366 63.0937 157.202C62.8302 156.835 62.7794 156.297 62.8783 155.866C63.0404 155.157 63.5438 154.709 64.1488 154.365Z" fill="#FEFEFE"/>
    <path d="M63.3193 139.639C63.6725 139.803 63.9912 140.047 64.3473 140.21C64.8825 140.455 65.4575 140.602 65.9766 140.89C66.3062 141.073 66.4186 141.163 66.5334 141.52C66.361 141.896 66.2782 141.948 65.9398 142.193C65.5789 142.242 65.2327 142.288 64.8708 142.22C64.3695 142.127 63.8454 141.795 63.563 141.368C63.2019 140.821 63.197 140.259 63.3193 139.639Z" fill="#FEFEFE"/>
    <path d="M71.5014 150.91C71.6919 151.115 71.841 151.369 71.9032 151.643C71.9759 151.965 71.9305 152.283 71.7075 152.542C71.114 153.23 70.1586 153.272 69.3291 153.253C69.0222 152.943 68.7925 152.75 68.7262 152.296C69.1534 151.473 70.5536 151.408 71.3658 150.983C71.4113 150.96 71.4563 150.934 71.5014 150.91Z" fill="#FEFEFE"/>
    <path d="M53.3588 157.61C54.1392 158.15 55.8001 159.062 56.0198 160.013C55.8616 160.363 55.7227 160.407 55.4072 160.613C54.8169 160.626 54.3371 160.554 53.8596 160.186C53.3563 159.797 52.9857 159.325 52.932 158.674C52.8916 158.182 53.0598 157.958 53.3588 157.61Z" fill="#FEFEFE"/>
    <path d="M54.8888 137.936C55.0665 138.024 55.2164 138.1 55.3751 138.22C56.0247 138.713 57.0692 139.567 57.1722 140.426C57.0454 140.75 56.822 140.873 56.5481 141.062C55.996 141.071 55.619 140.974 55.179 140.636C54.6903 140.261 54.3914 139.78 54.3457 139.159C54.3066 138.626 54.575 138.321 54.8888 137.936Z" fill="#FEFEFE"/>
    <path d="M45.9504 148.502C46.6505 149.027 48.4343 151.319 48.5626 152.178C48.5957 152.398 48.462 152.461 48.3316 152.618C47.2727 152.192 46.3848 151.379 45.7728 150.417C45.5314 150.037 45.2931 149.528 45.4164 149.07C45.5192 148.69 45.6249 148.69 45.9504 148.502Z" fill="#FEFEFE"/>
    <path d="M62.1066 159.464C62.234 159.499 62.4381 159.551 62.5515 159.61C62.8577 159.768 62.9264 159.909 63.0544 160.203C62.9827 160.697 62.7518 160.948 62.3624 161.23C61.5132 161.847 60.8848 161.91 59.8676 161.755C59.5199 161.567 59.3123 161.404 59.1816 161.027C59.4367 160.401 61.4035 159.819 62.1066 159.464Z" fill="#FEFEFE"/>
    <path d="M70.8169 144.494C71.5463 145.159 72.2867 146.402 72.3654 147.39C72.1748 147.792 72.0794 147.817 71.7122 148.042C71.0805 147.949 70.5593 147.766 70.1545 147.241C70.1216 147.199 70.091 147.155 70.0625 147.11C70.034 147.065 70.0078 147.019 69.9838 146.971C69.9598 146.923 69.9383 146.874 69.9193 146.824C69.9001 146.774 69.8835 146.723 69.8696 146.672C69.8554 146.62 69.8438 146.568 69.8348 146.516C69.8258 146.463 69.8195 146.41 69.8157 146.357C69.812 146.304 69.8109 146.25 69.8125 146.197C69.8139 146.143 69.818 146.09 69.8248 146.037C69.9108 145.362 70.3051 144.903 70.8169 144.494Z" fill="#FEFEFE"/>
    <path d="M60.8748 146.327C61.5567 146.769 61.3225 147.655 62.061 148.35C62.1809 148.462 62.3058 148.57 62.4211 148.687C62.6679 148.938 62.7486 149.041 62.7487 149.392C62.5062 149.717 62.2804 149.803 61.9181 149.947C61.2178 149.85 60.7036 149.663 60.2767 149.067C59.9532 148.615 59.823 148.095 59.9477 147.55C60.0857 146.946 60.374 146.664 60.8748 146.327Z" fill="#FEFEFE"/>
    <path d="M71.9803 158.09C72.4487 158.442 72.5382 158.915 72.7123 159.446C72.9957 160.31 73.776 160.905 74.3363 161.606C74.1758 161.954 73.9853 161.968 73.6559 162.134C72.8736 161.937 72.2633 161.628 71.7478 160.995C71.3527 160.511 71.1118 159.959 71.1874 159.326C71.2588 158.729 71.5204 158.448 71.9803 158.09Z" fill="#FEFEFE"/>
    <path d="M77.3451 152.724C77.8623 153.129 78.0771 153.833 78.4562 154.361C78.8257 154.875 79.3259 155.275 79.7015 155.798C79.5165 156.119 79.1423 156.179 78.8058 156.318C78.6678 156.328 78.531 156.328 78.3927 156.322C77.8304 156.297 77.4782 156.123 77.115 155.689C76.7109 155.205 76.5137 154.628 76.5889 154C76.6636 153.374 76.8749 153.091 77.3451 152.724Z" fill="#FEFEFE"/>
    <path d="M51.0804 144.614C51.1479 144.645 51.2148 144.677 51.2828 144.707C51.9819 145.019 52.0626 145.536 52.5914 146C53.0291 146.384 53.6301 146.543 54.0783 146.905C54.2947 147.08 54.2936 147.127 54.3263 147.387C54.0935 147.744 53.7643 147.842 53.3891 148.002C52.7286 148.01 52.3487 147.869 51.8402 147.446C51.3022 146.999 50.5908 146.207 50.6238 145.445C50.6438 144.982 50.7798 144.916 51.0804 144.614Z" fill="#FEFEFE"/>
    <path d="M87.993 142.735C88.2214 142.883 88.4275 143.028 88.5598 143.274C89.0446 144.176 89.048 145.621 88.7632 146.58C88.597 147.14 88.3113 147.389 87.8119 147.664L87.2996 147.39C86.8888 146.789 87.0353 145.272 87.1108 144.536C87.1473 144.181 87.1314 143.68 87.2497 143.348C87.3835 142.972 87.669 142.903 87.993 142.735Z" fill="#FEFEFE"/>
    <path d="M70.4639 164.344C71.2001 164.874 71.189 165.74 71.8444 166.349C72.3053 166.778 73.2158 166.78 73.7741 167.174L73.776 167.425C73.5245 167.783 73.1662 167.932 72.7892 168.129C72.5015 168.187 72.2059 168.236 71.911 168.201C71.241 168.124 70.5298 167.53 70.1351 167.016C69.7786 166.552 69.5764 165.937 69.6885 165.353C69.7895 164.826 70.0532 164.632 70.4639 164.344Z" fill="#FEFEFE"/>
    <path d="M80.449 144.215C80.5961 144.449 80.6671 144.599 80.7059 144.878C80.7691 145.336 80.6062 145.859 80.3348 146.225C79.8138 146.927 78.8565 147.267 78.0165 147.344C76.9765 147.439 76.4481 147.12 75.6624 146.477C75.5839 146.384 75.5038 146.293 75.4318 146.195C75.1823 145.858 75.0432 145.565 75.1029 145.139C75.1759 145.068 75.2207 144.936 75.3218 144.926C75.8021 144.878 77.0154 145.638 77.7114 145.617C78.671 145.588 79.5518 144.576 80.449 144.215Z" fill="#FEFEFE"/>
    <path d="M82.8773 159.485C82.9801 159.552 83.1437 159.649 83.2199 159.743C83.4334 160.005 83.4176 160.167 83.363 160.466C82.9725 160.998 82.1462 161.28 81.5724 161.594C79.8252 162.548 81.5564 163.893 81.1754 165.189L80.7144 165.358C80.4421 165.197 80.1468 165.038 79.9069 164.83C79.4434 164.429 79.1534 163.712 79.1061 163.112C79.0428 162.306 79.3638 161.461 79.8843 160.852C80.7071 159.889 81.6468 159.57 82.8773 159.485Z" fill="#FEFEFE"/>
    <path d="M47.9674 124.425C48.1312 124.479 48.2565 124.516 48.4154 124.591C48.814 124.78 49.2512 125.834 49.3689 126.268C49.5024 126.761 49.4512 127.249 49.2147 127.698C48.8785 127.998 48.5401 127.973 48.1143 127.995C47.826 127.934 47.567 127.873 47.307 127.729C47.2495 127.697 47.1938 127.663 47.1399 127.626C47.0861 127.588 47.0345 127.548 46.9849 127.505C46.9352 127.463 46.8879 127.418 46.843 127.37C46.7983 127.322 46.7561 127.272 46.7165 127.22C46.6769 127.168 46.6401 127.114 46.6063 127.058C46.5724 127.002 46.5416 126.944 46.514 126.885C46.4862 126.825 46.4616 126.765 46.4401 126.703C46.4188 126.641 46.4007 126.578 46.3859 126.514C46.2727 126.039 46.3689 125.558 46.6464 125.158C46.9922 124.658 47.3888 124.521 47.9674 124.425Z" fill="#FEFEFE"/>
    <path d="M44.5406 123.507C44.422 123.382 44.3354 123.284 44.1995 123.172C43.8586 122.893 42.7187 122.948 42.2755 123.027C41.7729 123.117 41.3538 123.372 41.0488 123.778C40.9213 124.21 41.0892 124.505 41.2505 124.9C41.4291 125.134 41.595 125.342 41.8367 125.516C41.8897 125.554 41.9445 125.59 42.0013 125.623C42.058 125.655 42.1163 125.685 42.1762 125.712C42.2359 125.738 42.297 125.762 42.3594 125.782C42.4216 125.802 42.4848 125.819 42.5489 125.832C42.613 125.846 42.6777 125.856 42.7429 125.862C42.808 125.869 42.8733 125.872 42.9388 125.872C43.0042 125.872 43.0695 125.868 43.1346 125.861C43.1998 125.854 43.2643 125.843 43.3283 125.829C43.8065 125.728 44.2 125.436 44.4435 125.014C44.7472 124.488 44.7019 124.07 44.5406 123.507Z" fill="#FEFEFE"/>
</svg>
