<svg width="180" height="300" viewBox="0 0 180 300" fill="none" xmlns="http://www.w3.org/2000/svg">
    <g opacity="0.5" clip-path="url(#clip0_929_1308)">
        <path fill-rule="evenodd" clip-rule="evenodd" d="M91.6898 126.471L91.5994 126.184C90.9284 124.114 90.0581 122.133 89.1924 120.162L89.1924 120.162C87.5776 116.486 85.979 112.847 85.7201 108.733C84.6578 91.87 91.6334 75.0493 103.096 62.5301C103.284 62.3239 103.504 62.08 103.749 61.8074C106.054 59.2479 110.634 54.1602 113.404 54C113.587 54.7679 113.476 55.1616 113.282 55.8419C113.261 55.916 113.239 55.9935 113.216 56.0753C112.737 57.7969 112.056 59.4958 111.376 61.1904L111.376 61.1905L111.376 61.1906L111.376 61.1908L111.376 61.191L111.376 61.1911L111.376 61.1913L111.376 61.1915L111.376 61.1917L111.376 61.1919L111.376 61.192L111.376 61.1922L111.376 61.1924L111.376 61.1926L111.375 61.1928L111.375 61.1929L111.375 61.1931L111.375 61.1933C110.918 62.3336 110.462 63.4718 110.068 64.6137C108.277 69.8143 106.815 75.2053 105.411 80.5166C102.304 92.2708 100.829 103.799 99.5976 115.838C111.898 97.6287 123.325 89.3714 144.05 81.6414C148.149 80.1124 164.49 75.797 168.413 77.4994C168.541 78.5071 164.286 80.6461 162.207 81.6915L162.207 81.6916C161.8 81.8961 161.477 82.0586 161.286 82.1628C149.21 88.7397 138.697 97.8526 128.391 106.785C127.659 107.419 126.929 108.053 126.199 108.684C124.227 110.39 122.236 112.07 120.246 113.749L120.245 113.75C117.386 116.163 114.528 118.575 111.724 121.064C110.565 122.093 109.384 123.093 108.206 124.091L108.205 124.092L108.205 124.092L108.205 124.092L108.204 124.093L108.204 124.093L108.204 124.093L108.203 124.093L108.203 124.094L108.203 124.094L108.202 124.094L108.202 124.095L108.202 124.095L108.201 124.095L108.201 124.096L108.201 124.096L108.2 124.096L108.2 124.096L108.2 124.097L108.199 124.097L108.199 124.097L108.199 124.098L108.198 124.098L108.198 124.098L108.198 124.099L108.197 124.099L108.197 124.099L108.197 124.099L108.196 124.1L108.196 124.1L108.195 124.1L108.195 124.101L108.195 124.101L108.194 124.101L108.194 124.102L108.194 124.102C104.471 127.255 100.773 130.388 97.8555 134.333C101.282 132.871 104.44 130.978 107.6 129.084L107.6 129.084L107.6 129.084C111.668 126.646 115.739 124.207 120.386 122.682C136.132 117.515 154.695 120.409 169.291 127.565C172.931 129.351 181.282 133.765 182.356 137.886C182.449 138.241 182.314 138.387 182.124 138.593C182.067 138.654 182.006 138.72 181.944 138.799C180.261 138.916 177.013 138.021 173.941 137.174C171.996 136.638 170.121 136.122 168.758 135.893C160.23 134.465 151.849 133.946 143.203 134.295C137.782 134.514 132.11 135.38 126.787 136.376C125.438 136.629 123.571 137.055 121.476 137.534L121.476 137.534L121.476 137.534L121.476 137.535L121.476 137.535C115.71 138.853 108.214 140.566 104.997 140.137C98.8657 138.69 92.89 138.871 86.8222 139.055H86.8221H86.822H86.8218H86.8217H86.8216H86.8214H86.8213H86.8212H86.821H86.8209H86.8207H86.8206H86.8205H86.8203H86.8202H86.82H86.8198H86.8197H86.8195H86.8194H86.8192H86.819H86.8189H86.8187H86.8186H86.8184H86.8182H86.8181H86.8179H86.8178H86.8176H86.8174H86.8173H86.8171H86.817H86.8168C83.991 139.141 81.1451 139.228 78.2542 139.15C85.2804 141.479 96.6095 142.281 103.822 140.786L103.515 141.014L103.009 141.4C102.872 141.503 102.731 141.605 102.59 141.707L102.589 141.708C102.155 142.023 101.713 142.343 101.341 142.711C100.739 143.306 100.462 143.714 100.486 144.56C101.686 144.933 103.853 144.502 105.796 144.117C106.791 143.919 107.727 143.733 108.444 143.673C111.342 143.429 114.2 143.55 117.093 143.813C130.263 145.013 140.811 152.104 149.061 161.898C152.909 166.465 164.049 184.066 163.402 189.975L162.932 190.282C161.555 189.685 157.91 185.416 155.101 182.127L155.101 182.126L155.099 182.124L155.099 182.123L155.098 182.123L155.098 182.123L155.097 182.121C153.857 180.67 152.781 179.41 152.136 178.742C140.234 166.418 122.748 157.037 105.781 153.215C104.513 156.327 102.973 158.463 100.439 160.722C100.122 167 100.3 173.308 100.477 179.598V179.598C100.517 181.002 100.556 182.405 100.59 183.806C100.851 192.485 100.956 201.165 100.905 209.846C100.907 211.34 100.969 212.887 101.031 214.45L101.031 214.452L101.031 214.453V214.453V214.453V214.454V214.454V214.454C101.15 217.443 101.272 220.487 100.98 223.309C100.873 224.343 100.649 225.602 100.005 226.462C99.6895 226.883 99.5789 226.899 99.2385 226.948L99.1712 226.958C99.1465 226.961 99.1206 226.965 99.0935 226.97C99.0409 226.978 98.9837 226.988 98.9207 227C98.9063 226.99 98.8917 226.98 98.877 226.971L98.8519 226.954L98.8071 226.926C98.7345 226.879 98.6619 226.833 98.596 226.778C97.5149 225.872 97.3956 224.242 97.2936 222.849L97.2936 222.848C97.2757 222.604 97.2584 222.367 97.2365 222.143C95.9598 222.176 94.5773 222.043 93.1825 221.909H93.1824H93.1823C91.0764 221.706 88.9425 221.501 87.1028 221.86C87.0503 222.008 86.9985 222.156 86.9466 222.306L86.9465 222.306C86.7459 222.883 86.5428 223.466 86.2878 224.016C85.8987 224.857 85.6637 225.089 84.7843 225.399C84.1132 225.211 83.871 224.994 83.4045 224.497C82.845 221.871 83.2425 217.952 83.5975 214.454C83.7467 212.983 83.8884 211.587 83.9484 210.391L86.7716 161.605C82.4379 159.853 80.8081 156.695 78.8381 152.878L78.6642 152.541C77.8429 152.806 77.0212 153.068 76.2 153.331C71.7178 154.761 67.2502 156.186 62.9303 158.065C51.4342 163.064 40.7647 170.976 31.4728 179.17C29.7734 180.669 28.138 182.237 26.5028 183.805C24.4333 185.79 22.3642 187.774 20.1661 189.616L19.7973 189.922C23.2656 175.812 34.7509 159.045 46.8544 150.476C53.2776 145.928 62.1211 141.237 70.2907 141.132C71.6301 141.115 73.042 141.348 74.4012 141.571C74.7548 141.63 75.1048 141.687 75.449 141.74C62.3797 135.507 48.3966 135.443 34.2862 135.379L34.2822 135.379L34.2783 135.379L34.2743 135.379L34.2704 135.379L34.2665 135.378L34.2627 135.378C33.5495 135.375 32.836 135.372 32.1222 135.368L30.6295 135.36H30.6292C20.5705 135.305 9.90879 135.247 0 133.978C0.331691 133.716 0.666767 133.457 1.00521 133.203C9.30711 126.963 27.4853 121.765 37.9061 120.234C44.2525 119.301 51.2014 118.99 57.5782 119.793C67.4516 121.036 79.2232 125.46 85.4706 133.291C84.8118 133.815 84.1928 134.354 83.5738 134.92L83.7271 135.156L87.3357 134.135C85.3319 130.759 82.0368 127.739 78.9429 124.904L78.9428 124.904C77.9768 124.018 77.0304 123.151 76.1491 122.296C63.6384 110.164 50.9931 98.6664 37.3 87.7883C36.4077 87.0794 34.7251 85.9348 32.8643 84.669L32.864 84.6687L32.8638 84.6686L32.8637 84.6685L32.8636 84.6685L32.8636 84.6685L32.8636 84.6685L32.8635 84.6684L32.8635 84.6684C29.3485 82.2773 25.1982 79.4541 24.5391 78.3194L24.8529 77.8133C30.3143 76.3299 49.4058 82.3865 54.7688 84.9244C69.258 91.781 80.0476 104.221 85.2927 118.951C86.1593 121.385 86.7892 123.887 87.4197 126.391L87.4197 126.391L87.4198 126.391L87.4198 126.391L87.4198 126.391L87.4198 126.391L87.4199 126.391L87.4199 126.391L87.4199 126.392L87.4199 126.392L87.42 126.392L87.42 126.392L87.42 126.392L87.42 126.392L87.42 126.392L87.4201 126.392L87.4201 126.392L87.4201 126.392L87.4201 126.392L87.4202 126.393L87.4202 126.393L87.4202 126.393L87.4202 126.393L87.4202 126.393L87.4203 126.393L87.4203 126.393L87.4203 126.393L87.4203 126.393L87.4204 126.393L87.4204 126.393L87.4204 126.394L87.4204 126.394L87.4205 126.394L87.4205 126.394L87.4205 126.394L87.4205 126.394C88.0411 128.859 88.6624 131.326 89.5102 133.734C91.0932 133.607 92.6904 133.584 94.2831 133.562H94.2836C94.7891 133.555 95.2941 133.548 95.7981 133.537C95.784 132.953 95.8325 132.301 95.8826 131.625C96.0184 129.798 96.1669 127.799 95.1234 126.505C94.1606 126.046 93.2196 126.209 92.2268 126.381L92.2261 126.381C92.0491 126.412 91.8705 126.443 91.6898 126.471ZM87.4678 145.466C87.7773 145.469 88.1177 145.464 88.4761 145.458C90.0019 145.434 91.8542 145.405 93.0412 145.974L92.825 146.5C92.6537 146.571 92.4788 146.647 92.3011 146.723C91.1411 147.223 89.8582 147.775 88.6335 147.564C87.8742 147.022 87.7792 146.653 87.5991 145.954C87.5614 145.807 87.5199 145.646 87.4678 145.466ZM68.1549 146.516L66.8264 146.246L65.704 147.077C65.6679 148.564 66.1503 149.35 67.2003 150.385C67.564 150.744 67.8873 150.913 68.3761 151.068C68.5282 150.937 68.666 150.834 68.7891 150.742C69.2039 150.432 69.4505 150.248 69.5057 149.555C69.6142 148.193 69.0205 147.487 68.1549 146.516ZM138.004 88.9954L138.569 89.0588L138.997 89.7215C139.018 90.7398 138.884 91.5799 138.281 92.448C137.739 93.2279 137.382 93.6644 136.429 93.836L134.188 91.4152L138.004 88.9954ZM110.773 131.033C110.756 131.028 110.738 131.023 110.721 131.017C110.502 131.116 110.292 131.202 110.091 131.285L110.09 131.285L110.088 131.286L110.088 131.286C109.294 131.612 108.64 131.881 108.146 132.687C108.574 133.579 109.809 134.324 110.836 134.942L110.836 134.942C111.115 135.111 111.379 135.27 111.607 135.42L113.027 135.271C113.125 135.143 113.203 135.053 113.264 134.983C113.465 134.753 113.478 134.738 113.406 134.256C113.242 133.166 112.057 131.757 111.116 131.152C111.038 131.102 110.946 131.078 110.855 131.055C110.827 131.048 110.8 131.041 110.773 131.033ZM101.455 71.3303L102.282 71.9153C102.646 72.5308 102.686 72.9835 102.64 73.6759C102.551 75.0172 102.013 77.6105 100.985 78.5264C100.892 78.4707 100.8 78.4174 100.711 78.3654C99.971 77.9345 99.3926 77.5978 99.0654 76.718C99.1605 75.2973 99.9738 73.9062 100.745 72.5876C100.994 72.1604 101.24 71.7409 101.455 71.3303ZM141.911 159.77C141.571 158.865 140.427 157.951 139.587 157.476C139.487 157.732 139.379 157.991 139.269 158.253L139.269 158.253L139.269 158.254L139.269 158.254L139.268 158.254L139.268 158.255C138.765 159.456 138.237 160.713 138.434 161.984C138.919 162.932 139.61 163.331 140.47 163.827L140.554 163.876C140.619 163.913 140.684 163.951 140.751 163.99C140.833 163.838 140.92 163.683 141.009 163.525C141.657 162.378 142.397 161.067 141.911 159.77ZM75.3602 108.923C76.2786 109.712 77.2115 110.8 77.3041 112.013C77.1093 113.118 76.4166 113.79 75.6567 114.527L75.6565 114.527L75.6563 114.527C75.536 114.644 75.4141 114.762 75.2922 114.884C74.5836 114.189 73.8967 113.468 73.2105 112.748L73.2096 112.747C72.9003 112.423 72.5912 112.099 72.2803 111.777C72.9812 111.089 73.7119 110.425 74.4418 109.761C74.7489 109.483 75.0557 109.204 75.3602 108.923ZM152.319 126.024C152.044 125.988 151.77 125.952 151.5 125.911C151.55 126.144 151.596 126.383 151.641 126.625C151.861 127.786 152.092 129.004 152.96 129.838C153.913 130.374 154.936 130.394 155.995 130.415C156.182 130.418 156.37 130.422 156.559 130.428C156.566 130.25 156.577 130.075 156.587 129.901C156.648 128.897 156.704 127.969 156.025 127.098C154.943 126.368 153.618 126.195 152.319 126.024ZM54.4966 90.4257L54.4968 90.4257C54.7627 90.565 55.0286 90.7043 55.295 90.8425L53.1031 93.5941C51.9464 93.5213 50.6733 92.4633 49.5938 91.566C49.2695 91.2965 48.9626 91.0415 48.6816 90.832C49.239 90.1849 49.6536 89.4612 50.0725 88.73L50.0727 88.7296C50.1352 88.6205 50.1978 88.5112 50.261 88.4019C51.7239 88.973 53.1104 89.6994 54.4966 90.4256L54.4966 90.4257ZM80.8699 145.3L80.8698 145.3C80.8419 145.305 80.8091 145.31 80.7702 145.316C80.4362 145.325 80.0795 145.322 79.7121 145.32C78.4359 145.31 77.03 145.299 75.9951 145.8C75.7131 146.834 75.8794 147.434 76.1673 148.424L76.9439 148.733C77.2073 148.731 77.4839 148.738 77.7679 148.744H77.7683H77.7687H77.7691H77.7695H77.7699H77.7703H77.7707H77.7712H77.7716H77.7719H77.7723H77.7727H77.7731H77.7735H77.7738H77.7742H77.7746H77.7749H77.7752H77.7754H77.7757H77.7759H77.7761H77.7763H77.7765H77.7766C78.987 148.772 80.3274 148.803 81.3176 148.244C81.7577 147.361 81.6913 146.876 81.5808 146.067C81.5597 145.913 81.5369 145.746 81.5158 145.563C81.3075 145.457 81.2023 145.387 81.1372 145.344C81.0906 145.313 81.0646 145.296 81.0361 145.289C81.0002 145.28 80.9602 145.286 80.8699 145.3ZM119.601 148.46L119.692 148.477L119.786 148.494C120.605 148.641 121.556 148.812 122.109 149.391C123.338 150.677 123.312 152.731 123.292 154.378L123.292 154.414C122.28 154.175 121.273 153.865 120.271 153.558L120.271 153.558L120.271 153.558L120.27 153.558L120.27 153.558L120.27 153.558L120.27 153.558L120.27 153.558L120.27 153.557L120.269 153.557L120.269 153.557L120.269 153.557L120.269 153.557L120.269 153.557L120.269 153.557L120.268 153.557L120.268 153.557L120.268 153.557L120.268 153.557L120.268 153.557L120.268 153.557L120.268 153.557L120.267 153.557L120.267 153.557L120.267 153.557L120.267 153.557C119.809 153.416 119.352 153.276 118.896 153.143L119.403 148.423C119.457 148.433 119.512 148.444 119.567 148.454L119.601 148.46ZM98.3971 82.512C97.7213 81.9192 97.0354 81.3176 96.3169 80.8234C95.643 82.5272 95.0463 84.1807 94.585 85.9534L98.639 87.4809C99.2862 86.7258 99.3047 85.2981 99.3197 84.1381V84.138V84.138V84.1379V84.1378V84.1378V84.1377V84.1376V84.1376V84.1375C99.3235 83.8448 99.3271 83.5691 99.3405 83.3256C99.0268 83.0644 98.7132 82.7893 98.3973 82.5122L98.3971 82.512ZM140.546 124.512C141.772 124.509 143.003 124.63 144.228 124.75C144.545 124.781 144.862 124.812 145.178 124.841C145.499 126.645 145.791 128.454 146.053 130.267C145.911 130.281 145.766 130.299 145.619 130.316C144.911 130.4 144.156 130.489 143.502 130.246C142.356 129.822 141.469 127.204 140.894 125.504C140.761 125.112 140.645 124.768 140.546 124.512ZM30.872 130.098C30.8171 128.943 30.7579 127.7 30.2998 126.705C30.0739 126.737 29.834 126.767 29.5851 126.798L29.5846 126.798L29.5843 126.798L29.5841 126.798L29.5838 126.798L29.5836 126.798L29.5834 126.798L29.5831 126.798L29.583 126.798H29.5829C27.98 126.998 26.0043 127.245 25.0019 128.412C24.7639 128.69 24.7354 128.969 24.7031 129.286C24.6946 129.369 24.6858 129.456 24.6729 129.545C24.7175 129.659 24.7571 129.771 24.796 129.882C24.9425 130.297 25.0793 130.685 25.4387 130.993L30.9239 131.014C30.9016 130.72 30.8869 130.412 30.872 130.098ZM73.9535 129.631C74.8089 130.138 75.709 130.598 76.6052 131.056C77.0387 131.278 77.4713 131.499 77.8976 131.724L74.3917 135.745C73.657 135.895 72.519 135.456 71.599 135.101L71.5987 135.101L71.5974 135.101L71.5962 135.1L71.5944 135.1C71.3307 134.998 71.0851 134.903 70.8721 134.832C71.9568 133.126 72.9584 131.386 73.9535 129.631ZM51.9287 157.246C51.553 156.031 51.1174 154.622 50.35 153.873C48.6969 154.915 47.15 155.948 45.6523 157.197C46.9287 158.293 47.5745 158.955 48.0691 160.562L52.2678 158.292C52.1552 157.979 52.0448 157.622 51.9287 157.246ZM92.1849 90.7017C92.858 91.2441 93.658 91.6188 94.4517 91.9905C95.5262 92.4937 96.5891 92.9915 97.3099 93.8926C97.7225 94.9029 97.4518 95.821 97.1641 96.7969C97.1134 96.9688 97.0622 97.1425 97.0141 97.3188C96.7559 97.2302 96.4689 97.1409 96.1667 97.0469C94.8752 96.6451 93.3049 96.1565 92.5067 95.2617C91.5209 94.1566 91.8007 92.7129 92.0611 91.3701L92.0612 91.3693C92.105 91.1432 92.1483 90.92 92.1849 90.7017ZM105.803 119.792L105.802 119.792L105.802 119.792L105.802 119.791L105.802 119.791L105.802 119.791L105.802 119.791L105.802 119.791L105.802 119.791L105.802 119.791L105.802 119.791L105.802 119.791L105.801 119.791L105.801 119.791L105.801 119.791L105.801 119.791C104.77 119.118 103.725 118.437 102.817 117.632C101.364 119.911 100.495 122.243 100.234 124.92L100.545 125.575C101.227 125.328 101.551 125.053 102.056 124.551C102.553 124.101 103.055 123.654 103.557 123.206L103.558 123.205L103.561 123.202C104.61 122.267 105.66 121.33 106.675 120.365C106.388 120.173 106.096 119.983 105.803 119.792L105.803 119.792L105.803 119.792ZM58.6947 148.861L59.3116 148.886C60.0936 149.793 60.5222 151.204 60.9065 152.471C61.0211 152.848 61.1318 153.213 61.2467 153.547L57.6461 155.378C56.8121 154.46 56.171 153.218 55.564 152.043C55.35 151.629 55.1402 151.222 54.9277 150.841C55.8501 150.275 56.833 149.787 57.8099 149.303L57.81 149.303L57.8101 149.303L57.8101 149.302C58.1061 149.156 58.4016 149.009 58.6947 148.861ZM63.7674 96.1264L63.7673 96.1264C62.7362 95.2309 61.7146 94.3439 60.4387 93.7818C60.2029 94.0996 59.9685 94.4188 59.734 94.7383L59.7334 94.739L59.7321 94.7408L59.7315 94.7416C58.8979 95.8769 58.0626 97.0145 57.1592 98.0958C57.3796 98.2631 57.6204 98.4663 57.8751 98.6812C58.7401 99.4109 59.7649 100.276 60.694 100.33L60.7613 100.283L64.3359 96.6167C64.145 96.4543 63.956 96.2902 63.7674 96.1264L63.7674 96.1264ZM118.499 127.243C118.559 127.239 118.621 127.235 118.684 127.231H118.684H118.684H118.684C119.209 127.195 119.795 127.155 120.265 127.251C121.129 127.426 121.852 128.229 122.398 128.862C123.263 129.865 123.274 130.527 123.131 131.741C122.576 132.51 122.171 132.592 121.432 132.743L121.432 132.743C121.263 132.778 121.076 132.816 120.866 132.867C119.985 132.717 118.267 130.994 117.641 130.263C117.032 129.55 116.618 128.917 116.765 128.009L118.302 127.255C118.366 127.251 118.432 127.247 118.499 127.243ZM114.165 112.595C113.456 111.14 112.609 109.4 111.4 108.6C109.946 109.931 108.694 111.275 107.458 112.797C107.884 113.034 108.314 113.269 108.743 113.505L108.744 113.505L108.744 113.505L108.745 113.505L108.745 113.506L108.746 113.506L108.746 113.506L108.747 113.506L108.747 113.507L108.748 113.507L108.748 113.507L108.748 113.507L108.749 113.508L108.749 113.508C109.853 114.112 110.96 114.717 112.022 115.378C113.059 115.206 113.666 114.59 114.337 113.909L114.338 113.908C114.443 113.802 114.549 113.694 114.659 113.586C114.5 113.284 114.337 112.948 114.165 112.595ZM129.152 93.595C130.094 94.16 130.842 95.5505 131.451 96.6836C131.608 96.9754 131.756 97.2501 131.895 97.4893C130.907 98.4356 129.912 99.3745 128.908 100.306L128.334 100.294C127.02 99.0293 125.688 97.9657 124.202 96.9014C125.527 95.8447 126.967 94.9514 128.41 94.0567C128.657 93.9031 128.905 93.7495 129.152 93.595ZM132.428 153.054C131.402 152.505 130.375 151.956 129.336 151.431C129.085 153.303 128.845 155.177 128.615 157.052L128.67 157.078C130.281 157.867 131.837 158.628 133.57 159.15C133.799 157.311 133.823 155.603 133.75 153.759C133.311 153.526 132.873 153.292 132.435 153.058L132.433 153.057L132.432 153.056L132.43 153.055L132.428 153.054ZM130.965 124.887C131.664 124.834 132.354 124.833 133.052 124.832L133.282 124.831C133.966 125.262 134.321 125.68 134.713 126.36C135.593 127.885 135.415 128.885 134.979 130.526C134.352 131.184 133.842 131.227 133.088 131.29C132.901 131.306 132.699 131.322 132.476 131.35L131.829 131.249C131.638 130.986 131.452 130.719 131.278 130.445L131.158 130.255C130.299 128.906 128.947 126.781 129.324 125.272L130.965 124.887ZM71.4109 103.654C70.4402 102.426 69.1993 100.856 67.913 100.477C67.726 100.657 67.5383 100.837 67.3507 101.017C66.2881 102.035 65.2262 103.053 64.2871 104.181L64.3498 104.241L64.35 104.241C65.7906 105.632 67.2088 107 68.8097 108.222C69.8041 106.828 70.7847 105.622 72.0213 104.413C71.8332 104.189 71.6289 103.93 71.4109 103.654ZM90.4287 100.405C92.3639 101.412 94.3135 102.35 96.3051 103.248C96.202 104.368 96.0451 105.488 95.8884 106.605L95.8882 106.607L95.888 106.608L95.8879 106.609L95.8877 106.611L95.8875 106.612L95.8873 106.613L95.8871 106.615L95.8869 106.616L95.8868 106.617C95.8285 107.033 95.7703 107.448 95.715 107.863C94.6413 108.03 93.3044 107.742 92.1013 107.482L92.1011 107.482C91.7128 107.399 91.3384 107.318 90.9913 107.257C90.3216 104.894 90.2276 102.82 90.4287 100.405ZM42.1059 124.904C41.3523 124.795 40.8056 124.798 40.055 124.922C39.7998 124.954 39.5586 124.973 39.329 124.992H39.3289H39.3288C38.3907 125.066 37.6478 125.124 36.9483 125.975C36.2547 126.819 35.9872 127.764 36.0552 128.824L36.0615 128.837C36.5188 129.714 36.7642 130.184 37.6165 130.777C38.6148 130.931 39.5386 130.867 40.5349 130.799L40.6053 130.794C40.7387 130.771 40.8576 130.76 40.9656 130.75C41.3289 130.716 41.5683 130.694 41.818 130.278C42.5434 129.069 43.0966 127.003 42.5918 125.635C42.4777 125.326 42.3685 125.203 42.1946 125.006C42.1668 124.974 42.1373 124.941 42.1059 124.904ZM120.316 99.5099C121.323 100.607 122.193 102.033 123.023 103.394C123.353 103.934 123.676 104.464 123.999 104.959L119.772 109.207C118.569 107.338 117.29 105.541 115.975 103.745C117.171 102.41 118.49 101.194 119.81 99.977L119.81 99.9769L119.812 99.9755L120.039 99.766L120.316 99.5099ZM56.0789 124.642L49.023 124.144C48.605 126.48 47.9824 128.709 47.2939 130.983L47.8806 131.025L47.8809 131.025L47.8811 131.025L47.8813 131.025L47.8815 131.025L47.8818 131.025L47.882 131.025C49.7959 131.161 51.7082 131.298 53.6151 131.512C54.3231 129.157 55.1012 126.905 56.0789 124.642ZM62.6219 125.582C65.0951 125.971 67.2292 126.792 69.497 127.775C68.3552 129.637 67.1713 131.328 65.7612 133.011L65.2361 133.345C63.5875 133.091 61.975 132.723 60.3523 132.353L60.352 132.353L60.1104 132.298C60.7301 130.412 61.4559 128.56 62.1812 126.709C62.3284 126.334 62.4756 125.958 62.6219 125.582ZM88.9846 152.111C87.9003 152.154 86.8165 152.197 85.7344 152.224C86.0555 153.85 86.2876 154.821 87.7744 155.798C88.8523 156.506 90.2575 156.965 91.5669 157.392L91.5673 157.392C91.9242 157.509 92.2739 157.623 92.608 157.739C94.3103 157.045 95.8456 156.379 97.3606 155.328C97.4919 155.197 97.6158 155.078 97.7323 154.966C98.3284 154.393 98.7347 154.002 98.9791 153.085C97.8498 151.983 96.4441 151.978 94.9174 151.972L94.7247 151.971C92.8139 151.961 90.8985 152.036 88.9846 152.111ZM88.8478 199.713C91.5814 200.22 94.1804 200.18 96.9444 200.051C96.9445 200.525 96.9679 201.029 96.9919 201.548C97.0663 203.156 97.1469 204.897 96.5618 206.26C93.6822 207.013 91.3565 206.74 88.4805 206.278C88.5188 204.075 88.6468 201.908 88.8478 199.713ZM97.0252 165.27C94.8292 164.778 92.6272 164.311 90.4191 163.87C90.2253 166.913 90.0402 169.942 90.0322 172.992C90.3748 173.048 90.7173 173.11 91.0596 173.172L91.0601 173.172L91.0605 173.172C92.8704 173.498 94.6772 173.823 96.4886 173.322C97.4662 171.732 97.2624 168.819 97.107 166.597C97.0732 166.116 97.0418 165.667 97.0252 165.27ZM89.6046 176.692C91.3351 176.975 93.1278 177.104 94.9046 177.232C95.6249 177.283 96.3426 177.335 97.0524 177.397C97.0922 179.205 97.0953 181.015 97.0984 182.825C97.0999 183.681 97.1013 184.536 97.1067 185.391C95.2877 185.356 93.4466 185.185 91.6168 185.015L91.6164 185.015C90.8755 184.946 90.1364 184.878 89.4014 184.818C89.4146 182.919 89.4736 181.018 89.5327 179.117C89.5579 178.309 89.583 177.5 89.6046 176.692ZM97.2264 189.037C94.4799 188.838 91.7318 188.66 88.9824 188.502L88.9404 195.95C89.4222 196.008 89.9514 196.09 90.5071 196.176C92.6469 196.508 95.181 196.901 96.9198 196.208C97.3035 194.22 97.2722 192.191 97.2412 190.171C97.2353 189.793 97.2295 189.414 97.2264 189.037Z" fill="#FEFEFE"/>
    </g>
    <defs>
        <clipPath id="clip0_929_1308">
            <rect width="180" height="300" fill="white"/>
        </clipPath>
    </defs>
</svg>
