<svg width="180" height="300" viewBox="0 0 180 300" fill="none" xmlns="http://www.w3.org/2000/svg">
    <g opacity="0.5">
        <path fill-rule="evenodd" clip-rule="evenodd" d="M85.7745 2.26471C81.0075 0.125705 76.2355 -0.285291 71.0714 0.161709C63.8104 2.30971 60.2005 5.4957 55.8335 11.5937C50.6085 8.5487 44.7275 7.0967 38.7715 8.7467C33.2015 10.2887 28.8815 14.4327 26.2035 19.4577C25.432 20.9074 24.8212 22.4509 24.2164 23.979C24.1721 24.091 24.1278 24.2029 24.0835 24.3147C18.1565 23.0897 12.9134 22.7837 7.66544 26.3987C7.17544 26.738 6.7038 27.1014 6.25046 27.4887C5.79713 27.8754 5.36412 28.284 4.95145 28.7147C4.53945 29.1454 4.15009 29.5957 3.78342 30.0657C3.41609 30.535 3.07378 31.022 2.75645 31.5267C2.43845 32.0307 2.14678 32.5497 1.88145 33.0837C1.61611 33.6177 1.37843 34.1634 1.16843 34.7207C0.957767 35.2787 0.776117 35.8457 0.62345 36.4217C0.470117 36.9977 0.346108 37.58 0.251441 38.1687C-0.404559 42.2907 0.149466 46.8887 2.78947 50.2567C5.43847 53.6387 9.34543 55.0547 13.5124 55.4467C20.2416 56.0789 27.2006 55.9134 34.1124 55.749C37.9157 55.6585 41.7048 55.5684 45.4334 55.6117L83.7204 55.9437C85.6426 55.9581 87.6266 56.0248 89.6377 56.0924C95.4697 56.2884 101.53 56.4922 106.975 55.4497C109.913 54.8877 112.688 53.6777 114.865 51.5917C117.794 48.7857 119.094 44.9297 119.147 40.9347C119.209 36.3027 117.468 31.7417 114.071 28.5487C110.601 25.2857 106.801 24.3397 102.274 23.5727C98.9725 14.6857 94.9464 6.38171 85.7745 2.26471ZM76.7687 8.10471C75.3737 7.96971 74.0557 7.97171 72.6607 8.07371C69.4447 9.07771 67.0717 10.1927 65.4797 13.3187C64.9875 14.2847 64.6191 15.4954 64.2389 16.7446C63.4411 19.366 62.5917 22.1572 60.4387 23.2137C57.5413 23.4881 55.1739 21.7926 52.6842 20.0095C49.1863 17.5043 45.447 14.8262 39.6577 17.1957C38.0027 17.8727 36.3977 18.8257 35.2787 20.2467C34.2417 21.5637 33.5939 24.51 32.9473 27.4509C32.0906 31.3476 31.2359 35.2349 29.4807 35.3107C27.6021 35.3913 25.5624 34.3631 23.4415 33.2939C19.8282 31.4723 15.9791 29.5318 12.2897 32.7537C10.2047 34.5747 9.0597 38.3397 9.0027 41.0327C8.99669 41.2294 9.00072 41.4257 9.01472 41.6217C9.02872 41.8177 9.05237 42.0124 9.0857 42.2057C9.11904 42.3997 9.16169 42.5914 9.21369 42.7807C9.26636 42.97 9.32802 43.1564 9.39869 43.3397C9.47002 43.523 9.55001 43.7024 9.63868 43.8777C9.72735 44.053 9.82467 44.2234 9.93067 44.3887C10.0367 44.554 10.1503 44.714 10.2717 44.8687C10.3937 45.0227 10.523 45.1704 10.6597 45.3117C14.0748 48.8197 28.643 48.311 37.7402 47.9933C39.9135 47.9174 41.7745 47.8524 43.0967 47.8557L82.7807 47.8667C84.6035 47.8662 86.4661 47.904 88.3462 47.9423C93.6274 48.0496 99.0464 48.1598 104.108 47.4297C106.242 47.1217 108.32 46.6397 109.851 45.0187C110.015 44.844 110.169 44.6617 110.315 44.4717C110.459 44.2811 110.594 44.0834 110.719 43.8787C110.843 43.674 110.957 43.4637 111.06 43.2477C111.162 43.0311 111.253 42.8097 111.333 42.5837C111.413 42.3577 111.481 42.1284 111.537 41.8957C111.592 41.663 111.635 41.428 111.667 41.1907C111.698 40.9527 111.717 40.714 111.724 40.4747C111.73 40.2354 111.724 39.9964 111.706 39.7577C111.528 37.2397 110.127 35.2847 108.16 33.8007C106.844 32.8067 105.489 32.4167 103.827 32.5917C102.243 32.7582 100.999 33.4932 99.8008 34.2011C98.048 35.2366 96.3936 36.2139 93.9197 35.2677C92.3153 33.3134 92.602 30.2288 92.8763 27.2777C93.0293 25.6322 93.1784 24.0282 92.9937 22.6847C91.8397 14.2927 84.8807 8.88871 76.7687 8.10471Z" fill="#FEFEFE"/>
        <path fill-rule="evenodd" clip-rule="evenodd" d="M146.489 114.974C142.959 112.308 138.558 111.704 134.257 112.119C130.144 113.274 126.765 114.976 124.594 118.859C123.442 120.921 123.039 122.797 122.864 125.133C119.129 122.635 115.906 121.318 111.287 122.222C106.093 123.238 101.47 126.678 98.6045 131.083C96.6462 134.093 95.4474 137.845 96.2551 141.434C96.8387 144.028 98.4396 146.134 100.716 147.485C105.467 150.305 121.194 149.919 130.907 149.681C133.051 149.628 134.902 149.583 136.278 149.58L157.313 149.637C158.327 149.64 159.347 149.653 160.371 149.665C163.898 149.71 167.462 149.755 170.937 149.386C173.458 147.622 175.33 145.632 175.951 142.516C176.565 139.43 175.576 136.242 173.771 133.727C171.162 130.09 167.033 127.949 162.641 127.39C159.271 126.962 156.072 127.484 152.756 128.044C152.098 122.935 150.823 118.247 146.489 114.974ZM142.948 119.342C140.847 118.017 137.61 117.601 135.179 117.782C131.886 119.101 129.634 120.686 128.2 124.051C127.753 125.1 127.574 126.745 127.39 128.449C127.094 131.187 126.781 134.075 125.309 134.875C124.306 134.885 123.661 134.689 122.943 133.979C122.29 133.335 121.682 132.6 121.069 131.861C119.319 129.749 117.537 127.598 114.597 127.396C112.123 127.226 109.519 128.72 107.77 130.357C105.532 132.451 102.795 136.017 102.695 139.204C102.662 140.232 102.963 141.207 103.706 141.946C104.719 142.954 106.316 143.345 107.682 143.558C111.919 144.216 120.916 144.036 127.977 143.894C130.54 143.843 132.848 143.797 134.58 143.797C140.984 143.734 147.388 143.76 153.791 143.874C154.853 143.894 155.951 143.942 157.064 143.991C159.963 144.12 162.962 144.252 165.693 143.883C167.169 143.683 168.305 143.329 169.463 142.391C170.067 141.351 169.923 140.151 169.643 139.019C169.144 136.989 167.765 135.377 165.987 134.325C163.3 132.737 158.848 132.051 155.842 132.982C154.95 133.258 154.069 133.98 153.176 134.712C151.718 135.907 150.23 137.126 148.618 136.468C147.969 136.204 147.715 135.771 147.542 135.128C147.129 133.596 147.178 131.867 147.229 130.089C147.339 126.254 147.456 122.185 142.948 119.342Z" fill="#FEFEFE"/>
        <path d="M112.649 279.242C116.209 282.69 120.77 286.01 123.82 289.831C118.935 288.166 114.46 285.042 110.436 281.844C111.33 281.101 111.962 280.168 112.649 279.242Z" fill="#FEFEFE"/>
        <path fill-rule="evenodd" clip-rule="evenodd" d="M97.1776 219.267C94.9827 222.315 91.6039 223.102 88.1292 223.743C81.0236 219.655 74.1014 220.254 66.6875 220.896L66.6873 220.896L66.6872 220.896C64.7696 221.062 62.8191 221.231 60.824 221.322C48.0105 221.909 39.4336 217.435 30.4788 208.535L30.0253 208.085C27.8463 205.921 25.6507 203.741 23.7415 201.336C22.9034 200.28 22.0726 199.123 21.227 197.945C19.3519 195.334 17.4039 192.621 15.1413 190.688C14.3437 190.007 14.0231 189.838 12.9841 189.91C12.3314 190.472 12.0371 190.896 11.8507 191.756C11.1678 194.911 15.3261 199.646 18.6767 203.462C20.0756 205.055 21.3338 206.488 22.04 207.579C20.3694 206.549 18.7786 204.676 17.1814 202.796L17.1814 202.796C15.2612 200.536 13.3317 198.265 11.2433 197.434C10.3138 197.064 10.1666 197.135 9.34493 197.548C8.88843 198.272 8.68924 198.811 8.70508 199.684C8.75714 202.488 16.3423 210.366 18.5789 212.61L18.5794 212.609C21.7749 216 24 216 24 216C32.7963 217.759 40.9236 223.294 45.961 226.725C48.082 228.169 49.6552 229.241 50.5 229.5C57.0855 231.522 63.6369 229.777 69.4624 228.224C74.359 226.919 78.7428 225.751 82.2028 227.072C85.3047 228.257 87.978 231.277 89.7715 233.995C89.5937 234.226 89.4089 234.458 89.2225 234.692L89.2222 234.692C88.5958 235.478 87.9525 236.286 87.5019 237.154L87.4203 237.07C87.0941 236.736 86.7661 236.4 86.4214 236.085C84.8231 234.626 83.3893 235.664 81.9169 236.73L81.8255 236.796C80.2254 237.955 78.6949 239.233 77.1645 240.511L77.1642 240.511L77.1642 240.511C75.9385 241.534 74.7129 242.558 73.4516 243.52C64.7911 250.127 55.0598 254.778 44.0631 255.451C44.5956 255.219 45.2344 254.983 45.9157 254.731L45.9158 254.731C47.993 253.965 50.4648 253.053 51.5187 251.636C51.79 251.271 51.7405 251.046 51.6677 250.713C51.6471 250.619 51.6246 250.517 51.607 250.4C49.5505 248.206 45.9666 248.798 42.316 249.401C39.2214 249.912 36.0787 250.431 33.778 249.267L33.6166 248.722C34.4584 247.822 35.6222 247.396 36.9471 246.911C39.0342 246.146 41.521 245.236 43.7779 242.098L44.085 241.663C42.5632 241.462 40.5186 241.482 38.3311 241.503C33.8547 241.546 28.7799 241.595 26.3617 239.771C26.6551 239.027 28.9158 237.984 30.708 237.158C31.5241 236.782 32.243 236.45 32.6349 236.212C32.741 236.148 32.8494 236.084 32.9584 236.021L32.9584 236.021C33.683 235.597 34.4293 235.16 34.6254 234.339C33.5591 233.973 32.4733 233.967 31.3693 233.961H31.3693H31.369C31.1161 233.959 30.8623 233.958 30.6075 233.952C26.035 233.847 23.3752 233.077 19.303 230.975C19.5425 230.949 19.7715 230.925 19.9909 230.902L19.9957 230.901C24.1463 230.461 24.8814 230.384 28.5 227.5C27.3196 225.705 26.5904 225.032 26.001 224.489C25.3092 223.85 24.81 223.39 24 221.5C22.6028 218.24 21.5477 217.053 18.2013 213.288L18.2013 213.288L17.9698 213.027L17.9693 213.028C15.6986 211.613 14.0405 209.577 12.3923 207.552C10.7971 205.593 9.21118 203.645 7.08811 202.283C6.97079 202.296 6.87 202.302 6.78019 202.307C6.41957 202.329 6.23606 202.34 5.87119 202.697C5.2192 203.337 4.95647 203.986 5.00581 204.905C5.27874 209.988 10.7687 214.288 15.3345 217.863L15.3345 217.863C16.7746 218.991 18.1229 220.047 19.1864 221.033C18.2581 220.735 17.1229 220.148 15.9219 219.527C13.574 218.312 10.9745 216.968 9.17742 217.4C8.76114 217.501 8.62601 217.716 8.4449 218.003C8.39523 218.082 8.3421 218.166 8.27877 218.255C8.23954 219.201 8.27274 219.915 8.66736 220.791C10.2228 224.248 15.027 225.871 18.7983 227.145L18.7985 227.145L18.7988 227.145C19.4417 227.362 20.0546 227.569 20.6162 227.774C20.0573 227.717 19.4635 227.623 18.8612 227.528C17.786 227.358 16.6834 227.184 15.7027 227.209C14.6969 227.236 14.3573 227.572 13.7529 228.306C12.9557 233.713 14.5762 234.642 16.7341 235.878C18.0195 236.615 19.4956 237.461 20.7649 239.428C20.7652 239.543 20.7646 239.662 20.7639 239.782V239.782V239.782C20.7592 240.603 20.754 241.512 21.0818 242.247C22.0572 244.436 25.6399 245.903 28.022 246.878L28.022 246.878C28.2693 246.979 28.5036 247.075 28.7207 247.166C28.4876 247.589 28.271 248.017 28.0899 248.467C27.6402 249.583 27.5119 250.643 28.1412 251.751C29.2812 253.758 32.5411 254.188 35.4438 254.571L35.444 254.571L35.4441 254.571C36.8181 254.752 38.112 254.923 39.0632 255.245C38.8323 256.156 38.5936 257.066 38.3471 257.973C38.3694 258.062 38.3895 258.146 38.4086 258.226L38.409 258.228L38.4091 258.229C38.5718 258.913 38.66 259.283 39.4382 259.668C44.3359 262.09 57.0989 258.817 62.0169 257.18C68.6878 264.087 76.4362 270.431 85.2725 274.364C86.7798 275.035 88.3181 275.64 89.8565 276.246L89.8568 276.246C92.7673 277.391 95.6781 278.535 98.3796 280.127C101.383 281.896 104.211 283.958 107.086 286.053C110.232 288.346 113.434 290.68 116.98 292.713C116.813 292.817 116.635 292.923 116.452 293.032L116.452 293.032C115.457 293.625 114.296 294.317 113.754 295.285C113.223 296.234 113.331 296.583 113.623 297.525L113.63 297.548C114.181 298.033 114.61 298.287 115.322 298.445C118.419 299.131 120.362 297.912 122.847 296.353L123.014 296.249C124.001 296.558 125.163 297.042 126.389 297.553C128.949 298.62 131.788 299.803 133.901 299.755C134.926 299.732 135.412 299.432 135.968 298.542C136.386 297.87 136.355 296.927 136.008 296.238C135.074 294.388 132.308 293.393 130.115 292.604C129.603 292.42 129.123 292.247 128.704 292.078L131.79 289.825C132.311 289.851 132.844 289.887 133.382 289.923C135.073 290.036 136.819 290.152 138.451 290.013C140.072 289.877 141.64 289.33 142.729 288.1C142.802 287.104 142.74 286.722 142.014 285.984C139.028 282.951 130.608 282.976 125.745 282.991H125.745C125.268 282.992 124.825 282.993 124.425 282.992C120.504 279.212 116.65 275.366 112.863 271.453C112.526 269.471 112.121 267.427 111.71 265.353V265.353C110.551 259.509 109.344 253.422 109.485 247.773C109.788 235.576 115.74 224.116 126.116 217.585C127.853 216.492 129.56 215.517 131.236 214.559L131.236 214.559L131.237 214.559C135.209 212.29 139.006 210.122 142.592 206.727C153.541 204.652 164.56 203.062 175.65 201.956C171.869 200.736 166.226 199.802 160.566 198.866C153.381 197.678 146.168 196.486 142.703 194.696C141.087 193.86 139.698 192.592 138.313 191.326L138.313 191.326C137.321 190.419 136.33 189.514 135.258 188.769C129.931 185.075 122.064 184.311 115.809 185.55C111.629 186.377 107.697 188.12 104.509 190.99C98.6018 196.311 98.9937 201.773 99.3755 207.094C99.6762 211.285 99.9706 215.388 97.1776 219.267ZM103.334 252.915C100.533 245.724 95.0123 239.516 89.7713 233.996C89.5934 234.227 89.4084 234.459 89.222 234.693C88.5956 235.479 87.9523 236.286 87.5017 237.155C84.2896 243.989 76.1838 248.865 69.4506 252.915L69.4497 252.915C68.4442 253.52 67.4693 254.106 66.5459 254.678C68.5203 256.097 70.41 257.616 72.2975 259.132L72.2976 259.132C75.683 261.853 79.061 264.568 82.9065 266.689C85.7334 268.249 88.729 269.484 91.7191 270.717L91.7192 270.717C94.8658 272.014 98.0063 273.309 100.938 274.977C102.71 275.985 104.303 277.261 105.892 278.533C107.364 279.712 108.833 280.887 110.436 281.844C111.213 281.199 111.792 280.41 112.382 279.607L112.382 279.607L112.382 279.606L112.382 279.606C112.471 279.485 112.56 279.364 112.65 279.243C112.305 278.904 111.937 278.556 111.559 278.2L111.559 278.2C110.127 276.851 108.563 275.378 107.697 273.769C106.368 271.298 106.096 267.785 105.844 264.529C105.731 263.074 105.623 261.671 105.426 260.435C105.018 257.879 104.274 255.325 103.334 252.915ZM126.372 190.756C124.277 190.289 122.057 190.224 119.921 190.382C115.284 190.94 110.313 192.181 107.298 196.066C104.552 199.605 104.748 203.715 104.953 208.022C105.291 215.121 105.654 222.754 92.9062 229.238C95.778 232.126 98.149 235.203 100.539 238.305C101.899 240.069 103.264 241.841 104.731 243.591L105.822 237.299C107.31 231.499 109.518 225.721 113.549 221.182C116.54 217.813 121.326 214.804 125.852 211.958C130.227 209.207 134.359 206.609 136.391 203.987C137.841 202.116 138.249 200.007 137.038 197.891C135.077 194.46 130.088 191.585 126.372 190.756Z" fill="#FEFEFE"/>
        <path d="M120.234 197.373C122.306 196.451 124.926 195.541 127.128 196.603C128.275 197.157 129.223 198.323 129.44 199.587C129.597 200.493 129.363 201.481 128.767 202.188C127.811 203.323 126.497 203.614 125.094 203.597C123.435 203.577 121.866 203.255 120.339 202.618C120.049 202.446 119.753 202.281 119.473 202.092C118.468 201.414 118.257 200.957 118.047 199.835C118.562 198.647 119.247 198.139 120.234 197.373Z" fill="#FEFEFE"/>
    </g>
</svg>
