<svg width="180" height="300" viewBox="0 0 180 300" fill="none" xmlns="http://www.w3.org/2000/svg">
    <g opacity="1">
        <path fill-rule="evenodd" clip-rule="evenodd" d="M168.71 2.12773C166.99 2.16571 165.27 2.20367 163.57 2.13651C161.342 4.27315 158.889 7.24936 156.248 10.4532L156.248 10.4534L156.248 10.4535C149.084 19.1447 140.539 29.5111 131.356 29.3371C129.574 29.3033 127.779 29.1721 125.992 29.0413C125.367 28.9956 124.743 28.9499 124.12 28.9085C124.467 27.943 125.136 26.4693 125.887 24.8124L125.887 24.8123C127.577 21.0865 129.687 16.4343 129.509 14.5511C129.151 14.1115 128.842 14.0737 128.283 14.0125C126.201 13.785 123.962 13.8659 121.779 13.9449C120.885 13.9772 120 14.0091 119.14 14.0195C115.515 16.1989 111.324 19.9177 107.384 23.4151C105.336 25.2324 103.356 26.9899 101.557 28.4406C97.4034 28.4529 93.2479 28.2873 89.0953 28.1219L89.0952 28.1219C87.8387 28.0719 86.5826 28.0218 85.3268 27.9767C78.0044 27.7444 70.6834 27.4732 63.3637 27.1631C61.2425 27.0705 59.0516 26.9448 56.8129 26.8164L56.8125 26.8164C39.3356 25.8138 18.947 24.6443 6.05254 37.7091C4.07847 39.7095 1.98084 42.4475 2.00013 45.3829C2.01901 48.2847 4.13635 50.6389 6.13381 52.512C18.4519 64.0633 37.9336 64.7977 53.8911 64.9253C56.2942 64.9527 58.6971 64.9478 61.0998 64.9105C62.4561 67.6966 64.4692 70.0594 67.4604 71.1517C69.0794 71.7426 70.4678 71.5134 71.894 71.2779C72.8476 71.1204 73.8182 70.9602 74.8859 71.0404C74.9212 71.043 74.9566 71.0445 74.9919 71.0459C75.0123 71.0468 75.0326 71.0476 75.0529 71.0487C76.6966 73.911 78.467 76.9109 81.9037 77.812C84.2115 78.4166 86.353 77.8304 88.4946 76.9672L88.7786 77.08C91.4453 78.1584 94.24 79.8104 97.0871 81.4934C101.661 84.1969 106.37 86.9803 110.9 87.5949C113.608 87.962 116.511 87.8681 119.346 87.7763H119.346H119.347H119.347H119.347H119.347H119.347H119.347H119.347L119.347 87.7763C120.449 87.7406 121.54 87.7053 122.606 87.6975C123.214 87.6929 123.97 87.7251 124.788 87.7599L124.789 87.76H124.789C127.054 87.8564 129.803 87.9735 131.261 87.3904C131.563 87.2693 131.775 87.0719 132.002 86.8478C132.133 86.3182 132.126 86.2181 131.978 85.6914C131.572 85.2174 130.575 84.7159 129.469 84.1599C128.396 83.62 127.22 83.0286 126.384 82.3611C120.819 77.9201 115.454 73.0934 110.126 68.2999L110.126 68.2998L110.125 68.2996C108.6 66.9278 107.079 65.5586 105.556 64.202C116.29 63.1544 127.497 61.9012 137.842 58.7782C140.481 57.9814 143.015 57.0241 145.566 55.9802C146.132 55.7483 146.715 55.4946 147.308 55.2364C149.317 54.3616 151.447 53.4341 153.5 53.1174C154.942 52.8954 156.786 53.3844 158.348 53.7988C158.695 53.8907 159.028 53.979 159.339 54.055C159.535 54.1028 159.76 54.1674 160.005 54.2375L160.005 54.2376C161.303 54.6098 163.14 55.1366 163.961 54.1277C164.883 52.9948 165.382 51.1944 165.855 49.4898L165.855 49.4896C166.11 48.5716 166.357 47.6814 166.658 46.9383L166.731 46.9213C166.791 46.9075 166.85 46.8936 166.91 46.8808C167.798 46.6898 168.766 46.5898 169.752 46.488C172.514 46.2027 175.415 45.903 177.077 43.5513C177.15 43.4487 177.217 43.3425 177.279 43.2327C177.341 43.1227 177.396 43.0098 177.446 42.8941C177.496 42.7783 177.539 42.6602 177.576 42.5398C177.613 42.4194 177.644 42.2975 177.668 42.1741C177.692 42.0504 177.709 41.9257 177.72 41.8001C177.731 41.6745 177.735 41.5487 177.732 41.4229C177.73 41.297 177.72 41.1715 177.704 41.0464C177.688 40.9217 177.666 40.798 177.636 40.6754C177.326 39.3363 176.345 38.1607 175.186 37.455C173.474 36.4124 171.889 36.5454 169.985 36.8344C170.218 35.8225 170.449 34.8095 170.679 33.7962L170.682 33.7859L170.684 33.7762L170.686 33.7672L170.686 33.7668L170.686 33.7664L170.686 33.7661L170.686 33.7658L170.686 33.7654L170.686 33.7651C171.73 29.1838 172.775 24.595 173.99 20.0607C174.392 18.5595 174.833 17.0501 175.275 15.5347L175.275 15.5331L175.275 15.5329L175.275 15.5327L175.275 15.5325L175.275 15.5323L175.275 15.532L175.275 15.5318C176.255 12.1754 177.242 8.79037 177.846 5.4024L177.862 5.31275C177.986 4.6209 178.143 3.74497 177.751 3.12867C177.303 2.42508 176.416 2.30317 175.656 2.23379C173.369 2.02489 171.039 2.07633 168.71 2.12773ZM174.479 5.70374L164.736 5.79158L164.542 5.98698C162.85 7.71026 161.336 9.68214 159.837 11.6345C159.177 12.4949 158.519 13.3514 157.851 14.1813C155.621 16.9496 153.214 19.4836 150.735 22.025C145.362 27.533 139.988 32.5168 131.848 32.6662C126.659 32.7615 121.417 32.5746 116.199 32.3886H116.199H116.199H116.199H116.199H116.199H116.198H116.198H116.198L116.198 32.3886C114.309 32.3212 112.422 32.254 110.543 32.2003C96.0707 31.826 81.6057 31.2682 67.1478 30.5272C65.0489 30.4296 62.8393 30.3051 60.5608 30.1768C50.1502 29.5905 38.3017 28.9233 29.0014 30.3654C22.9105 31.31 16.7724 33.8764 11.5497 37.0955C11.9723 37.0839 12.495 37.0639 13.0941 37.0409C17.9139 36.8563 27.6824 36.4822 30.1447 38.7908C30.5888 39.2079 30.941 39.8249 30.8823 40.4525C30.8236 41.081 30.3639 41.5243 29.8622 41.8441C26.3394 44.0895 17.9361 44.1437 14.0167 43.1638C11.9593 42.6499 10.0838 41.8847 8.16104 40.9993C6.86757 41.7139 5.77977 42.5341 5.35942 44.0283C5.01953 45.2364 5.34422 46.5229 5.9612 47.584C7.36714 50.0031 10.0982 51.8687 12.3858 53.3749C12.7345 53.3063 13.1869 53.2149 13.7105 53.109C16.6283 52.5192 21.7556 51.4827 23.452 51.4817C23.5597 51.4816 23.6676 51.4832 23.7755 51.4864C23.6678 51.4832 23.5602 51.4816 23.4526 51.4817C21.7562 51.4828 16.6288 52.5193 13.711 53.1091C13.1875 53.215 12.7352 53.3064 12.3865 53.3749C22.7306 60.6095 37.1668 61.0889 49.3737 61.4469C50.2529 61.4726 51.1389 61.5064 52.0284 61.5404C54.9001 61.65 57.8083 61.7611 60.6397 61.6053L60.4406 61.4054C60.0862 61.0559 59.5758 60.6663 59.0239 60.2451C57.6203 59.1738 55.9488 57.8981 55.896 56.5575C55.8616 55.6728 56.2261 55.1499 56.834 54.5629C57.1308 54.2759 57.4457 54.0079 57.7601 53.7407C56.5616 53.7673 55.3533 53.7992 54.1381 53.8312C52.9246 53.8632 51.7043 53.8954 50.4804 53.9227C51.6952 53.8956 52.9064 53.8636 54.1109 53.8319L54.1341 53.8313L54.1373 53.8312C55.3525 53.7991 56.561 53.7672 57.7594 53.7406C58.5613 53.4593 59.3816 53.2501 60.2203 53.113C66.5867 52.0581 73.3339 52.1067 79.8974 52.154H79.8974C81.4794 52.1654 83.0506 52.1767 84.6033 52.1725C85.3745 52.1704 86.1785 52.1397 86.9937 52.1086C88.8434 52.0381 90.7503 51.9653 92.4602 52.2189C92.8654 52.2791 93.1463 52.4785 93.4718 52.7096L93.4812 52.7162L93.4803 52.7162C96.0536 55.5844 99.2218 58.5469 102.278 60.8785C107.137 60.5871 111.953 59.9606 116.774 59.3096C131.534 57.3166 140.756 54.8344 154.382 48.5592C153.467 48.6121 152.554 48.7224 151.642 48.8325C151.176 48.8887 150.71 48.9449 150.245 48.9935C147.524 49.2775 145.81 48.9126 143.68 47.1794L143.68 47.1793C143.124 45.965 142.836 44.9355 143.301 43.624C143.87 42.0206 145.576 40.9931 147.058 40.3626C150.902 38.7275 157.308 38.132 162.585 37.6414L162.585 37.6413C164.049 37.5053 165.425 37.3773 166.636 37.2375C167.224 33.3609 168.193 29.5611 169.162 25.7647L169.162 25.7643C169.342 25.0588 169.522 24.3534 169.7 23.6477C171.214 17.6274 172.715 11.6604 174.479 5.70374ZM84.598 55.2973H84.5981C86.8239 55.3482 89.0461 55.3991 91.2582 55.4148C97.3255 61.4181 103.759 67.0378 110.19 72.6553L110.19 72.6555C114.614 76.5204 119.038 80.3845 123.34 84.3719C121.117 84.2979 118.879 84.3274 116.647 84.357C115.746 84.3689 114.846 84.3808 113.947 84.3858C113.777 84.3884 113.606 84.3927 113.433 84.3971L113.433 84.3971C112.441 84.4223 111.417 84.4482 110.478 84.1395C104.746 82.2561 99.0819 78.8806 93.6663 75.6532C91.9715 74.6432 90.3011 73.6478 88.6606 72.7171C85.2188 70.7644 81.7714 68.8276 78.3246 66.8913L78.3238 66.8908L78.3231 66.8904L78.3223 66.89L78.3215 66.8895L78.3207 66.8891L78.3199 66.8887L78.3192 66.8882C72.0904 63.389 65.8638 59.8909 59.676 56.3018C62.413 55.688 65.2881 55.5544 68.1074 55.4234L68.1075 55.4234L68.1077 55.4234L68.1078 55.4234L68.1079 55.4234L68.1081 55.4234L68.1083 55.4233L68.1084 55.4233C68.6144 55.3998 69.1186 55.3764 69.6198 55.3503C74.5818 55.068 79.5988 55.1828 84.5974 55.2973H84.5975H84.5976H84.5977H84.5978H84.5979H84.598ZM162.332 50.2171L161.97 50.11C161.744 50.1817 161.494 50.2505 161.235 50.322L161.235 50.3221L161.234 50.3224L161.234 50.3224C160.377 50.559 159.411 50.8257 158.809 51.3246C158.895 51.3783 158.952 51.4163 158.994 51.4439L158.994 51.444C159.049 51.4803 159.077 51.4986 159.107 51.5109C159.137 51.5235 159.17 51.5299 159.237 51.5428L159.238 51.5428C159.284 51.5519 159.348 51.5642 159.439 51.5841C159.548 51.6129 159.657 51.6438 159.765 51.6746C160.471 51.8761 161.15 52.0699 161.816 51.5935C162.092 51.3965 162.214 51.1248 162.344 50.834C162.362 50.7945 162.379 50.7547 162.398 50.7146L162.332 50.2171ZM169.375 40.3639C169.634 40.341 169.896 40.311 170.158 40.2809C170.658 40.2236 171.162 40.166 171.656 40.1566C172.37 40.143 173.236 40.3963 173.756 40.9098C173.782 40.9361 173.806 40.959 173.827 40.9791C173.847 40.9984 173.865 41.0152 173.881 41.0301C173.945 41.0896 173.975 41.1176 173.989 41.1522C174.001 41.183 174 41.219 173.998 41.287V41.2874V41.2877C173.996 41.3347 173.994 41.397 173.996 41.4833C173.037 42.7285 159.42 44.3741 153.542 45.0846L153.54 45.0847C152.587 45.2 151.836 45.2907 151.378 45.351C151.159 45.3843 150.926 45.4258 150.686 45.4687C149.781 45.6307 148.765 45.8123 147.942 45.6477C147.373 45.5345 147.121 45.4487 146.78 44.9799L146.937 44.5776C150.069 41.7975 160.033 41.0666 166.288 40.6077L166.288 40.6077C167.475 40.5207 168.527 40.4434 169.375 40.3639ZM124.293 17.2432C122.937 17.1644 121.569 17.085 120.225 17.151C117.828 18.3305 111.928 23.5898 108.315 26.8099L108.315 26.81L108.315 26.8101L108.312 26.8125C107.524 27.5148 106.845 28.1199 106.336 28.5644L112.167 28.6362C115.014 28.7405 117.861 28.8105 120.709 28.8464C121.436 26.5102 122.468 24.3095 123.5 22.1065L123.5 22.1064L123.5 22.1062C124.24 20.5271 124.981 18.9469 125.61 17.3148C125.173 17.2943 124.734 17.2688 124.293 17.2432ZM77.4046 70.3123C78.1542 70.5425 78.8821 70.9186 79.5784 71.2785L79.5794 71.279C79.7013 71.342 79.8327 71.4092 79.9719 71.4802C81.6512 72.3377 84.45 73.7668 84.986 75.4385C84.2939 75.5399 83.67 75.494 82.9865 75.3339C80.3331 74.7111 78.7338 72.5089 77.4046 70.3123ZM67.9464 65.2052C66.6743 64.1424 64.7651 63.0271 63.2253 62.4044C63.6588 64.392 64.7922 66.1403 66.515 67.2523C67.8126 68.0902 69.12 68.4071 70.6479 68.4497C70.6238 68.4132 70.5998 68.3767 70.5759 68.3404C69.8701 67.2677 69.2241 66.2859 68.2256 65.4466C68.1796 65.408 68.1345 65.3684 68.0893 65.3286C68.042 65.2871 67.9947 65.2455 67.9464 65.2052Z" fill="#FEFEFE"/>
        <path d="M116.616 41.5043C116.963 41.4862 117.322 41.4678 117.667 41.5105C118.347 41.5942 118.887 41.9653 119.297 42.5043C119.803 43.1701 119.953 43.9529 119.832 44.7706C119.65 46.0013 119.216 46.4031 118.221 47.1051C117.995 47.1289 118.02 47.1322 117.75 47.1273C116.992 47.1145 116.269 46.8785 115.76 46.2935C115.257 45.716 115.061 44.927 115.125 44.1746C115.232 42.9111 115.665 42.2986 116.616 41.5043Z" fill="#FEFEFE"/>
        <path d="M105.132 41.2131C105.42 41.1975 105.698 41.1909 105.985 41.234C106.802 41.3559 107.441 41.752 107.917 42.4306C108.385 43.0989 108.523 43.926 108.381 44.724C108.201 45.7359 107.666 46.2687 106.861 46.8483C106.798 46.8606 106.735 46.8762 106.671 46.8853C105.874 47.0006 105.088 46.9025 104.47 46.329C103.942 45.8385 103.742 45.16 103.726 44.458C103.694 43.087 104.24 42.1925 105.132 41.2131Z" fill="#FEFEFE"/>
        <path d="M93.3076 41.0664C93.5486 41.098 93.8421 41.121 94.0753 41.2035C94.9336 41.5069 95.4595 42.1045 95.7772 42.9477C95.8177 43.0577 95.8526 43.1694 95.8819 43.2827C95.9109 43.3962 95.934 43.5109 95.9512 43.6267C95.9682 43.7427 95.9793 43.8591 95.9845 43.976C95.9897 44.0931 95.9888 44.2101 95.982 44.327C95.9749 44.4441 95.9619 44.5604 95.943 44.6759C95.9241 44.7914 95.8992 44.9056 95.8683 45.0186C95.8377 45.1317 95.8011 45.2429 95.7587 45.3524C95.7165 45.4616 95.6688 45.5683 95.6154 45.6726C95.2049 46.4796 94.6758 46.7563 93.852 47.0514C93.783 47.0342 93.7136 47.0194 93.6451 47.0001C92.7001 46.7345 92.0482 46.3564 91.5725 45.4685C91.1419 44.6656 91.0668 43.7744 91.3857 42.9177C91.7539 41.9289 92.3738 41.481 93.3076 41.0664Z" fill="#FEFEFE"/>
        <path d="M57.9534 40.9375C58.2268 40.9753 58.5035 41.0073 58.7695 41.0861C58.8614 41.1126 58.9519 41.1439 59.0408 41.1797C59.1295 41.2156 59.2161 41.2561 59.3007 41.3012C59.385 41.3464 59.4668 41.3958 59.5461 41.4494C59.6255 41.5033 59.7017 41.5612 59.7748 41.623C59.8481 41.6846 59.9179 41.75 59.9841 41.8192C60.0504 41.8885 60.1128 41.9609 60.1713 42.0364C60.2299 42.1122 60.2843 42.1909 60.3347 42.2724C60.3851 42.354 60.431 42.4379 60.4726 42.5241C60.8228 43.2691 60.7592 44.1049 60.4554 44.8544C59.9755 46.0387 59.1668 46.5358 58.047 47.0477C57.8672 46.9771 57.6858 46.909 57.5105 46.8273C56.522 46.3638 55.8094 45.5933 55.4687 44.5507C55.2261 43.8081 55.2655 43.0232 55.6719 42.3455C56.1973 41.4691 57.0056 41.1629 57.9534 40.9375Z" fill="#FEFEFE"/>
        <path d="M80.0206 40.9341C80.3937 40.9086 80.7759 40.8778 81.1499 40.9004C81.8855 40.9448 82.6042 41.423 83.039 42.0018C83.5422 42.6709 83.6773 43.4533 83.5447 44.2722C83.3489 45.4812 82.6794 46.1158 81.7283 46.8066C81.3978 46.8234 81.0583 46.8432 80.7287 46.8112C79.9824 46.7377 79.2398 46.218 78.8137 45.6191C78.7508 45.5298 78.6929 45.4376 78.6401 45.3424C78.587 45.2472 78.5391 45.1493 78.4964 45.0489C78.454 44.9485 78.4169 44.846 78.3852 44.7414C78.3537 44.6372 78.3279 44.5314 78.3076 44.4241C78.2871 44.3171 78.2724 44.2092 78.2637 44.1002C78.2549 43.9916 78.2521 43.8828 78.2551 43.7739C78.2578 43.6647 78.2664 43.556 78.2809 43.4479C78.2954 43.3399 78.3157 43.2329 78.3417 43.127C78.5806 42.1073 79.1586 41.4809 80.0206 40.9341Z" fill="#FEFEFE"/>
        <path d="M44.9963 40.8939C45.3842 40.868 45.784 40.8393 46.1711 40.8869C46.8883 40.9743 47.5143 41.3746 47.9527 41.9427C48.4761 42.6212 48.6325 43.4348 48.5056 44.2747C48.3291 45.445 47.7084 46.131 46.8045 46.8309C46.4523 46.8727 46.0849 46.922 45.7299 46.9043C45.064 46.8715 44.3814 46.4232 43.9705 45.9183C43.3798 45.193 43.202 44.2636 43.3383 43.3515C43.5169 42.157 44.0275 41.5605 44.9963 40.8939Z" fill="#FEFEFE"/>
        <path d="M69.1321 40.6543C69.3254 40.6732 69.4289 40.6765 69.6082 40.7146C70.5126 40.9076 71.3594 41.4519 71.8077 42.2692C72.2572 43.0893 72.2838 44.0778 71.9928 44.9546C71.6217 46.0724 71.0396 46.4755 70.0261 47.0067C69.7835 46.9734 69.5413 46.939 69.3016 46.8893C69.194 46.8679 69.0879 46.8408 68.9831 46.808C68.8782 46.7754 68.7755 46.7373 68.6748 46.6935C68.5743 46.6497 68.4764 46.6006 68.3809 46.5461C68.2853 46.4919 68.1931 46.4328 68.1042 46.3688C68.0152 46.3045 67.93 46.2356 67.8484 46.1623C67.7666 46.089 67.689 46.0115 67.6157 45.93C67.5424 45.8481 67.4737 45.7627 67.4096 45.6738C67.3453 45.5849 67.2861 45.4926 67.2319 45.3971C66.8107 44.6681 66.7487 43.8623 66.9667 43.0561C67.3017 41.8193 68.0631 41.2622 69.1321 40.6543Z" fill="#FEFEFE"/>
    </g>
</svg>
