<svg width="180" height="300" viewBox="0 0 180 300" fill="none" xmlns="http://www.w3.org/2000/svg">
    <path fill-rule="evenodd" clip-rule="evenodd" d="M109.386 53.5944C106.03 52.0885 102.671 51.7992 99.0352 52.1138C93.9234 53.6261 91.3819 55.869 88.3075 60.1621C84.629 58.0184 80.4887 56.9962 76.2956 58.1578C72.3743 59.2434 69.3329 62.1608 67.4476 65.6985C66.9045 66.7191 66.4744 67.8057 66.0487 68.8815C66.0175 68.9604 65.9863 69.0392 65.9551 69.1179C61.7824 68.2555 58.0912 68.04 54.3966 70.585C54.0516 70.8239 53.7196 71.0797 53.4004 71.3524C53.0813 71.6246 52.7764 71.9123 52.4859 72.2155C52.1958 72.5187 51.9217 72.8358 51.6636 73.1666C51.405 73.4971 51.164 73.8399 50.9406 74.1952C50.7167 74.55 50.5114 74.9154 50.3246 75.2914C50.1378 75.6673 49.9704 76.0515 49.8226 76.4438C49.6743 76.8367 49.5464 77.2358 49.4389 77.6414C49.331 78.0469 49.2437 78.4568 49.177 78.8713C48.7152 81.7732 49.1052 85.0103 50.9638 87.3814C52.8288 89.7624 55.5793 90.7592 58.5129 91.0352C63.2504 91.4803 68.1496 91.3637 73.0156 91.248C75.6932 91.1843 78.3607 91.1209 80.9857 91.1514L107.94 91.3851C109.294 91.3952 110.69 91.4422 112.106 91.4898C116.212 91.6278 120.479 91.7712 124.312 91.0373C126.381 90.6417 128.334 89.7898 129.867 88.3212C131.929 86.3458 132.844 83.6311 132.881 80.8186C132.925 77.5576 131.699 74.3466 129.308 72.0987C126.865 69.8015 124.19 69.1355 121.003 68.5955C118.678 62.3389 115.844 56.4928 109.386 53.5944ZM103.046 57.7058C102.064 57.6108 101.136 57.6122 100.154 57.684C97.89 58.3908 96.2193 59.1758 95.0986 61.3766C94.7521 62.0566 94.4927 62.9089 94.225 63.7884C93.6634 65.6339 93.0653 67.599 91.5496 68.3428C89.5098 68.536 87.8432 67.3423 86.0904 66.0869C83.6278 64.3232 80.9953 62.4379 76.9195 64.106C75.7544 64.5826 74.6245 65.2535 73.8367 66.2539C73.1066 67.1811 72.6506 69.2554 72.1953 71.3258C71.5922 74.0691 70.9905 76.8058 69.7548 76.8592C68.4323 76.916 66.9963 76.1921 65.5031 75.4393C62.9593 74.1569 60.2495 72.7908 57.6521 75.059C56.1842 76.3411 55.3781 78.9917 55.338 80.8876C55.3338 81.026 55.3366 81.1642 55.3465 81.3022C55.3563 81.4402 55.373 81.5773 55.3965 81.7134C55.4199 81.85 55.45 81.9849 55.4866 82.1182C55.5236 82.2515 55.5671 82.3827 55.6168 82.5117C55.667 82.6408 55.7233 82.767 55.7858 82.8905C55.8482 83.0139 55.9167 83.1338 55.9913 83.2502C56.0659 83.3666 56.146 83.4793 56.2314 83.5882C56.3173 83.6966 56.4083 83.8005 56.5046 83.9C58.9089 86.3697 69.165 86.0116 75.5696 85.7879C77.0996 85.7345 78.4098 85.6887 79.3406 85.691L107.279 85.6988C108.562 85.6984 109.873 85.7251 111.197 85.752C114.915 85.8276 118.73 85.9051 122.293 85.3911C123.796 85.1743 125.259 84.835 126.336 83.6938C126.452 83.5708 126.561 83.4424 126.663 83.3087C126.765 83.1744 126.86 83.0353 126.947 82.8912C127.035 82.7471 127.115 82.599 127.187 82.447C127.26 82.2944 127.324 82.1386 127.38 81.9795C127.436 81.8204 127.484 81.6589 127.523 81.4951C127.562 81.3313 127.593 81.1659 127.615 80.9988C127.637 80.8312 127.65 80.6632 127.655 80.4947C127.66 80.3262 127.655 80.158 127.642 79.99C127.517 78.2172 126.531 76.8409 125.146 75.7961C124.219 75.0964 123.265 74.8218 122.095 74.945C120.981 75.0622 120.105 75.5797 119.261 76.078C118.027 76.807 116.862 77.4951 115.121 76.8289C113.991 75.4531 114.193 73.2815 114.386 71.2038C114.494 70.0454 114.599 68.9162 114.469 67.9703C113.656 62.0623 108.757 58.2578 103.046 57.7058Z" fill="#FEFEFE"/>
    <path fill-rule="evenodd" clip-rule="evenodd" d="M152.131 132.942C149.646 131.065 146.547 130.639 143.519 130.931C140.624 131.745 138.245 132.943 136.716 135.677C135.905 137.128 135.622 138.449 135.499 140.093C132.869 138.335 130.6 137.407 127.348 138.044C123.692 138.759 120.437 141.181 118.42 144.282C117.041 146.401 116.197 149.043 116.766 151.57C117.176 153.396 118.303 154.878 119.906 155.83C123.251 157.815 134.323 157.543 141.161 157.375C142.671 157.338 143.974 157.306 144.942 157.305L159.751 157.345C160.465 157.346 161.183 157.356 161.904 157.365C164.387 157.396 166.896 157.428 169.343 157.168C171.117 155.926 172.435 154.525 172.872 152.332C173.305 150.159 172.609 147.914 171.338 146.144C169.501 143.583 166.594 142.076 163.502 141.683C161.129 141.381 158.878 141.749 156.543 142.143C156.08 138.546 155.182 135.246 152.131 132.942ZM149.638 136.017C148.158 135.084 145.88 134.791 144.169 134.919C141.85 135.847 140.265 136.963 139.255 139.332C138.94 140.07 138.815 141.229 138.685 142.428C138.476 144.356 138.256 146.389 137.22 146.952C136.513 146.959 136.06 146.821 135.554 146.321C135.095 145.868 134.666 145.351 134.235 144.83C133.003 143.343 131.748 141.829 129.678 141.687C127.937 141.567 126.104 142.619 124.872 143.772C123.297 145.246 121.369 147.756 121.299 150C121.276 150.723 121.488 151.41 122.011 151.93C122.724 152.64 123.849 152.915 124.81 153.065C127.793 153.528 134.127 153.401 139.098 153.302C140.903 153.265 142.527 153.233 143.747 153.233C148.255 153.189 152.764 153.207 157.272 153.288C158.02 153.301 158.792 153.335 159.576 153.37C161.617 153.46 163.728 153.554 165.651 153.293C166.69 153.153 167.49 152.904 168.305 152.243C168.73 151.511 168.628 150.667 168.432 149.869C168.08 148.44 167.11 147.305 165.858 146.565C163.966 145.447 160.832 144.964 158.716 145.619C158.088 145.813 157.467 146.322 156.838 146.837C155.812 147.678 154.765 148.537 153.629 148.074C153.173 147.888 152.994 147.582 152.872 147.13C152.581 146.051 152.616 144.835 152.652 143.583C152.729 140.882 152.811 138.018 149.638 136.017Z" fill="#FEFEFE"/>
    <path d="M128.307 248.588C130.812 251.015 134.024 253.352 136.171 256.042C132.732 254.87 129.581 252.671 126.748 250.419C127.378 249.897 127.823 249.24 128.307 248.588Z" fill="#FEFEFE"/>
    <path fill-rule="evenodd" clip-rule="evenodd" d="M117.414 206.365C115.869 208.51 113.49 209.065 111.044 209.516C106.041 206.638 101.168 207.06 95.9483 207.512C94.5982 207.629 93.225 207.747 91.8204 207.812C82.7995 208.224 76.7613 205.075 70.4569 198.809L70.1377 198.492C68.6037 196.969 67.0579 195.434 65.7138 193.741C65.1238 192.998 64.5389 192.183 63.9436 191.354L63.9436 191.354C62.6235 189.516 61.2521 187.606 59.6591 186.245C59.0976 185.765 58.8719 185.646 58.1404 185.697C57.6809 186.093 57.4738 186.391 57.3425 186.997C56.8618 189.218 59.7892 192.551 62.1481 195.238C63.133 196.359 64.0187 197.368 64.5159 198.136C63.3398 197.411 62.2198 196.092 61.0954 194.769L61.0954 194.769C59.7435 193.178 58.3852 191.579 56.9149 190.994C56.2605 190.734 56.1569 190.783 55.5784 191.074C55.257 191.584 55.1168 191.963 55.128 192.578C55.1646 194.552 60.5046 200.098 62.0792 201.678L62.0796 201.678C64.3293 204.065 65.8958 204.065 65.8958 204.065C72.0885 205.303 77.8102 209.2 81.3566 211.615L81.3567 211.615C82.8499 212.632 83.9574 213.386 84.5521 213.569C89.1884 214.993 93.8007 213.763 97.9019 212.671C101.349 211.752 104.435 210.93 106.871 211.86C109.055 212.694 110.937 214.82 112.2 216.734C112.075 216.896 111.944 217.06 111.813 217.224L111.813 217.224C111.372 217.778 110.919 218.346 110.602 218.957L110.545 218.898C110.315 218.663 110.084 218.427 109.841 218.205C108.716 217.178 107.707 217.908 106.67 218.659L106.606 218.705C105.479 219.521 104.402 220.421 103.324 221.32L103.324 221.321C102.461 222.041 101.598 222.762 100.71 223.439C94.6132 228.09 87.7623 231.365 80.0205 231.839C80.3954 231.675 80.8451 231.509 81.3248 231.332C82.7871 230.792 84.5273 230.15 85.2693 229.153C85.4603 228.896 85.4255 228.737 85.3742 228.503L85.3742 228.503C85.3597 228.437 85.3439 228.365 85.3315 228.283C83.8837 226.738 81.3606 227.155 78.7905 227.579C76.6118 227.939 74.3994 228.304 72.7797 227.485L72.666 227.101C73.2586 226.468 74.078 226.168 75.0107 225.826C76.4801 225.288 78.2308 224.647 79.8197 222.438L80.0359 222.132C78.9645 221.99 77.5251 222.004 75.9851 222.019C72.8336 222.049 69.2609 222.084 67.5584 220.8C67.765 220.276 69.3566 219.542 70.6183 218.96C71.1928 218.695 71.699 218.462 71.9749 218.294C72.0495 218.249 72.1259 218.204 72.2026 218.159L72.2026 218.159C72.7127 217.861 73.2381 217.554 73.3762 216.975C72.6255 216.718 71.8611 216.714 71.0839 216.709C70.9058 216.708 70.727 216.707 70.5475 216.703C67.3284 216.629 65.4559 216.087 62.589 214.607C62.7585 214.589 62.9204 214.572 63.0756 214.555L63.0767 214.555C65.9988 214.246 66.5163 214.191 69.0638 212.161C68.2329 210.897 67.7195 210.423 67.3045 210.041C66.8174 209.591 66.466 209.267 65.8958 207.937C64.9121 205.641 64.1694 204.806 61.8134 202.155L61.6505 201.972L61.6501 201.972C60.0515 200.976 58.8842 199.542 57.7238 198.117L57.7238 198.117C56.6008 196.738 55.4843 195.367 53.9896 194.408C53.907 194.417 53.8361 194.421 53.7728 194.425H53.7728C53.5189 194.44 53.3897 194.448 53.1329 194.699C52.6738 195.149 52.4889 195.607 52.5236 196.254C52.7158 199.832 56.5808 202.859 59.7951 205.376C60.809 206.17 61.7582 206.914 62.5069 207.608C61.8534 207.398 61.0542 206.985 60.2087 206.547L60.2087 206.547C58.5557 205.692 56.7256 204.746 55.4605 205.051C55.1674 205.121 55.0723 205.272 54.9448 205.475C54.9098 205.53 54.8724 205.59 54.8278 205.652C54.8002 206.319 54.8236 206.821 55.1014 207.438C56.1965 209.871 59.5786 211.014 62.2337 211.911L62.2338 211.911L62.2339 211.911C62.6866 212.064 63.1181 212.21 63.5136 212.354C63.1201 212.314 62.702 212.248 62.278 212.181C61.521 212.061 60.7448 211.938 60.0543 211.956C59.3463 211.975 59.1072 212.211 58.6817 212.728C58.1205 216.535 59.2613 217.189 60.7805 218.059C61.6854 218.578 62.7246 219.173 63.6182 220.558C63.6185 220.639 63.618 220.723 63.6175 220.808C63.6142 221.386 63.6106 222.026 63.8413 222.543C64.5281 224.084 67.0503 225.117 68.7273 225.803L68.7284 225.804C68.9021 225.875 69.0667 225.942 69.2192 226.006C69.0551 226.304 68.9026 226.605 68.7751 226.922C68.4585 227.707 68.3682 228.454 68.8113 229.234C69.6138 230.647 71.9088 230.95 73.9524 231.219H73.9524C74.9198 231.347 75.8308 231.467 76.5004 231.694C76.3379 232.335 76.1699 232.975 75.9963 233.614C76.0122 233.677 76.0264 233.737 76.0399 233.794L76.04 233.794C76.1546 234.276 76.2166 234.537 76.7644 234.808C80.2125 236.513 89.1978 234.208 92.6602 233.056C97.3566 237.918 102.812 242.385 109.032 245.154C110.094 245.626 111.177 246.052 112.26 246.478C114.309 247.284 116.358 248.09 118.26 249.211C120.374 250.457 122.366 251.908 124.389 253.383L124.389 253.383L124.389 253.383C126.604 254.997 128.858 256.64 131.355 258.072C131.237 258.145 131.112 258.219 130.983 258.296C130.282 258.714 129.465 259.201 129.084 259.882C128.71 260.55 128.786 260.796 128.991 261.46L128.996 261.476C129.384 261.817 129.687 261.996 130.188 262.107C132.368 262.59 133.736 261.732 135.485 260.635L135.603 260.561C136.298 260.779 137.116 261.12 137.979 261.479L137.979 261.479C139.781 262.23 141.78 263.063 143.268 263.029C143.989 263.013 144.332 262.802 144.723 262.175C145.017 261.702 144.996 261.038 144.751 260.553C144.093 259.251 142.146 258.55 140.602 257.995L140.602 257.995C140.242 257.865 139.904 257.744 139.609 257.624L141.781 256.038C142.148 256.057 142.523 256.082 142.902 256.107L142.902 256.107C144.093 256.187 145.322 256.269 146.471 256.171C147.612 256.075 148.716 255.69 149.483 254.824C149.534 254.123 149.49 253.854 148.979 253.334C146.877 251.199 140.949 251.217 137.526 251.227C137.19 251.228 136.878 251.229 136.596 251.228C133.836 248.567 131.122 245.859 128.456 243.104C128.219 241.709 127.934 240.27 127.645 238.81C126.829 234.696 125.979 230.41 126.078 226.433C126.292 217.847 130.482 209.778 137.787 205.18C139.01 204.411 140.212 203.724 141.392 203.05C144.189 201.453 146.861 199.927 149.386 197.536C157.094 196.076 164.852 194.956 172.659 194.177C169.998 193.318 166.025 192.661 162.04 192.002C156.982 191.166 151.904 190.326 149.464 189.066C148.326 188.478 147.349 187.585 146.374 186.694L146.374 186.694L146.374 186.694C145.675 186.055 144.977 185.418 144.223 184.894C140.473 182.293 134.934 181.755 130.53 182.627C127.588 183.21 124.819 184.437 122.576 186.457C118.416 190.203 118.692 194.049 118.961 197.795C119.173 200.745 119.38 203.634 117.414 206.365ZM121.748 230.053C119.776 224.991 115.889 220.62 112.2 216.734C112.074 216.897 111.944 217.06 111.813 217.225L111.813 217.225L111.813 217.225C111.372 217.778 110.919 218.347 110.602 218.958C108.34 223.769 102.634 227.202 97.8936 230.053C97.1855 230.479 96.4989 230.892 95.8487 231.294C97.2386 232.293 98.569 233.362 99.8978 234.43L99.8978 234.43L99.8979 234.43L99.8979 234.431C102.281 236.346 104.659 238.257 107.367 239.751C109.357 240.849 111.466 241.718 113.571 242.586L113.571 242.586C115.786 243.499 117.997 244.411 120.061 245.585C121.309 246.295 122.43 247.193 123.549 248.089L123.549 248.089C124.585 248.919 125.619 249.746 126.748 250.42C127.295 249.966 127.702 249.41 128.117 248.845L128.118 248.845C128.18 248.759 128.243 248.674 128.306 248.588C128.064 248.35 127.804 248.105 127.538 247.855L127.538 247.855C126.53 246.905 125.429 245.868 124.819 244.735C123.884 242.995 123.692 240.522 123.515 238.23L123.515 238.229C123.436 237.205 123.359 236.218 123.221 235.348C122.933 233.548 122.409 231.75 121.748 230.053ZM137.967 186.293C136.492 185.964 134.929 185.918 133.425 186.029C130.161 186.422 126.662 187.296 124.539 190.031C122.605 192.522 122.743 195.416 122.887 198.448C123.125 203.446 123.381 208.82 114.407 213.384C116.428 215.418 118.098 217.584 119.781 219.768C120.737 221.01 121.699 222.257 122.732 223.489L123.5 219.059C124.547 214.976 126.102 210.908 128.939 207.713C131.045 205.341 134.415 203.222 137.601 201.219C140.681 199.282 143.59 197.453 145.021 195.608C146.041 194.29 146.329 192.805 145.476 191.315C144.095 188.901 140.583 186.876 137.967 186.293Z" fill="#FEFEFE"/>
    <path d="M133.646 190.951C135.105 190.302 136.949 189.661 138.5 190.409C139.307 190.799 139.975 191.62 140.128 192.509C140.238 193.147 140.073 193.843 139.654 194.341C138.98 195.14 138.055 195.345 137.067 195.333C135.9 195.319 134.795 195.092 133.72 194.644C133.516 194.523 133.308 194.406 133.11 194.273C132.403 193.796 132.255 193.474 132.106 192.684C132.469 191.848 132.952 191.49 133.646 190.951Z" fill="#FEFEFE"/>
</svg>
