<svg width="180" height="300" viewBox="0 0 180 300" fill="none" xmlns="http://www.w3.org/2000/svg">
    <g opacity="1" clip-path="url(#clip0_929_1309)">
        <path fill-rule="evenodd" clip-rule="evenodd" d="M8.80629 17.5898C16.8009 18.9778 24.9347 22.3548 32.5509 25.5168C33.3338 25.8418 34.1114 26.1646 34.8827 26.4828C72.6167 42.05 125.738 72.6821 152.209 103.647C166.657 120.55 174.755 141.31 172.791 163.71C171.169 182.2 162.784 195.805 153.787 210.403L153.787 210.403L153.787 210.403C151.768 213.68 149.718 217.006 147.706 220.449C146.666 222.231 145.655 224.091 144.632 225.973C141.12 232.434 137.471 239.148 132.032 243.768C136.272 248.081 140.002 252.896 143.726 257.704L143.727 257.705C145.869 260.47 148.009 263.233 150.243 265.897C155.307 271.932 160.981 277.432 166.636 282.914C167.16 283.422 167.684 283.93 168.208 284.438C168.973 285.057 169.92 285.757 170.939 286.51L170.939 286.51C173.965 288.746 177.626 291.451 179.046 293.903C180.286 296.045 180.197 296.493 179.465 298.642C179.207 298.832 178.975 299.013 178.76 299.18C177.555 300.117 176.881 300.641 174.977 300.211C160.945 297.05 138.097 266.269 129.093 254.138L128.812 253.759C109.615 257.026 89.8948 257.847 71.0915 251.775C45.7467 243.592 25.5256 222.604 13.7296 199.258C12.3196 196.486 11.0238 193.66 9.84192 190.782C8.66008 187.905 7.59712 184.985 6.6531 182.02C5.70908 179.057 4.88643 176.06 4.18508 173.029C3.48374 169.998 2.90618 166.944 2.45237 163.867C-2.06327 133.728 -0.56534 45.8904 8.80629 17.5898ZM29.5371 45.9426C38.1312 46.7556 53.7214 55.8662 64.1993 61.9893L64.1996 61.9895L64.2018 61.9908L64.2022 61.991L64.2043 61.9922C66.3906 63.2698 68.3541 64.4173 69.9849 65.3319C69.7567 71.2703 69.2095 77.1789 68.3432 83.0578C67.4768 88.9367 66.2968 94.7518 64.8031 100.503C64.3408 102.027 63.7347 103.248 63.0176 104.66C62.8439 104.54 62.7097 104.449 62.6029 104.376L62.6028 104.376L62.6026 104.376L62.6024 104.376C62.3787 104.223 62.2754 104.153 62.1804 104.073C62.099 104.004 62.0237 103.928 61.8839 103.787C61.7343 103.636 61.5107 103.41 61.1265 103.039C60.9797 101.474 60.5361 100.569 59.8926 99.2574C59.8341 99.1382 59.774 99.0156 59.7123 98.8889L58.8951 99.6315C58.2665 95.3094 36.1983 57.3892 30.276 47.2127C29.9909 46.7227 29.7432 46.297 29.5371 45.9426ZM16.535 46.9865L16.5347 46.9863L16.5344 46.986L16.5337 46.9855L16.533 46.9851C16.447 46.9245 16.3553 46.8599 16.2559 46.7889C16.0209 51.6824 15.7025 56.6191 15.383 61.5739C14.5963 73.7725 13.8025 86.081 14.2283 98.1262C25.6912 104.458 37.1196 106.719 50.0477 108.299C50.1441 102.334 23.3233 54.6353 17.9468 48.2486C17.3911 47.5893 17.0778 47.3686 16.535 46.9865ZM142.735 119.441L142.735 119.441L142.736 119.442L142.738 119.445L142.744 119.451C143.785 120.694 144.812 121.918 145.827 123.101C136.528 144.309 125.719 160.819 108.89 176.785C107.498 177.942 106.089 178.976 104.626 180.039L102.454 179.626C99.5553 177.074 97.616 172.972 95.77 169.068C95.0038 167.448 94.2537 165.861 93.4577 164.434C107.74 146.897 122.372 126.192 127.914 104.058C133.322 108.215 138.173 114 142.735 119.441L142.735 119.441ZM102.952 212.707H102.952C99.3257 212.747 95.6386 212.788 92.166 213.253C91.4283 213.313 90.6886 213.373 89.9471 213.433C73.411 214.781 55.9725 216.201 39.5909 213.757C49.0281 226.216 61.6013 236.716 76.3949 242.138C92.4099 247.578 108.337 249.194 124.964 245.35C123.504 242.519 122.059 239.671 120.613 236.819C116.479 228.669 112.332 220.492 107.766 212.616C106.191 212.672 104.578 212.69 102.954 212.707H102.953H102.953H102.953H102.952ZM16.8639 161.518C42.6855 175.369 60.4987 180.906 89.8512 176.965C90.8328 178.764 91.8968 180.61 92.9802 182.49C96.4308 188.478 100.079 194.809 101.897 201.032L100.499 202.241C77.451 205.683 55.8229 206.799 32.5495 205.473C24.4119 191.541 20.2093 177.213 16.8639 161.518ZM119.03 94.7266C106.697 86.5417 94.1444 79.0302 81.3255 71.6388C81.1536 72.8928 80.9871 74.1358 80.822 75.3682C78.7103 91.1326 76.83 105.17 66.7029 118.49C73.6653 128.516 80.0328 138.955 86.3918 149.379L86.3976 149.389C87.647 151.437 88.8961 153.485 90.1493 155.528C90.758 154.675 91.4037 153.817 92.0543 152.953L92.0564 152.95L92.057 152.949L92.0572 152.949C93.4677 151.075 94.9009 149.171 96.03 147.211C106.508 130.479 114.052 113.848 119.03 94.7266ZM151.394 134.254C151.513 134.344 151.634 134.433 151.755 134.522C151.987 134.692 152.219 134.862 152.444 135.04C158.847 140.129 162.085 150.069 162.753 157.915C164.935 183.557 146.648 212.474 130.934 231.274C129.443 229.096 128.074 226.828 126.708 224.564L126.707 224.562C126.276 223.848 125.846 223.135 125.412 222.425C124.19 220.284 122.98 218.13 121.768 215.972L121.768 215.972C117.115 207.686 112.438 199.358 106.969 191.623C127.986 176.78 136.41 161.466 147.743 140.863C148.923 138.719 150.134 136.518 151.394 134.254ZM55.0676 119.443C40.0264 116.167 27.2038 113.14 13.4312 105.985C13.4138 107.883 13.3905 109.782 13.3671 111.681C13.2108 124.416 13.0542 137.178 14.6507 149.829C38.2172 163.664 56.1213 173.419 83.945 167.723C84.198 161.285 61.8128 126.776 56.1396 120.581C55.9236 120.346 55.7043 120.115 55.4849 119.884C55.3455 119.737 55.2061 119.591 55.0676 119.443Z" fill="#FEFEFE"/>
    </g>
    <defs>
        <clipPath id="clip0_929_1309">
            <rect width="180" height="300" fill="white"/>
        </clipPath>
    </defs>
</svg>
