<svg width="180" height="300" viewBox="0 0 180 300" fill="none" xmlns="http://www.w3.org/2000/svg">
    <g opacity="0.5" clip-path="url(#clip0_927_495)">
        <path d="M26.785 103.127C27.775 103.484 28.451 103.931 29.29 104.561C29.795 105.704 30.165 106.211 29.566 107.457C27.968 110.777 18.565 115.726 14.977 116.966C13.927 116.56 12.613 116.063 11.843 115.203C10.929 114.18 11.093 113.575 11.265 112.356C14.465 108.088 22.161 105.97 26.785 103.127Z" fill="#FEFEFE" fill-opacity="0.937255"/>
        <path d="M43.2741 11.5371C43.3951 11.5981 43.5241 11.6451 43.6391 11.7191C46.9071 13.8091 52.8131 25.2031 53.5291 29.1991C52.6441 30.7361 51.6811 31.0481 50.1651 31.9271C49.3591 31.4691 48.4831 30.9811 47.8381 30.3041C45.7761 28.1431 39.6911 16.8941 39.7071 14.1131C40.4721 12.6681 41.8721 12.2161 43.2741 11.5371Z" fill="#FEFEFE" fill-opacity="0.937255"/>
        <path d="M134.041 73.3713C137.629 73.2533 141.251 73.0593 144.841 73.1243C147.223 73.1673 150.129 73.2493 151.861 75.0763C152.062 76.3823 151.964 76.8973 151.192 78.0023C150.217 79.3983 149.715 79.4613 148.07 79.7253C143.516 79.7023 133.96 81.3843 130.342 78.3023C130.13 77.4303 129.958 77.3843 130.374 76.5013C131.253 74.6393 132.203 74.0193 134.041 73.3713Z" fill="#FEFEFE" fill-opacity="0.937255"/>
        <path d="M138.029 37.0527C138.865 37.2807 140.068 37.7337 140.722 38.3197C141.755 39.2457 141.668 39.6297 141.667 40.9067C139.218 45.4177 129.724 49.3267 125.163 51.8537C124.317 52.0527 123.735 52.2137 122.941 51.7177C121.812 51.0117 121.62 50.3837 121.335 49.2017C123.002 44.1757 133.551 39.6077 138.029 37.0527Z" fill="#FEFEFE" fill-opacity="0.937255"/>
        <path d="M47.1893 122.994C47.8393 123.147 48.6503 123.283 49.2643 123.581C50.3433 124.104 51.1483 125.005 51.2943 126.229C51.7993 130.455 45.2963 140.445 43.0813 144.289C41.9623 144.258 41.2273 144.064 40.1903 143.65C39.2753 142.551 38.7973 141.978 38.8473 140.489C38.9943 136.144 44.1053 126.15 47.1893 122.994Z" fill="#FEFEFE" fill-opacity="0.937255"/>
        <path d="M104.161 121.859C104.91 122.027 105.599 122.186 106.214 122.681C109.073 124.984 115.012 136.421 114.743 139.918C114.617 141.554 113.673 142.194 112.622 143.283C111.638 143.017 111.005 142.805 110.226 142.108C107.334 139.522 101.594 129.19 101.801 125.222C101.882 123.673 103.148 122.861 104.161 121.859Z" fill="#FEFEFE" fill-opacity="0.937255"/>
        <path d="M111.558 11.9375C112.511 11.9855 113.672 12.1425 114.494 12.6585C115.482 13.2785 116.033 14.2305 116.014 15.4005C115.941 19.8045 108.507 28.9735 105.629 32.4345C104.927 32.2965 103.94 32.1875 103.312 31.8595C102.024 31.1855 101.893 30.6385 101.41 29.3735C101.888 23.8965 108.245 16.3935 111.558 11.9375Z" fill="#FEFEFE" fill-opacity="0.937255"/>
        <path d="M14.0217 36.4258C15.8187 36.7108 17.2167 37.3318 18.8477 38.1018C23.2227 40.1668 30.4027 43.0948 32.1427 47.9408C32.1577 49.5278 31.4037 50.4638 30.5737 51.7348C29.6467 51.4308 28.7657 51.1158 27.8837 50.6958C23.5357 48.6278 14.0607 45.1858 12.3867 40.4348C12.3867 38.6978 13.0947 37.8008 14.0217 36.4258Z" fill="#FEFEFE" fill-opacity="0.937255"/>
        <path d="M74.1941 131.104C75.9771 131.24 76.5711 131.183 78.0931 132.196C79.4231 134.366 79.6231 136.919 79.6971 139.417C79.7911 142.628 80.2481 149.082 78.8721 151.885C78.6331 152.372 77.7001 153.112 77.2951 153.537C76.3711 153.592 75.5481 153.494 74.6311 153.395C73.2401 152.172 72.9531 151.287 72.7101 149.454C72.3181 146.506 71.8341 135.111 72.9301 132.713C73.2141 132.093 73.7731 131.64 74.1941 131.104Z" fill="#FEFEFE" fill-opacity="0.937255"/>
        <path d="M122.922 102.455C123.774 102.518 124.641 102.682 125.448 102.963C129.166 104.258 141.518 110.146 143.006 113.398C142.903 115.038 142.043 115.814 141.015 116.984C139.594 117.36 138.579 117.137 137.257 116.581C132.833 114.718 123.538 110.461 121.63 105.925C121.552 104.387 122.11 103.67 122.922 102.455Z" fill="#FEFEFE" fill-opacity="0.937255"/>
        <path d="M75.3413 0C76.3073 0.042 77.2493 0.184995 78.2073 0.313995C79.5793 1.245 80.0083 2.09799 80.3213 3.67599C81.2783 8.515 81.5153 21.529 78.8583 25.513C78.3413 25.521 77.4423 25.606 76.9143 25.47C75.7293 25.163 75.0763 24.49 74.6093 23.382C72.9033 19.33 73.5443 3.997 75.3413 0Z" fill="#FEFEFE" fill-opacity="0.937255"/>
        <path d="M1.895 72.7489C6.563 72.0859 18.602 71.3409 22.558 73.8259C23.601 74.4819 23.847 75.0089 24.097 76.1659C23.723 77.7989 23.211 78.2899 22.063 79.4219C18.054 79.9549 5.211 80.6879 1.854 78.8629C0.567996 78.1639 0.483 77.8139 0 76.5219C0.214 74.7689 0.749997 74.0669 1.895 72.7489Z" fill="#FEFEFE" fill-opacity="0.937255"/>
        <path d="M73.9525 39.8867C83.1185 39.6987 91.0105 41.4207 98.6815 46.6387C107.528 52.6557 113.154 61.2327 115.099 71.7507C117.006 82.0607 114.691 92.2827 108.669 100.853C102.016 110.322 92.1775 115.663 80.9355 117.69C70.5245 117.99 60.6105 116.884 52.2325 110.11C44.2325 103.643 38.3435 93.1317 37.4025 82.8687C36.4585 72.5647 38.7055 62.6037 45.4945 54.6257C52.8525 45.9787 62.6365 40.7157 73.9525 39.8867Z" fill="#FEFEFE" fill-opacity="0.937255"/>
        <path fill-rule="evenodd" clip-rule="evenodd" d="M146.774 246.265C142.007 244.126 137.235 243.715 132.071 244.162C124.81 246.31 121.2 249.496 116.833 255.594C111.608 252.549 105.727 251.097 99.7715 252.747C94.2015 254.289 89.8815 258.433 87.2035 263.458C86.432 264.907 85.8212 266.451 85.2164 267.979C85.1721 268.091 85.1278 268.203 85.0835 268.315C79.1565 267.09 73.9134 266.784 68.6654 270.399C68.1754 270.738 67.7038 271.101 67.2505 271.489C66.7971 271.875 66.3641 272.284 65.9515 272.715C65.5395 273.145 65.1501 273.596 64.7834 274.066C64.4161 274.535 64.0738 275.022 63.7564 275.527C63.4384 276.031 63.1468 276.55 62.8814 277.084C62.6161 277.618 62.3784 278.163 62.1684 278.721C61.9578 279.279 61.7761 279.846 61.6235 280.422C61.4701 280.998 61.3461 281.58 61.2514 282.169C60.5954 286.291 61.1495 290.889 63.7895 294.257C66.4385 297.639 70.3454 299.055 74.5124 299.447C81.2416 300.079 88.2006 299.913 95.1124 299.749C98.9157 299.659 102.705 299.568 106.433 299.612L144.72 299.944C146.643 299.958 148.627 300.025 150.638 300.092C156.47 300.288 162.53 300.492 167.975 299.45C170.913 298.888 173.688 297.678 175.865 295.592C178.794 292.786 180.094 288.93 180.147 284.935C180.209 280.303 178.468 275.742 175.071 272.549C171.601 269.286 167.801 268.34 163.274 267.573C159.972 258.686 155.946 250.382 146.774 246.265ZM137.769 252.105C136.374 251.97 135.056 251.972 133.661 252.074C130.445 253.078 128.072 254.193 126.48 257.319C125.987 258.285 125.619 259.495 125.239 260.745C124.441 263.366 123.592 266.157 121.439 267.214C118.541 267.488 116.174 265.793 113.684 264.009C110.186 261.504 106.447 258.826 100.658 261.196C99.0027 261.873 97.3977 262.826 96.2787 264.247C95.2417 265.564 94.5939 268.51 93.9473 271.451C93.0906 275.348 92.2359 279.235 90.4807 279.311C88.6021 279.391 86.5624 278.363 84.4415 277.294C80.8282 275.472 76.9791 273.532 73.2897 276.754C71.2047 278.575 70.0597 282.34 70.0027 285.033C69.9967 285.229 70.0007 285.426 70.0147 285.622C70.0287 285.818 70.0524 286.012 70.0857 286.206C70.119 286.4 70.1617 286.591 70.2137 286.781C70.2664 286.97 70.328 287.156 70.3987 287.34C70.47 287.523 70.55 287.702 70.6387 287.878C70.7273 288.053 70.8247 288.223 70.9307 288.389C71.0367 288.554 71.1503 288.714 71.2717 288.869C71.3937 289.023 71.523 289.17 71.6597 289.312C75.0748 292.82 89.643 292.311 98.7402 291.993C100.913 291.917 102.774 291.852 104.097 291.856L143.781 291.867C145.603 291.866 147.466 291.904 149.346 291.942C154.627 292.05 160.046 292.16 165.108 291.43C167.242 291.122 169.32 290.64 170.851 289.019C171.015 288.844 171.169 288.662 171.315 288.472C171.459 288.281 171.594 288.083 171.719 287.879C171.843 287.674 171.957 287.464 172.06 287.248C172.162 287.031 172.253 286.81 172.333 286.584C172.413 286.358 172.481 286.128 172.537 285.896C172.592 285.663 172.635 285.428 172.667 285.191C172.698 284.953 172.717 284.714 172.724 284.475C172.73 284.235 172.724 283.996 172.706 283.758C172.528 281.24 171.127 279.285 169.16 277.801C167.844 276.807 166.489 276.417 164.827 276.592C163.243 276.758 161.999 277.493 160.801 278.201C159.048 279.237 157.394 280.214 154.92 279.268C153.315 277.313 153.602 274.229 153.876 271.278C154.029 269.632 154.178 268.028 153.994 266.685C152.84 258.293 145.881 252.889 137.769 252.105Z" fill="#FEFEFE"/>
    </g>
    <defs>
        <clipPath id="clip0_927_495">
            <rect width="180" height="300" fill="white"/>
        </clipPath>
    </defs>
</svg>
