<svg width="180" height="300" viewBox="0 0 180 300" fill="none" xmlns="http://www.w3.org/2000/svg">
    <g opacity="0.5">
        <path d="M71.5173 263.94L77.8622 263.92L77.8713 269.32L72.2068 269.308L65.3701 269.315C67.2792 267.425 69.465 265.699 71.5173 263.94Z" fill="#FEFEFE"/>
        <path d="M62 284C67.3715 284.564 72.9433 284.311 78.3472 284.308C78.3204 286.048 78.2733 287.788 78.2059 289.527C74.3851 289.58 70.0084 290.03 66.45 288.517C64.3115 287.607 62.8548 286.007 62 284Z" fill="#FEFEFE"/>
        <path d="M62.3211 274.035L77.8129 274.006C77.8557 275.172 78.2108 277.544 77.5407 278.515C77.2951 278.872 76.7255 278.787 76.3121 278.832L60.0783 278.851C60.0796 277.409 59.7102 275.952 60.2202 274.56C60.9933 273.944 61.3264 274.069 62.3211 274.035Z" fill="#FEFEFE"/>
        <path d="M117.094 289.488C117.064 288.774 116.901 287.491 117.12 286.833C117.379 286.055 117.693 285.684 118.425 285.454C120.681 284.743 136.761 285.07 139.456 285.428C140.117 285.516 140.643 285.745 141.24 286.045C141.263 287.089 141.364 288.301 140.845 289.222C140.568 289.714 140.251 289.809 139.731 289.933C137.381 290.497 118.445 290.425 117.094 289.488Z" fill="#FEFEFE"/>
        <path d="M83.3921 206.445L117.285 206.601L117.173 211.69C105.915 211.866 94.6238 211.635 83.3623 211.65L83.3921 206.445Z" fill="#FEFEFE"/>
        <path d="M83.3024 196.721L117.448 196.735L117.416 202.033C106.045 201.959 94.6734 201.945 83.3018 201.989L83.3024 196.721Z" fill="#FEFEFE"/>
        <path d="M83.3496 216.519C88.2202 216.51 115.241 216.005 117.507 216.941L117.687 217.454C117.349 218.544 116.79 219.227 116.046 220.116C115.307 220.771 114.499 221.374 113.721 221.991L83.3593 221.972L83.3496 216.519Z" fill="#FEFEFE"/>
        <path d="M163.826 13.0021C165.842 12.8127 169.46 12.6558 171.209 13.6447C171.924 14.0489 171.953 14.1726 172.079 14.8779C168.786 16.6903 164.635 17.0837 161.209 18.7145C157.058 20.6905 155.624 25.2771 152.393 28.0404C149.871 27.9143 148.571 24.3359 147.129 22.7328C146.522 22.0589 145.708 21.5339 144.949 21.0163L144.558 20.7538C144.48 20.7164 144.402 20.6778 144.323 20.6416C144.192 20.5813 144.059 20.5252 143.928 20.4648C141 19.1242 135.928 18.8612 133.708 16.8382L133.835 16.3482C136.004 15.4167 139.289 15.2888 141.68 15.3594C146.166 15.4915 149.084 17.0843 152.076 20.0093C155.16 16.2071 158.771 13.9319 163.826 13.0021Z" fill="#FEFEFE"/>
        <path d="M78.6084 90.2674C79.9692 90.0927 81.5478 89.903 82.9077 90.0563C83.9609 90.1749 84.3899 90.5811 85 91.3391C84.1887 93.5143 74.3615 97.0419 71.5377 99.2685C68.0189 102.043 65.2832 110.404 61.5991 111.731C61.3347 111.826 60.3239 112.056 60.1003 111.988C59.2408 111.727 51.9838 103.201 49.7943 101.546C47.9547 100.155 46.0303 99.3048 43.8923 98.4378C41.2007 97.5296 34.6303 97.0735 33.0327 94.8715C32.957 93.7799 32.9687 93.704 33.5613 92.7682C35.7509 91.9098 38.0676 91.6624 40.4268 91.7818C49.3728 92.2339 55.2474 96.5645 61.0854 102.612L61.4769 102.031C65.8626 95.6215 70.5368 91.8664 78.6084 90.2674Z" fill="#FEFEFE"/>
        <path d="M46.3377 39.1511C48.9515 39.0025 53.3262 38.6232 55.4924 40.1716C56.0328 40.5576 55.9145 40.7524 56 41.325C53.4661 44.1589 43.2675 45.1123 39.0503 47.979C35.1728 50.6151 32.6117 54.3329 29.85 57.9C28.9132 59.1101 27.6351 60.7108 25.9525 60.9511C25.397 61.031 25.5273 61.0519 25.2355 60.7025C21.0543 55.7029 19.1351 50.6226 13.2672 46.8256L12.782 46.5158C9.55914 44.8398 6.01093 44.5374 2.58582 43.4191C1.37164 43.0227 0.566722 42.7196 0 41.6162L0.543536 40.848C3.32279 39.4459 6.31388 39.1212 9.41687 39.6154C17.323 40.8741 22.7936 46.2351 27.3234 51.9806C28.111 50.9155 28.9172 49.8626 29.7421 48.8219C34.1057 43.3877 38.9727 40.1163 46.3377 39.1511Z" fill="#FEFEFE"/>
        <path d="M83.3838 187.059L150.693 187.368C150.765 188.671 151.083 190.426 150.356 191.541C138.834 191.496 127.403 191.921 115.897 192.087C105.074 192.243 94.2312 192.121 83.4058 192.102L83.3838 187.059Z" fill="#FEFEFE"/>
        <path d="M88.588 167.158C95.0501 167.727 101.847 167.391 108.352 167.404L144.808 167.449C146.212 168.653 149.091 170.544 149.384 172.363C148.671 172.941 148.18 172.758 147.27 172.763L84.8203 172.502C85.9058 170.591 87.2154 168.898 88.588 167.158Z" fill="#FEFEFE"/>
        <path fill-rule="evenodd" clip-rule="evenodd" d="M117.719 256.181C116.698 256.244 115.737 256.302 114.902 256.32C113.667 258.147 113.836 276.406 114.598 278.994C114.686 279.293 114.741 279.383 114.86 279.577C114.88 279.608 114.901 279.643 114.924 279.682C117.625 280.325 120.99 280.177 124.086 280.041C125.118 279.996 126.12 279.951 127.058 279.938C127.38 279.444 127.621 279.035 127.706 278.452C128.163 275.339 128.204 260.249 127.538 257.489C127.448 257.115 127.414 257.039 127.306 256.799C127.288 256.76 127.269 256.717 127.247 256.668C124.808 255.748 120.956 255.984 117.719 256.181ZM119.637 261.303C119.464 261.306 119.291 261.309 119.117 261.311C119.114 262.514 119.083 263.742 119.052 264.981C118.97 268.214 118.886 271.518 119.301 274.626C120.209 275.144 121.536 275.027 122.632 274.931C122.725 274.923 122.815 274.915 122.904 274.907C122.924 273.773 122.983 272.58 123.043 271.363C123.207 268.071 123.379 264.597 122.809 261.593C121.77 261.262 120.714 261.282 119.637 261.303Z" fill="#FEFEFE"/>
        <path fill-rule="evenodd" clip-rule="evenodd" d="M158.664 256.295C154.864 256.233 151.009 256.17 147.245 256.432C146.459 259.202 146.887 276.339 147.231 280.026C151.53 280.227 155.995 280.299 160.292 280.066C160.597 277.299 160.578 274.454 160.558 271.638C160.551 270.62 160.545 269.605 160.553 268.599C160.569 266.696 160.623 264.792 160.677 262.888C160.738 260.7 160.8 258.512 160.805 256.328C160.094 256.318 159.38 256.307 158.664 256.295ZM152.521 261.491C152.338 261.503 152.165 261.515 152.007 261.523C152.009 262.74 152.003 263.959 151.997 265.179C151.983 268.392 151.968 271.61 152.081 274.816C152.375 274.828 152.669 274.842 152.964 274.856C153.953 274.903 154.944 274.95 155.934 274.945C155.94 273.771 155.978 272.562 156.017 271.339C156.119 268.159 156.223 264.884 155.759 261.874C154.998 261.32 153.59 261.417 152.521 261.491Z" fill="#FEFEFE"/>
        <path d="M83.4823 177.612L150.689 177.52C150.72 179.313 150.651 181.096 150.574 182.889C142.375 183.246 133.996 182.885 125.779 182.846L83.3851 182.811C83.3689 181.08 83.4409 179.344 83.4823 177.612Z" fill="#FEFEFE"/>
        <path d="M120.963 199.402L162.067 199.434C162.029 207.847 162.056 216.26 162.148 224.673L157.516 224.705L157.457 203.692L141.844 203.653L137.922 203.647C138.021 210.192 138.014 216.736 137.9 223.28C136.216 223.46 134.505 223.431 132.811 223.455L132.808 203.901L125.816 203.897L125.761 223.435L120.888 223.483C121.006 215.456 121.031 207.43 120.963 199.402Z" fill="#FEFEFE"/>
        <path d="M106.637 230.567L174.661 230.461C174.633 235.273 174.521 240.1 174.598 244.911L178.936 244.939C178.968 246.191 179.192 247.554 178.553 248.691C177.339 249.651 175.471 249.382 173.967 249.371C173.967 249.371 174.661 301 169.225 279.743C169.237 273.974 169.988 253.981 168.621 250.144C167.596 249.521 166.21 249.461 165.008 249.39C157.124 248.927 148.975 249.278 141.056 249.281C128.182 249.287 115.253 249.153 102.383 249.414C102.424 295.442 102.428 287.606 102.428 287.606C100.682 286.363 98.8634 285.16 97.1837 283.843L97.3766 249.383C94.636 249.36 91.9033 249.347 89.1634 249.435C88.7007 260.675 88.8387 271.96 88.7383 283.21L84 280L83.9247 264.905C83.9234 258.239 83.7374 251.532 84.0038 244.872C88.308 244.789 92.6127 244.755 96.9177 244.768C96.9514 241.914 97.731 234.85 96.5341 232.446L96.0915 232.129C97.256 230.789 99.4969 230.854 101.208 230.667L101.307 244.68L145.076 244.662C153.176 244.693 161.381 245.005 169.47 244.75C169.52 241.633 169.547 238.517 169.552 235.4C148.608 235.021 127.605 235.449 106.656 235.487L106.637 230.567Z" fill="#FEFEFE"/>
        <path fill-rule="evenodd" clip-rule="evenodd" d="M114.5 0.999832C114.835 1.02843 115.104 0.968566 115.354 0.912943C115.727 0.83011 116.056 0.756691 116.5 0.998894C117.175 3.63625 117.149 4.55079 117.094 6.49973C117.072 7.28209 117.045 8.23113 117.057 9.5252C117.287 9.57269 117.515 9.61095 117.738 9.6485C118.582 9.79034 119.365 9.92205 120.017 10.5026L120.022 10.5561L120.033 10.6703V10.6703C120.09 11.2504 120.146 11.8171 120.018 12.3983C119.798 13.399 119.198 13.6147 118.489 13.8693C118.179 13.9806 117.849 14.0994 117.52 14.2946C117.511 14.4121 117.502 14.5301 117.493 14.6486C117.432 15.4194 117.37 16.2088 117.452 16.9728C117.603 18.378 118.108 19.1828 119.27 20.0673C119.322 20.1068 119.374 20.1451 119.426 20.1835L119.505 20.2411C119.788 20.7714 119.833 21.6354 119.616 22.202C119.316 22.9846 118.718 23.2864 118.029 23.6334C117.873 23.7125 117.711 23.794 117.547 23.8841C117.422 25.6788 117.938 26.5982 118.481 27.564C118.846 28.2134 119.223 28.8838 119.424 29.8553C119.672 31.0544 118.825 32.0132 118.056 32.8836L118.056 32.8838C117.969 32.9825 117.883 33.08 117.799 33.1767C118.874 34.4033 119.871 35.552 120.647 36.9735C120.532 41.5903 120.519 46.2146 120.506 50.8379C120.497 53.7772 120.489 56.7161 120.454 59.6524C121.411 59.6449 122.433 59.605 123.484 59.5639L123.485 59.5639H123.485H123.485C126.483 59.4468 129.717 59.3205 132.335 59.9106C132.879 61.0853 133.007 62.3089 133.069 63.5759C133.083 63.8569 133.098 64.1474 133.114 64.4462C133.367 69.2741 133.733 76.2589 130.088 79.7134C128.244 81.4613 126.513 81.5048 124.049 81.5156C124.185 99.8511 124.485 118.184 124.951 136.515C132.123 136.551 139.296 136.526 146.467 136.442C147.488 136.435 148.562 136.398 149.661 136.361L149.662 136.361C152.898 136.25 156.349 136.132 159.28 136.739C161.312 137.16 163.882 139.163 164.874 140.836C165.369 141.67 165.322 142.216 165.005 143.089C162.998 144.497 160.941 143.526 158.983 142.6L158.982 142.6C158.279 142.268 157.587 141.941 156.916 141.733C154.446 140.968 148.948 141.165 144.808 141.313C143.515 141.36 142.354 141.401 141.46 141.407C141.459 141.48 141.458 141.566 141.457 141.663L141.455 141.954L141.453 142.205V142.206V142.207C141.425 146.138 141.332 159.256 140.375 160.399C140.3 160.401 140.229 160.403 140.161 160.405L140.151 160.405L140.145 160.406C139.333 160.429 139.001 160.439 138.175 160.046C136.983 158.474 137.211 155.455 137.393 153.037C137.447 152.319 137.497 151.655 137.505 151.097C134.926 151.046 132.34 151.063 129.756 151.08H129.754H129.752H129.75H129.748H129.746H129.744H129.741H129.739H129.737H129.735C128.617 151.088 127.5 151.095 126.384 151.097L126.417 160.546L117.3 160.514L106.678 160.521L106.746 151.081L95.0398 151.041C95.0482 151.766 95.0682 152.499 95.0883 153.235C95.1518 155.559 95.2162 157.92 94.9199 160.193C94.1559 160.591 92.9343 160.539 91.9062 160.495C91.6237 160.483 91.3558 160.472 91.116 160.47L91.127 141.405C90.1994 141.405 89.0721 141.371 87.8437 141.333C83.7583 141.208 78.5557 141.049 75.8698 142C75.1766 142.246 74.5303 142.594 73.8833 142.943C73.2468 143.286 72.6097 143.63 71.9265 143.876C70.751 144.3 69.8315 144.256 68.6741 143.798C68.1317 143.164 67.9217 142.768 67.9023 141.938C67.877 140.903 68.3831 139.869 69.1426 139.133C70.5372 137.779 72.8059 137.157 74.7338 136.86C77.38 136.453 80.2752 136.518 83.0781 136.581C84.1404 136.605 85.1894 136.629 86.2065 136.626C93.68 136.634 101.153 136.59 108.626 136.495C108.546 129.758 108.754 122.986 108.961 116.226C109.051 113.301 109.14 110.377 109.206 107.46C109.366 100.473 109.356 93.4709 109.345 86.4767V86.4766V86.4766V86.4765V86.4764V86.4763V86.4762V86.4761V86.476V86.4759V86.4758V86.4753V86.4739V86.4726V86.4713V86.47V86.4687V86.4674V86.4661V86.4648V86.4635V86.4622V86.4609C109.343 84.8961 109.341 83.3316 109.341 81.7678C109.059 81.7409 108.772 81.719 108.481 81.6969L108.48 81.6968L108.479 81.6967C107.443 81.6179 106.371 81.5364 105.418 81.2133C103.018 80.4 101.162 78.4959 100.13 76.3673C98.2579 72.5053 97.7791 64.3633 99.2792 60.3981C100.775 59.2569 105.428 59.4908 108.58 59.6492C109.378 59.6893 110.079 59.7245 110.609 59.7315C110.622 57.0323 110.554 54.3109 110.486 51.5844C110.361 46.5879 110.236 41.5741 110.607 36.6477C111.234 35.7369 111.901 34.8473 112.567 33.9587C112.806 33.6395 113.045 33.3204 113.283 33.0005C112.923 31.4698 112.989 29.9433 113.056 28.408L113.056 28.4078C113.09 27.6104 113.125 26.8106 113.1 26.0066C113.097 25.8799 113.094 25.7594 113.091 25.6442C113.066 24.5144 113.052 23.8965 112.016 23.0128C111.918 22.9294 111.819 22.8487 111.72 22.7679L111.72 22.7677L111.717 22.7659L111.613 22.6804C111.336 21.9443 111.309 21.6065 111.491 20.8456C111.601 20.743 111.712 20.641 111.823 20.5389C112.617 19.8083 113.418 19.0722 113.708 18.0383C114.031 16.8823 114.089 15.0156 113.446 13.9652C113.353 13.9459 113.261 13.9279 113.171 13.9103C112.407 13.7599 111.792 13.639 111.21 13.0487C110.885 12.1407 110.949 11.5699 111.103 10.6559C111.814 10.1478 112.631 10.0728 113.491 9.9938C113.704 9.97421 113.92 9.95438 114.138 9.92763C114.264 6.69949 114.278 6.00591 114.287 5.60773C114.297 5.10476 114.298 5.07315 114.5 0.999832ZM114.265 37.804L117.731 38.0345C117.739 38.3939 117.754 38.9475 117.774 39.6475C117.924 44.9321 118.31 58.5551 117.327 59.8663C117.239 59.872 117.151 59.8782 117.063 59.8844L117.024 59.8871L117.024 59.8871C116.551 59.9205 116.07 59.9545 115.601 59.9381C114.85 59.9109 114.456 59.8807 113.928 59.3522C113.378 54.1611 113.74 43.1435 114.265 37.804ZM122.884 141.284H122.882H122.879H122.877H122.874H122.872H122.869H122.867H122.864H122.862H122.859C121.487 141.294 120.115 141.304 118.743 141.31C118.652 143.077 118.64 144.827 118.665 146.595L137.251 146.589C137.261 146.084 137.274 145.579 137.286 145.074V145.073V145.073V145.073V145.072V145.072V145.072V145.071V145.071V145.071V145.071C137.317 143.823 137.349 142.573 137.336 141.328C132.525 141.216 127.706 141.25 122.891 141.284H122.891H122.89H122.889H122.889H122.888H122.888H122.887H122.887H122.886H122.884ZM110.969 71.7147H110.969H110.969H110.969H110.969H110.969H110.97H110.97H110.97H110.97H110.97C116.65 71.6153 122.417 71.5144 127.92 72.0268C127.838 73.6377 127.534 75.1696 127.212 76.7485C125.594 77.4079 118.707 77.1476 114.425 76.9858C113.245 76.9412 112.263 76.904 111.643 76.8957C111.426 76.8928 111.167 76.8936 110.879 76.8945C109.001 76.9003 105.868 76.91 104.906 75.931C103.922 74.93 103.971 73.6087 104.019 72.3324C104.025 72.1517 104.032 71.9718 104.036 71.7939C106.316 71.7962 108.634 71.7556 110.967 71.7147H110.967H110.968H110.968H110.968H110.968H110.968H110.969H110.969ZM113.8 141.443L95.3449 141.45L95.3559 146.483C101.488 146.527 107.619 146.538 113.751 146.516L113.8 141.443ZM103.607 64.0716L128.629 63.9563L128.496 68.3945C120.233 68.4138 111.97 68.3913 103.707 68.3269L103.607 64.0716ZM120.668 82.0008L113.631 81.97L113.538 87.2082L120.667 87.2589L120.668 82.0008ZM113.424 99.8098L120.837 99.8412L120.822 105.446C119.096 105.528 117.357 105.53 115.622 105.531H115.619C114.886 105.531 114.154 105.532 113.424 105.539L113.424 99.8098ZM118.383 90.5533C116.678 90.5325 114.972 90.5117 113.268 90.5249C113.277 91.108 113.28 91.6937 113.283 92.2804V92.2812V92.2813C113.291 93.7795 113.298 95.2843 113.406 96.7695L120.729 96.7327L120.726 90.5786C119.945 90.5724 119.165 90.5629 118.383 90.5533ZM113.374 109.005C115.904 108.924 118.418 108.956 120.949 109.014L120.955 109.488V109.488C120.978 111.288 121.002 113.078 120.824 114.873C118.242 115.032 115.722 115.041 113.137 114.956C113.13 114.532 113.11 114.088 113.09 113.635L113.09 113.634C113.021 112.077 112.946 110.402 113.374 109.005ZM120.957 118.327L112.933 118.332L112.941 124.568C113.598 124.566 114.257 124.571 114.918 124.576H114.919H114.92C116.854 124.59 118.801 124.604 120.716 124.461C120.953 122.408 120.968 120.391 120.957 118.327ZM111.48 151.103L121.517 151.097L121.299 157.067C119.105 157.317 116.742 157.249 114.434 157.184L114.432 157.183C113.447 157.155 112.472 157.128 111.524 157.125L111.48 151.103ZM121.045 127.919L112.619 127.938C112.613 128.779 112.604 129.622 112.594 130.464C112.572 132.384 112.55 134.305 112.574 136.223C115.327 136.217 118.078 136.143 120.827 136C121.273 133.961 121.185 131.7 121.1 129.545C121.078 128.994 121.057 128.451 121.045 127.919Z" fill="#FEFEFE"/>
    </g>
</svg>
