<svg width="180" height="300" viewBox="0 0 180 300" fill="none" xmlns="http://www.w3.org/2000/svg">
    <path fill-rule="evenodd" clip-rule="evenodd" d="M144.769 247.053C144.703 247.036 144.638 247.019 144.576 247C143.527 248.439 143.84 251.961 144.028 254.09C144.05 254.338 144.071 254.568 144.087 254.772C143.346 255.061 142.63 255.342 141.938 255.738C141.724 255.529 141.377 255.159 140.954 254.709C139.468 253.125 137.05 250.549 136.258 250.496C136.063 250.483 135.944 250.558 135.801 250.648C135.762 250.673 135.721 250.699 135.676 250.725C135.672 250.733 135.667 250.741 135.663 250.75C135.507 251.066 135.408 251.267 135.533 251.629C135.986 252.939 139.608 256.047 140.813 256.913C140.566 257.537 140.341 258.133 140.198 258.791C139.934 258.793 139.547 258.787 139.085 258.779C136.838 258.74 132.79 258.671 132.093 259.424C131.994 259.532 131.996 259.561 132.003 259.663C132.005 259.697 132.008 259.738 132.008 259.792C132.291 260.191 132.528 260.458 133.02 260.554C134.471 260.837 136.466 260.787 138.254 260.742C138.944 260.725 139.603 260.708 140.188 260.712L140.641 262.354C140.403 262.597 140.104 262.882 139.772 263.198C138.269 264.629 136.105 266.688 136.104 268.275L136.24 268.495C136.895 268.598 137.422 268.263 137.928 267.878C139.358 266.789 140.698 265.177 141.867 263.771C141.924 263.703 141.981 263.634 142.037 263.567C142.158 263.621 142.279 263.677 142.399 263.732C142.927 263.975 143.456 264.219 144.008 264.398C143.997 264.659 143.97 265.004 143.938 265.401C143.798 267.163 143.577 269.942 144.357 270.83C144.548 271.048 144.854 271.16 145.123 271.259C145.142 271.266 145.16 271.273 145.179 271.279C145.411 271.025 145.613 270.797 145.724 270.463C146.04 269.512 145.941 267.825 145.853 266.339C145.811 265.631 145.772 264.969 145.782 264.454C146.392 264.222 146.975 263.999 147.546 263.678C147.819 263.94 148.209 264.358 148.663 264.846C150.119 266.409 152.238 268.685 153.304 268.792C153.607 268.495 153.631 268.444 153.733 268.032C153.515 266.93 152.227 265.751 151.066 264.688C150.118 263.82 149.254 263.029 149.13 262.423C149.076 262.159 149.196 261.75 149.311 261.361C149.381 261.122 149.449 260.89 149.473 260.704C149.8 260.713 150.2 260.733 150.647 260.755C152.989 260.87 156.628 261.049 157.992 260.045L157.96 259.642C156.499 258.817 154.433 258.875 152.629 258.926C152.199 258.938 151.784 258.95 151.396 258.949C151.286 258.948 151.154 258.954 151.012 258.96C150.638 258.975 150.195 258.993 149.926 258.917C149.614 258.829 149.438 258.542 149.364 258.239C149.241 257.737 149.307 257.113 149.58 256.668C150.084 255.844 150.867 255.134 151.653 254.42C152.679 253.489 153.711 252.551 154.143 251.35C154.045 251.014 153.976 250.823 153.652 250.623C153.361 250.443 153.106 250.455 152.803 250.582C152.238 250.817 149.876 253.436 148.51 254.951C148.135 255.367 147.835 255.7 147.667 255.877C147.094 255.548 146.545 255.254 145.927 255.013C145.92 254.704 145.929 254.218 145.941 253.638C145.982 251.484 146.048 248.019 145.409 247.348C145.246 247.178 145.002 247.114 144.769 247.053ZM144.204 257.212C144.167 257.215 144.131 257.218 144.095 257.221C143.229 257.656 142.564 258.102 142.263 259.072C142.24 259.148 142.22 259.226 142.205 259.305C142.19 259.383 142.179 259.463 142.172 259.542C142.165 259.622 142.163 259.702 142.165 259.783C142.167 259.863 142.173 259.943 142.183 260.022C142.194 260.102 142.209 260.18 142.228 260.258C142.247 260.336 142.27 260.412 142.298 260.488C142.325 260.563 142.356 260.637 142.392 260.709C142.427 260.781 142.466 260.851 142.509 260.919C142.555 260.99 142.605 261.059 142.658 261.126C142.711 261.192 142.768 261.256 142.827 261.317C142.886 261.378 142.949 261.436 143.014 261.491C143.079 261.546 143.146 261.597 143.217 261.646C143.287 261.694 143.359 261.739 143.434 261.78C143.508 261.821 143.584 261.858 143.663 261.892C143.741 261.926 143.821 261.955 143.902 261.981C143.983 262.007 144.065 262.029 144.148 262.047C144.598 262.141 145.089 262.116 145.546 262.093L145.551 262.092C146.421 261.697 147.097 261.284 147.417 260.333C147.442 260.258 147.463 260.183 147.481 260.106C147.498 260.029 147.512 259.952 147.522 259.873C147.531 259.795 147.537 259.717 147.539 259.638C147.54 259.559 147.538 259.481 147.531 259.402C147.525 259.324 147.514 259.246 147.5 259.168C147.486 259.091 147.467 259.015 147.445 258.939C147.423 258.863 147.397 258.789 147.367 258.716C147.337 258.643 147.304 258.572 147.266 258.503C146.977 257.958 146.38 257.437 145.783 257.266C145.298 257.127 144.714 257.172 144.204 257.212Z" fill="#FEFEFE"/>
    <path fill-rule="evenodd" clip-rule="evenodd" d="M95.8632 192.013C95.8398 192.015 95.8163 192.016 95.7928 192.018C95.7886 192.03 95.7844 192.042 95.7803 192.055C95.767 192.094 95.7538 192.133 95.7415 192.173C95.5114 192.902 95.3527 193.965 95.1828 195.104C94.8579 197.28 94.4918 199.733 93.5059 200.658C93.4654 200.671 93.4275 200.686 93.3909 200.701C93.2615 200.753 93.1486 200.799 92.9987 200.738C92.3833 200.489 91.2122 199.08 90.0099 197.634C88.8031 196.182 87.565 194.692 86.8262 194.3C86.4752 194.114 86.1386 194.111 85.7668 194.225C85.5362 194.295 85.5045 194.332 85.3941 194.461C85.3734 194.485 85.3499 194.512 85.3218 194.544C85.2403 195.138 85.538 195.581 85.8843 196.039C86.2545 196.529 86.6881 196.97 87.1209 197.411C87.3628 197.657 87.6044 197.904 87.8346 198.158C88.7183 199.133 89.5514 200.155 90.3834 201.175C90.5068 201.327 90.6302 201.478 90.7537 201.629C90.2612 202.371 89.9047 203.127 89.5408 203.936C89.222 203.927 88.7974 203.908 88.3043 203.887C85.8326 203.78 81.6407 203.599 80.4383 204.129C80.1825 204.471 80.0759 204.65 80 205.085C80.1582 205.454 80.2484 205.584 80.6343 205.733C81.6048 206.11 83.1835 206.007 84.7756 205.902C86.7765 205.771 88.7985 205.638 89.6609 206.456C89.6706 206.482 89.6799 206.506 89.6887 206.529C89.794 206.802 89.8419 206.926 89.6979 207.245C89.3657 207.98 88.5289 208.952 87.677 209.94C86.5564 211.241 85.4099 212.571 85.352 213.435C85.4659 213.798 85.6054 214.039 85.9613 214.22C86.2836 214.384 86.6029 214.379 86.9264 214.216C87.4985 213.927 90.7581 209.2 91.2582 208.453C92.2373 208.873 93.0564 209.093 94.1319 209.144L94.1656 209.405C94.2096 209.76 94.2373 210.428 94.2707 211.233C94.3654 213.515 94.5057 216.899 95.1928 217.349C95.5244 217.567 95.7928 217.584 96.1704 217.542C96.5721 217.217 96.6737 216.881 96.7297 216.38C96.8595 215.222 96.6727 213.951 96.4932 212.73C96.4249 212.265 96.3576 211.807 96.3093 211.365C96.1918 210.291 96.1626 209.207 96.1335 208.127L96.132 208.071C96.212 207.977 96.2915 207.882 96.3711 207.787C96.6256 207.483 96.8807 207.179 97.1527 206.892C97.4679 207.031 97.785 207.17 98.1026 207.308C99.3042 207.832 100.514 208.359 101.662 208.978C102.268 209.305 102.856 209.662 103.444 210.019C104.052 210.389 104.661 210.759 105.289 211.095C105.774 210.8 106.222 210.505 106.661 210.145C105.988 209.242 104.399 208.224 102.858 207.237C101.086 206.103 99.3797 205.01 99.2073 204.183C99.6875 203.613 100.925 202.961 102.233 202.273C104.269 201.2 106.474 200.039 106.254 198.961C106.188 198.636 106.051 198.558 105.808 198.42C105.789 198.409 105.77 198.398 105.75 198.386C104.481 198.296 102.117 199.809 100.208 201.031C99.4315 201.528 98.7302 201.977 98.2089 202.25C97.5682 201.564 97.0364 201.027 96.1654 200.634C96.2262 200.168 96.373 199.404 96.5426 198.522C96.9766 196.264 97.5594 193.231 97.228 192.437C96.8346 192.074 96.5618 191.979 96.0274 192.004C95.9725 192.006 95.9179 192.01 95.8632 192.013ZM94.6242 202.504C94.3579 202.399 94.0532 202.348 93.7705 202.303C92.8983 202.705 92.228 203.153 91.8501 204.075C91.6406 204.587 91.6063 205.159 91.863 205.661C92.122 206.167 92.6103 206.463 93.1418 206.616C93.2996 206.66 93.4587 206.699 93.619 206.732C94.4393 206.484 95.0385 206.218 95.4416 205.418C95.7348 204.836 95.8567 204.158 95.6074 203.539C95.4351 203.111 95.0596 202.677 94.6242 202.504Z" fill="#FEFEFE"/>
    <path d="M88.4732 21C88.78 21.0776 88.9865 21.1787 89.2534 21.3481C90.2302 22.9157 88.6892 27.6964 88.5831 29.6944L88.5731 29.9042C90.4514 28.5522 91.724 26.3722 93.6682 25.0187C94.1478 24.685 94.4905 24.5599 95.0691 24.6551C95.3797 25.0198 95.3853 25.1736 95.4775 25.6324C95.0193 27.3812 91.1384 29.1325 89.7544 30.5953L89.6056 30.7538C91.6306 31.113 94.3027 30.6753 96.098 31.222C96.6541 31.3913 96.9102 31.8141 97.1826 32.2849C97.1979 32.6675 97.2192 32.6505 96.9673 32.935C95.2224 33.6688 91.1357 32.5904 89.1696 32.2608C90.3913 33.8464 91.9672 35.671 92.6337 37.5621C92.8042 38.0458 92.8139 38.3701 92.5818 38.8274C92.206 39.0305 92.1544 39.0314 91.7264 39.0003C90.1089 38.0918 89.0281 34.5111 88.1372 32.8582L88.0209 32.7683C86.8514 32.5998 85.5304 37.4446 84.1215 38.3215C83.6601 38.3675 83.607 38.3426 83.1907 38.1316C81.8267 36.1436 86.6296 33.7544 86.6513 31.9204C85.6268 31.3099 81.3231 32.6563 79.7911 32.6429C79.1082 32.637 78.5516 32.5359 78.0585 32.0379C77.9885 31.6755 77.9431 31.5211 78.1757 31.1909C79.0408 29.9648 84.0433 30.5769 85.7138 30.2842L85.9426 30.2432C84.9324 28.8067 81.5044 26.0484 81.1605 24.7588C81.0852 24.4761 81.2293 24.1327 81.4186 23.927C81.6594 23.6648 81.9957 23.5143 82.3546 23.5521C83.5558 23.6786 86.2473 28.2929 87.3374 29.4495C87.3816 29.4967 87.4273 29.5424 87.4722 29.5887C87.5381 27.6023 87.3588 25.6061 87.4619 23.6232C87.5193 22.5176 87.6374 21.7576 88.4732 21Z" fill="#FEFEFE"/>
    <path fill-rule="evenodd" clip-rule="evenodd" d="M53.3856 33.9855C53.0874 33.4661 52.8096 32.9359 52.5524 32.3949C51.7022 30.5753 51.3126 28.4299 52.0567 26.506C52.7253 24.7774 54.1397 23.4351 55.8542 22.7601C57.5127 22.107 59.2444 22.1234 60.8759 22.8518C62.4673 23.5616 63.7297 24.8507 64.3385 26.4901C65.3182 29.128 64.3819 31.4721 63.2663 33.8486C63.6362 33.8562 64.0069 33.8661 64.3778 33.876L64.378 33.876H64.378H64.378H64.3781C65.6385 33.9095 66.9027 33.9432 68.1591 33.8882L68.145 33.7799C68.0862 33.3334 68.0122 32.7722 68.2119 32.3782C68.3332 32.1389 68.6938 32.0463 68.9405 31.9982C69.3685 31.915 69.8396 31.9033 70.195 32.2019C70.6359 32.5719 70.7584 33.2794 70.7929 33.8214L70.7995 33.9241C70.8878 35.2963 71.0687 38.1065 70.2492 39.0928C69.7199 39.2845 64.5448 39.3555 62.1035 39.389L62.1026 39.389L62.0989 39.389C61.6288 39.3955 61.2606 39.4005 61.047 39.4048L61.3069 47.0897C61.2384 47.1011 61.1703 47.113 61.1026 47.1247L61.1026 47.1247C60.5915 47.2135 60.0986 47.2992 59.574 47.2112C59.1008 47.1553 58.6433 47.1889 58.1724 47.2235L58.0391 47.2332C57.5358 47.4209 57.042 47.4101 56.5219 47.3987C56.4469 47.3971 56.3713 47.3954 56.2951 47.3943C56.2824 45.5636 56.2112 43.7287 56.14 41.8957C56.1095 41.1085 56.079 40.3215 56.0531 39.5354C55.6519 39.5343 55.1339 39.5148 54.5615 39.4933L54.5612 39.4933L54.5604 39.4933L54.5604 39.4932H54.5603C52.8875 39.4304 50.7497 39.35 49.6992 39.6564C49.6783 39.6977 49.657 39.7416 49.6352 39.7867C49.5543 39.9539 49.4653 40.138 49.3541 40.2679C49.1533 40.5024 48.878 40.5439 48.5931 40.5869L48.593 40.5869C48.5583 40.5921 48.5235 40.5974 48.4886 40.603L48.4402 40.586C48.1669 40.49 48.0345 40.4434 47.8347 40.194C47.0408 39.2044 46.9259 36.2135 47.0589 34.988C47.1269 34.3607 47.3979 33.5604 47.9657 33.2123C48.2531 33.0359 48.6114 33.0266 48.9193 33.1599C49.2904 33.3209 49.4259 33.6029 49.58 33.9236C49.6129 33.992 49.6466 34.0622 49.6837 34.1334C50.6305 34.1285 51.5788 34.0788 52.5257 34.0292C52.8125 34.0142 53.0991 33.9992 53.3856 33.9855ZM57.832 27.7422C57.8885 27.7559 57.9389 27.7674 57.9846 27.7779C58.2786 27.8449 58.3746 27.8668 58.6086 28.1506C58.8975 29.3479 59.0537 33.0751 58.5518 34.16C58.0382 33.2776 57.9192 31.7407 57.8182 30.4353V30.4353C57.7833 29.9849 57.7506 29.5621 57.7045 29.2032L57.7017 29.1815C57.6259 28.5935 57.5886 28.3037 57.832 27.7422ZM59.4435 39.4629L57.8008 39.5326C57.8694 41.0376 57.9082 42.5458 57.9469 44.0539L57.9469 44.054L57.9469 44.0541L57.9469 44.0543C57.9741 45.1144 58.0014 46.1743 58.039 47.233L58.1722 47.2233H58.1722C58.6431 47.1887 59.1007 47.1551 59.5738 47.211L59.4435 39.4629ZM69.2527 36.6922L69.2527 36.6923L69.2527 36.6924C69.2424 36.8549 69.2321 37.0166 69.2243 37.1767C62.5106 37.2013 55.7021 37.3393 49.0019 37.7614L48.8516 35.8319C52.4043 35.6478 55.9591 35.5261 59.5159 35.4669C60.2406 35.455 61.1061 35.4757 62.032 35.4978C64.5327 35.5576 67.4741 35.6279 69.2712 35.0957C69.321 35.6182 69.2866 36.1598 69.2527 36.6922ZM58.8239 23.8832C58.4047 23.8446 57.9746 23.8645 57.5548 23.8867C56.1541 24.2913 54.6283 25.007 53.9211 26.3682C53.1172 27.9156 53.2549 29.8574 53.8396 31.4477C54.1581 32.314 54.727 33.4296 55.6636 33.7662C55.8535 33.8345 55.9069 33.8441 56.0472 33.8693C56.0725 33.8738 56.1007 33.8789 56.133 33.8849C56.3424 33.6575 56.3264 33.4478 56.3058 33.1783C56.3018 33.1266 56.2977 33.0728 56.295 33.0162C56.2767 32.6347 56.214 32.1593 56.1455 31.6393C55.9306 30.0077 55.6579 27.938 56.5153 26.9573C56.999 26.4042 57.6755 26.2917 58.3733 26.2818C58.5669 26.2788 58.7603 26.2808 58.9537 26.2876C58.9702 26.2961 58.9868 26.3046 59.0033 26.313C59.0317 26.3274 59.06 26.3418 59.0882 26.3568C59.6726 26.6658 60.0098 26.9524 60.2003 27.6113C60.5025 28.6568 60.4744 29.8075 60.4463 30.9594C60.4224 31.9404 60.3985 32.9224 60.5785 33.8409C60.7553 33.8826 60.805 33.915 60.8511 33.9104C60.8903 33.9065 60.9269 33.8759 61.037 33.8014C62.0887 33.0898 62.9917 30.8696 63.1414 29.6714C63.3148 28.2862 62.8839 26.8387 62.0234 25.7439C61.2684 24.7835 60.062 23.9972 58.8239 23.8832Z" fill="#FEFEFE"/>
    <path fill-rule="evenodd" clip-rule="evenodd" d="M65.8569 46.6525C64.3365 46.7687 62.8167 46.8848 61.3059 47.0911C61.2374 47.1026 61.1694 47.1144 61.1017 47.1262L61.1016 47.1262C60.5905 47.215 60.0976 47.3007 59.573 47.2127C59.0998 47.1567 58.6423 47.1904 58.1714 47.225L58.0381 47.2347C57.5348 47.4224 57.041 47.4116 56.5209 47.4002C56.4459 47.3985 56.3703 47.3969 56.2941 47.3958C53.3894 47.5364 50.4836 47.5637 47.5768 47.4776C46.966 47.4565 46.3404 47.4051 45.7107 47.3535C44.5032 47.2544 43.2807 47.154 42.1182 47.2634C41.7921 47.5148 41.759 47.5684 41.6079 47.9528C41.6928 48.4107 41.8132 48.6125 42.1472 48.9424C42.9621 49.7466 44.2129 50.3047 45.2906 50.7856C45.4163 50.8417 45.5396 50.8967 45.6596 50.951C49.8101 52.828 52.2986 53.5066 56.863 53.5883C56.7851 54.3459 56.7145 55.1213 56.6429 55.908V55.9081L56.6429 55.9082L56.6429 55.9083C56.1777 61.0209 55.6691 66.6094 52.8113 70.8538C51.417 72.9242 49.2959 74.4157 46.8277 74.8816C43.8086 75.4508 41.5311 74.8517 39.0353 73.0974C39.6356 72.5123 40.2905 72.0748 40.9578 71.6289C41.2725 71.4187 41.59 71.2066 41.9058 70.9763C42.7466 70.3631 43.646 69.4898 43.7688 68.3996C43.8163 67.9772 43.7354 67.7229 43.4673 67.4032C42.642 67.2533 41.6615 68.1375 40.7587 68.9515C40.2412 69.4182 39.7491 69.8619 39.3265 70.0745C39.2903 70.0928 39.2538 70.1105 39.2172 70.1283L39.1836 70.1446L39.1496 70.1612C34.115 68.0179 30.5283 66.0579 28.0739 60.9099C28.5256 60.7463 28.9901 60.617 29.4545 60.4878L29.4545 60.4878L29.4545 60.4878L29.4546 60.4878L29.4546 60.4878L29.4546 60.4878C30.0639 60.3182 30.6728 60.1488 31.2519 59.9021C31.7903 59.6727 32.1326 59.4831 32.3464 58.9268C32.2378 58.6646 32.1514 58.5638 31.9129 58.3962C31.511 58.1138 30.9634 57.9131 30.4583 57.728L30.4582 57.728C30.2979 57.6692 30.1417 57.612 29.996 57.5542L29.9942 57.5535L29.9942 57.5535C28.4213 56.93 26.7498 56.2674 25.4079 55.2105C24.2998 54.3379 23.9359 53.3175 23.574 52.3031C23.3143 51.575 23.0558 50.8501 22.524 50.1852C22.1894 50.0132 22.0356 50.0009 21.6631 50.0437C21.0841 50.6209 21.3195 51.9049 21.5758 53.303C21.7881 54.461 22.0147 55.6973 21.8049 56.675C21.5015 58.0891 20.3293 60.1224 19.365 61.7949C18.6349 63.0615 18.024 64.1212 18 64.5483C18.1965 64.8918 18.2525 64.9193 18.5839 65.0824L18.6338 65.107C19.6059 65.0986 21.0989 64.4206 22.4158 63.8225C23.0399 63.5391 23.6244 63.2737 24.0952 63.106C26.1977 67.7132 29.123 73.4973 33.3439 76.4363C33.1871 76.6605 32.9741 76.9408 32.7332 77.2576C31.7044 78.6112 30.168 80.6326 30.3395 81.8006C30.5994 82.0892 30.7193 82.1689 31.1 82.2494C31.816 82.0907 33.3734 79.8639 34.3367 78.4864L34.3368 78.4864C34.5825 78.1351 34.7895 77.839 34.9341 77.6466C40.0507 82.7891 46.8415 85.7404 53.6193 88.0077C54.3957 88.2673 55.1782 88.5135 55.9611 88.7598L55.9612 88.7598C57.5398 89.2564 59.12 89.7534 60.6546 90.3623C60.6934 90.4721 60.7319 90.5911 60.772 90.7149L60.7721 90.7153L60.7723 90.7157L60.7723 90.7157C60.9488 91.2607 61.1555 91.8987 61.5382 92.2552C61.8321 92.5291 61.9607 92.5444 62.3345 92.5581C62.9079 92.2027 63.1616 91.8073 63.3306 91.1569L63.6775 89.8587C65.3253 88.6418 67.2876 87.8896 69.2248 87.1471L69.225 87.1471C69.9988 86.8505 70.7685 86.5554 71.5126 86.2329C72.2726 85.9111 73.0245 85.5713 73.7682 85.2137C74.512 84.8559 75.2467 84.4806 75.9725 84.0878C76.6983 83.6948 77.4142 83.2849 78.1203 82.8579C78.8265 82.4308 79.5222 81.9871 80.2074 81.527C80.8923 81.0666 81.566 80.5902 82.2283 80.0979C82.8906 79.6055 83.5407 79.0976 84.1786 78.5741C84.8167 78.0507 85.4418 77.5123 86.0542 76.959C86.6665 76.4055 87.2652 75.8378 87.8503 75.256C88.1342 75.8206 88.4093 76.5332 88.6965 77.2775C89.2436 78.6949 89.8349 80.2269 90.6154 81.0691C90.9043 81.3808 91.1205 81.4177 91.5291 81.4534L91.5533 81.4447C91.8745 81.3294 91.8928 81.3228 92.0861 81.0245C92.3289 79.2424 90.853 76.6075 89.9018 74.9091C89.8153 74.7547 89.7332 74.6081 89.6571 74.4705C92.3316 70.4985 94.0522 65.9372 95.4913 61.4047C95.7772 61.5014 96.1411 61.6362 96.5529 61.7887L96.5533 61.7888L96.5535 61.7889C98.3518 62.4549 101.064 63.4592 102.191 63.1124C102.368 63.0582 102.373 63.0463 102.421 62.9386C102.437 62.9025 102.458 62.8556 102.491 62.7928C102.283 62.1722 101.412 61.3329 100.418 60.3745C99.1936 59.1942 97.782 57.8333 97.1884 56.4776C96.7761 55.5359 96.8112 54.0678 96.8466 52.5832C96.8884 50.8355 96.9307 49.0648 96.2445 48.1022C96.2025 48.0936 96.1648 48.084 96.1296 48.075C95.9971 48.0412 95.9004 48.0166 95.7456 48.0925C94.8783 48.518 94.3113 50.6504 93.8861 52.2497C93.7312 52.8319 93.5952 53.3434 93.4704 53.6762C92.4903 56.2876 90.2159 56.765 87.8812 57.2552C86.787 57.4849 85.6796 57.7173 84.686 58.1736C84.5888 58.5149 84.6112 58.6049 84.6927 58.9327L84.7036 58.9763C85.4753 59.9099 87.699 60.0458 89.4096 60.1503C89.9562 60.1837 90.4504 60.2139 90.8281 60.2659C89.0919 64.1812 87.1545 67.7563 84.703 71.2775C84.1891 71.0784 83.5129 70.7762 82.7824 70.4499L82.7823 70.4498C81.2362 69.759 79.4468 68.9595 78.4384 68.7984C78.0642 68.7387 77.9523 68.819 77.7042 68.9971L77.6566 69.0312C77.6372 69.045 77.617 69.0593 77.5959 69.074L77.5769 69.127C77.479 69.3994 77.4259 69.5473 77.5838 69.8478C78.1473 70.9203 80.7337 71.7535 82.3895 72.287L82.3896 72.287C82.7483 72.4026 83.0633 72.504 83.3046 72.5908C82.1887 73.3233 81.0549 73.7774 79.741 74.0068C76.4178 74.5874 72.6461 73.6839 69.9072 71.7228C64.4691 67.8289 62.4904 59.1002 61.4155 52.8418C64.8473 53.2901 68.6005 51.7936 71.4998 50.0656L71.5727 50.0222C72.94 49.2078 75.6825 47.5742 76.0739 46.0033C76.0632 45.9602 76.0553 45.9205 76.0479 45.8834C76.0201 45.7437 75.9995 45.6403 75.8641 45.5267C75.541 45.2548 75.1481 45.1903 74.7394 45.229C74.0427 45.2955 73.3518 45.5005 72.6599 45.7059C72.0675 45.8817 71.4744 46.0577 70.8763 46.1472C69.2101 46.3964 67.5331 46.5245 65.8569 46.6525ZM70.7371 48.0977L70.2171 48.1029C69.1324 48.2299 67.9738 48.3156 66.7997 48.4024C64.7575 48.5534 62.6683 48.7079 60.8397 49.0891L60.707 49.2666C60.9118 49.8678 61.4386 50.2387 61.9671 50.5469C62.7423 50.7317 63.422 50.8457 64.2194 50.7493C65.5097 50.5935 69.6191 49.1037 70.5593 48.308C70.6062 48.2685 70.6433 48.2193 70.6804 48.1701L70.6804 48.1701C70.6989 48.1455 70.7174 48.121 70.7371 48.0977ZM25.0699 57.0649L25.0703 57.0651L25.0704 57.0651C26.3387 57.6411 27.6084 58.2178 28.8397 58.868L28.4879 59.0138L28.4879 59.0138C27.1396 59.5721 25.7977 60.1278 24.5074 60.8159L24.404 60.8793C23.4473 61.4655 22.508 62.041 21.4648 62.4686C21.9962 61.495 22.4508 60.4758 22.9061 59.455L22.9061 59.455C23.3234 58.5194 23.7414 57.5824 24.2197 56.6777C24.5026 56.8073 24.7861 56.936 25.0697 57.0648L25.0698 57.0648L25.0699 57.0649ZM58.8547 49.3045C58.6039 49.2734 58.4158 49.257 58.1618 49.281C54.3872 49.5148 50.4163 49.7284 46.6484 49.3613C47.5804 49.8403 48.4982 50.259 49.482 50.6202C49.6026 50.6568 49.7294 50.6956 49.8616 50.7361C51.9611 51.3793 55.431 52.4424 57.343 51.4979C58.1885 51.0804 58.6004 50.4081 58.9279 49.5576L58.8547 49.3045ZM60.7051 59.5957C61.0745 59.9643 61.3515 61.0303 61.5858 61.9321C61.6953 62.3534 61.7954 62.7389 61.8913 63.0006C62.8643 65.6549 64.1542 68.4322 65.8982 70.6749C68.3012 73.7643 72.2375 75.6012 76.0769 76.0646C79.6312 76.4938 82.2846 75.619 85.066 73.435L86.1772 74.1431C84.2586 76.1376 82.2462 77.8011 79.9159 79.2946C77.6894 80.6534 75.4713 81.9973 73.1387 83.1683C71.4411 84.0205 69.7126 84.81 67.983 85.6001L67.9828 85.6001L67.9827 85.6002C66.2614 86.3864 64.5391 87.1732 62.8449 88.0227C62.6807 86.1007 62.5846 84.1739 62.4884 82.2468C62.407 80.6149 62.3255 78.9827 62.2027 77.3531C61.9902 74.5295 61.7372 71.7079 61.4843 68.8865C61.2067 65.7899 60.9292 62.6937 60.7051 59.5957ZM59.3514 62.7783C59.2213 59.9134 59.026 55.6142 58.6442 54.582C58.6402 54.5996 58.6361 54.6171 58.6319 54.6346C58.6252 54.663 58.6185 54.6913 58.6123 54.7197C58.3483 55.9185 58.2708 57.1642 58.1936 58.4058C58.1484 59.1328 58.1033 59.8585 58.0208 60.5724C57.4372 65.6237 55.7986 72.2709 51.2904 75.2454C48.8081 76.8834 45.1152 77.3445 42.2371 76.7419C37.4825 75.7458 30.8259 68.4816 28.281 64.5544C28.0674 64.2248 27.8752 63.8759 27.6827 63.5263C27.3426 62.9089 27.0015 62.2896 26.5396 61.7715C26.485 61.764 26.437 61.7563 26.3933 61.7493C26.1866 61.7163 26.0769 61.6987 25.8267 61.7937C25.6276 62.1834 25.6345 62.4477 25.7561 62.8698C26.2587 64.6156 29.0842 68.9255 30.2934 70.453C31.9396 72.556 33.8594 74.2733 35.8745 76.0077C43.1483 82.268 49.5458 84.4615 57.8587 87.3118C58.8709 87.6588 59.9114 88.0156 60.9854 88.3906C60.9649 82.9502 60.4969 77.4785 60.0304 72.0252C59.8285 69.6642 59.6268 67.3067 59.4619 64.9566C59.4292 64.4901 59.3938 63.7101 59.3514 62.7783Z" fill="#FEFEFE"/>
    <path d="M41.6075 264.125C41.9105 264.149 42.2029 264.157 42.4762 264.309C44.3017 265.321 48.5494 275.669 48.9713 277.86C47.8466 278.352 46.6645 278.662 45.4841 278.986C43.6191 279.437 41.3691 280.441 39.4636 280.386C39.3573 280.13 39.3663 280.217 39.3558 279.946C39.2758 277.946 39.9909 267.62 40.4386 265.974C40.641 265.229 41.0849 264.672 41.6075 264.125Z" fill="#FEFEFE"/>
    <path d="M28.8776 265.063C30.2867 264.96 31.4469 264.943 32.714 265.694C34.3022 266.637 35.3308 268.303 35.7289 270.079C36.1432 271.928 36.1344 274.412 35.0571 276.021C34.2371 277.246 33.2103 277.631 31.8444 277.933C30.8577 277.994 29.9451 277.897 29.0217 277.52C27.2973 276.815 26.015 275.364 25.3569 273.639C24.6858 271.879 24.6119 269.635 25.4375 267.911C26.1483 266.427 27.3758 265.602 28.8776 265.063Z" fill="#FEFEFE"/>
    <path d="M52.9409 259.637C54.2961 259.556 55.35 259.677 56.5312 260.418C58.0626 261.379 59.0135 262.881 59.4377 264.616C59.9088 266.542 59.9006 268.896 58.8032 270.609C57.9521 271.937 56.7975 272.451 55.3303 272.808C54.314 272.858 53.4278 272.773 52.4868 272.358C50.7881 271.607 49.4786 270.093 48.8589 268.354C48.2103 266.535 48.2668 264.353 49.1414 262.615C49.9458 261.017 51.2915 260.168 52.9409 259.637Z" fill="#FEFEFE"/>
    <path fill-rule="evenodd" clip-rule="evenodd" d="M41.5054 211.307C41.2232 211.182 40.9892 211.078 40.8161 211C39.9815 211.639 39.2327 212.344 38.4858 213.047L38.4858 213.047L38.4857 213.047C37.3643 214.104 36.2472 215.156 34.8501 215.973L34.3887 215.738C34.2149 215.432 34.2033 215.427 33.8822 215.289L33.8774 215.286C33.2853 215.388 32.8172 215.731 32.4047 216.158C31.8974 216.666 31.2707 216.965 30.6468 217.263C30.0932 217.528 29.5419 217.792 29.078 218.199C27.4298 219.644 26.6335 226.614 26.4076 228.856C28.287 229.532 30.2218 229.952 32.1724 230.358C33.0445 227.898 34.0424 225.536 35.3795 223.29C36.0385 224.632 36.5777 226.046 37.1132 227.451C37.2779 227.883 37.4422 228.314 37.6096 228.742L37.7861 229.194C38.8185 231.832 39.8491 234.466 40.7446 237.156C38.4435 237.65 36.1555 238.262 33.8751 238.872L33.875 238.872L33.875 238.872L33.875 238.872L33.8749 238.872L33.8749 238.872L33.8748 238.872L33.8748 238.872L33.8747 238.872L33.8747 238.872L33.8746 238.872L33.8746 238.872L33.8745 238.872L33.8745 238.872L33.8744 238.872C33.2477 239.04 32.6216 239.207 31.996 239.372C31.3934 239.531 30.7829 239.685 30.1686 239.84C27.5046 240.514 24.7709 241.205 22.3207 242.347C20.683 243.111 19.0665 244.171 17.8946 245.564C15.317 248.629 15.0785 253.192 15.3574 256.999C15.2928 257.016 15.2246 257.034 15.1537 257.053L15.1531 257.053L15.1529 257.053C14.4931 257.224 13.6015 257.456 13.1904 257.956C13.0416 258.137 12.9716 258.322 13.0107 258.55C13.1101 259.129 13.5857 259.417 14.0523 259.701L14.0524 259.701L14.0524 259.701L14.0525 259.701L14.0525 259.701L14.0526 259.701L14.0526 259.701L14.0527 259.701L14.0527 259.701L14.0528 259.701L14.0528 259.701C14.1299 259.748 14.2068 259.794 14.2817 259.842C15.6907 264.024 26.4331 288.374 28.732 289.801C29.6054 290.343 31.0563 290.367 32.1274 290.385L32.1303 290.385C32.2177 290.386 32.3024 290.388 32.3842 290.389C39.5218 290.533 46.7561 288.981 53.6276 287.176C54.0271 287.071 54.4716 286.96 54.9466 286.841L54.9515 286.84L54.9524 286.84L54.9524 286.84C57.7449 286.141 61.5833 285.181 63.4597 283.694C63.8846 283.358 64.1439 282.913 64.413 282.451L64.42 282.439C64.5384 280.028 64.3454 277.537 64.1586 275.127L64.1423 274.917C63.7014 269.218 62.886 263.435 61.827 257.82C61.5352 256.273 61.2108 254.732 60.8864 253.192L60.8863 253.191L60.8863 253.191L60.8863 253.191L60.8863 253.191L60.8862 253.191L60.8862 253.191L60.8862 253.191L60.8862 253.19L60.8861 253.19L60.8861 253.19L60.8861 253.19L60.8861 253.19L60.8861 253.19L60.886 253.19C60.499 251.351 60.1119 249.513 59.7803 247.664L59.8542 247.632L59.8543 247.632C60.1997 247.484 60.5502 247.334 60.8698 247.136C61.2185 246.921 61.4795 246.665 61.5516 246.243C61.5908 246.014 61.5275 245.886 61.3837 245.704C60.8935 245.082 59.8513 245.109 59.0768 245.13L59.0761 245.13C58.9765 245.133 58.8813 245.135 58.7924 245.136C56.925 242.237 53.5526 237.987 50.4328 236.403C48.1527 235.245 45.2712 236.186 42.9809 236.934L42.919 236.954C41.5624 233.713 40.3536 230.372 39.1485 227.042L39.1484 227.042L39.1484 227.042L39.1484 227.042L39.1484 227.042L39.1484 227.042L39.1484 227.042L39.1483 227.042L39.1483 227.042L39.1483 227.042L39.1483 227.042L39.1483 227.042L39.1483 227.042L39.1482 227.042L39.1482 227.042L39.1481 227.042L39.1481 227.041C38.5732 225.453 37.9992 223.867 37.4103 222.295C39.0773 220.809 40.6289 219.255 41.6317 217.238C43.3166 217.351 50.4407 217.585 51.5086 216.686C51.0748 215.558 44.1607 212.487 41.5054 211.307ZM39.8397 217.172C38.2776 216.815 36.8562 216.706 35.2539 216.749C35.7364 218.065 36.2283 219.36 36.8093 220.637C37.2885 220.442 38.447 218.95 39.2308 217.941C39.4853 217.614 39.7003 217.337 39.8397 217.172ZM40.974 212.545C43.3576 213.579 45.7477 214.621 48.0519 215.824L45.0176 215.829C42.6105 215.842 40.2319 215.679 37.834 215.489C38.8898 214.517 39.9365 213.536 40.974 212.545ZM47.6848 237.847L47.6403 237.842C47.5514 237.856 47.467 237.866 47.386 237.876L47.386 237.876L47.386 237.876L47.3859 237.876L47.3859 237.876L47.3859 237.876C47.079 237.912 46.8229 237.942 46.5684 238.182C46.8252 238.695 47.5729 239.333 48.2979 239.951C48.7977 240.378 49.2868 240.795 49.5968 241.156C51.0713 242.872 52.1978 244.809 53.2489 246.804L55.1632 246.252L56.5226 245.825L56.3669 245.626C54.5937 243.354 50.6014 238.241 47.8893 237.87C47.8356 237.862 47.7815 237.857 47.7273 237.851L47.6848 237.847ZM40.8463 239.441C42.1482 240.58 45.1723 246.958 45.8563 248.819L43.2366 249.638C43.1051 249.478 42.6319 248.337 42.1758 247.237C41.826 246.394 41.4863 245.575 41.3186 245.241C40.4218 243.459 39.283 241.892 38.0859 240.307C39 239.999 39.9201 239.71 40.8463 239.441ZM30.5217 249.898C30.2601 247.002 29.9152 243.184 29.4417 242.27C27.5936 245.216 26.8776 247.723 26.8811 251.208C26.8813 251.38 26.8766 251.563 26.8717 251.751L26.8717 251.751C26.8565 252.339 26.8399 252.98 26.9652 253.488C26.973 253.519 26.9837 253.549 26.9943 253.579C26.9998 253.595 27.0053 253.61 27.0103 253.626C27.4091 253.598 27.7225 253.523 28.1014 253.408L30.8128 252.792C30.7284 252.186 30.6325 251.125 30.5217 249.898ZM26.8142 243.037L27.0122 243.16C26.9169 243.679 26.705 244.172 26.4932 244.665C26.3295 245.045 26.1659 245.426 26.056 245.819C25.3344 248.396 25.5351 251.444 25.8069 254.069L22.5811 255.058L22.3074 255.011C21.7476 253.679 22.5228 249.924 22.935 248.472C23.6273 246.032 24.5261 244.318 26.8142 243.037ZM22.4588 245.07L22.3753 244.85C20.3836 245.786 19.1099 246.923 18.3265 249.048C17.5414 251.178 17.2096 254.171 17.7222 256.384C18.7783 256.12 19.8017 255.825 20.8293 255.466C20.8685 251.887 20.9875 248.407 22.4588 245.07ZM43.4336 238.823C44.7938 238.808 45.6244 239.271 46.6642 240.113C47.9781 241.176 51.8318 245.561 52.0012 247.102L51.6519 247.33C50.5434 247.638 49.4298 247.874 48.3019 248.1C46.6978 245.587 44.6954 241.569 43.4336 238.823ZM35.7852 251.629C35.5543 249.95 34.2392 242.526 33.2097 241.496C33.0214 241.555 32.832 241.612 32.6423 241.669L32.6421 241.669L32.642 241.669L32.6418 241.669L32.6416 241.669L32.6413 241.669C32.0987 241.832 31.554 241.996 31.0273 242.197C31.0459 242.516 31.0641 242.836 31.0824 243.156L31.0827 243.16L31.0828 243.163L31.0829 243.165L31.083 243.166V243.166C31.2598 246.261 31.441 249.432 31.8857 252.482L33.2592 252.188L35.7852 251.629ZM35.3847 240.694L35.4237 240.694H35.4238H35.4239H35.424H35.424C35.4562 240.695 35.4884 240.695 35.5206 240.695C35.5477 240.694 35.5746 240.694 35.6013 240.693H35.6013C35.7599 240.69 35.9127 240.686 36.0676 240.741C38.5734 241.623 41.2086 247.693 42.0916 249.968L40.4337 250.428L36.9336 251.24C36.7871 250.046 36.6125 248.862 36.3324 247.691C36.2116 247.185 36.0372 246.579 35.8511 245.932C35.3928 244.339 34.8633 242.498 34.8875 241.309C34.8919 241.097 35.075 240.949 35.2468 240.81C35.2951 240.771 35.3424 240.733 35.3847 240.694ZM31.4637 218.399L31.4637 218.399C30.7895 218.871 30.1092 219.347 29.3952 219.716C28.6405 222.4 28.1694 225.249 27.8984 228.022L28.137 228.088L28.1371 228.088L28.1371 228.088L28.1371 228.088L28.1371 228.088C29.1467 228.366 30.1549 228.644 31.1472 228.98C31.3491 228.511 31.5506 227.994 31.76 227.456C32.4363 225.72 33.1949 223.772 34.3147 222.565C34.4798 222.387 34.6588 222.295 34.8448 222.2C34.9461 222.148 35.0495 222.095 35.1538 222.026C35.187 222.005 35.2146 221.976 35.2423 221.946L35.2423 221.946C35.2561 221.932 35.2699 221.917 35.2845 221.904C35.0098 221.892 34.7718 221.825 34.5088 221.751L34.4967 221.748C33.5719 220.993 33.091 219.617 32.6734 218.422C32.5905 218.185 32.5101 217.955 32.4292 217.738C32.1068 217.95 31.7859 218.174 31.4637 218.399ZM57.2944 248.232L57.3097 248.239C57.3623 248.262 57.3766 248.268 57.4371 248.338C58.4681 249.532 61.5504 271.165 61.805 273.865C62.0616 276.591 62.1097 279.339 62.1126 282.075C61.3119 282.488 60.5235 282.787 59.6698 283.072C59.6616 282.893 59.6521 282.713 59.6426 282.534L59.6426 282.534C59.6286 282.268 59.6146 282.003 59.6045 281.737C59.5726 280.902 59.4636 280.383 58.9078 279.734C58.5318 279.619 58.5218 279.624 58.1928 279.768L58.1414 279.79C57.246 280.834 57.3212 282.076 57.3981 283.348L57.3981 283.349L57.3981 283.349C57.4084 283.52 57.4188 283.691 57.4268 283.862C56.729 284.14 56.0141 284.379 55.3008 284.619L55.3007 284.619L55.3006 284.619L55.3005 284.619C55.097 284.687 54.8936 284.755 54.6908 284.825C54.6841 284.66 54.6791 284.493 54.6741 284.325C54.6581 283.786 54.6418 283.238 54.5651 282.715C54.4769 282.115 54.2059 281.012 53.6519 280.661C53.522 280.578 53.4973 280.59 53.4016 280.634C53.3682 280.65 53.326 280.669 53.2676 280.69C52.3729 281.638 52.4534 283.304 52.5189 284.659C52.5304 284.895 52.5413 285.122 52.5466 285.333C51.4929 285.56 50.4498 285.829 49.4065 286.099L49.3886 286.103C49.2902 286.129 49.1918 286.154 49.0933 286.18C49.0381 286.194 48.9828 286.208 48.9275 286.222L48.9194 286.103L48.9126 286C48.8676 285.312 48.8136 284.488 48.474 283.917C48.2232 283.495 47.9452 283.22 47.4665 283.084C47.0801 283.184 46.9939 283.214 46.7601 283.57C46.3124 284.249 46.5511 285.289 46.7391 286.108C46.772 286.252 46.8034 286.388 46.8293 286.515C45.9624 286.717 45.0824 286.88 44.204 287.043L44.2039 287.043L44.2036 287.043L44.2034 287.043L44.203 287.043L44.2026 287.043L44.2021 287.043C43.8249 287.113 43.448 287.183 43.0726 287.256C43.0556 287.082 43.0407 286.902 43.0255 286.717L43.0255 286.717L43.0255 286.717L43.0255 286.717C42.962 285.948 42.8929 285.111 42.6513 284.429C42.4761 283.934 42.2373 283.491 41.758 283.247L41.7011 283.254C41.4013 283.291 41.3258 283.3 41.1158 283.586C40.4508 284.492 40.7728 286.194 40.9924 287.355C41.0152 287.476 41.0369 287.591 41.0563 287.698L36.8364 288.075C36.7263 286.642 36.6231 285.445 35.964 284.13C35.746 284 35.596 283.942 35.3575 283.87C35.3063 283.883 35.2592 283.893 35.2153 283.902C35.05 283.936 34.9283 283.961 34.793 284.121C34.1565 284.87 34.3809 286.506 34.5371 287.644C34.5656 287.852 34.5918 288.043 34.6101 288.209L30.007 288.187C29.5499 287.173 29.0009 286.194 28.4519 285.215C28.0361 284.474 27.6204 283.732 27.2446 282.976C24.8208 278.008 22.4853 273 20.2381 267.95C19.8794 267.161 19.5057 266.37 19.1305 265.575C18.1321 263.46 17.1228 261.322 16.3555 259.148C19.3914 258.381 22.4091 257.537 25.4264 256.693C27.4142 256.137 29.4018 255.581 31.3942 255.047L57.2944 248.232Z" fill="#FEFEFE"/>
</svg>
