<svg width="300" height="180" viewBox="0 0 300 180" fill="none" xmlns="http://www.w3.org/2000/svg">
    <rect x="1.5" y="1.5" width="297" height="177" stroke="#FEFEFE" stroke-width="3" stroke-dasharray="6 6"/>
    <path d="M69.9589 17.9148H66.3525V15.2148H76.5739V17.9148H72.9675V28.7148H69.9589V17.9148ZM81.6334 28.9848C80.7077 28.9848 79.9234 28.8691 79.2806 28.6377C78.6506 28.4063 78.1363 28.0591 77.7377 27.5963C77.352 27.1206 77.0691 26.5291 76.8891 25.822C76.7091 25.1148 76.6191 24.2791 76.6191 23.3148C76.6191 21.5405 77.037 20.2163 77.8727 19.342C78.7084 18.4677 79.8977 18.0305 81.4406 18.0305C82.302 18.0305 83.022 18.1463 83.6006 18.3777C84.192 18.5963 84.6677 18.9177 85.0277 19.342C85.4006 19.7663 85.6642 20.2805 85.8184 20.8848C85.9856 21.4763 86.0692 22.1448 86.0692 22.8906V24.2791H79.512C79.5634 25.102 79.782 25.6934 80.1677 26.0534C80.5534 26.4134 81.1706 26.5934 82.0192 26.5934C82.3534 26.5934 82.6877 26.5677 83.022 26.5163C83.3692 26.452 83.697 26.3684 84.0056 26.2656C84.3142 26.1627 84.597 26.0406 84.8542 25.8991C85.1113 25.7577 85.3234 25.6098 85.4906 25.4556V28.0398C85.0534 28.3098 84.5392 28.5348 83.9477 28.7148C83.3692 28.8948 82.5977 28.9848 81.6334 28.9848ZM81.4406 20.2291C80.8106 20.2291 80.3413 20.4091 80.0327 20.7691C79.737 21.1291 79.5634 21.7205 79.512 22.5434H83.1763C83.1763 21.7591 83.0542 21.1805 82.8099 20.8077C82.5656 20.422 82.1092 20.2291 81.4406 20.2291ZM86.879 25.957C87.0076 25.9956 87.1297 26.0148 87.2454 26.0148C87.4512 26.0148 87.6312 25.9441 87.7854 25.8027C87.9397 25.6613 88.0683 25.3784 88.1712 24.9541C88.274 24.517 88.3512 23.8934 88.4026 23.0834C88.454 22.2734 88.4862 21.1934 88.499 19.8434L88.5183 18.3005H96.4254V28.7148H93.5326V21.0005H91.2183L91.199 21.4634C91.1476 22.8906 91.0512 24.0863 90.9097 25.0506C90.7812 26.0148 90.5883 26.7863 90.3312 27.3648C90.074 27.9434 89.7462 28.3613 89.3476 28.6184C88.949 28.8627 88.4733 28.9848 87.9204 28.9848C87.7147 28.9848 87.5154 28.972 87.3226 28.9463C87.1426 28.9334 86.9947 28.9013 86.879 28.8498V25.957ZM103.179 28.9848C102.254 28.9848 101.469 28.8691 100.826 28.6377C100.196 28.4063 99.6821 28.0591 99.2835 27.5963C98.8978 27.1206 98.6149 26.5291 98.4349 25.822C98.2549 25.1148 98.1649 24.2791 98.1649 23.3148C98.1649 21.5405 98.5828 20.2163 99.4185 19.342C100.254 18.4677 101.444 18.0305 102.986 18.0305C103.848 18.0305 104.568 18.1463 105.146 18.3777C105.738 18.5963 106.214 18.9177 106.574 19.342C106.946 19.7663 107.21 20.2805 107.364 20.8848C107.531 21.4763 107.615 22.1448 107.615 22.8906V24.2791H101.058C101.109 25.102 101.328 25.6934 101.714 26.0534C102.099 26.4134 102.716 26.5934 103.565 26.5934C103.899 26.5934 104.234 26.5677 104.568 26.5163C104.915 26.452 105.243 26.3684 105.551 26.2656C105.86 26.1627 106.143 26.0406 106.4 25.8991C106.657 25.7577 106.869 25.6098 107.036 25.4556V28.0398C106.599 28.3098 106.085 28.5348 105.494 28.7148C104.915 28.8948 104.144 28.9848 103.179 28.9848ZM102.986 20.2291C102.356 20.2291 101.887 20.4091 101.579 20.7691C101.283 21.1291 101.109 21.7205 101.058 22.5434H104.722C104.722 21.7591 104.6 21.1805 104.356 20.8077C104.111 20.422 103.655 20.2291 102.986 20.2291ZM109.347 18.3005H116.193V20.8848H112.24V28.7148H109.347V18.3005ZM117.728 18.3005H120.524L120.621 19.747C120.865 19.2713 121.231 18.8663 121.72 18.532C122.209 18.1977 122.871 18.0305 123.706 18.0305C124.349 18.0305 124.902 18.127 125.365 18.3198C125.828 18.5127 126.207 18.8277 126.503 19.2648C126.799 19.6891 127.017 20.242 127.159 20.9234C127.3 21.6048 127.371 22.4341 127.371 23.4113C127.371 25.3913 127.049 26.8184 126.406 27.6927C125.776 28.5541 124.78 28.9848 123.417 28.9848C123.006 28.9848 122.646 28.9334 122.337 28.8306C122.041 28.7406 121.778 28.6184 121.546 28.4641C121.328 28.3098 121.141 28.1363 120.987 27.9434C120.846 27.7506 120.724 27.5577 120.621 27.3648V32.1863H117.728V18.3005ZM124.401 23.4113C124.401 22.8713 124.362 22.4213 124.285 22.0613C124.208 21.7013 124.086 21.4184 123.919 21.2127C123.764 20.9941 123.565 20.8398 123.321 20.7498C123.089 20.6598 122.819 20.6148 122.511 20.6148C121.906 20.6148 121.437 20.8013 121.103 21.1741C120.781 21.547 120.621 22.177 120.621 23.0641V23.9513C120.621 24.8384 120.781 25.4684 121.103 25.8413C121.437 26.2141 121.913 26.4006 122.53 26.4006C122.839 26.4006 123.109 26.3556 123.34 26.2656C123.571 26.1756 123.764 26.0213 123.919 25.8027C124.086 25.5713 124.208 25.2627 124.285 24.877C124.362 24.4913 124.401 24.0027 124.401 23.4113ZM131.476 28.9848C130.511 28.9848 129.778 28.7277 129.277 28.2134C128.776 27.6863 128.525 26.8891 128.525 25.822C128.525 25.2691 128.596 24.787 128.737 24.3756C128.878 23.9641 129.11 23.6234 129.431 23.3534C129.753 23.0834 130.171 22.8841 130.685 22.7556C131.199 22.6141 131.829 22.5434 132.575 22.5434H134.311V22.0227C134.311 21.5084 134.182 21.1484 133.925 20.9427C133.668 20.7241 133.186 20.6148 132.478 20.6148C131.861 20.6148 131.27 20.692 130.704 20.8463C130.151 21.0005 129.714 21.1741 129.393 21.367V18.5898C129.804 18.4355 130.318 18.307 130.936 18.2041C131.566 18.0884 132.253 18.0305 132.999 18.0305C133.796 18.0305 134.458 18.1013 134.986 18.2427C135.526 18.3713 135.956 18.5898 136.278 18.8984C136.612 19.1941 136.85 19.5927 136.991 20.0941C137.133 20.5827 137.203 21.187 137.203 21.907V28.7148H134.6L134.503 27.172C134.336 27.6606 134.002 28.0848 133.501 28.4448C132.999 28.8048 132.324 28.9848 131.476 28.9848ZM132.671 26.5934C133.173 26.5934 133.571 26.4391 133.867 26.1306C134.163 25.822 134.311 25.3656 134.311 24.7613V24.2791H132.961C132.408 24.2791 132.022 24.3756 131.803 24.5684C131.598 24.7613 131.495 25.0827 131.495 25.5327C131.495 26.2398 131.887 26.5934 132.671 26.5934ZM139.424 18.3005H143.147L144.805 23.4113L146.522 18.3005H150.224V28.7148H147.524V23.122C147.524 22.8777 147.524 22.6398 147.524 22.4084C147.537 22.177 147.55 21.9713 147.563 21.7913C147.576 21.5727 147.589 21.3734 147.602 21.1934H147.524C147.473 21.3734 147.422 21.5727 147.37 21.7913C147.319 21.9713 147.254 22.177 147.177 22.4084C147.113 22.6398 147.042 22.8777 146.965 23.122L145.712 26.7091H143.899L142.703 23.122C142.626 22.8777 142.549 22.6398 142.472 22.4084C142.407 22.177 142.349 21.9713 142.298 21.7913C142.234 21.5727 142.176 21.3734 142.124 21.1934H142.047C142.06 21.3734 142.073 21.5727 142.086 21.7913C142.099 21.9713 142.105 22.177 142.105 22.4084C142.118 22.6398 142.124 22.8777 142.124 23.122V28.7148H139.424V18.3005ZM162.581 28.9656C161.642 28.927 160.819 28.7663 160.112 28.4834C159.418 28.2006 158.833 27.7763 158.357 27.2106C157.894 26.6448 157.547 25.9313 157.315 25.0698C157.084 24.1956 156.968 23.1606 156.968 21.9648C156.968 19.522 157.483 17.7413 158.511 16.6227C159.553 15.5041 161.063 14.9448 163.043 14.9448C164.085 14.9448 164.985 15.0734 165.743 15.3305C166.502 15.5877 167.132 15.9991 167.633 16.5648C168.135 17.1177 168.508 17.8377 168.752 18.7248C168.996 19.612 169.118 20.692 169.118 21.9648C169.118 23.7648 168.842 25.1984 168.289 26.2656C167.736 27.3327 166.92 28.0848 165.84 28.522L168.231 31.8006H164.644L162.581 28.9656ZM163.043 26.2848C163.532 26.2848 163.963 26.2141 164.336 26.0727C164.708 25.9313 165.017 25.6998 165.261 25.3784C165.506 25.0441 165.686 24.6006 165.801 24.0477C165.93 23.4948 165.994 22.8006 165.994 21.9648C165.994 21.142 165.93 20.4541 165.801 19.9013C165.686 19.3355 165.499 18.892 165.242 18.5705C164.998 18.2363 164.689 17.9984 164.316 17.857C163.956 17.7155 163.532 17.6448 163.043 17.6448C162.555 17.6448 162.124 17.7155 161.751 17.857C161.391 17.9984 161.083 18.2363 160.825 18.5705C160.581 18.892 160.395 19.3355 160.266 19.9013C160.15 20.4541 160.093 21.142 160.093 21.9648C160.093 22.8006 160.15 23.4948 160.266 24.0477C160.395 24.6006 160.581 25.0441 160.825 25.3784C161.083 25.6998 161.391 25.9313 161.751 26.0727C162.124 26.2141 162.555 26.2848 163.043 26.2848ZM174.08 15.2148H177.552L181.775 28.7148H178.651L177.822 25.822H173.656L172.827 28.7148H169.818L174.08 15.2148ZM174.37 23.3148H177.128L175.758 18.4934L174.37 23.3148ZM186.83 28.8498C186.251 28.8498 185.756 28.7856 185.345 28.657C184.946 28.5156 184.618 28.3034 184.361 28.0206C184.117 27.7248 183.937 27.3456 183.821 26.8827C183.705 26.4198 183.647 25.8606 183.647 25.2048V20.8077H182.105V18.3005H183.647V16.507L186.54 15.5041V18.3005H189.24V20.8077H186.54V24.8191C186.54 25.3077 186.617 25.6741 186.772 25.9184C186.939 26.1498 187.222 26.2656 187.62 26.2656C187.916 26.2656 188.205 26.2206 188.488 26.1306C188.771 26.0277 189.022 25.8991 189.24 25.7448V28.3291C189.06 28.4448 188.758 28.5606 188.334 28.6763C187.91 28.792 187.408 28.8498 186.83 28.8498ZM195.5 28.9848C193.854 28.9848 192.62 28.5541 191.797 27.6927C190.987 26.8184 190.582 25.4234 190.582 23.5077C190.582 21.6305 191 20.2484 191.836 19.3613C192.671 18.4741 193.893 18.0305 195.5 18.0305C196.348 18.0305 197.081 18.1334 197.698 18.3391C198.316 18.532 198.823 18.8534 199.222 19.3034C199.633 19.7405 199.936 20.3063 200.128 21.0005C200.321 21.6948 200.418 22.5306 200.418 23.5077C200.418 25.4234 200.006 26.8184 199.183 27.6927C198.361 28.5541 197.133 28.9848 195.5 28.9848ZM195.5 26.4006C195.821 26.4006 196.098 26.3556 196.329 26.2656C196.573 26.1627 196.779 26.002 196.946 25.7834C197.113 25.5648 197.236 25.2691 197.313 24.8963C197.403 24.5234 197.448 24.0606 197.448 23.5077C197.448 22.9548 197.409 22.492 197.332 22.1191C197.255 21.7463 197.133 21.4505 196.966 21.232C196.798 21.0134 196.593 20.8591 196.348 20.7691C196.104 20.6663 195.821 20.6148 195.5 20.6148C195.178 20.6148 194.896 20.6663 194.651 20.7691C194.407 20.8591 194.201 21.0198 194.034 21.2513C193.88 21.4698 193.758 21.7655 193.668 22.1384C193.591 22.5113 193.552 22.9677 193.552 23.5077C193.552 24.0606 193.591 24.5234 193.668 24.8963C193.758 25.2691 193.88 25.5648 194.034 25.7834C194.201 26.002 194.407 26.1627 194.651 26.2656C194.896 26.3556 195.178 26.4006 195.5 26.4006ZM206.595 28.8498C206.158 28.8498 205.702 28.837 205.226 28.8113C204.75 28.7856 204.313 28.7598 203.915 28.7341C203.452 28.6956 202.995 28.657 202.545 28.6184V15.3113C202.982 15.2727 203.445 15.2341 203.934 15.1955C204.345 15.1698 204.802 15.1441 205.303 15.1184C205.805 15.0927 206.3 15.0798 206.788 15.0798C209.051 15.0798 210.71 15.6198 211.764 16.6998C212.818 17.767 213.345 19.4898 213.345 21.8684C213.345 24.2213 212.78 25.9763 211.648 27.1334C210.517 28.2777 208.832 28.8498 206.595 28.8498ZM210.221 21.8684C210.221 20.4284 209.945 19.4063 209.392 18.802C208.852 18.1977 208.016 17.8955 206.885 17.8955C206.743 17.8955 206.589 17.902 206.422 17.9148C206.267 17.9148 206.126 17.9213 205.997 17.9341C205.843 17.947 205.695 17.9598 205.554 17.9727V25.957C205.67 25.9698 205.798 25.9827 205.94 25.9956C206.055 26.0084 206.177 26.0213 206.306 26.0341C206.435 26.0341 206.563 26.0341 206.692 26.0341C207.862 26.0341 208.742 25.7127 209.334 25.0698C209.925 24.427 210.221 23.3598 210.221 21.8684ZM219.704 28.9848C218.778 28.9848 217.994 28.8691 217.351 28.6377C216.721 28.4063 216.206 28.0591 215.808 27.5963C215.422 27.1206 215.139 26.5291 214.959 25.822C214.779 25.1148 214.689 24.2791 214.689 23.3148C214.689 21.5405 215.107 20.2163 215.943 19.342C216.779 18.4677 217.968 18.0305 219.511 18.0305C220.372 18.0305 221.092 18.1463 221.671 18.3777C222.262 18.5963 222.738 18.9177 223.098 19.342C223.471 19.7663 223.734 20.2805 223.889 20.8848C224.056 21.4763 224.139 22.1448 224.139 22.8906V24.2791H217.582C217.634 25.102 217.852 25.6934 218.238 26.0534C218.624 26.4134 219.241 26.5934 220.089 26.5934C220.424 26.5934 220.758 26.5677 221.092 26.5163C221.439 26.452 221.767 26.3684 222.076 26.2656C222.384 26.1627 222.667 26.0406 222.924 25.8991C223.181 25.7577 223.394 25.6098 223.561 25.4556V28.0398C223.124 28.3098 222.609 28.5348 222.018 28.7148C221.439 28.8948 220.668 28.9848 219.704 28.9848ZM219.511 20.2291C218.881 20.2291 218.411 20.4091 218.103 20.7691C217.807 21.1291 217.634 21.7205 217.582 22.5434H221.246C221.246 21.7591 221.124 21.1805 220.88 20.8077C220.636 20.422 220.179 20.2291 219.511 20.2291ZM224.813 18.3005H227.937L229.711 25.4363L231.486 18.3005H234.456L231.37 28.7148H227.898L224.813 18.3005Z" fill="#FEFEFE"/>
    <g clip-path="url(#clip0_951_119)">
        <path d="M125.426 148.516C125.56 148.508 125.698 148.496 125.832 148.505C126.025 148.518 126.219 148.651 126.331 148.804C126.436 148.947 126.478 149.107 126.45 149.284C126.404 149.588 126.229 149.756 125.991 149.931C125.928 149.938 125.866 149.946 125.803 149.95C125.584 149.962 125.393 149.887 125.237 149.733C125.084 149.583 125.022 149.385 125.035 149.174C125.053 148.868 125.214 148.718 125.426 148.516Z" fill="#FEFEFE"/>
        <path d="M168.051 150.059C168.163 150.065 168.282 150.069 168.391 150.1C168.623 150.166 168.834 150.343 168.941 150.559C169.054 150.786 169.052 151.042 168.967 151.279C168.844 151.625 168.614 151.762 168.292 151.903C168.216 151.895 168.139 151.886 168.064 151.872C167.8 151.822 167.545 151.662 167.404 151.43C167.281 151.225 167.265 150.976 167.341 150.751C167.462 150.388 167.729 150.23 168.051 150.059Z" fill="#FEFEFE"/>
        <path d="M113.57 64.7912C113.717 64.7706 113.885 64.7546 114.033 64.7752C114.274 64.8087 114.5 64.9687 114.632 65.1693C114.769 65.3768 114.805 65.629 114.742 65.8684C114.65 66.214 114.441 66.3788 114.142 66.5472C114.053 66.5547 113.963 66.5645 113.874 66.5584C113.632 66.5418 113.394 66.3982 113.242 66.2137C113.066 66.001 113.007 65.7261 113.053 65.456C113.109 65.1269 113.31 64.9733 113.57 64.7912Z" fill="#FEFEFE"/>
        <path d="M97.1072 52.6509C97.269 52.6445 97.4553 52.6256 97.6134 52.6643C97.8425 52.7204 98.059 52.924 98.1708 53.1251C98.2909 53.3412 98.309 53.5913 98.2324 53.8254C98.1321 54.1321 97.912 54.2961 97.6414 54.4469C97.4828 54.4503 97.2976 54.466 97.1439 54.4238C96.9154 54.361 96.7012 54.1386 96.5913 53.937C96.5765 53.9103 96.5632 53.883 96.5512 53.8549C96.5393 53.8269 96.5289 53.7983 96.5199 53.7692C96.511 53.74 96.5036 53.7105 96.4977 53.6806C96.4919 53.6507 96.4876 53.6205 96.4849 53.5902C96.4822 53.5598 96.4811 53.5294 96.4816 53.4989C96.482 53.4685 96.4841 53.4381 96.4877 53.4078C96.4914 53.3776 96.4966 53.3476 96.5034 53.3179C96.5101 53.2882 96.5185 53.2589 96.5283 53.23C96.6282 52.9304 96.8376 52.7882 97.1072 52.6509Z" fill="#FEFEFE"/>
        <path d="M203.832 56.4519C203.978 56.4349 204.129 56.4139 204.276 56.4162C204.517 56.4199 204.771 56.5742 204.926 56.7514C205.083 56.9314 205.159 57.1577 205.13 57.396C205.087 57.7513 204.88 57.971 204.606 58.1784C204.487 58.1999 204.363 58.2247 204.241 58.2199C203.967 58.2089 203.689 58.0582 203.523 57.8425C203.37 57.645 203.311 57.3914 203.345 57.1453C203.391 56.8124 203.579 56.651 203.832 56.4519Z" fill="#FEFEFE"/>
        <path d="M112.339 113.473C112.472 113.462 112.606 113.45 112.739 113.462C113.02 113.488 113.302 113.67 113.469 113.895C113.636 114.119 113.689 114.402 113.633 114.675C113.555 115.049 113.308 115.246 113.005 115.445C112.833 115.462 112.656 115.481 112.485 115.45C112.217 115.403 111.954 115.232 111.803 115.006C111.657 114.788 111.618 114.528 111.676 114.273C111.764 113.887 112.022 113.679 112.339 113.473Z" fill="#FEFEFE"/>
        <path d="M187.637 105.995C187.803 105.988 187.995 105.965 188.156 106.007C188.43 106.076 188.685 106.335 188.804 106.583C188.82 106.616 188.833 106.649 188.845 106.683C188.857 106.717 188.867 106.751 188.876 106.787C188.885 106.821 188.891 106.857 188.896 106.892C188.901 106.928 188.904 106.964 188.906 107C188.907 107.036 188.907 107.072 188.905 107.108C188.903 107.144 188.899 107.18 188.893 107.215C188.887 107.251 188.88 107.286 188.87 107.321C188.861 107.356 188.85 107.39 188.837 107.424C188.707 107.773 188.478 107.922 188.15 108.066C188.015 108.083 187.907 108.084 187.773 108.055C187.485 107.993 187.235 107.848 187.08 107.591C186.931 107.343 186.91 107.02 186.984 106.745C187.085 106.365 187.316 106.194 187.637 105.995Z" fill="#FEFEFE"/>
        <path d="M203.491 111.016C203.876 111.4 203.932 112.595 204.345 113.144C204.704 113.62 205.346 113.964 205.815 114.337C205.348 114.693 204.709 114.881 204.181 115.146C203.98 115.697 203.798 116.97 203.423 117.345C203.159 116.779 203.09 116.129 202.825 115.559C202.469 114.795 201.72 114.488 200.98 114.207C201.264 113.943 201.61 113.741 201.909 113.493C202.717 112.822 203.071 111.949 203.491 111.016Z" fill="#FEFEFE"/>
        <path d="M130.024 50.6914C130.254 50.908 130.557 53.5074 131.251 54.4846C132.048 55.6063 133.409 55.8102 134.671 55.9989C133.835 56.1762 132.943 56.3014 132.186 56.7209C130.666 57.5641 130.517 59.7403 130.108 61.2498C129.969 61.0889 129.551 58.6019 128.985 57.7102C128.181 56.4451 126.803 56.2996 125.47 55.9966C126.357 55.8278 127.366 55.7099 128.13 55.1928C129.482 54.2762 129.73 52.1718 130.024 50.6914Z" fill="#FEFEFE"/>
        <path d="M98.5175 109.275C99.1622 110.532 99.527 111.716 99.0669 113.114C98.7416 114.102 98.0341 114.961 97.0488 115.403C95.9925 115.876 95.03 115.767 93.9423 115.529L93.5332 114.33C94.4989 114.243 95.5686 113.864 96.3443 113.309C97.7514 112.301 98.2497 110.867 98.5175 109.275Z" fill="#FEFEFE"/>
        <path d="M101.621 104.969C102.364 105.929 102.939 107.143 102.855 108.45C102.789 109.482 102.319 110.412 101.615 111.077C100.609 112.029 99.5677 112.132 98.3128 112.144L97.8408 110.714C98.7377 110.24 99.61 109.719 100.312 108.92C100.941 108.205 101.726 106.751 101.657 105.693C101.641 105.45 101.629 105.213 101.621 104.969Z" fill="#FEFEFE"/>
        <path d="M94.9688 107.855C95.0134 107.643 95.0711 107.435 95.1419 107.232C95.2125 107.028 95.2956 106.831 95.391 106.639C95.4865 106.448 95.5934 106.264 95.7119 106.088C95.8304 105.912 95.9594 105.745 96.0987 105.587C96.8977 104.695 97.9399 104.228 99.0933 104.253C100.314 104.278 101.271 104.77 102.102 105.709C102.11 105.952 102.123 106.188 102.139 106.43C102.211 107.483 101.398 108.93 100.746 109.642C100.02 110.437 99.1161 110.956 98.1873 111.427C97.3929 109.721 96.5521 108.742 94.9688 107.855Z" fill="#FEFEFE"/>
        <path d="M90.6641 111.094C90.6848 110.863 90.706 110.629 90.7526 110.402C90.9662 109.367 91.6265 108.38 92.4579 107.803C93.4095 107.143 94.6243 106.965 95.7195 107.257C96.9843 107.594 97.8953 108.418 98.5493 109.59C98.3102 111.159 97.8656 112.573 96.6097 113.566C95.9174 114.113 94.9627 114.487 94.1008 114.572C93.3332 112.891 92.2372 111.885 90.6641 111.094Z" fill="#FEFEFE"/>
        <path d="M88.1412 119.976C87.6119 119.518 87.1666 118.917 86.8182 118.283C86.7766 118.208 86.7369 118.132 86.6989 118.055C86.6607 117.978 86.6244 117.9 86.5898 117.821C86.5552 117.741 86.5225 117.661 86.4917 117.58C86.4607 117.499 86.4315 117.418 86.404 117.335C86.3768 117.253 86.3514 117.169 86.3278 117.085C86.3043 117.001 86.2826 116.917 86.2628 116.832C86.243 116.747 86.2251 116.661 86.209 116.575C86.1931 116.489 86.1791 116.402 86.1671 116.315C86.155 116.228 86.1448 116.141 86.1367 116.054C86.1286 115.966 86.1224 115.879 86.1182 115.791C86.114 115.703 86.1117 115.615 86.1114 115.527C86.111 115.439 86.1127 115.351 86.1162 115.263C86.12 115.176 86.1256 115.088 86.133 115C86.1407 114.913 86.1502 114.825 86.1618 114.738C86.1731 114.651 86.1865 114.565 86.2019 114.479C86.2174 114.392 86.2346 114.307 86.2538 114.221C86.2708 114.142 86.2898 114.064 86.3105 113.987C86.3311 113.909 86.3537 113.832 86.3782 113.756C86.4026 113.68 86.4287 113.604 86.4566 113.53C86.4847 113.455 86.5145 113.381 86.546 113.308C86.5775 113.235 86.6107 113.163 86.6456 113.092C86.6804 113.021 86.7171 112.951 86.7554 112.882C86.7935 112.813 86.8334 112.745 86.8749 112.679C86.9163 112.612 86.9593 112.547 87.0039 112.483C87.0484 112.419 87.0944 112.356 87.142 112.294C87.1896 112.233 87.2386 112.173 87.2891 112.114C87.3394 112.056 87.3911 111.999 87.4441 111.943C87.4972 111.888 87.5516 111.834 87.6073 111.781C87.6629 111.729 87.7198 111.678 87.7779 111.629C87.8361 111.58 87.8953 111.533 87.9557 111.487C88.0161 111.442 88.0774 111.398 88.1398 111.356C88.2022 111.314 88.2656 111.274 88.3299 111.235C89.4786 110.552 90.8669 110.491 92.0991 110.919C93.6564 111.461 94.686 112.653 95.4389 114.206C94.3666 116.472 93.402 118.46 91.0751 119.278C90.1246 119.613 89.0409 119.618 88.1412 119.976Z" fill="#FEFEFE"/>
        <path d="M88.0055 115.014C88.7746 115.906 90.3813 117.36 91.3832 117.997L83.6891 124.965L74.1631 134.027L65.0951 142.066L61.248 145.866V139.532L69.7708 131.687L88.0055 115.014Z" fill="#FEFEFE"/>
        <path d="M115.621 91.4004C116.353 91.9223 119.176 93.9664 119.176 93.9664L106.451 104.969C103.043 107.978 95.738 114.462 95.738 114.462C95.738 114.462 93.4468 116.612 92.408 117.167L92.1426 115.956C91.4889 115.091 90.9446 114.383 89.9482 113.895C94.9406 109.78 99.7529 104.888 104.657 100.664C114.517 92.2322 115.621 91.4004 115.621 91.4004Z" fill="#FEFEFE"/>
        <path d="M93.2905 113.908C93.5517 114.714 93.6893 115.494 93.2665 116.278C92.9389 116.885 92.3558 117.322 91.6954 117.509C90.8167 117.756 89.914 117.571 89.1493 117.09C89.0667 117.038 89.0587 117.029 88.9932 116.976C89.5229 116.786 90.1611 116.783 90.7208 116.605C92.091 116.17 92.659 115.113 93.2905 113.908Z" fill="#FEFEFE"/>
        <path d="M97.5266 110.152C97.9226 110.954 98.1467 111.709 97.864 112.601C97.6642 113.232 97.2296 113.78 96.6244 114.062C95.9755 114.364 95.3843 114.294 94.7161 114.142L94.4648 113.377C95.058 113.322 95.7151 113.08 96.1916 112.726C97.056 112.083 97.362 111.168 97.5266 110.152Z" fill="#FEFEFE"/>
        <path d="M100.973 106.559C101.466 107.13 101.847 107.853 101.791 108.631C101.747 109.246 101.436 109.8 100.969 110.196C100.302 110.763 99.6117 110.824 98.7797 110.831L98.4668 109.979C99.0614 109.698 99.6397 109.387 100.105 108.912C100.522 108.486 101.043 107.62 100.997 106.99C100.986 106.845 100.978 106.704 100.973 106.559Z" fill="#FEFEFE"/>
        <path d="M96.4062 107.841C96.4348 107.714 96.4718 107.59 96.5171 107.468C96.5623 107.346 96.6155 107.228 96.6766 107.114C96.7377 106.999 96.8062 106.889 96.882 106.784C96.9579 106.678 97.0404 106.579 97.1296 106.484C97.6411 105.951 98.3083 105.672 99.0467 105.686C99.8283 105.701 100.441 105.996 100.973 106.557C100.978 106.702 100.986 106.844 100.997 106.988C101.042 107.619 100.522 108.484 100.105 108.91C99.6396 109.386 99.0613 109.696 98.4667 109.978C97.9581 108.958 97.4199 108.371 96.4062 107.841Z" fill="#FEFEFE"/>
        <path d="M135.68 74.7188C135.918 74.7927 136.04 74.838 136.201 75.0331C136.268 75.219 136.279 75.4019 136.182 75.5828C136.173 75.6001 136.16 75.6152 136.149 75.6315C135.927 75.5084 135.581 75.2193 135.478 74.9829C135.427 74.8665 135.436 74.9168 135.481 74.7862L135.68 74.7188Z" fill="#FEFEFE"/>
        <path d="M135.92 74.4883C136.583 74.9915 137.25 75.7201 137.611 76.4722C137.555 76.4921 137.377 76.54 137.32 76.5137C136.906 76.3192 136.717 75.7739 136.15 75.6335C136.161 75.6172 136.174 75.6021 136.183 75.5849C136.28 75.4039 136.269 75.2211 136.202 75.0351C136.041 74.84 135.919 74.7948 135.681 74.7208L135.92 74.4883Z" fill="#FEFEFE"/>
        <path d="M92.1035 111.128C92.1178 110.979 92.1324 110.827 92.1645 110.68C92.3115 110.01 92.7659 109.371 93.3381 108.998C93.9931 108.571 94.8292 108.455 95.583 108.644C96.4535 108.863 97.0805 109.396 97.5306 110.155C97.3661 111.17 97.06 112.085 96.1957 112.728C95.7192 113.083 95.0621 113.325 94.4689 113.38C93.9406 112.291 93.1862 111.64 92.1035 111.128Z" fill="#FEFEFE"/>
        <path d="M88.9922 116.979C88.6805 116.735 88.4183 116.416 88.2131 116.079C88.1886 116.039 88.1652 115.999 88.1429 115.958C88.1204 115.916 88.099 115.875 88.0786 115.833C88.0583 115.791 88.039 115.748 88.0208 115.705C88.0026 115.662 87.9854 115.619 87.9692 115.575C87.9532 115.531 87.9382 115.486 87.9244 115.442C87.9105 115.397 87.8977 115.352 87.8861 115.307C87.8744 115.262 87.8639 115.216 87.8544 115.17C87.845 115.125 87.8368 115.079 87.8297 115.032C87.8226 114.986 87.8166 114.94 87.8118 114.893C87.807 114.847 87.8034 114.8 87.8009 114.754C87.7984 114.707 87.7971 114.66 87.7969 114.613C87.7967 114.567 87.7977 114.52 87.7998 114.473C87.802 114.426 87.8053 114.38 87.8097 114.333C87.8142 114.287 87.8198 114.24 87.8266 114.194C87.8333 114.148 87.8412 114.102 87.8502 114.056C87.8593 114.01 87.8695 113.964 87.8808 113.919C87.8908 113.877 87.9019 113.836 87.9142 113.795C87.9263 113.753 87.9396 113.712 87.954 113.672C87.9684 113.631 87.9838 113.591 88.0002 113.551C88.0167 113.512 88.0343 113.472 88.0528 113.434C88.0714 113.395 88.0909 113.357 88.1115 113.319C88.132 113.281 88.1536 113.244 88.1761 113.207C88.1986 113.17 88.222 113.134 88.2465 113.099C88.2709 113.064 88.2962 113.029 88.3225 112.995C88.3487 112.961 88.3758 112.927 88.4038 112.895C88.4318 112.862 88.4607 112.83 88.4904 112.799C88.52 112.768 88.5505 112.737 88.5817 112.708C88.613 112.678 88.645 112.65 88.6778 112.622C88.7106 112.594 88.7441 112.567 88.7783 112.541C88.8125 112.515 88.8474 112.49 88.8829 112.465C88.9185 112.441 88.9546 112.418 88.9913 112.396C89.0281 112.373 89.0655 112.352 89.1033 112.332C89.7797 111.968 90.5972 111.936 91.3229 112.164C92.2399 112.451 92.8462 113.085 93.2895 113.911C92.6581 115.116 92.09 116.173 90.7198 116.608C90.1601 116.786 89.522 116.788 88.9922 116.979Z" fill="#FEFEFE"/>
        <path d="M86.8064 117.371C87.2367 117.876 88.1357 118.7 88.6963 119.061L84.3913 123.007L79.1894 127.851L73.9875 132.694L71.835 134.846V131.259L76.6036 126.815L86.8064 117.371Z" fill="#FEFEFE"/>
        <path d="M207.989 107.729C209.109 106.942 210.197 106.434 211.601 106.689C212.594 106.87 213.513 107.434 214.069 108.322C214.665 109.273 214.689 110.211 214.604 111.288L213.508 111.841C213.296 110.925 212.789 109.948 212.152 109.278C210.996 108.061 209.553 107.774 207.989 107.729Z" fill="#FEFEFE"/>
        <path d="M203.443 105.324C204.265 104.482 205.355 103.767 206.62 103.673C207.621 103.599 208.576 103.926 209.309 104.513C210.358 105.352 210.595 106.338 210.774 107.542L209.464 108.186C208.89 107.388 208.273 106.62 207.412 106.053C206.641 105.544 205.14 104.985 204.133 105.192C203.902 105.24 203.676 105.283 203.443 105.324Z" fill="#FEFEFE"/>
        <path d="M207.101 111.324C206.892 111.309 206.685 111.281 206.48 111.241C206.275 111.2 206.074 111.147 205.878 111.08C205.681 111.014 205.49 110.936 205.305 110.846C205.12 110.756 204.943 110.654 204.773 110.541C203.809 109.893 203.222 108.955 203.092 107.844C202.953 106.668 203.298 105.683 204.088 104.761C204.32 104.72 204.545 104.676 204.775 104.628C205.777 104.419 207.275 105.007 208.046 105.537C208.906 106.129 209.525 106.927 210.102 107.756C208.57 108.747 207.741 109.685 207.101 111.324Z" fill="#FEFEFE"/>
        <path d="M210.787 115.024C210.562 115.035 210.334 115.046 210.111 115.032C209.088 114.965 208.052 114.462 207.387 113.741C206.627 112.915 206.293 111.773 206.427 110.682C206.582 109.422 207.251 108.438 208.29 107.653C209.828 107.673 211.245 107.911 212.367 108.985C212.985 109.576 213.471 110.443 213.668 111.26C212.156 112.221 211.336 113.408 210.787 115.024Z" fill="#FEFEFE"/>
        <path d="M219.677 116.014C219.308 116.584 218.79 117.092 218.228 117.511C218.162 117.561 218.094 117.609 218.025 117.656C217.956 117.703 217.886 117.748 217.814 117.792C217.743 117.836 217.671 117.878 217.597 117.918C217.523 117.959 217.449 117.998 217.373 118.035C217.297 118.072 217.221 118.108 217.143 118.142C217.066 118.175 216.988 118.208 216.909 118.238C216.829 118.268 216.75 118.297 216.669 118.324C216.588 118.351 216.507 118.376 216.425 118.399C216.343 118.422 216.261 118.443 216.178 118.463C216.095 118.482 216.012 118.5 215.928 118.516C215.844 118.532 215.76 118.545 215.676 118.558C215.591 118.57 215.507 118.58 215.422 118.588C215.337 118.596 215.252 118.603 215.167 118.607C215.082 118.611 214.997 118.614 214.912 118.614C214.827 118.615 214.742 118.614 214.657 118.611C214.572 118.607 214.488 118.602 214.403 118.595C214.325 118.589 214.248 118.582 214.17 118.572C214.093 118.563 214.016 118.551 213.94 118.538C213.863 118.525 213.787 118.51 213.712 118.493C213.636 118.476 213.561 118.457 213.487 118.436C213.413 118.416 213.339 118.394 213.266 118.37C213.193 118.346 213.121 118.32 213.05 118.292C212.979 118.265 212.908 118.236 212.839 118.205C212.769 118.174 212.701 118.141 212.633 118.107C212.566 118.073 212.499 118.037 212.434 118C212.369 117.962 212.305 117.923 212.242 117.882C212.179 117.842 212.117 117.8 212.056 117.756C211.996 117.713 211.937 117.668 211.879 117.621C211.822 117.575 211.765 117.527 211.71 117.478C211.656 117.428 211.602 117.378 211.55 117.326C211.499 117.274 211.448 117.221 211.4 117.167C211.351 117.112 211.304 117.057 211.258 117C210.449 115.988 210.205 114.663 210.452 113.423C210.764 111.855 211.771 110.707 213.162 109.777C215.481 110.504 217.519 111.165 218.615 113.29C219.063 114.158 219.213 115.198 219.677 116.014Z" fill="#FEFEFE"/>
        <path d="M182.962 88.2359C183.366 87.4635 184.79 86.0908 185.534 85.661C184.628 84.8771 186.523 86.3423 185.534 85.661L190.015 89.4808L202.798 100.685C206.143 103.556 213.344 109.705 213.344 109.705C213.344 109.705 215.715 111.618 216.386 112.541L215.259 112.958C214.515 113.701 213.909 114.318 213.573 115.34C208.955 111.096 203.614 107.128 198.904 102.983C189.49 94.6406 182.962 88.2359 182.962 88.2359Z" fill="#FEFEFE"/>
        <path d="M213.139 112.133C213.878 111.775 214.608 111.539 215.418 111.84C216.045 112.073 216.542 112.575 216.809 113.184C217.164 113.995 217.107 114.886 216.747 115.685C216.708 115.771 216.701 115.78 216.659 115.85C216.405 115.367 216.317 114.754 216.072 114.241C215.471 112.983 214.38 112.579 213.139 112.133Z" fill="#FEFEFE"/>
        <path d="M208.965 108.564C209.682 108.077 210.377 107.76 211.272 107.913C211.904 108.021 212.488 108.365 212.84 108.908C213.216 109.491 213.229 110.068 213.172 110.73L212.471 111.073C212.338 110.511 212.018 109.912 211.615 109.502C210.882 108.758 209.962 108.586 208.965 108.564Z" fill="#FEFEFE"/>
        <path d="M205.049 105.738C205.532 105.189 206.176 104.726 206.93 104.675C207.527 104.636 208.1 104.861 208.542 105.256C209.176 105.821 209.327 106.476 209.445 107.274L208.669 107.688C208.319 107.154 207.943 106.641 207.425 106.257C206.96 105.914 206.059 105.529 205.46 105.657C205.322 105.687 205.188 105.713 205.049 105.738Z" fill="#FEFEFE"/>
        <path d="M206.896 109.95C206.77 109.94 206.646 109.921 206.523 109.894C206.4 109.867 206.28 109.831 206.162 109.788C206.043 109.745 205.929 109.694 205.817 109.635C205.706 109.576 205.599 109.51 205.496 109.437C204.916 109.017 204.559 108.414 204.474 107.703C204.384 106.95 204.585 106.322 205.053 105.737C205.192 105.712 205.327 105.686 205.464 105.656C206.063 105.528 206.964 105.913 207.429 106.256C207.948 106.639 208.323 107.153 208.673 107.687C207.761 108.311 207.27 108.906 206.896 109.95Z" fill="#FEFEFE"/>
        <path d="M210.626 113.645C210.48 113.651 210.333 113.657 210.188 113.646C209.524 113.595 208.85 113.243 208.415 112.744C207.918 112.172 207.695 111.384 207.776 110.635C207.869 109.77 208.298 109.097 208.966 108.563C209.964 108.586 210.883 108.758 211.616 109.502C212.02 109.912 212.34 110.511 212.472 111.073C211.497 111.726 210.973 112.537 210.626 113.645Z" fill="#FEFEFE"/>
        <path d="M216.658 115.852C216.466 116.184 216.194 116.478 215.898 116.72C215.863 116.749 215.827 116.777 215.791 116.804C215.755 116.831 215.717 116.857 215.68 116.882C215.642 116.908 215.604 116.932 215.565 116.955C215.526 116.978 215.487 117.001 215.447 117.022C215.407 117.043 215.366 117.063 215.325 117.083C215.284 117.102 215.243 117.12 215.201 117.137C215.159 117.155 215.116 117.171 215.074 117.186C215.031 117.201 214.988 117.215 214.944 117.228C214.901 117.241 214.857 117.253 214.813 117.264C214.769 117.275 214.725 117.285 214.68 117.293C214.636 117.302 214.591 117.309 214.546 117.316C214.502 117.322 214.457 117.327 214.411 117.332C214.366 117.336 214.321 117.339 214.276 117.341C214.23 117.343 214.185 117.344 214.14 117.343C214.095 117.343 214.049 117.342 214.004 117.339C213.959 117.336 213.914 117.333 213.869 117.328C213.827 117.324 213.786 117.319 213.744 117.312C213.703 117.306 213.662 117.299 213.621 117.291C213.58 117.282 213.54 117.273 213.499 117.262C213.459 117.252 213.419 117.24 213.379 117.228C213.34 117.215 213.3 117.201 213.261 117.187C213.222 117.172 213.184 117.156 213.145 117.139C213.107 117.123 213.069 117.105 213.032 117.086C212.995 117.068 212.958 117.048 212.922 117.027C212.886 117.007 212.85 116.985 212.815 116.962C212.78 116.94 212.745 116.916 212.711 116.892C212.678 116.868 212.644 116.843 212.612 116.817C212.579 116.79 212.548 116.764 212.516 116.736C212.485 116.708 212.455 116.679 212.425 116.65C212.396 116.621 212.367 116.591 212.339 116.56C212.311 116.529 212.284 116.497 212.257 116.465C212.231 116.433 212.205 116.4 212.181 116.366C211.742 115.765 211.602 114.984 211.723 114.257C211.877 113.338 212.405 112.671 213.139 112.135C214.38 112.581 215.47 112.985 216.071 114.243C216.317 114.756 216.405 115.369 216.658 115.852Z" fill="#FEFEFE"/>
        <path d="M159.324 134.39L159.324 134.39C159.434 134.563 159.445 134.734 159.39 134.941L159.39 134.941C159.316 135.224 159.092 135.395 158.828 135.546C158.695 135.493 158.554 135.434 158.462 135.351L158.462 135.351C158.32 135.221 158.231 135.067 158.232 134.884L158.232 134.884C158.235 134.51 158.49 134.275 158.786 134.033C159.023 134.105 159.195 134.184 159.324 134.39Z" fill="#FEFEFE" stroke="#FEFEFE" stroke-width="0.161737"/>
        <path d="M142.051 134.92C141.936 135.028 141.843 135.12 141.776 135.223C141.706 135.33 141.661 135.452 141.655 135.621L142.051 134.92ZM142.051 134.92C142.315 134.933 142.545 134.962 142.721 135.138L142.051 134.92ZM142.875 135.351C142.845 135.279 142.796 135.212 142.721 135.138L142.875 135.351ZM142.875 135.351C142.905 135.422 142.917 135.502 142.908 135.605L142.875 135.351ZM142.908 135.605C142.883 135.915 142.703 136.069 142.46 136.28C142.454 136.285 142.448 136.289 142.442 136.294C142.2 136.308 142.027 136.282 141.849 136.124C141.698 135.989 141.647 135.829 141.655 135.621L142.908 135.605Z" fill="#FEFEFE" stroke="#FEFEFE" stroke-width="0.161737"/>
        <path d="M126.603 162.758C126.891 162.76 127.144 162.777 127.372 162.982C127.543 163.136 127.603 163.299 127.6 163.525C127.597 163.879 127.354 164.078 127.105 164.283L127.103 164.284M126.603 162.758C126.36 162.98 126.152 163.172 126.148 163.528M126.603 162.758L126.658 162.818C126.65 162.825 126.642 162.832 126.634 162.839M126.603 162.758L126.603 162.839C126.613 162.839 126.624 162.839 126.634 162.839M126.148 163.528C126.145 163.758 126.25 163.937 126.427 164.075M126.148 163.528L126.228 163.529C126.232 163.222 126.401 163.053 126.634 162.839M126.148 163.528L126.228 163.529C126.226 163.729 126.316 163.886 126.476 164.011M126.427 164.075C126.623 164.228 126.86 164.268 127.103 164.284M126.427 164.075L126.476 164.011C126.476 164.011 126.476 164.011 126.476 164.011M126.427 164.075L126.476 164.011M127.103 164.284L127.109 164.203C127.098 164.203 127.087 164.202 127.077 164.201M127.103 164.284L127.052 164.221C127.06 164.215 127.069 164.208 127.077 164.201M127.077 164.201C126.85 164.184 126.645 164.143 126.476 164.011M127.077 164.201C127.32 164.001 127.517 163.826 127.52 163.524L127.52 163.524C127.521 163.418 127.507 163.333 127.477 163.257C127.446 163.182 127.396 163.113 127.318 163.042L127.318 163.042C127.122 162.866 126.906 162.842 126.634 162.839" fill="#FEFEFE" stroke="#FEFEFE" stroke-width="0.161737"/>
        <path d="M129.785 134.025C129.663 134.136 129.582 134.225 129.525 134.326C129.467 134.431 129.433 134.554 129.42 134.736L129.785 134.025ZM129.785 134.025C130.023 134.034 130.22 134.079 130.397 134.232L129.785 134.025ZM130.552 134.436C130.521 134.364 130.473 134.298 130.397 134.232L130.552 134.436ZM130.552 134.436C130.583 134.509 130.598 134.593 130.602 134.697L130.552 134.436ZM130.602 134.697C130.613 134.993 130.425 135.225 130.212 135.457C130.202 135.458 130.192 135.459 130.182 135.46C130.069 135.472 129.998 135.479 129.928 135.475C129.853 135.47 129.777 135.45 129.653 135.398C129.558 135.287 129.497 135.198 129.46 135.102C129.422 135.004 129.408 134.892 129.42 134.736L130.602 134.697Z" fill="#FEFEFE" stroke="#FEFEFE" stroke-width="0.161737"/>
        <path d="M175.511 141.014L175.511 141.014C175.613 141.132 175.624 141.264 175.592 141.432C175.555 141.624 175.432 141.795 175.268 141.947C175.111 142.092 174.925 142.214 174.761 142.316C174.692 142.311 174.609 142.3 174.529 142.281C174.438 142.259 174.358 142.228 174.306 142.189L174.306 142.189C174.226 142.13 174.201 142.094 174.189 142.06C174.182 142.04 174.178 142.017 174.175 141.984C174.173 141.964 174.171 141.944 174.17 141.92C174.169 141.908 174.168 141.895 174.167 141.881C174.262 141.676 174.403 141.489 174.562 141.307C174.644 141.213 174.73 141.122 174.817 141.03C174.82 141.026 174.824 141.022 174.828 141.018C174.899 140.943 174.971 140.867 175.04 140.79C175.23 140.833 175.394 140.88 175.511 141.014Z" fill="#FEFEFE" stroke="#FEFEFE" stroke-width="0.161737"/>
        <path d="M130.838 146.439L130.838 146.439C130.799 146.629 130.825 146.807 130.937 146.958C131.111 147.191 131.323 147.228 131.619 147.255C131.878 147.033 132.068 146.865 132.097 146.536C132.115 146.337 132.056 146.175 131.917 146.032L130.838 146.439ZM130.838 146.439C130.902 146.12 131.082 145.955 131.352 145.761M130.838 146.439L131.352 145.761M131.352 145.761C131.566 145.795 131.771 145.88 131.917 146.032L131.352 145.761Z" fill="#FEFEFE" stroke="#FEFEFE" stroke-width="0.161737"/>
        <path d="M147.444 109.34C147.46 109.341 147.476 109.342 147.492 109.343C147.562 109.347 147.632 109.351 147.701 109.362C147.731 109.366 147.761 109.372 147.791 109.379C147.821 109.387 147.85 109.396 147.879 109.407C147.908 109.418 147.936 109.431 147.963 109.445C147.99 109.459 148.017 109.474 148.042 109.491C148.068 109.508 148.092 109.527 148.116 109.547C148.139 109.567 148.161 109.588 148.182 109.61C148.203 109.632 148.223 109.656 148.242 109.68C148.26 109.705 148.277 109.73 148.293 109.757C148.394 109.927 148.412 110.114 148.374 110.304C148.309 110.637 148.118 110.764 147.853 110.94L147.85 110.942M147.444 109.34C147.16 109.566 146.968 109.719 146.934 110.103C146.915 110.313 146.958 110.526 147.102 110.687C147.307 110.916 147.562 110.952 147.85 110.942M147.444 109.34L147.495 109.403C147.487 109.41 147.478 109.416 147.47 109.423M147.444 109.34L147.439 109.421C147.45 109.421 147.46 109.422 147.47 109.423M147.85 110.942L147.847 110.861C147.84 110.861 147.832 110.861 147.825 110.861M147.85 110.942L147.806 110.874C147.812 110.87 147.818 110.866 147.825 110.861M147.825 110.861C147.554 110.868 147.338 110.83 147.162 110.633L147.162 110.633C147.037 110.493 146.997 110.306 147.014 110.111L146.934 110.103L147.014 110.111C147.03 109.933 147.082 109.813 147.16 109.711C147.236 109.612 147.338 109.528 147.47 109.423M147.825 110.861C147.951 110.778 148.051 110.71 148.129 110.626C148.208 110.542 148.265 110.441 148.295 110.288L148.295 110.288C148.329 110.114 148.312 109.948 148.223 109.798L148.223 109.798L148.223 109.798C148.209 109.774 148.194 109.751 148.177 109.729C148.16 109.707 148.143 109.686 148.124 109.666L148.123 109.665C148.105 109.645 148.085 109.626 148.063 109.609L148.063 109.608C148.042 109.591 148.02 109.574 147.997 109.559L147.997 109.559C147.974 109.543 147.95 109.529 147.926 109.517L147.926 109.516C147.901 109.504 147.876 109.493 147.85 109.483L147.85 109.483C147.824 109.473 147.798 109.465 147.771 109.458C147.744 109.451 147.717 109.445 147.69 109.442L147.689 109.442L147.689 109.442C147.624 109.432 147.558 109.428 147.488 109.424C147.482 109.423 147.476 109.423 147.47 109.423" fill="#FEFEFE" stroke="#FEFEFE" stroke-width="0.161737"/>
        <path d="M170.775 153.022C170.783 153.012 170.791 153.002 170.799 152.992L170.796 153.023C170.911 153.034 170.995 153.064 171.066 153.111C171.136 153.156 171.198 153.22 171.266 153.306C171.307 153.468 171.32 153.582 171.271 153.731L171.271 153.731C171.108 154.228 170.784 154.487 170.324 154.721L170.03 154.652C169.948 154.578 169.914 154.547 169.892 154.51C169.87 154.476 169.857 154.434 169.836 154.331C169.922 154.092 170.072 153.868 170.246 153.649C170.335 153.536 170.43 153.426 170.524 153.317C170.531 153.31 170.537 153.302 170.544 153.295C170.622 153.204 170.701 153.113 170.775 153.022ZM170.775 153.022C170.772 153.022 170.768 153.022 170.764 153.022C170.756 153.022 170.747 153.023 170.735 153.022L170.736 152.942M170.775 153.022C170.782 153.022 170.789 153.022 170.797 153.023L170.804 152.943M170.736 152.942L170.799 152.992L170.804 152.943M170.736 152.942C170.744 152.942 170.751 152.942 170.758 152.941C170.774 152.941 170.789 152.941 170.804 152.943M170.736 152.942L171.341 153.27C171.19 153.077 171.057 152.967 170.804 152.943" fill="#FEFEFE" stroke="#FEFEFE" stroke-width="0.161737"/>
        <path d="M144.976 120.765L144.976 120.765C145.093 120.482 145.259 120.187 145.425 119.891C145.498 119.76 145.572 119.629 145.642 119.499C145.868 119.075 146.056 118.653 146.091 118.24L146.039 118.129L145.905 118.094C144.686 119.113 144.005 120.853 143.851 122.42L143.851 122.42C143.82 122.736 143.805 123.108 143.848 123.465C143.892 123.823 143.993 124.157 144.188 124.404L144.188 124.404C144.254 124.487 144.315 124.548 144.392 124.608C144.563 124.377 144.614 124.074 144.622 123.738C144.626 123.578 144.62 123.414 144.614 123.25C144.613 123.228 144.612 123.206 144.611 123.184L144.976 120.765ZM144.976 120.765C144.752 121.306 144.651 122.068 144.611 122.643L144.976 120.765Z" fill="#FEFEFE" stroke="#FEFEFE" stroke-width="0.161737"/>
        <path d="M169.948 167.294L169.948 167.294L173.062 163.628L173.136 163.66C173.136 163.66 173.136 163.66 173.136 163.66C173.201 163.509 173.259 163.355 173.31 163.199L173.31 163.199C173.365 163.028 173.405 162.835 173.441 162.637C173.453 162.571 173.465 162.504 173.476 162.437C173.5 162.302 173.524 162.166 173.551 162.032C173.632 161.642 173.74 161.289 173.951 161.055C174.113 161.055 174.241 161.065 174.394 161.108C174.537 161.235 174.63 161.327 174.69 161.5C174.812 161.855 174.744 162.345 174.594 162.845C174.446 163.341 174.222 163.83 174.052 164.172C173.301 165.688 172.095 166.93 170.489 167.476C170.267 167.481 170.082 167.449 169.948 167.294Z" fill="#FEFEFE" stroke="#FEFEFE" stroke-width="0.161737"/>
        <path fill-rule="evenodd" clip-rule="evenodd" d="M155.382 126.771C154.397 125.27 154.112 118.305 154.112 118.305C154.112 104.674 140.67 97.5434 141.448 106.405C141.957 112.206 140.062 119.579 137.024 124.895C130.817 135.755 130.639 126.364 130.53 120.604C130.492 118.584 130.463 117.011 130.184 116.913C129.84 116.792 129.49 117.218 129.249 117.51C129.238 117.522 129.229 117.534 129.219 117.546C119.19 129.673 122.927 141.581 125.394 149.446C126.02 151.441 126.564 153.175 126.782 154.587C126.809 154.762 126.795 154.952 126.706 155.105C126.598 155.288 126.439 155.352 126.25 155.384C121.674 156.159 119.468 151.168 117.403 146.498C117.344 146.363 117.284 146.227 117.224 146.092C115.551 142.314 112.444 155.94 115.753 163.725C118.935 171.212 128.498 177.594 134.812 181.808C137.241 183.429 139.189 184.729 140.108 185.648C140.561 186.101 137.325 184.929 133.6 183.58C128.128 181.597 121.602 179.234 124.176 181.082C124.37 181.221 124.565 181.357 124.762 181.49C124.96 181.622 125.159 181.752 125.359 181.878C125.56 182.005 125.763 182.128 125.967 182.248C126.171 182.368 126.377 182.485 126.584 182.598C126.791 182.712 127 182.822 127.21 182.928C127.421 183.035 127.632 183.138 127.845 183.238C128.059 183.338 128.273 183.435 128.489 183.528C128.705 183.621 128.922 183.71 129.14 183.796C129.358 183.882 129.577 183.965 129.798 184.044C130.018 184.123 130.24 184.199 130.462 184.27C130.685 184.342 130.908 184.411 131.133 184.476C131.357 184.54 131.582 184.602 131.808 184.659C132.034 184.717 132.261 184.771 132.489 184.821C132.716 184.871 132.944 184.918 133.173 184.961C133.402 185.004 133.631 185.043 133.861 185.079C134.091 185.114 134.322 185.146 134.552 185.175C134.722 185.194 135.206 185.22 135.768 185.25C136.783 185.304 138.051 185.372 138.163 185.439C138.212 185.468 138.244 185.52 138.276 185.573C138.292 185.599 138.308 185.625 138.326 185.648C138.373 185.921 138.313 186.09 138.173 186.312C137.922 186.709 137.525 187.064 137.165 187.387C137.088 187.455 137.013 187.523 136.941 187.588C134.764 189.588 132.472 190.804 129.711 191.539C130.234 191.623 130.757 191.717 131.281 191.812C132.16 191.971 133.039 192.13 133.92 192.237C138.486 192.791 143.774 192.525 147.591 189.45C147.844 189.246 148.193 188.872 148.536 188.505C148.935 188.078 149.327 187.659 149.548 187.528C149.651 187.466 149.803 187.447 149.918 187.459C150.29 187.496 150.515 187.845 150.707 188.149C151.612 189.542 154.256 190.444 155.738 190.722C158.895 191.313 162.4 190.828 165.378 189.587C156.791 187.87 156.301 177.805 156.301 177.805C156.641 177.59 157.823 177.354 159.515 177.015C164.854 175.945 175.267 173.859 180.271 168.243C184.301 163.719 186.008 152.496 183.586 152.496C182.418 152.496 181.92 153.704 181.368 155.044C180.775 156.484 180.119 158.076 178.501 158.489C175.995 159.129 176.441 157.879 176.987 156.346C177.149 155.894 177.319 155.417 177.424 154.957C179.135 147.5 178.972 138.834 178.501 135.2C178.217 133.007 176.81 125.623 173.56 126.275C172.702 126.447 172.487 128.838 172.297 130.949C172.194 132.091 172.099 133.152 171.913 133.734C171.383 135.392 169.388 140.896 165.69 143.87C164.142 145.115 165.012 142.592 165.373 141.546C165.405 141.454 165.433 141.373 165.455 141.307C166.396 138.482 166.386 135.236 166.376 131.968C166.361 126.999 166.346 121.982 169.673 118.329C174.37 113.862 161.941 117.068 157.588 124.251C157.525 124.354 157.462 124.459 157.399 124.565C157.031 125.181 156.64 125.834 156.175 126.342C155.988 126.547 155.752 126.786 155.47 126.781C155.45 126.78 155.431 126.777 155.411 126.775C155.402 126.773 155.392 126.772 155.382 126.771ZM150.485 123.864C150.58 123.334 150.691 122.718 150.577 122.471C148.993 124.764 147.673 126.933 146.786 129.752C146.192 131.64 145.871 133.637 145.55 135.631C145.035 138.831 144.522 142.025 142.882 144.755C142.859 144.794 142.835 144.834 142.811 144.875C142.554 145.307 142.254 145.812 141.845 145.997C141.539 145.933 141.388 145.82 141.204 145.516C140.662 144.619 140.371 143.311 140.102 142.104C140.002 141.653 139.905 141.217 139.799 140.821C138.996 137.815 137.518 135.352 135.754 133.048C137.309 137.025 138.155 140.435 136.857 144.707C136.14 147.065 135.022 149.08 133.922 151.065C132.091 154.367 130.307 157.583 130.497 162.147C130.514 162.648 130.551 163.147 130.61 163.644C130.668 164.141 130.747 164.633 130.847 165.121C130.947 165.608 131.066 166.088 131.206 166.561C131.345 167.035 131.504 167.498 131.683 167.953C131.74 168.103 131.799 168.252 131.859 168.4C131.919 168.548 131.981 168.696 132.045 168.842C132.108 168.989 132.173 169.134 132.24 169.279C132.306 169.423 132.374 169.567 132.444 169.709C132.513 169.851 132.584 169.993 132.657 170.133C132.729 170.274 132.803 170.413 132.878 170.551C132.954 170.689 133.03 170.826 133.109 170.962C133.187 171.098 133.267 171.233 133.348 171.366C133.429 171.499 133.511 171.632 133.595 171.763C133.679 171.894 133.764 172.023 133.85 172.152C133.937 172.28 134.025 172.408 134.114 172.534C134.203 172.659 134.294 172.784 134.385 172.907C134.477 173.03 134.57 173.152 134.665 173.272C134.759 173.393 134.854 173.512 134.951 173.629C135.048 173.747 135.146 173.863 135.245 173.977C135.345 174.092 135.445 174.205 135.547 174.316C135.648 174.428 135.751 174.538 135.855 174.647C135.959 174.755 136.064 174.862 136.17 174.968C136.276 175.073 136.383 175.177 136.492 175.279C136.6 175.381 136.709 175.482 136.82 175.581C136.93 175.68 137.042 175.777 137.154 175.873C137.267 175.968 137.38 176.062 137.494 176.154C137.609 176.247 137.724 176.337 137.841 176.426C137.957 176.515 138.074 176.602 138.192 176.687C138.31 176.772 138.429 176.856 138.549 176.937C138.669 177.019 138.79 177.099 138.911 177.177C139.033 177.255 139.155 177.332 139.279 177.406C139.402 177.48 139.526 177.553 139.65 177.624C139.775 177.695 139.9 177.764 140.026 177.831C140.153 177.898 140.279 177.963 140.407 178.026C140.534 178.089 140.662 178.151 140.791 178.21C140.92 178.27 141.049 178.327 141.179 178.383C142.266 178.85 143.558 179.328 144.716 179.389C149.874 180.151 155.199 178.702 159.33 174.819C163.17 171.209 165.368 166.118 165.932 160.361C166.499 154.569 165.048 149.117 162.879 144.02C163.386 146.797 163.475 149.634 162.147 152.13C161.478 153.389 159.524 155.583 158.312 155.828C158.167 155.857 158.116 155.836 158.009 155.792C157.989 155.783 157.968 155.774 157.943 155.765C157.742 155.457 157.764 155.137 157.799 154.77C157.838 154.371 157.888 153.976 157.939 153.582C158.051 152.71 158.163 151.844 158.137 150.946C158.011 146.59 156.17 142.981 154.319 139.352C152.867 136.507 151.41 133.65 150.769 130.413C150.396 128.533 150.256 126.454 150.384 124.528C150.395 124.363 150.438 124.124 150.485 123.864Z" fill="#FEFEFE"/>
        <mask id="mask0_951_119" style="mask-type:alpha" maskUnits="userSpaceOnUse" x="107" y="66" width="39" height="34">
            <path d="M111.581 70.8154L124.17 66.1254L145.269 74.0787L141.139 89.5362L139.048 93.4788L127.791 99.4908L122.725 96.558L118.574 93.9879L107.685 87.6904L111.581 70.8154Z" fill="#D9D9D9"/>
        </mask>
        <g mask="url(#mask0_951_119)">
            <path d="M113.932 75.1348C114.117 75.6578 114.227 76.2158 114.383 76.7496C114.633 77.6018 114.916 78.4437 115.167 79.2964C115.201 79.4124 115.416 80.0209 115.402 80.098C115.399 80.1172 115.386 80.1337 115.378 80.1516C115.245 80.2295 115.11 80.2569 114.961 80.2917C114.339 79.4676 113.564 76.4911 113.323 75.4151C113.535 75.343 113.735 75.2409 113.932 75.1348Z" fill="#FEFEFE"/>
            <path d="M139.193 90.4004C139.249 90.5867 139.286 90.8194 139.193 90.9998C139.066 91.2484 138.819 91.3271 138.574 91.4115C138.579 91.6521 138.689 91.9487 138.585 92.1728C138.509 92.3373 138.374 92.4426 138.202 92.4949C137.919 92.5807 137.605 92.5329 137.347 92.3944C136.935 92.173 136.821 91.7791 136.698 91.3601C136.65 91.1338 136.603 90.9107 136.587 90.6794C136.571 90.4419 136.586 90.161 136.757 89.9769C136.857 89.8691 137.014 89.7931 137.163 89.792C137.535 89.7891 137.592 90.2205 137.806 90.4228C137.853 90.4158 137.883 90.4217 137.918 90.3861C138.032 90.2713 138.026 90.0524 138.039 89.8999C138.225 89.8586 138.408 89.8284 138.597 89.8743C138.888 89.9452 139.043 90.162 139.193 90.4004Z" fill="#FEFEFE"/>
            <path d="M113.345 71.7572C113.153 71.7859 112.927 71.8569 112.802 72.0379C112.629 72.287 112.66 72.5821 112.684 72.8768C112.464 72.9846 112.151 73.0096 111.991 73.2231C111.873 73.3797 111.834 73.5702 111.857 73.7742C111.896 74.1091 112.069 74.4142 112.3 74.618C112.671 74.9442 113.074 74.8789 113.504 74.8104C113.729 74.7542 113.95 74.6989 114.166 74.6066C114.387 74.5118 114.636 74.3645 114.732 74.0996C114.788 73.9445 114.792 73.7449 114.732 73.5895C114.581 73.1995 114.167 73.343 113.896 73.2141C113.883 73.162 113.865 73.1339 113.883 73.0803C113.94 72.9073 114.141 72.8116 114.273 72.7261C114.234 72.5128 114.185 72.307 114.066 72.1321C113.882 71.8612 113.622 71.8018 113.345 71.7572Z" fill="#FEFEFE"/>
            <path d="M143.274 75.9435C143.024 76.6114 141.812 78.1634 141.301 78.6373C140.677 79.2165 139.918 79.5559 139.056 79.5137C138.77 79.4998 138.433 79.4448 138.195 79.279C137.895 79.0705 137.566 78.5837 137.31 78.3007C136.904 77.854 136.476 77.4229 136.053 76.9928C135.418 76.3478 134.7 75.7722 134.089 75.1077C135.333 74.788 136.39 75.2579 137.546 75.6565C137.826 75.7529 138.153 75.8839 138.447 75.9152L138.509 75.8605L138.502 75.8136C138.421 75.7137 138.356 75.6779 138.239 75.6274C137.808 75.4396 137.375 75.2587 136.939 75.0849C135.951 74.6883 134.807 74.3873 133.776 74.828C133.412 74.5494 133.048 74.2368 132.724 73.9121C135.123 72.3453 137.648 74.4756 139.799 75.4625C140.04 75.5726 140.287 75.6692 140.539 75.7521C140.791 75.8351 141.046 75.9039 141.305 75.9587C141.96 76.0926 142.621 76.0688 143.274 75.9435Z" fill="#FEFEFE"/>
            <path fill-rule="evenodd" clip-rule="evenodd" d="M144.325 74.9736L144.33 74.9864C144.352 75.0383 144.375 75.091 144.377 75.1482C144.393 75.4862 142.903 77.7381 142.595 78.1519C142.372 78.4524 142.126 78.733 141.858 78.9938C140.981 79.8446 140.108 80.1376 138.898 80.1228C138.968 80.2428 139.053 80.3638 139.139 80.487C139.364 80.8079 139.601 81.1447 139.621 81.5228C139.643 81.928 139.458 82.3736 139.28 82.7296C138.958 83.3777 138.522 83.9843 138.096 84.5757C138.041 84.6528 137.986 84.7296 137.931 84.8062C136.932 86.2149 135.865 87.5709 134.732 88.8739C134.415 89.2377 134.084 89.5904 133.753 89.9426L133.753 89.943C133.657 90.045 133.562 90.147 133.466 90.2492C134.096 90.3578 134.742 90.4264 135.383 90.4943L135.384 90.4943C135.578 90.5148 135.771 90.5354 135.963 90.5569C136 90.3515 136.04 90.1508 136.136 89.963C136.285 89.6676 136.524 89.4368 136.846 89.341C137.187 89.2395 137.487 89.3278 137.788 89.489C138.028 89.4066 138.26 89.3331 138.516 89.3434C138.884 89.3582 139.219 89.5257 139.464 89.7996C139.691 90.0533 139.808 90.3767 139.786 90.7172C139.759 91.1457 139.517 91.4799 139.201 91.7492L139.201 91.7812L139.202 91.8345L139.202 91.8556C139.204 91.9625 139.205 92.0668 139.183 92.1725C139.176 92.2104 139.166 92.2478 139.155 92.2848C139.144 92.3218 139.131 92.3581 139.116 92.3937C139.101 92.4294 139.084 92.4642 139.066 92.4981C139.047 92.5321 139.027 92.5651 139.006 92.5971C138.984 92.6291 138.961 92.6599 138.936 92.6896C138.911 92.7192 138.885 92.7476 138.857 92.7747C138.83 92.8017 138.801 92.8273 138.771 92.8515C138.74 92.8756 138.709 92.8982 138.677 92.9193C138.353 93.1268 137.961 93.1647 137.592 93.0817C136.98 92.9444 136.586 92.5276 136.263 92.0209C135.146 92.061 134.005 91.9919 132.878 91.9236L132.878 91.9236C132.556 91.9041 132.235 91.8846 131.916 91.8678C131.556 92.2045 131.197 92.5459 130.839 92.8879L130.839 92.888C129.145 94.5027 127.438 96.1296 125.422 97.334C124.042 97.1793 122.316 96.2442 121.001 95.5318C120.863 95.4571 120.73 95.3849 120.602 95.3163C120.286 96.3593 119.917 97.3959 119.549 98.4291C119.376 98.9145 119.203 99.3991 119.036 99.8833C118.986 100.029 118.934 100.175 118.883 100.322L118.883 100.322C118.738 100.729 118.594 101.137 118.478 101.551C119.795 102.164 121.131 102.742 122.522 103.164C122.613 103.192 122.703 103.22 122.794 103.247C122.886 103.273 122.977 103.299 123.069 103.323C123.16 103.348 123.252 103.372 123.344 103.395C123.437 103.417 123.529 103.439 123.622 103.46C123.714 103.481 123.807 103.501 123.9 103.52C123.993 103.539 124.086 103.557 124.18 103.574C124.273 103.591 124.367 103.607 124.46 103.622C124.554 103.637 124.648 103.651 124.742 103.664C124.836 103.677 124.93 103.69 125.024 103.701C125.119 103.712 125.213 103.722 125.307 103.731C125.402 103.741 125.496 103.749 125.591 103.756C125.686 103.763 125.78 103.77 125.875 103.775C125.97 103.78 126.065 103.785 126.16 103.788C126.255 103.792 126.349 103.794 126.444 103.795C126.539 103.797 126.634 103.797 126.729 103.797C126.824 103.796 126.919 103.795 127.014 103.792C127.109 103.79 127.204 103.786 127.298 103.781C127.393 103.777 127.488 103.772 127.583 103.765C127.677 103.759 127.772 103.751 127.867 103.743C127.961 103.734 128.056 103.725 128.15 103.715C128.244 103.704 128.339 103.693 128.433 103.681C128.527 103.668 128.621 103.655 128.715 103.641C128.809 103.627 128.902 103.611 128.996 103.595C129.089 103.579 129.183 103.562 129.276 103.544C129.369 103.526 129.462 103.507 129.555 103.487C129.648 103.467 129.74 103.446 129.833 103.424C129.925 103.402 130.017 103.379 130.109 103.355C130.201 103.331 130.292 103.306 130.384 103.281C130.475 103.255 130.566 103.228 130.657 103.2C130.748 103.173 130.838 103.144 130.929 103.115C131.019 103.085 131.109 103.055 131.198 103.023C131.288 102.992 131.377 102.96 131.466 102.926C132.69 102.477 133.844 101.875 134.991 101.262C132.9 103.651 129.467 106.656 126.688 108.23C126.266 108.469 125.821 108.67 125.378 108.869L125.324 108.893C126.123 109.099 126.915 109.326 127.702 109.573C128.488 109.821 129.267 110.089 130.039 110.378C130.812 110.667 131.576 110.976 132.331 111.305C133.087 111.635 133.834 111.984 134.571 112.353C132.323 112.026 130.112 112.184 128.07 113.25C127.623 113.483 127.188 113.74 126.753 113.996L126.753 113.997L126.753 113.997C126.384 114.214 126.016 114.431 125.64 114.634C124.853 115.06 124.043 115.398 123.197 115.69C127.061 116.565 129.887 116.408 133.647 115.197C132.657 115.976 131.644 116.724 130.609 117.442C127.946 119.297 125.333 120.801 122.269 121.922C121.025 122.377 119.721 122.776 118.403 122.941C120.764 123.756 123.368 123.772 125.793 123.224C122.747 124.666 118.39 125.783 115.047 126.003C114.064 126.068 113.11 126.031 112.127 125.989C112.62 126.32 113.161 126.556 113.708 126.777C112.579 127.191 110.867 127.254 109.683 127.012C109.121 126.897 108.583 126.692 108.054 126.472C108.289 126.829 108.56 127.323 108.604 127.756C108.65 128.211 108.456 128.636 108.176 128.984C107.287 130.09 105.87 130.396 104.536 130.54C104.625 130.951 104.782 131.365 104.935 131.771L104.935 131.771C104.992 131.92 105.048 132.068 105.099 132.213C105.442 133.177 105.782 134.139 106.099 135.112C106.131 135.212 106.175 135.318 106.22 135.426C106.304 135.63 106.392 135.841 106.414 136.035C106.423 136.118 106.414 136.179 106.348 136.24C106.279 136.302 106.233 136.295 106.153 136.282L106.148 136.281C105.897 136.093 104.755 133.851 104.191 132.743C104.073 132.511 103.98 132.328 103.926 132.225C103.604 131.609 103.273 130.996 102.942 130.384L102.942 130.384L102.942 130.383C102.59 129.732 102.238 129.081 101.896 128.424C100.565 125.847 99.2664 123.254 97.9985 120.646C97.5326 119.731 97.1057 118.787 96.6805 117.847C96.5291 117.512 96.378 117.178 96.2253 116.846C95.1266 114.479 94.0575 112.1 93.0181 109.707C90.9967 105.115 89.0741 100.482 87.2503 95.8076C85.4265 91.1336 83.703 86.4229 82.0801 81.6754L81.2026 79.1206C81.1592 78.9933 81.1118 78.8653 81.0642 78.7369C80.9669 78.4745 80.8689 78.21 80.8028 77.9444C80.7761 77.8369 80.7549 77.7157 80.7763 77.6056C80.7917 77.5266 80.7973 77.5153 80.8593 77.4712C80.8638 77.472 80.8684 77.4727 80.8729 77.4733L80.8729 77.4733C80.882 77.4746 80.8911 77.4759 80.8999 77.4785C81.0226 77.5144 81.1223 77.638 81.1912 77.74C81.3137 77.9214 81.4118 78.1295 81.5076 78.3326L81.5076 78.3327C81.5398 78.401 81.5718 78.4688 81.6043 78.5349L82.3497 80.0676C84.1403 80.3372 85.4505 81.1267 86.6245 82.4975L86.6247 82.5025L86.6255 82.5188C86.6992 83.7698 85.9348 85.2426 85.2283 86.2347C86.6704 89.1964 88.0408 92.1909 89.3395 95.2182C90.5525 95.6224 91.6685 96.449 92.6358 97.2735C92.6449 98.41 92.396 99.9453 91.8088 100.917L92.7808 103.143C93.3594 102.652 93.976 102.283 94.676 101.988C95.446 101.663 96.6817 101.245 97.5038 101.6C97.9004 101.772 98.0503 102.098 98.2068 102.473C100.827 98.5545 105.067 96.1481 109.573 95.007C110.361 94.8007 111.156 94.6251 111.957 94.4802C112.759 94.3353 113.565 94.2216 114.375 94.139C114.433 94.1331 114.494 94.121 114.557 94.1085C114.732 94.074 114.919 94.0371 115.065 94.1239L115.073 94.1374C115.115 94.2099 115.133 94.2409 115.113 94.3352C115.098 94.4023 115.043 94.4414 114.989 94.4756C114.813 94.5859 114.614 94.6714 114.417 94.7558L114.417 94.7558C114.32 94.7974 114.223 94.8386 114.131 94.8825C113.739 95.0717 113.356 95.2785 112.983 95.5028C111 96.6929 109.645 98.5119 109.083 100.754C109.269 100.721 109.453 100.684 109.638 100.647L109.638 100.647C109.989 100.578 110.338 100.508 110.695 100.461C112.636 100.202 114.502 100.425 116.392 100.892C117.152 98.6281 117.941 96.375 118.76 94.1321L118.498 93.9382C117.15 92.9401 115.816 91.9515 114.519 90.8825C113.08 89.6967 109.5 86.5915 109.337 84.732C109.293 84.2341 109.442 83.7556 109.66 83.3128C110.088 82.4443 110.768 81.6366 111.407 80.8781C111.507 80.759 111.606 80.641 111.704 80.5242L113.593 78.2696C113.23 77.3672 112.953 76.3641 112.765 75.4084C112.4 75.3103 112.096 75.1608 111.839 74.874C111.549 74.5493 111.369 74.1172 111.405 73.6777C111.43 73.3806 111.522 73.2453 111.629 73.0877C111.687 73.0023 111.75 72.9103 111.808 72.7824C111.875 72.6366 111.914 72.4992 111.952 72.3684L111.952 72.3683C112.03 72.0949 112.099 71.8504 112.397 71.6179C112.818 71.2884 113.362 71.3545 113.863 71.4158C114.192 71.4562 114.487 71.5818 114.689 71.8537C114.965 72.2246 114.966 72.6575 114.9 73.0923C115.144 73.3346 115.352 73.5993 115.385 73.955C115.389 73.9878 115.391 74.0206 115.391 74.0536C115.391 74.0865 115.389 74.1194 115.386 74.1522C115.382 74.1849 115.378 74.2175 115.371 74.2497C115.365 74.282 115.356 74.3139 115.347 74.3454C115.337 74.3768 115.326 74.4077 115.313 74.438C115.3 74.4684 115.285 74.498 115.27 74.5268C115.254 74.5557 115.236 74.5838 115.218 74.6109C115.199 74.638 115.179 74.6641 115.158 74.6893C114.942 74.9453 114.668 75.0382 114.347 75.0681C114.486 75.4599 114.599 75.8632 114.711 76.265L114.711 76.2651C114.748 76.3977 114.785 76.5301 114.823 76.6619C115.299 76.0477 115.815 75.4683 116.332 74.8886L116.332 74.8883C116.452 74.7536 116.572 74.6189 116.692 74.4837C118.193 72.7867 120.184 70.5487 122.005 69.2518C122.412 68.9617 122.906 68.6485 123.411 68.5779C125.597 68.2726 130.608 72.2114 132.315 73.5539C132.549 73.349 132.789 73.1655 133.071 73.0318C134.913 72.1601 136.861 73.2092 138.666 74.181C139.403 74.5781 140.117 74.9623 140.789 75.1972C141.584 75.4747 142.451 75.5957 143.26 75.2963C143.41 75.2407 143.553 75.1684 143.696 75.0962C143.773 75.0576 143.85 75.019 143.927 74.983C144.084 74.9102 144.164 74.9143 144.325 74.9736ZM115.023 77.421C116.276 75.7948 121.645 69.7353 123.321 69.2476C124.182 68.9974 125.582 69.7586 126.315 70.1713C125.8 70.3858 125.351 70.659 124.924 71.0195C124.474 71.3991 124.074 71.8526 123.69 72.2973C122.665 73.4831 121.778 74.7783 120.893 76.072L120.893 76.0721C120.519 76.6188 120.145 77.1652 119.761 77.7031C118.861 78.979 117.894 80.2017 116.86 81.3712C115.791 82.5687 114.688 83.7765 113.476 84.8314C113.007 85.2393 112.53 85.6456 112.043 86.0313C111.933 86.1179 111.819 86.202 111.704 86.2863L111.704 86.2864C111.505 86.4331 111.305 86.5806 111.126 86.7438L111.061 86.6698C110.601 86.1427 110.017 85.4741 109.961 84.7736C109.931 84.3905 110.031 84.0637 110.194 83.7236C110.617 82.8365 111.305 82.0132 111.953 81.2378L111.953 81.2378C112.076 81.0911 112.197 80.9462 112.315 80.8029C112.46 80.6261 112.604 80.4487 112.748 80.2711C113.109 79.8272 113.47 79.383 113.844 78.95C113.94 79.2022 114.047 79.45 114.154 79.6979C114.259 79.9416 114.364 80.1853 114.459 80.4332L114.453 80.4528C114.433 80.5152 114.418 80.5601 114.436 80.6292C114.542 80.7535 114.672 80.7716 114.827 80.7859C115.24 80.8237 115.618 80.6743 115.93 80.4095C116.133 80.237 116.437 79.9093 116.443 79.6357C116.444 79.5902 116.433 79.5818 116.41 79.5637C116.403 79.5587 116.396 79.5529 116.387 79.5455C116.176 79.5579 116.016 79.7142 115.866 79.8601C115.835 79.8903 115.804 79.9201 115.774 79.948C115.536 79.334 115.363 78.6847 115.191 78.0418L115.191 78.0418C115.136 77.8337 115.08 77.6263 115.023 77.421ZM128.825 71.7341C128.016 71.1747 127.194 70.6159 126.315 70.1714C125.8 70.386 125.351 70.6592 124.924 71.0196C124.474 71.3993 124.074 71.8527 123.69 72.2975C122.665 73.4833 121.779 74.7785 120.893 76.0722C120.519 76.6189 120.145 77.1654 119.761 77.7032C118.861 78.9791 117.895 80.2018 116.86 81.3713C115.792 82.5688 114.689 83.7767 113.476 84.8316C113.007 85.2395 112.53 85.6458 112.043 86.0314C111.933 86.1181 111.819 86.2022 111.704 86.2865C111.505 86.4332 111.305 86.5807 111.126 86.744C111.396 87.0443 111.667 87.343 111.94 87.6402C113.593 89.4205 115.504 90.9922 117.447 92.4447C117.501 92.4849 117.555 92.5253 117.609 92.5656C118.226 93.0276 118.847 93.4925 119.495 93.909C120.123 94.3134 120.766 94.6929 121.424 95.0474C122.082 95.4019 122.752 95.7304 123.435 96.033C123.503 96.0621 123.574 96.0941 123.65 96.1278C124.16 96.3545 124.837 96.6557 125.323 96.6735C129.56 93.8172 134 89.0871 137.015 84.9699C137.104 84.8479 137.194 84.7255 137.285 84.6026C137.803 83.9023 138.333 83.1856 138.733 82.4191C138.901 82.0975 139.053 81.7255 138.929 81.3634C138.753 80.8474 138.242 80.2814 137.822 79.8148C137.731 79.7138 137.644 79.6175 137.566 79.5273C137.242 79.161 136.912 78.7996 136.577 78.443C136.243 78.0865 135.903 77.7349 135.557 77.3884C135.212 77.0419 134.862 76.7005 134.507 76.3644C134.151 76.0282 133.791 75.6974 133.426 75.3719C133.061 75.0464 132.691 74.7263 132.317 74.4117C131.942 74.0972 131.563 73.7883 131.179 73.4849C130.796 73.1816 130.408 72.8839 130.015 72.5921C129.623 72.3002 129.226 72.0142 128.825 71.7341Z" fill="#FEFEFE"/>
            <path d="M126.35 79.1992C126.405 79.3297 126.451 79.4492 126.454 79.5929C126.463 79.9864 126.257 80.3822 125.991 80.6608C125.771 80.8912 125.455 81.1021 125.125 81.1021C124.903 81.1021 124.711 81.0105 124.554 80.8586C124.459 80.7216 124.394 80.6021 124.385 80.4319C124.367 80.0992 124.54 79.7692 124.754 79.5259C125.004 79.2425 125.383 78.9832 125.772 78.9659C126.021 78.9548 126.172 79.0331 126.35 79.1992Z" fill="#FEFEFE"/>
            <path d="M131.974 84.1414C132.014 84.2223 132.057 84.3056 132.084 84.3923C132.178 84.6931 132.068 85.0601 131.911 85.3198C131.699 85.6694 131.339 85.9875 130.93 86.0689C130.653 86.1239 130.434 86.0596 130.201 85.9107C130.1 85.7905 130.023 85.6689 129.997 85.5112C129.948 85.2153 130.075 84.9164 130.25 84.6843C130.512 84.337 130.965 84.0132 131.403 83.9651C131.639 83.9393 131.793 83.9913 131.974 84.1414Z" fill="#FEFEFE"/>
            <path d="M126.806 86.9942C126.818 87.0486 126.826 87.0977 126.822 87.1542C126.811 87.2905 126.671 87.4453 126.577 87.5325C126.552 87.5557 126.526 87.5783 126.5 87.6002C126.474 87.6222 126.448 87.6435 126.421 87.6642C126.393 87.6848 126.366 87.7048 126.338 87.7241C126.31 87.7433 126.281 87.7619 126.252 87.7797C126.223 87.7976 126.193 87.8147 126.164 87.8311C126.134 87.8475 126.103 87.8632 126.073 87.8781C126.042 87.8929 126.011 87.9071 125.98 87.9204C125.948 87.9338 125.917 87.9463 125.885 87.9582C125.853 87.9699 125.82 87.9809 125.788 87.9911C125.755 88.0013 125.722 88.0106 125.689 88.0192C125.656 88.0277 125.623 88.0355 125.59 88.0424C125.556 88.0493 125.523 88.0554 125.489 88.0607C125.456 88.0659 125.422 88.0703 125.388 88.0738C125.354 88.0775 125.32 88.0802 125.286 88.0821C125.252 88.084 125.218 88.085 125.184 88.0852C125.15 88.0854 125.116 88.0848 125.082 88.0833C124.359 88.0589 123.732 87.6623 123.254 87.1399C122.711 86.5462 122.455 85.837 122.489 85.0361C122.523 84.8133 122.569 84.6086 122.66 84.4011C122.76 84.1727 122.884 83.9075 123.13 83.8134C123.4 83.8336 123.473 84.0763 123.573 84.2953C124.028 85.2884 124.607 86.047 125.64 86.4921C126.029 86.6596 126.436 86.7867 126.806 86.9942Z" fill="#FEFEFE"/>
        </g>
        <path d="M162.932 60.0938C163.051 60.0268 163.185 59.9787 163.31 59.9247L163.385 59.9616C163.127 60.7117 160.796 62.691 160.083 63.1145C159.895 63.2267 159.704 63.3714 159.482 63.3981L159.454 63.3208C160.098 62.0004 161.715 60.8461 162.932 60.0938Z" fill="#FEFEFE"/>
        <path d="M190.452 75.6194C190.716 75.4583 191.116 75.3146 191.418 75.2526C191.641 75.2066 191.799 75.2303 191.993 75.3551C192.064 75.5303 192.088 75.5721 192.015 75.7597C191.831 76.2296 191.156 76.4869 190.745 76.699C190.262 76.9849 189.763 77.219 189.254 77.4533C189.228 77.0771 189.23 76.6991 189.226 76.3222C189.619 76.0595 190.036 75.8421 190.452 75.6194Z" fill="#FEFEFE"/>
        <path d="M165.957 88.5854C166.256 88.7068 166.529 89.0703 166.753 89.3017C165.937 89.8506 165.103 90.4463 164.198 90.8357L163.913 90.8735C163.733 90.8086 163.654 90.7544 163.526 90.6122C163.508 90.5098 163.479 90.449 163.519 90.3475C163.794 89.647 165.313 88.9317 165.957 88.5854Z" fill="#FEFEFE"/>
        <path d="M171.501 91.8601C171.858 91.846 172.287 91.9603 172.659 91.9727C172.006 92.9013 171.355 93.8589 170.605 94.7117C170.557 94.7442 170.507 94.7743 170.456 94.802C170.209 94.9358 169.993 94.9348 169.732 94.8545C169.655 94.7786 169.602 94.7592 169.59 94.6442C169.522 93.9502 171.021 92.4242 171.501 91.8601Z" fill="#FEFEFE"/>
        <path d="M189.046 68.6489C189.282 68.5557 189.475 68.5734 189.708 68.6577C189.775 68.7753 189.803 68.7839 189.791 68.9275C189.717 69.8787 188.587 71.1333 187.91 71.7453C187.773 71.856 187.851 71.821 187.675 71.8489C187.402 71.702 187.248 71.4307 187.07 71.1848C187.703 70.3343 188.306 69.4089 189.046 68.6489Z" fill="#FEFEFE"/>
        <path d="M158.918 83.4642L158.952 83.4521C159.976 83.0806 162.104 83.7654 163.217 83.9811C163.392 84.4039 163.583 84.8253 163.716 85.2639C162.763 84.9406 159.613 84.5465 159.073 83.9694C158.922 83.8068 158.925 83.6724 158.918 83.4642Z" fill="#FEFEFE"/>
        <path d="M179.968 90.5589L180.067 90.5263C180.232 90.7803 180.456 93.9422 180.493 94.5021C180.506 94.7045 180.594 95.259 180.48 95.389L180.09 95.2663L179.558 95.1577C179.325 93.7579 179.263 92.3547 179.084 90.9511C179.383 90.8319 179.675 90.6929 179.968 90.5589Z" fill="#FEFEFE"/>
        <path d="M184.284 63.2049L184.625 63.2122C184.799 63.3034 184.893 63.3834 184.969 63.5658C185.466 64.7571 185.07 67.153 184.595 68.3449C184.277 68.1964 184.028 67.9743 183.76 67.7525C184.091 66.2265 183.909 64.5665 184.284 63.2049Z" fill="#FEFEFE"/>
        <path d="M187.152 84.1421C187.939 84.0079 191.078 84.6358 191.989 84.8516C191.944 85.0884 191.938 85.3206 191.781 85.5079L191.527 85.5072C189.827 85.4521 188.133 85.328 186.444 85.1351C186.654 84.7859 186.906 84.4669 187.152 84.1421Z" fill="#FEFEFE"/>
        <path d="M193.205 84.2709C193.445 84.1505 193.683 84.0454 193.955 84.0309C194.375 84.0087 194.798 84.1449 195.103 84.4391C195.137 84.4716 195.169 84.5058 195.199 84.5416C195.229 84.5774 195.258 84.6146 195.284 84.6534C195.311 84.692 195.335 84.732 195.358 84.7732C195.38 84.8144 195.4 84.8567 195.418 84.9001C195.436 84.9433 195.452 84.9875 195.466 85.0324C195.479 85.0772 195.491 85.1227 195.499 85.1688C195.508 85.2149 195.515 85.2613 195.519 85.3081C195.523 85.3548 195.525 85.4016 195.524 85.4485C195.517 85.983 195.249 86.3326 194.89 86.6986C194.663 86.8104 194.415 86.9277 194.159 86.9485C193.784 86.9794 193.387 86.8536 193.102 86.6067C193.066 86.5752 193.032 86.542 192.999 86.5071C192.967 86.4722 192.937 86.4357 192.908 86.3977C192.879 86.3597 192.852 86.3204 192.828 86.2797C192.803 86.239 192.78 86.1972 192.76 86.1542C192.739 86.1112 192.721 86.0673 192.705 86.0225C192.689 85.9776 192.675 85.9321 192.664 85.8859C192.652 85.8396 192.643 85.7929 192.637 85.7458C192.63 85.6987 192.626 85.6513 192.624 85.6037C192.598 85.0569 192.846 84.6561 193.205 84.2709Z" fill="#FEFEFE"/>
        <path d="M193.648 84.7131C193.741 84.6753 193.834 84.6351 193.933 84.6117C194.411 84.498 194.801 84.8006 195.182 85.0403C195.153 85.5981 195.094 85.9065 194.766 86.381C194.554 86.4912 194.336 86.6155 194.088 86.5865C193.793 86.5518 193.493 86.3711 193.322 86.1286C193.165 85.9072 193.092 85.6359 193.141 85.3672C193.2 85.0458 193.388 84.8869 193.648 84.7131Z" fill="#FEFEFE"/>
        <path d="M178.907 96.0545C179.141 95.9527 179.384 95.8887 179.641 95.8993C180.073 95.917 180.48 96.1018 180.763 96.4313C180.795 96.4679 180.825 96.5061 180.854 96.5458C180.882 96.5855 180.908 96.6265 180.932 96.6687C180.956 96.711 180.978 96.7544 180.998 96.7989C181.018 96.8433 181.035 96.8887 181.051 96.9349C181.066 96.9812 181.079 97.0281 181.09 97.0756C181.1 97.1231 181.108 97.1711 181.114 97.2194C181.12 97.2677 181.123 97.3162 181.124 97.3649C181.125 97.4136 181.124 97.4622 181.12 97.5108C181.076 98.0475 180.791 98.35 180.388 98.6726C180.106 98.7811 179.833 98.8856 179.526 98.865C179.477 98.8614 179.429 98.8553 179.381 98.8469C179.334 98.8386 179.286 98.828 179.24 98.8151C179.193 98.8023 179.147 98.7872 179.101 98.7698C179.056 98.7524 179.012 98.7329 178.968 98.7113C178.925 98.6897 178.882 98.666 178.841 98.6402C178.8 98.6145 178.76 98.5869 178.722 98.5574C178.683 98.5277 178.646 98.4963 178.611 98.4632C178.575 98.43 178.542 98.3953 178.51 98.3589C178.476 98.32 178.444 98.2794 178.414 98.2371C178.384 98.1949 178.356 98.1512 178.331 98.106C178.306 98.0608 178.283 98.0145 178.263 97.9669C178.243 97.9193 178.225 97.8708 178.21 97.8213C178.195 97.7719 178.182 97.7217 178.172 97.6709C178.163 97.6202 178.156 97.569 178.151 97.5175C178.147 97.4659 178.145 97.4143 178.146 97.3626C178.147 97.3109 178.151 97.2594 178.158 97.208C178.224 96.6891 178.503 96.3564 178.907 96.0545Z" fill="#FEFEFE"/>
        <path d="M179.054 96.6086C179.233 96.5203 179.413 96.4182 179.617 96.4134C179.912 96.4064 180.26 96.5889 180.457 96.8007C180.641 97 180.747 97.271 180.728 97.5437C180.704 97.8913 180.528 98.1428 180.265 98.3553C180.085 98.4161 179.884 98.4873 179.694 98.5066C179.421 98.5344 179.115 98.3989 178.91 98.2269C178.705 98.0557 178.573 97.8116 178.57 97.5424C178.565 97.1267 178.774 96.8874 179.054 96.6086Z" fill="#FEFEFE"/>
        <path fill-rule="evenodd" clip-rule="evenodd" d="M161.941 47.3386L161.941 47.3386L161.941 47.3387L161.941 47.3387L161.941 47.3388C162.012 47.3752 162.083 47.4113 162.153 47.4453C161.051 50.0686 160.743 57.2372 161.497 59.9948C161.595 59.9365 161.692 59.8775 161.791 59.8182L161.791 59.8181L161.791 59.818L161.791 59.8179C162.583 59.3405 163.403 58.8455 164.289 58.594C164.76 58.4603 165.161 58.4307 165.64 58.5528C166.612 58.8007 168.675 60.0539 170.288 61.0337L170.288 61.0337L170.288 61.0337L170.289 61.0338L170.289 61.0338L170.289 61.0339L170.289 61.034C170.912 61.4125 171.468 61.7502 171.868 61.9732C172.053 61.9531 172.232 61.9301 172.407 61.9075C173.276 61.7955 174.046 61.6962 174.957 62.0348C176.095 62.4577 176.735 63.3038 177.23 64.3614L177.35 64.4161L177.35 64.4161C179.336 65.3177 181.342 66.2283 183.199 67.3794C183.218 67.1006 183.224 66.6698 183.23 66.1865C183.246 65.0636 183.265 63.6575 183.462 63.216C183.589 62.9323 183.83 62.6453 184.128 62.5341C184.41 62.4286 184.774 62.4212 185.051 62.5482C185.39 62.704 185.582 63.0573 185.692 63.397C186.218 65.0333 185.831 67.377 185.047 68.8765C185.42 69.1954 185.764 69.5609 186.106 69.9243L186.106 69.9244C186.292 70.1219 186.477 70.3188 186.666 70.5073C186.882 70.2765 187.106 69.9387 187.343 69.5797C187.848 68.8152 188.417 67.9546 189.115 67.826C189.469 67.7606 189.982 67.8379 190.267 68.0686C190.464 68.2271 190.543 68.4551 190.549 68.6991C190.587 70.0819 188.968 71.8511 188.096 72.7905C188.519 73.7202 188.82 74.6318 188.995 75.6373C189.145 75.5524 189.306 75.4533 189.475 75.3493L189.476 75.3487L189.476 75.3486C190.272 74.8579 191.25 74.2557 192.092 74.492C192.387 74.5747 192.668 74.7577 192.802 75.0411C192.935 75.3219 192.927 75.659 192.805 75.9412C192.377 76.9362 190.834 77.5427 189.731 77.9762L189.731 77.9762L189.731 77.9763L189.73 77.9764C189.563 78.0421 189.406 78.1039 189.264 78.1624C189.161 80.1631 188.451 81.8169 187.531 83.5611C189.033 83.6924 190.711 83.9033 192.15 84.3381C192.36 84.1241 192.588 83.9018 192.839 83.7377C193.348 83.4056 193.967 83.2517 194.565 83.393C195.113 83.5222 195.594 83.888 195.887 84.3661C196.191 84.863 196.255 85.4814 196.1 86.0393C195.948 86.5897 195.603 87.0457 195.103 87.3248C194.583 87.6145 193.915 87.7446 193.341 87.5532C192.712 87.3438 192.203 86.8162 191.917 86.2334L188.488 85.9205C188.226 85.8941 187.965 85.8635 187.703 85.8329L187.703 85.8329L187.7 85.8326L187.7 85.8325C187.147 85.7679 186.594 85.7033 186.04 85.677C184.459 87.6589 182.875 88.966 180.687 90.2343C180.804 91.9694 180.978 93.7178 181.155 95.4481C181.187 95.7598 181.334 96.0062 181.486 96.2605C181.547 96.3634 181.609 96.4677 181.665 96.578C181.946 97.1358 181.791 97.7432 181.592 98.3007C181.365 98.6845 181.094 99.0321 180.71 99.2699C180.241 99.5604 179.684 99.6399 179.15 99.5084C179.076 99.4905 179.003 99.4688 178.932 99.4433C178.86 99.4178 178.79 99.3887 178.722 99.356C178.653 99.3232 178.587 99.287 178.522 99.2474C178.457 99.2077 178.395 99.1648 178.334 99.1187C178.274 99.0725 178.216 99.0234 178.161 98.9712C178.106 98.9191 178.053 98.8643 178.004 98.8067C177.955 98.7491 177.908 98.689 177.865 98.6267C177.822 98.5643 177.782 98.4999 177.745 98.4333C177.458 97.9068 177.385 97.2547 177.574 96.6834C177.806 95.9834 178.304 95.6326 178.934 95.3277C178.736 93.9752 178.623 92.5805 178.538 91.2168C176.886 91.7424 175.165 91.987 173.441 92.1076C173.34 92.2474 173.213 92.433 173.068 92.6457C172.348 93.7037 171.169 95.4344 170.343 95.5625C169.956 95.6225 169.452 95.4633 169.152 95.219C168.966 95.0677 168.846 94.8645 168.823 94.6241C168.74 93.7455 169.698 92.7131 170.384 91.9741L170.384 91.974L170.385 91.9738L170.385 91.9729C170.514 91.8346 170.633 91.7066 170.733 91.5918C169.489 91.1132 168.379 90.5804 167.27 89.8389C167.152 89.9227 167.02 90.0197 166.878 90.1244L166.878 90.1244L166.878 90.1245L166.878 90.1245L166.878 90.1245C166 90.7704 164.728 91.7055 163.812 91.5808C163.435 91.5296 163.122 91.3042 162.909 90.9944C162.756 90.7707 162.692 90.513 162.754 90.2458C162.947 89.4078 164.117 88.7241 164.969 88.2259C165.139 88.1268 165.296 88.035 165.43 87.9509C164.948 87.3372 164.482 86.6667 164.104 85.9842C163.079 85.8753 159.098 85.0723 158.543 84.3722C158.336 84.1117 158.255 83.8513 158.3 83.5189C158.337 83.2436 158.464 83.0029 158.692 82.84C159.397 82.3356 161.157 82.7596 162.327 83.0417C162.581 83.1027 162.806 83.1571 162.988 83.194C162.404 81.3803 161.811 79.1301 161.727 77.235C161.532 77.0623 161.352 76.8752 161.187 76.6736C161.023 76.4719 160.875 76.2584 160.745 76.0329C160.028 74.8101 160.002 73.6486 160.363 72.3011C159.899 71.0988 159.423 69.9009 158.937 68.7075C158.839 68.4692 158.73 68.2223 158.618 67.9697C158.256 67.1498 157.867 66.2707 157.78 65.4374C157.623 63.94 158.881 62.5799 159.939 61.436L159.939 61.4359L159.939 61.4359L159.939 61.4358C160.198 61.1557 160.445 60.8886 160.657 60.6356C157.816 58.2258 151.363 57.5974 147.71 57.3194L147.638 56.6106C148.514 56.5808 149.408 56.677 150.283 56.771L150.547 56.7992C154.033 57.1691 157.786 57.8596 160.751 59.8275C159.818 56.441 160.527 50.4688 161.388 47.0869C161.575 47.1518 161.76 47.2459 161.941 47.3385L161.941 47.3385L161.941 47.3386ZM172.122 63.0027C172.485 62.7235 173.367 62.5836 173.809 62.6216C174.615 62.6911 175.419 63.1352 175.931 63.7589C176.44 64.38 176.65 65.222 176.539 66.0142C176.4 67.009 175.784 67.7472 175.012 68.336C174.202 68.7102 173.515 68.9472 172.613 68.7054C172.563 68.6919 172.514 68.6772 172.465 68.6612C172.416 68.6453 172.367 68.6281 172.319 68.6097C172.271 68.5913 172.223 68.5717 172.176 68.5509C172.129 68.5301 172.083 68.5081 172.037 68.4849C171.991 68.4618 171.945 68.4376 171.901 68.4121C171.856 68.3868 171.812 68.3603 171.768 68.3327C171.725 68.305 171.682 68.2763 171.64 68.2466C171.598 68.2167 171.557 68.1859 171.516 68.1541C171.476 68.1223 171.436 68.0895 171.397 68.0556C171.359 68.0217 171.321 67.9869 171.284 67.9512C171.247 67.9155 171.21 67.8788 171.175 67.8413C171.14 67.8038 171.106 67.7654 171.072 67.7261C171.039 67.6868 171.007 67.6467 170.975 67.6058C170.944 67.5649 170.914 67.5233 170.885 67.4808C170.856 67.4385 170.827 67.3954 170.801 67.3515C170.773 67.3077 170.748 67.2633 170.723 67.2181C170.33 66.5031 170.203 65.6566 170.444 64.8707C170.705 64.0191 171.342 63.3935 172.122 63.0027ZM163.362 70.8101C163.231 70.843 163.103 70.8843 162.978 70.934C162.079 71.4269 161.369 71.996 161.054 73.0196C160.796 73.8573 160.917 74.8258 161.357 75.5822C161.382 75.6263 161.409 75.6697 161.437 75.7124C161.465 75.7551 161.494 75.7971 161.524 75.8385C161.554 75.8797 161.585 75.9202 161.617 75.9599C161.65 75.9995 161.683 76.0384 161.717 76.0765C161.751 76.1144 161.786 76.1516 161.822 76.1878C161.858 76.2241 161.894 76.2594 161.932 76.2938C161.97 76.3282 162.008 76.3617 162.048 76.3941C162.087 76.4265 162.128 76.4579 162.169 76.4883C162.21 76.5187 162.251 76.5481 162.294 76.5764C162.336 76.6046 162.379 76.6318 162.423 76.6579C162.467 76.684 162.512 76.709 162.557 76.7329C162.602 76.7567 162.648 76.7794 162.694 76.8009C162.74 76.8225 162.787 76.8428 162.834 76.862C162.882 76.8813 162.929 76.8992 162.978 76.9159C163.026 76.9327 163.074 76.9483 163.123 76.9625C163.172 76.9768 163.222 76.9898 163.271 77.0017C163.989 77.1722 164.658 77.0658 165.338 76.819C166.251 76.219 166.928 75.5514 167.154 74.4318C167.32 73.6113 167.153 72.8073 166.677 72.1187C166.186 71.4084 165.421 70.8867 164.562 70.7521C164.429 70.732 164.295 70.7207 164.161 70.7184C164.026 70.7159 163.892 70.7224 163.758 70.7378C163.624 70.7532 163.492 70.7773 163.362 70.8101ZM158.838 64.5876C160.625 63.8177 162.36 62.3567 163.653 60.9069C163.778 60.7663 163.903 60.6038 164.031 60.4371C164.314 60.067 164.613 59.6766 164.973 59.4601C165.188 59.3303 165.385 59.3342 165.619 59.4001C166.314 59.5962 170.9 62.2465 171.195 62.77C171.089 62.9075 170.958 62.9458 170.806 62.9901L170.806 62.9901C170.766 63.0017 170.725 63.0137 170.683 63.0281L170.625 63.1051C170.478 63.3524 170.307 63.5515 170.112 63.7623C169.603 64.7755 169.395 65.7368 169.754 66.8536C170.075 67.8533 170.753 68.7296 171.702 69.2026C171.758 69.2307 171.815 69.2573 171.873 69.2824C171.931 69.3076 171.99 69.3313 172.049 69.3535C172.108 69.3756 172.167 69.3962 172.227 69.4154C172.288 69.4345 172.348 69.452 172.409 69.468C172.47 69.484 172.532 69.4985 172.593 69.5113C172.655 69.5242 172.717 69.5355 172.779 69.5452C172.842 69.5549 172.904 69.5629 172.967 69.5694C173.03 69.576 173.093 69.5808 173.156 69.584C173.219 69.5873 173.282 69.5889 173.345 69.589C173.408 69.5891 173.471 69.5875 173.534 69.5843C173.597 69.581 173.66 69.5762 173.723 69.5697C173.785 69.5633 173.848 69.5553 173.91 69.5457C173.972 69.5361 174.034 69.5249 174.096 69.5121C174.158 69.4993 174.219 69.4849 174.28 69.469C174.342 69.453 174.402 69.4355 174.462 69.4164C174.522 69.3974 174.582 69.3768 174.641 69.3547C175.702 68.9631 176.596 68.1454 177.037 67.099C177.266 66.5572 177.337 66.0217 177.344 65.4405C177.622 65.5673 177.905 65.6932 178.19 65.8203L178.191 65.8205C179.434 66.3735 180.724 66.9475 181.823 67.6988C178.515 72.7003 172.099 79.3942 166.577 81.9142C166.277 82.0626 166.001 82.2111 165.726 82.4039L164.007 83.2521C163.313 81.4581 162.918 79.4926 162.614 77.5987C163.547 77.9051 164.347 77.9192 165.279 77.5945C166.23 77.2254 166.996 76.6669 167.514 75.7716C167.546 75.7159 167.577 75.6594 167.607 75.602C167.637 75.5447 167.665 75.4866 167.692 75.428C167.718 75.3692 167.744 75.3098 167.767 75.2498C167.791 75.1897 167.814 75.1292 167.834 75.068C167.855 75.007 167.874 74.9454 167.892 74.8832C167.91 74.8212 167.926 74.7587 167.94 74.6958C167.955 74.6329 167.968 74.5696 167.979 74.5061C167.99 74.4425 168 74.3787 168.008 74.3147C168.016 74.2507 168.023 74.1865 168.028 74.1222C168.033 74.0578 168.036 73.9933 168.038 73.9288C168.039 73.8643 168.039 73.7998 168.038 73.7353C168.036 73.6708 168.033 73.6063 168.028 73.5418C168.024 73.4775 168.017 73.4133 168.009 73.3492C168.001 73.2852 167.991 73.2214 167.98 73.1579C167.969 73.0943 167.956 73.031 167.942 72.9681C167.928 72.9052 167.912 72.8426 167.894 72.7806C167.607 71.7648 166.941 70.939 166.022 70.4285C164.905 69.8074 163.871 69.8713 162.678 70.2149C162.605 70.2536 162.531 70.2916 162.457 70.3297C162.246 70.4381 162.033 70.5476 161.838 70.6777L161.82 70.6916C161.812 70.6982 161.803 70.7048 161.795 70.7115L161.722 70.7689C161.358 71.0555 161.053 71.3713 160.738 71.7098C160.627 71.4491 160.503 71.1695 160.372 70.8756L160.372 70.8756C159.522 68.9638 158.404 66.4459 158.838 64.5876ZM185.992 71.3757C185.291 70.4234 183.226 68.286 182.146 67.9064L182.107 67.9884C181.609 68.9954 180.881 69.9336 180.188 70.8262C180.135 70.8935 180.083 70.9606 180.032 71.0274C177.051 74.8771 173.531 78.3561 169.446 81.0289C168.445 81.6839 167.367 82.2115 166.292 82.7371C166.108 82.8274 165.923 82.9176 165.739 83.0083C165.601 83.0766 165.447 83.1434 165.289 83.2118C164.962 83.3538 164.618 83.5029 164.366 83.6865C164.268 83.7584 164.327 83.9107 164.367 84.0122C164.369 84.0185 164.371 84.0246 164.374 84.0304C165.4 86.6999 167.601 89.1666 170.273 90.2379C170.785 90.4413 171.307 90.6105 171.841 90.7454C175.495 91.3436 178.932 90.276 181.905 88.13C184.729 86.092 187.416 82.755 187.957 79.2456C187.982 79.0741 188.004 78.9021 188.021 78.7295C188.038 78.5568 188.051 78.3839 188.059 78.2106C188.068 78.0374 188.072 77.8641 188.073 77.6906C188.073 77.5172 188.069 77.3439 188.06 77.1707C188.052 76.9974 188.039 76.8245 188.022 76.6519C188.005 76.4792 187.984 76.3071 187.959 76.1356C187.934 75.964 187.904 75.7932 187.87 75.623C187.837 75.4529 187.799 75.2837 187.757 75.1153C187.715 74.9471 187.669 74.7799 187.619 74.6139C187.568 74.4479 187.514 74.2832 187.456 74.1198C187.398 73.9565 187.335 73.7947 187.269 73.6345C187.203 73.4741 187.133 73.3156 187.059 73.1587C186.985 73.0019 186.907 72.8469 186.825 72.6939C186.744 72.5408 186.658 72.3899 186.569 72.241C186.48 72.0921 186.388 71.9456 186.291 71.8013C186.195 71.657 186.095 71.5151 185.992 71.3757Z" fill="#FEFEFE"/>
        <path d="M178.593 77.3992C178.769 77.3232 178.955 77.2332 179.143 77.1932C179.473 77.1231 179.871 77.2317 180.134 77.4376C180.389 77.638 180.537 77.9354 180.553 78.2588C180.576 78.7138 180.358 78.9798 180.07 79.3046C179.908 79.3782 179.736 79.465 179.56 79.5016C179.268 79.5627 178.922 79.4898 178.675 79.3264C178.408 79.15 178.247 78.8617 178.204 78.5478C178.142 78.092 178.325 77.751 178.593 77.3992Z" fill="#FEFEFE"/>
        <path d="M177.983 82.9936C178.12 82.9628 178.268 82.9358 178.408 82.9347C178.751 82.9318 179.158 83.0892 179.386 83.3503C179.595 83.5898 179.686 83.903 179.651 84.2179C179.601 84.6667 179.332 84.966 179.002 85.2466C178.768 85.3296 178.562 85.3857 178.312 85.3503C177.986 85.3044 177.685 85.1355 177.491 84.8674C177.465 84.8315 177.441 84.7943 177.42 84.7559C177.398 84.7175 177.378 84.678 177.36 84.6375C177.343 84.5969 177.327 84.5556 177.314 84.5135C177.3 84.4713 177.289 84.4286 177.281 84.3853C177.272 84.3419 177.265 84.2982 177.261 84.2543C177.257 84.2102 177.255 84.166 177.256 84.1218C177.256 84.0777 177.259 84.0337 177.264 83.9898C177.27 83.9459 177.277 83.9023 177.287 83.8592C177.388 83.4292 177.625 83.2249 177.983 82.9936Z" fill="#FEFEFE"/>
        <path d="M178.091 66.9121C178.134 66.9063 178.177 66.8961 178.22 66.8949C178.808 66.8796 180.536 67.7826 180.99 68.1869C181.034 68.3926 180.937 68.5635 180.862 68.7507C180.723 68.8288 180.684 68.8572 180.517 68.8172C180.321 68.7705 178.253 67.826 178.1 67.7075C178.053 67.6713 178.029 67.6128 177.994 67.5654C177.942 67.3243 178.019 67.139 178.091 66.9121Z" fill="#FEFEFE"/>
        <path d="M169.917 87.3381C170.103 87.3034 170.303 87.2564 170.482 87.3503C170.639 87.4324 170.726 87.5573 170.749 87.7325C170.776 87.9387 170.637 88.1154 170.527 88.2736C170.352 88.2819 170.168 88.2928 170.006 88.2106C169.837 88.125 169.8 88.0473 169.728 87.8862C169.726 87.6464 169.789 87.5376 169.917 87.3381Z" fill="#FEFEFE"/>
        <path d="M165.725 82.4041C165.654 82.233 165.59 82.061 165.537 81.8839C165.309 81.1293 164.512 78.7136 164.856 78.0746C165.054 77.9444 165.251 77.9672 165.478 77.9679C165.847 79.2793 166.254 80.591 166.576 81.9143C166.276 82.0627 166 82.2112 165.725 82.4041Z" fill="#FEFEFE"/>
        <path d="M161.836 70.6804C161.355 69.3637 160.687 68.1147 160.224 66.7929C160.046 66.2827 159.806 65.4509 160.05 64.949L160.129 64.9332C160.375 65.086 160.512 65.336 160.643 65.587C160.978 66.2293 161.161 66.9473 161.45 67.6119C161.834 68.4928 162.309 69.3285 162.675 70.2175C162.396 70.3662 162.099 70.5045 161.836 70.6804Z" fill="#FEFEFE"/>
        <path d="M170.113 63.7664C169.117 63.2671 168.269 62.4964 167.254 61.9982C166.619 61.687 165.9 61.607 165.254 61.339C165.06 61.2587 164.982 61.2142 164.899 61.0221C164.961 60.8613 164.984 60.7935 165.126 60.6843C165.33 60.5277 165.655 60.5712 165.891 60.6142C167.265 60.8647 169.805 61.977 170.625 63.1092C170.478 63.3565 170.308 63.5556 170.113 63.7664Z" fill="#FEFEFE"/>
        <path d="M184.688 73.8485C184.803 73.8168 184.934 73.7727 185.053 73.7693C185.247 73.7638 185.33 73.8443 185.456 73.9744C185.513 74.208 185.475 74.3338 185.399 74.5589C185.255 74.6213 185.106 74.6782 184.945 74.6452C184.761 74.6078 184.716 74.5286 184.615 74.3883C184.564 74.1479 184.597 74.065 184.688 73.8485Z" fill="#FEFEFE"/>
        <path d="M166.688 82.971C166.836 82.9296 166.957 82.9248 167.11 82.927C167.634 83.2115 167.911 84.504 168.266 85.0072C168.565 85.4303 168.99 85.7388 169.244 86.1994C169.291 86.4534 169.185 86.6501 169.093 86.8806C169.061 86.8969 169.032 86.9167 168.999 86.9293C168.827 86.995 168.695 86.999 168.531 86.9148C167.835 86.5583 166.827 84.6184 166.589 83.8801C166.469 83.5089 166.51 83.3112 166.688 82.971Z" fill="#FEFEFE"/>
        <path d="M181.621 69.5698C181.845 69.5287 181.969 69.5955 182.158 69.7085C182.888 70.143 184.849 71.9635 184.95 72.8153C184.978 73.0451 184.846 73.1622 184.722 73.3322C184.568 73.3513 184.356 73.3879 184.211 73.3143C183.886 73.1494 182.727 71.4866 182.324 71.0646C182.098 70.8272 181.825 70.6376 181.557 70.45C181.432 70.3621 181.416 70.3541 181.337 70.2129C181.358 69.9644 181.496 69.7781 181.621 69.5698Z" fill="#FEFEFE"/>
        <path d="M184.05 78.1223C184.261 78.0151 184.475 77.8981 184.707 77.8454C185.01 77.7763 185.351 77.7918 185.614 77.9717C185.872 78.148 186.002 78.4231 186.043 78.7268C186.128 79.3498 185.851 79.9443 185.489 80.4302C185.253 80.6067 184.979 80.7107 184.682 80.7129C184.36 80.7153 184.064 80.5762 183.844 80.3435C183.57 80.0532 183.443 79.6697 183.453 79.2743C183.465 78.7702 183.709 78.4654 184.05 78.1223Z" fill="#FEFEFE"/>
        <path d="M171.301 82.5376C171.604 82.4111 171.879 82.2901 172.213 82.312C172.259 82.3155 172.305 82.3213 172.351 82.3294C172.397 82.3375 172.443 82.3479 172.488 82.3604C172.532 82.373 172.577 82.3879 172.62 82.4049C172.663 82.4219 172.706 82.441 172.747 82.4622C172.789 82.4834 172.829 82.5067 172.868 82.5319C172.908 82.5571 172.945 82.5842 172.982 82.6132C173.018 82.6422 173.053 82.673 173.087 82.7054C173.12 82.7379 173.152 82.772 173.182 82.8077C173.216 82.8485 173.248 82.8908 173.278 82.9346C173.308 82.9785 173.336 83.0237 173.362 83.0703C173.387 83.1169 173.41 83.1646 173.431 83.2135C173.452 83.2624 173.471 83.3122 173.487 83.3629C173.503 83.4135 173.516 83.4648 173.527 83.5169C173.538 83.5689 173.546 83.6213 173.552 83.6742C173.558 83.727 173.561 83.78 173.562 83.8331C173.562 83.8863 173.56 83.9393 173.556 83.9923C173.508 84.5206 173.249 84.8638 172.852 85.192C172.511 85.3074 172.199 85.4074 171.833 85.366C171.408 85.3181 170.999 85.1032 170.746 84.754C170.718 84.7154 170.692 84.6755 170.668 84.6343C170.644 84.5931 170.622 84.5508 170.602 84.5075C170.583 84.4642 170.565 84.42 170.55 84.3749C170.534 84.3297 170.521 84.2839 170.51 84.2376C170.499 84.1912 170.491 84.1444 170.484 84.0971C170.478 84.0498 170.474 84.0024 170.473 83.9548C170.471 83.9072 170.472 83.8595 170.475 83.812C170.478 83.7644 170.484 83.7171 170.492 83.6701C170.582 83.1605 170.889 82.8214 171.301 82.5376Z" fill="#FEFEFE"/>
        <path d="M164.526 72.6106C164.703 72.5527 164.872 72.5054 165.061 72.5006C165.627 72.4866 165.986 72.8174 166.368 73.1841C166.421 73.4288 166.476 73.6732 166.533 73.9172C166.395 74.4685 166.272 74.7305 165.846 75.1159C165.596 75.2204 165.376 75.3063 165.099 75.2816C164.714 75.2472 164.371 75.0778 164.13 74.7734C164.1 74.7354 164.072 74.6961 164.046 74.6553C164.02 74.6145 163.996 74.5726 163.974 74.5294C163.952 74.4863 163.932 74.4422 163.915 74.397C163.897 74.3519 163.882 74.306 163.869 74.2594C163.856 74.2127 163.845 74.1656 163.837 74.118C163.829 74.0703 163.823 74.0223 163.82 73.974C163.816 73.9257 163.815 73.8773 163.817 73.8289C163.818 73.7806 163.822 73.7324 163.828 73.6844C163.889 73.192 164.155 72.9101 164.526 72.6106Z" fill="#FEFEFE"/>
        <path d="M172.675 65.6419C172.852 65.5839 173.022 65.5366 173.21 65.5319C173.777 65.5178 174.135 65.8487 174.518 66.2153C174.571 66.4601 174.626 66.7044 174.682 66.9484C174.545 67.4997 174.422 67.7618 173.995 68.1472C173.745 68.2516 173.526 68.3376 173.249 68.3129C172.864 68.2785 172.521 68.109 172.279 67.8047C172.249 67.7667 172.221 67.7273 172.195 67.6866C172.169 67.6458 172.145 67.6038 172.123 67.5607C172.101 67.5176 172.082 67.4734 172.064 67.4282C172.047 67.3831 172.031 67.3373 172.018 67.2906C172.005 67.244 171.995 67.1969 171.987 67.1492C171.978 67.1015 171.973 67.0535 171.969 67.0053C171.966 66.9569 171.965 66.9086 171.966 66.8602C171.967 66.8118 171.971 66.7636 171.977 66.7157C172.038 66.2233 172.304 65.9413 172.675 65.6419Z" fill="#FEFEFE"/>
        <path opacity="0.5" d="M91.4967 167.572C91.2485 167.562 91.0309 167.519 90.8439 167.445C90.6603 167.37 90.5056 167.258 90.3798 167.108C90.2574 166.958 90.1656 166.77 90.1044 166.542C90.0432 166.311 90.0126 166.037 90.0126 165.721C90.0126 165.075 90.1486 164.604 90.4206 164.308C90.696 164.012 91.0955 163.864 91.6191 163.864C91.8945 163.864 92.1325 163.898 92.3331 163.966C92.5337 164.034 92.7003 164.143 92.8329 164.293C92.9655 164.439 93.0641 164.629 93.1287 164.864C93.1933 165.099 93.2256 165.384 93.2256 165.721C93.2256 166.197 93.1525 166.576 93.0063 166.858C92.8601 167.14 92.6442 167.339 92.3586 167.455L92.991 168.322H92.0424L91.4967 167.572ZM91.6191 166.863C91.7483 166.863 91.8622 166.845 91.9608 166.807C92.0594 166.77 92.141 166.709 92.2056 166.624C92.2702 166.535 92.3178 166.418 92.3484 166.272C92.3824 166.125 92.3994 165.942 92.3994 165.721C92.3994 165.503 92.3824 165.321 92.3484 165.175C92.3178 165.026 92.2685 164.908 92.2005 164.823C92.1359 164.735 92.0543 164.672 91.9557 164.635C91.8605 164.597 91.7483 164.578 91.6191 164.578C91.4899 164.578 91.376 164.597 91.2774 164.635C91.1822 164.672 91.1006 164.735 91.0326 164.823C90.968 164.908 90.9187 165.026 90.8847 165.175C90.8541 165.321 90.8388 165.503 90.8388 165.721C90.8388 165.942 90.8541 166.125 90.8847 166.272C90.9187 166.418 90.968 166.535 91.0326 166.624C91.1006 166.709 91.1822 166.77 91.2774 166.807C91.376 166.845 91.4899 166.863 91.6191 166.863ZM94.5378 163.936H95.4558L96.5727 167.506H95.7465L95.5272 166.741H94.4256L94.2063 167.506H93.4107L94.5378 163.936ZM94.6143 166.078H95.3436L94.9815 164.803L94.6143 166.078ZM97.9092 167.542C97.7562 167.542 97.6253 167.525 97.5165 167.491C97.4111 167.453 97.3244 167.397 97.2564 167.322C97.1918 167.244 97.1442 167.144 97.1136 167.021C97.083 166.899 97.0677 166.751 97.0677 166.578V165.415H96.6597V164.752H97.0677V164.278L97.8327 164.012V164.752H98.5467V165.415H97.8327V166.476C97.8327 166.605 97.8531 166.702 97.8939 166.766C97.9381 166.828 98.0129 166.858 98.1183 166.858C98.1965 166.858 98.273 166.846 98.3478 166.822C98.4226 166.795 98.4889 166.761 98.5467 166.72V167.404C98.4991 167.434 98.4192 167.465 98.307 167.496C98.1948 167.526 98.0622 167.542 97.9092 167.542ZM100.202 167.577C99.7668 167.577 99.4404 167.463 99.2228 167.236C99.0086 167.004 98.9015 166.635 98.9015 166.129C98.9015 165.632 99.012 165.267 99.233 165.032C99.454 164.798 99.777 164.68 100.202 164.68C100.426 164.68 100.62 164.708 100.783 164.762C100.947 164.813 101.081 164.898 101.186 165.017C101.295 165.133 101.375 165.282 101.426 165.466C101.477 165.649 101.503 165.87 101.503 166.129C101.503 166.635 101.394 167.004 101.176 167.236C100.959 167.463 100.634 167.577 100.202 167.577ZM100.202 166.894C100.287 166.894 100.36 166.882 100.421 166.858C100.486 166.831 100.54 166.788 100.585 166.731C100.629 166.673 100.661 166.595 100.681 166.496C100.705 166.397 100.717 166.275 100.717 166.129C100.717 165.983 100.707 165.86 100.687 165.762C100.666 165.663 100.634 165.585 100.59 165.527C100.545 165.469 100.491 165.428 100.426 165.405C100.362 165.377 100.287 165.364 100.202 165.364C100.117 165.364 100.042 165.377 99.9776 165.405C99.913 165.428 99.8586 165.471 99.8144 165.532C99.7736 165.59 99.7413 165.668 99.7175 165.767C99.6971 165.865 99.6869 165.986 99.6869 166.129C99.6869 166.275 99.6971 166.397 99.7175 166.496C99.7413 166.595 99.7736 166.673 99.8144 166.731C99.8586 166.788 99.913 166.831 99.9776 166.858C100.042 166.882 100.117 166.894 100.202 166.894ZM103.136 167.542C103.021 167.542 102.9 167.538 102.774 167.531C102.648 167.525 102.533 167.518 102.427 167.511C102.305 167.501 102.184 167.491 102.065 167.48V163.961C102.181 163.951 102.303 163.941 102.432 163.931C102.541 163.924 102.662 163.917 102.794 163.91C102.927 163.904 103.058 163.9 103.187 163.9C103.786 163.9 104.224 164.043 104.503 164.329C104.782 164.611 104.921 165.066 104.921 165.695C104.921 166.318 104.772 166.782 104.472 167.088C104.173 167.39 103.728 167.542 103.136 167.542ZM104.095 165.695C104.095 165.315 104.022 165.044 103.876 164.884C103.733 164.725 103.512 164.645 103.213 164.645C103.175 164.645 103.134 164.646 103.09 164.65C103.049 164.65 103.012 164.652 102.978 164.655C102.937 164.658 102.898 164.662 102.861 164.665V166.777C102.891 166.78 102.925 166.783 102.963 166.787C102.993 166.79 103.026 166.794 103.06 166.797C103.094 166.797 103.128 166.797 103.162 166.797C103.471 166.797 103.704 166.712 103.86 166.542C104.017 166.372 104.095 166.09 104.095 165.695ZM106.603 167.577C106.358 167.577 106.15 167.547 105.98 167.485C105.814 167.424 105.678 167.332 105.572 167.21C105.47 167.084 105.396 166.928 105.348 166.741C105.3 166.554 105.277 166.333 105.277 166.078C105.277 165.609 105.387 165.258 105.608 165.027C105.829 164.796 106.144 164.68 106.552 164.68C106.779 164.68 106.97 164.711 107.123 164.772C107.279 164.83 107.405 164.915 107.5 165.027C107.599 165.139 107.668 165.275 107.709 165.435C107.753 165.592 107.776 165.768 107.776 165.966V166.333H106.042C106.055 166.55 106.113 166.707 106.215 166.802C106.317 166.897 106.48 166.945 106.705 166.945C106.793 166.945 106.881 166.938 106.97 166.924C107.062 166.907 107.148 166.885 107.23 166.858C107.311 166.831 107.386 166.799 107.454 166.761C107.522 166.724 107.578 166.685 107.623 166.644V167.327C107.507 167.399 107.371 167.458 107.215 167.506C107.062 167.553 106.858 167.577 106.603 167.577ZM106.552 165.262C106.385 165.262 106.261 165.309 106.179 165.405C106.101 165.5 106.055 165.656 106.042 165.874H107.011C107.011 165.666 106.978 165.513 106.914 165.415C106.849 165.313 106.728 165.262 106.552 165.262ZM107.954 164.752H108.78L109.249 166.639L109.718 164.752H110.504L109.688 167.506H108.77L107.954 164.752Z" fill="#FEFEFE"/>
    </g>
    <rect x="87.4882" y="45.3036" width="124.748" height="124.748" rx="62.3742" stroke="#FEFEFE" stroke-width="2.7518"/>
    <defs>
        <clipPath id="clip0_951_119">
            <rect x="86.1123" y="43.9277" width="127.5" height="127.5" rx="63.7501" fill="white"/>
        </clipPath>
    </defs>
</svg>
