<svg width="180" height="300" viewBox="0 0 180 300" fill="none" xmlns="http://www.w3.org/2000/svg">
    <g opacity="1" clip-path="url(#clip0_929_1305)">
        <path d="M93.1818 184.664C91.6807 179.227 90.1405 173.925 90.0555 168.237C89.9632 162.082 91.4403 146.201 95.5835 141.892C96.2529 141.637 96.4719 141.505 97.1408 141.935C97.163 141.949 97.6672 142.394 97.6899 142.484C97.8732 143.202 94.0904 153.569 93.626 155.549C91.3137 165.407 93.2519 174.557 95.5792 184.148L93.1818 184.664Z" fill="#FEFEFE" fill-opacity="0.937255"/>
        <path d="M106.77 195.374C116.092 198.998 128.013 199.787 137.778 197.46C139.231 197.114 148.377 194.108 148.899 194.219C149.234 194.291 149.473 194.593 149.76 194.78C149.88 195.194 150.051 195.335 149.787 195.731C148.014 198.403 137.885 200.408 134.688 200.821C128.289 201.649 121.338 201.743 114.998 200.462C111.911 199.838 108.895 198.868 105.821 198.173C106.047 197.234 106.452 196.289 106.77 195.374Z" fill="#FEFEFE" fill-opacity="0.937255"/>
        <path d="M27.3675 114.324C27.4942 114.817 27.8655 115.594 27.5844 116.029C26.8779 117.126 25.5317 118.157 24.5856 119.077C21.7869 121.798 18.2773 125.443 16.9781 129.209C14.3058 134.159 14.2921 140.812 15.9798 146.111C16.2896 147.085 16.7592 147.983 17.2783 148.858C17.7863 149.924 18.3741 150.79 19.104 151.717C20.4922 154.026 22.8792 156.313 25.0036 157.948C26.9178 159.485 28.854 160.995 30.8123 162.476C31.4093 163.128 31.6397 163.204 31.6891 164.111C31.0565 164.547 30.5376 164.63 29.7704 164.507C28.2974 163.06 26.4636 161.864 24.8268 160.595C20.1355 156.954 15.5076 152.84 12.6338 147.552C12.393 147.099 12.1632 146.641 11.9446 146.177C11.7261 145.713 11.519 145.244 11.3235 144.769C11.128 144.295 10.9442 143.816 10.772 143.333C10.5995 142.85 10.4391 142.363 10.2908 141.872C10.1428 141.381 10.0067 140.886 9.88246 140.389C9.75826 139.891 9.64623 139.39 9.54641 138.887C9.44686 138.384 9.35963 137.878 9.28471 137.371C9.2098 136.863 9.14734 136.354 9.09732 135.844C9.04703 135.334 9.00946 134.822 8.9846 134.309C8.95973 133.797 8.9473 133.285 8.94731 132.772C8.94732 132.259 8.95977 131.746 8.98464 131.234C9.01005 130.721 9.04773 130.21 9.09773 129.699C9.14799 129.189 9.21053 128.68 9.28537 128.172C9.36046 127.665 9.44786 127.16 9.54752 126.656C9.64744 126.153 9.75948 125.653 9.88368 125.155C10.0079 124.658 10.1442 124.163 10.2927 123.672C11.3554 120.126 14.3325 114.155 17.7813 112.483C20.1702 111.324 25.0576 113.524 27.3675 114.324Z" fill="#FEFEFE"/>
        <path d="M176.653 266.334C177.785 268.926 178.627 271.925 177.468 274.671C176.065 277.996 171.263 279.714 168.111 280.88C160.308 283.765 151.507 283.016 143.999 279.547C135.108 275.439 129.708 266.67 125.589 258.185C125.309 256.712 124.763 255.259 124.31 253.829C124.1 252.279 123.399 250.802 123.146 249.234L123.496 248.887C124.085 249.239 124.584 249.632 125.116 250.063C126.707 252.192 127.77 255.226 128.935 257.629C132.296 264.564 137.344 272.633 144.585 276.045C149.774 278.489 154.324 277.631 159.443 275.808C160.482 275.701 161.264 275.27 162.188 274.805C166.541 272.601 170.553 269.951 174.427 266.999C175.134 266.702 175.914 266.538 176.653 266.334Z" fill="#FEFEFE"/>
        <path fill-rule="evenodd" clip-rule="evenodd" d="M125.751 262.624L125.703 262.482C124.233 265.579 121.957 267.348 118.793 268.563C112.545 271.121 106.442 269.899 100.281 267.61L95.1435 265.512L92.7553 264.333L92.73 264.319C90.7353 263.221 88.8144 262.165 87.1262 260.611C86.8966 265.188 86.8078 270.313 88.1394 274.733C89.5104 279.283 92.9445 282.353 97.0259 284.501C104.23 288.293 112.284 289.131 120.049 286.671C123.497 285.578 127.025 283.827 128.651 280.401C130.456 276.597 127.109 266.658 125.751 262.624ZM124.957 276.867C124.705 276.602 124.447 276.343 124.182 276.092C124.087 276.039 123.991 275.985 123.895 275.93L123.894 275.93C123 275.42 122.022 274.863 120.978 275.142C120.402 275.295 119.935 275.801 119.675 276.321C119.349 276.974 119.117 277.678 118.91 278.376C119.245 280.017 119.54 281.534 119.529 283.217C121.478 283.394 123.45 283.301 125.015 281.964C125.709 281.371 126.141 280.604 126.205 279.69C126.283 278.56 125.693 277.653 124.957 276.867ZM117.131 277.877C117.145 277.888 117.157 277.899 117.169 277.909C117.354 278.066 117.461 278.157 117.672 278.38C118.509 279.262 119.308 280.648 119.155 281.909C119.026 282.971 118.332 283.742 117.463 284.289C115.666 285.422 113.581 285.416 111.567 285.028C111.551 284.997 111.534 284.967 111.517 284.937L111.517 284.937C111.483 284.877 111.449 284.817 111.426 284.752C110.837 283.091 110.805 279.368 111.638 277.844C112.037 277.115 112.753 276.467 113.602 276.354C114.716 276.206 115.746 276.915 116.655 277.542C116.796 277.639 116.934 277.734 117.069 277.823C117.091 277.842 117.112 277.86 117.131 277.877ZM110.115 278.878C109.528 278.078 108.942 277.278 108.24 276.574C107.156 276.298 106.346 276.11 105.23 276.261C104.886 276.5 104.56 276.782 104.233 277.064C103.779 277.457 103.324 277.849 102.824 278.123C102.81 278.065 102.797 278.007 102.784 277.95C102.757 277.834 102.731 277.719 102.701 277.605C102.441 276.604 101.679 275.511 100.707 275.088C99.7078 274.654 98.4162 275.09 97.3862 275.437C97.2898 275.47 97.1958 275.501 97.1045 275.532C96.8831 275.355 96.6708 275.178 96.4632 275.005C95.2277 273.976 94.1609 273.088 92.3677 273.226C92.3029 273.268 92.2427 273.306 92.1867 273.342C91.7073 273.644 91.5385 273.751 91.4385 274.454C91.2552 275.74 92.3053 277.452 93.1639 278.322C93.5743 278.738 94.0158 279.123 94.4549 279.506C94.7475 279.706 95.0543 279.93 95.3728 280.163C96.8872 281.272 98.6672 282.576 100.453 282.344C101.097 282.26 101.516 281.901 101.883 281.377C102.089 281.083 102.279 280.774 102.467 280.466C102.484 280.44 102.5 280.414 102.516 280.387C103.324 282.319 104.16 283.938 106.235 284.756C106.934 285.032 107.77 285.137 108.489 284.876C109.318 284.574 109.961 283.819 110.259 283.004C110.668 281.884 110.563 280.601 110.467 279.432C110.465 279.403 110.462 279.375 110.46 279.346C110.344 279.191 110.23 279.034 110.115 278.878Z" fill="#FEFEFE"/>
        <path fill-rule="evenodd" clip-rule="evenodd" d="M29.2362 200.709C23.8524 201.133 16.8189 201.337 11.8916 198.727C7.98657 196.658 5.63485 192.24 4.31953 188.194C1.87288 180.665 1.48828 170.794 5.21703 163.595C6.34499 161.417 7.91323 159.627 10.3343 158.93C15.1618 157.539 20.6694 160.995 25.0687 163.755L25.0687 163.755C25.8867 164.268 26.6663 164.757 27.3962 165.187C23.818 167.764 20.7113 170.641 20.0297 175.261C19.4302 179.325 20.8252 182.469 22.3044 185.803C22.8014 186.923 23.3079 188.064 23.7515 189.269C24.0482 190.075 24.3183 190.868 24.5842 191.648C25.5744 194.555 26.5056 197.287 28.5314 199.869C28.7582 200.156 28.9931 200.436 29.2362 200.709ZM15.1806 189.903C15.7743 190.785 16.2937 191.594 16.3904 192.679C16.4842 193.731 16.188 194.905 15.4242 195.669C14.8687 196.226 14.1787 196.43 13.4095 196.397C12.1935 196.346 11.257 195.302 10.4982 194.455L10.4068 194.354C9.38256 192.868 8.77964 191.335 8.19238 189.647C10.8102 188.933 12.6997 188.622 15.1806 189.903ZM14.5114 161.321L14.5114 161.321L14.5114 161.321C14.4629 161.276 14.4149 161.231 14.3677 161.187C12.3261 160.955 11.0559 161.162 9.43362 162.493C8.46557 163.288 7.64842 164.331 7.66634 165.645C7.67534 166.319 7.95185 166.961 8.45889 167.405C8.93974 167.827 9.75863 168.145 10.3753 168.385L10.4978 168.432C10.6303 168.47 10.7609 168.507 10.89 168.545L10.8902 168.545C12.061 168.884 13.1057 169.187 14.2834 168.559C14.4013 168.497 14.5155 168.429 14.6259 168.354C14.7364 168.279 14.8426 168.199 14.9445 168.113C15.0461 168.027 15.1427 167.935 15.2342 167.838C15.3262 167.742 15.4124 167.64 15.4929 167.534C15.5736 167.428 15.6482 167.318 15.7166 167.204C15.7852 167.089 15.8474 166.971 15.9032 166.85C15.9589 166.729 16.0078 166.605 16.0499 166.479C16.0922 166.352 16.1273 166.224 16.1553 166.094C16.4339 164.805 16.0957 163.195 15.3 162.143C15.0773 161.848 14.7874 161.578 14.5114 161.321ZM11.7375 179.873C12.2528 180.288 12.7455 180.728 13.2158 181.193C14.1387 182.119 14.8519 183.396 14.7803 184.74C14.7369 185.55 14.3828 186.254 13.7636 186.778C12.279 188.036 10.0576 187.815 8.2557 187.635L8.2248 187.632C6.98363 186.023 5.30192 183.541 5.71789 181.368C5.85956 180.624 6.19998 180.045 6.87463 179.661C8.21889 178.898 9.98978 179.389 11.4214 179.786C11.5288 179.816 11.6343 179.845 11.7375 179.873ZM12.5565 170.451C12.5412 170.437 12.526 170.423 12.5108 170.409C12.3296 170.339 12.1401 170.263 11.9442 170.185C10.353 169.549 8.33503 168.742 6.80764 169.581C5.97904 170.037 5.58333 170.891 5.41999 171.781C5.09036 173.574 5.50066 175.92 6.00233 177.654C8.16192 178.358 10.2429 178.804 12.3441 177.673C13.204 177.21 14.0758 176.387 14.3396 175.414C14.6762 174.173 14.2567 172.535 13.5288 171.49C13.2619 171.106 12.8994 170.77 12.5565 170.451Z" fill="#FEFEFE"/>
        <path fill-rule="evenodd" clip-rule="evenodd" d="M112.401 173.85C113.32 174.469 114.44 175.25 114.877 176.291L114.592 176.76C114.497 176.78 114.405 176.798 114.313 176.816L114.313 176.816L114.313 176.816C113.711 176.935 113.178 177.04 112.744 177.551L112.897 178.022C113.617 178.055 114.316 177.597 114.965 177.171L114.966 177.171L114.966 177.171L114.966 177.171L114.966 177.171C115.137 177.058 115.305 176.948 115.47 176.849L116.074 177.075L116.132 177.171C116.479 177.742 116.776 178.232 117.326 178.655C120.417 177.747 123.438 176.342 126.521 174.908L126.521 174.908L126.522 174.908C130.095 173.247 133.751 171.547 137.695 170.537C141.492 169.564 146.125 169.041 149.606 171.221C151.107 172.161 152.22 173.605 152.592 175.351C152.943 176.994 152.658 178.821 151.665 180.199C151.038 181.07 150.079 181.769 148.986 181.881C147.707 182.011 146.354 181.44 145.391 180.621C144.672 180.01 144.304 179.354 144.23 178.409C144.147 177.356 144.351 176.494 145.015 175.665L145.032 175.657C145.68 175.342 145.838 175.265 146.559 175.301C146.858 175.909 146.818 176.638 146.778 177.381C146.75 177.909 146.721 178.443 146.812 178.946C146.876 179.008 146.929 179.066 146.977 179.119C147.151 179.31 147.268 179.438 147.607 179.458C148.283 179.496 149.111 179.267 149.605 178.783C150.07 178.327 150.252 177.652 150.267 177.02C150.297 175.78 149.817 174.507 148.909 173.654C147.422 172.259 145.027 172.038 143.092 172.088C140.694 172.15 138.147 172.779 135.869 173.505C133.728 174.188 115.884 181.313 114.794 182.454C114.854 182.475 114.915 182.498 114.975 182.521C115.096 182.568 115.218 182.614 115.344 182.645C115.439 182.668 115.536 182.676 115.633 182.684L115.633 182.684C115.705 182.691 115.776 182.697 115.846 182.708C116.958 182.897 117.771 183.547 118.375 184.488C118.904 185.314 119.159 186.461 118.861 187.416C118.145 189.712 116.036 189.381 113.649 189.006C111.909 188.732 110.022 188.436 108.42 189.118C108.351 189.147 108.282 189.177 108.214 189.208L108.213 189.208L108.119 189.249C107.426 191.262 107.071 193.274 106.772 195.375C106.677 195.648 106.574 195.924 106.471 196.201L106.471 196.201C106.228 196.853 105.981 197.515 105.823 198.174C104.771 200.738 103.746 203.195 102.136 205.466L101.2 206.603C100.209 207.493 99.2181 208.322 98.1479 209.116C97.8777 209.307 97.5951 209.497 97.3091 209.689C96.462 210.258 95.5844 210.847 94.9063 211.553C92.0724 213.636 88.5182 215.774 85.1291 216.716L82.6348 217.401C82.286 219.461 81.5827 221.196 80.5443 222.992C74.6533 233.184 57.5696 247.047 45.8888 249.917C44.5013 250.258 42.709 250.496 41.4568 249.625C40.7922 249.162 40.4247 248.539 40.2846 247.749C39.4508 243.037 46.1482 232.642 48.7891 228.862C53.941 221.487 64.4768 210.009 73.6357 208.396C75.1526 203.774 76.9484 199.32 79.6089 195.229C80.0357 194.764 80.4343 194.258 80.8301 193.756C81.0106 193.527 81.1905 193.299 81.3724 193.075L83.4847 190.213L85.3105 188.588C87.8813 187.143 90.4748 185.834 93.1821 184.664L95.5795 184.148C96.8374 184.214 98.8694 183.964 99.9939 183.389C101.785 182.471 102.225 181.356 102.882 179.525C102.837 179.425 102.792 179.324 102.747 179.223L102.747 179.223C102.355 178.345 101.957 177.455 101.693 176.533C101.377 175.429 101.332 174.459 101.975 173.45C102.397 172.788 103.222 172.331 103.972 172.167C104.98 171.948 106.226 172.084 107.052 172.752C107.996 173.516 108.007 174.226 108.02 175.095C108.026 175.461 108.031 175.856 108.108 176.295C110.124 174.91 118.061 155.298 118.85 152.375C119.636 149.465 120.219 145.934 118.534 143.231C117.931 142.264 116.873 141.277 115.71 141.097C114.924 140.974 114.171 141.043 113.531 141.541C112.929 142.01 112.629 142.574 112.5 143.29C112.935 143.905 113.699 144.098 114.486 144.297C115.214 144.481 115.963 144.67 116.487 145.203C116.369 145.968 116.217 146.165 115.777 146.741L115.695 146.848C114.889 147.207 114.002 147.217 113.153 146.98C111.898 146.631 110.966 145.681 110.363 144.552C110.302 144.437 110.247 144.32 110.199 144.2C110.151 144.08 110.109 143.957 110.074 143.833C110.039 143.708 110.011 143.582 109.989 143.454C109.968 143.326 109.953 143.198 109.946 143.068C109.939 142.939 109.938 142.81 109.944 142.68C109.951 142.551 109.965 142.422 109.985 142.294C110.005 142.167 110.033 142.04 110.067 141.915C110.101 141.79 110.142 141.667 110.189 141.547C110.664 140.334 111.741 139.346 112.929 138.848C114.322 138.265 115.969 138.315 117.358 138.878C119.196 139.622 120.46 141.086 121.201 142.899C123.849 149.378 118.677 160.352 114.848 168.478C113.905 170.478 113.044 172.305 112.401 173.85ZM104.368 184.67C104.483 184.788 104.601 184.904 104.72 185.021C105.304 185.596 105.891 186.173 106.103 186.985C105.753 187.656 105.514 187.73 104.972 187.899C104.854 187.935 104.721 187.977 104.57 188.03C103.804 187.353 103.212 186.725 103.102 185.674C103.457 185.073 103.61 185.006 104.154 184.765L104.154 184.765L104.156 184.764L104.156 184.764C104.221 184.735 104.291 184.704 104.368 184.67ZM44.809 243.366C44.5431 243.15 44.2871 242.942 44.0634 242.74L44.0258 242.82C43.6751 243.566 43.4389 244.068 43.532 244.942C43.9926 245.829 44.5889 246.134 45.3918 246.545C45.467 246.584 45.5439 246.623 45.6228 246.664C45.7887 246.607 45.9286 246.57 46.05 246.537C46.4667 246.425 46.6651 246.372 46.9518 245.814C46.657 244.868 45.6798 244.074 44.809 243.366ZM80.215 213.381C80.5381 213.55 80.6851 213.764 80.8688 214.032C80.9078 214.088 80.9485 214.148 80.9929 214.209C80.7174 214.715 80.7145 214.716 80.3898 214.887C80.3358 214.916 80.2728 214.949 80.1981 214.99C78.7414 214.856 76.9475 214.161 75.9771 213.027C75.9611 212.947 75.9447 212.867 75.9283 212.787L75.9283 212.787L75.9282 212.787C75.8391 212.352 75.7486 211.911 75.7068 211.472L75.6993 211.393C75.6341 210.715 75.589 210.246 76.0137 209.688C76.831 209.967 77.9116 211.082 78.875 212.076C79.3698 212.586 79.8336 213.064 80.215 213.381ZM101.071 189.512C100.322 188.648 99.5848 187.797 99.2179 187.029C99.0432 187.069 98.8893 187.099 98.751 187.125C98.1599 187.239 97.8541 187.297 97.4187 187.954C97.3642 189.471 98.215 190.43 99.196 191.472C99.9619 192.285 100.769 192.883 101.741 193.422L102.942 193.589L103.323 193.21C103.303 192.087 102.173 190.784 101.071 189.512L101.071 189.512ZM47.2366 236.343L53.2111 242.674L52.933 242.539L53.6565 243.204C53.1936 243.679 52.6629 243.785 52.0653 243.905C51.9053 243.936 51.7405 243.969 51.5709 244.011C50.2806 243.732 48.5134 242.059 47.8468 240.959C46.7749 239.19 46.7895 238.299 47.2366 236.343ZM71.4269 214.339C70.9126 213.879 70.4623 213.476 70.1356 213.162C69.6632 214.063 69.4369 214.577 69.7733 215.615C70.604 218.181 73.478 220.33 75.6521 221.763C75.7387 221.719 75.8171 221.681 75.8886 221.645C76.3874 221.4 76.5547 221.317 76.8645 220.729C76.6734 219.028 73.5202 216.21 71.4269 214.339ZM52.2107 230.128C52.5911 230.501 53.134 230.998 53.7597 231.571C56.1245 233.737 59.6731 236.986 60.1074 238.712L59.8152 239.083L58.5371 239.142C57.9332 238.95 57.3597 238.673 56.8154 238.349C54.8533 237.179 51.9175 234.442 51.5935 232.102C51.4765 231.259 51.7432 230.848 52.166 230.197L52.2107 230.128ZM83.1964 206.565L83.1963 206.565L83.1962 206.565L83.1961 206.565L83.196 206.564C81.6687 204.998 80.1574 203.447 79.3152 202.407C79.2479 202.481 79.1857 202.547 79.1283 202.608C78.6795 203.087 78.5282 203.249 78.5571 204.065C78.6386 206.375 81.3312 209.272 83.0832 210.543C83.9175 211.148 84.8295 211.55 85.7811 211.931C85.9361 211.925 86.09 211.926 86.242 211.928C86.7854 211.933 87.3036 211.938 87.7507 211.596C87.093 210.562 85.1319 208.55 83.1965 206.565L83.1964 206.565ZM63.8597 217.275C65.1142 219.026 66.4121 220.639 67.9383 222.163C68.4086 222.633 68.9285 223.102 69.4569 223.579L69.457 223.579L69.4571 223.579C70.6181 224.627 71.8199 225.712 72.6254 226.917C72.4056 227.579 72.2649 227.645 71.7902 227.868L71.79 227.868C71.6906 227.914 71.5767 227.968 71.4443 228.035C71.0318 227.873 70.6299 227.714 70.2353 227.511C67.5393 226.128 64.2347 223.081 63.3093 220.16C62.936 218.982 63.2839 218.339 63.8227 217.344L63.8597 217.275ZM94.743 195.293C92.9635 193.333 91.2624 191.459 90.5728 190.496C90.471 190.56 90.3804 190.615 90.2989 190.665L90.2988 190.665C89.8096 190.962 89.6523 191.057 89.4145 191.726C90.0362 195.123 94.7607 199.225 97.5173 201.145C97.9956 201.476 98.4804 201.797 98.9718 202.108L99.7794 202.248L100.122 201.79C99.9221 200.998 97.2546 198.06 94.7431 195.293L94.743 195.293ZM84.227 196.1C84.4841 196.359 84.8458 196.718 85.2805 197.15C88.049 199.899 93.7823 205.591 94.3642 207.113C94.4953 207.456 94.4233 207.574 94.2923 207.789C94.2556 207.85 94.2144 207.917 94.1717 207.999L93.2885 208.234C90.0145 206.06 85.9428 202.672 84.354 198.992C83.8863 197.909 83.784 197.2 84.227 196.1ZM61.8265 227.246C60.0766 225.429 58.4033 223.692 57.7478 222.872C57.1154 224.177 56.9594 224.898 57.4404 226.285C58.3205 228.822 61.6128 232.218 64.0764 233.351C64.573 233.58 65.0976 233.75 65.6183 233.913C65.7388 233.855 65.8621 233.805 65.9836 233.754C66.4122 233.578 66.8195 233.41 67.0122 232.969C66.6712 232.275 64.1797 229.688 61.8265 227.246Z" fill="#FEFEFE"/>
        <path fill-rule="evenodd" clip-rule="evenodd" d="M76.5548 160.342C67.023 140.71 48.2621 121.549 27.3694 114.323C27.3972 114.431 27.4369 114.554 27.4789 114.683C27.6278 115.141 27.8055 115.688 27.5863 116.028C27.0768 116.819 26.2347 117.576 25.4498 118.281C25.1463 118.554 24.8513 118.819 24.5875 119.076C21.7888 121.797 18.2791 125.442 16.98 129.208C14.3077 134.158 14.2939 140.811 15.9817 146.11C16.2915 147.084 16.761 147.982 17.2802 148.857C17.7882 149.923 18.3759 150.789 19.1058 151.716C20.494 154.025 22.881 156.312 25.0054 157.947C26.9196 159.484 28.8559 160.993 30.8141 162.475C30.9104 162.58 30.9971 162.67 31.075 162.751C31.4808 163.173 31.6495 163.349 31.6909 164.11C31.0584 164.546 30.5394 164.629 29.7723 164.506C29.5602 164.57 29.3347 164.647 29.1032 164.727C28.5348 164.922 27.9298 165.129 27.3968 165.189C23.8186 167.766 20.7119 170.643 20.0303 175.263C19.4308 179.327 20.8259 182.471 22.305 185.805L22.305 185.805L22.3051 185.805L22.3051 185.805L22.3051 185.805C22.8021 186.925 23.3086 188.066 23.7521 189.271C24.0488 190.077 24.3189 190.87 24.5847 191.65L24.5848 191.65C25.5751 194.557 26.5062 197.289 28.532 199.871C28.7588 200.158 28.9937 200.438 29.2368 200.711C34.2427 202.174 72.5657 196.474 79.6079 195.227C80.0348 194.763 80.4333 194.257 80.8291 193.755L80.8293 193.754L80.8296 193.754L80.8298 193.754L80.8301 193.753C81.0103 193.525 81.1899 193.297 81.3714 193.074L81.3724 193.072C77.1552 192.53 67.4574 194.009 60.427 195.081L60.4269 195.081L60.4268 195.081L60.4267 195.081L60.4267 195.081C58.384 195.393 56.5666 195.67 55.1743 195.853C46.5925 196.958 37.9982 197.954 29.3914 198.844C27.1795 195.286 26.1198 192.875 26.2755 188.613C40.0349 192.032 54.5876 191.462 68.6409 190.75C70.1053 190.676 71.6081 190.526 73.1247 190.374L73.1248 190.374L73.1251 190.374C76.6058 190.027 80.1588 189.673 83.4848 190.21L83.4838 190.212L85.3095 188.587C84.8479 182.25 79.4116 166.226 76.5548 160.342ZM46.5651 128.268L46.6759 128.355C47.1692 128.743 47.3499 128.885 47.616 129.508C46.3362 131.481 43.1278 134.67 40.4536 137.328C39.3707 138.404 38.3753 139.393 37.6311 140.18C35.9833 139.135 34.3315 138.096 32.6799 137.058L32.6798 137.058L32.6797 137.058L32.6795 137.058L32.6795 137.058L32.6794 137.058L32.6794 137.058C28.5898 134.487 24.5007 131.916 20.4713 129.249C20.1215 129.004 20.0654 128.898 19.8785 128.546L19.8644 128.519C20.7141 125.089 26.644 119.95 29.3355 117.618L29.4404 117.527C35.3479 120.622 41.2833 124.192 46.5651 128.268ZM76.819 167.6C72.3058 155.889 63.9486 142.952 54.4199 134.668C54.039 134.326 53.6594 133.977 53.2786 133.627C52.2454 132.677 51.2034 131.718 50.1007 130.877L39.4093 142.296L62.4674 165.222C63.6595 166.408 64.8491 167.617 66.0433 168.83L66.0435 168.83C69.5112 172.353 73.0174 175.915 76.7326 179.076C77.0414 179.353 77.3493 179.632 77.6575 179.911C78.8822 181.022 80.1119 182.137 81.421 183.139C81.1518 182.145 80.8873 181.144 80.6219 180.14C79.5065 175.919 78.3759 171.641 76.819 167.6ZM76.7501 186.791L76.6924 187.108C76.6656 187.124 76.6394 187.142 76.6133 187.16C76.5624 187.194 76.5116 187.228 76.4562 187.254C75.5453 187.673 73.8631 187.676 72.3661 187.678C71.6559 187.68 70.9873 187.681 70.4625 187.726C69.3249 187.825 68.1867 187.936 67.048 188.046C64.4397 188.3 61.8287 188.555 59.2148 188.663C49.0253 189.084 33.7379 188.555 24.0835 185.733C22.8634 183.149 22.2265 181.012 21.9275 178.168C21.7274 176.576 21.8835 174.737 22.507 173.249C23.5732 170.707 25.8462 168.69 28.4125 167.73C30.2768 167.032 32.3003 166.953 34.2432 167.337C38.1116 168.101 41.9265 169.935 45.5708 171.687C46.4384 172.104 47.2964 172.517 48.1431 172.909C49.215 173.406 50.2887 173.9 51.3628 174.395L51.369 174.398L51.369 174.398C55.5051 176.304 59.6473 178.213 63.7194 180.241C65.3109 181.034 66.8899 181.85 68.4685 182.665C71.2084 184.08 73.9475 185.494 76.7501 186.791ZM25.0239 134.926C22.7272 133.491 20.4362 132.06 18.26 130.533C16.0349 135.439 16.0086 140.857 17.8462 145.909C17.9896 146.299 18.1442 146.684 18.3101 147.064C19.3422 149.254 20.7396 151.148 22.2972 152.989C22.5595 153.252 22.8209 153.516 23.0823 153.781C24.0772 154.786 25.0733 155.793 26.1255 156.736C28.4852 158.643 30.9934 160.254 33.5687 161.846C35.1607 162.236 38.2603 164.084 40.8558 165.63C42.0785 166.359 43.1893 167.021 43.978 167.432C48.4284 169.755 52.9358 171.946 57.4437 174.138C60.5694 175.658 63.6953 177.178 66.8027 178.742C68.4987 179.595 70.1627 180.515 71.8268 181.435C74.3721 182.842 76.9174 184.249 79.5771 185.418C70.7317 177.318 62.1559 168.901 53.5876 160.491C50.8278 157.782 48.0688 155.074 45.3017 152.377C43.9275 151.038 42.635 149.57 41.3408 148.101C39.4999 146.01 37.6555 143.916 35.5675 142.181C32.329 139.491 28.6692 137.204 25.0239 134.926Z" fill="#FEFEFE"/>
        <path fill-rule="evenodd" clip-rule="evenodd" d="M114.394 209.402L114.394 209.402L114.394 209.402L114.394 209.402L114.394 209.402C110.253 208.285 106.122 207.171 102.134 205.463L101.198 206.6C101.198 206.6 101.198 206.6 101.197 206.601C101.713 211.379 100.981 216.346 100.268 221.186C100.073 222.51 99.879 223.824 99.7126 225.123C98.0713 237.931 97.0493 253.056 100.382 265.683C98.6615 265.115 96.9843 264.465 95.3008 263.795C93.5358 263.08 92.0191 262.306 90.4351 261.23C90.4053 261.201 90.3749 261.172 90.3444 261.143C90.2837 261.085 90.223 261.028 90.168 260.965C88.5246 259.094 91.8173 242.849 94.6589 228.83C96.4536 219.976 98.0683 212.01 98.1457 209.114C97.8756 209.305 97.5933 209.494 97.3075 209.686L97.3074 209.686C96.4603 210.255 95.5828 210.845 94.9046 211.551C94.5911 214.022 94.0617 216.461 93.5326 218.9C93.2371 220.261 92.9418 221.622 92.684 222.989C91.1286 231.237 89.6063 239.585 88.3873 247.889C88.3219 248.335 88.2548 248.784 88.1874 249.236C87.6304 252.968 87.0457 256.885 87.1246 260.609C88.8128 262.163 90.7337 263.22 92.7285 264.317L92.7537 264.331L95.1419 265.51L100.279 267.608C106.441 269.897 112.543 271.119 118.791 268.562C121.955 267.347 124.231 265.577 125.701 262.481C125.344 261.243 125.471 259.653 125.574 258.359L125.574 258.359L125.588 258.183C125.376 257.062 125.008 255.952 124.645 254.856L124.645 254.856L124.645 254.856L124.645 254.856L124.645 254.856C124.531 254.512 124.418 254.169 124.31 253.828C124.201 253.024 123.959 252.239 123.717 251.451C123.492 250.721 123.267 249.987 123.145 249.232L123.495 248.886C124.085 249.238 124.584 249.631 125.115 250.062C126.245 251.573 127.109 253.541 127.932 255.415L127.932 255.416L127.932 255.416C128.268 256.181 128.597 256.931 128.934 257.628C131.828 263.599 135.974 270.412 141.692 274.367C135.974 270.412 131.829 263.599 128.935 257.628C128.598 256.931 128.269 256.182 127.933 255.416L127.933 255.416C127.11 253.542 126.246 251.574 125.116 250.062C124.401 247.976 123.293 245.908 122.2 243.867C121.62 242.785 121.045 241.712 120.535 240.647C119.653 238.807 118.803 236.951 117.953 235.095L117.953 235.094C116.815 232.609 115.677 230.123 114.461 227.673C113.691 226.122 112.895 224.58 112.098 223.037C110.329 219.61 108.557 216.178 107.064 212.634C111.885 218.871 117.38 224.602 122.846 230.302L122.846 230.302L122.847 230.302L122.847 230.303C123.972 231.475 125.095 232.647 126.211 233.821C136.255 244.389 147.714 256.958 155.629 269.128C155.888 269.526 156.169 269.941 156.458 270.367C157.618 272.08 158.909 273.987 159.444 275.806C160.4 275.708 161.139 275.334 161.971 274.913L161.971 274.913L161.974 274.912C162.044 274.876 162.115 274.84 162.187 274.804L162.188 274.804C158.142 267.815 153.565 261.551 148.625 255.18C153.15 252.891 157.182 249.478 161.058 246.196L161.058 246.196L161.058 246.196L161.062 246.193L161.067 246.188C161.351 245.948 161.635 245.708 161.918 245.469C166.56 251.494 171.74 259.896 174.428 266.998C174.956 266.775 175.527 266.628 176.09 266.482L176.09 266.481C176.279 266.433 176.467 266.384 176.652 266.333C175.293 261.903 172.977 257.998 170.631 254.042L170.402 253.655C161.21 238.143 149.115 225.06 133.037 216.513C129.382 214.571 125.662 212.783 121.717 211.508C119.29 210.723 116.84 210.062 114.394 209.402L114.394 209.402ZM150.395 232.489C153.685 235.324 156.581 238.791 159.388 242.151C159.787 242.629 160.185 243.104 160.581 243.576C156.598 247.422 152.04 250.525 147.366 253.457L120.134 223.541C116.4 219.212 112.453 214.995 108.483 210.882C109.822 211.22 111.168 211.52 112.513 211.82L112.513 211.82L112.513 211.82C114.82 212.334 117.126 212.848 119.394 213.551C131.077 217.174 141.51 224.199 150.395 232.489ZM103.969 212.395C105.443 215.944 107.168 219.387 108.892 222.828L108.892 222.828C109.813 224.666 110.733 226.503 111.615 228.356C115.572 236.749 119.274 245.253 122.72 253.869C122.839 254.455 123.012 255.113 123.195 255.81L123.195 255.81C123.901 258.499 124.763 261.781 123.3 263.865C122.038 265.663 119.353 266.556 117.259 267.252L117.258 267.253C117.113 267.301 116.971 267.348 116.833 267.395C112.059 268.376 107.615 267.781 102.951 266.553C99.4692 246.535 101.04 232.162 103.969 212.395Z" fill="#FEFEFE"/>
    </g>
    <defs>
        <clipPath id="clip0_929_1305">
            <rect width="180" height="300" fill="white"/>
        </clipPath>
    </defs>
</svg>
