<svg width="300" height="180" viewBox="0 0 300 180" fill="none" xmlns="http://www.w3.org/2000/svg">
    <g clip-path="url(#clip0_948_92)">
        <path d="M44.0289 19.4H53.7489V32H50.9409V21.92H46.8369V32H44.0289V19.4ZM56.2724 22.28H58.9724V26.834C58.9724 27.002 58.9664 27.17 58.9544 27.338C58.9544 27.494 58.9484 27.638 58.9364 27.77C58.9244 27.926 58.9184 28.076 58.9184 28.22H58.9904C59.0504 28.076 59.1164 27.926 59.1884 27.77C59.2484 27.638 59.3204 27.488 59.4044 27.32C59.4884 27.14 59.5784 26.96 59.6744 26.78L62.0684 22.28H64.7324V32H62.0324V27.536C62.0324 27.344 62.0324 27.158 62.0324 26.978C62.0324 26.798 62.0384 26.642 62.0504 26.51C62.0624 26.354 62.0744 26.204 62.0864 26.06H62.0144C61.9544 26.204 61.8884 26.354 61.8164 26.51C61.7564 26.642 61.6844 26.798 61.6004 26.978C61.5164 27.146 61.4264 27.32 61.3304 27.5L58.9364 32H56.2724V22.28ZM66.8896 22.28H69.4996L69.5896 23.63C69.8176 23.186 70.1596 22.808 70.6156 22.496C71.0716 22.184 71.6896 22.028 72.4696 22.028C73.0696 22.028 73.5856 22.118 74.0176 22.298C74.4496 22.478 74.8036 22.772 75.0796 23.18C75.3556 23.576 75.5596 24.092 75.6916 24.728C75.8236 25.364 75.8896 26.138 75.8896 27.05C75.8896 28.898 75.5896 30.23 74.9896 31.046C74.4016 31.85 73.4716 32.252 72.1996 32.252C71.8156 32.252 71.4796 32.204 71.1916 32.108C70.9156 32.024 70.6696 31.91 70.4536 31.766C70.2496 31.622 70.0756 31.46 69.9316 31.28C69.7996 31.1 69.6856 30.92 69.5896 30.74V35.24H66.8896V22.28ZM73.1176 27.05C73.1176 26.546 73.0816 26.126 73.0096 25.79C72.9376 25.454 72.8236 25.19 72.6676 24.998C72.5236 24.794 72.3376 24.65 72.1096 24.566C71.8936 24.482 71.6416 24.44 71.3536 24.44C70.7896 24.44 70.3516 24.614 70.0396 24.962C69.7396 25.31 69.5896 25.898 69.5896 26.726V27.554C69.5896 28.382 69.7396 28.97 70.0396 29.318C70.3516 29.666 70.7956 29.84 71.3716 29.84C71.6596 29.84 71.9116 29.798 72.1276 29.714C72.3436 29.63 72.5236 29.486 72.6676 29.282C72.8236 29.066 72.9376 28.778 73.0096 28.418C73.0816 28.058 73.1176 27.602 73.1176 27.05ZM79.7208 32.252C78.8208 32.252 78.1368 32.012 77.6688 31.532C77.2008 31.04 76.9668 30.296 76.9668 29.3C76.9668 28.784 77.0328 28.334 77.1648 27.95C77.2968 27.566 77.5128 27.248 77.8128 26.996C78.1128 26.744 78.5028 26.558 78.9828 26.438C79.4628 26.306 80.0508 26.24 80.7468 26.24H82.3668V25.754C82.3668 25.274 82.2468 24.938 82.0068 24.746C81.7668 24.542 81.3168 24.44 80.6568 24.44C80.0808 24.44 79.5288 24.512 79.0008 24.656C78.4848 24.8 78.0768 24.962 77.7768 25.142V22.55C78.1608 22.406 78.6408 22.286 79.2168 22.19C79.8048 22.082 80.4468 22.028 81.1428 22.028C81.8868 22.028 82.5048 22.094 82.9968 22.226C83.5008 22.346 83.9028 22.55 84.2028 22.838C84.5148 23.114 84.7368 23.486 84.8688 23.954C85.0008 24.41 85.0668 24.974 85.0668 25.646V32H82.6368L82.5468 30.56C82.3908 31.016 82.0788 31.412 81.6108 31.748C81.1428 32.084 80.5128 32.252 79.7208 32.252ZM80.8368 30.02C81.3048 30.02 81.6768 29.876 81.9528 29.588C82.2288 29.3 82.3668 28.874 82.3668 28.31V27.86H81.1068C80.5908 27.86 80.2308 27.95 80.0268 28.13C79.8348 28.31 79.7388 28.61 79.7388 29.03C79.7388 29.69 80.1048 30.02 80.8368 30.02ZM87.1396 22.28H90.6136L92.1616 27.05L93.7636 22.28H97.2196V32H94.6996V26.78C94.6996 26.552 94.6996 26.33 94.6996 26.114C94.7116 25.898 94.7236 25.706 94.7356 25.538C94.7476 25.334 94.7596 25.148 94.7716 24.98H94.6996C94.6516 25.148 94.6036 25.334 94.5556 25.538C94.5076 25.706 94.4476 25.898 94.3756 26.114C94.3156 26.33 94.2496 26.552 94.1776 26.78L93.0076 30.128H91.3156L90.1996 26.78C90.1276 26.552 90.0556 26.33 89.9836 26.114C89.9236 25.898 89.8696 25.706 89.8216 25.538C89.7616 25.334 89.7076 25.148 89.6596 24.98H89.5876C89.5996 25.148 89.6116 25.334 89.6236 25.538C89.6356 25.706 89.6416 25.898 89.6416 26.114C89.6536 26.33 89.6596 26.552 89.6596 26.78V32H87.1396V22.28ZM99.3739 22.28H102.074V26.834C102.074 27.002 102.068 27.17 102.056 27.338C102.056 27.494 102.05 27.638 102.038 27.77C102.026 27.926 102.02 28.076 102.02 28.22H102.092C102.152 28.076 102.218 27.926 102.29 27.77C102.35 27.638 102.422 27.488 102.506 27.32C102.59 27.14 102.68 26.96 102.776 26.78L105.17 22.28H107.834V32H105.134V27.536C105.134 27.344 105.134 27.158 105.134 26.978C105.134 26.798 105.14 26.642 105.152 26.51C105.164 26.354 105.176 26.204 105.188 26.06H105.116C105.056 26.204 104.99 26.354 104.918 26.51C104.858 26.642 104.786 26.798 104.702 26.978C104.618 27.146 104.528 27.32 104.432 27.5L102.038 32H99.3739V22.28ZM109.271 29.588H110.261C110.573 28.832 110.777 27.824 110.873 26.564C110.969 25.304 111.017 23.876 111.017 22.28H117.965V29.588H119.171V34.34H116.759V32H111.683V34.34H109.271V29.588ZM115.265 29.588V24.692H113.429C113.429 25.52 113.387 26.33 113.303 27.122C113.231 27.914 113.093 28.736 112.889 29.588H115.265ZM122.981 32.252C122.081 32.252 121.397 32.012 120.929 31.532C120.461 31.04 120.227 30.296 120.227 29.3C120.227 28.784 120.293 28.334 120.425 27.95C120.557 27.566 120.773 27.248 121.073 26.996C121.373 26.744 121.763 26.558 122.243 26.438C122.723 26.306 123.311 26.24 124.007 26.24H125.627V25.754C125.627 25.274 125.507 24.938 125.267 24.746C125.027 24.542 124.577 24.44 123.917 24.44C123.341 24.44 122.789 24.512 122.261 24.656C121.745 24.8 121.337 24.962 121.037 25.142V22.55C121.421 22.406 121.901 22.286 122.477 22.19C123.065 22.082 123.707 22.028 124.403 22.028C125.147 22.028 125.765 22.094 126.257 22.226C126.761 22.346 127.163 22.55 127.463 22.838C127.775 23.114 127.997 23.486 128.129 23.954C128.261 24.41 128.327 24.974 128.327 25.646V32H125.897L125.807 30.56C125.651 31.016 125.339 31.412 124.871 31.748C124.403 32.084 123.773 32.252 122.981 32.252ZM124.097 30.02C124.565 30.02 124.937 29.876 125.213 29.588C125.489 29.3 125.627 28.874 125.627 28.31V27.86H124.367C123.851 27.86 123.491 27.95 123.287 28.13C123.095 28.31 122.999 28.61 122.999 29.03C122.999 29.69 123.365 30.02 124.097 30.02ZM136.789 24.692H134.179V22.28H142.099V24.692H139.489V32H136.789V24.692ZM147.688 32.252C146.824 32.252 146.092 32.144 145.492 31.928C144.904 31.712 144.424 31.388 144.052 30.956C143.692 30.512 143.428 29.96 143.26 29.3C143.092 28.64 143.008 27.86 143.008 26.96C143.008 25.304 143.398 24.068 144.178 23.252C144.958 22.436 146.068 22.028 147.508 22.028C148.312 22.028 148.984 22.136 149.524 22.352C150.076 22.556 150.52 22.856 150.856 23.252C151.204 23.648 151.45 24.128 151.594 24.692C151.75 25.244 151.828 25.868 151.828 26.564V27.86H145.708C145.756 28.628 145.96 29.18 146.32 29.516C146.68 29.852 147.256 30.02 148.048 30.02C148.36 30.02 148.672 29.996 148.984 29.948C149.308 29.888 149.614 29.81 149.902 29.714C150.19 29.618 150.454 29.504 150.694 29.372C150.934 29.24 151.132 29.102 151.288 28.958V31.37C150.88 31.622 150.4 31.832 149.848 32C149.308 32.168 148.588 32.252 147.688 32.252ZM147.508 24.08C146.92 24.08 146.482 24.248 146.194 24.584C145.918 24.92 145.756 25.472 145.708 26.24H149.128C149.128 25.508 149.014 24.968 148.786 24.62C148.558 24.26 148.132 24.08 147.508 24.08ZM157.584 32.252C156.768 32.252 156.06 32.162 155.46 31.982C154.872 31.79 154.386 31.49 154.002 31.082C153.63 30.662 153.354 30.122 153.174 29.462C152.994 28.802 152.904 27.998 152.904 27.05C152.904 25.31 153.288 24.038 154.056 23.234C154.836 22.43 156.012 22.028 157.584 22.028C158.004 22.028 158.388 22.058 158.736 22.118C159.084 22.178 159.378 22.238 159.618 22.298C159.906 22.37 160.158 22.454 160.374 22.55V25.322C160.074 25.082 159.732 24.878 159.348 24.71C158.976 24.53 158.508 24.44 157.944 24.44C157.152 24.44 156.576 24.638 156.216 25.034C155.856 25.418 155.676 26.09 155.676 27.05C155.676 28.082 155.868 28.808 156.252 29.228C156.636 29.636 157.26 29.84 158.124 29.84C158.58 29.84 159.024 29.762 159.456 29.606C159.9 29.438 160.236 29.24 160.464 29.012V31.604C160.236 31.724 159.972 31.832 159.672 31.928C159.42 32.012 159.114 32.084 158.754 32.144C158.394 32.216 158.004 32.252 157.584 32.252ZM163.983 24.692H161.373V22.28H169.293V24.692H166.683V32H163.983V24.692ZM170.741 22.28H173.441V26.834C173.441 27.002 173.435 27.17 173.423 27.338C173.423 27.494 173.417 27.638 173.405 27.77C173.393 27.926 173.387 28.076 173.387 28.22H173.459C173.519 28.076 173.585 27.926 173.657 27.77C173.717 27.638 173.789 27.488 173.873 27.32C173.957 27.14 174.047 26.96 174.143 26.78L176.537 22.28H179.201V32H176.501V27.536C176.501 27.344 176.501 27.158 176.501 26.978C176.501 26.798 176.507 26.642 176.519 26.51C176.531 26.354 176.543 26.204 176.555 26.06H176.483C176.423 26.204 176.357 26.354 176.285 26.51C176.225 26.642 176.153 26.798 176.069 26.978C175.985 27.146 175.895 27.32 175.799 27.5L173.405 32H170.741V22.28ZM181.358 22.28H183.968L184.058 23.63C184.286 23.186 184.628 22.808 185.084 22.496C185.54 22.184 186.158 22.028 186.938 22.028C187.538 22.028 188.054 22.118 188.486 22.298C188.918 22.478 189.272 22.772 189.548 23.18C189.824 23.576 190.028 24.092 190.16 24.728C190.292 25.364 190.358 26.138 190.358 27.05C190.358 28.898 190.058 30.23 189.458 31.046C188.87 31.85 187.94 32.252 186.668 32.252C186.284 32.252 185.948 32.204 185.66 32.108C185.384 32.024 185.138 31.91 184.922 31.766C184.718 31.622 184.544 31.46 184.4 31.28C184.268 31.1 184.154 30.92 184.058 30.74V35.24H181.358V22.28ZM187.586 27.05C187.586 26.546 187.55 26.126 187.478 25.79C187.406 25.454 187.292 25.19 187.136 24.998C186.992 24.794 186.806 24.65 186.578 24.566C186.362 24.482 186.11 24.44 185.822 24.44C185.258 24.44 184.82 24.614 184.508 24.962C184.208 25.31 184.058 25.898 184.058 26.726V27.554C184.058 28.382 184.208 28.97 184.508 29.318C184.82 29.666 185.264 29.84 185.84 29.84C186.128 29.84 186.38 29.798 186.596 29.714C186.812 29.63 186.992 29.486 187.136 29.282C187.292 29.066 187.406 28.778 187.478 28.418C187.55 28.058 187.586 27.602 187.586 27.05ZM196.026 32.252C194.49 32.252 193.338 31.85 192.57 31.046C191.814 30.23 191.436 28.928 191.436 27.14C191.436 25.388 191.826 24.098 192.606 23.27C193.386 22.442 194.526 22.028 196.026 22.028C196.818 22.028 197.502 22.124 198.078 22.316C198.654 22.496 199.128 22.796 199.5 23.216C199.884 23.624 200.166 24.152 200.346 24.8C200.526 25.448 200.616 26.228 200.616 27.14C200.616 28.928 200.232 30.23 199.464 31.046C198.696 31.85 197.55 32.252 196.026 32.252ZM196.026 29.84C196.326 29.84 196.584 29.798 196.8 29.714C197.028 29.618 197.22 29.468 197.376 29.264C197.532 29.06 197.646 28.784 197.718 28.436C197.802 28.088 197.844 27.656 197.844 27.14C197.844 26.624 197.808 26.192 197.736 25.844C197.664 25.496 197.55 25.22 197.394 25.016C197.238 24.812 197.046 24.668 196.818 24.584C196.59 24.488 196.326 24.44 196.026 24.44C195.726 24.44 195.462 24.488 195.234 24.584C195.006 24.668 194.814 24.818 194.658 25.034C194.514 25.238 194.4 25.514 194.316 25.862C194.244 26.21 194.208 26.636 194.208 27.14C194.208 27.656 194.244 28.088 194.316 28.436C194.4 28.784 194.514 29.06 194.658 29.264C194.814 29.468 195.006 29.618 195.234 29.714C195.462 29.798 195.726 29.84 196.026 29.84ZM206.021 32.126C205.517 32.126 205.037 32.12 204.581 32.108C204.137 32.108 203.741 32.096 203.393 32.072C202.985 32.048 202.601 32.024 202.241 32V22.226C202.565 22.214 202.925 22.202 203.321 22.19C203.657 22.178 204.053 22.172 204.509 22.172C204.977 22.16 205.481 22.154 206.021 22.154C206.789 22.154 207.425 22.214 207.929 22.334C208.433 22.442 208.835 22.61 209.135 22.838C209.447 23.066 209.663 23.354 209.783 23.702C209.915 24.038 209.981 24.44 209.981 24.908C209.981 25.4 209.855 25.808 209.603 26.132C209.363 26.444 209.033 26.69 208.613 26.87C209.153 26.966 209.573 27.206 209.873 27.59C210.185 27.974 210.341 28.472 210.341 29.084C210.341 29.588 210.269 30.032 210.125 30.416C209.981 30.788 209.741 31.1 209.405 31.352C209.069 31.604 208.625 31.796 208.073 31.928C207.521 32.06 206.837 32.126 206.021 32.126ZM207.551 28.904C207.551 28.508 207.455 28.238 207.263 28.094C207.083 27.938 206.699 27.86 206.111 27.86H204.941V29.894C204.941 29.906 204.983 29.918 205.067 29.93C205.151 29.93 205.253 29.936 205.373 29.948C205.493 29.948 205.619 29.954 205.751 29.966C205.883 29.966 206.003 29.966 206.111 29.966C206.699 29.966 207.083 29.888 207.263 29.732C207.455 29.576 207.551 29.3 207.551 28.904ZM207.353 25.268C207.353 24.932 207.263 24.692 207.083 24.548C206.903 24.392 206.549 24.314 206.021 24.314C205.901 24.314 205.781 24.32 205.661 24.332C205.541 24.332 205.427 24.338 205.319 24.35C205.187 24.362 205.061 24.368 204.941 24.368V26.24H206.111C206.603 26.24 206.933 26.168 207.101 26.024C207.269 25.868 207.353 25.616 207.353 25.268ZM214.176 32.252C213.276 32.252 212.592 32.012 212.124 31.532C211.656 31.04 211.422 30.296 211.422 29.3C211.422 28.784 211.488 28.334 211.62 27.95C211.752 27.566 211.968 27.248 212.268 26.996C212.568 26.744 212.958 26.558 213.438 26.438C213.918 26.306 214.506 26.24 215.202 26.24H216.822V25.754C216.822 25.274 216.702 24.938 216.462 24.746C216.222 24.542 215.772 24.44 215.112 24.44C214.536 24.44 213.984 24.512 213.456 24.656C212.94 24.8 212.532 24.962 212.232 25.142V22.55C212.616 22.406 213.096 22.286 213.672 22.19C214.26 22.082 214.902 22.028 215.598 22.028C216.342 22.028 216.96 22.094 217.452 22.226C217.956 22.346 218.358 22.55 218.658 22.838C218.97 23.114 219.192 23.486 219.324 23.954C219.456 24.41 219.522 24.974 219.522 25.646V32H217.092L217.002 30.56C216.846 31.016 216.534 31.412 216.066 31.748C215.598 32.084 214.968 32.252 214.176 32.252ZM215.292 30.02C215.76 30.02 216.132 29.876 216.408 29.588C216.684 29.3 216.822 28.874 216.822 28.31V27.86H215.562C215.046 27.86 214.686 27.95 214.482 28.13C214.29 28.31 214.194 28.61 214.194 29.03C214.194 29.69 214.56 30.02 215.292 30.02ZM221.595 22.28H224.295V25.844H227.175V22.28H229.875V32H227.175V28.256H224.295V32H221.595V22.28ZM232.036 22.28H234.736V26.834C234.736 27.002 234.73 27.17 234.718 27.338C234.718 27.494 234.712 27.638 234.7 27.77C234.688 27.926 234.682 28.076 234.682 28.22H234.754C234.814 28.076 234.88 27.926 234.952 27.77C235.012 27.638 235.084 27.488 235.168 27.32C235.252 27.14 235.342 26.96 235.438 26.78L237.832 22.28H240.496V32H237.796V27.536C237.796 27.344 237.796 27.158 237.796 26.978C237.796 26.798 237.802 26.642 237.814 26.51C237.826 26.354 237.838 26.204 237.85 26.06H237.778C237.718 26.204 237.652 26.354 237.58 26.51C237.52 26.642 237.448 26.798 237.364 26.978C237.28 27.146 237.19 27.32 237.094 27.5L234.7 32H232.036V22.28ZM243.895 28.724C243.391 28.46 243.025 28.082 242.797 27.59C242.581 27.098 242.473 26.486 242.473 25.754C242.473 25.106 242.551 24.554 242.707 24.098C242.875 23.642 243.139 23.27 243.499 22.982C243.871 22.694 244.357 22.484 244.957 22.352C245.557 22.22 246.289 22.154 247.153 22.154C247.513 22.154 247.885 22.16 248.269 22.172C248.653 22.184 249.001 22.202 249.313 22.226C249.685 22.25 250.045 22.268 250.393 22.28V32H247.693V29.174H246.397L245.065 32H242.113L243.895 28.724ZM245.245 25.754C245.245 26.186 245.341 26.492 245.533 26.672C245.725 26.852 246.085 26.942 246.613 26.942H247.693V24.62C247.549 24.62 247.411 24.614 247.279 24.602C247.159 24.59 247.039 24.584 246.919 24.584C246.811 24.572 246.709 24.566 246.613 24.566C246.085 24.566 245.725 24.656 245.533 24.836C245.341 25.016 245.245 25.322 245.245 25.754ZM254.44 25.934C253.3 25.934 252.73 25.364 252.73 24.224C252.73 23.084 253.3 22.514 254.44 22.514C255.58 22.514 256.15 23.084 256.15 24.224C256.15 25.364 255.58 25.934 254.44 25.934ZM254.44 32.126C253.3 32.126 252.73 31.556 252.73 30.416C252.73 29.276 253.3 28.706 254.44 28.706C255.58 28.706 256.15 29.276 256.15 30.416C256.15 31.556 255.58 32.126 254.44 32.126Z" fill="#FEFEFE"/>
        <path d="M148.03 83.252C147.202 83.252 146.488 83.156 145.888 82.964C145.288 82.772 144.79 82.466 144.394 82.046C144.01 81.626 143.722 81.08 143.53 80.408C143.35 79.736 143.26 78.92 143.26 77.96V70.4H146.068V77.69C146.068 78.29 146.104 78.782 146.176 79.166C146.248 79.538 146.362 79.832 146.518 80.048C146.674 80.264 146.878 80.414 147.13 80.498C147.382 80.582 147.682 80.624 148.03 80.624C148.39 80.624 148.696 80.588 148.948 80.516C149.2 80.432 149.398 80.282 149.542 80.066C149.698 79.85 149.812 79.55 149.884 79.166C149.956 78.782 149.992 78.29 149.992 77.69V70.4H152.8V77.96C152.8 78.908 152.704 79.718 152.512 80.39C152.32 81.062 152.026 81.608 151.63 82.028C151.246 82.448 150.754 82.76 150.154 82.964C149.554 83.156 148.846 83.252 148.03 83.252ZM155.625 70.4H158.433V83H155.625V70.4ZM109.787 91.4H117.887V93.92H112.595V96.44H117.167V98.78H112.595V101.48H117.887V104H109.787V91.4ZM119.42 102.146C120.056 101.57 120.71 101.024 121.382 100.508C122.054 99.98 122.666 99.464 123.218 98.96C123.782 98.444 124.238 97.928 124.586 97.412C124.946 96.884 125.126 96.332 125.126 95.756C125.126 94.436 124.424 93.776 123.02 93.776C122.348 93.776 121.712 93.896 121.112 94.136C120.524 94.364 120.02 94.676 119.6 95.072V91.976C120.056 91.736 120.626 91.538 121.31 91.382C121.994 91.226 122.738 91.148 123.542 91.148C124.406 91.148 125.126 91.25 125.702 91.454C126.278 91.646 126.74 91.916 127.088 92.264C127.436 92.6 127.682 93.002 127.826 93.47C127.97 93.926 128.042 94.424 128.042 94.964C128.042 95.636 127.922 96.26 127.682 96.836C127.454 97.4 127.136 97.946 126.728 98.474C126.32 98.99 125.828 99.494 125.252 99.986C124.688 100.478 124.076 100.976 123.416 101.48H128.06V104H119.42V102.146ZM130.406 91.4H138.506V93.92H133.214V96.44H137.786V98.78H133.214V101.48H138.506V104H130.406V91.4ZM147.635 93.92H144.269V91.4H153.809V93.92H150.443V104H147.635V93.92ZM158.532 104.252C157.668 104.252 156.936 104.144 156.336 103.928C155.748 103.712 155.268 103.388 154.896 102.956C154.536 102.512 154.272 101.96 154.104 101.3C153.936 100.64 153.852 99.86 153.852 98.96C153.852 97.304 154.242 96.068 155.022 95.252C155.802 94.436 156.912 94.028 158.352 94.028C159.156 94.028 159.828 94.136 160.368 94.352C160.92 94.556 161.364 94.856 161.7 95.252C162.048 95.648 162.294 96.128 162.438 96.692C162.594 97.244 162.672 97.868 162.672 98.564V99.86H156.552C156.6 100.628 156.804 101.18 157.164 101.516C157.524 101.852 158.1 102.02 158.892 102.02C159.204 102.02 159.516 101.996 159.828 101.948C160.152 101.888 160.458 101.81 160.746 101.714C161.034 101.618 161.298 101.504 161.538 101.372C161.778 101.24 161.976 101.102 162.132 100.958V103.37C161.724 103.622 161.244 103.832 160.692 104C160.152 104.168 159.432 104.252 158.532 104.252ZM158.352 96.08C157.764 96.08 157.326 96.248 157.038 96.584C156.762 96.92 156.6 97.472 156.552 98.24H159.972C159.972 97.508 159.858 96.968 159.63 96.62C159.402 96.26 158.976 96.08 158.352 96.08ZM168.428 104.252C167.612 104.252 166.904 104.162 166.304 103.982C165.716 103.79 165.23 103.49 164.846 103.082C164.474 102.662 164.198 102.122 164.018 101.462C163.838 100.802 163.748 99.998 163.748 99.05C163.748 97.31 164.132 96.038 164.9 95.234C165.68 94.43 166.856 94.028 168.428 94.028C168.848 94.028 169.232 94.058 169.58 94.118C169.928 94.178 170.222 94.238 170.462 94.298C170.75 94.37 171.002 94.454 171.218 94.55V97.322C170.918 97.082 170.576 96.878 170.192 96.71C169.82 96.53 169.352 96.44 168.788 96.44C167.996 96.44 167.42 96.638 167.06 97.034C166.7 97.418 166.52 98.09 166.52 99.05C166.52 100.082 166.712 100.808 167.096 101.228C167.48 101.636 168.104 101.84 168.968 101.84C169.424 101.84 169.868 101.762 170.3 101.606C170.744 101.438 171.08 101.24 171.308 101.012V103.604C171.08 103.724 170.816 103.832 170.516 103.928C170.264 104.012 169.958 104.084 169.598 104.144C169.238 104.216 168.848 104.252 168.428 104.252ZM174.826 96.692H172.216V94.28H180.136V96.692H177.526V104H174.826V96.692ZM184.645 104.126C184.285 104.126 183.919 104.12 183.547 104.108C183.187 104.108 182.863 104.096 182.575 104.072C182.227 104.048 181.897 104.024 181.585 104V94.28H184.285V96.98C184.393 96.98 184.507 96.974 184.627 96.962C184.723 96.95 184.837 96.944 184.969 96.944C185.101 96.932 185.233 96.926 185.365 96.926C186.649 96.926 187.567 97.202 188.119 97.754C188.683 98.306 188.965 99.23 188.965 100.526C188.965 101.15 188.887 101.69 188.731 102.146C188.587 102.59 188.341 102.962 187.993 103.262C187.657 103.55 187.213 103.766 186.661 103.91C186.121 104.054 185.449 104.126 184.645 104.126ZM186.193 100.526C186.193 100.094 186.103 99.788 185.923 99.608C185.743 99.428 185.437 99.338 185.005 99.338C184.909 99.338 184.813 99.344 184.717 99.356C184.633 99.356 184.561 99.362 184.501 99.374C184.417 99.386 184.345 99.392 184.285 99.392V101.66C184.345 101.672 184.417 101.684 184.501 101.696C184.561 101.708 184.633 101.714 184.717 101.714C184.813 101.714 184.909 101.714 185.005 101.714C185.437 101.714 185.743 101.624 185.923 101.444C186.103 101.264 186.193 100.958 186.193 100.526ZM189.865 94.28H192.565V104H189.865V94.28ZM79.5347 112.4H82.3427V118.88C82.3427 119.156 82.3367 119.426 82.3247 119.69C82.3247 119.942 82.3187 120.17 82.3067 120.374C82.2947 120.614 82.2887 120.836 82.2887 121.04H82.3247C82.4087 120.836 82.5047 120.614 82.6127 120.374C82.7087 120.17 82.8167 119.942 82.9367 119.69C83.0567 119.426 83.1827 119.156 83.3147 118.88L86.7707 112.4H89.9747V125H87.1667V118.52C87.1667 118.244 87.1667 117.98 87.1667 117.728C87.1667 117.476 87.1727 117.248 87.1847 117.044C87.1967 116.816 87.2087 116.588 87.2207 116.36H87.1847C87.1007 116.588 87.0047 116.816 86.8967 117.044C86.8007 117.248 86.6927 117.476 86.5727 117.728C86.4527 117.98 86.3267 118.244 86.1947 118.52L82.7387 125H79.5347V112.4ZM92.4989 115.28H95.1989V118.844H98.0789V115.28H100.779V125H98.0789V121.256H95.1989V125H92.4989V115.28ZM104.83 117.692H102.22V115.28H110.14V117.692H107.53V125H104.83V117.692ZM115.729 125.252C114.865 125.252 114.133 125.144 113.533 124.928C112.945 124.712 112.465 124.388 112.093 123.956C111.733 123.512 111.469 122.96 111.301 122.3C111.133 121.64 111.049 120.86 111.049 119.96C111.049 118.304 111.439 117.068 112.219 116.252C112.999 115.436 114.109 115.028 115.549 115.028C116.353 115.028 117.025 115.136 117.565 115.352C118.117 115.556 118.561 115.856 118.897 116.252C119.245 116.648 119.491 117.128 119.635 117.692C119.791 118.244 119.869 118.868 119.869 119.564V120.86H113.749C113.797 121.628 114.001 122.18 114.361 122.516C114.721 122.852 115.297 123.02 116.089 123.02C116.401 123.02 116.713 122.996 117.025 122.948C117.349 122.888 117.655 122.81 117.943 122.714C118.231 122.618 118.495 122.504 118.735 122.372C118.975 122.24 119.173 122.102 119.329 121.958V124.37C118.921 124.622 118.441 124.832 117.889 125C117.349 125.168 116.629 125.252 115.729 125.252ZM115.549 117.08C114.961 117.08 114.523 117.248 114.235 117.584C113.959 117.92 113.797 118.472 113.749 119.24H117.169C117.169 118.508 117.055 117.968 116.827 117.62C116.599 117.26 116.173 117.08 115.549 117.08ZM121.485 115.28H127.875V117.692H124.185V125H121.485V115.28ZM129.308 115.28H131.918L132.008 116.63C132.236 116.186 132.578 115.808 133.034 115.496C133.49 115.184 134.108 115.028 134.888 115.028C135.488 115.028 136.004 115.118 136.436 115.298C136.868 115.478 137.222 115.772 137.498 116.18C137.774 116.576 137.978 117.092 138.11 117.728C138.242 118.364 138.308 119.138 138.308 120.05C138.308 121.898 138.008 123.23 137.408 124.046C136.82 124.85 135.89 125.252 134.618 125.252C134.234 125.252 133.898 125.204 133.61 125.108C133.334 125.024 133.088 124.91 132.872 124.766C132.668 124.622 132.494 124.46 132.35 124.28C132.218 124.1 132.104 123.92 132.008 123.74V128.24H129.308V115.28ZM135.536 120.05C135.536 119.546 135.5 119.126 135.428 118.79C135.356 118.454 135.242 118.19 135.086 117.998C134.942 117.794 134.756 117.65 134.528 117.566C134.312 117.482 134.06 117.44 133.772 117.44C133.208 117.44 132.77 117.614 132.458 117.962C132.158 118.31 132.008 118.898 132.008 119.726V120.554C132.008 121.382 132.158 121.97 132.458 122.318C132.77 122.666 133.214 122.84 133.79 122.84C134.078 122.84 134.33 122.798 134.546 122.714C134.762 122.63 134.942 122.486 135.086 122.282C135.242 122.066 135.356 121.778 135.428 121.418C135.5 121.058 135.536 120.602 135.536 120.05ZM142.139 125.252C141.239 125.252 140.555 125.012 140.087 124.532C139.619 124.04 139.385 123.296 139.385 122.3C139.385 121.784 139.451 121.334 139.583 120.95C139.715 120.566 139.931 120.248 140.231 119.996C140.531 119.744 140.921 119.558 141.401 119.438C141.881 119.306 142.469 119.24 143.165 119.24H144.785V118.754C144.785 118.274 144.665 117.938 144.425 117.746C144.185 117.542 143.735 117.44 143.075 117.44C142.499 117.44 141.947 117.512 141.419 117.656C140.903 117.8 140.495 117.962 140.195 118.142V115.55C140.579 115.406 141.059 115.286 141.635 115.19C142.223 115.082 142.865 115.028 143.561 115.028C144.305 115.028 144.923 115.094 145.415 115.226C145.919 115.346 146.321 115.55 146.621 115.838C146.933 116.114 147.155 116.486 147.287 116.954C147.419 117.41 147.485 117.974 147.485 118.646V125H145.055L144.965 123.56C144.809 124.016 144.497 124.412 144.029 124.748C143.561 125.084 142.931 125.252 142.139 125.252ZM143.255 123.02C143.723 123.02 144.095 122.876 144.371 122.588C144.647 122.3 144.785 121.874 144.785 121.31V120.86H143.525C143.009 120.86 142.649 120.95 142.445 121.13C142.253 121.31 142.157 121.61 142.157 122.03C142.157 122.69 142.523 123.02 143.255 123.02ZM156.236 125H149.558V115.28H152.258V122.606H154.778V115.28H157.478V122.606H158.648V127.34H156.236V125ZM160.175 115.28H162.875V119.834C162.875 120.002 162.869 120.17 162.857 120.338C162.857 120.494 162.851 120.638 162.839 120.77C162.827 120.926 162.821 121.076 162.821 121.22H162.893C162.953 121.076 163.019 120.926 163.091 120.77C163.151 120.638 163.223 120.488 163.307 120.32C163.391 120.14 163.481 119.96 163.577 119.78L165.971 115.28H168.635V125H165.935V120.536C165.935 120.344 165.935 120.158 165.935 119.978C165.935 119.798 165.941 119.642 165.953 119.51C165.965 119.354 165.977 119.204 165.989 119.06H165.917C165.857 119.204 165.791 119.354 165.719 119.51C165.659 119.642 165.587 119.798 165.503 119.978C165.419 120.146 165.329 120.32 165.233 120.5L162.839 125H160.175V115.28ZM174.842 125.252C173.306 125.252 172.154 124.85 171.386 124.046C170.63 123.23 170.252 121.928 170.252 120.14C170.252 118.388 170.642 117.098 171.422 116.27C172.202 115.442 173.342 115.028 174.842 115.028C175.634 115.028 176.318 115.124 176.894 115.316C177.47 115.496 177.944 115.796 178.316 116.216C178.7 116.624 178.982 117.152 179.162 117.8C179.342 118.448 179.432 119.228 179.432 120.14C179.432 121.928 179.048 123.23 178.28 124.046C177.512 124.85 176.366 125.252 174.842 125.252ZM174.842 122.84C175.142 122.84 175.4 122.798 175.616 122.714C175.844 122.618 176.036 122.468 176.192 122.264C176.348 122.06 176.462 121.784 176.534 121.436C176.618 121.088 176.66 120.656 176.66 120.14C176.66 119.624 176.624 119.192 176.552 118.844C176.48 118.496 176.366 118.22 176.21 118.016C176.054 117.812 175.862 117.668 175.634 117.584C175.406 117.488 175.142 117.44 174.842 117.44C174.542 117.44 174.278 117.488 174.05 117.584C173.822 117.668 173.63 117.818 173.474 118.034C173.33 118.238 173.216 118.514 173.132 118.862C173.06 119.21 173.024 119.636 173.024 120.14C173.024 120.656 173.06 121.088 173.132 121.436C173.216 121.784 173.33 122.06 173.474 122.264C173.63 122.468 173.822 122.618 174.05 122.714C174.278 122.798 174.542 122.84 174.842 122.84ZM181.058 115.28H183.758V118.844H186.638V115.28H189.338V125H186.638V121.256H183.758V125H181.058V115.28ZM191.499 115.28H194.199V118.844H197.079V115.28H199.779V125H197.079V121.256H194.199V125H191.499V115.28ZM205 125.126C204.64 125.126 204.274 125.12 203.902 125.108C203.542 125.108 203.218 125.096 202.93 125.072C202.582 125.048 202.252 125.024 201.94 125V115.28H204.64V117.98C204.748 117.98 204.862 117.974 204.982 117.962C205.078 117.95 205.192 117.944 205.324 117.944C205.456 117.932 205.588 117.926 205.72 117.926C207.004 117.926 207.922 118.202 208.474 118.754C209.038 119.306 209.32 120.23 209.32 121.526C209.32 122.15 209.242 122.69 209.086 123.146C208.942 123.59 208.696 123.962 208.348 124.262C208.012 124.55 207.568 124.766 207.016 124.91C206.476 125.054 205.804 125.126 205 125.126ZM206.548 121.526C206.548 121.094 206.458 120.788 206.278 120.608C206.098 120.428 205.792 120.338 205.36 120.338C205.264 120.338 205.168 120.344 205.072 120.356C204.988 120.356 204.916 120.362 204.856 120.374C204.772 120.386 204.7 120.392 204.64 120.392V122.66C204.7 122.672 204.772 122.684 204.856 122.696C204.916 122.708 204.988 122.714 205.072 122.714C205.168 122.714 205.264 122.714 205.36 122.714C205.792 122.714 206.098 122.624 206.278 122.444C206.458 122.264 206.548 121.958 206.548 121.526ZM210.22 115.28H212.92V125H210.22V115.28ZM219.229 125.252C218.365 125.252 217.633 125.144 217.033 124.928C216.445 124.712 215.965 124.388 215.593 123.956C215.233 123.512 214.969 122.96 214.801 122.3C214.633 121.64 214.549 120.86 214.549 119.96C214.549 118.304 214.939 117.068 215.719 116.252C216.499 115.436 217.609 115.028 219.049 115.028C219.853 115.028 220.525 115.136 221.065 115.352C221.617 115.556 222.061 115.856 222.397 116.252C222.745 116.648 222.991 117.128 223.135 117.692C223.291 118.244 223.369 118.868 223.369 119.564V120.86H217.249C217.297 121.628 217.501 122.18 217.861 122.516C218.221 122.852 218.797 123.02 219.589 123.02C219.901 123.02 220.213 122.996 220.525 122.948C220.849 122.888 221.155 122.81 221.443 122.714C221.731 122.618 221.995 122.504 222.235 122.372C222.475 122.24 222.673 122.102 222.829 121.958V124.37C222.421 124.622 221.941 124.832 221.389 125C220.849 125.168 220.129 125.252 219.229 125.252ZM219.049 117.08C218.461 117.08 218.023 117.248 217.735 117.584C217.459 117.92 217.297 118.472 217.249 119.24H220.669C220.669 118.508 220.555 117.968 220.327 117.62C220.099 117.26 219.673 117.08 219.049 117.08ZM104.322 146.252C103.494 146.252 102.78 146.156 102.18 145.964C101.58 145.772 101.082 145.466 100.686 145.046C100.302 144.626 100.014 144.08 99.822 143.408C99.642 142.736 99.552 141.92 99.552 140.96V133.4H102.36V140.69C102.36 141.29 102.396 141.782 102.468 142.166C102.54 142.538 102.654 142.832 102.81 143.048C102.966 143.264 103.17 143.414 103.422 143.498C103.674 143.582 103.974 143.624 104.322 143.624C104.682 143.624 104.988 143.588 105.24 143.516C105.492 143.432 105.69 143.282 105.834 143.066C105.99 142.85 106.104 142.55 106.176 142.166C106.248 141.782 106.284 141.29 106.284 140.69V133.4H109.092V140.96C109.092 141.908 108.996 142.718 108.804 143.39C108.612 144.062 108.318 144.608 107.922 145.028C107.538 145.448 107.046 145.76 106.446 145.964C105.846 146.156 105.138 146.252 104.322 146.252ZM111.791 133.4H115.175L118.487 139.7C118.631 139.976 118.757 140.246 118.865 140.51C118.985 140.762 119.093 140.99 119.189 141.194C119.285 141.434 119.375 141.656 119.459 141.86H119.495C119.483 141.656 119.471 141.434 119.459 141.194C119.447 140.99 119.435 140.762 119.423 140.51C119.423 140.246 119.423 139.976 119.423 139.7V133.4H122.231V146H118.847L115.535 139.7C115.391 139.424 115.259 139.16 115.139 138.908C115.019 138.656 114.917 138.428 114.833 138.224C114.725 137.996 114.635 137.768 114.563 137.54H114.527C114.539 137.768 114.551 137.996 114.563 138.224C114.575 138.428 114.581 138.656 114.581 138.908C114.593 139.16 114.599 139.424 114.599 139.7V146H111.791V133.4ZM125.241 133.4H128.049V146H125.241V133.4ZM133.432 135.92H130.066V133.4H139.606V135.92H136.24V146H133.432V135.92ZM140.178 139.61H146.118V141.95H140.178V139.61ZM150.571 135.92H147.205V133.4H156.745V135.92H153.379V146H150.571V135.92ZM158.636 133.4H166.736V135.92H161.444V138.44H166.016V140.78H161.444V143.48H166.736V146H158.636V133.4ZM174.12 146.252C173.112 146.252 172.236 146.132 171.492 145.892C170.76 145.652 170.154 145.268 169.674 144.74C169.194 144.212 168.84 143.528 168.612 142.688C168.384 141.848 168.27 140.822 168.27 139.61C168.27 138.47 168.39 137.492 168.63 136.676C168.87 135.86 169.23 135.194 169.71 134.678C170.19 134.15 170.796 133.766 171.528 133.526C172.26 133.274 173.124 133.148 174.12 133.148C174.54 133.148 174.942 133.184 175.326 133.256C175.71 133.316 176.046 133.388 176.334 133.472C176.67 133.568 176.982 133.67 177.27 133.778V136.586C176.922 136.37 176.502 136.184 176.01 136.028C175.53 135.86 174.93 135.776 174.21 135.776C173.694 135.776 173.244 135.842 172.86 135.974C172.488 136.106 172.176 136.322 171.924 136.622C171.672 136.922 171.486 137.318 171.366 137.81C171.246 138.29 171.186 138.89 171.186 139.61C171.186 140.366 171.246 141.002 171.366 141.518C171.486 142.034 171.672 142.448 171.924 142.76C172.176 143.072 172.488 143.294 172.86 143.426C173.244 143.558 173.694 143.624 174.21 143.624C174.93 143.624 175.548 143.528 176.064 143.336C176.58 143.144 176.982 142.94 177.27 142.724V145.532C177.018 145.664 176.73 145.784 176.406 145.892C176.13 145.988 175.794 146.072 175.398 146.144C175.014 146.216 174.588 146.252 174.12 146.252ZM181.79 135.92H178.424V133.4H187.964V135.92H184.598V146H181.79V135.92ZM193.545 146.126C193.161 146.126 192.753 146.114 192.321 146.09C191.901 146.066 191.505 146.042 191.133 146.018C190.701 145.982 190.275 145.946 189.855 145.91V133.4H192.663V137.216C192.819 137.204 192.981 137.192 193.149 137.18C193.293 137.168 193.455 137.156 193.635 137.144C193.815 137.132 193.995 137.126 194.175 137.126C195.639 137.126 196.725 137.48 197.433 138.188C198.141 138.896 198.495 139.982 198.495 141.446C198.495 142.274 198.405 142.988 198.225 143.588C198.045 144.176 197.757 144.662 197.361 145.046C196.977 145.418 196.467 145.694 195.831 145.874C195.207 146.042 194.445 146.126 193.545 146.126ZM195.579 141.626C195.579 140.942 195.435 140.462 195.147 140.186C194.859 139.898 194.355 139.754 193.635 139.754C193.503 139.754 193.377 139.76 193.257 139.772C193.149 139.772 193.047 139.778 192.951 139.79C192.843 139.802 192.747 139.808 192.663 139.808V143.426C192.747 143.438 192.843 143.45 192.951 143.462C193.047 143.474 193.149 143.486 193.257 143.498C193.377 143.498 193.503 143.498 193.635 143.498C194.355 143.498 194.859 143.36 195.147 143.084C195.435 142.796 195.579 142.31 195.579 141.626ZM199.467 133.4H202.275V146H199.467V133.4Z" fill="#FEFEFE"/>
        <path d="M15.4673 154.75L149.5 50.5334L283.533 154.75H15.4673Z" stroke="#FEFEFE" stroke-width="4"/>
    </g>
    <rect x="1.5" y="1.5" width="297" height="177" stroke="#FEFEFE" stroke-width="3" stroke-linejoin="round" stroke-dasharray="6 6"/>
    <defs>
        <clipPath id="clip0_948_92">
            <rect width="300" height="180" fill="white"/>
        </clipPath>
    </defs>
</svg>
