<svg width="300" height="180" viewBox="0 0 300 180" fill="none" xmlns="http://www.w3.org/2000/svg">
    <rect x="1.5" y="1.5" width="297" height="177" stroke="#FEFEFE" stroke-width="3" stroke-dasharray="6 6"/>
    <path d="M16.576 31.44H15.776V36H13.28V24.8H15.776V29.2H16.576L19.04 24.8H21.92L18.704 30.272L22.24 36H19.264L16.576 31.44ZM25.3499 36.224C24.5499 36.224 23.9419 36.0107 23.5259 35.584C23.1099 35.1467 22.9019 34.4853 22.9019 33.6C22.9019 33.1413 22.9605 32.7413 23.0779 32.4C23.1952 32.0587 23.3872 31.776 23.6539 31.552C23.9205 31.328 24.2672 31.1627 24.6939 31.056C25.1205 30.9387 25.6432 30.88 26.2619 30.88H27.7019V30.448C27.7019 30.0213 27.5952 29.7227 27.3819 29.552C27.1685 29.3707 26.7685 29.28 26.1819 29.28C25.6699 29.28 25.1792 29.344 24.7099 29.472C24.2512 29.6 23.8885 29.744 23.6219 29.904V27.6C23.9632 27.472 24.3899 27.3653 24.9019 27.28C25.4245 27.184 25.9952 27.136 26.6139 27.136C27.2752 27.136 27.8245 27.1947 28.2619 27.312C28.7099 27.4187 29.0672 27.6 29.3339 27.856C29.6112 28.1013 29.8085 28.432 29.9259 28.848C30.0432 29.2533 30.1019 29.7547 30.1019 30.352V36H27.9419L27.8619 34.72C27.7232 35.1253 27.4459 35.4773 27.0299 35.776C26.6139 36.0747 26.0539 36.224 25.3499 36.224ZM26.3419 34.24C26.7579 34.24 27.0885 34.112 27.3339 33.856C27.5792 33.6 27.7019 33.2213 27.7019 32.72V32.32H26.5819C26.1232 32.32 25.8032 32.4 25.6219 32.56C25.4512 32.72 25.3659 32.9867 25.3659 33.36C25.3659 33.9467 25.6912 34.24 26.3419 34.24ZM31.9444 27.36H34.3444V30.48H35.1284L36.7284 27.36H39.3844L37.0004 31.456L39.6244 36H36.9044L35.1444 32.56H34.3444V36H31.9444V27.36ZM40.8194 27.36H43.2194V31.408C43.2194 31.5573 43.214 31.7067 43.2034 31.856C43.2034 31.9947 43.198 32.1227 43.1874 32.24C43.1767 32.3787 43.1714 32.512 43.1714 32.64H43.2354C43.2887 32.512 43.3474 32.3787 43.4114 32.24C43.4647 32.1227 43.5287 31.9893 43.6034 31.84C43.678 31.68 43.758 31.52 43.8434 31.36L45.9714 27.36H48.3394V36H45.9394V32.032C45.9394 31.8613 45.9394 31.696 45.9394 31.536C45.9394 31.376 45.9447 31.2373 45.9554 31.12C45.966 30.9813 45.9767 30.848 45.9874 30.72H45.9234C45.87 30.848 45.8114 30.9813 45.7474 31.12C45.694 31.2373 45.63 31.376 45.5554 31.536C45.4807 31.6853 45.4007 31.84 45.3154 32L43.1874 36H40.8194V27.36ZM53.9369 36.224C53.1689 36.224 52.5182 36.128 51.9849 35.936C51.4622 35.744 51.0355 35.456 50.7049 35.072C50.3849 34.6773 50.1502 34.1867 50.0009 33.6C49.8515 33.0133 49.7769 32.32 49.7769 31.52C49.7769 30.048 50.1235 28.9493 50.8169 28.224C51.5102 27.4987 52.4969 27.136 53.7769 27.136C54.4915 27.136 55.0889 27.232 55.5689 27.424C56.0595 27.6053 56.4542 27.872 56.7529 28.224C57.0622 28.576 57.2809 29.0027 57.4089 29.504C57.5475 29.9947 57.6169 30.5493 57.6169 31.168V32.32H52.1769C52.2195 33.0027 52.4009 33.4933 52.7209 33.792C53.0409 34.0907 53.5529 34.24 54.2569 34.24C54.5342 34.24 54.8115 34.2187 55.0889 34.176C55.3769 34.1227 55.6489 34.0533 55.9049 33.968C56.1609 33.8827 56.3955 33.7813 56.6089 33.664C56.8222 33.5467 56.9982 33.424 57.1369 33.296V35.44C56.7742 35.664 56.3475 35.8507 55.8569 36C55.3769 36.1493 54.7369 36.224 53.9369 36.224ZM53.7769 28.96C53.2542 28.96 52.8649 29.1093 52.6089 29.408C52.3635 29.7067 52.2195 30.1973 52.1769 30.88H55.2169C55.2169 30.2293 55.1155 29.7493 54.9129 29.44C54.7102 29.12 54.3315 28.96 53.7769 28.96ZM65.0538 39.104C64.8938 39.104 64.7338 39.0933 64.5738 39.072C64.4244 39.0507 64.2911 39.024 64.1738 38.992C64.0351 38.96 63.9018 38.9227 63.7738 38.88V36.736C63.8911 36.8107 64.0084 36.864 64.1258 36.896C64.2538 36.9387 64.4031 36.96 64.5738 36.96C64.7764 36.96 64.9524 36.896 65.1018 36.768C65.2618 36.6507 65.3738 36.3947 65.4378 36L62.2538 27.36H64.8458L66.5258 32.64L67.7898 27.36H70.2538L67.8858 35.776C67.6831 36.4907 67.4858 37.0613 67.2938 37.488C67.1018 37.9253 66.8938 38.2613 66.6698 38.496C66.4458 38.7413 66.2004 38.9013 65.9338 38.976C65.6778 39.0613 65.3844 39.104 65.0538 39.104ZM71.3663 27.36H73.6863L73.7663 28.56C73.9689 28.1653 74.2729 27.8293 74.6783 27.552C75.0836 27.2747 75.6329 27.136 76.3263 27.136C76.8596 27.136 77.3183 27.216 77.7023 27.376C78.0863 27.536 78.4009 27.7973 78.6463 28.16C78.8916 28.512 79.0729 28.9707 79.1903 29.536C79.3076 30.1013 79.3663 30.7893 79.3663 31.6C79.3663 33.2427 79.0996 34.4267 78.5663 35.152C78.0436 35.8667 77.2169 36.224 76.0863 36.224C75.7449 36.224 75.4463 36.1813 75.1903 36.096C74.9449 36.0213 74.7263 35.92 74.5343 35.792C74.3529 35.664 74.1983 35.52 74.0703 35.36C73.9529 35.2 73.8516 35.04 73.7663 34.88V38.88H71.3663V27.36ZM76.9023 31.6C76.9023 31.152 76.8703 30.7787 76.8063 30.48C76.7423 30.1813 76.6409 29.9467 76.5023 29.776C76.3743 29.5947 76.2089 29.4667 76.0063 29.392C75.8143 29.3173 75.5903 29.28 75.3343 29.28C74.8329 29.28 74.4436 29.4347 74.1663 29.744C73.8996 30.0533 73.7663 30.576 73.7663 31.312V32.048C73.7663 32.784 73.8996 33.3067 74.1663 33.616C74.4436 33.9253 74.8383 34.08 75.3503 34.08C75.6063 34.08 75.8303 34.0427 76.0223 33.968C76.2143 33.8933 76.3743 33.7653 76.5023 33.584C76.6409 33.392 76.7423 33.136 76.8063 32.816C76.8703 32.496 76.9023 32.0907 76.9023 31.6ZM84.4038 36.224C83.0384 36.224 82.0144 35.8667 81.3318 35.152C80.6598 34.4267 80.3238 33.2693 80.3238 31.68C80.3238 30.1227 80.6704 28.976 81.3638 28.24C82.0571 27.504 83.0704 27.136 84.4038 27.136C85.1078 27.136 85.7158 27.2213 86.2278 27.392C86.7398 27.552 87.1611 27.8187 87.4918 28.192C87.8331 28.5547 88.0838 29.024 88.2438 29.6C88.4038 30.176 88.4838 30.8693 88.4838 31.68C88.4838 33.2693 88.1424 34.4267 87.4598 35.152C86.7771 35.8667 85.7584 36.224 84.4038 36.224ZM84.4038 34.08C84.6704 34.08 84.8998 34.0427 85.0918 33.968C85.2944 33.8827 85.4651 33.7493 85.6038 33.568C85.7424 33.3867 85.8438 33.1413 85.9078 32.832C85.9824 32.5227 86.0198 32.1387 86.0198 31.68C86.0198 31.2213 85.9878 30.8373 85.9238 30.528C85.8598 30.2187 85.7584 29.9733 85.6198 29.792C85.4811 29.6107 85.3104 29.4827 85.1078 29.408C84.9051 29.3227 84.6704 29.28 84.4038 29.28C84.1371 29.28 83.9024 29.3227 83.6998 29.408C83.4971 29.4827 83.3264 29.616 83.1878 29.808C83.0598 29.9893 82.9584 30.2347 82.8838 30.544C82.8198 30.8533 82.7878 31.232 82.7878 31.68C82.7878 32.1387 82.8198 32.5227 82.8838 32.832C82.9584 33.1413 83.0598 33.3867 83.1878 33.568C83.3264 33.7493 83.4971 33.8827 83.6998 33.968C83.9024 34.0427 84.1371 34.08 84.4038 34.08ZM93.2888 36.112C92.8408 36.112 92.4141 36.1067 92.0088 36.096C91.6141 36.096 91.2621 36.0853 90.9528 36.064C90.5901 36.0427 90.2488 36.0213 89.9288 36V27.312C90.2168 27.3013 90.5368 27.2907 90.8888 27.28C91.1874 27.2693 91.5394 27.264 91.9448 27.264C92.3608 27.2533 92.8088 27.248 93.2888 27.248C93.9714 27.248 94.5368 27.3013 94.9848 27.408C95.4328 27.504 95.7901 27.6533 96.0568 27.856C96.3341 28.0587 96.5261 28.3147 96.6328 28.624C96.7501 28.9227 96.8088 29.28 96.8088 29.696C96.8088 30.1333 96.6968 30.496 96.4728 30.784C96.2594 31.0613 95.9661 31.28 95.5928 31.44C96.0728 31.5253 96.4461 31.7387 96.7128 32.08C96.9901 32.4213 97.1288 32.864 97.1288 33.408C97.1288 33.856 97.0648 34.2507 96.9368 34.592C96.8088 34.9227 96.5954 35.2 96.2968 35.424C95.9981 35.648 95.6034 35.8187 95.1128 35.936C94.6221 36.0533 94.0141 36.112 93.2888 36.112ZM94.6488 33.248C94.6488 32.896 94.5634 32.656 94.3928 32.528C94.2328 32.3893 93.8914 32.32 93.3688 32.32H92.3288V34.128C92.3288 34.1387 92.3661 34.1493 92.4408 34.16C92.5154 34.16 92.6061 34.1653 92.7128 34.176C92.8194 34.176 92.9314 34.1813 93.0488 34.192C93.1661 34.192 93.2728 34.192 93.3688 34.192C93.8914 34.192 94.2328 34.1227 94.3928 33.984C94.5634 33.8453 94.6488 33.6 94.6488 33.248ZM94.4728 30.016C94.4728 29.7173 94.3928 29.504 94.2328 29.376C94.0728 29.2373 93.7581 29.168 93.2888 29.168C93.1821 29.168 93.0754 29.1733 92.9688 29.184C92.8621 29.184 92.7608 29.1893 92.6648 29.2C92.5474 29.2107 92.4354 29.216 92.3288 29.216V30.88H93.3688C93.8061 30.88 94.0994 30.816 94.2488 30.688C94.3981 30.5493 94.4728 30.3253 94.4728 30.016ZM98.5694 27.36H100.969V30.528H103.529V27.36H105.929V36H103.529V32.672H100.969V36H98.5694V27.36ZM107.851 27.36H110.251V31.408C110.251 31.5573 110.245 31.7067 110.235 31.856C110.235 31.9947 110.229 32.1227 110.219 32.24C110.208 32.3787 110.203 32.512 110.203 32.64H110.267C110.32 32.512 110.379 32.3787 110.443 32.24C110.496 32.1227 110.56 31.9893 110.635 31.84C110.709 31.68 110.789 31.52 110.875 31.36L113.003 27.36H115.371V36H112.971V32.032C112.971 31.8613 112.971 31.696 112.971 31.536C112.971 31.376 112.976 31.2373 112.987 31.12C112.997 30.9813 113.008 30.848 113.019 30.72H112.955C112.901 30.848 112.843 30.9813 112.779 31.12C112.725 31.2373 112.661 31.376 112.587 31.536C112.512 31.6853 112.432 31.84 112.347 32L110.219 36H107.851V27.36ZM122.968 29.504H120.648V27.36H127.688V29.504H125.368V36H122.968V29.504ZM132.656 36.224C131.888 36.224 131.237 36.128 130.704 35.936C130.181 35.744 129.754 35.456 129.424 35.072C129.104 34.6773 128.869 34.1867 128.72 33.6C128.57 33.0133 128.496 32.32 128.496 31.52C128.496 30.048 128.842 28.9493 129.536 28.224C130.229 27.4987 131.216 27.136 132.496 27.136C133.21 27.136 133.808 27.232 134.288 27.424C134.778 27.6053 135.173 27.872 135.472 28.224C135.781 28.576 136 29.0027 136.128 29.504C136.266 29.9947 136.336 30.5493 136.336 31.168V32.32H130.896C130.938 33.0027 131.12 33.4933 131.44 33.792C131.76 34.0907 132.272 34.24 132.976 34.24C133.253 34.24 133.53 34.2187 133.808 34.176C134.096 34.1227 134.368 34.0533 134.624 33.968C134.88 33.8827 135.114 33.7813 135.328 33.664C135.541 33.5467 135.717 33.424 135.856 33.296V35.44C135.493 35.664 135.066 35.8507 134.576 36C134.096 36.1493 133.456 36.224 132.656 36.224ZM132.496 28.96C131.973 28.96 131.584 29.1093 131.328 29.408C131.082 29.7067 130.938 30.1973 130.896 30.88H133.936C133.936 30.2293 133.834 29.7493 133.632 29.44C133.429 29.12 133.05 28.96 132.496 28.96ZM141.453 36.224C140.727 36.224 140.098 36.144 139.565 35.984C139.042 35.8133 138.61 35.5467 138.269 35.184C137.938 34.8107 137.693 34.3307 137.533 33.744C137.373 33.1573 137.293 32.4427 137.293 31.6C137.293 30.0533 137.634 28.9227 138.317 28.208C139.01 27.4933 140.055 27.136 141.453 27.136C141.826 27.136 142.167 27.1627 142.477 27.216C142.786 27.2693 143.047 27.3227 143.261 27.376C143.517 27.44 143.741 27.5147 143.933 27.6V30.064C143.666 29.8507 143.362 29.6693 143.021 29.52C142.69 29.36 142.274 29.28 141.773 29.28C141.069 29.28 140.557 29.456 140.237 29.808C139.917 30.1493 139.757 30.7467 139.757 31.6C139.757 32.5173 139.927 33.1627 140.269 33.536C140.61 33.8987 141.165 34.08 141.933 34.08C142.338 34.08 142.733 34.0107 143.117 33.872C143.511 33.7227 143.81 33.5467 144.013 33.344V35.648C143.81 35.7547 143.575 35.8507 143.309 35.936C143.085 36.0107 142.813 36.0747 142.493 36.128C142.173 36.192 141.826 36.224 141.453 36.224ZM147.14 29.504H144.82V27.36H151.86V29.504H149.54V36H147.14V29.504ZM153.148 27.36H155.548V31.408C155.548 31.5573 155.542 31.7067 155.532 31.856C155.532 31.9947 155.526 32.1227 155.516 32.24C155.505 32.3787 155.5 32.512 155.5 32.64H155.564C155.617 32.512 155.676 32.3787 155.74 32.24C155.793 32.1227 155.857 31.9893 155.932 31.84C156.006 31.68 156.086 31.52 156.172 31.36L158.3 27.36H160.668V36H158.268V32.032C158.268 31.8613 158.268 31.696 158.268 31.536C158.268 31.376 158.273 31.2373 158.284 31.12C158.294 30.9813 158.305 30.848 158.316 30.72H158.252C158.198 30.848 158.14 30.9813 158.076 31.12C158.022 31.2373 157.958 31.376 157.884 31.536C157.809 31.6853 157.729 31.84 157.644 32L155.516 36H153.148V27.36ZM162.585 27.36H164.905L164.985 28.56C165.188 28.1653 165.492 27.8293 165.897 27.552C166.302 27.2747 166.852 27.136 167.545 27.136C168.078 27.136 168.537 27.216 168.921 27.376C169.305 27.536 169.62 27.7973 169.865 28.16C170.11 28.512 170.292 28.9707 170.409 29.536C170.526 30.1013 170.585 30.7893 170.585 31.6C170.585 33.2427 170.318 34.4267 169.785 35.152C169.262 35.8667 168.436 36.224 167.305 36.224C166.964 36.224 166.665 36.1813 166.409 36.096C166.164 36.0213 165.945 35.92 165.753 35.792C165.572 35.664 165.417 35.52 165.289 35.36C165.172 35.2 165.07 35.04 164.985 34.88V38.88H162.585V27.36ZM168.121 31.6C168.121 31.152 168.089 30.7787 168.025 30.48C167.961 30.1813 167.86 29.9467 167.721 29.776C167.593 29.5947 167.428 29.4667 167.225 29.392C167.033 29.3173 166.809 29.28 166.553 29.28C166.052 29.28 165.662 29.4347 165.385 29.744C165.118 30.0533 164.985 30.576 164.985 31.312V32.048C164.985 32.784 165.118 33.3067 165.385 33.616C165.662 33.9253 166.057 34.08 166.569 34.08C166.825 34.08 167.049 34.0427 167.241 33.968C167.433 33.8933 167.593 33.7653 167.721 33.584C167.86 33.392 167.961 33.136 168.025 32.816C168.089 32.496 168.121 32.0907 168.121 31.6ZM175.623 36.224C174.257 36.224 173.233 35.8667 172.551 35.152C171.879 34.4267 171.543 33.2693 171.543 31.68C171.543 30.1227 171.889 28.976 172.583 28.24C173.276 27.504 174.289 27.136 175.623 27.136C176.327 27.136 176.935 27.2213 177.447 27.392C177.959 27.552 178.38 27.8187 178.711 28.192C179.052 28.5547 179.303 29.024 179.463 29.6C179.623 30.176 179.703 30.8693 179.703 31.68C179.703 33.2693 179.361 34.4267 178.679 35.152C177.996 35.8667 176.977 36.224 175.623 36.224ZM175.623 34.08C175.889 34.08 176.119 34.0427 176.311 33.968C176.513 33.8827 176.684 33.7493 176.823 33.568C176.961 33.3867 177.063 33.1413 177.127 32.832C177.201 32.5227 177.239 32.1387 177.239 31.68C177.239 31.2213 177.207 30.8373 177.143 30.528C177.079 30.2187 176.977 29.9733 176.839 29.792C176.7 29.6107 176.529 29.4827 176.327 29.408C176.124 29.3227 175.889 29.28 175.623 29.28C175.356 29.28 175.121 29.3227 174.919 29.408C174.716 29.4827 174.545 29.616 174.407 29.808C174.279 29.9893 174.177 30.2347 174.103 30.544C174.039 30.8533 174.007 31.232 174.007 31.68C174.007 32.1387 174.039 32.5227 174.103 32.832C174.177 33.1413 174.279 33.3867 174.407 33.568C174.545 33.7493 174.716 33.8827 174.919 33.968C175.121 34.0427 175.356 34.08 175.623 34.08ZM184.508 36.112C184.06 36.112 183.633 36.1067 183.228 36.096C182.833 36.096 182.481 36.0853 182.172 36.064C181.809 36.0427 181.468 36.0213 181.148 36V27.312C181.436 27.3013 181.756 27.2907 182.108 27.28C182.406 27.2693 182.758 27.264 183.164 27.264C183.58 27.2533 184.028 27.248 184.508 27.248C185.19 27.248 185.756 27.3013 186.204 27.408C186.652 27.504 187.009 27.6533 187.276 27.856C187.553 28.0587 187.745 28.3147 187.852 28.624C187.969 28.9227 188.028 29.28 188.028 29.696C188.028 30.1333 187.916 30.496 187.692 30.784C187.478 31.0613 187.185 31.28 186.812 31.44C187.292 31.5253 187.665 31.7387 187.932 32.08C188.209 32.4213 188.348 32.864 188.348 33.408C188.348 33.856 188.284 34.2507 188.156 34.592C188.028 34.9227 187.814 35.2 187.516 35.424C187.217 35.648 186.822 35.8187 186.332 35.936C185.841 36.0533 185.233 36.112 184.508 36.112ZM185.868 33.248C185.868 32.896 185.782 32.656 185.612 32.528C185.452 32.3893 185.11 32.32 184.588 32.32H183.548V34.128C183.548 34.1387 183.585 34.1493 183.66 34.16C183.734 34.16 183.825 34.1653 183.932 34.176C184.038 34.176 184.15 34.1813 184.268 34.192C184.385 34.192 184.492 34.192 184.588 34.192C185.11 34.192 185.452 34.1227 185.612 33.984C185.782 33.8453 185.868 33.6 185.868 33.248ZM185.692 30.016C185.692 29.7173 185.612 29.504 185.452 29.376C185.292 29.2373 184.977 29.168 184.508 29.168C184.401 29.168 184.294 29.1733 184.188 29.184C184.081 29.184 183.98 29.1893 183.884 29.2C183.766 29.2107 183.654 29.216 183.548 29.216V30.88H184.588C185.025 30.88 185.318 30.816 185.468 30.688C185.617 30.5493 185.692 30.3253 185.692 30.016ZM191.756 36.224C190.956 36.224 190.348 36.0107 189.932 35.584C189.516 35.1467 189.308 34.4853 189.308 33.6C189.308 33.1413 189.367 32.7413 189.484 32.4C189.601 32.0587 189.793 31.776 190.06 31.552C190.327 31.328 190.673 31.1627 191.1 31.056C191.527 30.9387 192.049 30.88 192.668 30.88H194.108V30.448C194.108 30.0213 194.001 29.7227 193.788 29.552C193.575 29.3707 193.175 29.28 192.588 29.28C192.076 29.28 191.585 29.344 191.116 29.472C190.657 29.6 190.295 29.744 190.028 29.904V27.6C190.369 27.472 190.796 27.3653 191.308 27.28C191.831 27.184 192.401 27.136 193.02 27.136C193.681 27.136 194.231 27.1947 194.668 27.312C195.116 27.4187 195.473 27.6 195.74 27.856C196.017 28.1013 196.215 28.432 196.332 28.848C196.449 29.2533 196.508 29.7547 196.508 30.352V36H194.348L194.268 34.72C194.129 35.1253 193.852 35.4773 193.436 35.776C193.02 36.0747 192.46 36.224 191.756 36.224ZM192.748 34.24C193.164 34.24 193.495 34.112 193.74 33.856C193.985 33.6 194.108 33.2213 194.108 32.72V32.32H192.988C192.529 32.32 192.209 32.4 192.028 32.56C191.857 32.72 191.772 32.9867 191.772 33.36C191.772 33.9467 192.097 34.24 192.748 34.24ZM198.351 27.36H200.751V30.528H203.311V27.36H205.711V36H203.311V32.672H200.751V36H198.351V27.36ZM207.632 27.36H210.032V31.408C210.032 31.5573 210.027 31.7067 210.016 31.856C210.016 31.9947 210.011 32.1227 210 32.24C209.989 32.3787 209.984 32.512 209.984 32.64H210.048C210.101 32.512 210.16 32.3787 210.224 32.24C210.277 32.1227 210.341 31.9893 210.416 31.84C210.491 31.68 210.571 31.52 210.656 31.36L212.784 27.36H215.152V36H212.752V32.032C212.752 31.8613 212.752 31.696 212.752 31.536C212.752 31.376 212.757 31.2373 212.768 31.12C212.779 30.9813 212.789 30.848 212.8 30.72H212.736C212.683 30.848 212.624 30.9813 212.56 31.12C212.507 31.2373 212.443 31.376 212.368 31.536C212.293 31.6853 212.213 31.84 212.128 32L210 36H207.632V27.36ZM218.173 33.088C217.725 32.8533 217.4 32.5173 217.197 32.08C217.005 31.6427 216.909 31.0987 216.909 30.448C216.909 29.872 216.979 29.3813 217.117 28.976C217.267 28.5707 217.501 28.24 217.821 27.984C218.152 27.728 218.584 27.5413 219.117 27.424C219.651 27.3067 220.301 27.248 221.069 27.248C221.389 27.248 221.72 27.2533 222.061 27.264C222.403 27.2747 222.712 27.2907 222.989 27.312C223.32 27.3333 223.64 27.3493 223.949 27.36V36H221.549V33.488H220.397L219.213 36H216.589L218.173 33.088ZM219.373 30.448C219.373 30.832 219.459 31.104 219.629 31.264C219.8 31.424 220.12 31.504 220.589 31.504H221.549V29.44C221.421 29.44 221.299 29.4347 221.181 29.424C221.075 29.4133 220.968 29.408 220.861 29.408C220.765 29.3973 220.675 29.392 220.589 29.392C220.12 29.392 219.8 29.472 219.629 29.632C219.459 29.792 219.373 30.064 219.373 30.448ZM232.346 36.224C231.792 36.224 231.248 36.1653 230.714 36.048C230.181 35.9413 229.738 35.792 229.386 35.6V33.296C229.557 33.424 229.749 33.5467 229.962 33.664C230.176 33.7707 230.4 33.8667 230.634 33.952C230.869 34.0373 231.109 34.1067 231.354 34.16C231.61 34.2133 231.861 34.24 232.106 34.24C232.672 34.24 233.056 34.16 233.258 34C233.461 33.84 233.562 33.6107 233.562 33.312C233.562 32.992 233.466 32.7627 233.274 32.624C233.082 32.4747 232.693 32.4 232.106 32.4H230.986V30.8H232.106C232.533 30.8 232.826 30.7307 232.986 30.592C233.157 30.4427 233.242 30.2293 233.242 29.952C233.242 29.6747 233.152 29.4667 232.97 29.328C232.8 29.1893 232.458 29.12 231.946 29.12C231.552 29.12 231.141 29.1947 230.714 29.344C230.288 29.4827 229.872 29.6907 229.466 29.968V27.664C229.925 27.472 230.405 27.3387 230.906 27.264C231.408 27.1787 231.941 27.136 232.506 27.136C233.125 27.136 233.637 27.184 234.042 27.28C234.458 27.376 234.789 27.5253 235.034 27.728C235.28 27.92 235.45 28.1707 235.546 28.48C235.653 28.7787 235.706 29.136 235.706 29.552C235.706 29.7653 235.674 29.9733 235.61 30.176C235.546 30.3787 235.45 30.5653 235.322 30.736C235.205 30.9067 235.061 31.056 234.89 31.184C234.73 31.312 234.549 31.4027 234.346 31.456C234.944 31.6053 235.37 31.8613 235.626 32.224C235.893 32.576 236.026 33.072 236.026 33.712C236.026 34.0853 235.957 34.4267 235.818 34.736C235.69 35.0347 235.477 35.296 235.178 35.52C234.88 35.744 234.496 35.9147 234.026 36.032C233.568 36.16 233.008 36.224 232.346 36.224ZM237.46 27.36H239.86V30.528H242.42V27.36H244.82V36H242.42V32.672H239.86V36H237.46V27.36ZM248.709 36.224C247.909 36.224 247.301 36.0107 246.885 35.584C246.469 35.1467 246.261 34.4853 246.261 33.6C246.261 33.1413 246.32 32.7413 246.437 32.4C246.555 32.0587 246.747 31.776 247.013 31.552C247.28 31.328 247.627 31.1627 248.053 31.056C248.48 30.9387 249.003 30.88 249.621 30.88H251.061V30.448C251.061 30.0213 250.955 29.7227 250.741 29.552C250.528 29.3707 250.128 29.28 249.541 29.28C249.029 29.28 248.539 29.344 248.069 29.472C247.611 29.6 247.248 29.744 246.981 29.904V27.6C247.323 27.472 247.749 27.3653 248.261 27.28C248.784 27.184 249.355 27.136 249.973 27.136C250.635 27.136 251.184 27.1947 251.621 27.312C252.069 27.4187 252.427 27.6 252.693 27.856C252.971 28.1013 253.168 28.432 253.285 28.848C253.403 29.2533 253.461 29.7547 253.461 30.352V36H251.301L251.221 34.72C251.083 35.1253 250.805 35.4773 250.389 35.776C249.973 36.0747 249.413 36.224 248.709 36.224ZM249.701 34.24C250.117 34.24 250.448 34.112 250.693 33.856C250.939 33.6 251.061 33.2213 251.061 32.72V32.32H249.941C249.483 32.32 249.163 32.4 248.981 32.56C248.811 32.72 248.725 32.9867 248.725 33.36C248.725 33.9467 249.051 34.24 249.701 34.24ZM258.984 36.224C258.216 36.224 257.565 36.128 257.032 35.936C256.509 35.744 256.082 35.456 255.752 35.072C255.432 34.6773 255.197 34.1867 255.048 33.6C254.898 33.0133 254.824 32.32 254.824 31.52C254.824 30.048 255.17 28.9493 255.864 28.224C256.557 27.4987 257.544 27.136 258.824 27.136C259.538 27.136 260.136 27.232 260.616 27.424C261.106 27.6053 261.501 27.872 261.8 28.224C262.109 28.576 262.328 29.0027 262.456 29.504C262.594 29.9947 262.664 30.5493 262.664 31.168V32.32H257.224C257.266 33.0027 257.448 33.4933 257.768 33.792C258.088 34.0907 258.6 34.24 259.304 34.24C259.581 34.24 259.858 34.2187 260.136 34.176C260.424 34.1227 260.696 34.0533 260.952 33.968C261.208 33.8827 261.442 33.7813 261.656 33.664C261.869 33.5467 262.045 33.424 262.184 33.296V35.44C261.821 35.664 261.394 35.8507 260.904 36C260.424 36.1493 259.784 36.224 258.984 36.224ZM258.824 28.96C258.301 28.96 257.912 29.1093 257.656 29.408C257.41 29.7067 257.266 30.1973 257.224 30.88H260.264C260.264 30.2293 260.162 29.7493 259.96 29.44C259.757 29.12 259.378 28.96 258.824 28.96ZM265.781 29.504H263.461V27.36H270.501V29.504H268.181V36H265.781V29.504ZM275.468 36.224C274.7 36.224 274.049 36.128 273.516 35.936C272.993 35.744 272.567 35.456 272.236 35.072C271.916 34.6773 271.681 34.1867 271.532 33.6C271.383 33.0133 271.308 32.32 271.308 31.52C271.308 30.048 271.655 28.9493 272.348 28.224C273.041 27.4987 274.028 27.136 275.308 27.136C276.023 27.136 276.62 27.232 277.1 27.424C277.591 27.6053 277.985 27.872 278.284 28.224C278.593 28.576 278.812 29.0027 278.94 29.504C279.079 29.9947 279.148 30.5493 279.148 31.168V32.32H273.708C273.751 33.0027 273.932 33.4933 274.252 33.792C274.572 34.0907 275.084 34.24 275.788 34.24C276.065 34.24 276.343 34.2187 276.62 34.176C276.908 34.1227 277.18 34.0533 277.436 33.968C277.692 33.8827 277.927 33.7813 278.14 33.664C278.353 33.5467 278.529 33.424 278.668 33.296V35.44C278.305 35.664 277.879 35.8507 277.388 36C276.908 36.1493 276.268 36.224 275.468 36.224ZM275.308 28.96C274.785 28.96 274.396 29.1093 274.14 29.408C273.895 29.7067 273.751 30.1973 273.708 30.88H276.748C276.748 30.2293 276.647 29.7493 276.444 29.44C276.241 29.12 275.863 28.96 275.308 28.96ZM282.745 36.112C281.732 36.112 281.225 35.6053 281.225 34.592C281.225 33.5787 281.732 33.072 282.745 33.072C283.758 33.072 284.265 33.5787 284.265 34.592C284.265 35.6053 283.758 36.112 282.745 36.112ZM281.593 32.16C281.593 31.7013 281.652 31.3173 281.769 31.008C281.897 30.6987 282.052 30.432 282.233 30.208C282.414 29.984 282.612 29.792 282.825 29.632C283.049 29.4613 283.252 29.296 283.433 29.136C283.614 28.976 283.764 28.8 283.881 28.608C284.009 28.416 284.073 28.176 284.073 27.888C284.073 27.5467 283.966 27.28 283.753 27.088C283.54 26.896 283.204 26.8 282.745 26.8C282.233 26.8 281.769 26.8907 281.353 27.072C280.937 27.2533 280.574 27.4667 280.265 27.712V25.136C280.585 24.9867 280.974 24.8587 281.433 24.752C281.902 24.6347 282.473 24.576 283.145 24.576C284.372 24.576 285.262 24.832 285.817 25.344C286.382 25.8453 286.665 26.56 286.665 27.488C286.665 28.0107 286.596 28.448 286.457 28.8C286.318 29.152 286.142 29.4507 285.929 29.696C285.716 29.9413 285.486 30.1547 285.241 30.336C285.006 30.5067 284.782 30.6773 284.569 30.848C284.356 31.0187 284.18 31.2053 284.041 31.408C283.902 31.6107 283.833 31.8613 283.833 32.16H281.593Z" fill="#FEFEFE"/>
    <path d="M14.26 76.66H17.392V69.532L14.26 71.62V69.028L18.22 66.4H20.2V76.66H22.54V79H14.26V76.66ZM47.2056 66.4H50.8056L53.4696 73.33L56.1336 66.4H59.6256V79H56.9256V71.98C56.9256 71.62 56.9316 71.32 56.9436 71.08C56.9556 70.84 56.9796 70.54 57.0156 70.18H56.9436C56.8836 70.36 56.8296 70.522 56.7816 70.666C56.7336 70.798 56.6856 70.936 56.6376 71.08C56.6016 71.212 56.5536 71.35 56.4936 71.494C56.4456 71.638 56.3856 71.8 56.3136 71.98L54.5856 76.48H52.2456L50.5176 71.98C50.4456 71.8 50.3796 71.638 50.3196 71.494C50.2716 71.35 50.2236 71.212 50.1756 71.08C50.1396 70.936 50.0976 70.798 50.0496 70.666C50.0016 70.522 49.9476 70.36 49.8876 70.18H49.8156C49.8396 70.54 49.8576 70.84 49.8696 71.08C49.8936 71.32 49.9056 71.62 49.9056 71.98V79H47.2056V66.4ZM66.1886 79.252C64.6526 79.252 63.5006 78.85 62.7326 78.046C61.9766 77.23 61.5986 75.928 61.5986 74.14C61.5986 72.388 61.9886 71.098 62.7686 70.27C63.5486 69.442 64.6886 69.028 66.1886 69.028C66.9806 69.028 67.6646 69.124 68.2406 69.316C68.8166 69.496 69.2906 69.796 69.6626 70.216C70.0466 70.624 70.3286 71.152 70.5086 71.8C70.6886 72.448 70.7786 73.228 70.7786 74.14C70.7786 75.928 70.3946 77.23 69.6266 78.046C68.8586 78.85 67.7126 79.252 66.1886 79.252ZM66.1886 76.84C66.4886 76.84 66.7466 76.798 66.9626 76.714C67.1906 76.618 67.3826 76.468 67.5386 76.264C67.6946 76.06 67.8086 75.784 67.8806 75.436C67.9646 75.088 68.0066 74.656 68.0066 74.14C68.0066 73.624 67.9706 73.192 67.8986 72.844C67.8266 72.496 67.7126 72.22 67.5566 72.016C67.4006 71.812 67.2086 71.668 66.9806 71.584C66.7526 71.488 66.4886 71.44 66.1886 71.44C65.8886 71.44 65.6246 71.488 65.3966 71.584C65.1686 71.668 64.9766 71.818 64.8206 72.034C64.6766 72.238 64.5626 72.514 64.4786 72.862C64.4066 73.21 64.3706 73.636 64.3706 74.14C64.3706 74.656 64.4066 75.088 64.4786 75.436C64.5626 75.784 64.6766 76.06 64.8206 76.264C64.9766 76.468 65.1686 76.618 65.3966 76.714C65.6246 76.798 65.8886 76.84 66.1886 76.84ZM71.5612 76.588H72.5512C72.8632 75.832 73.0672 74.824 73.1632 73.564C73.2592 72.304 73.3072 70.876 73.3072 69.28H80.2552V76.588H81.4612V81.34H79.0492V79H73.9732V81.34H71.5612V76.588ZM77.5552 76.588V71.692H75.7192C75.7192 72.52 75.6772 73.33 75.5932 74.122C75.5212 74.914 75.3832 75.736 75.1792 76.588H77.5552ZM85.0253 82.492C84.8453 82.492 84.6653 82.48 84.4853 82.456C84.3173 82.432 84.1673 82.402 84.0353 82.366C83.8793 82.33 83.7293 82.288 83.5853 82.24V79.828C83.7173 79.912 83.8493 79.972 83.9813 80.008C84.1253 80.056 84.2933 80.08 84.4853 80.08C84.7133 80.08 84.9113 80.008 85.0793 79.864C85.2593 79.732 85.3853 79.444 85.4573 79L81.8753 69.28H84.7913L86.6813 75.22L88.1033 69.28H90.8753L88.2113 78.748C87.9833 79.552 87.7613 80.194 87.5453 80.674C87.3293 81.166 87.0953 81.544 86.8433 81.808C86.5913 82.084 86.3153 82.264 86.0153 82.348C85.7273 82.444 85.3973 82.492 85.0253 82.492ZM91.0729 76.426C91.1929 76.462 91.3069 76.48 91.4149 76.48C91.6069 76.48 91.7749 76.414 91.9189 76.282C92.0629 76.15 92.1829 75.886 92.2789 75.49C92.3749 75.082 92.4469 74.5 92.4949 73.744C92.5429 72.988 92.5729 71.98 92.5849 70.72L92.6029 69.28H99.9829V79H97.2829V71.8H95.1229L95.1049 72.232C95.0569 73.564 94.9669 74.68 94.8349 75.58C94.7149 76.48 94.5349 77.2 94.2949 77.74C94.0549 78.28 93.7489 78.67 93.3769 78.91C93.0049 79.138 92.5609 79.252 92.0449 79.252C91.8529 79.252 91.6669 79.24 91.4869 79.216C91.3189 79.204 91.1809 79.174 91.0729 79.126V76.426ZM105.386 79.126C105.026 79.126 104.654 79.12 104.27 79.108C103.886 79.108 103.538 79.096 103.226 79.072C102.854 79.048 102.494 79.024 102.146 79V69.28H104.846V71.98C104.99 71.98 105.134 71.974 105.278 71.962C105.41 71.95 105.548 71.944 105.692 71.944C105.836 71.932 105.974 71.926 106.106 71.926C106.79 71.926 107.372 71.992 107.852 72.124C108.332 72.256 108.722 72.466 109.022 72.754C109.322 73.042 109.538 73.414 109.67 73.87C109.814 74.326 109.886 74.878 109.886 75.526C109.886 76.15 109.808 76.69 109.652 77.146C109.508 77.59 109.256 77.962 108.896 78.262C108.548 78.55 108.086 78.766 107.51 78.91C106.934 79.054 106.226 79.126 105.386 79.126ZM107.114 75.526C107.114 75.094 107.018 74.788 106.826 74.608C106.634 74.428 106.274 74.338 105.746 74.338C105.65 74.338 105.548 74.344 105.44 74.356C105.344 74.356 105.248 74.362 105.152 74.374C105.044 74.386 104.942 74.392 104.846 74.392V76.66C104.942 76.672 105.044 76.684 105.152 76.696C105.248 76.708 105.344 76.714 105.44 76.714C105.548 76.714 105.65 76.714 105.746 76.714C106.274 76.714 106.634 76.624 106.826 76.444C107.018 76.264 107.114 75.958 107.114 75.526ZM111.498 69.28H114.198V72.844H117.078V69.28H119.778V79H117.078V75.256H114.198V79H111.498V69.28ZM124.999 79.126C124.639 79.126 124.273 79.12 123.901 79.108C123.541 79.108 123.217 79.096 122.929 79.072C122.581 79.048 122.251 79.024 121.939 79V69.28H124.639V71.98C124.747 71.98 124.861 71.974 124.981 71.962C125.077 71.95 125.191 71.944 125.323 71.944C125.455 71.932 125.587 71.926 125.719 71.926C127.003 71.926 127.921 72.202 128.473 72.754C129.037 73.306 129.319 74.23 129.319 75.526C129.319 76.15 129.241 76.69 129.085 77.146C128.941 77.59 128.695 77.962 128.347 78.262C128.011 78.55 127.567 78.766 127.015 78.91C126.475 79.054 125.803 79.126 124.999 79.126ZM126.547 75.526C126.547 75.094 126.457 74.788 126.277 74.608C126.097 74.428 125.791 74.338 125.359 74.338C125.263 74.338 125.167 74.344 125.071 74.356C124.987 74.356 124.915 74.362 124.855 74.374C124.771 74.386 124.699 74.392 124.639 74.392V76.66C124.699 76.672 124.771 76.684 124.855 76.696C124.915 76.708 124.987 76.714 125.071 76.714C125.167 76.714 125.263 76.714 125.359 76.714C125.791 76.714 126.097 76.624 126.277 76.444C126.457 76.264 126.547 75.958 126.547 75.526ZM130.219 69.28H132.919V79H130.219V69.28ZM135.088 69.28H137.788V73.834C137.788 74.002 137.782 74.17 137.77 74.338C137.77 74.494 137.764 74.638 137.752 74.77C137.74 74.926 137.734 75.076 137.734 75.22H137.806C137.866 75.076 137.932 74.926 138.004 74.77C138.064 74.638 138.136 74.488 138.22 74.32C138.304 74.14 138.394 73.96 138.49 73.78L140.884 69.28H143.548V79H140.848V74.536C140.848 74.344 140.848 74.158 140.848 73.978C140.848 73.798 140.854 73.642 140.866 73.51C140.878 73.354 140.89 73.204 140.902 73.06H140.83C140.77 73.204 140.704 73.354 140.632 73.51C140.572 73.642 140.5 73.798 140.416 73.978C140.332 74.146 140.242 74.32 140.146 74.5L137.752 79H135.088V69.28ZM139.318 67.84C138.826 67.84 138.382 67.798 137.986 67.714C137.602 67.618 137.272 67.462 136.996 67.246C136.72 67.03 136.504 66.736 136.348 66.364C136.192 65.992 136.102 65.524 136.078 64.96H138.166C138.214 65.5 138.328 65.866 138.508 66.058C138.688 66.238 138.958 66.328 139.318 66.328C139.678 66.328 139.954 66.238 140.146 66.058C140.338 65.866 140.458 65.5 140.506 64.96H142.558C142.534 65.524 142.444 65.992 142.288 66.364C142.132 66.736 141.916 67.03 141.64 67.246C141.364 67.462 141.028 67.618 140.632 67.714C140.248 67.798 139.81 67.84 139.318 67.84ZM149.377 65.32H151.825L147.073 82.24H144.625L149.377 65.32ZM152.912 69.28H155.612V72.79H156.494L158.294 69.28H161.282L158.6 73.888L161.552 79H158.492L156.512 75.13H155.612V79H152.912V69.28ZM166.648 79.252C165.112 79.252 163.96 78.85 163.192 78.046C162.436 77.23 162.058 75.928 162.058 74.14C162.058 72.388 162.448 71.098 163.228 70.27C164.008 69.442 165.148 69.028 166.648 69.028C167.44 69.028 168.124 69.124 168.7 69.316C169.276 69.496 169.75 69.796 170.122 70.216C170.506 70.624 170.788 71.152 170.968 71.8C171.148 72.448 171.238 73.228 171.238 74.14C171.238 75.928 170.854 77.23 170.086 78.046C169.318 78.85 168.172 79.252 166.648 79.252ZM166.648 76.84C166.948 76.84 167.206 76.798 167.422 76.714C167.65 76.618 167.842 76.468 167.998 76.264C168.154 76.06 168.268 75.784 168.34 75.436C168.424 75.088 168.466 74.656 168.466 74.14C168.466 73.624 168.43 73.192 168.358 72.844C168.286 72.496 168.172 72.22 168.016 72.016C167.86 71.812 167.668 71.668 167.44 71.584C167.212 71.488 166.948 71.44 166.648 71.44C166.348 71.44 166.084 71.488 165.856 71.584C165.628 71.668 165.436 71.818 165.28 72.034C165.136 72.238 165.022 72.514 164.938 72.862C164.866 73.21 164.83 73.636 164.83 74.14C164.83 74.656 164.866 75.088 164.938 75.436C165.022 75.784 165.136 76.06 165.28 76.264C165.436 76.468 165.628 76.618 165.856 76.714C166.084 76.798 166.348 76.84 166.648 76.84ZM172.863 69.28H176.337L177.885 74.05L179.487 69.28H182.943V79H180.423V73.78C180.423 73.552 180.423 73.33 180.423 73.114C180.435 72.898 180.447 72.706 180.459 72.538C180.471 72.334 180.483 72.148 180.495 71.98H180.423C180.375 72.148 180.327 72.334 180.279 72.538C180.231 72.706 180.171 72.898 180.099 73.114C180.039 73.33 179.973 73.552 179.901 73.78L178.731 77.128H177.039L175.923 73.78C175.851 73.552 175.779 73.33 175.707 73.114C175.647 72.898 175.593 72.706 175.545 72.538C175.485 72.334 175.431 72.148 175.383 71.98H175.311C175.323 72.148 175.335 72.334 175.347 72.538C175.359 72.706 175.365 72.898 175.365 73.114C175.377 73.33 175.383 73.552 175.383 73.78V79H172.863V69.28ZM185.098 69.28H193.198V79H190.498V71.692H187.798V79H185.098V69.28ZM199.413 79.252C197.877 79.252 196.725 78.85 195.957 78.046C195.201 77.23 194.823 75.928 194.823 74.14C194.823 72.388 195.213 71.098 195.993 70.27C196.773 69.442 197.913 69.028 199.413 69.028C200.205 69.028 200.889 69.124 201.465 69.316C202.041 69.496 202.515 69.796 202.887 70.216C203.271 70.624 203.553 71.152 203.733 71.8C203.913 72.448 204.003 73.228 204.003 74.14C204.003 75.928 203.619 77.23 202.851 78.046C202.083 78.85 200.937 79.252 199.413 79.252ZM199.413 76.84C199.713 76.84 199.971 76.798 200.187 76.714C200.415 76.618 200.607 76.468 200.763 76.264C200.919 76.06 201.033 75.784 201.105 75.436C201.189 75.088 201.231 74.656 201.231 74.14C201.231 73.624 201.195 73.192 201.123 72.844C201.051 72.496 200.937 72.22 200.781 72.016C200.625 71.812 200.433 71.668 200.205 71.584C199.977 71.488 199.713 71.44 199.413 71.44C199.113 71.44 198.849 71.488 198.621 71.584C198.393 71.668 198.201 71.818 198.045 72.034C197.901 72.238 197.787 72.514 197.703 72.862C197.631 73.21 197.595 73.636 197.595 74.14C197.595 74.656 197.631 75.088 197.703 75.436C197.787 75.784 197.901 76.06 198.045 76.264C198.201 76.468 198.393 76.618 198.621 76.714C198.849 76.798 199.113 76.84 199.413 76.84ZM205.629 69.28H208.329V72.844H211.209V69.28H213.909V79H211.209V75.256H208.329V79H205.629V69.28ZM220.21 79.252C219.346 79.252 218.614 79.144 218.014 78.928C217.426 78.712 216.946 78.388 216.574 77.956C216.214 77.512 215.95 76.96 215.782 76.3C215.614 75.64 215.53 74.86 215.53 73.96C215.53 72.304 215.92 71.068 216.7 70.252C217.48 69.436 218.59 69.028 220.03 69.028C220.834 69.028 221.506 69.136 222.046 69.352C222.598 69.556 223.042 69.856 223.378 70.252C223.726 70.648 223.972 71.128 224.116 71.692C224.272 72.244 224.35 72.868 224.35 73.564V74.86H218.23C218.278 75.628 218.482 76.18 218.842 76.516C219.202 76.852 219.778 77.02 220.57 77.02C220.882 77.02 221.194 76.996 221.506 76.948C221.83 76.888 222.136 76.81 222.424 76.714C222.712 76.618 222.976 76.504 223.216 76.372C223.456 76.24 223.654 76.102 223.81 75.958V78.37C223.402 78.622 222.922 78.832 222.37 79C221.83 79.168 221.11 79.252 220.21 79.252ZM220.03 71.08C219.442 71.08 219.004 71.248 218.716 71.584C218.44 71.92 218.278 72.472 218.23 73.24H221.65C221.65 72.508 221.536 71.968 221.308 71.62C221.08 71.26 220.654 71.08 220.03 71.08ZM225.967 69.28H228.667V72.844H231.547V69.28H234.247V79H231.547V75.256H228.667V79H225.967V69.28ZM238.298 71.692H235.688V69.28H243.608V71.692H240.998V79H238.298V71.692ZM245.057 69.28H247.757V72.844H250.637V69.28H253.337V79H250.637V75.256H247.757V79H245.057V69.28ZM258.558 79.126C258.198 79.126 257.832 79.12 257.46 79.108C257.1 79.108 256.776 79.096 256.488 79.072C256.14 79.048 255.81 79.024 255.498 79V69.28H258.198V71.98C258.306 71.98 258.42 71.974 258.54 71.962C258.636 71.95 258.75 71.944 258.882 71.944C259.014 71.932 259.146 71.926 259.278 71.926C260.562 71.926 261.48 72.202 262.032 72.754C262.596 73.306 262.878 74.23 262.878 75.526C262.878 76.15 262.8 76.69 262.644 77.146C262.5 77.59 262.254 77.962 261.906 78.262C261.57 78.55 261.126 78.766 260.574 78.91C260.034 79.054 259.362 79.126 258.558 79.126ZM260.106 75.526C260.106 75.094 260.016 74.788 259.836 74.608C259.656 74.428 259.35 74.338 258.918 74.338C258.822 74.338 258.726 74.344 258.63 74.356C258.546 74.356 258.474 74.362 258.414 74.374C258.33 74.386 258.258 74.392 258.198 74.392V76.66C258.258 76.672 258.33 76.684 258.414 76.696C258.474 76.708 258.546 76.714 258.63 76.714C258.726 76.714 258.822 76.714 258.918 76.714C259.35 76.714 259.656 76.624 259.836 76.444C260.016 76.264 260.106 75.958 260.106 75.526ZM263.778 69.28H266.478V79H263.778V69.28ZM268.646 69.28H271.346V73.834C271.346 74.002 271.34 74.17 271.328 74.338C271.328 74.494 271.322 74.638 271.31 74.77C271.298 74.926 271.292 75.076 271.292 75.22H271.364C271.424 75.076 271.49 74.926 271.562 74.77C271.622 74.638 271.694 74.488 271.778 74.32C271.862 74.14 271.952 73.96 272.048 73.78L274.442 69.28H277.106V79H274.406V74.536C274.406 74.344 274.406 74.158 274.406 73.978C274.406 73.798 274.412 73.642 274.424 73.51C274.436 73.354 274.448 73.204 274.46 73.06H274.388C274.328 73.204 274.262 73.354 274.19 73.51C274.13 73.642 274.058 73.798 273.974 73.978C273.89 74.146 273.8 74.32 273.704 74.5L271.31 79H268.646V69.28ZM272.876 67.84C272.384 67.84 271.94 67.798 271.544 67.714C271.16 67.618 270.83 67.462 270.554 67.246C270.278 67.03 270.062 66.736 269.906 66.364C269.75 65.992 269.66 65.524 269.636 64.96H271.724C271.772 65.5 271.886 65.866 272.066 66.058C272.246 66.238 272.516 66.328 272.876 66.328C273.236 66.328 273.512 66.238 273.704 66.058C273.896 65.866 274.016 65.5 274.064 64.96H276.116C276.092 65.524 276.002 65.992 275.846 66.364C275.69 66.736 275.474 67.03 275.198 67.246C274.922 67.462 274.586 67.618 274.19 67.714C273.806 67.798 273.368 67.84 272.876 67.84ZM13.72 98.146C14.356 97.57 15.01 97.024 15.682 96.508C16.354 95.98 16.966 95.464 17.518 94.96C18.082 94.444 18.538 93.928 18.886 93.412C19.246 92.884 19.426 92.332 19.426 91.756C19.426 90.436 18.724 89.776 17.32 89.776C16.648 89.776 16.012 89.896 15.412 90.136C14.824 90.364 14.32 90.676 13.9 91.072V87.976C14.356 87.736 14.926 87.538 15.61 87.382C16.294 87.226 17.038 87.148 17.842 87.148C18.706 87.148 19.426 87.25 20.002 87.454C20.578 87.646 21.04 87.916 21.388 88.264C21.736 88.6 21.982 89.002 22.126 89.47C22.27 89.926 22.342 90.424 22.342 90.964C22.342 91.636 22.222 92.26 21.982 92.836C21.754 93.4 21.436 93.946 21.028 94.474C20.62 94.99 20.128 95.494 19.552 95.986C18.988 96.478 18.376 96.976 17.716 97.48H22.36V100H13.72V98.146ZM47.2056 87.4H50.0136V93.88C50.0136 94.156 50.0076 94.426 49.9956 94.69C49.9956 94.942 49.9896 95.17 49.9776 95.374C49.9656 95.614 49.9596 95.836 49.9596 96.04H49.9956C50.0796 95.836 50.1756 95.614 50.2836 95.374C50.3796 95.17 50.4876 94.942 50.6076 94.69C50.7276 94.426 50.8536 94.156 50.9856 93.88L54.4416 87.4H57.6456V100H54.8376V93.52C54.8376 93.244 54.8376 92.98 54.8376 92.728C54.8376 92.476 54.8436 92.248 54.8556 92.044C54.8676 91.816 54.8796 91.588 54.8916 91.36H54.8556C54.7716 91.588 54.6756 91.816 54.5676 92.044C54.4716 92.248 54.3636 92.476 54.2436 92.728C54.1236 92.98 53.9976 93.244 53.8656 93.52L50.4096 100H47.2056V87.4ZM60.1698 90.28H62.8698V93.844H65.7498V90.28H68.4498V100H65.7498V96.256H62.8698V100H60.1698V90.28ZM72.5013 92.692H69.8913V90.28H77.8113V92.692H75.2013V100H72.5013V92.692ZM83.3997 100.252C82.5357 100.252 81.8037 100.144 81.2037 99.928C80.6157 99.712 80.1357 99.388 79.7637 98.956C79.4037 98.512 79.1397 97.96 78.9717 97.3C78.8037 96.64 78.7197 95.86 78.7197 94.96C78.7197 93.304 79.1097 92.068 79.8897 91.252C80.6697 90.436 81.7797 90.028 83.2197 90.028C84.0237 90.028 84.6957 90.136 85.2357 90.352C85.7877 90.556 86.2317 90.856 86.5677 91.252C86.9157 91.648 87.1617 92.128 87.3057 92.692C87.4617 93.244 87.5397 93.868 87.5397 94.564V95.86H81.4197C81.4677 96.628 81.6717 97.18 82.0317 97.516C82.3917 97.852 82.9677 98.02 83.7597 98.02C84.0717 98.02 84.3837 97.996 84.6957 97.948C85.0197 97.888 85.3257 97.81 85.6137 97.714C85.9017 97.618 86.1657 97.504 86.4057 97.372C86.6457 97.24 86.8437 97.102 86.9997 96.958V99.37C86.5917 99.622 86.1117 99.832 85.5597 100C85.0197 100.168 84.2997 100.252 83.3997 100.252ZM83.2197 92.08C82.6317 92.08 82.1937 92.248 81.9057 92.584C81.6297 92.92 81.4677 93.472 81.4197 94.24H84.8397C84.8397 93.508 84.7257 92.968 84.4977 92.62C84.2697 92.26 83.8437 92.08 83.2197 92.08ZM89.1562 90.28H95.5462V92.692H91.8562V100H89.1562V90.28ZM96.9784 90.28H99.5884L99.6784 91.63C99.9064 91.186 100.248 90.808 100.704 90.496C101.16 90.184 101.778 90.028 102.558 90.028C103.158 90.028 103.674 90.118 104.106 90.298C104.538 90.478 104.892 90.772 105.168 91.18C105.444 91.576 105.648 92.092 105.78 92.728C105.912 93.364 105.978 94.138 105.978 95.05C105.978 96.898 105.678 98.23 105.078 99.046C104.49 99.85 103.56 100.252 102.288 100.252C101.904 100.252 101.568 100.204 101.28 100.108C101.004 100.024 100.758 99.91 100.542 99.766C100.338 99.622 100.164 99.46 100.02 99.28C99.8884 99.1 99.7744 98.92 99.6784 98.74V103.24H96.9784V90.28ZM103.206 95.05C103.206 94.546 103.17 94.126 103.098 93.79C103.026 93.454 102.912 93.19 102.756 92.998C102.612 92.794 102.426 92.65 102.198 92.566C101.982 92.482 101.73 92.44 101.442 92.44C100.878 92.44 100.44 92.614 100.128 92.962C99.8284 93.31 99.6784 93.898 99.6784 94.726V95.554C99.6784 96.382 99.8284 96.97 100.128 97.318C100.44 97.666 100.884 97.84 101.46 97.84C101.748 97.84 102 97.798 102.216 97.714C102.432 97.63 102.612 97.486 102.756 97.282C102.912 97.066 103.026 96.778 103.098 96.418C103.17 96.058 103.206 95.602 103.206 95.05ZM109.81 100.252C108.91 100.252 108.226 100.012 107.758 99.532C107.29 99.04 107.056 98.296 107.056 97.3C107.056 96.784 107.122 96.334 107.254 95.95C107.386 95.566 107.602 95.248 107.902 94.996C108.202 94.744 108.592 94.558 109.072 94.438C109.552 94.306 110.14 94.24 110.836 94.24H112.456V93.754C112.456 93.274 112.336 92.938 112.096 92.746C111.856 92.542 111.406 92.44 110.746 92.44C110.17 92.44 109.618 92.512 109.09 92.656C108.574 92.8 108.166 92.962 107.866 93.142V90.55C108.25 90.406 108.73 90.286 109.306 90.19C109.894 90.082 110.536 90.028 111.232 90.028C111.976 90.028 112.594 90.094 113.086 90.226C113.59 90.346 113.992 90.55 114.292 90.838C114.604 91.114 114.826 91.486 114.958 91.954C115.09 92.41 115.156 92.974 115.156 93.646V100H112.726L112.636 98.56C112.48 99.016 112.168 99.412 111.7 99.748C111.232 100.084 110.602 100.252 109.81 100.252ZM110.926 98.02C111.394 98.02 111.766 97.876 112.042 97.588C112.318 97.3 112.456 96.874 112.456 96.31V95.86H111.196C110.68 95.86 110.32 95.95 110.116 96.13C109.924 96.31 109.828 96.61 109.828 97.03C109.828 97.69 110.194 98.02 110.926 98.02ZM123.906 100H117.228V90.28H119.928V97.606H122.448V90.28H125.148V97.606H126.318V102.34H123.906V100ZM127.846 90.28H130.546V94.834C130.546 95.002 130.54 95.17 130.528 95.338C130.528 95.494 130.522 95.638 130.51 95.77C130.498 95.926 130.492 96.076 130.492 96.22H130.564C130.624 96.076 130.69 95.926 130.762 95.77C130.822 95.638 130.894 95.488 130.978 95.32C131.062 95.14 131.152 94.96 131.248 94.78L133.642 90.28H136.306V100H133.606V95.536C133.606 95.344 133.606 95.158 133.606 94.978C133.606 94.798 133.612 94.642 133.624 94.51C133.636 94.354 133.648 94.204 133.66 94.06H133.588C133.528 94.204 133.462 94.354 133.39 94.51C133.33 94.642 133.258 94.798 133.174 94.978C133.09 95.146 133 95.32 132.904 95.5L130.51 100H127.846V90.28ZM142.513 100.252C140.977 100.252 139.825 99.85 139.057 99.046C138.301 98.23 137.923 96.928 137.923 95.14C137.923 93.388 138.313 92.098 139.093 91.27C139.873 90.442 141.013 90.028 142.513 90.028C143.305 90.028 143.989 90.124 144.565 90.316C145.141 90.496 145.615 90.796 145.987 91.216C146.371 91.624 146.653 92.152 146.833 92.8C147.013 93.448 147.103 94.228 147.103 95.14C147.103 96.928 146.719 98.23 145.951 99.046C145.183 99.85 144.037 100.252 142.513 100.252ZM142.513 97.84C142.813 97.84 143.071 97.798 143.287 97.714C143.515 97.618 143.707 97.468 143.863 97.264C144.019 97.06 144.133 96.784 144.205 96.436C144.289 96.088 144.331 95.656 144.331 95.14C144.331 94.624 144.295 94.192 144.223 93.844C144.151 93.496 144.037 93.22 143.881 93.016C143.725 92.812 143.533 92.668 143.305 92.584C143.077 92.488 142.813 92.44 142.513 92.44C142.213 92.44 141.949 92.488 141.721 92.584C141.493 92.668 141.301 92.818 141.145 93.034C141.001 93.238 140.887 93.514 140.803 93.862C140.731 94.21 140.695 94.636 140.695 95.14C140.695 95.656 140.731 96.088 140.803 96.436C140.887 96.784 141.001 97.06 141.145 97.264C141.301 97.468 141.493 97.618 141.721 97.714C141.949 97.798 142.213 97.84 142.513 97.84ZM148.728 90.28H151.428V93.844H154.308V90.28H157.008V100H154.308V96.256H151.428V100H148.728V90.28ZM159.17 90.28H161.87V93.844H164.75V90.28H167.45V100H164.75V96.256H161.87V100H159.17V90.28ZM172.671 100.126C172.311 100.126 171.945 100.12 171.573 100.108C171.213 100.108 170.889 100.096 170.601 100.072C170.253 100.048 169.923 100.024 169.611 100V90.28H172.311V92.98C172.419 92.98 172.533 92.974 172.653 92.962C172.749 92.95 172.863 92.944 172.995 92.944C173.127 92.932 173.259 92.926 173.391 92.926C174.675 92.926 175.593 93.202 176.145 93.754C176.709 94.306 176.991 95.23 176.991 96.526C176.991 97.15 176.913 97.69 176.757 98.146C176.613 98.59 176.367 98.962 176.019 99.262C175.683 99.55 175.239 99.766 174.687 99.91C174.147 100.054 173.475 100.126 172.671 100.126ZM174.219 96.526C174.219 96.094 174.129 95.788 173.949 95.608C173.769 95.428 173.463 95.338 173.031 95.338C172.935 95.338 172.839 95.344 172.743 95.356C172.659 95.356 172.587 95.362 172.527 95.374C172.443 95.386 172.371 95.392 172.311 95.392V97.66C172.371 97.672 172.443 97.684 172.527 97.696C172.587 97.708 172.659 97.714 172.743 97.714C172.839 97.714 172.935 97.714 173.031 97.714C173.463 97.714 173.769 97.624 173.949 97.444C174.129 97.264 174.219 96.958 174.219 96.526ZM177.891 90.28H180.591V100H177.891V90.28ZM182.76 90.28H185.46V94.834C185.46 95.002 185.454 95.17 185.442 95.338C185.442 95.494 185.436 95.638 185.424 95.77C185.412 95.926 185.406 96.076 185.406 96.22H185.478C185.538 96.076 185.604 95.926 185.676 95.77C185.736 95.638 185.808 95.488 185.892 95.32C185.976 95.14 186.066 94.96 186.162 94.78L188.556 90.28H191.22V100H188.52V95.536C188.52 95.344 188.52 95.158 188.52 94.978C188.52 94.798 188.526 94.642 188.538 94.51C188.55 94.354 188.562 94.204 188.574 94.06H188.502C188.442 94.204 188.376 94.354 188.304 94.51C188.244 94.642 188.172 94.798 188.088 94.978C188.004 95.146 187.914 95.32 187.818 95.5L185.424 100H182.76V90.28ZM186.99 88.84C186.498 88.84 186.054 88.798 185.658 88.714C185.274 88.618 184.944 88.462 184.668 88.246C184.392 88.03 184.176 87.736 184.02 87.364C183.864 86.992 183.774 86.524 183.75 85.96H185.838C185.886 86.5 186 86.866 186.18 87.058C186.36 87.238 186.63 87.328 186.99 87.328C187.35 87.328 187.626 87.238 187.818 87.058C188.01 86.866 188.13 86.5 188.178 85.96H190.23C190.206 86.524 190.116 86.992 189.96 87.364C189.804 87.736 189.588 88.03 189.312 88.246C189.036 88.462 188.7 88.618 188.304 88.714C187.92 88.798 187.482 88.84 186.99 88.84ZM15.916 113.494H17.086C17.854 113.494 18.37 113.374 18.634 113.134C18.898 112.894 19.03 112.51 19.03 111.982C19.03 111.778 19 111.598 18.94 111.442C18.892 111.286 18.796 111.16 18.652 111.064C18.508 110.956 18.304 110.878 18.04 110.83C17.788 110.77 17.464 110.74 17.068 110.74C16.48 110.74 15.898 110.842 15.322 111.046C14.746 111.238 14.242 111.484 13.81 111.784V108.976C14.074 108.868 14.368 108.766 14.692 108.67C15.028 108.574 15.37 108.49 15.718 108.418C16.078 108.346 16.432 108.292 16.78 108.256C17.128 108.22 17.464 108.202 17.788 108.202C18.64 108.202 19.336 108.28 19.876 108.436C20.428 108.58 20.86 108.796 21.172 109.084C21.484 109.36 21.7 109.696 21.82 110.092C21.94 110.488 22 110.938 22 111.442C22 113.002 21.256 114.01 19.768 114.466C20.692 114.598 21.352 114.922 21.748 115.438C22.156 115.942 22.36 116.596 22.36 117.4C22.36 117.988 22.276 118.516 22.108 118.984C21.952 119.452 21.682 119.854 21.298 120.19C20.926 120.514 20.428 120.766 19.804 120.946C19.18 121.126 18.406 121.216 17.482 121.216C16.798 121.216 16.108 121.144 15.412 121C14.728 120.856 14.134 120.664 13.63 120.424V117.472C14.074 117.808 14.602 118.09 15.214 118.318C15.838 118.534 16.468 118.642 17.104 118.642C17.572 118.642 17.956 118.612 18.256 118.552C18.556 118.48 18.784 118.384 18.94 118.264C19.108 118.132 19.222 117.976 19.282 117.796C19.342 117.604 19.372 117.388 19.372 117.148C19.372 116.932 19.342 116.74 19.282 116.572C19.234 116.392 19.132 116.242 18.976 116.122C18.82 116.002 18.61 115.912 18.346 115.852C18.082 115.792 17.734 115.762 17.302 115.762H15.916V113.494ZM52.3356 121.252C51.3276 121.252 50.4516 121.132 49.7076 120.892C48.9756 120.652 48.3696 120.268 47.8896 119.74C47.4096 119.212 47.0556 118.528 46.8276 117.688C46.5996 116.848 46.4856 115.822 46.4856 114.61C46.4856 113.47 46.6056 112.492 46.8456 111.676C47.0856 110.86 47.4456 110.194 47.9256 109.678C48.4056 109.15 49.0116 108.766 49.7436 108.526C50.4756 108.274 51.3396 108.148 52.3356 108.148C52.7556 108.148 53.1576 108.184 53.5416 108.256C53.9256 108.316 54.2616 108.388 54.5496 108.472C54.8856 108.568 55.1976 108.67 55.4856 108.778V111.586C55.1376 111.37 54.7176 111.184 54.2256 111.028C53.7456 110.86 53.1456 110.776 52.4256 110.776C51.9096 110.776 51.4596 110.842 51.0756 110.974C50.7036 111.106 50.3916 111.322 50.1396 111.622C49.8876 111.922 49.7016 112.318 49.5816 112.81C49.4616 113.29 49.4016 113.89 49.4016 114.61C49.4016 115.366 49.4616 116.002 49.5816 116.518C49.7016 117.034 49.8876 117.448 50.1396 117.76C50.3916 118.072 50.7036 118.294 51.0756 118.426C51.4596 118.558 51.9096 118.624 52.4256 118.624C53.1456 118.624 53.7636 118.528 54.2796 118.336C54.7956 118.144 55.1976 117.94 55.4856 117.724V120.532C55.2336 120.664 54.9456 120.784 54.6216 120.892C54.3456 120.988 54.0096 121.072 53.6136 121.144C53.2296 121.216 52.8036 121.252 52.3356 121.252ZM57.1991 111.28H59.8991V115.834C59.8991 116.002 59.8931 116.17 59.8811 116.338C59.8811 116.494 59.8751 116.638 59.8631 116.77C59.8511 116.926 59.8451 117.076 59.8451 117.22H59.9171C59.9771 117.076 60.0431 116.926 60.1151 116.77C60.1751 116.638 60.2471 116.488 60.3311 116.32C60.4151 116.14 60.5051 115.96 60.6011 115.78L62.9951 111.28H65.6591V121H62.9591V116.536C62.9591 116.344 62.9591 116.158 62.9591 115.978C62.9591 115.798 62.9651 115.642 62.9771 115.51C62.9891 115.354 63.0011 115.204 63.0131 115.06H62.9411C62.8811 115.204 62.8151 115.354 62.7431 115.51C62.6831 115.642 62.6111 115.798 62.5271 115.978C62.4431 116.146 62.3531 116.32 62.2571 116.5L59.8631 121H57.1991V111.28ZM71.9563 121.252C71.1403 121.252 70.4323 121.162 69.8323 120.982C69.2443 120.79 68.7583 120.49 68.3743 120.082C68.0023 119.662 67.7263 119.122 67.5463 118.462C67.3663 117.802 67.2763 116.998 67.2763 116.05C67.2763 114.31 67.6603 113.038 68.4283 112.234C69.2083 111.43 70.3843 111.028 71.9563 111.028C72.3763 111.028 72.7603 111.058 73.1083 111.118C73.4563 111.178 73.7503 111.238 73.9903 111.298C74.2783 111.37 74.5303 111.454 74.7463 111.55V114.322C74.4463 114.082 74.1043 113.878 73.7203 113.71C73.3483 113.53 72.8803 113.44 72.3163 113.44C71.5243 113.44 70.9483 113.638 70.5883 114.034C70.2283 114.418 70.0483 115.09 70.0483 116.05C70.0483 117.082 70.2403 117.808 70.6243 118.228C71.0083 118.636 71.6323 118.84 72.4963 118.84C72.9523 118.84 73.3963 118.762 73.8283 118.606C74.2723 118.438 74.6083 118.24 74.8363 118.012V120.604C74.6083 120.724 74.3443 120.832 74.0443 120.928C73.7923 121.012 73.4863 121.084 73.1263 121.144C72.7663 121.216 72.3763 121.252 71.9563 121.252ZM78.3548 113.692H75.7448V111.28H83.6648V113.692H81.0548V121H78.3548V113.692ZM89.2532 121.252C88.3892 121.252 87.6572 121.144 87.0572 120.928C86.4692 120.712 85.9892 120.388 85.6172 119.956C85.2572 119.512 84.9932 118.96 84.8252 118.3C84.6572 117.64 84.5732 116.86 84.5732 115.96C84.5732 114.304 84.9632 113.068 85.7432 112.252C86.5232 111.436 87.6332 111.028 89.0732 111.028C89.8772 111.028 90.5492 111.136 91.0892 111.352C91.6412 111.556 92.0852 111.856 92.4212 112.252C92.7692 112.648 93.0152 113.128 93.1592 113.692C93.3152 114.244 93.3932 114.868 93.3932 115.564V116.86H87.2732C87.3212 117.628 87.5252 118.18 87.8852 118.516C88.2452 118.852 88.8212 119.02 89.6132 119.02C89.9252 119.02 90.2372 118.996 90.5492 118.948C90.8732 118.888 91.1792 118.81 91.4672 118.714C91.7552 118.618 92.0192 118.504 92.2592 118.372C92.4992 118.24 92.6972 118.102 92.8532 117.958V120.37C92.4452 120.622 91.9652 120.832 91.4132 121C90.8732 121.168 90.1532 121.252 89.2532 121.252ZM89.0732 113.08C88.4852 113.08 88.0472 113.248 87.7592 113.584C87.4832 113.92 87.3212 114.472 87.2732 115.24H90.6932C90.6932 114.508 90.5792 113.968 90.3512 113.62C90.1232 113.26 89.6972 113.08 89.0732 113.08ZM95.0097 111.28H98.4837L100.032 116.05L101.634 111.28H105.09V121H102.57V115.78C102.57 115.552 102.57 115.33 102.57 115.114C102.582 114.898 102.594 114.706 102.606 114.538C102.618 114.334 102.63 114.148 102.642 113.98H102.57C102.522 114.148 102.474 114.334 102.426 114.538C102.378 114.706 102.318 114.898 102.246 115.114C102.186 115.33 102.12 115.552 102.048 115.78L100.878 119.128H99.1857L98.0697 115.78C97.9977 115.552 97.9257 115.33 97.8537 115.114C97.7937 114.898 97.7397 114.706 97.6917 114.538C97.6317 114.334 97.5777 114.148 97.5297 113.98H97.4577C97.4697 114.148 97.4817 114.334 97.4937 114.538C97.5057 114.706 97.5117 114.898 97.5117 115.114C97.5237 115.33 97.5297 115.552 97.5297 115.78V121H95.0097V111.28ZM107.244 111.28H109.944V114.844H112.824V111.28H115.524V121H112.824V117.256H109.944V121H107.244V111.28ZM120.745 121.126C120.385 121.126 120.019 121.12 119.647 121.108C119.287 121.108 118.963 121.096 118.675 121.072C118.327 121.048 117.997 121.024 117.685 121V111.28H120.385V113.98C120.493 113.98 120.607 113.974 120.727 113.962C120.823 113.95 120.937 113.944 121.069 113.944C121.201 113.932 121.333 113.926 121.465 113.926C122.749 113.926 123.667 114.202 124.219 114.754C124.783 115.306 125.065 116.23 125.065 117.526C125.065 118.15 124.987 118.69 124.831 119.146C124.687 119.59 124.441 119.962 124.093 120.262C123.757 120.55 123.313 120.766 122.761 120.91C122.221 121.054 121.549 121.126 120.745 121.126ZM122.293 117.526C122.293 117.094 122.203 116.788 122.023 116.608C121.843 116.428 121.537 116.338 121.105 116.338C121.009 116.338 120.913 116.344 120.817 116.356C120.733 116.356 120.661 116.362 120.601 116.374C120.517 116.386 120.445 116.392 120.385 116.392V118.66C120.445 118.672 120.517 118.684 120.601 118.696C120.661 118.708 120.733 118.714 120.817 118.714C120.913 118.714 121.009 118.714 121.105 118.714C121.537 118.714 121.843 118.624 122.023 118.444C122.203 118.264 122.293 117.958 122.293 117.526ZM125.965 111.28H128.665V121H125.965V111.28ZM130.834 111.28H133.534V115.834C133.534 116.002 133.528 116.17 133.516 116.338C133.516 116.494 133.51 116.638 133.498 116.77C133.486 116.926 133.48 117.076 133.48 117.22H133.552C133.612 117.076 133.678 116.926 133.75 116.77C133.81 116.638 133.882 116.488 133.966 116.32C134.05 116.14 134.14 115.96 134.236 115.78L136.63 111.28H139.294V121H136.594V116.536C136.594 116.344 136.594 116.158 136.594 115.978C136.594 115.798 136.6 115.642 136.612 115.51C136.624 115.354 136.636 115.204 136.648 115.06H136.576C136.516 115.204 136.45 115.354 136.378 115.51C136.318 115.642 136.246 115.798 136.162 115.978C136.078 116.146 135.988 116.32 135.892 116.5L133.498 121H130.834V111.28ZM135.064 109.84C134.572 109.84 134.128 109.798 133.732 109.714C133.348 109.618 133.018 109.462 132.742 109.246C132.466 109.03 132.25 108.736 132.094 108.364C131.938 107.992 131.848 107.524 131.824 106.96H133.912C133.96 107.5 134.074 107.866 134.254 108.058C134.434 108.238 134.704 108.328 135.064 108.328C135.424 108.328 135.7 108.238 135.892 108.058C136.084 107.866 136.204 107.5 136.252 106.96H138.304C138.28 107.524 138.19 107.992 138.034 108.364C137.878 108.736 137.662 109.03 137.386 109.246C137.11 109.462 136.774 109.618 136.378 109.714C135.994 109.798 135.556 109.84 135.064 109.84ZM18.832 139.21H13.27V137.608L18.094 129.4H21.64V136.69H22.99V139.21H21.64V142H18.832V139.21ZM18.814 136.69V132.28L16.312 136.69H18.814ZM47.2056 129.4H56.9256V142H54.1176V131.92H50.0136V142H47.2056V129.4ZM59.4491 132.28H62.0591L62.1491 133.63C62.3771 133.186 62.7191 132.808 63.1751 132.496C63.6311 132.184 64.2491 132.028 65.0291 132.028C65.6291 132.028 66.1451 132.118 66.5771 132.298C67.0091 132.478 67.3631 132.772 67.6391 133.18C67.9151 133.576 68.1191 134.092 68.2511 134.728C68.3831 135.364 68.4491 136.138 68.4491 137.05C68.4491 138.898 68.1491 140.23 67.5491 141.046C66.9611 141.85 66.0311 142.252 64.7591 142.252C64.3751 142.252 64.0391 142.204 63.7511 142.108C63.4751 142.024 63.2291 141.91 63.0131 141.766C62.8091 141.622 62.6351 141.46 62.4911 141.28C62.3591 141.1 62.2451 140.92 62.1491 140.74V145.24H59.4491V132.28ZM65.6771 137.05C65.6771 136.546 65.6411 136.126 65.5691 135.79C65.4971 135.454 65.3831 135.19 65.2271 134.998C65.0831 134.794 64.8971 134.65 64.6691 134.566C64.4531 134.482 64.2011 134.44 63.9131 134.44C63.3491 134.44 62.9111 134.614 62.5991 134.962C62.2991 135.31 62.1491 135.898 62.1491 136.726V137.554C62.1491 138.382 62.2991 138.97 62.5991 139.318C62.9111 139.666 63.3551 139.84 63.9311 139.84C64.2191 139.84 64.4711 139.798 64.6871 139.714C64.9031 139.63 65.0831 139.486 65.2271 139.282C65.3831 139.066 65.4971 138.778 65.5691 138.418C65.6411 138.058 65.6771 137.602 65.6771 137.05ZM70.0663 132.28H72.7663V136.834C72.7663 137.002 72.7603 137.17 72.7483 137.338C72.7483 137.494 72.7423 137.638 72.7303 137.77C72.7183 137.926 72.7123 138.076 72.7123 138.22H72.7843C72.8443 138.076 72.9103 137.926 72.9823 137.77C73.0423 137.638 73.1143 137.488 73.1983 137.32C73.2823 137.14 73.3723 136.96 73.4683 136.78L75.8623 132.28H78.5263V142H75.8263V137.536C75.8263 137.344 75.8263 137.158 75.8263 136.978C75.8263 136.798 75.8323 136.642 75.8443 136.51C75.8563 136.354 75.8683 136.204 75.8803 136.06H75.8083C75.7483 136.204 75.6823 136.354 75.6103 136.51C75.5503 136.642 75.4783 136.798 75.3943 136.978C75.3103 137.146 75.2203 137.32 75.1243 137.5L72.7303 142H70.0663V132.28ZM84.8235 142.252C83.9595 142.252 83.2275 142.144 82.6275 141.928C82.0395 141.712 81.5595 141.388 81.1875 140.956C80.8275 140.512 80.5635 139.96 80.3955 139.3C80.2275 138.64 80.1435 137.86 80.1435 136.96C80.1435 135.304 80.5335 134.068 81.3135 133.252C82.0935 132.436 83.2035 132.028 84.6435 132.028C85.4475 132.028 86.1195 132.136 86.6595 132.352C87.2115 132.556 87.6555 132.856 87.9915 133.252C88.3395 133.648 88.5855 134.128 88.7295 134.692C88.8855 135.244 88.9635 135.868 88.9635 136.564V137.86H82.8435C82.8915 138.628 83.0955 139.18 83.4555 139.516C83.8155 139.852 84.3915 140.02 85.1835 140.02C85.4955 140.02 85.8075 139.996 86.1195 139.948C86.4435 139.888 86.7495 139.81 87.0375 139.714C87.3255 139.618 87.5895 139.504 87.8295 139.372C88.0695 139.24 88.2675 139.102 88.4235 138.958V141.37C88.0155 141.622 87.5355 141.832 86.9835 142C86.4435 142.168 85.7235 142.252 84.8235 142.252ZM84.6435 134.08C84.0555 134.08 83.6175 134.248 83.3295 134.584C83.0535 134.92 82.8915 135.472 82.8435 136.24H86.2635C86.2635 135.508 86.1495 134.968 85.9215 134.62C85.6935 134.26 85.2675 134.08 84.6435 134.08ZM82.5555 130.768C82.0155 130.768 81.6255 130.654 81.3855 130.426C81.1575 130.198 81.0435 129.856 81.0435 129.4C81.0435 128.944 81.1575 128.602 81.3855 128.374C81.6255 128.146 82.0155 128.032 82.5555 128.032C83.0955 128.032 83.4795 128.146 83.7075 128.374C83.9475 128.602 84.0675 128.944 84.0675 129.4C84.0675 129.856 83.9475 130.198 83.7075 130.426C83.4795 130.654 83.0955 130.768 82.5555 130.768ZM86.5515 130.768C86.0115 130.768 85.6215 130.654 85.3815 130.426C85.1535 130.198 85.0395 129.856 85.0395 129.4C85.0395 128.944 85.1535 128.602 85.3815 128.374C85.6215 128.146 86.0115 128.032 86.5515 128.032C87.0915 128.032 87.4755 128.146 87.7035 128.374C87.9435 128.602 88.0635 128.944 88.0635 129.4C88.0635 129.856 87.9435 130.198 87.7035 130.426C87.4755 130.654 87.0915 130.768 86.5515 130.768ZM90.58 132.28H94.054L95.602 137.05L97.204 132.28H100.66V142H98.14V136.78C98.14 136.552 98.14 136.33 98.14 136.114C98.152 135.898 98.164 135.706 98.176 135.538C98.188 135.334 98.2 135.148 98.212 134.98H98.14C98.092 135.148 98.044 135.334 97.996 135.538C97.948 135.706 97.888 135.898 97.816 136.114C97.756 136.33 97.69 136.552 97.618 136.78L96.448 140.128H94.756L93.64 136.78C93.568 136.552 93.496 136.33 93.424 136.114C93.364 135.898 93.31 135.706 93.262 135.538C93.202 135.334 93.148 135.148 93.1 134.98H93.028C93.04 135.148 93.052 135.334 93.064 135.538C93.076 135.706 93.082 135.898 93.082 136.114C93.094 136.33 93.1 136.552 93.1 136.78V142H90.58V132.28ZM106.864 142.252C105.328 142.252 104.176 141.85 103.408 141.046C102.652 140.23 102.274 138.928 102.274 137.14C102.274 135.388 102.664 134.098 103.444 133.27C104.224 132.442 105.364 132.028 106.864 132.028C107.656 132.028 108.34 132.124 108.916 132.316C109.492 132.496 109.966 132.796 110.338 133.216C110.722 133.624 111.004 134.152 111.184 134.8C111.364 135.448 111.454 136.228 111.454 137.14C111.454 138.928 111.07 140.23 110.302 141.046C109.534 141.85 108.388 142.252 106.864 142.252ZM106.864 139.84C107.164 139.84 107.422 139.798 107.638 139.714C107.866 139.618 108.058 139.468 108.214 139.264C108.37 139.06 108.484 138.784 108.556 138.436C108.64 138.088 108.682 137.656 108.682 137.14C108.682 136.624 108.646 136.192 108.574 135.844C108.502 135.496 108.388 135.22 108.232 135.016C108.076 134.812 107.884 134.668 107.656 134.584C107.428 134.488 107.164 134.44 106.864 134.44C106.564 134.44 106.3 134.488 106.072 134.584C105.844 134.668 105.652 134.818 105.496 135.034C105.352 135.238 105.238 135.514 105.154 135.862C105.082 136.21 105.046 136.636 105.046 137.14C105.046 137.656 105.082 138.088 105.154 138.436C105.238 138.784 105.352 139.06 105.496 139.264C105.652 139.468 105.844 139.618 106.072 139.714C106.3 139.798 106.564 139.84 106.864 139.84ZM117.76 138.688C117.592 138.772 117.406 138.838 117.202 138.886C117.034 138.934 116.824 138.976 116.572 139.012C116.332 139.048 116.068 139.066 115.78 139.066C113.74 139.066 112.72 138.004 112.72 135.88V132.28H115.42V135.16C115.42 135.736 115.51 136.132 115.69 136.348C115.87 136.552 116.17 136.654 116.59 136.654C116.926 136.654 117.208 136.612 117.436 136.528C117.556 136.48 117.664 136.432 117.76 136.384V132.28H120.46V142H117.76V138.688ZM122.625 132.28H125.325V135.844H128.205V132.28H130.905V142H128.205V138.256H125.325V142H122.625V132.28ZM136.126 142.126C135.766 142.126 135.4 142.12 135.028 142.108C134.668 142.108 134.344 142.096 134.056 142.072C133.708 142.048 133.378 142.024 133.066 142V132.28H135.766V134.98C135.874 134.98 135.988 134.974 136.108 134.962C136.204 134.95 136.318 134.944 136.45 134.944C136.582 134.932 136.714 134.926 136.846 134.926C138.13 134.926 139.048 135.202 139.6 135.754C140.164 136.306 140.446 137.23 140.446 138.526C140.446 139.15 140.368 139.69 140.212 140.146C140.068 140.59 139.822 140.962 139.474 141.262C139.138 141.55 138.694 141.766 138.142 141.91C137.602 142.054 136.93 142.126 136.126 142.126ZM137.674 138.526C137.674 138.094 137.584 137.788 137.404 137.608C137.224 137.428 136.918 137.338 136.486 137.338C136.39 137.338 136.294 137.344 136.198 137.356C136.114 137.356 136.042 137.362 135.982 137.374C135.898 137.386 135.826 137.392 135.766 137.392V139.66C135.826 139.672 135.898 139.684 135.982 139.696C136.042 139.708 136.114 139.714 136.198 139.714C136.294 139.714 136.39 139.714 136.486 139.714C136.918 139.714 137.224 139.624 137.404 139.444C137.584 139.264 137.674 138.958 137.674 138.526ZM141.346 132.28H144.046V142H141.346V132.28ZM146.215 132.28H148.915V136.834C148.915 137.002 148.909 137.17 148.897 137.338C148.897 137.494 148.891 137.638 148.879 137.77C148.867 137.926 148.861 138.076 148.861 138.22H148.933C148.993 138.076 149.059 137.926 149.131 137.77C149.191 137.638 149.263 137.488 149.347 137.32C149.431 137.14 149.521 136.96 149.617 136.78L152.011 132.28H154.675V142H151.975V137.536C151.975 137.344 151.975 137.158 151.975 136.978C151.975 136.798 151.981 136.642 151.993 136.51C152.005 136.354 152.017 136.204 152.029 136.06H151.957C151.897 136.204 151.831 136.354 151.759 136.51C151.699 136.642 151.627 136.798 151.543 136.978C151.459 137.146 151.369 137.32 151.273 137.5L148.879 142H146.215V132.28ZM150.445 130.84C149.953 130.84 149.509 130.798 149.113 130.714C148.729 130.618 148.399 130.462 148.123 130.246C147.847 130.03 147.631 129.736 147.475 129.364C147.319 128.992 147.229 128.524 147.205 127.96H149.293C149.341 128.5 149.455 128.866 149.635 129.058C149.815 129.238 150.085 129.328 150.445 129.328C150.805 129.328 151.081 129.238 151.273 129.058C151.465 128.866 151.585 128.5 151.633 127.96H153.685C153.661 128.524 153.571 128.992 153.415 129.364C153.259 129.736 153.043 130.03 152.767 130.246C152.491 130.462 152.155 130.618 151.759 130.714C151.375 130.798 150.937 130.84 150.445 130.84Z" fill="#FEFEFE"/>
</svg>
