<svg width="180" height="300" viewBox="0 0 180 300" fill="none" xmlns="http://www.w3.org/2000/svg">
    <path fill-rule="evenodd" clip-rule="evenodd" d="M118.395 12.7144C113.908 9.42085 108.346 8.09866 102.838 8.47122C95.7448 9.75931 90.3055 13.2376 86.2407 19.1953C84.9256 21.1231 83.8999 23.1904 82.8869 25.287C74.9086 22.4381 66.5586 21.9609 58.7246 25.6326C51.9409 28.8128 47.1334 34.9322 44.604 41.884C44.2901 42.7472 44.0364 43.635 43.7851 44.518C39.2827 42.7559 34.694 41.5233 29.9942 43.5161C26.252 45.1022 23.7091 48.4307 22.3076 52.1626C21.5911 54.0705 21.1741 56.0173 20.8095 58.0181C16.0297 57.2468 12.1099 57.7145 8.08075 60.7179C4.52006 63.3733 1.91613 67.5499 1.38028 71.9857C1.35121 72.2436 1.32876 72.5023 1.31291 72.7618C1.29706 73.0212 1.28806 73.2807 1.28595 73.5402C1.28331 73.8002 1.28727 74.0599 1.29784 74.3194C1.30841 74.5788 1.32585 74.8378 1.35016 75.0962C1.37394 75.3551 1.40459 75.613 1.44211 75.8698C1.4791 76.1272 1.52269 76.3832 1.5729 76.6379C1.6231 76.8926 1.67992 77.146 1.74333 77.3981C1.80622 77.6502 1.87571 77.9004 1.9518 78.1488C2.0279 78.3971 2.11034 78.6434 2.19911 78.8875C2.28737 79.1317 2.38196 79.3735 2.48289 79.6128C2.58383 79.8522 2.69084 80.0887 2.80392 80.3223C2.91701 80.5564 3.03591 80.7873 3.16063 81.0151C3.28587 81.2428 3.41665 81.4672 3.55299 81.6881C3.68933 81.9095 3.83122 82.1269 3.97866 82.3404C4.1261 82.5544 4.27882 82.7645 4.43683 82.9706C4.59484 83.1767 4.75812 83.3786 4.9267 83.5762C8.29556 87.5713 12.8574 89.0559 17.9059 89.4008C22.655 89.7251 27.48 89.6781 32.279 89.6314C34.1644 89.613 36.0458 89.5947 37.917 89.5989L74.8088 89.6711L139.142 89.7503C141.159 89.7441 143.523 89.8026 146.027 89.8645C152.453 90.0234 159.797 90.2049 164.53 89.3738C164.976 89.293 165.418 89.1949 165.857 89.0797C166.296 88.9645 166.73 88.8329 167.158 88.685C167.586 88.5365 168.009 88.3719 168.425 88.1911C168.841 88.0104 169.249 87.8141 169.65 87.6022C170.051 87.3903 170.443 87.1633 170.827 86.9213C171.21 86.6793 171.584 86.423 171.948 86.1524C172.311 85.8813 172.664 85.597 173.007 85.2995C173.349 85.0014 173.679 84.691 173.997 84.3681C174.197 84.1593 174.392 83.9458 174.582 83.7276C174.772 83.5094 174.957 83.2866 175.136 83.0594C175.315 82.8321 175.489 82.6009 175.657 82.3658C175.825 82.1301 175.987 81.8904 176.143 81.6468C176.3 81.4037 176.45 81.157 176.595 80.9065C176.739 80.6555 176.878 80.4013 177.01 80.1439C177.143 79.8871 177.269 79.6268 177.389 79.3631C177.508 79.1 177.621 78.8339 177.728 78.5649C177.835 78.2959 177.936 78.0246 178.029 77.7509C178.123 77.4771 178.21 77.2013 178.291 76.9233C178.371 76.6453 178.445 76.3658 178.512 76.0846C178.579 75.803 178.639 75.52 178.692 75.2357C178.745 74.9514 178.792 74.666 178.831 74.3796C178.871 74.0927 178.903 73.8052 178.929 73.5172C178.955 73.2292 178.973 72.9407 178.985 72.6516C178.997 72.362 179.001 72.0727 178.999 71.7836C178.917 66.5845 176.337 61.9553 172.587 58.4786C168.286 54.4922 163.834 52.6144 158.005 52.872C157.762 52.8828 157.448 52.9134 157.108 52.9467C156.247 53.0307 155.214 53.1317 154.695 52.9727C154.284 52.8467 153.947 51.8942 153.448 50.4876C151.63 45.3555 147.669 34.1785 130.176 35.0408L129.47 35.0773C128.099 26.3309 125.93 18.2457 118.395 12.7144ZM112.034 14.4931C108.836 13.1931 105.663 12.8903 102.249 13.1971C95.6152 15.281 91.3879 18.6959 88.1141 24.9429C87.9115 25.3295 87.7143 25.7271 87.5155 26.1279C86.7222 27.7275 85.9039 29.3773 84.6153 30.5741C82.9761 30.9209 81.0977 30.1057 79.3114 29.3303C78.432 28.9487 77.5749 28.5767 76.7797 28.3578C67.7044 25.8585 57.6208 29.3129 52.447 37.2436C50.7932 39.7785 49.6532 43.1319 48.6218 46.1659C47.7258 48.8017 46.9117 51.1964 45.9138 52.6041C44.9721 52.6738 44.5108 52.6175 43.7902 51.9406C43.3573 51.5341 42.9544 51.1289 42.5641 50.7363C40.696 48.8574 39.1163 47.2686 35.9166 47.2234C33.6218 47.1909 30.9466 48.2404 29.3279 49.8741C27.3188 51.9028 26.9327 55.1973 26.6045 57.9982C26.3367 60.2828 26.1075 62.2389 25.0673 62.912C24.0815 62.911 23.0926 62.8729 22.1081 62.8349C17.5753 62.6602 13.1366 62.4892 9.52616 65.9622C7.34631 68.058 6.04315 70.895 6.14303 73.9436C6.15624 74.3093 6.18821 74.6731 6.23894 75.0351C6.28967 75.3976 6.35916 75.7564 6.44741 76.1116C6.53567 76.4667 6.64189 76.8163 6.76608 77.1603C6.89026 77.5043 7.03188 77.8409 7.19094 78.1701C7.35054 78.4999 7.52651 78.8204 7.71886 79.1317C7.91122 79.4424 8.11917 79.7425 8.3427 80.0321C8.56623 80.3217 8.8043 80.5992 9.0569 80.8644C9.30897 81.1292 9.57425 81.3802 9.85274 81.6175C10.2517 81.9515 10.6705 82.2585 11.1091 82.5386C11.5477 82.8181 12.0025 83.0683 12.4733 83.2892C12.9447 83.5101 13.428 83.6998 13.9231 83.8584C14.4188 84.0164 14.9227 84.1419 15.4347 84.2349C19.9618 85.0445 25.0258 84.9188 29.8767 84.7984C31.6467 84.7545 33.3884 84.7113 35.0653 84.7145L70.2822 84.8635L132.051 84.8793L151.03 84.999C151.881 85.0032 152.745 85.0219 153.614 85.0406C156.356 85.0998 159.159 85.1602 161.814 84.7739C165.063 84.3015 168.108 83.0276 170.45 80.6782C170.755 80.3717 171.043 80.0501 171.315 79.7135C171.587 79.3774 171.841 79.0278 172.077 78.6648C172.313 78.3023 172.529 77.9286 172.726 77.5439C172.924 77.1587 173.1 76.7645 173.256 76.3613C173.412 75.9581 173.547 75.5477 173.661 75.1302C173.775 74.7128 173.867 74.2908 173.938 73.8643C174.007 73.4374 174.055 73.008 174.081 72.5762C174.107 72.1445 174.11 71.7125 174.091 71.2802C173.923 67.2852 171.788 64.0534 168.886 61.4408C166.205 59.0271 162.654 57.1183 158.952 57.4322C158.293 57.488 157.541 57.6175 156.749 57.7539C154.345 58.1681 151.571 58.646 149.889 57.3181C149.08 56.0684 148.87 54.6308 148.66 53.1862C148.6 52.7733 148.539 52.3599 148.465 51.9501C147.363 45.8901 143.991 41.7627 137.798 40.4318C136.724 40.2011 134.901 40.2469 132.963 40.2955C129.633 40.3791 125.964 40.4711 125.176 39.1833C124.495 38.0705 124.315 36.2839 124.16 34.7515C124.115 34.3038 124.072 33.8778 124.019 33.4967C122.92 25.5478 120.133 17.7835 112.034 14.4931Z" fill="#FEFEFE"/>
    <path d="M114.287 26.3926C114.936 26.4932 115.681 26.5709 116.292 26.8111C117.309 27.2114 117.64 27.8313 118.075 28.765C118.048 30.1712 117.624 30.8078 116.837 31.95C116.304 31.8454 115.685 31.6892 115.193 31.4395C114.306 30.9893 113.621 30.1609 113.435 29.1764C113.211 27.993 113.689 27.3295 114.287 26.3926Z" fill="#FEFEFE"/>
    <path d="M138.725 61.8848C138.878 61.8871 139.03 61.8832 139.182 61.8927C140.409 61.968 141.763 62.2359 142.491 63.3496C142.992 64.113 143.056 64.9461 142.758 65.7942C142.362 66.919 141.428 67.4509 140.47 68.0185C139.242 67.7299 138.255 67.5009 137.394 66.4823C136.803 65.7847 136.38 64.7487 136.628 63.8316C136.947 62.6576 137.776 62.4032 138.725 61.8848Z" fill="#FEFEFE"/>
    <path d="M148.596 61.8125C149.922 61.8569 151.392 61.9893 152.342 63.0403C153.034 63.8061 153.247 64.5845 153.099 65.6015C152.927 66.7952 151.922 67.4936 151.049 68.1856C149.929 68.1325 148.496 67.9636 147.693 67.056C146.986 66.2562 146.697 65.542 146.778 64.4608C146.866 63.2639 147.768 62.5426 148.596 61.8125Z" fill="#FEFEFE"/>
    <path d="M108.95 37.6801C110.19 37.5953 111.567 37.363 112.615 38.2096C113.332 38.789 113.754 39.4818 113.768 40.4188C113.787 41.7441 113.083 42.6288 112.288 43.5974C110.906 43.6965 109.395 43.9493 108.245 42.9791C107.537 42.3822 107.198 41.6522 107.258 40.7248C107.341 39.4359 108.122 38.5782 108.95 37.6801Z" fill="#FEFEFE"/>
    <path d="M49.8238 56.849C51.8237 56.5683 54.2952 56.2774 56.1398 57.3008C56.919 57.7336 56.9364 57.9856 57.2051 58.7807C56.7969 59.7953 56.4656 60.2987 55.6571 61.0358C53.8949 61.1254 51.3631 61.4615 49.7207 60.7655C48.6839 60.3264 48.6435 60.1639 48.3232 59.1747C48.5912 58.0594 49.0525 57.648 49.8238 56.849Z" fill="#FEFEFE"/>
    <path d="M117.114 37.6833C118.486 37.5795 119.934 37.451 121.196 38.1248C122.23 38.6765 122.444 39.1577 122.829 40.2222C122.662 41.5563 122.282 42.1326 121.445 43.1694C119.994 43.3018 118.293 43.6268 116.971 42.8357C115.951 42.2253 115.893 41.8512 115.62 40.785C115.93 39.4034 116.23 38.7907 117.114 37.6833Z" fill="#FEFEFE"/>
    <path d="M126.794 50.7037C128.316 50.6815 130.113 50.7775 131.183 52.0568C131.828 52.8289 132.107 53.4916 131.992 54.5062C131.863 55.6556 130.992 56.3587 130.19 57.0752C128.716 57.206 127.152 57.2694 125.991 56.1692C125.265 55.482 124.878 54.572 124.984 53.5708C125.119 52.2867 125.935 51.559 126.794 50.7037Z" fill="#FEFEFE"/>
    <path d="M122.628 61.0176C123.903 61.3021 125.107 61.7183 125.919 62.8106C126.5 63.5938 126.707 64.5735 126.441 65.5184C125.986 67.137 124.711 67.7363 123.317 68.3863C122.082 67.8813 120.586 67.3637 119.878 66.1367C119.533 65.5382 119.408 64.9262 119.565 64.2636C119.97 62.5538 121.232 61.8713 122.628 61.0176Z" fill="#FEFEFE"/>
    <path d="M97.7568 26.6806C99.9827 26.6489 102.628 26.5466 104.266 28.3405C104.892 29.0253 105.389 30.2643 105.249 31.2242C105.097 32.2729 104.846 32.4005 104.054 32.9871C103.088 33.0109 102.977 32.9903 102.152 32.4925C99.7131 30.7906 97.2495 31.8385 94.5695 30.7763C93.6737 30.4212 93.386 30.1771 93.0547 29.2901C93.1197 29.1577 93.168 29.0158 93.2481 28.8922C94.2064 27.417 96.1588 27.0175 97.7568 26.6806Z" fill="#FEFEFE"/>
    <path d="M133.216 45.5273C134.516 45.6764 135.884 45.9776 137.076 46.5206C139.149 47.4631 141.282 48.8994 142.034 51.1609C142.596 52.8477 142.098 53.9226 141.298 55.3906C140.925 55.45 140.592 55.5214 140.207 55.4968C138.869 55.4104 134.117 50.1661 132.742 48.8938C132.421 47.6351 132.87 46.7655 133.216 45.5273Z" fill="#FEFEFE"/>
    <path d="M102.45 19.0754C105.473 18.8368 108.983 18.8764 111.817 20.0551C113.042 20.5648 113.746 21.1815 114.222 22.4506C114.234 23.6349 113.774 24.1517 113.096 25.0458C110.811 24.8928 108.39 24.2492 106.163 23.7054C104.568 23.3162 102.708 22.9254 101.797 21.4439C101.731 20.2493 101.841 20.1217 102.45 19.0754Z" fill="#FEFEFE"/>
    <path d="M34.6384 56.7706C35.5251 56.7161 36.4121 56.6686 37.2994 56.6279C40.0032 56.5074 42.164 56.612 44.2662 58.5303C44.3986 59.0217 44.649 59.3 44.259 59.7494C42.8846 61.3324 40.2759 61.074 38.4456 60.9535L36.9514 60.8964C35.8369 61.6661 35.0125 62.2194 33.6737 62.4889C32.7859 62.1631 31.9441 61.7644 31.5073 60.8409C31.1237 60.0292 31.0872 59.3245 31.5969 58.5588C32.3095 57.4903 33.4819 57.136 34.6384 56.7706Z" fill="#FEFEFE"/>
    <path d="M123.171 74.5877C126.891 74.5624 131.319 74.0606 134.938 74.7732C136.232 75.0285 136.842 75.4177 137.559 76.5044C137.611 77.7235 137.198 78.2681 136.549 79.228C133.334 79.7647 128.391 80.0659 125.202 79.465C123.902 79.2201 123.29 78.8507 122.552 77.7711C122.369 76.5329 122.737 75.7149 123.171 74.5877Z" fill="#FEFEFE"/>
    <path d="M70.4544 57.5966C74.1506 57.3683 85.0895 56.551 88.066 58.4749C88.7318 58.9053 88.498 58.6794 88.7144 59.5672C88.0977 60.7918 87.4683 61.1755 86.3372 61.8398C82.4903 61.8968 72.7499 62.8338 69.4493 61.2754C68.6772 60.9107 68.6399 60.7348 68.376 59.9833C68.9301 58.6825 69.3636 58.4487 70.4544 57.5966Z" fill="#FEFEFE"/>
    <path d="M72.2718 35.0176L73.6099 35.2712C74.4826 36.0465 74.6403 36.1432 74.9518 37.2529C74.0117 39.6286 67.0933 41.3185 64.7525 42.999C62.5957 44.5471 61.2212 46.4939 59.7198 48.6317C59.2855 48.5271 59.027 48.4851 58.6014 48.2845C57.7065 47.8621 57.3593 47.2319 57.001 46.3702C57.1445 45.4206 57.4179 44.842 57.9728 44.0493C61.2196 39.409 66.7477 35.9727 72.2718 35.0176Z" fill="#FEFEFE"/>
    <path d="M97.4186 75.1199C102.17 75.0232 111.371 74.0482 115.776 75.3902C116.797 75.701 117.109 75.984 117.621 76.8939C117.526 77.276 117.466 77.6066 117.257 77.9577C116.633 79.0048 115.55 79.2973 114.469 79.6223C110.124 79.6421 98.4031 80.9231 95.4345 78.5665C94.9344 77.49 94.9011 77.4948 95.1936 76.351C95.9339 75.605 96.4111 75.4021 97.4186 75.1199Z" fill="#FEFEFE"/>
    <path d="M158.283 62.2745C158.555 62.242 158.829 62.2198 159.103 62.2063C161.844 62.0708 164.233 62.8524 166.245 64.7619C168.029 66.4543 169.161 68.8275 169.184 71.3039C169.206 73.4441 168.434 75.4884 166.908 77.0024C162.705 81.1695 153.809 79.8259 148.27 79.8203C147.363 79.4232 146.596 78.9619 146.038 78.1042C145.486 77.2552 145.456 76.8985 145.686 75.9981C148.772 73.4956 156.715 76.09 160.762 74.9557C162.578 74.446 163.824 73.0287 164.749 71.4624C164.787 70.9971 164.93 70.5865 164.679 70.1616C163.324 67.8684 159.258 68.0769 157.102 66.8443C156.15 66.2989 156.175 65.924 156.038 64.9522C156.568 63.6371 157.167 63.1251 158.283 62.2745Z" fill="#FEFEFE"/>
    <path d="M20.2978 66.7056C30.7404 66.1175 41.4486 66.6264 51.9175 66.6375C57.7539 66.6438 65.0759 66.0311 70.7776 66.6842C72.5523 66.888 74.0228 67.4817 75.1721 68.8601C75.2308 69.3992 75.3885 69.6298 75.031 70.0999C74.3462 70.9988 73.1152 71.342 72.0363 71.4974C69.0519 71.927 65.5586 71.4442 62.5211 71.4189C54.24 71.3475 45.9534 71.4807 37.6708 71.4625C32.4217 71.4506 24.7684 70.6587 19.7778 71.8905C18.5515 72.1933 17.766 72.5167 17.0858 73.5916C17.2618 73.9776 17.2444 74.0125 17.5916 74.3676C18.6934 75.4932 20.381 75.4607 21.8284 75.4615L51.9793 75.4036C56.4785 75.3933 61.4573 74.9383 65.8994 75.4599C66.7532 75.5606 67.5292 75.8412 68.0872 76.5205C68.8149 77.4059 68.8807 77.6223 68.742 78.6829C68.2188 79.2426 67.6362 79.4867 66.8998 79.6841C62.6328 80.8247 43.8933 80.078 38.5427 80.0852C32.6531 80.0931 26.2618 80.6131 20.4238 80.0717C18.4722 79.891 16.504 79.3852 14.822 78.3484C13.5149 77.5423 12.4019 76.3485 12.1158 74.7957C11.8185 73.1778 12.3607 71.6503 13.2969 70.3432C15.0867 67.8447 17.4108 67.2645 20.2978 66.7056Z" fill="#FEFEFE"/>
    <path d="M154.148 146.278C147.068 156.387 140.171 166.618 133.458 176.973C131.645 179.719 126.094 189.891 123.469 190.925C122.738 191.212 122.118 191.164 120.787 190.654C119.678 189.709 119.614 189.512 119.027 188.547C119.522 186.118 121.22 184.262 122.489 182.315L129.248 172.078L141.715 153.594C143.701 150.666 145.389 147.476 147.639 144.733C148.115 144.152 148.683 143.436 149.643 143.235C150.348 143.088 150.842 143.273 151.932 143.767C153.185 144.752 153.521 145.298 154.148 146.278Z" fill="#FEFEFE"/>
    <path d="M85.8108 154.53C95.2346 141.684 104.478 128.709 113.541 115.607C115.981 112.128 123.744 99.3674 126.786 97.853C127.633 97.4321 128.303 97.424 129.673 97.8944C130.727 98.909 130.764 99.1387 131.245 100.232C130.3 103.192 128.134 105.592 126.422 108.056L117.328 121.023L100.62 144.463C97.9618 148.177 95.5851 152.174 92.6687 155.695C92.0516 156.44 91.3106 157.357 90.228 157.699C89.4328 157.95 88.9237 157.779 87.8146 157.304C86.6085 156.256 86.3328 155.638 85.8108 154.53Z" fill="#FEFEFE"/>
    <path d="M58.6825 128.742C48.6452 141.115 38.7817 153.625 29.092 166.271C26.486 169.627 18.1115 181.995 15 183.36C14.1335 183.739 13.4641 183.714 12.1185 183.178C11.1145 182.113 11.0886 181.882 10.662 180.766C11.7497 177.857 14.0296 175.564 15.8591 173.186L25.5728 160.677L43.4012 138.077C46.237 134.497 48.8052 130.62 51.8893 127.245C52.542 126.531 53.3266 125.651 54.4246 125.362C55.2311 125.15 55.7313 125.345 56.8159 125.874C57.9696 126.98 58.2149 127.61 58.6825 128.742Z" fill="#FEFEFE"/>
</svg>
