<svg width="180" height="300" viewBox="0 0 180 300" fill="none" xmlns="http://www.w3.org/2000/svg">
    <g opacity="0.5">
        <path d="M40.7187 150C40.8777 150.14 41.0497 150.267 41.1947 150.422C43.7867 153.203 46.0807 159.537 47.7747 163.118C52.2007 172.478 55.9407 183.092 51.1287 193.129C47.5787 200.531 45.5487 203.314 45.6457 211.782C48.1487 208.683 50.6027 205.404 53.4497 202.613C64.2747 191.999 76.5917 193.804 90.4267 193.984C89.1707 196.736 87.7407 199.159 85.9437 201.593C79.3997 210.455 72.1047 218.141 60.1877 218.112C55.5237 218.1 50.9257 217.56 46.2917 218.279C46.0607 218.315 45.8297 218.356 45.5987 218.394L45.5327 297.368C45.4767 298.073 45.5587 297.633 45.0717 298.627C42.8597 299.3 40.3337 298.92 38.0447 298.811L37.9587 234.79C36.8877 234.783 35.8327 234.752 34.7647 234.668C25.7147 233.963 16.8907 231.702 10.8227 224.365C5.20169 217.569 5.7237 209.791 6.4187 201.598C9.6027 201.936 12.8007 202.254 15.9197 203C29.0107 206.129 32.1727 217.096 38.4727 227.199C38.5754 219.467 38.5273 211.736 38.3287 204.006C35.2697 199.859 32.2657 195.822 30.7027 190.834C26.3697 177.01 34.3657 161.938 40.7187 150Z" fill="#FEFEFE"/>
        <path d="M133.561 10.0441C136.218 9.88163 138.713 10.1301 141.086 11.4341C145.375 13.7905 146.614 17.858 147.865 22.2638C148.472 22.1313 148.245 22.2122 148.714 22.0186C149.125 21.8497 149.534 21.6739 149.965 21.5612C152.966 20.775 157.015 21.3771 159.627 23.0104C161.653 24.2775 163.415 26.4536 163.878 28.8502C164.17 30.36 163.947 31.355 163.102 32.6081C162.665 32.861 162.401 33.1362 161.876 33.0999C159.228 32.9177 158.61 28.9853 157.117 27.3366C155.76 25.8383 152.961 25.4395 151.031 25.3363C148.632 25.2076 147.956 27.0015 146.277 28.2845C145.609 28.7948 145.203 28.7776 144.423 28.6234C141.919 26.281 143.22 20.5642 141.095 17.3701C140.251 16.103 137.826 15.6093 136.44 15.3436C128.332 13.7918 130.977 21.6472 127.163 24.1711C123.329 24.4489 124.027 19.6086 120.402 17.2726L120.07 17.0636C117.899 16.8133 116.118 16.726 114.015 17.4943C113.396 17.9224 112.738 18.3556 112.219 18.9072C110.02 21.2484 110.858 23.7921 110.921 26.6269C110.944 27.6163 110.777 28.6043 109.975 29.2802C108.589 30.4485 105.734 29.7618 103.999 29.7618C101.623 29.7612 99.4658 30.4785 97.8119 32.2495C92.7552 37.6618 97.0061 40.847 97.2401 46.4447C96.8771 47.0836 96.4767 47.555 95.781 47.8538C95.053 48.166 94.3579 47.9366 93.7122 47.5569C91.6888 46.3676 90.5927 43.1441 90.2253 40.947C89.546 36.8871 90.4005 33.3375 92.8216 30.0332C95.9607 25.7497 100.759 24.5858 105.683 23.8991C105.669 23.2939 105.656 22.6843 105.696 22.0791C105.901 19.0066 107.773 15.7826 110.104 13.8491C110.26 13.7213 110.42 13.5973 110.584 13.4771C110.746 13.3573 110.912 13.2416 111.081 13.1299C111.25 13.0182 111.421 12.911 111.595 12.8082C111.769 12.705 111.946 12.6065 112.125 12.5126C112.304 12.4183 112.485 12.3287 112.668 12.2438C112.852 12.1584 113.037 12.0779 113.224 12.0024C113.411 11.9268 113.601 11.8558 113.792 11.7896C113.983 11.7233 114.175 11.6619 114.369 11.6055C114.563 11.549 114.758 11.4974 114.954 11.4507C115.151 11.4039 115.348 11.3621 115.547 11.3252C115.745 11.2882 115.945 11.2564 116.145 11.2296C116.345 11.2029 116.545 11.1812 116.747 11.1646C116.948 11.1477 117.15 11.136 117.351 11.1296C117.553 11.1228 117.755 11.1211 117.956 11.1245C118.158 11.1283 118.36 11.137 118.562 11.1506C118.763 11.1642 118.964 11.1829 119.165 11.2067C122.025 11.5545 124.148 12.9783 125.92 15.1946C128.304 12.4107 129.87 10.8232 133.561 10.0441Z" fill="#FEFEFE"/>
    </g>
</svg>
