<svg width="180" height="300" viewBox="0 0 180 300" fill="none" xmlns="http://www.w3.org/2000/svg">
    <g opacity="0.5">
        <path fill-rule="evenodd" clip-rule="evenodd" d="M69.2197 104.04C68.0667 104.1 66.9144 104.17 65.7627 104.251C56.4486 106.508 49.3047 111.848 44.3012 120.022C40.1765 126.761 38.9018 134.501 39.5019 142.307C32.6679 144.827 27.788 148.213 24.6496 155.086C21.807 161.312 21.8368 167.529 23.9392 173.935C15.498 182.556 9.89119 191.285 10.0016 203.768C10.0905 213.828 14.5543 223.187 21.7065 230.15C31.1371 239.33 43.0794 242.64 55.1463 245.985C59.7311 247.256 64.3339 248.531 68.8237 250.136C68.8281 251.468 68.7975 254.202 68.7584 257.694C68.6171 270.322 68.3649 292.862 69.2512 294.849C69.3939 295.168 69.6701 295.397 69.9462 295.626C70.0836 295.74 70.2209 295.854 70.3417 295.979C72.7124 296.871 74.6221 297.022 76.997 296.061L77.0295 296.014C77.5442 295.277 77.9018 294.764 78.1902 293.89C77.973 278.967 77.8738 264.043 77.8926 249.118C82.1183 247.785 86.3648 246.687 90.5477 245.606C107.364 241.258 123.152 237.177 132.422 219.162C136.762 210.729 138.47 200.648 135.543 191.476C132.996 183.495 127.726 179.398 121.401 174.491C123.365 166.662 124.26 158.777 119.844 151.478C116.461 145.884 111.206 143.14 105.286 141.009C105.273 140.907 105.258 140.804 105.243 140.701C105.215 140.503 105.187 140.306 105.168 140.106C104.151 129.107 101.159 120.833 92.805 113.171C86.1245 107.044 78.385 103.583 69.2197 104.04ZM85.7879 118.799C81.628 115.496 76.0485 114.051 70.7981 114.243C64.1962 115.245 57.8395 117.751 53.8226 123.385C48.5474 130.783 49.8304 137.109 50.8503 142.138C51.4112 144.904 51.8924 147.277 51.1594 149.22C50.7063 150.421 49.4737 150.857 48.3322 151.113C47.1957 151.367 46.0472 151.528 44.9134 151.687C41.3333 152.189 37.8986 152.67 35.4433 156.003C32.9421 159.398 32.3039 163.2 33.0719 167.285C33.2399 168.179 33.4893 169.114 33.7438 170.068C34.5792 173.199 35.4705 176.539 33.7277 179.35C32.5831 181.196 30.5702 182.83 28.6568 184.383C27.7708 185.102 26.9061 185.804 26.1588 186.502C20.7671 191.538 18.9785 200.807 20.2565 207.845C21.7296 215.957 27.6712 222.875 34.3968 227.331C42.5881 232.76 51.108 234.54 60.0559 236.409C62.8162 236.986 65.6173 237.571 68.462 238.275L68.5133 232.037C61.2013 226.449 54.4999 219.912 47.8349 213.411C44.6877 210.341 41.5485 207.279 38.357 204.329C39.7268 201.292 41.3456 198.861 43.5702 196.374C51.7087 204.513 60.1746 212.065 68.947 219.511L68.9491 202.424C62.1305 195.181 55.2301 188.017 48.2482 180.932C49.6768 178.465 51.0748 176.598 53.0675 174.536C57.5122 177.858 61.6522 181.647 65.7672 185.412C66.9764 186.519 68.1834 187.623 69.3954 188.713C69.3754 187.164 69.2903 185.127 69.1953 182.851C68.8966 175.697 68.4992 166.178 69.7128 161.991C69.9539 161.158 70.522 160.533 71.0887 159.909C71.1449 159.848 71.2011 159.786 71.2569 159.724C71.4062 159.694 71.552 159.664 71.695 159.635C73.1259 159.34 74.2707 159.104 75.7584 159.656C78.4241 162.441 78.0895 176.635 77.9003 184.664C77.8602 186.363 77.8267 187.785 77.8294 188.766C78.9087 187.804 80.0529 186.595 81.2501 185.329C84.201 182.21 87.4735 178.75 90.8875 177.831C92.4847 178.136 92.6145 178.263 93.772 179.396L93.7935 179.417C94.4084 180.998 94.3644 182.205 93.6982 183.743C91.8505 188.008 88.1087 191.815 84.4358 195.552C82.0383 197.992 79.6703 200.401 77.8776 202.888L77.8158 220.058C85.5302 212.555 93.3074 205.133 101.541 198.198C101.977 198.641 102.415 199.083 102.854 199.524C104.405 201.083 105.959 202.646 107.383 204.315C99.6118 212.622 86.6741 225.663 77.6199 232.146L77.7414 238.369C78.0424 238.311 78.344 238.254 78.6464 238.196C94.2871 235.213 111.695 231.892 121.361 217.893C125.273 212.224 127.352 205.518 126.126 198.626C124.49 189.424 120.982 187.192 117.147 184.753C114.887 183.315 112.513 181.805 110.342 178.753L109.988 178.263C109.734 177.905 109.494 177.538 109.253 177.171L109.22 177.12C112.183 170.777 115.049 163.843 112.463 156.768C111.621 154.463 109.911 152.946 107.674 152.017C106.23 151.417 104.252 151.226 102.238 151.032C99.0737 150.726 95.8213 150.413 94.4137 148.492C94.0898 146.145 94.2528 143.746 94.4152 141.357C94.4934 140.207 94.5714 139.06 94.5949 137.922C94.7426 130.881 91.3306 123.2 85.7879 118.799Z" fill="#FEFEFE"/>
        <path d="M141.603 272.131C143.53 271.981 145.419 271.905 147.34 272.21C151.59 272.886 155.57 275.006 157.999 278.629C160.041 281.674 161.679 286.516 160.718 290.189C160.45 291.208 159.94 291.451 159.098 292.014C157.32 292.267 155.509 292.338 153.723 292.11C153.461 292.074 153.199 292.032 152.939 291.983C152.679 291.933 152.42 291.878 152.162 291.816C151.905 291.754 151.649 291.685 151.395 291.609C151.141 291.534 150.889 291.452 150.639 291.364C150.389 291.276 150.142 291.182 149.897 291.081C149.652 290.98 149.409 290.873 149.17 290.761C148.93 290.647 148.694 290.528 148.46 290.403C148.226 290.278 147.996 290.147 147.769 290.01C147.543 289.873 147.32 289.731 147.1 289.582C146.88 289.434 146.665 289.28 146.453 289.12C146.241 288.962 146.034 288.797 145.83 288.627C145.627 288.457 145.428 288.282 145.234 288.102C145.04 287.922 144.85 287.738 144.665 287.548C144.48 287.358 144.3 287.164 144.125 286.964C143.95 286.766 143.78 286.563 143.616 286.355C143.451 286.148 143.291 285.936 143.137 285.72C140.979 282.69 139.42 277.688 140.207 273.963C140.428 272.921 140.718 272.658 141.603 272.131Z" fill="#FEFEFE"/>
        <path d="M160.323 4.06287C160.547 4.05037 160.771 4.03386 160.995 4.02546C164.452 3.89676 170.637 4.16236 173.015 7.04516C173.78 7.97306 173.74 8.52406 173.592 9.59796C171.81 10.4493 169.229 10.0188 167.265 10.1413C162.539 10.4361 157.002 12.4683 153.06 15.1474C147.115 19.1873 143.972 29.4657 141.671 30.6551C137.783 32.6649 135.908 24.8596 133.858 22.6416C131.83 20.4483 129.071 19.111 126.323 18.0687L125.689 17.8343C118.954 16.5305 113.48 17.872 107 19.4917C108.089 17.8343 109.165 16.2115 110.662 14.8883C114.824 11.2093 120.55 9.88706 125.989 10.184C132.244 10.5255 136.782 13.1304 140.874 17.6856C141.385 16.8829 141.909 16.0894 142.448 15.3051C146.711 9.13746 153.049 5.42737 160.323 4.06287Z" fill="#FEFEFE"/>
    </g>
</svg>
